<svg width="1440" height="811" viewBox="0 0 1440 811" fill="none" xmlns="http://www.w3.org/2000/svg">
<path d="M1439.71 0H0.03125V810.531H1439.71V0Z" fill="#120F31"/>
<path d="M516.411 145.834C517.38 145.834 518.165 145.049 518.165 144.08C518.165 143.111 517.38 142.325 516.411 142.325C515.442 142.325 514.656 143.111 514.656 144.08C514.656 145.049 515.442 145.834 516.411 145.834Z" fill="#3791EB"/>
<path d="M876.764 267.697C877.452 267.697 878.009 267.14 878.009 266.453C878.009 265.765 877.452 265.208 876.764 265.208C876.077 265.208 875.52 265.765 875.52 266.453C875.52 267.14 876.077 267.697 876.764 267.697Z" fill="#3791EB"/>
<path d="M997.053 93.3615C997.741 93.3615 998.298 92.8042 998.298 92.1168C998.298 91.4293 997.741 90.8721 997.053 90.8721C996.366 90.8721 995.809 91.4293 995.809 92.1168C995.809 92.8042 996.366 93.3615 997.053 93.3615Z" fill="#3791EB"/>
<path d="M805.042 295.246C805.729 295.246 806.286 294.689 806.286 294.002C806.286 293.314 805.729 292.757 805.042 292.757C804.354 292.757 803.797 293.314 803.797 294.002C803.797 294.689 804.354 295.246 805.042 295.246Z" fill="#3791EB"/>
<path d="M779.811 68.8498C780.499 68.8498 781.056 68.2925 781.056 67.6051C781.056 66.9176 780.499 66.3604 779.811 66.3604C779.124 66.3604 778.566 66.9176 778.566 67.6051C778.566 68.2925 779.124 68.8498 779.811 68.8498Z" fill="#3791EB"/>
<path d="M983.549 357.468C984.237 357.468 984.794 356.911 984.794 356.223C984.794 355.536 984.237 354.979 983.549 354.979C982.862 354.979 982.305 355.536 982.305 356.223C982.305 356.911 982.862 357.468 983.549 357.468Z" fill="#3791EB"/>
<path d="M941.889 321.498C942.577 321.498 943.134 320.941 943.134 320.254C943.134 319.566 942.577 319.009 941.889 319.009C941.202 319.009 940.645 319.566 940.645 320.254C940.645 320.941 941.202 321.498 941.889 321.498Z" fill="#3791EB"/>
<path d="M792.53 387.521C793.014 387.521 793.407 387.128 793.407 386.644C793.407 386.159 793.014 385.767 792.53 385.767C792.045 385.767 791.652 386.159 791.652 386.644C791.652 387.128 792.045 387.521 792.53 387.521Z" fill="#3791EB"/>
<path d="M863.576 369.84C864.061 369.84 864.454 369.447 864.454 368.962C864.454 368.478 864.061 368.085 863.576 368.085C863.092 368.085 862.699 368.478 862.699 368.962C862.699 369.447 863.092 369.84 863.576 369.84Z" fill="#3791EB"/>
<path d="M1248.62 177.515C1249.11 177.515 1249.5 177.123 1249.5 176.638C1249.5 176.154 1249.11 175.761 1248.62 175.761C1248.14 175.761 1247.75 176.154 1247.75 176.638C1247.75 177.123 1248.14 177.515 1248.62 177.515Z" fill="#3791EB"/>
<path d="M1284.61 86.5232C1285.09 86.5232 1285.49 86.1304 1285.49 85.6459C1285.49 85.1613 1285.09 84.7686 1284.61 84.7686C1284.12 84.7686 1283.73 85.1613 1283.73 85.6459C1283.73 86.1304 1284.12 86.5232 1284.61 86.5232Z" fill="#3791EB"/>
<path d="M1408.38 277.767C1408.87 277.767 1409.26 277.375 1409.26 276.89C1409.26 276.405 1408.87 276.013 1408.38 276.013C1407.9 276.013 1407.5 276.405 1407.5 276.89C1407.5 277.375 1407.9 277.767 1408.38 277.767Z" fill="#3791EB"/>
<path d="M1326.85 358.344C1327.33 358.344 1327.73 357.952 1327.73 357.467C1327.73 356.983 1327.33 356.59 1326.85 356.59C1326.37 356.59 1325.97 356.983 1325.97 357.467C1325.97 357.952 1326.37 358.344 1326.85 358.344Z" fill="#3791EB"/>
<path d="M1321.96 234.48C1322.44 234.48 1322.83 234.087 1322.83 233.603C1322.83 233.118 1322.44 232.726 1321.96 232.726C1321.47 232.726 1321.08 233.118 1321.08 233.603C1321.08 234.087 1321.47 234.48 1321.96 234.48Z" fill="#3791EB"/>
<path d="M1336.75 447.508C1337.23 447.508 1337.63 447.115 1337.63 446.63C1337.63 446.146 1337.23 445.753 1336.75 445.753C1336.26 445.753 1335.87 446.146 1335.87 446.63C1335.87 447.115 1336.26 447.508 1336.75 447.508Z" fill="#3791EB"/>
<path d="M1203.39 657.902C1203.88 657.902 1204.27 657.509 1204.27 657.025C1204.27 656.54 1203.88 656.147 1203.39 656.147C1202.91 656.147 1202.52 656.54 1202.52 657.025C1202.52 657.509 1202.91 657.902 1203.39 657.902Z" fill="#3791EB"/>
<path d="M640.952 479.517C641.436 479.517 641.829 479.125 641.829 478.64C641.829 478.156 641.436 477.763 640.952 477.763C640.467 477.763 640.074 478.156 640.074 478.64C640.074 479.125 640.467 479.517 640.952 479.517Z" fill="#3791EB"/>
<path d="M543.983 480.395C544.467 480.395 544.86 480.002 544.86 479.518C544.86 479.033 544.467 478.641 543.983 478.641C543.498 478.641 543.105 479.033 543.105 479.518C543.105 480.002 543.498 480.395 543.983 480.395Z" fill="#3791EB"/>
<path d="M661.803 456.528C662.288 456.528 662.68 456.135 662.68 455.651C662.68 455.166 662.288 454.773 661.803 454.773C661.319 454.773 660.926 455.166 660.926 455.651C660.926 456.135 661.319 456.528 661.803 456.528Z" fill="#3791EB"/>
<path d="M1325.97 186.85C1326.46 186.85 1326.85 186.458 1326.85 185.973C1326.85 185.488 1326.46 185.096 1325.97 185.096C1325.49 185.096 1325.1 185.488 1325.1 185.973C1325.1 186.458 1325.49 186.85 1325.97 186.85Z" fill="#3791EB"/>
<path d="M1397.99 365.198C1398.48 365.198 1398.87 364.805 1398.87 364.321C1398.87 363.836 1398.48 363.443 1397.99 363.443C1397.51 363.443 1397.12 363.836 1397.12 364.321C1397.12 364.805 1397.51 365.198 1397.99 365.198Z" fill="#3791EB"/>
<path d="M1236.76 600.015C1237.24 600.015 1237.64 599.623 1237.64 599.138C1237.64 598.654 1237.24 598.261 1236.76 598.261C1236.28 598.261 1235.88 598.654 1235.88 599.138C1235.88 599.623 1236.28 600.015 1236.76 600.015Z" fill="#3791EB"/>
<path d="M1022.06 517.136C1022.55 517.136 1022.94 516.744 1022.94 516.259C1022.94 515.775 1022.55 515.382 1022.06 515.382C1021.58 515.382 1021.18 515.775 1021.18 516.259C1021.18 516.744 1021.58 517.136 1022.06 517.136Z" fill="#3791EB"/>
<path d="M60.026 231.945C60.7134 231.945 61.2707 231.388 61.2707 230.701C61.2707 230.013 60.7134 229.456 60.026 229.456C59.3385 229.456 58.7812 230.013 58.7812 230.701C58.7812 231.388 59.3385 231.945 60.026 231.945Z" fill="#3791EB"/>
<path d="M120.979 298.53C121.667 298.53 122.224 297.973 122.224 297.286C122.224 296.598 121.667 296.041 120.979 296.041C120.292 296.041 119.734 296.598 119.734 297.286C119.734 297.973 120.292 298.53 120.979 298.53Z" fill="#3791EB"/>
<path d="M109.139 381.919C109.827 381.919 110.384 381.362 110.384 380.674C110.384 379.987 109.827 379.43 109.139 379.43C108.452 379.43 107.895 379.987 107.895 380.674C107.895 381.362 108.452 381.919 109.139 381.919Z" fill="#3791EB"/>
<path d="M177.112 107.848C177.799 107.848 178.357 107.291 178.357 106.603C178.357 105.916 177.799 105.358 177.112 105.358C176.424 105.358 175.867 105.916 175.867 106.603C175.867 107.291 176.424 107.848 177.112 107.848Z" fill="#3791EB"/>
<path d="M71.4244 42.0656C72.1119 42.0656 72.6691 41.5083 72.6691 40.8209C72.6691 40.1335 72.1119 39.5762 71.4244 39.5762C70.737 39.5762 70.1797 40.1335 70.1797 40.8209C70.1797 41.5083 70.737 42.0656 71.4244 42.0656Z" fill="#3791EB"/>
<path d="M102.565 85.4807C103.252 85.4807 103.81 84.9234 103.81 84.2359C103.81 83.5485 103.252 82.9912 102.565 82.9912C101.878 82.9912 101.32 83.5485 101.32 84.2359C101.32 84.9234 101.878 85.4807 102.565 85.4807Z" fill="#3791EB"/>
<path d="M153.499 51.2062C154.186 51.2062 154.743 50.649 154.743 49.9615C154.743 49.2741 154.186 48.7168 153.499 48.7168C152.811 48.7168 152.254 49.2741 152.254 49.9615C152.254 50.649 152.811 51.2062 153.499 51.2062Z" fill="#3791EB"/>
<path d="M545.345 118.953C546.099 118.953 546.71 118.342 546.71 117.588C546.71 116.835 546.099 116.224 545.345 116.224C544.591 116.224 543.98 116.835 543.98 117.588C543.98 118.342 544.591 118.953 545.345 118.953Z" fill="#3791EB"/>
<path d="M457.767 118.953C458.521 118.953 459.132 118.342 459.132 117.588C459.132 116.835 458.521 116.224 457.767 116.224C457.013 116.224 456.402 116.835 456.402 117.588C456.402 118.342 457.013 118.953 457.767 118.953Z" fill="#3791EB"/>
<path d="M443.218 178.647C443.844 178.647 444.35 178.14 444.35 177.515C444.35 176.89 443.844 176.383 443.218 176.383C442.593 176.383 442.086 176.89 442.086 177.515C442.086 178.14 442.593 178.647 443.218 178.647Z" fill="#3791EB"/>
<path d="M392.726 50.9813C393.351 50.9813 393.858 50.4744 393.858 49.849C393.858 49.2237 393.351 48.7168 392.726 48.7168C392.101 48.7168 391.594 49.2237 391.594 49.849C391.594 50.4744 392.101 50.9813 392.726 50.9813Z" fill="#3791EB"/>
<path d="M379.791 29.8055C380.23 29.8055 380.586 29.4496 380.586 29.0106C380.586 28.5717 380.23 28.2158 379.791 28.2158C379.352 28.2158 378.996 28.5717 378.996 29.0106C378.996 29.4496 379.352 29.8055 379.791 29.8055Z" fill="#3791EB"/>
<path d="M362.314 83.3064C362.753 83.3064 363.109 82.9506 363.109 82.5116C363.109 82.0726 362.753 81.7168 362.314 81.7168C361.875 81.7168 361.52 82.0726 361.52 82.5116C361.52 82.9506 361.875 83.3064 362.314 83.3064Z" fill="#3791EB"/>
<path d="M290.342 213.47C290.781 213.47 291.137 213.114 291.137 212.675C291.137 212.236 290.781 211.88 290.342 211.88C289.903 211.88 289.547 212.236 289.547 212.675C289.547 213.114 289.903 213.47 290.342 213.47Z" fill="#3791EB"/>
<path d="M572.744 40.3787C573.183 40.3787 573.539 40.0229 573.539 39.5839C573.539 39.1449 573.183 38.7891 572.744 38.7891C572.305 38.7891 571.949 39.1449 571.949 39.5839C571.949 40.0229 572.305 40.3787 572.744 40.3787Z" fill="#3791EB"/>
<path d="M1069.92 108.636C1070.36 108.636 1070.71 108.28 1070.71 107.841C1070.71 107.402 1070.36 107.046 1069.92 107.046C1069.48 107.046 1069.12 107.402 1069.12 107.841C1069.12 108.28 1069.48 108.636 1069.92 108.636Z" fill="#3791EB"/>
<path d="M1290.31 474.509C1290.75 474.509 1291.1 474.153 1291.1 473.714C1291.1 473.275 1290.75 472.919 1290.31 472.919C1289.87 472.919 1289.51 473.275 1289.51 473.714C1289.51 474.153 1289.87 474.509 1290.31 474.509Z" fill="#3791EB"/>
<path d="M712.857 296.836C713.296 296.836 713.652 296.48 713.652 296.041C713.652 295.602 713.296 295.246 712.857 295.246C712.418 295.246 712.062 295.602 712.062 296.041C712.062 296.48 712.418 296.836 712.857 296.836Z" fill="#3791EB"/>
<path d="M706.127 334.073C706.566 334.073 706.922 333.717 706.922 333.278C706.922 332.839 706.566 332.483 706.127 332.483C705.688 332.483 705.332 332.839 705.332 333.278C705.332 333.717 705.688 334.073 706.127 334.073Z" fill="#3791EB"/>
<path d="M282.267 123.678C282.706 123.678 283.062 123.322 283.062 122.883C283.062 122.444 282.706 122.088 282.267 122.088C281.829 122.088 281.473 122.444 281.473 122.883C281.473 123.322 281.829 123.678 282.267 123.678Z" fill="#3791EB"/>
<path d="M356.073 170.295C357.684 170.295 358.99 168.989 358.99 167.378C358.99 165.767 357.684 164.461 356.073 164.461C354.462 164.461 353.156 165.767 353.156 167.378C353.156 168.989 354.462 170.295 356.073 170.295Z" fill="#18195F"/>
<path d="M585.018 176.128C586.629 176.128 587.935 174.822 587.935 173.211C587.935 171.6 586.629 170.294 585.018 170.294C583.407 170.294 582.102 171.6 582.102 173.211C582.102 174.822 583.407 176.128 585.018 176.128Z" fill="#18195F"/>
<path d="M949.288 146.997C950.899 146.997 952.205 145.691 952.205 144.08C952.205 142.469 950.899 141.163 949.288 141.163C947.677 141.163 946.371 142.469 946.371 144.08C946.371 145.691 947.677 146.997 949.288 146.997Z" fill="#18195F"/>
<path d="M828.155 344.48C829.766 344.48 831.072 343.174 831.072 341.563C831.072 339.952 829.766 338.646 828.155 338.646C826.544 338.646 825.238 339.952 825.238 341.563C825.238 343.174 826.544 344.48 828.155 344.48Z" fill="#18195F"/>
<path d="M1188.65 452.464C1190.26 452.464 1191.57 451.158 1191.57 449.547C1191.57 447.936 1190.26 446.63 1188.65 446.63C1187.04 446.63 1185.73 447.936 1185.73 449.547C1185.73 451.158 1187.04 452.464 1188.65 452.464Z" fill="#18195F"/>
<path d="M585.018 503.932C586.629 503.932 587.935 502.626 587.935 501.015C587.935 499.405 586.629 498.099 585.018 498.099C583.407 498.099 582.102 499.405 582.102 501.015C582.102 502.626 583.407 503.932 585.018 503.932Z" fill="#18195F"/>
<path d="M1172.08 633.879C1173.69 633.879 1174.99 632.573 1174.99 630.962C1174.99 629.351 1173.69 628.045 1172.08 628.045C1170.47 628.045 1169.16 629.351 1169.16 630.962C1169.16 632.573 1170.47 633.879 1172.08 633.879Z" fill="#18195F"/>
<path d="M955.128 628.045C956.739 628.045 958.045 626.739 958.045 625.128C958.045 623.517 956.739 622.211 955.128 622.211C953.517 622.211 952.211 623.517 952.211 625.128C952.211 626.739 953.517 628.045 955.128 628.045Z" fill="#18195F"/>
<path d="M1360.37 506.849C1361.98 506.849 1363.29 505.543 1363.29 503.932C1363.29 502.322 1361.98 501.016 1360.37 501.016C1358.76 501.016 1357.45 502.322 1357.45 503.932C1357.45 505.543 1358.76 506.849 1360.37 506.849Z" fill="#18195F"/>
<path d="M406.929 524.755C408.54 524.755 409.845 523.449 409.845 521.838C409.845 520.227 408.54 518.921 406.929 518.921C405.318 518.921 404.012 520.227 404.012 521.838C404.012 523.449 405.318 524.755 406.929 524.755Z" fill="#18195F"/>
<path d="M1425.78 149.914C1427.39 149.914 1428.69 148.608 1428.69 146.997C1428.69 145.386 1427.39 144.08 1425.78 144.08C1424.17 144.08 1422.86 145.386 1422.86 146.997C1422.86 148.608 1424.17 149.914 1425.78 149.914Z" fill="#18195F"/>
<path d="M1202.2 103.476C1203.81 103.476 1205.11 102.17 1205.11 100.559C1205.11 98.9485 1203.81 97.6426 1202.2 97.6426C1200.59 97.6426 1199.28 98.9485 1199.28 100.559C1199.28 102.17 1200.59 103.476 1202.2 103.476Z" fill="#18195F"/>
<path d="M247.354 142.318C248.965 142.318 250.271 141.012 250.271 139.401C250.271 137.79 248.965 136.484 247.354 136.484C245.743 136.484 244.438 137.79 244.438 139.401C244.438 141.012 245.743 142.318 247.354 142.318Z" fill="#18195F"/>
<path d="M45.6278 426.992C47.2387 426.992 48.5446 425.686 48.5446 424.075C48.5446 422.464 47.2387 421.158 45.6278 421.158C44.0169 421.158 42.7109 422.464 42.7109 424.075C42.7109 425.686 44.0169 426.992 45.6278 426.992Z" fill="#18195F"/>
<path d="M638.581 35.6472C640.192 35.6472 641.498 34.3413 641.498 32.7303C641.498 31.1194 640.192 29.8135 638.581 29.8135C636.97 29.8135 635.664 31.1194 635.664 32.7303C635.664 34.3413 636.97 35.6472 638.581 35.6472Z" fill="#18195F"/>
<path d="M587.936 47.8991C589.547 47.8991 590.853 46.5932 590.853 44.9823C590.853 43.3713 589.547 42.0654 587.936 42.0654C586.325 42.0654 585.02 43.3713 585.02 44.9823C585.02 46.5932 586.325 47.8991 587.936 47.8991Z" fill="#18195F"/>
<path d="M582.104 77.6003C583.715 77.6003 585.021 76.2944 585.021 74.6834C585.021 73.0725 583.715 71.7666 582.104 71.7666C580.493 71.7666 579.188 73.0725 579.188 74.6834C579.188 76.2944 580.493 77.6003 582.104 77.6003Z" fill="#18195F"/>
<path d="M69.6174 154.916H73.0291C73.0291 154.916 71.597 142.483 84.1416 143.931V140.849C84.1416 140.849 72.6992 142.056 72.6992 129.736H70.0598C70.0598 129.736 70.9146 141.291 58.7148 140.736V143.736C58.7148 143.736 70.8246 143.361 69.6174 154.916Z" fill="#1C4770"/>
<path d="M465.256 80.5315H466.936C466.936 80.5315 466.231 74.7278 472.387 75.3951V73.9554C472.387 73.9554 466.771 74.5178 466.771 68.7666H465.474C465.474 68.7666 465.894 74.1579 459.91 73.9029V75.2901C459.91 75.2901 465.856 75.1327 465.256 80.5315Z" fill="#1C4770"/>
<path d="M747.359 342.298H750.778C750.778 342.298 749.346 330.459 761.906 331.801V328.869C761.906 328.869 750.448 330.024 750.448 318.281H747.801C747.801 318.281 748.664 329.289 736.441 328.779V331.606C736.441 331.606 748.574 331.291 747.359 342.298Z" fill="#1C4770"/>
<path d="M1328.81 123.063H1332.23C1332.23 123.063 1330.8 111.215 1343.35 112.565V109.626C1343.35 109.626 1331.9 110.78 1331.9 99.0381H1329.25C1329.25 99.0381 1330.11 110.046 1317.89 109.536V112.37C1317.89 112.37 1330.02 112.055 1328.81 123.063Z" fill="#1C4770"/>
<path d="M1104.92 546.006H1107.01C1107.01 546.006 1106.14 538.777 1113.8 539.609V537.817C1113.8 537.817 1106.81 538.522 1106.81 531.361H1105.19C1105.19 531.361 1105.72 538.072 1098.27 537.757V539.482C1098.27 539.482 1105.67 539.287 1104.92 546.006Z" fill="#1C4770"/>
<path d="M527.006 629.529H529.09C529.09 629.529 528.213 622.301 535.884 623.133V621.341C535.884 621.341 528.888 622.046 528.888 614.885H527.276C527.276 614.885 527.801 621.596 520.34 621.281V623.005C520.34 623.005 527.748 622.81 527.006 629.529Z" fill="#1C4770"/>
<path d="M124.322 585.949H126.407C126.407 585.949 125.529 578.72 133.2 579.553V577.76C133.2 577.76 126.204 578.465 126.204 571.297H124.592C124.592 571.297 125.117 578.045 117.656 577.693V579.425C117.656 579.425 125.065 579.23 124.322 585.949Z" fill="#1C4770"/>
<path d="M1439.71 0H0.03125V810.531H1439.71V0Z" fill="url(#paint0_linear)"/>
<defs>
<linearGradient id="paint0_linear" x1="719.87" y1="810.531" x2="719.87" y2="0" gradientUnits="userSpaceOnUse">
<stop stop-color="#FFBC48"/>
<stop offset="0.05" stop-color="#D9A044" stop-opacity="0.84"/>
<stop offset="0.14" stop-color="#A57A3F" stop-opacity="0.62"/>
<stop offset="0.22" stop-color="#78593B" stop-opacity="0.43"/>
<stop offset="0.3" stop-color="#533F37" stop-opacity="0.27"/>
<stop offset="0.38" stop-color="#372A35" stop-opacity="0.15"/>
<stop offset="0.46" stop-color="#221B33" stop-opacity="0.07"/>
<stop offset="0.54" stop-color="#161231" stop-opacity="0.02"/>
<stop offset="0.61" stop-color="#120F31" stop-opacity="0"/>
</linearGradient>
</defs>
</svg>
