<svg width="55" height="34" viewBox="0 0 55 34" fill="none" xmlns="http://www.w3.org/2000/svg">
<path d="M17.1685 4.53274C15.5866 6.0743 0 7.02893 0 7.02893C0 7.02893 21.427 21.7232 21.5169 23.293C21.6669 25.8246 15.3617 25.9165 15.3617 25.9165L31.5482 32.1039C31.938 32.2383 32.3354 32.3585 32.7477 32.4646C37.1028 33.602 41.7581 33.0696 45.6987 30.9834C49.6394 28.8971 52.5459 25.4262 53.7848 21.3272C54.398 19.3056 54.5806 17.1894 54.3218 15.1009C54.063 13.0124 53.3681 10.993 52.2772 9.1592C51.1862 7.32545 49.7209 5.71375 47.9658 4.41718C46.2107 3.12061 44.2006 2.16488 42.0517 1.60519C41.0696 1.34355 39.0978 1.08192 39.0978 1.08192L15.969 0C15.969 0 18.623 3.12554 17.1685 4.53274Z" fill="white"/>
<path d="M24.1326 8.71227C23.0455 9.7659 12.332 10.4518 12.332 10.4518C12.332 10.4518 24.8898 20.2951 24.9648 21.3558C25.0622 23.0883 22.8656 23.35 22.8656 23.35L33.9764 27.5928C34.2463 27.6847 34.5162 27.7625 34.7936 27.8332C37.7904 28.6044 40.9885 28.2337 43.6982 26.8011C46.4079 25.3684 48.4119 22.9886 49.2782 20.1749C49.7049 18.7918 49.8351 17.3423 49.6612 15.9111C49.4872 14.48 49.0126 13.0959 48.265 11.8397C47.5174 10.5835 46.5119 9.48051 45.3072 8.59507C44.1025 7.70963 42.7228 7.05953 41.2486 6.68277C40.5739 6.50599 39.2244 6.32921 39.2244 6.32921L23.3379 5.62207C23.3379 5.62207 25.1297 7.74349 24.1326 8.71227Z" fill="#2BD0FA"/>
<path d="M46.4602 12.8703C47.3875 14.4046 47.8108 16.164 47.6765 17.9255C47.5423 19.687 46.8566 21.3712 45.7062 22.7646C44.5558 24.158 42.9927 25.1979 41.215 25.7523C39.4373 26.3068 37.5251 26.3508 35.7208 25.8789C33.9165 25.407 32.3014 24.4404 31.0802 23.1017C29.8591 21.7629 29.0869 20.1123 28.8617 18.3591C28.6364 16.6059 28.9681 14.8291 29.8148 13.2539C30.6615 11.6788 31.985 10.3762 33.6175 9.51143C34.6944 8.93569 35.881 8.56588 37.1096 8.42311C38.3381 8.28033 39.5844 8.36742 40.7773 8.67939C41.9701 8.99136 43.086 9.52208 44.0611 10.2412C45.0363 10.9603 45.8515 11.8537 46.4602 12.8703V12.8703Z" fill="#2A69A8" stroke="#2A69A8" stroke-width="4.23529"/>
</svg>
