<svg width="71" height="44" viewBox="0 0 71 44" fill="none" xmlns="http://www.w3.org/2000/svg">
<path d="M22.7218 6.31946C20.6976 8.29943 0.597656 9.57934 0.597656 9.57934C0.597656 9.57934 28.2697 28.474 28.3897 30.4752C28.5921 33.7351 20.4577 33.8694 20.4577 33.8694L41.3448 41.8176C41.8546 41.9873 42.3644 42.1358 42.8967 42.2772C48.5171 43.7313 54.5191 43.0319 59.5953 40.3313C64.6715 37.6307 68.4109 33.1478 69.999 27.8588C70.7876 25.2498 71.0196 22.5191 70.6815 19.825C70.3433 17.1309 69.4417 14.5268 68.0289 12.1637C66.6161 9.80055 64.7203 7.7253 62.4512 6.05814C60.1821 4.39099 57.5847 3.16508 54.8097 2.45143C53.5427 2.12615 51.0012 1.79378 51.0012 1.79378L21.1849 0.478516C21.1849 0.478516 24.5961 4.49505 22.7218 6.31946Z" fill="white"/>
<path d="M31.7196 11.7007C30.3252 13.0654 16.5078 13.9706 16.5078 13.9706C16.5078 13.9706 32.7317 26.6283 32.8067 28.0001C32.9417 30.2347 30.1152 30.5741 30.1152 30.5741L44.4499 35.9837C44.7947 36.0968 45.147 36.2029 45.5069 36.2948C49.3713 37.2797 53.4912 36.7941 56.9798 34.9426C60.4683 33.091 63.0467 30.0216 64.1599 26.3949C64.7056 24.6106 64.8688 22.7416 64.6401 20.8971C64.4115 19.0526 63.7955 17.2695 62.8282 15.652C61.8608 14.0346 60.5614 12.6151 59.006 11.4765C57.4505 10.3379 55.6701 9.50303 53.7688 9.02061C52.8992 8.8014 51.1523 8.57511 51.1523 8.57511L30.6625 7.72656C30.6625 7.72656 33.0092 10.4349 31.7196 11.7007Z" fill="#2BD0FA"/>
<path d="M60.5211 16.9897C61.7234 18.9669 62.276 21.2362 62.1088 23.51C61.9416 25.7838 61.0621 27.9595 59.582 29.7611C58.1018 31.5627 56.0875 32.9091 53.7949 33.6294C51.5022 34.3497 49.0344 34.4114 46.7045 33.8068C44.3746 33.2023 42.2875 31.9585 40.7081 30.2335C39.1287 28.5085 38.1282 26.3798 37.8333 24.1176C37.5385 21.8554 37.9627 19.5616 39.0521 17.5271C40.1415 15.4926 41.847 13.8092 43.9524 12.6904C45.3394 11.9458 46.8684 11.4664 48.4519 11.2795C50.0355 11.0927 51.6427 11.202 53.1814 11.6013C54.7202 12.0006 56.1605 12.682 57.4198 13.6066C58.6792 14.5312 59.7331 15.6808 60.5211 16.9897V16.9897Z" fill="#2A69A8" stroke="#2A69A8" stroke-width="4.23529"/>
</svg>
