<svg width="1440" height="206" viewBox="0 0 1440 206" fill="none" xmlns="http://www.w3.org/2000/svg">
<mask id="mask0" mask-type="alpha" maskUnits="userSpaceOnUse" x="0" y="0" width="1440" height="206">
<rect width="1440" height="206" fill="#C4C4C4"/>
</mask>
<g mask="url(#mask0)">
<path d="M1439.73 85.2154C1439.73 85.0699 1439.7 84.9257 1439.64 84.7911C1439.58 84.6564 1439.5 84.534 1439.39 84.4308C1439.28 84.3276 1439.15 84.2458 1439.01 84.1899C1438.87 84.134 1438.71 84.1052 1438.56 84.1052H1415.77C1402.1 84.1052 1390.04 77.4299 1386.05 67.6502L1380.66 54.455C1376.67 44.6753 1364.61 38 1350.94 38H1334.77C1317.6 38 1303.68 48.409 1303.68 61.2506V106.33C1303.68 119.172 1289.77 129.581 1272.61 129.581H1214.63L1166.25 129.093C1152.66 128.959 1140.76 122.234 1136.88 112.49L1132.19 100.709C1128.25 90.8584 1116.14 84.1052 1102.4 84.1052H984.087C971.724 84.1052 960.531 78.6179 955.598 70.1322C950.665 61.6466 939.472 56.1592 927.109 56.1592H889.495C872.327 56.1592 858.412 66.5683 858.412 79.4169V90.9786C858.412 103.431 851.522 115.629 835.171 117.029C830.005 117.475 829.383 119.858 829.383 119.858C829.46 120.075 829.607 120.265 829.803 120.4C829.999 120.536 830.234 120.61 830.477 120.615C840.021 120.834 864.29 120.303 875.55 120.933C877.8 121.053 885.297 121.682 884.382 123.599L859.814 175.22C859.734 175.389 859.7 175.575 859.716 175.761C859.732 175.946 859.796 176.124 859.903 176.28C860.01 176.436 860.157 176.564 860.33 176.653C860.503 176.742 860.697 176.789 860.894 176.789H1438.6C1438.91 176.789 1439.21 176.672 1439.43 176.462C1439.66 176.253 1439.78 175.968 1439.78 175.672L1439.73 85.2154Z" fill="url(#paint0_linear)"/>
<path d="M65.5485 86.4683C65.5475 86.3229 65.577 86.1787 65.6353 86.044C65.6937 85.9094 65.7797 85.7869 65.8884 85.6837C65.9971 85.5805 66.1263 85.4987 66.2687 85.4428C66.4111 85.3869 66.5639 85.3581 66.7181 85.3581H89.5095C103.177 85.3581 115.24 78.6828 119.228 68.9031L124.619 55.7079C128.607 45.9283 140.67 39.2529 154.338 39.2529H170.509C187.678 39.2529 201.592 49.662 201.592 62.5035V107.583C201.592 120.425 215.507 130.834 232.668 130.834H290.652L339.031 130.346C352.616 130.212 364.521 123.487 368.397 113.743L373.091 101.962C377.027 92.1113 389.135 85.3581 402.877 85.3581H521.19C533.553 85.3581 544.746 79.8708 549.679 71.3852C554.613 62.8995 565.806 57.4122 578.169 57.4122H615.782C632.951 57.4122 646.865 67.8212 646.865 80.6699V92.2315C646.865 104.684 653.755 116.882 670.107 118.282C675.272 118.728 675.895 121.111 675.895 121.111C675.817 121.328 675.67 121.518 675.474 121.653C675.278 121.788 675.043 121.863 674.8 121.868C665.256 122.087 640.988 121.556 629.727 122.186C627.478 122.306 619.981 122.935 620.895 124.852L645.463 176.472C645.543 176.642 645.577 176.828 645.561 177.013C645.546 177.199 645.481 177.377 645.374 177.533C645.267 177.689 645.12 177.817 644.947 177.906C644.775 177.995 644.581 178.042 644.384 178.042H66.6806C66.3664 178.042 66.0651 177.925 65.843 177.715C65.6208 177.506 65.496 177.221 65.496 176.925L65.5485 86.4683Z" fill="url(#paint1_linear)"/>
<path d="M1440.26 203.795H0.285156V151.382L723.059 150.533H1440.26V203.795Z" fill="url(#paint2_linear)"/>
<path d="M1440.26 182.298H0.269531V190.734H1440.26V182.298Z" fill="#FFBC48"/>
<path d="M1440.27 161.911H0.269531V173.282H1440.27V161.911Z" fill="#F2D65F"/>
<path d="M1440.26 190.734H0.285156V203.795H1440.26V190.734Z" fill="#F49947"/>
<path d="M1440.26 198.314H0.285156V203.795H1440.26V198.314Z" fill="#FF7415"/>
<path d="M1360.94 76.2279L1351.64 108.848C1349.57 116.089 1341.02 121.265 1331.13 121.265H1325.77C1314.18 121.265 1304.78 114.236 1304.78 105.567V97.7389C1304.78 89.0694 1295.39 82.0476 1283.79 82.0476H1258.41C1250.05 82.0476 1242.5 85.7459 1239.17 91.4737C1235.84 97.2015 1228.28 100.907 1219.94 100.907H1140.1C1130.83 100.907 1122.65 105.461 1120 112.115L1116.83 120.063C1114.2 126.64 1106.18 131.179 1097.01 131.271L1064.36 131.597H1025.23C1013.64 131.597 1004.24 124.575 1004.24 115.905V85.4984C1004.24 76.8289 994.842 69.8 983.243 69.8H972.342C963.113 69.8 954.971 74.3115 952.28 80.9091L948.666 89.819C945.967 96.4166 937.825 100.928 928.604 100.928H913.227C905.198 100.928 897.873 104.358 894.357 109.76L889.761 116.832C886.245 122.234 878.92 125.664 870.891 125.664H844.883C833.3 125.664 823.891 132.686 823.891 141.355V147.783C823.891 156.452 833.285 163.481 844.883 163.481H1304.37V163.729H1440.07L1440.23 135.818C1438.18 135.826 1436.14 135.45 1434.24 134.714C1432.34 133.977 1430.61 132.894 1429.16 131.526C1427.7 130.158 1426.55 128.533 1425.76 126.743C1424.97 124.953 1424.57 123.034 1424.57 121.096V79.5019C1424.57 70.8324 1415.17 63.8106 1403.57 63.8106H1381.41C1371.57 63.7964 1363.01 68.9868 1360.94 76.2279Z" fill="url(#paint3_linear)"/>
<path d="M81.8866 73.6985L95.837 106.33C98.9396 113.574 111.755 118.752 126.593 118.752H134.619C151.998 118.752 166.095 111.72 166.095 103.048V95.217C166.095 86.5445 180.18 79.5202 197.57 79.5202H235.633C248.156 79.5202 259.476 83.2198 264.478 88.9496C269.469 94.6794 280.8 98.3861 293.312 98.3861H413.019C426.925 98.3861 439.178 102.942 443.157 109.598L447.912 117.549C451.847 124.128 463.875 128.669 477.623 128.761L526.589 129.086H585.257C602.636 129.086 616.733 122.062 616.733 113.39V82.9723C616.733 74.2998 630.818 67.2684 648.208 67.2684H664.553C678.391 67.2684 690.599 71.7815 694.635 78.3814L700.053 87.2943C704.1 93.8942 716.308 98.4073 730.134 98.4073H753.19C765.23 98.4073 776.212 101.838 781.484 107.242L788.375 114.316C793.647 119.721 804.63 123.151 816.669 123.151H855.665C873.033 123.151 887.141 130.176 887.141 138.848V145.278C887.141 153.951 873.055 160.982 855.665 160.982H166.713V161.23H-36.7532L-37.0006 133.309C-33.9195 133.317 -30.8665 132.942 -28.0165 132.205C-25.1666 131.468 -22.5758 130.384 -20.393 129.016C-18.2102 127.648 -16.4783 126.022 -15.2965 124.231C-14.1147 122.44 -13.5064 120.521 -13.5064 118.582V76.9737C-13.5064 68.3012 0.57885 61.2769 17.969 61.2769H51.1982C65.9579 61.2627 78.784 66.4549 81.8866 73.6985Z" fill="url(#paint4_linear)"/>
<path opacity="0.25" d="M403.914 176.613C406.332 176.613 408.292 176.486 408.292 176.33C408.292 176.174 406.332 176.047 403.914 176.047C401.495 176.047 399.535 176.174 399.535 176.33C399.535 176.486 401.495 176.613 403.914 176.613Z" fill="black"/>
<path opacity="0.25" d="M202.566 199.128C209.857 199.128 215.768 198.805 215.768 198.407C215.768 198.008 209.857 197.686 202.566 197.686C195.274 197.686 189.363 198.008 189.363 198.407C189.363 198.805 195.274 199.128 202.566 199.128Z" fill="black"/>
<path opacity="0.25" d="M343.629 185.996C347.583 185.996 350.788 185.825 350.788 185.614C350.788 185.403 347.583 185.232 343.629 185.232C339.674 185.232 336.469 185.403 336.469 185.614C336.469 185.825 339.674 185.996 343.629 185.996Z" fill="black"/>
<path d="M408.119 176.599C408.119 176.599 410.196 176.429 408.449 174.852C407.766 174.244 404.52 173.226 403.201 175.481C403.201 175.481 402.451 176.577 404.445 176.599C406.439 176.62 408.119 176.599 408.119 176.599Z" fill="#F2D65F"/>
<path opacity="0.25" d="M1352.53 191.384C1359.82 191.384 1365.73 191.062 1365.73 190.663C1365.73 190.265 1359.82 189.942 1352.53 189.942C1345.24 189.942 1339.33 190.265 1339.33 190.663C1339.33 191.062 1345.24 191.384 1352.53 191.384Z" fill="black"/>
<path d="M1365.21 191.356C1365.21 191.356 1371.48 190.84 1366.2 186.081C1364.14 184.25 1354.36 181.131 1350.46 187.983C1350.46 187.983 1348.16 191.286 1354.21 191.356C1360.25 191.427 1365.21 191.356 1365.21 191.356Z" fill="#FF7415"/>
<path d="M349.423 185.968C349.423 185.968 352.557 185.713 349.925 183.33C348.891 182.411 343.995 180.877 342.046 184.278C342.046 184.278 340.899 185.933 343.92 185.968C346.941 186.003 349.423 185.968 349.423 185.968Z" fill="#FFD48F"/>
<path d="M214.827 199.071C214.827 199.071 221.102 198.562 215.824 193.796C213.762 191.964 203.971 188.889 200.08 195.705C200.08 195.705 197.786 199 203.828 199.071C209.871 199.142 214.827 199.071 214.827 199.071Z" fill="#FFBC48"/>
<path opacity="0.38" d="M1380.71 191.243C1385.45 191.243 1389.29 190.892 1389.29 190.458C1389.29 190.025 1385.45 189.673 1380.71 189.673C1375.98 189.673 1372.14 190.025 1372.14 190.458C1372.14 190.892 1375.98 191.243 1380.71 191.243Z" fill="#264C2B"/>
<path opacity="0.32" d="M233.089 200.146C239.559 200.146 244.807 200.57 244.807 201.094C244.807 201.617 239.559 202.041 233.089 202.041C226.619 202.041 221.371 201.617 221.371 201.094" fill="#264C2B"/>
<path opacity="0.25" d="M413.835 195.741C418.1 195.741 421.557 195.462 421.557 195.118C421.557 194.775 418.1 194.496 413.835 194.496C409.571 194.496 406.113 194.775 406.113 195.118C406.113 195.462 409.571 195.741 413.835 195.741Z" fill="#264C2B"/>
<path opacity="0.15" d="M359.692 185.996C362.764 185.996 365.255 185.794 365.255 185.544C365.255 185.294 362.764 185.091 359.692 185.091C356.62 185.091 354.129 185.294 354.129 185.544C354.129 185.794 356.62 185.996 359.692 185.996Z" fill="#264C2B"/>
<path d="M239.05 199.856V191.321C239.05 188.825 234.941 188.818 234.941 191.321V199.856C234.941 202.352 239.05 202.352 239.05 199.856Z" fill="#13651B"/>
<path d="M238.975 200.372C239.027 200.181 239.095 199.998 239.162 199.807C239.297 199.446 239.072 199.941 239.297 199.517C239.455 199.227 239.612 198.937 239.792 198.661C240.807 197.172 242.232 195.972 243.915 195.189C246.254 194.022 244.178 190.67 241.839 191.844C238.84 193.358 235.841 196.087 235.016 199.34C234.409 201.765 238.375 202.805 238.975 200.372V200.372Z" fill="#2B8E3A"/>
<path d="M230.432 195.755C230.672 195.833 230.125 195.628 230.133 195.628C230.268 195.72 230.44 195.762 230.582 195.84C230.983 196.052 231.368 196.288 231.737 196.547C233.239 197.71 234.436 199.184 235.238 200.853C236.408 203.095 239.954 201.129 238.792 198.895C237.292 196.066 234.818 193.16 231.527 192.035C229.038 191.187 227.966 194.935 230.432 195.776V195.755Z" fill="#2B8E3A"/>
<path d="M418.203 194.093V188.436C418.177 188.114 418.023 187.813 417.773 187.593C417.522 187.373 417.192 187.251 416.849 187.251C416.507 187.251 416.177 187.373 415.926 187.593C415.675 187.813 415.522 188.114 415.496 188.436V194.093C415.522 194.415 415.675 194.716 415.926 194.936C416.177 195.156 416.507 195.278 416.849 195.278C417.192 195.278 417.522 195.156 417.773 194.936C418.023 194.716 418.177 194.415 418.203 194.093V194.093Z" fill="#13651B"/>
<path d="M418.15 194.432C418.15 194.305 418.232 194.185 418.277 194.065C418.367 193.824 418.217 194.149 418.367 193.874C418.464 193.68 418.572 193.491 418.689 193.308C419.357 192.326 420.299 191.536 421.411 191.024C422.91 190.253 421.583 188.047 420.039 188.818C418.045 189.815 416.08 191.597 415.541 193.768C415.143 195.366 417.79 196.052 418.15 194.475V194.432Z" fill="#2B8E3A"/>
<path d="M412.511 191.392L412.308 191.314C412.398 191.371 412.511 191.399 412.608 191.449C412.855 191.583 413.208 191.788 413.358 191.901C414.343 192.666 415.13 193.634 415.659 194.73C416.409 196.208 418.771 194.914 417.998 193.443C417.016 191.555 415.382 189.659 413.215 188.924C411.573 188.365 410.869 190.833 412.466 191.385L412.511 191.392Z" fill="#2B8E3A"/>
<path d="M362.385 184.384V180.474C362.385 180.305 362.314 180.143 362.187 180.024C362.06 179.905 361.889 179.837 361.71 179.837C361.531 179.837 361.359 179.905 361.233 180.024C361.106 180.143 361.035 180.305 361.035 180.474V184.363C361.035 184.532 361.106 184.694 361.233 184.813C361.359 184.932 361.531 184.999 361.71 184.999C361.889 184.999 362.06 184.932 362.187 184.813C362.314 184.694 362.385 184.532 362.385 184.363V184.384Z" fill="#13651B"/>
<path d="M362.529 185.091C362.529 185.303 362.529 185.013 362.574 184.9C362.641 184.641 362.739 184.389 362.866 184.15C363.375 183.262 364.16 182.541 365.115 182.086C365.865 181.69 365.198 180.586 364.433 180.982C362.836 181.824 361.344 183.295 361.179 185.091C361.097 185.911 362.446 185.904 362.529 185.091Z" fill="#2B8E3A"/>
<path d="M358.772 182.171C358.659 182.171 358.689 182.1 358.824 182.171C358.719 182.1 359.124 182.362 359.221 182.439C360.102 183.289 360.798 184.293 361.268 185.395C361.643 186.102 362.813 185.487 362.43 184.752C361.884 183.493 361.064 182.356 360.024 181.414C359.685 181.103 359.242 180.913 358.772 180.876C357.909 180.926 357.909 182.199 358.772 182.149V182.171Z" fill="#2B8E3A"/>
<path d="M1384.59 189.094V181.782C1384.59 179.873 1381.45 179.865 1381.45 181.782V189.094C1381.45 191.003 1384.59 191.01 1384.59 189.094Z" fill="#13651B"/>
<path d="M1384.38 189.667C1385.34 187.827 1386.78 186.253 1388.57 185.099C1390.24 184.038 1388.67 181.464 1386.98 182.532C1384.72 183.95 1382.88 185.9 1381.66 188.189C1380.78 189.9 1383.49 191.406 1384.38 189.688V189.667Z" fill="#2B8E3A"/>
<path d="M1377.58 185.099L1377.71 185.183C1378.04 185.403 1377.58 185.07 1377.86 185.296C1378.15 185.523 1378.61 185.89 1378.94 186.209C1380.06 187.267 1380.98 188.496 1381.66 189.843C1382.55 191.562 1385.27 190.055 1384.38 188.344C1383.2 186.011 1381.39 184.008 1379.14 182.532C1377.45 181.464 1375.87 184.038 1377.55 185.099H1377.58Z" fill="#2B8E3A"/>
<path d="M1316.38 207.79V191.385C1316.38 184.561 1305.13 184.554 1305.13 191.385V207.79C1305.13 214.621 1316.38 214.628 1316.38 207.79Z" fill="#24490C"/>
<path d="M1315.61 212.429C1315.81 212.09 1316.03 211.722 1316.25 211.432C1316.48 211.142 1316.78 210.682 1317.05 210.315C1317.22 210.088 1317.4 209.869 1317.57 209.608C1317.07 210.251 1317.52 209.671 1317.8 209.367C1320.02 206.781 1322.7 204.578 1325.72 202.855C1331.95 199.39 1326.3 190.218 1320.04 193.662C1314.18 196.873 1309.3 201.472 1305.9 207.005C1302.4 212.981 1312.11 218.32 1315.64 212.358L1315.61 212.429Z" fill="#3B6D1B"/>
<path d="M1296.05 202.89C1296.43 203.102 1296.8 203.328 1297.15 203.597C1297.5 203.866 1297.97 204.148 1298.38 204.438C1297.29 203.661 1299.02 204.969 1299.2 205.146C1301.9 207.344 1304.17 209.978 1305.9 212.924C1309.41 218.892 1319.12 213.546 1315.65 207.571C1312.37 201.927 1307.58 197.188 1301.76 193.824C1295.52 190.352 1289.85 199.481 1296.09 203.017L1296.05 202.89Z" fill="#3B6D1B"/>
</g>
<defs>
<linearGradient id="paint0_linear" x1="1134.55" y1="176.804" x2="1134.55" y2="38" gradientUnits="userSpaceOnUse">
<stop offset="0.32" stop-color="#FBEDDA"/>
<stop offset="0.57" stop-color="#F8E7BA"/>
<stop offset="0.98" stop-color="#F1DB7B"/>
</linearGradient>
<linearGradient id="paint1_linear" x1="370.729" y1="178.057" x2="370.729" y2="39.2529" gradientUnits="userSpaceOnUse">
<stop offset="0.32" stop-color="#FBEDDA"/>
<stop offset="0.57" stop-color="#F8E7BA"/>
<stop offset="0.98" stop-color="#F1DB7B"/>
</linearGradient>
<linearGradient id="paint2_linear" x1="720.278" y1="150.533" x2="720.278" y2="203.795" gradientUnits="userSpaceOnUse">
<stop stop-color="#FFFDFA" stop-opacity="0.03"/>
<stop offset="0.01" stop-color="#FFE9C3" stop-opacity="0.38"/>
<stop offset="0.02" stop-color="#FEE1AC" stop-opacity="0.53"/>
<stop offset="0.03" stop-color="#FED998" stop-opacity="0.66"/>
<stop offset="0.04" stop-color="#FED387" stop-opacity="0.77"/>
<stop offset="0.05" stop-color="#FECE79" stop-opacity="0.85"/>
<stop offset="0.06" stop-color="#FECB6F" stop-opacity="0.92"/>
<stop offset="0.08" stop-color="#FEC867" stop-opacity="0.97"/>
<stop offset="0.1" stop-color="#FEC663" stop-opacity="0.99"/>
<stop offset="0.16" stop-color="#FEC662"/>
</linearGradient>
<linearGradient id="paint3_linear" x1="1132.06" y1="162.138" x2="1132.18" y2="64.9561" gradientUnits="userSpaceOnUse">
<stop offset="0.32" stop-color="#ECE68E"/>
<stop offset="0.65" stop-color="#F5D36E"/>
<stop offset="0.98" stop-color="#FFBC48"/>
</linearGradient>
<linearGradient id="paint4_linear" x1="425.07" y1="159.638" x2="424.994" y2="62.4228" gradientUnits="userSpaceOnUse">
<stop offset="0.32" stop-color="#ECE68E"/>
<stop offset="0.65" stop-color="#F5D36E"/>
<stop offset="0.98" stop-color="#FFBC48"/>
</linearGradient>
</defs>
</svg>
