<svg width="651" height="280" viewBox="0 0 651 280" fill="none" xmlns="http://www.w3.org/2000/svg">
<path d="M7.91703 249.615H643.679C645.422 249.615 647.095 250.268 648.328 251.431C649.561 252.594 650.254 254.172 650.254 255.816V267.435H0V257.075C-4.66892e-07 256.095 0.204826 255.124 0.602786 254.218C1.00075 253.313 1.58404 252.49 2.31931 251.797C3.05457 251.104 3.92737 250.555 4.88786 250.181C5.84836 249.806 6.8777 249.614 7.91703 249.615V249.615Z" fill="#7A8889"/>
<path d="M382.21 0.815685C379.061 0.780329 388.29 4.4221 384.601 4.4221L372.463 23.2743C369.172 25.7069 367.32 28.995 367.32 32.4247V276.599H427.785V13.7775C427.77 4.13923 420.265 1.19754 382.21 0.815685Z" fill="#9AA4A5"/>
<path d="M420.937 22.603C420.9 20.722 418.816 19.2017 416.252 19.2017H374.155C371.546 19.2017 369.439 20.7574 369.439 22.6737V43.8878C369.403 44.0506 369.386 44.2165 369.387 44.3828V44.4888C369.386 45.2374 369.683 45.9591 370.219 46.5113V46.5113C370.895 47.1452 371.735 47.6005 372.656 47.8313C373.577 48.0622 374.547 48.0605 375.467 47.8265H416.162C418.763 47.8265 420.877 46.2779 420.877 44.3545V23.3809C420.939 23.1259 420.959 22.8637 420.937 22.603V22.603ZM378.863 26.1387H401.827L378.863 37.8559V26.1387ZM411.513 29.6744V40.9037H389.502L411.513 29.6744Z" fill="#7A8889"/>
<path d="M451.242 50.287C451.242 48.406 449.12 46.8857 446.549 46.8857H404.452C397.038 46.4826 399.737 48.4414 399.737 50.3578V71.5718C399.704 71.735 399.686 71.9006 399.684 72.0667C399.684 72.1021 399.684 72.1375 399.684 72.1728C399.684 72.88 397.51 73.3608 398.095 73.976L397.93 74.1811C399.137 75.461 394.653 75.3974 405.832 75.5388H446.527C449.128 75.5388 451.235 73.9831 451.235 72.0667V51.0649C451.275 50.8071 451.277 50.5454 451.242 50.287V50.287ZM409.168 53.8227H432.124L409.198 65.5399L409.168 53.8227ZM441.818 57.323V68.5523H419.807L441.818 57.323Z" fill="#7A8889"/>
<path d="M420.938 78.7563C420.9 76.8753 418.816 75.355 416.252 75.355H374.155C371.546 75.355 369.439 76.9107 369.439 78.827V100.041C369.403 100.204 369.385 100.37 369.387 100.536V100.642C369.386 101.389 369.683 102.108 370.219 102.657V102.657C370.895 103.291 371.735 103.746 372.656 103.978C373.577 104.21 374.546 104.211 375.467 103.98H416.162C418.763 103.98 420.877 102.424 420.877 100.508V79.5059C420.936 79.26 420.956 79.0076 420.938 78.7563V78.7563ZM378.863 82.292H401.827L378.863 94.0021V82.292ZM411.513 85.7923V97.0216H389.502L411.513 85.7923Z" fill="#7A8889"/>
<path d="M451.242 104.694C451.242 102.806 449.12 101.293 446.549 101.293H404.452C401.851 101.293 399.736 102.842 399.736 104.765V125.944C399.704 126.107 399.686 126.273 399.684 126.439C399.684 126.439 399.684 126.509 399.684 126.545C399.684 127.252 397.322 127.662 397.9 128.277L397.3 128.207C398.507 129.486 388.985 129.925 405.832 129.911H446.526C449.128 129.911 451.235 128.355 451.235 126.439V105.465C451.274 105.21 451.277 104.95 451.242 104.694ZM409.168 108.23H432.124L409.198 119.947L409.168 108.23ZM441.818 111.766V122.995H419.806L441.818 111.766Z" fill="#7A8889"/>
<path d="M420.441 133.39C420.441 131.502 418.319 129.988 415.755 129.988H373.651C371.05 129.988 368.935 131.537 368.935 133.46V154.674C368.903 154.838 368.885 155.003 368.883 155.169C368.883 155.169 368.883 155.24 368.883 155.275C368.879 156.023 369.176 156.743 369.715 157.291V157.291C370.394 157.931 371.241 158.39 372.169 158.622C373.097 158.855 374.074 158.851 375.001 158.613H415.695C418.297 158.613 420.411 157.057 420.411 155.141V134.16C420.462 133.906 420.472 133.646 420.441 133.39ZM378.367 136.925H401.331L378.367 148.635V136.925ZM411.017 140.426V151.634H389.005L411.017 140.426Z" fill="#7A8889"/>
<path d="M420.441 155.063C420.441 153.182 418.319 151.662 415.755 151.662H373.651C371.05 151.662 368.935 153.218 368.935 155.134V176.313C368.903 176.476 368.885 176.642 368.883 176.808C368.883 176.808 368.883 176.879 368.883 176.914C368.879 177.661 369.176 178.382 369.715 178.929V178.929C370.394 179.569 371.241 180.029 372.169 180.261C373.097 180.493 374.074 180.49 375.001 180.252H415.695C418.297 180.252 420.411 178.696 420.411 176.78V155.877C420.466 155.609 420.476 155.334 420.441 155.063V155.063ZM378.367 158.599H401.331L378.367 170.309V158.599ZM411.017 162.099V173.329H389.005L411.017 162.099Z" fill="#7A8889"/>
<path d="M420.441 176.737C420.441 174.856 418.319 173.336 415.755 173.336H373.651C371.05 173.336 368.935 174.892 368.935 176.808V197.987C368.903 198.15 368.885 198.316 368.883 198.482C368.883 198.482 368.883 198.552 368.883 198.588C368.878 199.337 369.176 200.06 369.715 200.61V200.61C370.394 201.25 371.241 201.709 372.17 201.94C373.098 202.171 374.075 202.166 375.001 201.925H415.695C418.297 201.925 420.411 200.377 420.411 198.453V177.515C420.462 177.259 420.472 176.996 420.441 176.737V176.737ZM378.367 180.273H401.331L378.367 191.99V180.273ZM411.017 183.809V195.038H389.005L411.017 183.809Z" fill="#7A8889"/>
<path d="M420.441 198.418C420.441 196.53 418.319 195.017 415.755 195.017H373.651C371.05 195.017 368.935 196.565 368.935 198.482V219.696C368.903 219.859 368.885 220.025 368.883 220.191C368.883 220.226 368.883 220.261 368.883 220.297C368.879 221.044 369.176 221.764 369.715 222.312V222.312C370.394 222.952 371.241 223.412 372.169 223.644C373.097 223.876 374.074 223.873 375.001 223.634H415.695C418.297 223.634 420.411 222.079 420.411 220.162V199.189C420.462 198.935 420.472 198.675 420.441 198.418V198.418ZM378.367 201.954H401.331L378.367 213.671V201.954ZM411.017 205.489V216.69H389.005L411.017 205.489Z" fill="#7A8889"/>
<path d="M420.441 226.039C420.441 224.158 418.319 222.638 415.755 222.638H373.651C371.05 222.638 368.935 224.193 368.935 226.11V247.288C368.903 247.452 368.885 247.617 368.883 247.783C368.883 247.783 368.883 247.854 368.883 247.89C368.879 248.637 369.176 249.357 369.715 249.905V249.905C370.394 250.545 371.241 251.004 372.169 251.236C373.097 251.469 374.074 251.465 375.001 251.227H415.695C418.297 251.227 420.411 249.671 420.411 247.755V226.817C420.462 226.56 420.472 226.298 420.441 226.039V226.039ZM378.367 229.575H401.331L378.367 241.285V229.575ZM411.017 233.075V244.304H389.005L411.017 233.075Z" fill="#7A8889"/>
<path d="M452.173 44.0361H380.47C380.433 44.0361 380.402 44.0646 380.402 44.0998V47.5294C380.402 47.5645 380.433 47.593 380.47 47.593H452.173C452.21 47.593 452.24 47.5645 452.24 47.5294V44.0998C452.24 44.0646 452.21 44.0361 452.173 44.0361Z" fill="#B7C3C4"/>
<path d="M450.709 98.7754H378.871V101.618H450.709V98.7754Z" fill="#B7C3C4"/>
<path d="M350.965 6.82658L328.616 23.2746C325.324 25.7071 323.473 28.9953 323.473 32.4249V274.972H383.937V13.7777C383.937 8.28329 388.856 2.83836 383.188 0.844236C383.158 0.844236 361.963 -1.3762 350.965 6.82658Z" fill="#9AA4A5"/>
<path d="M369.687 4.63478L344.362 23.2749C341.071 25.7074 339.219 28.9956 339.219 32.4252V274.973H399.684V13.778C399.684 2.25173 380.753 -3.51849 369.687 4.63478Z" fill="#B7C3C4"/>
<path d="M342.126 225.65V228.542C342.117 228.777 342.157 229.012 342.245 229.232C342.332 229.452 342.464 229.654 342.634 229.826C342.804 229.998 343.008 230.137 343.235 230.235C343.461 230.332 343.706 230.387 343.956 230.395V230.395C344.457 230.377 344.931 230.171 345.273 229.824C345.614 229.477 345.796 229.016 345.777 228.542V225.65C345.786 225.414 345.746 225.178 345.658 224.957C345.57 224.736 345.436 224.533 345.265 224.361C345.093 224.189 344.887 224.05 344.659 223.954C344.43 223.857 344.184 223.804 343.933 223.797V223.797C343.434 223.819 342.964 224.026 342.626 224.373C342.287 224.72 342.108 225.179 342.126 225.65V225.65Z" fill="#9AA4A5"/>
<path d="M342.126 216.457V219.349C342.117 219.584 342.157 219.819 342.245 220.039C342.332 220.259 342.464 220.461 342.634 220.633C342.804 220.805 343.008 220.944 343.235 221.042C343.461 221.139 343.706 221.194 343.956 221.202V221.202C344.457 221.184 344.931 220.978 345.273 220.631C345.614 220.284 345.796 219.823 345.777 219.349V216.457C345.786 216.221 345.746 215.986 345.658 215.764C345.57 215.543 345.436 215.341 345.265 215.168C345.093 214.996 344.887 214.858 344.659 214.761C344.43 214.664 344.184 214.611 343.933 214.604V214.604C343.434 214.627 342.964 214.834 342.626 215.18C342.287 215.527 342.108 215.986 342.126 216.457V216.457Z" fill="#9AA4A5"/>
<path d="M386.757 7.47034H389.824C390.326 7.48755 390.814 7.31632 391.182 6.9942C391.551 6.67207 391.768 6.22535 391.788 5.75201V5.75201C391.779 5.51733 391.721 5.28656 391.618 5.07301C391.514 4.85946 391.367 4.66734 391.184 4.50766C391.002 4.34797 390.788 4.22391 390.554 4.14257C390.321 4.06122 390.072 4.02421 389.824 4.03367H386.757C386.507 4.02518 386.258 4.06327 386.024 4.14585C385.79 4.22842 385.576 4.35383 385.393 4.51482C385.211 4.67581 385.064 4.86923 384.961 5.08397C384.858 5.29872 384.801 5.53053 384.793 5.76612V5.76612C384.816 6.23696 385.036 6.6801 385.404 6.9992C385.771 7.31831 386.258 7.48762 386.757 7.47034Z" fill="#EA3D34"/>
<path d="M371.887 17.7801L354.471 30.4307C350.984 32.9622 348.825 36.3212 348.398 39.9134C348.259 41.0708 348.192 42.2348 348.195 43.3996V57.2099C348.209 55.6198 348.57 54.0495 349.258 52.5977C349.946 51.1459 350.944 49.8439 352.191 48.7738L373.184 32.0783C380.043 26.6475 395.128 29.3983 395.128 40.0195V26.2091C395.18 15.5879 380.486 10.2632 371.887 17.7801Z" fill="#9AA4A5"/>
<path d="M399.377 61.2764H386.751C386.138 61.2788 385.542 61.4728 385.057 61.828L353.794 84.8735C353.366 85.1903 352.838 85.3622 352.294 85.3614H340.471C340.24 85.3633 340.019 85.4513 339.856 85.6063C339.693 85.7612 339.602 85.9706 339.602 86.1888V86.1888C339.601 86.2971 339.622 86.4045 339.666 86.5048C339.709 86.6052 339.773 86.6965 339.854 86.7734C339.935 86.8503 340.031 86.9114 340.137 86.953C340.243 86.9947 340.356 87.0161 340.471 87.0161H352.797C353.582 87.0127 354.344 86.764 354.963 86.309L386.039 63.3978C386.453 63.0942 386.962 62.9299 387.486 62.9311H399.377C399.601 62.9313 399.817 62.8497 399.979 62.7035C400.141 62.5572 400.237 62.3575 400.246 62.1462V62.1462C400.254 62.0344 400.236 61.9223 400.196 61.817C400.155 61.7117 400.092 61.6154 400.011 61.5339C399.929 61.4524 399.831 61.3875 399.722 61.3432C399.613 61.2989 399.495 61.2762 399.377 61.2764V61.2764Z" fill="#9AA4A5" stroke="#9AA4A5" stroke-width="3.38824" stroke-miterlimit="10"/>
<path d="M399.377 80.9199H386.751C386.138 80.9224 385.542 81.1163 385.057 81.4715L353.794 104.517C353.366 104.834 352.838 105.006 352.294 105.005H340.471C340.24 105.007 340.019 105.095 339.856 105.25C339.693 105.405 339.602 105.614 339.602 105.832V105.832C339.601 105.941 339.622 106.048 339.666 106.148C339.709 106.249 339.773 106.34 339.854 106.417C339.935 106.494 340.031 106.555 340.137 106.597C340.243 106.638 340.356 106.66 340.471 106.66H352.797C353.582 106.656 354.344 106.408 354.963 105.953L386.039 83.0413C386.453 82.7377 386.962 82.5735 387.486 82.5746H399.377C399.601 82.5748 399.817 82.4933 399.979 82.347C400.141 82.2007 400.237 82.0011 400.246 81.7897V81.7897C400.254 81.6779 400.236 81.5659 400.196 81.4606C400.155 81.3553 400.092 81.2589 400.011 81.1774C399.929 81.0959 399.831 81.031 399.722 80.9867C399.613 80.9425 399.495 80.9197 399.377 80.9199V80.9199Z" fill="#9AA4A5" stroke="#9AA4A5" stroke-width="3.38824" stroke-miterlimit="10"/>
<path d="M384.99 169.39H382.276C376.931 169.39 372.598 173.477 372.598 178.519V220.452C372.598 225.494 376.931 229.581 382.276 229.581H384.99C390.336 229.581 394.669 225.494 394.669 220.452V178.519C394.669 173.477 390.336 169.39 384.99 169.39Z" fill="#9AA4A5"/>
<path d="M562.694 140.218L557.828 137.133L526.935 180.478L531.801 183.563L562.694 140.218Z" fill="#606D6D"/>
<path d="M562.694 178.315L557.828 175.23L526.935 218.576L531.801 221.661L562.694 178.315Z" fill="#606D6D"/>
<path d="M562.69 216.564L557.824 213.479L526.932 256.825L531.797 259.91L562.69 216.564Z" fill="#606D6D"/>
<path d="M568.183 115.054C568.183 112.875 566.31 111.108 564 111.108C561.689 111.108 559.816 112.875 559.816 115.054V263.298C559.816 265.477 561.689 267.243 564 267.243C566.31 267.243 568.183 265.477 568.183 263.298V115.054Z" fill="#7C8B8C"/>
<path d="M532.152 128.249C532.152 126.069 530.279 124.303 527.969 124.303C525.658 124.303 523.785 126.069 523.785 128.249V263.29C523.785 265.469 525.658 267.236 527.969 267.236C530.279 267.236 532.152 265.469 532.152 263.29V128.249Z" fill="#7C8B8C"/>
<path d="M546.599 131.438L529.835 141.119C526.477 143.063 524.392 145.637 523.973 148.381C523.846 149.267 523.783 150.16 523.785 151.054V161.661C523.785 159.236 525.172 156.916 527.639 155.205L547.881 142.42C554.494 138.262 569.038 140.369 569.038 148.501V137.894C569.068 129.755 554.891 125.682 546.599 131.438Z" fill="#9AA4A5"/>
<path d="M546.029 101.986L529.265 111.667C525.899 113.611 523.814 116.185 523.402 118.936C523.273 119.819 523.208 120.71 523.207 121.602V140.228C523.207 137.802 524.594 135.483 527.061 133.765L547.303 120.987C553.916 116.829 568.46 118.929 568.46 127.068V108.442C568.49 100.303 554.32 96.2299 546.029 101.986Z" fill="#9AA4A5"/>
<path d="M546.029 169.489L529.265 179.212C525.899 181.157 523.814 183.724 523.402 186.475C523.273 187.36 523.208 188.253 523.207 189.148V199.755C523.207 197.329 524.594 195.01 527.061 193.298L547.303 180.513C553.916 176.355 568.46 178.456 568.46 186.595V175.988C568.49 167.813 554.32 163.74 546.029 169.489Z" fill="#9AA4A5"/>
<path d="M546.029 207.901L529.265 217.589C525.899 219.526 523.814 222.1 523.402 224.851C523.273 225.734 523.208 226.625 523.207 227.517V238.124C523.207 235.705 524.594 233.379 527.061 231.668L547.303 218.883C553.916 214.725 568.46 216.832 568.46 224.964V214.357C568.49 206.225 554.32 202.152 546.029 207.901Z" fill="#9AA4A5"/>
<path d="M546.029 246.312L529.265 255.993C525.899 257.937 523.814 260.504 523.402 263.255C523.273 264.141 523.208 265.034 523.207 265.928V276.5C523.897 276.457 527.233 276.5 527.233 276.5L549.522 276.924H568.49V252.754C568.49 244.629 554.32 240.556 546.029 246.312Z" fill="#9AA4A5"/>
<path d="M309.826 242.247H502.661C504.597 242.247 506.513 242.606 508.302 243.305C510.09 244.003 511.715 245.027 513.083 246.318C514.452 247.609 515.538 249.142 516.279 250.829C517.019 252.515 517.4 254.323 517.4 256.149V279.286H293.984V257.217C293.984 253.246 295.657 249.439 298.633 246.631C301.61 243.824 305.647 242.247 309.856 242.247H309.826Z" fill="#9AA4A5"/>
<path d="M334.024 248.123H333.439C331.874 248.123 330.605 249.319 330.605 250.796V255.661C330.605 257.137 331.874 258.334 333.439 258.334H334.024C335.589 258.334 336.858 257.137 336.858 255.661V250.796C336.858 249.319 335.589 248.123 334.024 248.123Z" fill="#7A8889"/>
<path d="M355.024 247.465H354.439C352.874 247.465 351.605 248.662 351.605 250.138V255.003C351.605 256.479 352.874 257.676 354.439 257.676H355.024C356.589 257.676 357.858 256.479 357.858 255.003V250.138C357.858 248.662 356.589 247.465 355.024 247.465Z" fill="#7A8889"/>
<path d="M401.235 248.123H400.65C399.085 248.123 397.816 249.319 397.816 250.796V255.661C397.816 257.137 399.085 258.334 400.65 258.334H401.235C402.8 258.334 404.069 257.137 404.069 255.661V250.796C404.069 249.319 402.8 248.123 401.235 248.123Z" fill="#7A8889"/>
<path d="M449.95 248.123H449.365C447.8 248.123 446.531 249.319 446.531 250.796V255.661C446.531 257.137 447.8 258.334 449.365 258.334H449.95C451.515 258.334 452.784 257.137 452.784 255.661V250.796C452.784 249.319 451.515 248.123 449.95 248.123Z" fill="#7A8889"/>
<path d="M498.067 248.123H497.482C495.917 248.123 494.648 249.319 494.648 250.796V255.661C494.648 257.137 495.917 258.334 497.482 258.334H498.067C499.632 258.334 500.901 257.137 500.901 255.661V250.796C500.901 249.319 499.632 248.123 498.067 248.123Z" fill="#7A8889"/>
<path d="M426.466 248.123H425.881C424.316 248.123 423.047 249.319 423.047 250.796V255.661C423.047 257.137 424.316 258.334 425.881 258.334H426.466C428.031 258.334 429.3 257.137 429.3 255.661V250.796C429.3 249.319 428.031 248.123 426.466 248.123Z" fill="#7A8889"/>
<path d="M377.626 248.123H377.041C375.476 248.123 374.207 249.319 374.207 250.796V255.661C374.207 257.137 375.476 258.334 377.041 258.334H377.626C379.191 258.334 380.46 257.137 380.46 255.661V250.796C380.46 249.319 379.191 248.123 377.626 248.123Z" fill="#7A8889"/>
<path d="M473.442 248.123H472.857C471.292 248.123 470.023 249.319 470.023 250.796V255.661C470.023 257.137 471.292 258.334 472.857 258.334H473.442C475.007 258.334 476.276 257.137 476.276 255.661V250.796C476.276 249.319 475.007 248.123 473.442 248.123Z" fill="#7A8889"/>
<path d="M6.91239 261.636H641.992C644.179 261.636 646.277 262.455 647.823 263.914C649.37 265.373 650.239 267.351 650.239 269.414V279.441H0V268.127C0.00793102 266.403 0.739671 264.752 2.03514 263.535C3.33061 262.319 5.08429 261.636 6.91239 261.636Z" fill="#9AA4A5"/>
</svg>
