<svg width="563" height="456" viewBox="0 0 563 456" fill="none" xmlns="http://www.w3.org/2000/svg">
<path d="M555.576 169.233H481.161C479.186 169.233 477.292 168.449 475.895 167.052C474.499 165.656 473.714 163.762 473.714 161.787V156.149C473.714 154.174 474.499 152.28 475.895 150.884C477.292 149.487 479.186 148.703 481.161 148.703H503.561C505.422 148.724 507.225 148.058 508.626 146.834C510.028 145.609 510.928 143.911 511.157 142.064C511.274 141.022 511.169 139.967 510.85 138.969C510.53 137.97 510.003 137.05 509.303 136.27C508.603 135.489 507.746 134.865 506.788 134.44C505.829 134.014 504.792 133.795 503.744 133.799L441.671 133.965C413.462 55.8764 338.649 0.00015047 250.796 0.00015047C225.255 -0.0309994 199.94 4.77455 176.187 14.1628H96.7267C94.7518 14.1628 92.8578 14.9474 91.4613 16.3439C90.0648 17.7403 89.2803 19.6344 89.2803 21.6093C89.2803 23.5842 90.0648 25.4783 91.4613 26.8748C92.8578 28.2713 94.7518 29.0558 96.7267 29.0558H104.776C105.755 29.0558 106.724 29.2488 107.628 29.6237C108.533 29.9986 109.354 30.5481 110.046 31.2407C110.737 31.9334 111.285 32.7556 111.659 33.6603C112.033 34.565 112.224 35.5345 112.223 36.5133V42.1065C112.223 43.0872 112.029 44.0582 111.653 44.9638C111.276 45.8694 110.725 46.6918 110.03 47.3837C109.335 48.0756 108.51 48.6234 107.603 48.9957C106.696 49.368 105.724 49.5573 104.743 49.553L16.3645 49.0717C14.4446 49.0656 12.5966 49.802 11.2069 51.1268C9.81726 52.4516 8.99346 54.2623 8.90773 56.1803C8.82201 58.0984 9.48101 59.9753 10.747 61.4188C12.0129 62.8623 13.7878 63.7606 15.7007 63.9259V63.9259L117.982 63.5773C118.98 63.5773 119.967 63.788 120.878 64.1956C121.789 64.6032 122.604 65.1985 123.269 65.9426C123.935 66.6867 124.435 67.5629 124.739 68.5138C125.042 69.4647 125.141 70.469 125.03 71.4609C124.805 73.2177 123.943 74.8306 122.606 75.9933C121.27 77.156 119.554 77.7875 117.783 77.7677H98.912C97.6539 77.767 96.4081 78.0141 95.2456 78.4951C94.0831 78.976 93.0267 79.6813 92.1369 80.5706C91.247 81.4599 90.5412 82.5159 90.0595 83.6781C89.5779 84.8403 89.3301 86.086 89.3301 87.3441V87.4713C89.3286 88.7706 89.5832 90.0573 90.0794 91.258C90.5756 92.4588 91.3036 93.5499 92.2217 94.4691C93.1399 95.3883 94.2303 96.1175 95.4304 96.615C96.6306 97.1126 97.9171 97.3686 99.2163 97.3686H153.732C154.665 97.3686 155.589 97.5526 156.451 97.9099C157.313 98.2672 158.097 98.7909 158.756 99.4511C159.416 100.111 159.939 100.895 160.296 101.758C160.653 102.62 160.836 103.544 160.835 104.478V104.478C160.835 106.362 160.087 108.168 158.754 109.501C157.422 110.833 155.616 111.581 153.732 111.581H93.3022C85.8254 111.592 78.5368 113.926 72.4452 118.262C66.3535 122.597 61.7601 128.719 59.3007 135.779C48.3336 167.16 45.2345 200.753 50.2753 233.611C55.3161 266.468 68.3427 297.587 88.2125 324.237V324.237L7.44095 324.458C6.69032 324.456 5.94386 324.57 5.22803 324.796C3.71258 325.263 2.387 326.205 1.446 327.481C0.504994 328.758 -0.00181869 330.302 4.90397e-06 331.888V331.888C0.000726038 332.867 0.194642 333.837 0.570638 334.741C0.946635 335.645 1.49732 336.465 2.19114 337.156C2.88495 337.847 3.70826 338.394 4.61387 338.766C5.51948 339.138 6.48959 339.327 7.46861 339.324L100.345 338.942L124.134 338.842C125.119 338.835 126.096 339.023 127.008 339.396C127.92 339.769 128.749 340.32 129.447 341.015C130.145 341.711 130.697 342.539 131.073 343.449C131.449 344.36 131.64 345.337 131.636 346.322V351.926C131.636 353.901 130.851 355.795 129.455 357.192C128.058 358.588 126.164 359.373 124.189 359.373H116.129C115.874 359.373 115.62 359.373 115.371 359.412C113.425 359.611 111.636 360.569 110.392 362.078C110.237 362.266 110.098 362.454 109.96 362.631C109.131 363.86 108.689 365.309 108.693 366.792V366.792C108.689 368.274 109.131 369.723 109.96 370.952C110.098 371.151 110.237 371.339 110.392 371.505C111.634 373.018 113.423 373.978 115.371 374.177C115.62 374.177 115.874 374.216 116.129 374.216H142.18C181.116 398.886 227.291 409.565 273.106 404.495C318.92 399.426 361.643 378.909 394.243 346.322H385.944C384.063 346.322 382.259 345.575 380.929 344.245C379.599 342.915 378.852 341.111 378.852 339.23C378.852 337.349 379.599 335.545 380.929 334.215C382.259 332.885 384.063 332.137 385.944 332.137H393.645C395.527 332.136 397.331 331.387 398.661 330.056C399.991 328.725 400.738 326.921 400.738 325.039V319.673C400.738 318.739 400.553 317.813 400.195 316.95C399.836 316.087 399.311 315.304 398.649 314.644C397.987 313.985 397.201 313.462 396.337 313.107C395.472 312.752 394.547 312.571 393.612 312.575L299.524 313.034C295.591 313.034 293.068 309.87 293.068 305.942C293.061 305.015 293.236 304.097 293.585 303.238C293.934 302.38 294.448 301.599 295.1 300.94C295.751 300.281 296.526 299.757 297.38 299.398C298.234 299.04 299.151 298.853 300.077 298.849L429.782 298.451C445.508 269.048 453.707 236.208 453.649 202.864C453.649 196.55 453.363 190.308 452.791 184.137H555.554C557.528 184.137 559.423 183.353 560.819 181.956C562.215 180.56 563 178.666 563 176.691C563.003 174.718 562.223 172.824 560.831 171.426C559.439 170.028 557.549 169.239 555.576 169.233V169.233Z" fill="#54A3D3"/>
<path d="M555.576 169.233H481.161C479.186 169.233 477.292 168.449 475.895 167.052C474.499 165.656 473.714 163.762 473.714 161.787V156.149C473.714 154.174 474.499 152.28 475.895 150.884C477.292 149.487 479.186 148.703 481.161 148.703H503.561C505.422 148.724 507.225 148.058 508.626 146.834C510.028 145.609 510.928 143.911 511.157 142.064C511.274 141.022 511.169 139.967 510.85 138.969C510.53 137.97 510.003 137.05 509.303 136.27C508.603 135.489 507.746 134.865 506.788 134.44C505.829 134.014 504.792 133.795 503.744 133.799L441.671 133.965C413.462 55.8764 338.649 0.00015047 250.796 0.00015047C225.255 -0.0309994 199.94 4.77455 176.187 14.1628H96.7267C94.7518 14.1628 92.8578 14.9474 91.4613 16.3439C90.0648 17.7403 89.2803 19.6344 89.2803 21.6093C89.2803 23.5842 90.0648 25.4783 91.4613 26.8748C92.8578 28.2713 94.7518 29.0558 96.7267 29.0558H104.776C105.755 29.0558 106.724 29.2488 107.628 29.6237C108.533 29.9986 109.354 30.5481 110.046 31.2407C110.737 31.9334 111.285 32.7556 111.659 33.6603C112.033 34.565 112.224 35.5345 112.223 36.5133V42.1065C112.223 43.0872 112.029 44.0582 111.653 44.9638C111.276 45.8694 110.725 46.6918 110.03 47.3837C109.335 48.0756 108.51 48.6234 107.603 48.9957C106.696 49.368 105.724 49.5573 104.743 49.553L16.3645 49.0717C14.4446 49.0656 12.5966 49.802 11.2069 51.1268C9.81726 52.4516 8.99346 54.2623 8.90773 56.1803C8.82201 58.0984 9.48101 59.9753 10.747 61.4188C12.0129 62.8623 13.7878 63.7606 15.7007 63.9259V63.9259L117.982 63.5773C118.98 63.5773 119.967 63.788 120.878 64.1956C121.789 64.6032 122.604 65.1985 123.269 65.9426C123.935 66.6867 124.435 67.5629 124.739 68.5138C125.042 69.4647 125.141 70.469 125.03 71.4609C124.805 73.2177 123.943 74.8306 122.606 75.9933C121.27 77.156 119.554 77.7875 117.783 77.7677H98.912C97.6539 77.767 96.4081 78.0141 95.2456 78.4951C94.0831 78.976 93.0267 79.6813 92.1369 80.5706C91.247 81.4599 90.5412 82.5159 90.0595 83.6781C89.5779 84.8403 89.3301 86.086 89.3301 87.3441V87.4713C89.3286 88.7706 89.5832 90.0573 90.0794 91.258C90.5756 92.4588 91.3036 93.5499 92.2217 94.4691C93.1399 95.3883 94.2303 96.1175 95.4304 96.615C96.6306 97.1126 97.9171 97.3686 99.2163 97.3686H153.732C154.665 97.3686 155.589 97.5526 156.451 97.9099C157.313 98.2672 158.097 98.7909 158.756 99.4511C159.416 100.111 159.939 100.895 160.296 101.758C160.653 102.62 160.836 103.544 160.835 104.478V104.478C160.835 106.362 160.087 108.168 158.754 109.501C157.422 110.833 155.616 111.581 153.732 111.581H93.3022C85.8254 111.592 78.5368 113.926 72.4452 118.262C66.3535 122.597 61.7601 128.719 59.3007 135.779C48.3336 167.16 45.2345 200.753 50.2753 233.611C55.3161 266.468 68.3427 297.587 88.2125 324.237V324.237L7.44095 324.458C6.69032 324.456 5.94386 324.57 5.22803 324.796C3.71258 325.263 2.387 326.205 1.446 327.481C0.504994 328.758 -0.00181869 330.302 4.90397e-06 331.888V331.888C0.000726038 332.867 0.194642 333.837 0.570638 334.741C0.946635 335.645 1.49732 336.465 2.19114 337.156C2.88495 337.847 3.70826 338.394 4.61387 338.766C5.51948 339.138 6.48959 339.327 7.46861 339.324L100.345 338.942L124.134 338.842C125.119 338.835 126.096 339.023 127.008 339.396C127.92 339.769 128.749 340.32 129.447 341.015C130.145 341.711 130.697 342.539 131.073 343.449C131.449 344.36 131.64 345.337 131.636 346.322V351.926C131.636 353.901 130.851 355.795 129.455 357.192C128.058 358.588 126.164 359.373 124.189 359.373H116.129C115.874 359.373 115.62 359.373 115.371 359.412C113.425 359.611 111.636 360.569 110.392 362.078C110.237 362.266 110.098 362.454 109.96 362.631C109.131 363.86 108.689 365.309 108.693 366.792V366.792C108.689 368.274 109.131 369.723 109.96 370.952C110.098 371.151 110.237 371.339 110.392 371.505C111.634 373.018 113.423 373.978 115.371 374.177C115.62 374.177 115.874 374.216 116.129 374.216H142.18C181.116 398.886 227.291 409.565 273.106 404.495C318.92 399.426 361.643 378.909 394.243 346.322H385.944C384.063 346.322 382.259 345.575 380.929 344.245C379.599 342.915 378.852 341.111 378.852 339.23C378.852 337.349 379.599 335.545 380.929 334.215C382.259 332.885 384.063 332.137 385.944 332.137H393.645C395.527 332.136 397.331 331.387 398.661 330.056C399.991 328.725 400.738 326.921 400.738 325.039V319.673C400.738 318.739 400.553 317.813 400.195 316.95C399.836 316.087 399.311 315.304 398.649 314.644C397.987 313.985 397.201 313.462 396.337 313.107C395.472 312.752 394.547 312.571 393.612 312.575L299.524 313.034C295.591 313.034 293.068 309.87 293.068 305.942C293.061 305.015 293.236 304.097 293.585 303.238C293.934 302.38 294.448 301.599 295.1 300.94C295.751 300.281 296.526 299.757 297.38 299.398C298.234 299.04 299.151 298.853 300.077 298.849L429.782 298.451C445.508 269.048 453.707 236.208 453.649 202.864C453.649 196.55 453.363 190.308 452.791 184.137H555.554C557.528 184.137 559.423 183.353 560.819 181.956C562.215 180.56 563 178.666 563 176.691C563.003 174.718 562.223 172.824 560.831 171.426C559.439 170.028 557.549 169.239 555.576 169.233V169.233Z" fill="url(#paint0_linear)"/>
<path opacity="0.28" d="M410.015 444.244H92.8867C89.6938 444.244 87.1055 446.832 87.1055 450.025V450.03C87.1055 453.223 89.6938 455.812 92.8867 455.812H410.015C413.208 455.812 415.796 453.223 415.796 450.03V450.025C415.796 446.832 413.208 444.244 410.015 444.244Z" fill="#3A200F"/>
<path d="M273.054 282.33H242.615C237.943 282.33 234.156 286.117 234.156 290.789V444.449C234.156 449.12 237.943 452.907 242.615 452.907H273.054C277.726 452.907 281.513 449.12 281.513 444.449V290.789C281.513 286.117 277.726 282.33 273.054 282.33Z" fill="#AA1345"/>
<path d="M242.603 282.33H224.513C220.672 282.33 217.559 285.444 217.559 289.284V445.953C217.559 449.794 220.672 452.907 224.513 452.907H242.603C246.444 452.907 249.557 449.794 249.557 445.953V289.284C249.557 285.444 246.444 282.33 242.603 282.33Z" fill="#E03F19"/>
<path d="M231.843 286.623H227.113C226.585 286.623 226.156 287.052 226.156 287.58V438.811C226.156 439.34 226.585 439.768 227.113 439.768H231.843C232.372 439.768 232.801 439.34 232.801 438.811V287.58C232.801 287.052 232.372 286.623 231.843 286.623Z" fill="#AA1345"/>
<path d="M233.022 286.623H231.501C231.162 286.623 230.887 286.898 230.887 287.237V439.154C230.887 439.493 231.162 439.768 231.501 439.768H233.022C233.361 439.768 233.636 439.493 233.636 439.154V287.237C233.636 286.898 233.361 286.623 233.022 286.623Z" fill="#50FFF6"/>
<path d="M272.034 286.623H267.563C266.879 286.623 266.324 287.178 266.324 287.862V438.529C266.324 439.213 266.879 439.768 267.563 439.768H272.034C272.718 439.768 273.273 439.213 273.273 438.529V287.862C273.273 287.178 272.718 286.623 272.034 286.623Z" fill="#720A4D"/>
<path d="M267.997 286.623H266.807C266.377 286.623 266.027 286.972 266.027 287.403V438.988C266.027 439.419 266.377 439.768 266.807 439.768H267.997C268.428 439.768 268.777 439.419 268.777 438.988V287.403C268.777 286.972 268.428 286.623 267.997 286.623Z" fill="#21A58C"/>
<path d="M295.202 282.408H230.037C227.413 282.408 225.285 284.535 225.285 287.16V311.74C225.285 314.365 227.413 316.492 230.037 316.492H295.202C297.827 316.492 299.955 314.365 299.955 311.74V287.16C299.955 284.535 297.827 282.408 295.202 282.408Z" fill="#AA1345"/>
<path d="M245.634 282.408H203.014C200.859 282.408 199.113 284.154 199.113 286.308V312.592C199.113 314.746 200.859 316.492 203.014 316.492H245.634C247.788 316.492 249.535 314.746 249.535 312.592V286.308C249.535 284.154 247.788 282.408 245.634 282.408Z" fill="#E03F19"/>
<path d="M287.902 331.479H233.022C230.962 331.479 229.293 333.148 229.293 335.207V352.877C229.293 354.937 230.962 356.606 233.022 356.606H287.902C289.962 356.606 291.631 354.937 291.631 352.877V335.207C291.631 333.148 289.962 331.479 287.902 331.479Z" fill="#AA1345"/>
<path d="M218.063 441.428H279.383C281.677 441.428 283.878 442.339 285.501 443.962C287.124 445.585 288.035 447.785 288.035 450.08C288.035 450.83 287.737 451.549 287.207 452.079C286.677 452.609 285.958 452.907 285.208 452.907H212.237C211.487 452.907 210.768 452.609 210.238 452.079C209.708 451.549 209.41 450.83 209.41 450.08V450.08C209.41 447.785 210.322 445.585 211.944 443.962C213.567 442.339 215.768 441.428 218.063 441.428V441.428Z" fill="#960F46"/>
<path d="M246.522 331.479H210.506C208.814 331.479 207.441 332.851 207.441 334.543V353.541C207.441 355.234 208.814 356.606 210.506 356.606H246.522C248.214 356.606 249.586 355.234 249.586 353.541V334.543C249.586 332.851 248.214 331.479 246.522 331.479Z" fill="#E03F19"/>
<path d="M202.724 282.402C201.591 282.402 200.672 283.321 200.672 284.455C200.672 285.588 201.591 286.507 202.724 286.507H245.993C247.126 286.507 248.045 285.588 248.045 284.455C248.045 283.321 247.126 282.402 245.993 282.402H202.724Z" fill="#FFAA39"/>
<path d="M221.197 316.492H224.577C224.99 316.492 225.324 316.157 225.324 315.745V283.082C225.324 282.67 224.99 282.335 224.577 282.335H221.197C220.785 282.335 220.45 282.67 220.45 283.082V315.745C220.45 316.157 220.785 316.492 221.197 316.492Z" fill="#AA1345"/>
<path d="M223.853 316.492H224.854C225.114 316.492 225.324 316.281 225.324 316.021V282.806C225.324 282.546 225.114 282.335 224.854 282.335H223.853C223.593 282.335 223.382 282.546 223.382 282.806V316.021C223.382 316.281 223.593 316.492 223.853 316.492Z" fill="#50FFF6"/>
<path d="M252.03 312.033C250.799 312.033 249.801 313.03 249.801 314.26C249.801 315.489 250.799 316.486 252.03 316.486H295.547C296.779 316.486 297.777 315.489 297.777 314.26C297.777 313.03 296.779 312.033 295.547 312.033H252.03Z" fill="#960F46"/>
<path d="M274.999 316.486H278.484C278.903 316.486 279.242 316.147 279.242 315.728V283.16C279.242 282.741 278.903 282.402 278.484 282.402H274.999C274.58 282.402 274.241 282.741 274.241 283.16V315.728C274.241 316.147 274.58 316.486 274.999 316.486Z" fill="#720A4D"/>
<path d="M274.716 316.486H275.717C275.977 316.486 276.188 316.276 276.188 316.016V282.872C276.188 282.612 275.977 282.402 275.717 282.402H274.716C274.456 282.402 274.246 282.612 274.246 282.872V316.016C274.246 316.276 274.456 316.486 274.716 316.486Z" fill="#21A58C"/>
<path d="M210.371 331.491C209.402 331.491 208.617 332.276 208.617 333.244C208.617 334.213 209.402 334.998 210.371 334.998H246.901C247.869 334.998 248.654 334.213 248.654 333.244C248.654 332.276 247.869 331.491 246.901 331.491H210.371Z" fill="#E8822E"/>
<path d="M223.593 356.385H227.443C227.807 356.385 228.102 356.09 228.102 355.726V332.137C228.102 331.773 227.807 331.478 227.443 331.478H223.593C223.229 331.478 222.934 331.773 222.934 332.137V355.726C222.934 356.09 223.229 356.385 223.593 356.385Z" fill="#AA1345"/>
<path d="M226.564 356.385H227.698C227.921 356.385 228.102 356.204 228.102 355.981V331.882C228.102 331.659 227.921 331.478 227.698 331.478H226.564C226.341 331.478 226.16 331.659 226.16 331.882V355.981C226.16 356.204 226.341 356.385 226.564 356.385Z" fill="#50FFF6"/>
<path d="M252.013 352.501C250.88 352.501 249.961 353.42 249.961 354.554C249.961 355.688 250.88 356.606 252.013 356.606H287.968C289.101 356.606 290.02 355.688 290.02 354.554C290.02 353.42 289.101 352.501 287.968 352.501H252.013Z" fill="#960F46"/>
<path d="M272.938 356.606H275.798C276.119 356.606 276.379 356.346 276.379 356.026V332.109C276.379 331.789 276.119 331.529 275.798 331.529H272.938C272.617 331.529 272.357 331.789 272.357 332.109V356.026C272.357 356.346 272.617 356.606 272.938 356.606Z" fill="#720A4D"/>
<path d="M271.79 356.606H272.924C273.147 356.606 273.328 356.426 273.328 356.203V331.932C273.328 331.709 273.147 331.529 272.924 331.529H271.79C271.567 331.529 271.386 331.709 271.386 331.932V356.203C271.386 356.426 271.567 356.606 271.79 356.606Z" fill="#21A58C"/>
<path d="M285.523 448.774H212.004C210.8 448.774 209.824 449.75 209.824 450.954C209.824 452.158 210.8 453.134 212.004 453.134H285.523C286.726 453.134 287.702 452.158 287.702 450.954C287.702 449.75 286.726 448.774 285.523 448.774Z" fill="#720A4D"/>
<path d="M279.199 360.49H219.871C218.594 360.49 217.559 361.525 217.559 362.802V365.148C217.559 366.425 218.594 367.46 219.871 367.46H279.199C280.477 367.46 281.512 366.425 281.512 365.148V362.802C281.512 361.525 280.477 360.49 279.199 360.49Z" fill="#50FFF6"/>
<path d="M279.199 372.611H219.871C218.594 372.611 217.559 373.647 217.559 374.924V377.27C217.559 378.547 218.594 379.582 219.871 379.582H279.199C280.477 379.582 281.512 378.547 281.512 377.27V374.924C281.512 373.647 280.477 372.611 279.199 372.611Z" fill="#50FFF6"/>
<path d="M279.199 320.271H219.871C218.594 320.271 217.559 321.306 217.559 322.583V324.929C217.559 326.206 218.594 327.241 219.871 327.241H279.199C280.477 327.241 281.512 326.206 281.512 324.929V322.583C281.512 321.306 280.477 320.271 279.199 320.271Z" fill="#50FFF6"/>
<path d="M279.199 320.271H249.59V327.241H279.199C279.811 327.241 280.398 326.998 280.832 326.566C281.265 326.133 281.51 325.547 281.511 324.934V322.583C281.511 321.97 281.268 321.382 280.834 320.948C280.4 320.514 279.812 320.271 279.199 320.271V320.271Z" fill="#21A58C"/>
<path d="M279.199 360.49H249.535V367.46H279.199C279.813 367.46 280.401 367.217 280.835 366.783C281.268 366.349 281.512 365.761 281.512 365.148V362.797C281.51 362.184 281.266 361.598 280.833 361.165C280.399 360.733 279.812 360.49 279.199 360.49V360.49Z" fill="#21A58C"/>
<path d="M279.199 372.611H249.535V379.582H279.199C279.813 379.582 280.401 379.338 280.835 378.905C281.268 378.471 281.512 377.883 281.512 377.27V374.924C281.512 374.311 281.268 373.722 280.835 373.289C280.401 372.855 279.813 372.611 279.199 372.611V372.611Z" fill="#21A58C"/>
<path d="M210.574 445.787L249.577 445.87V441.444H218.176C216.639 441.44 215.129 441.839 213.795 442.601C212.462 443.363 211.351 444.461 210.574 445.787V445.787Z" fill="#E55D33"/>
<path d="M273.054 282.33H242.615C237.943 282.33 234.156 286.117 234.156 290.789V444.449C234.156 449.12 237.943 452.907 242.615 452.907H273.054C277.726 452.907 281.513 449.12 281.513 444.449V290.789C281.513 286.117 277.726 282.33 273.054 282.33Z" fill="#1B2870"/>
<path d="M242.603 282.33H224.513C220.672 282.33 217.559 285.444 217.559 289.284V445.953C217.559 449.794 220.672 452.907 224.513 452.907H242.603C246.444 452.907 249.557 449.794 249.557 445.953V289.284C249.557 285.444 246.444 282.33 242.603 282.33Z" fill="#3F5DA0"/>
<path d="M231.843 286.623H227.113C226.585 286.623 226.156 287.052 226.156 287.58V438.811C226.156 439.34 226.585 439.768 227.113 439.768H231.843C232.372 439.768 232.801 439.34 232.801 438.811V287.58C232.801 287.052 232.372 286.623 231.843 286.623Z" fill="#203777"/>
<path d="M233.022 286.623H231.501C231.162 286.623 230.887 286.898 230.887 287.237V439.154C230.887 439.493 231.162 439.768 231.501 439.768H233.022C233.361 439.768 233.636 439.493 233.636 439.154V287.237C233.636 286.898 233.361 286.623 233.022 286.623Z" fill="#FFD522"/>
<path d="M272.034 286.623H267.563C266.879 286.623 266.324 287.178 266.324 287.862V438.529C266.324 439.213 266.879 439.768 267.563 439.768H272.034C272.718 439.768 273.273 439.213 273.273 438.529V287.862C273.273 287.178 272.718 286.623 272.034 286.623Z" fill="#0B131E"/>
<path d="M267.997 286.623H266.807C266.377 286.623 266.027 286.972 266.027 287.403V438.988C266.027 439.419 266.377 439.768 266.807 439.768H267.997C268.428 439.768 268.777 439.419 268.777 438.988V287.403C268.777 286.972 268.428 286.623 267.997 286.623Z" fill="#E06817"/>
<path d="M295.202 282.408H230.037C227.413 282.408 225.285 284.535 225.285 287.16V311.74C225.285 314.365 227.413 316.492 230.037 316.492H295.202C297.827 316.492 299.955 314.365 299.955 311.74V287.16C299.955 284.535 297.827 282.408 295.202 282.408Z" fill="#1B2870"/>
<path d="M245.634 282.408H203.014C200.859 282.408 199.113 284.154 199.113 286.308V312.592C199.113 314.746 200.859 316.492 203.014 316.492H245.634C247.788 316.492 249.535 314.746 249.535 312.592V286.308C249.535 284.154 247.788 282.408 245.634 282.408Z" fill="#3F5DA0"/>
<path d="M287.902 331.479H233.022C230.962 331.479 229.293 333.148 229.293 335.207V352.877C229.293 354.937 230.962 356.606 233.022 356.606H287.902C289.962 356.606 291.631 354.937 291.631 352.877V335.207C291.631 333.148 289.962 331.479 287.902 331.479Z" fill="#1B2870"/>
<path d="M218.063 441.428H279.383C281.677 441.428 283.878 442.339 285.501 443.962C287.124 445.585 288.035 447.785 288.035 450.08C288.035 450.83 287.737 451.549 287.207 452.079C286.677 452.609 285.958 452.907 285.208 452.907H212.237C211.487 452.907 210.768 452.609 210.238 452.079C209.708 451.549 209.41 450.83 209.41 450.08V450.08C209.41 447.785 210.322 445.585 211.944 443.962C213.567 442.339 215.768 441.428 218.063 441.428Z" fill="#111A59"/>
<path d="M246.522 331.479H210.506C208.814 331.479 207.441 332.851 207.441 334.543V353.541C207.441 355.234 208.814 356.606 210.506 356.606H246.522C248.214 356.606 249.586 355.234 249.586 353.541V334.543C249.586 332.851 248.214 331.479 246.522 331.479Z" fill="#3F5DA0"/>
<path d="M202.724 282.402C201.591 282.402 200.672 283.321 200.672 284.455C200.672 285.588 201.591 286.507 202.724 286.507H245.993C247.126 286.507 248.045 285.588 248.045 284.455C248.045 283.321 247.126 282.402 245.993 282.402H202.724Z" fill="#618FD1"/>
<path d="M221.197 316.492H224.577C224.99 316.492 225.324 316.157 225.324 315.745V283.082C225.324 282.67 224.99 282.335 224.577 282.335H221.197C220.785 282.335 220.45 282.67 220.45 283.082V315.745C220.45 316.157 220.785 316.492 221.197 316.492Z" fill="#203777"/>
<path d="M223.853 316.492H224.854C225.114 316.492 225.324 316.281 225.324 316.021V282.806C225.324 282.546 225.114 282.335 224.854 282.335H223.853C223.593 282.335 223.382 282.546 223.382 282.806V316.021C223.382 316.281 223.593 316.492 223.853 316.492Z" fill="#FFD522"/>
<path d="M252.03 312.033C250.799 312.033 249.801 313.03 249.801 314.26C249.801 315.489 250.799 316.486 252.03 316.486H295.547C296.779 316.486 297.777 315.489 297.777 314.26C297.777 313.03 296.779 312.033 295.547 312.033H252.03Z" fill="#111A59"/>
<path d="M274.999 316.486H278.484C278.903 316.486 279.242 316.147 279.242 315.728V283.16C279.242 282.741 278.903 282.402 278.484 282.402H274.999C274.58 282.402 274.241 282.741 274.241 283.16V315.728C274.241 316.147 274.58 316.486 274.999 316.486Z" fill="#0B131E"/>
<path d="M274.716 316.486H275.717C275.977 316.486 276.188 316.276 276.188 316.016V282.872C276.188 282.612 275.977 282.402 275.717 282.402H274.716C274.456 282.402 274.246 282.612 274.246 282.872V316.016C274.246 316.276 274.456 316.486 274.716 316.486Z" fill="#E06817"/>
<path d="M210.371 331.491C209.402 331.491 208.617 332.276 208.617 333.244C208.617 334.213 209.402 334.998 210.371 334.998H246.901C247.869 334.998 248.654 334.213 248.654 333.244C248.654 332.276 247.869 331.491 246.901 331.491H210.371Z" fill="#618FD1"/>
<path d="M223.593 356.385H227.443C227.807 356.385 228.102 356.09 228.102 355.726V332.137C228.102 331.773 227.807 331.478 227.443 331.478H223.593C223.229 331.478 222.934 331.773 222.934 332.137V355.726C222.934 356.09 223.229 356.385 223.593 356.385Z" fill="#203777"/>
<path d="M226.564 356.385H227.698C227.921 356.385 228.102 356.204 228.102 355.981V331.882C228.102 331.659 227.921 331.478 227.698 331.478H226.564C226.341 331.478 226.16 331.659 226.16 331.882V355.981C226.16 356.204 226.341 356.385 226.564 356.385Z" fill="#FFD522"/>
<path d="M252.013 352.501C250.88 352.501 249.961 353.42 249.961 354.554C249.961 355.688 250.88 356.606 252.013 356.606H287.968C289.101 356.606 290.02 355.688 290.02 354.554C290.02 353.42 289.101 352.501 287.968 352.501H252.013Z" fill="#111A59"/>
<path d="M272.938 356.606H275.798C276.119 356.606 276.379 356.346 276.379 356.026V332.109C276.379 331.789 276.119 331.529 275.798 331.529H272.938C272.617 331.529 272.357 331.789 272.357 332.109V356.026C272.357 356.346 272.617 356.606 272.938 356.606Z" fill="#0B131E"/>
<path d="M271.79 356.606H272.924C273.147 356.606 273.328 356.426 273.328 356.203V331.932C273.328 331.709 273.147 331.529 272.924 331.529H271.79C271.567 331.529 271.386 331.709 271.386 331.932V356.203C271.386 356.426 271.567 356.606 271.79 356.606Z" fill="#E06817"/>
<path d="M285.523 448.774H212.004C210.8 448.774 209.824 449.75 209.824 450.954C209.824 452.158 210.8 453.134 212.004 453.134H285.523C286.726 453.134 287.702 452.158 287.702 450.954C287.702 449.75 286.726 448.774 285.523 448.774Z" fill="#030F3A"/>
<path d="M279.199 360.49H219.871C218.594 360.49 217.559 361.525 217.559 362.802V365.148C217.559 366.425 218.594 367.46 219.871 367.46H279.199C280.477 367.46 281.512 366.425 281.512 365.148V362.802C281.512 361.525 280.477 360.49 279.199 360.49Z" fill="#FFD522"/>
<path d="M279.199 372.611H219.871C218.594 372.611 217.559 373.647 217.559 374.924V377.27C217.559 378.547 218.594 379.582 219.871 379.582H279.199C280.477 379.582 281.512 378.547 281.512 377.27V374.924C281.512 373.647 280.477 372.611 279.199 372.611Z" fill="#FFD522"/>
<path d="M279.199 320.271H219.871C218.594 320.271 217.559 321.306 217.559 322.583V324.929C217.559 326.206 218.594 327.241 219.871 327.241H279.199C280.477 327.241 281.512 326.206 281.512 324.929V322.583C281.512 321.306 280.477 320.271 279.199 320.271Z" fill="#FFD522"/>
<path d="M279.199 320.271H249.59V327.241H279.199C279.811 327.241 280.398 326.998 280.832 326.566C281.265 326.133 281.51 325.547 281.511 324.934V322.583C281.511 321.97 281.268 321.382 280.834 320.948C280.4 320.514 279.812 320.271 279.199 320.271V320.271Z" fill="#E06817"/>
<path d="M279.199 360.49H249.535V367.46H279.199C279.813 367.46 280.401 367.217 280.835 366.783C281.268 366.349 281.512 365.761 281.512 365.148V362.797C281.51 362.184 281.266 361.598 280.833 361.165C280.399 360.733 279.812 360.49 279.199 360.49V360.49Z" fill="#E06817"/>
<path d="M279.199 372.611H249.535V379.582H279.199C279.813 379.582 280.401 379.338 280.835 378.905C281.268 378.471 281.512 377.883 281.512 377.27V374.924C281.512 374.311 281.268 373.722 280.835 373.289C280.401 372.855 279.813 372.611 279.199 372.611V372.611Z" fill="#E06817"/>
<path d="M210.574 445.787L249.577 445.87V441.444H218.176C216.639 441.44 215.129 441.839 213.795 442.601C212.462 443.363 211.351 444.461 210.574 445.787V445.787Z" fill="#618FD1"/>
<path d="M293.985 279.846H205.08L141.559 117.164L354.53 121.108L293.985 279.846Z" fill="url(#paint1_linear)"/>
<path d="M293.988 279.846H205.084L197.516 104.19H299.957L293.988 279.846Z" fill="url(#paint2_linear)"/>
<path opacity="0.41" d="M248.731 275.835C303.899 275.835 348.622 231.112 348.622 175.944C348.622 120.776 303.899 76.0527 248.731 76.0527C193.563 76.0527 148.84 120.776 148.84 175.944C148.84 231.112 193.563 275.835 248.731 275.835Z" fill="url(#paint3_radial)"/>
<path d="M248.731 229.38C277.021 229.38 299.955 206.446 299.955 178.156C299.955 149.866 277.021 126.933 248.731 126.933C220.441 126.933 197.508 149.866 197.508 178.156C197.508 206.446 220.441 229.38 248.731 229.38Z" fill="url(#paint4_radial)"/>
<path opacity="0.44" d="M248.292 219.516C270.853 219.516 289.142 201.227 289.142 178.665C289.142 156.104 270.853 137.815 248.292 137.815C225.731 137.815 207.441 156.104 207.441 178.665C207.441 201.227 225.731 219.516 248.292 219.516Z" fill="#FFEBD7"/>
<path d="M248.733 200.269C260.664 200.269 270.336 190.597 270.336 178.666C270.336 166.734 260.664 157.062 248.733 157.062C236.801 157.062 227.129 166.734 227.129 178.666C227.129 190.597 236.801 200.269 248.733 200.269Z" fill="#FFFAF3"/>
<path d="M207.461 277.035H291.613C292.242 277.035 292.846 277.285 293.291 277.73C293.736 278.175 293.986 278.779 293.986 279.409V282.025C293.986 282.106 293.954 282.183 293.897 282.24C293.84 282.298 293.762 282.33 293.682 282.33H205.364C205.289 282.33 205.218 282.3 205.165 282.247C205.112 282.194 205.082 282.122 205.082 282.047V279.409C205.082 279.096 205.144 278.787 205.263 278.499C205.383 278.211 205.558 277.949 205.779 277.728C206 277.508 206.262 277.333 206.551 277.214C206.84 277.095 207.149 277.034 207.461 277.035V277.035Z" fill="#FFD522"/>
<path d="M228.229 278.032H214.857C213.944 278.032 213.203 278.772 213.203 279.686C213.203 280.599 213.944 281.34 214.857 281.34H228.229C229.142 281.34 229.883 280.599 229.883 279.686C229.883 278.772 229.142 278.032 228.229 278.032Z" fill="white"/>
<path d="M283.01 278.032H269.639C268.725 278.032 267.984 278.772 267.984 279.686C267.984 280.599 268.725 281.34 269.639 281.34H283.01C283.924 281.34 284.664 280.599 284.664 279.686C284.664 278.772 283.924 278.032 283.01 278.032Z" fill="white"/>
<path d="M255.619 278.032H242.248C241.334 278.032 240.594 278.772 240.594 279.686C240.594 280.599 241.334 281.34 242.248 281.34H255.619C256.533 281.34 257.274 280.599 257.274 279.686C257.274 278.772 256.533 278.032 255.619 278.032Z" fill="white"/>
<defs>
<linearGradient id="paint0_linear" x1="281.511" y1="405.733" x2="281.511" y2="0.000145102" gradientUnits="userSpaceOnUse">
<stop offset="0.1" stop-color="#6F16A8" stop-opacity="0"/>
<stop offset="0.23" stop-color="#6F16A8" stop-opacity="0.17"/>
<stop offset="0.6" stop-color="#6F16A8" stop-opacity="0.61"/>
<stop offset="0.87" stop-color="#6F16A8" stop-opacity="0.89"/>
<stop offset="1" stop-color="#6F16A8"/>
</linearGradient>
<linearGradient id="paint1_linear" x1="248.044" y1="279.846" x2="248.044" y2="117.164" gradientUnits="userSpaceOnUse">
<stop stop-color="#D1FF85"/>
<stop offset="0.01" stop-color="#D2F983" stop-opacity="0.96"/>
<stop offset="0.08" stop-color="#D9DE7C" stop-opacity="0.76"/>
<stop offset="0.16" stop-color="#E0C575" stop-opacity="0.58"/>
<stop offset="0.24" stop-color="#E5B06F" stop-opacity="0.42"/>
<stop offset="0.32" stop-color="#EA9E6A" stop-opacity="0.29"/>
<stop offset="0.41" stop-color="#EE8F66" stop-opacity="0.19"/>
<stop offset="0.5" stop-color="#F08463" stop-opacity="0.1"/>
<stop offset="0.61" stop-color="#F27C61" stop-opacity="0.04"/>
<stop offset="0.73" stop-color="#F4775F" stop-opacity="0.01"/>
<stop offset="0.93" stop-color="#F4765F" stop-opacity="0"/>
</linearGradient>
<linearGradient id="paint2_linear" x1="248.734" y1="279.846" x2="248.734" y2="104.19" gradientUnits="userSpaceOnUse">
<stop stop-color="#E5DF8D"/>
<stop offset="0.05" stop-color="#E7CE86" stop-opacity="0.84"/>
<stop offset="0.13" stop-color="#EABA7D" stop-opacity="0.64"/>
<stop offset="0.21" stop-color="#EDA775" stop-opacity="0.47"/>
<stop offset="0.3" stop-color="#EF986E" stop-opacity="0.32"/>
<stop offset="0.39" stop-color="#F18C68" stop-opacity="0.21"/>
<stop offset="0.49" stop-color="#F28264" stop-opacity="0.11"/>
<stop offset="0.59" stop-color="#F37B61" stop-opacity="0.05"/>
<stop offset="0.72" stop-color="#F47760" stop-opacity="0.01"/>
<stop offset="0.93" stop-color="#F4765F" stop-opacity="0"/>
</linearGradient>
<radialGradient id="paint3_radial" cx="0" cy="0" r="1" gradientUnits="userSpaceOnUse" gradientTransform="translate(248.731 175.944) scale(99.8912)">
<stop offset="0.34" stop-color="white"/>
<stop offset="1" stop-color="#FBF1AD" stop-opacity="0"/>
</radialGradient>
<radialGradient id="paint4_radial" cx="0" cy="0" r="1" gradientUnits="userSpaceOnUse" gradientTransform="translate(248.731 178.156) scale(51.2236)">
<stop stop-color="white"/>
<stop offset="0.18" stop-color="#FFFEFD"/>
<stop offset="0.28" stop-color="#FFFDF4"/>
<stop offset="0.37" stop-color="#FFFAE6"/>
<stop offset="0.44" stop-color="#FFF6D2"/>
<stop offset="0.51" stop-color="#FFF0B8"/>
<stop offset="0.57" stop-color="#FFEA98"/>
<stop offset="0.63" stop-color="#FFE271"/>
<stop offset="0.69" stop-color="#FFD945"/>
<stop offset="0.74" stop-color="#FFCF14"/>
<stop offset="0.76" stop-color="#FFCB00"/>
</radialGradient>
</defs>
</svg>
