<svg width="116" height="202" viewBox="0 0 116 202" fill="none" xmlns="http://www.w3.org/2000/svg">
<path d="M57.9915 201.257C77.1441 201.257 92.6705 185.728 92.6705 166.571C92.6705 147.415 77.1441 131.885 57.9915 131.885C38.8388 131.885 23.3125 147.415 23.3125 166.571C23.3125 185.728 38.8388 201.257 57.9915 201.257Z" fill="url(#paint0_linear)"/>
<path d="M57.989 193.726C72.9831 193.726 85.1381 181.568 85.1381 166.571C85.1381 151.574 72.9831 139.417 57.989 139.417C42.9949 139.417 30.8398 151.574 30.8398 166.571C30.8398 181.568 42.9949 193.726 57.989 193.726Z" fill="url(#paint1_linear)"/>
<path d="M57.9894 187.717C69.6656 187.717 79.1311 178.25 79.1311 166.571C79.1311 154.893 69.6656 145.425 57.9894 145.425C46.3131 145.425 36.8477 154.893 36.8477 166.571C36.8477 178.25 46.3131 187.717 57.9894 187.717Z" fill="url(#paint2_linear)"/>
<path d="M115.97 57.9971C115.97 47.729 113.244 37.6449 108.072 28.7754C102.899 19.9058 95.4653 12.5688 86.5294 7.5141C77.5935 2.45936 67.476 -0.131887 57.2109 0.00516783C46.9458 0.142222 36.9011 3.00266 28.1033 8.29417C19.3054 13.5857 12.0698 21.1186 7.13588 30.123C2.20195 39.1275 -0.253419 49.2807 0.0206753 59.5452C0.294769 69.8096 3.2885 79.8173 8.69595 88.5455C14.1034 97.2737 21.7307 104.41 30.7984 109.224C38.1886 114.563 44.2136 121.573 48.3828 129.683C52.5521 137.792 54.7476 146.771 54.7908 155.89L57.9923 167.086L61.0222 155.89C61.0662 146.845 63.2283 137.936 67.3352 129.877C71.442 121.819 77.3794 114.835 84.6713 109.485C94.1052 104.596 102.014 97.2081 107.534 88.1277C113.054 79.0473 115.972 68.6241 115.97 57.9971V57.9971Z" fill="#5E9599"/>
<path d="M57.9931 107.97C85.6402 107.97 108.053 85.5531 108.053 57.9003C108.053 30.2476 85.6402 7.83057 57.9931 7.83057C30.346 7.83057 7.93359 30.2476 7.93359 57.9003C7.93359 85.5531 30.346 107.97 57.9931 107.97Z" fill="white"/>
<path d="M97.8846 53.1045C99.6128 46.8461 97.5838 40.8252 93.3528 39.6563C89.1218 38.4875 84.291 42.6134 82.5628 48.8718C80.8346 55.1302 82.8635 61.1511 87.0945 62.32C91.3255 63.4888 96.1564 59.3629 97.8846 53.1045Z" fill="#F7C12D"/>
<path d="M29.0833 62.3271C33.3143 61.1582 35.3432 55.1373 33.615 48.8789C31.8868 42.6205 27.056 38.4946 22.825 39.6634C18.594 40.8323 16.565 46.8532 18.2932 53.1116C20.0214 59.37 24.8523 63.4959 29.0833 62.3271Z" fill="#F7C12D"/>
<path d="M57.9919 104.149C68.9016 104.149 77.7456 90.317 77.7456 73.2546C77.7456 56.1922 68.9016 42.3604 57.9919 42.3604C47.0823 42.3604 38.2383 56.1922 38.2383 73.2546C38.2383 90.317 47.0823 104.149 57.9919 104.149Z" fill="#F7772F"/>
<path d="M57.99 95.572C74.3524 95.572 87.6168 77.8771 87.6168 56.0492C87.6168 34.2214 74.3524 16.5264 57.99 16.5264C41.6276 16.5264 28.3633 34.2214 28.3633 56.0492C28.3633 77.8771 41.6276 95.572 57.99 95.572Z" fill="#F7772F"/>
<path d="M57.9909 73.1196C76.9663 73.1196 92.349 62.1317 92.349 48.5774C92.349 35.0231 76.9663 24.0352 57.9909 24.0352C39.0154 24.0352 23.6328 35.0231 23.6328 48.5774C23.6328 62.1317 39.0154 73.1196 57.9909 73.1196Z" fill="#F7C12D"/>
<path d="M49.1719 34.2759C49.1719 34.4252 49.1719 34.5819 49.1719 34.7312C49.1719 38.9858 53.0898 42.4342 57.9106 42.4342C62.7315 42.4342 66.6569 38.9858 66.6569 34.7312C66.6569 34.5819 66.6569 34.4252 66.6569 34.2759H49.1719Z" fill="#E4F9EC"/>
<path d="M53.9509 34.2759C53.9435 34.4176 53.9435 34.5596 53.9509 34.7013C53.9509 36.6196 55.7195 38.1797 57.8912 38.1797C60.0628 38.1797 61.8389 36.6196 61.8389 34.7013C61.8376 34.5588 61.8251 34.4165 61.8016 34.2759H53.9509Z" fill="#3F4441"/>
<path d="M49.1719 35.0525C49.1719 34.8958 49.1719 34.7465 49.1719 34.5898C49.1719 30.3352 53.0898 26.8867 57.9106 26.8867C62.7315 26.8867 66.6569 30.3352 66.6569 34.5898C66.6569 34.7465 66.6569 34.8958 66.6569 35.0525H49.1719Z" fill="#E4F9EC"/>
<path d="M53.9511 35.1347C53.9434 34.993 53.9434 34.851 53.9511 34.7093C53.9511 32.791 55.7197 31.231 57.8914 31.231C60.063 31.231 61.8391 32.791 61.8391 34.7093C61.8381 34.8519 61.8256 34.9941 61.8018 35.1347H53.9511Z" fill="#3F4441"/>
<path d="M35.293 50.9888C35.293 51.1455 35.293 51.2948 35.293 51.4516C35.293 55.7061 39.2034 59.1546 44.0318 59.1546C48.8601 59.1546 52.7705 55.7061 52.7705 51.4516C52.7705 51.2948 52.7705 51.1455 52.7705 50.9888H35.293Z" fill="#E4F9EC"/>
<path d="M40.0788 50.9888C40.0675 51.1329 40.0675 51.2776 40.0788 51.4217C40.0788 53.34 41.84 54.8925 44.0191 54.8925C46.1982 54.8925 47.9594 53.34 47.9594 51.4217C47.9671 51.2775 47.9671 51.133 47.9594 50.9888H40.0788Z" fill="#3F4441"/>
<path d="M35.293 51.7648C35.293 51.6155 35.293 51.4587 35.293 51.3095C35.293 47.0549 39.2034 43.6064 44.0318 43.6064C48.8601 43.6064 52.7705 47.0549 52.7705 51.3095C52.7705 51.4587 52.7705 51.6155 52.7705 51.7648H35.293Z" fill="#E4F9EC"/>
<path d="M40.0788 51.8545C40.0675 51.7104 40.0675 51.5656 40.0788 51.4215C40.0788 49.5032 41.84 47.9507 44.0191 47.9507C46.1982 47.9507 47.9594 49.5032 47.9594 51.4215C47.9671 51.5657 47.9671 51.7103 47.9594 51.8545H40.0788Z" fill="#3F4441"/>
<path d="M62.6133 52.5557C62.6133 52.7049 62.6133 52.8617 62.6133 53.011C62.6133 57.2656 66.5312 60.714 71.3521 60.714C76.1729 60.714 80.0908 57.2656 80.0908 53.011C80.0908 52.8617 80.0908 52.7049 80.0908 52.5557H62.6133Z" fill="#E4F9EC"/>
<path d="M67.3923 52.5557C67.3849 52.6974 67.3849 52.8394 67.3923 52.9811C67.3923 54.8994 69.1535 56.4595 71.3326 56.4595C73.5116 56.4595 75.2728 54.8994 75.2728 52.9811C75.284 52.8395 75.284 52.6973 75.2728 52.5557H67.3923Z" fill="#3F4441"/>
<path d="M62.6133 53.3323C62.6133 53.1756 62.6133 53.0263 62.6133 52.8695C62.6133 48.615 66.5312 45.1665 71.3521 45.1665C76.1729 45.1665 80.0908 48.615 80.0908 52.8695C80.0908 53.0263 80.0908 53.1756 80.0908 53.3323H62.6133Z" fill="#E4F9EC"/>
<path d="M67.3923 53.4145C67.3849 53.2728 67.3849 53.1308 67.3923 52.9891C67.3923 51.0708 69.1535 49.5107 71.3326 49.5107C73.5116 49.5107 75.2728 51.0708 75.2728 52.9891C75.284 53.1307 75.284 53.2729 75.2728 53.4145H67.3923Z" fill="#3F4441"/>
<path d="M57.8639 71.0522C60.5717 71.0522 62.7669 68.4757 62.7669 65.2973C62.7669 62.119 60.5717 59.5425 57.8639 59.5425C55.1561 59.5425 52.9609 62.119 52.9609 65.2973C52.9609 68.4757 55.1561 71.0522 57.8639 71.0522Z" fill="#F7772F"/>
<path d="M43.5227 62.2518C37.4406 64.4911 33.5601 69.6339 32.4332 75.971C32.1599 77.514 32.0126 79.0767 31.9929 80.6436C31.9929 82.1364 32.4854 84.2189 31.9929 85.6073C31.8469 86.0268 31.6031 86.4055 31.2817 86.7122C30.9604 87.0188 30.5707 87.2445 30.1449 87.3707C29.719 87.4969 29.2693 87.5199 28.8328 87.4378C28.3963 87.3557 27.9856 87.1708 27.6347 86.8986C26.2243 85.9581 25.784 84.3607 25.5302 82.7858C24.8511 78.5611 18.4258 80.3525 19.1049 84.5548C20.2914 91.9668 28.8063 97.3037 35.3287 92.116C38.6496 89.4812 38.7317 85.8237 38.6795 81.905C38.6123 76.7473 39.8585 70.7087 45.3063 68.6785C49.3063 67.1856 47.5451 60.7739 43.5376 62.2518H43.5227Z" fill="#F7C12D"/>
<path d="M43.6353 66.7079C44.5536 69.9906 44.5226 73.4665 43.5457 76.7323C42.7472 79.4418 41.9338 81.7557 42.389 84.6219C42.7441 86.9135 43.7432 89.0569 45.2696 90.8023C46.0158 91.6681 47.0531 92.2055 47.8069 93.0415C49.1427 94.5344 48.7546 95.4972 48.0382 97.3036C46.4636 101.289 52.9039 103.021 54.4636 99.0726C55.4412 96.6094 56.0531 93.676 54.8964 91.1605C53.6651 88.4734 50.5009 87.6002 49.3516 84.9056C48.0308 81.7781 50.2024 78.3968 50.6949 75.2693C51.2173 71.8198 51.0011 68.2986 50.0606 64.9389C48.9561 60.7963 42.5233 62.5578 43.6353 66.7153V66.7079Z" fill="#F7C12D"/>
<path d="M71.008 68.6784C76.1796 70.5743 77.6796 76.2993 77.6498 81.2705C77.6498 85.3832 77.4632 89.3169 80.9931 92.1159C87.5378 97.2961 96.0303 91.9667 97.2169 84.5547C97.8885 80.3599 91.4706 78.5834 90.7915 82.7857C90.3736 85.3833 86.9856 90.0334 84.6423 86.1968C83.8289 84.8682 84.299 82.7782 84.3065 81.2705C84.3265 79.4943 84.1816 77.7202 83.8737 75.9709C82.7468 69.6413 78.8587 64.4835 72.7841 62.2517C68.7468 60.7589 67.008 67.2154 71.008 68.6784V68.6784Z" fill="#F7C12D"/>
<path d="M66.25 64.9313C65.3619 68.0845 65.1082 71.3827 65.5038 74.6347C65.9366 77.9264 68.3172 81.6884 66.9441 84.9279C65.8545 87.4881 62.9292 88.3614 61.6083 90.7798C60.1978 93.3773 60.7948 96.4749 61.8321 99.0949C63.3918 103.036 69.8321 101.334 68.2575 97.3259C67.5112 95.5195 67.153 94.5417 68.4888 93.0638C69.1157 92.3771 70.0261 91.9218 70.7276 91.2425C72.4425 89.4222 73.5642 87.1238 73.9441 84.6517C74.362 82.0467 73.7649 79.7925 72.9814 77.3293C71.8295 73.9066 71.7307 70.2171 72.6978 66.7376C73.8023 62.5876 67.3769 60.8185 66.2724 64.9612L66.25 64.9313Z" fill="#F7C12D"/>
<defs>
<linearGradient id="paint0_linear" x1="57.9915" y1="201.265" x2="57.9915" y2="131.885" gradientUnits="userSpaceOnUse">
<stop stop-color="white" stop-opacity="0"/>
<stop offset="0.01" stop-color="#FCFAFB" stop-opacity="0.03"/>
<stop offset="0.14" stop-color="#D7BBC9" stop-opacity="0.37"/>
<stop offset="0.26" stop-color="#BA89A1" stop-opacity="0.64"/>
<stop offset="0.37" stop-color="#A46585" stop-opacity="0.84"/>
<stop offset="0.46" stop-color="#984F73" stop-opacity="0.96"/>
<stop offset="0.53" stop-color="#93476D"/>
</linearGradient>
<linearGradient id="paint1_linear" x1="57.989" y1="193.733" x2="57.989" y2="139.417" gradientUnits="userSpaceOnUse">
<stop stop-color="white" stop-opacity="0"/>
<stop offset="0.05" stop-color="#FEF5F0" stop-opacity="0.07"/>
<stop offset="0.24" stop-color="#FCCFB6" stop-opacity="0.35"/>
<stop offset="0.43" stop-color="#FAB086" stop-opacity="0.58"/>
<stop offset="0.6" stop-color="#F99760" stop-opacity="0.76"/>
<stop offset="0.75" stop-color="#F88645" stop-opacity="0.89"/>
<stop offset="0.88" stop-color="#F77B35" stop-opacity="0.97"/>
<stop offset="0.97" stop-color="#F7772F"/>
</linearGradient>
<linearGradient id="paint2_linear" x1="57.9894" y1="187.717" x2="57.9894" y2="145.425" gradientUnits="userSpaceOnUse">
<stop stop-color="white" stop-opacity="0"/>
<stop offset="0.11" stop-color="#FEF5DC" stop-opacity="0.17"/>
<stop offset="0.28" stop-color="#FCE5A8" stop-opacity="0.42"/>
<stop offset="0.45" stop-color="#FAD87C" stop-opacity="0.62"/>
<stop offset="0.61" stop-color="#F9CE5A" stop-opacity="0.79"/>
<stop offset="0.75" stop-color="#F8C741" stop-opacity="0.9"/>
<stop offset="0.88" stop-color="#F7C332" stop-opacity="0.97"/>
<stop offset="0.97" stop-color="#F7C12D"/>
</linearGradient>
</defs>
</svg>
