<svg width="378" height="71" viewBox="0 0 378 71" fill="none" xmlns="http://www.w3.org/2000/svg">
<path opacity="0.48" d="M2.61138e-06 11.1162C-8.17589e-06 8.36046 1.15858 5.71717 3.22173 3.76591C5.28487 1.81465 8.08413 0.714663 11.0058 0.707174L289.279 3.84331e-05C290.731 -0.00368254 292.169 0.262821 293.511 0.784258C294.854 1.30569 296.074 2.07183 297.102 3.03877C298.13 4.00571 298.946 5.15445 299.502 6.41918C300.058 7.68391 300.345 9.03976 300.345 10.4091V10.4091C300.335 13.1636 299.168 15.8021 297.099 17.7465C295.031 19.691 292.229 20.7828 289.309 20.7828H255.752C252.825 20.7828 250.018 21.8794 247.948 23.8315C245.878 25.7836 244.716 28.4311 244.716 31.1918V39.1683C244.716 41.9289 245.878 44.5765 247.948 46.5286C250.018 48.4807 252.825 49.5773 255.752 49.5773H366.223C369.15 49.5773 371.957 50.674 374.026 52.6261C376.096 54.5781 377.259 57.2257 377.259 59.9864C377.259 62.747 376.096 65.3946 374.026 67.3467C371.957 69.2988 369.15 70.3954 366.223 70.3954H172.338C169.41 70.3954 166.603 69.299 164.532 67.3471C162.461 65.3952 161.297 62.7477 161.295 59.9864C161.297 57.2251 162.461 54.5775 164.532 52.6256C166.603 50.6737 169.41 49.5773 172.338 49.5773H184.333C187.255 49.5698 190.054 48.4699 192.117 46.5186C194.181 44.5673 195.339 41.924 195.339 39.1683V31.2625C195.339 29.892 195.052 28.535 194.495 27.2693C193.938 26.0037 193.121 24.8543 192.091 23.8872C191.061 22.9201 189.84 22.1542 188.495 21.6336C187.151 21.113 185.711 20.8479 184.258 20.8535L11.0734 21.5252C9.62069 21.5308 8.18115 21.2657 6.83744 20.745C5.49373 20.2243 4.27227 19.4584 3.24332 18.4911C2.21438 17.5239 1.3982 16.3745 0.841606 15.1089C0.28501 13.8433 -0.000997027 12.4864 2.61138e-06 11.1162V11.1162Z" fill="#E8E3CA"/>
</svg>
