<svg width="703" height="44" viewBox="0 0 703 44" fill="none" xmlns="http://www.w3.org/2000/svg">
<path opacity="0.48" d="M3.75463e-05 6.36421C3.75463e-05 4.67632 0.710936 3.05756 1.97633 1.86404C3.24173 0.67052 4.95797 0 6.74751 0H549.229C551.019 0 552.735 0.67052 554 1.86404C555.266 3.05756 555.977 4.67632 555.977 6.36421C555.977 8.05211 555.266 9.67087 554 10.8644C552.735 12.0579 551.019 12.7284 549.229 12.7284H448.017C440.632 12.7284 434.605 13.7043 362.931 14.9206C361.16 14.9466 359.471 15.6285 358.228 16.8192C356.985 18.0099 356.289 19.6139 356.289 21.2848V22.1546C356.289 23.8291 356.988 25.4361 358.236 26.6274C359.484 27.8188 361.179 28.4983 362.954 28.5188C434.545 29.5158 439.47 30.3078 445.513 30.3078H695.394C697.184 30.3078 698.9 30.9783 700.166 32.1718C701.431 33.3654 702.142 34.9842 702.142 36.6721C702.142 38.3599 701.431 39.9787 700.166 41.1722C698.9 42.3657 697.184 43.0363 695.394 43.0363H152.95C151.161 43.0363 149.444 42.3657 148.179 41.1722C146.914 39.9787 146.203 38.3599 146.203 36.6721C146.203 34.9842 146.914 33.3654 148.179 32.1718C149.444 30.9783 151.161 30.3078 152.95 30.3078H257.034C258.823 30.3078 260.539 29.6373 261.805 28.4438C263.07 27.2503 263.781 25.6315 263.781 23.9436C263.781 22.3809 263.781 20.7049 263.781 19.1139C263.781 17.426 263.07 15.8072 261.805 14.6137C260.539 13.4202 258.823 12.7497 257.034 12.7497H6.76249C5.87325 12.7515 4.9924 12.5876 4.17055 12.2673C3.34871 11.9469 2.6021 11.4766 1.97366 10.8832C1.34521 10.2898 0.847308 9.58501 0.508605 8.80949C0.169903 8.03398 -0.00292882 7.20295 3.75463e-05 6.36421V6.36421Z" fill="#E8E3CA"/>
</svg>
