<svg width="1440" height="766" viewBox="0 0 1440 766" fill="none" xmlns="http://www.w3.org/2000/svg">
<g clip-path="url(#clip0)">
<path d="M1439.47 0.721191H0.0117188V765.099H1439.47V0.721191Z" fill="#48B6D8"/>
<path d="M1439.73 0H0.273438V765.106H1439.73V0Z" fill="url(#paint0_linear)"/>
<path d="M1439.47 0.721191H0.0117188V726.193H1439.47V0.721191Z" fill="url(#paint1_linear)"/>
<path d="M1439.46 646.527C1439.46 646.381 1439.43 646.237 1439.37 646.103C1439.31 645.968 1439.22 645.846 1439.12 645.742C1439.01 645.639 1438.88 645.557 1438.74 645.501C1438.59 645.446 1438.44 645.417 1438.29 645.417H1415.49C1401.83 645.417 1389.76 638.741 1385.78 628.962L1380.39 615.767C1376.4 605.987 1364.33 599.312 1350.67 599.312H1334.49C1317.33 599.312 1303.41 609.721 1303.41 622.562V667.642C1303.41 680.484 1289.5 690.893 1272.34 690.893H1214.35L1165.97 690.405C1152.39 690.27 1140.48 683.545 1136.61 673.801L1131.91 662.02C1127.98 652.17 1115.87 645.417 1102.13 645.417H983.814C971.451 645.417 960.258 639.929 955.325 631.444C950.391 622.958 939.198 617.471 926.835 617.471H889.222C872.053 617.471 858.138 627.88 858.138 640.728V652.29C858.138 664.743 851.249 676.941 834.897 678.341C829.732 678.786 829.109 681.17 829.109 681.17C829.187 681.387 829.333 681.576 829.529 681.712C829.725 681.847 829.961 681.922 830.204 681.926C839.748 682.145 864.016 681.615 875.277 682.244C877.526 682.365 885.023 682.994 884.109 684.91L859.54 736.531C859.461 736.701 859.427 736.887 859.443 737.072C859.458 737.257 859.522 737.436 859.63 737.592C859.737 737.748 859.883 737.876 860.056 737.965C860.229 738.054 860.423 738.1 860.62 738.101H1438.32C1438.64 738.101 1438.94 737.983 1439.16 737.774C1439.38 737.564 1439.51 737.28 1439.51 736.984L1439.46 646.527Z" fill="url(#paint2_linear)"/>
<path d="M65.275 647.78C65.2741 647.634 65.3036 647.49 65.3619 647.356C65.4202 647.221 65.5062 647.098 65.6149 646.995C65.7237 646.892 65.8529 646.81 65.9953 646.754C66.1377 646.698 66.2904 646.67 66.4447 646.67H89.236C102.903 646.67 114.966 639.994 118.955 630.215L124.345 617.019C128.334 607.24 140.397 600.564 154.064 600.564H170.236C187.404 600.564 201.319 610.973 201.319 623.815V668.895C201.319 681.737 215.234 692.146 232.395 692.146H290.378L338.757 691.658C352.342 691.523 364.248 684.798 368.124 675.054L372.817 663.273C376.753 653.423 388.861 646.67 402.603 646.67H520.917C533.28 646.67 544.473 641.182 549.406 632.697C554.339 624.211 565.532 618.724 577.895 618.724H615.509C632.677 618.724 646.592 629.133 646.592 641.981V653.543C646.592 665.996 653.482 678.194 669.833 679.594C674.999 680.039 675.621 682.422 675.621 682.422C675.544 682.64 675.397 682.829 675.201 682.964C675.005 683.1 674.769 683.175 674.527 683.179C664.983 683.398 640.714 682.868 629.453 683.497C627.204 683.617 619.707 684.247 620.622 686.163L645.19 737.784C645.27 737.954 645.303 738.14 645.288 738.325C645.272 738.51 645.208 738.689 645.101 738.845C644.994 739 644.847 739.129 644.674 739.218C644.501 739.307 644.307 739.353 644.11 739.354H66.4071C66.093 739.354 65.7917 739.236 65.5696 739.027C65.3474 738.817 65.2226 738.533 65.2226 738.237L65.275 647.78Z" fill="url(#paint3_linear)"/>
<path d="M1439.99 765.106H0.0117188V712.693L722.786 711.845H1439.99V765.106Z" fill="url(#paint4_linear)"/>
<path d="M1439.99 743.609H-0.00390625V752.046H1439.99V743.609Z" fill="#FFBC48"/>
<path d="M1440 723.223H-0.00390625V734.593H1440V723.223Z" fill="#F2D65F"/>
<path d="M1439.99 752.045H0.0117188V765.106H1439.99V752.045Z" fill="#F49947"/>
<path d="M1439.99 759.626H0.0117188V765.106H1439.99V759.626Z" fill="#FF7415"/>
<path d="M1360.67 637.539L1351.37 670.16C1349.3 677.401 1340.75 682.577 1330.85 682.577H1325.5C1313.91 682.577 1304.51 675.548 1304.51 666.878V659.05C1304.51 650.381 1295.12 643.359 1283.52 643.359H1258.13C1249.78 643.359 1242.23 647.057 1238.89 652.785C1235.57 658.513 1228.01 662.218 1219.66 662.218H1139.83C1130.55 662.218 1122.38 666.772 1119.73 673.427L1116.55 681.375C1113.93 687.951 1105.91 692.491 1096.74 692.583L1064.08 692.908H1024.95C1013.36 692.908 1003.96 685.886 1003.96 677.217V646.81C1003.96 638.14 994.568 631.112 982.97 631.112H972.069C962.84 631.112 954.698 635.623 952.007 642.221L948.393 651.131C945.694 657.728 937.552 662.24 928.33 662.24H912.954C904.924 662.24 897.6 665.669 894.083 671.072L889.488 678.143C885.971 683.546 878.647 686.975 870.617 686.975H844.609C833.026 686.975 823.617 693.997 823.617 702.667V709.094C823.617 717.764 833.011 724.793 844.609 724.793H1304.1V725.04H1439.8L1439.96 697.13C1437.91 697.137 1435.87 696.762 1433.97 696.025C1432.07 695.289 1430.34 694.205 1428.88 692.838C1427.43 691.47 1426.27 689.844 1425.49 688.054C1424.7 686.264 1424.29 684.345 1424.29 682.407V640.813C1424.29 632.144 1414.9 625.122 1403.3 625.122H1381.14C1371.29 625.108 1362.74 630.298 1360.67 637.539Z" fill="url(#paint5_linear)"/>
<path d="M81.6132 635.01L95.5636 667.642C98.6662 674.885 111.481 680.063 126.32 680.063H134.346C151.725 680.063 165.821 673.032 165.821 664.359V656.529C165.821 647.856 179.906 640.832 197.297 640.832H235.359C247.882 640.832 259.202 644.531 264.204 650.261C269.196 655.991 280.527 659.698 293.038 659.698H412.746C426.651 659.698 438.904 664.253 442.884 670.91L447.639 678.861C451.573 685.439 463.601 689.981 477.349 690.073L526.316 690.398H584.984C602.363 690.398 616.459 683.374 616.459 674.701V644.284C616.459 635.611 630.545 628.58 647.935 628.58H664.28C678.118 628.58 690.326 633.093 694.361 639.693L699.779 648.606C703.826 655.206 716.034 659.719 729.861 659.719H752.917C764.956 659.719 775.939 663.15 781.211 668.554L788.102 675.628C793.374 681.032 804.357 684.463 816.396 684.463H855.392C872.759 684.463 886.867 691.487 886.867 700.16V706.59C886.867 715.262 872.782 722.294 855.392 722.294H166.44V722.541H-37.0266L-37.274 694.621C-34.193 694.628 -31.1399 694.253 -28.29 693.516C-25.44 692.779 -22.8493 691.696 -20.6665 690.327C-18.4836 688.959 -16.7517 687.333 -15.5699 685.542C-14.3881 683.752 -13.7798 681.832 -13.7798 679.893V638.285C-13.7798 629.613 0.305412 622.588 17.6956 622.588H50.9247C65.6844 622.574 78.5106 627.766 81.6132 635.01Z" fill="url(#paint6_linear)"/>
<path opacity="0.48" d="M271.273 511.226C271.273 509.538 271.984 507.919 273.25 506.726C274.515 505.532 276.231 504.862 278.021 504.862H820.503C822.292 504.862 824.008 505.532 825.274 506.726C826.539 507.919 827.25 509.538 827.25 511.226C827.25 512.914 826.539 514.533 825.274 515.726C824.008 516.92 822.292 517.59 820.503 517.59H719.29C711.906 517.59 705.878 518.566 634.205 519.782C632.434 519.808 630.744 520.49 629.501 521.681C628.259 522.872 627.562 524.476 627.562 526.147V527.016C627.562 528.691 628.262 530.298 629.509 531.489C630.757 532.681 632.452 533.36 634.227 533.381C705.818 534.378 710.744 535.17 716.786 535.17H966.668C968.457 535.17 970.174 535.84 971.439 537.034C972.704 538.227 973.415 539.846 973.415 541.534C973.415 543.222 972.704 544.841 971.439 546.034C970.174 547.228 968.457 547.898 966.668 547.898H424.224C422.434 547.898 420.718 547.228 419.452 546.034C418.187 544.841 417.476 543.222 417.476 541.534C417.476 539.846 418.187 538.227 419.452 537.034C420.718 535.84 422.434 535.17 424.224 535.17H528.307C530.097 535.17 531.813 534.499 533.078 533.306C534.344 532.112 535.055 530.493 535.055 528.805C535.055 527.243 535.055 525.567 535.055 523.976C535.055 522.288 534.344 520.669 533.078 519.476C531.813 518.282 530.097 517.611 528.307 517.611H278.036C277.147 517.613 276.266 517.449 275.444 517.129C274.622 516.809 273.876 516.338 273.247 515.745C272.619 515.152 272.121 514.447 271.782 513.671C271.443 512.896 271.271 512.065 271.273 511.226V511.226Z" fill="#E8E3CA"/>
<path opacity="0.25" d="M403.636 737.924C406.054 737.924 408.015 737.797 408.015 737.641C408.015 737.485 406.054 737.358 403.636 737.358C401.218 737.358 399.258 737.485 399.258 737.641C399.258 737.797 401.218 737.924 403.636 737.924Z" fill="black"/>
<path opacity="0.25" d="M202.292 760.44C209.584 760.44 215.495 760.117 215.495 759.718C215.495 759.32 209.584 758.997 202.292 758.997C195.001 758.997 189.09 759.32 189.09 759.718C189.09 760.117 195.001 760.44 202.292 760.44Z" fill="black"/>
<path opacity="0.25" d="M343.355 747.308C347.309 747.308 350.515 747.137 350.515 746.926C350.515 746.715 347.309 746.544 343.355 746.544C339.401 746.544 336.195 746.715 336.195 746.926C336.195 747.137 339.401 747.308 343.355 747.308Z" fill="black"/>
<path d="M407.841 737.91C407.841 737.91 409.918 737.74 408.171 736.164C407.489 735.555 404.243 734.537 402.923 736.793C402.923 736.793 402.174 737.889 404.168 737.91C406.162 737.931 407.841 737.91 407.841 737.91Z" fill="#F2D65F"/>
<path opacity="0.25" d="M1352.26 752.696C1359.55 752.696 1365.46 752.373 1365.46 751.975C1365.46 751.576 1359.55 751.253 1352.26 751.253C1344.97 751.253 1339.05 751.576 1339.05 751.975C1339.05 752.373 1344.97 752.696 1352.26 752.696Z" fill="black"/>
<path d="M1364.94 752.668C1364.94 752.668 1371.21 752.152 1365.93 747.393C1363.87 745.561 1354.08 742.443 1350.19 749.295C1350.19 749.295 1347.89 752.597 1353.93 752.668C1359.98 752.739 1364.94 752.668 1364.94 752.668Z" fill="#FF7415"/>
<path d="M349.149 747.28C349.149 747.28 352.283 747.025 349.652 744.642C348.617 743.723 343.722 742.188 341.772 745.59C341.772 745.59 340.625 747.244 343.647 747.28C346.668 747.315 349.149 747.28 349.149 747.28Z" fill="#FFD48F"/>
<path d="M214.549 760.383C214.549 760.383 220.824 759.874 215.546 755.107C213.485 753.276 203.693 750.2 199.802 757.017C199.802 757.017 197.508 760.312 203.551 760.383C209.594 760.453 214.549 760.383 214.549 760.383Z" fill="#FFBC48"/>
<path opacity="0.38" d="M1380.44 752.555C1385.18 752.555 1389.02 752.203 1389.02 751.77C1389.02 751.336 1385.18 750.985 1380.44 750.985C1375.7 750.985 1371.86 751.336 1371.86 751.77C1371.86 752.203 1375.7 752.555 1380.44 752.555Z" fill="#264C2B"/>
<path opacity="0.32" d="M232.816 761.458C239.286 761.458 244.534 761.882 244.534 762.405C244.534 762.928 239.286 763.353 232.816 763.353C226.346 763.353 221.098 762.928 221.098 762.405" fill="#264C2B"/>
<path opacity="0.25" d="M413.562 757.052C417.827 757.052 421.284 756.774 421.284 756.43C421.284 756.086 417.827 755.808 413.562 755.808C409.297 755.808 405.84 756.086 405.84 756.43C405.84 756.774 409.297 757.052 413.562 757.052Z" fill="#264C2B"/>
<path opacity="0.15" d="M359.418 747.308C362.491 747.308 364.981 747.105 364.981 746.855C364.981 746.605 362.491 746.403 359.418 746.403C356.346 746.403 353.855 746.605 353.855 746.855C353.855 747.105 356.346 747.308 359.418 747.308Z" fill="#264C2B"/>
<path opacity="0.38" d="M1071.13 737.931C1073.98 737.931 1076.3 737.757 1076.3 737.542C1076.3 737.327 1073.98 737.153 1071.13 737.153C1068.27 737.153 1065.95 737.327 1065.95 737.542C1065.95 737.757 1068.27 737.931 1071.13 737.931Z" fill="#264C2B"/>
<path d="M238.773 761.168V752.633C238.773 750.136 234.664 750.129 234.664 752.633V761.168C234.664 763.664 238.773 763.664 238.773 761.168Z" fill="#13651B"/>
<path d="M238.701 761.684C238.754 761.493 238.821 761.309 238.889 761.118C239.024 760.758 238.799 761.253 239.024 760.828C239.181 760.538 239.339 760.248 239.518 759.973C240.533 758.484 241.959 757.284 243.642 756.501C245.981 755.334 243.904 751.982 241.565 753.156C238.566 754.669 235.567 757.399 234.743 760.652C234.135 763.077 238.101 764.116 238.701 761.684V761.684Z" fill="#2B8E3A"/>
<path d="M230.159 757.066C230.399 757.144 229.852 756.939 229.859 756.939C229.994 757.031 230.167 757.073 230.309 757.151C230.709 757.364 231.095 757.6 231.464 757.858C232.965 759.022 234.163 760.495 234.965 762.165C236.134 764.406 239.68 762.441 238.518 760.206C237.019 757.378 234.545 754.471 231.254 753.347C228.765 752.498 227.692 756.246 230.159 757.088V757.066Z" fill="#2B8E3A"/>
<path d="M417.929 755.404V749.747C417.904 749.425 417.75 749.124 417.499 748.904C417.248 748.685 416.918 748.562 416.576 748.562C416.233 748.562 415.904 748.685 415.653 748.904C415.402 749.124 415.248 749.425 415.223 749.747V755.404C415.248 755.727 415.402 756.028 415.653 756.247C415.904 756.467 416.233 756.589 416.576 756.589C416.918 756.589 417.248 756.467 417.499 756.247C417.75 756.028 417.904 755.727 417.929 755.404V755.404Z" fill="#13651B"/>
<path d="M417.876 755.744C417.876 755.617 417.959 755.496 418.004 755.376C418.094 755.136 417.944 755.461 418.094 755.185C418.191 754.992 418.298 754.803 418.416 754.62C419.084 753.637 420.025 752.847 421.137 752.336C422.637 751.565 421.31 749.358 419.765 750.129C417.771 751.126 415.807 752.908 415.267 755.079C414.87 756.677 417.516 757.363 417.876 755.786V755.744Z" fill="#2B8E3A"/>
<path d="M412.237 752.703L412.035 752.626C412.125 752.682 412.237 752.711 412.335 752.76C412.582 752.894 412.934 753.1 413.084 753.213C414.07 753.978 414.857 754.945 415.386 756.041C416.136 757.519 418.497 756.225 417.725 754.754C416.743 752.866 415.108 750.971 412.942 750.236C411.3 749.677 410.595 752.145 412.192 752.696L412.237 752.703Z" fill="#2B8E3A"/>
<path d="M362.111 745.696V741.785C362.111 741.617 362.04 741.455 361.914 741.335C361.787 741.216 361.615 741.149 361.436 741.149C361.258 741.149 361.086 741.216 360.959 741.335C360.833 741.455 360.762 741.617 360.762 741.785V745.675C360.762 745.843 360.833 746.005 360.959 746.125C361.086 746.244 361.258 746.311 361.436 746.311C361.615 746.311 361.787 746.244 361.914 746.125C362.04 746.005 362.111 745.843 362.111 745.675V745.696Z" fill="#13651B"/>
<path d="M362.255 746.402C362.255 746.615 362.255 746.325 362.3 746.212C362.368 745.952 362.466 745.701 362.593 745.462C363.102 744.573 363.887 743.853 364.842 743.397C365.592 743.001 364.924 741.898 364.16 742.294C362.563 743.135 361.071 744.606 360.906 746.402C360.824 747.223 362.173 747.216 362.255 746.402Z" fill="#2B8E3A"/>
<path d="M358.498 743.482C358.386 743.482 358.416 743.411 358.551 743.482C358.446 743.411 358.851 743.673 358.948 743.751C359.829 744.6 360.524 745.604 360.995 746.707C361.37 747.414 362.539 746.799 362.157 746.063C361.61 744.804 360.79 743.667 359.75 742.725C359.411 742.415 358.969 742.225 358.498 742.188C357.636 742.237 357.636 743.51 358.498 743.461V743.482Z" fill="#2B8E3A"/>
<path d="M1072.64 736.411V732.522C1072.64 732.353 1072.57 732.191 1072.44 732.072C1072.32 731.952 1072.15 731.885 1071.97 731.885C1071.79 731.885 1071.62 731.952 1071.49 732.072C1071.36 732.191 1071.29 732.353 1071.29 732.522V736.411C1071.29 736.58 1071.36 736.742 1071.49 736.861C1071.62 736.98 1071.79 737.047 1071.97 737.047C1072.15 737.047 1072.32 736.98 1072.44 736.861C1072.57 736.742 1072.64 736.58 1072.64 736.411V736.411Z" fill="#13651B"/>
<path d="M1072.76 737.118C1072.76 737.323 1072.76 737.033 1072.8 736.927C1072.87 736.668 1072.97 736.416 1073.09 736.178C1073.6 735.288 1074.39 734.566 1075.34 734.106C1076.09 733.71 1075.42 732.614 1074.66 733.01C1073.06 733.844 1071.57 735.315 1071.41 737.118C1071.32 737.931 1072.68 737.931 1072.76 737.118Z" fill="#2B8E3A"/>
<path d="M1069 734.197C1068.89 734.197 1068.92 734.127 1069.05 734.197C1068.95 734.127 1069.35 734.381 1069.45 734.459C1070.33 735.308 1071.02 736.313 1071.49 737.415C1071.88 738.157 1073.04 737.507 1072.66 736.778C1072.11 735.519 1071.29 734.382 1070.25 733.441C1069.91 733.127 1069.47 732.937 1069 732.903C1068.14 732.946 1068.14 734.219 1069 734.176V734.197Z" fill="#2B8E3A"/>
<path d="M1384.32 750.405V743.093C1384.32 741.184 1381.17 741.177 1381.17 743.093V750.405C1381.17 752.314 1384.32 752.321 1384.32 750.405Z" fill="#13651B"/>
<path d="M1384.11 750.978C1385.06 749.139 1386.5 747.565 1388.29 746.41C1389.97 745.349 1388.39 742.775 1386.71 743.843C1384.44 745.261 1382.61 747.211 1381.39 749.5C1380.51 751.212 1383.22 752.718 1384.11 750.999V750.978Z" fill="#2B8E3A"/>
<path d="M1377.31 746.41L1377.44 746.495C1377.77 746.714 1377.3 746.382 1377.59 746.608C1377.87 746.834 1378.34 747.202 1378.67 747.52C1379.78 748.579 1380.7 749.808 1381.39 751.155C1382.27 752.873 1384.99 751.367 1384.11 749.656C1382.92 747.323 1381.12 745.32 1378.86 743.843C1377.18 742.775 1375.6 745.349 1377.28 746.41H1377.31Z" fill="#2B8E3A"/>
<path d="M1316.11 769.102V752.696C1316.11 745.872 1304.86 745.865 1304.86 752.696V769.102C1304.86 775.933 1316.11 775.94 1316.11 769.102Z" fill="#24490C"/>
<path d="M1315.33 773.741C1315.54 773.401 1315.75 773.034 1315.98 772.744C1316.2 772.454 1316.51 771.994 1316.78 771.626C1316.95 771.4 1317.13 771.181 1317.3 770.919C1316.8 771.563 1317.24 770.983 1317.52 770.679C1319.75 768.093 1322.43 765.89 1325.45 764.166C1331.68 760.701 1326.02 751.53 1319.77 754.973C1313.91 758.185 1309.03 762.784 1305.62 768.317C1302.12 774.292 1311.83 779.631 1315.37 773.67L1315.33 773.741Z" fill="#3B6D1B"/>
<path d="M1295.77 764.201C1296.16 764.413 1296.52 764.64 1296.88 764.908C1297.23 765.177 1297.7 765.46 1298.11 765.75C1297.02 764.972 1298.75 766.28 1298.92 766.457C1301.63 768.656 1303.9 771.289 1305.63 774.236C1309.13 780.204 1318.85 774.858 1315.37 768.883C1312.09 763.238 1307.31 758.5 1301.49 755.136C1295.24 751.664 1289.57 760.793 1295.81 764.329L1295.77 764.201Z" fill="#3B6D1B"/>
<path d="M1086.22 386.966C1134.12 386.966 1172.95 350.022 1172.95 304.45C1172.95 258.878 1134.12 221.935 1086.22 221.935C1038.33 221.935 999.496 258.878 999.496 304.45C999.496 350.022 1038.33 386.966 1086.22 386.966Z" fill="#FF9A51"/>
<path d="M1008 268.789H1164.45C1157.59 255.2 1146.93 243.634 1133.61 235.342H1038.83C1025.52 243.634 1014.85 255.2 1008 268.789Z" fill="#E9633B"/>
<path d="M1001.5 286.793H1170.93C1169.76 281.68 1168.08 276.684 1165.9 271.873H1006.53C1004.35 276.684 1002.67 281.68 1001.5 286.793V286.793Z" fill="#FC8245"/>
<path d="M999.496 304.45C999.5 307.49 999.675 310.528 1000.02 313.551H1172.46C1173.48 304.614 1172.97 295.579 1170.96 286.793H1001.52C1000.18 292.594 999.503 298.513 999.496 304.45V304.45Z" fill="#FF9A51"/>
<path d="M1047.67 378.374C1059.64 384.024 1072.84 386.966 1086.23 386.966C1099.61 386.966 1112.81 384.024 1124.78 378.374H1047.67Z" fill="#FF9A51"/>
<path d="M999.906 312.554C1001.14 324.724 1005.23 336.483 1011.87 346.983C1018.51 357.482 1027.54 366.46 1038.31 373.269H1134.14C1144.91 366.462 1153.94 357.485 1160.58 346.986C1167.23 336.486 1171.32 324.726 1172.56 312.554H999.906Z" fill="#FC8245"/>
<path d="M1014.32 350.591H1158.14C1161.47 345.901 1164.27 340.902 1166.52 335.67H1005.93C1008.17 340.903 1010.99 345.903 1014.32 350.591Z" fill="#D54F31"/>
<path d="M1120.92 326.414H1081.93C1080.68 326.419 1079.45 326.655 1078.3 327.109C1077.15 327.563 1076.11 328.227 1075.23 329.061C1074.35 329.896 1073.66 330.885 1073.18 331.973C1072.71 333.061 1072.47 334.226 1072.48 335.402V335.402C1072.47 336.577 1072.71 337.742 1073.18 338.83C1073.66 339.918 1074.35 340.908 1075.23 341.742C1076.11 342.577 1077.15 343.24 1078.3 343.694C1079.45 344.149 1080.68 344.385 1081.93 344.389H1120.92C1122.16 344.385 1123.39 344.149 1124.54 343.694C1125.69 343.24 1126.74 342.577 1127.61 341.742C1128.49 340.907 1129.19 339.918 1129.66 338.83C1130.13 337.742 1130.37 336.577 1130.36 335.402V335.402C1130.37 334.226 1130.13 333.062 1129.66 331.974C1129.19 330.886 1128.49 329.896 1127.61 329.062C1126.74 328.227 1125.69 327.563 1124.54 327.109C1123.39 326.655 1122.16 326.419 1120.92 326.414V326.414Z" fill="#BE3226"/>
<path d="M1148.22 310.92C1148.23 309.242 1147.89 307.579 1147.21 306.026C1146.54 304.472 1145.55 303.06 1144.29 301.87C1143.04 300.68 1141.55 299.735 1139.91 299.091C1138.26 298.446 1136.5 298.114 1134.72 298.114H999.751C999.586 300.236 999.496 302.322 999.496 304.478C999.493 311.009 1000.3 317.516 1001.91 323.868H1134.75C1136.53 323.868 1138.29 323.536 1139.94 322.891C1141.58 322.246 1143.07 321.301 1144.33 320.11C1145.58 318.919 1146.57 317.506 1147.25 315.952C1147.92 314.398 1148.26 312.733 1148.25 311.055L1148.22 310.92Z" fill="#FF9A51"/>
<path d="M1113.06 357.811H1020.1C1027.72 366.37 1037.11 373.373 1047.7 378.388H1113.09C1114.52 378.383 1115.93 378.112 1117.25 377.592C1118.56 377.072 1119.76 376.313 1120.76 375.357C1121.77 374.402 1122.56 373.269 1123.1 372.024C1123.64 370.778 1123.92 369.445 1123.91 368.099C1123.92 366.751 1123.64 365.416 1123.1 364.168C1122.56 362.921 1121.76 361.787 1120.75 360.832C1119.74 359.876 1118.55 359.117 1117.23 358.599C1115.91 358.08 1114.49 357.812 1113.06 357.811V357.811Z" fill="#FF9A51"/>
<path d="M1129.02 263.125H1011.15C1008.06 268.179 1005.54 273.526 1003.65 279.078H1128.99C1130.09 279.074 1131.19 278.864 1132.21 278.46C1133.23 278.057 1134.15 277.468 1134.93 276.728C1135.71 275.987 1136.32 275.109 1136.74 274.144C1137.16 273.178 1137.37 272.145 1137.37 271.102V271.102C1137.38 269.001 1136.5 266.981 1134.94 265.486C1133.37 263.991 1131.24 263.142 1129.02 263.125V263.125Z" fill="#FF9A51"/>
<path d="M1133.61 235.342C1119.54 226.601 1103.07 221.942 1086.22 221.942C1069.38 221.942 1052.9 226.601 1038.83 235.342H1133.61Z" fill="#FF9A51"/>
<path d="M1127.58 231.94H1055.6C1052.9 231.952 1050.31 232.975 1048.4 234.787C1046.5 236.598 1045.44 239.049 1045.45 241.6V241.664C1045.44 244.21 1046.51 246.653 1048.42 248.458C1050.32 250.264 1052.9 251.284 1055.6 251.295H1152.54C1145.57 243.432 1137.1 236.868 1127.58 231.94V231.94Z" fill="#D54F31"/>
<path opacity="0.2" d="M1041.09 309.082C1058.51 309.082 1072.63 295.649 1072.63 279.078C1072.63 262.507 1058.51 249.074 1041.09 249.074C1023.67 249.074 1009.55 262.507 1009.55 279.078C1009.55 295.649 1023.67 309.082 1041.09 309.082Z" fill="white"/>
<path d="M1086.18 387.355C1134.07 387.355 1172.9 350.411 1172.9 304.839C1172.9 259.267 1134.07 222.323 1086.18 222.323C1038.28 222.323 999.449 259.267 999.449 304.839C999.449 350.411 1038.28 387.355 1086.18 387.355Z" fill="url(#paint7_linear)"/>
<path d="M824.726 236.459C822.702 238.439 802.602 239.719 802.602 239.719C802.602 239.719 830.274 258.614 830.394 260.615C830.596 263.875 822.462 264.009 822.462 264.009L843.349 271.957C843.859 272.127 844.368 272.275 844.901 272.417C850.521 273.871 856.523 273.172 861.599 270.471C866.675 267.77 870.415 263.287 872.003 257.998C872.792 255.389 873.024 252.659 872.685 249.965C872.347 247.271 871.446 244.666 870.033 242.303C868.62 239.94 866.724 237.865 864.455 236.198C862.186 234.531 859.589 233.305 856.814 232.591C855.547 232.266 853.005 231.933 853.005 231.933L823.189 230.618C823.189 230.618 826.6 234.635 824.726 236.459Z" fill="white"/>
<path d="M833.724 241.84C832.329 243.205 818.512 244.11 818.512 244.11C818.512 244.11 834.736 256.768 834.811 258.14C834.946 260.374 832.119 260.714 832.119 260.714L846.454 266.123C846.799 266.236 847.151 266.343 847.511 266.434C851.375 267.419 855.495 266.934 858.984 265.082C862.472 263.231 865.051 260.161 866.164 256.535C866.709 254.75 866.873 252.881 866.644 251.037C866.415 249.192 865.799 247.409 864.832 245.792C863.865 244.174 862.565 242.755 861.01 241.616C859.454 240.478 857.674 239.643 855.773 239.16C854.903 238.941 853.156 238.715 853.156 238.715L832.666 237.866C832.666 237.866 835.013 240.575 833.724 241.84Z" fill="#FF4800"/>
<path d="M833.724 241.84C832.329 243.205 818.512 244.11 818.512 244.11C818.512 244.11 834.736 256.768 834.811 258.14C834.946 260.374 832.119 260.714 832.119 260.714L846.454 266.123C846.799 266.236 847.151 266.343 847.511 266.434C851.375 267.419 855.495 266.934 858.984 265.082C862.472 263.231 865.051 260.161 866.164 256.535C866.709 254.75 866.873 252.881 866.644 251.037C866.415 249.192 865.799 247.409 864.832 245.792C863.865 244.174 862.565 242.755 861.01 241.616C859.454 240.478 857.674 239.643 855.773 239.16C854.903 238.941 853.156 238.715 853.156 238.715L832.666 237.866C832.666 237.866 835.013 240.575 833.724 241.84Z" fill="#2BD0FA"/>
<path d="M862.525 247.129C863.727 249.107 864.28 251.376 864.113 253.65C863.945 255.923 863.066 258.099 861.586 259.901C860.106 261.702 858.091 263.049 855.799 263.769C853.506 264.489 851.038 264.551 848.708 263.946C846.378 263.342 844.291 262.098 842.712 260.373C841.133 258.648 840.132 256.519 839.837 254.257C839.542 251.995 839.967 249.701 841.056 247.667C842.145 245.632 843.851 243.949 845.956 242.83C847.343 242.085 848.872 241.606 850.456 241.419C852.039 241.232 853.647 241.342 855.185 241.741C856.724 242.14 858.164 242.822 859.424 243.746C860.683 244.671 861.737 245.82 862.525 247.129V247.129Z" fill="#2A69A8" stroke="#2A69A8" stroke-width="4.23529"/>
<path d="M732.172 185.672C730.591 187.214 715.004 188.169 715.004 188.169C715.004 188.169 736.431 202.863 736.521 204.433C736.671 206.964 730.366 207.056 730.366 207.056L746.552 213.244C746.942 213.378 747.339 213.498 747.752 213.604C752.107 214.742 756.762 214.209 760.703 212.123C764.643 210.037 767.55 206.566 768.789 202.467C769.402 200.445 769.584 198.329 769.326 196.241C769.067 194.152 768.372 192.133 767.281 190.299C766.19 188.465 764.725 186.853 762.97 185.557C761.215 184.26 759.205 183.305 757.056 182.745C756.073 182.483 754.102 182.222 754.102 182.222L730.973 181.14C730.973 181.14 733.627 184.265 732.172 185.672Z" fill="white"/>
<path d="M739.137 189.852C738.049 190.906 727.336 191.591 727.336 191.591C727.336 191.591 739.894 201.435 739.969 202.495C740.066 204.228 737.869 204.49 737.869 204.49L748.98 208.732C749.25 208.824 749.52 208.902 749.797 208.973C752.794 209.744 755.992 209.373 758.702 207.941C761.412 206.508 763.416 204.128 764.282 201.315C764.709 199.931 764.839 198.482 764.665 197.051C764.491 195.62 764.016 194.236 763.269 192.979C762.521 191.723 761.516 190.62 760.311 189.735C759.106 188.849 757.727 188.199 756.253 187.822C755.578 187.646 754.228 187.469 754.228 187.469L738.342 186.762C738.342 186.762 740.134 188.883 739.137 189.852Z" fill="#2BD0FA"/>
<path d="M761.464 194.01C762.391 195.544 762.815 197.304 762.68 199.065C762.546 200.827 761.86 202.511 760.71 203.904C759.56 205.298 757.997 206.338 756.219 206.892C754.441 207.446 752.529 207.49 750.725 207.019C748.92 206.547 747.305 205.58 746.084 204.241C744.863 202.903 744.091 201.252 743.866 199.499C743.64 197.746 743.972 195.969 744.819 194.394C745.665 192.818 746.989 191.516 748.621 190.651C749.698 190.075 750.885 189.706 752.113 189.563C753.342 189.42 754.588 189.507 755.781 189.819C756.974 190.131 758.09 190.662 759.065 191.381C760.04 192.1 760.855 192.993 761.464 194.01V194.01Z" fill="#2A69A8" stroke="#2A69A8" stroke-width="4.23529"/>
<path d="M418.159 708.239H1053.92C1055.66 708.239 1057.34 708.892 1058.57 710.055C1059.8 711.218 1060.5 712.796 1060.5 714.44V726.059H410.242V715.699C410.242 714.719 410.447 713.748 410.845 712.842C411.243 711.937 411.826 711.114 412.561 710.421C413.297 709.728 414.17 709.179 415.13 708.805C416.091 708.43 417.12 708.238 418.159 708.239V708.239Z" fill="#7A8889"/>
<path d="M792.452 459.44C789.303 459.404 798.532 463.046 794.843 463.046L782.706 481.898C779.414 484.331 777.562 487.619 777.562 491.049V735.223H838.027V472.402C838.012 462.763 830.508 459.822 792.452 459.44Z" fill="#9AA4A5"/>
<path d="M831.18 481.227C831.142 479.346 829.058 477.826 826.494 477.826H784.397C781.788 477.826 779.681 479.381 779.681 481.298V502.512C779.645 502.675 779.628 502.841 779.629 503.007V503.113C779.628 503.861 779.925 504.583 780.461 505.135V505.135C781.137 505.769 781.977 506.225 782.899 506.455C783.82 506.686 784.789 506.685 785.709 506.451H826.404C829.005 506.451 831.12 504.902 831.12 502.979V482.005C831.181 481.75 831.201 481.488 831.18 481.227V481.227ZM789.105 484.763H812.069L789.105 496.48V484.763ZM821.756 488.298V499.528H799.744L821.756 488.298Z" fill="#7A8889"/>
<path d="M861.484 508.911C861.484 507.03 859.363 505.51 856.791 505.51H814.694C807.28 505.107 809.979 507.065 809.979 508.982V530.196C809.946 530.359 809.929 530.525 809.926 530.691C809.926 530.726 809.926 530.761 809.926 530.797C809.926 531.504 807.752 531.985 808.337 532.6L808.172 532.805C809.379 534.085 804.896 534.021 816.074 534.163H856.769C859.37 534.163 861.477 532.607 861.477 530.691V509.689C861.517 509.431 861.519 509.169 861.484 508.911V508.911ZM819.41 512.447H842.367L819.44 524.164L819.41 512.447ZM852.06 515.947V527.176H830.049L852.06 515.947Z" fill="#7A8889"/>
<path d="M831.18 537.38C831.142 535.499 829.058 533.979 826.494 533.979H784.397C781.788 533.979 779.681 535.535 779.681 537.451V558.665C779.645 558.828 779.628 558.994 779.629 559.16V559.266C779.628 560.013 779.925 560.732 780.461 561.281V561.281C781.137 561.915 781.978 562.37 782.898 562.602C783.819 562.834 784.788 562.835 785.709 562.604H826.404C829.006 562.604 831.12 561.048 831.12 559.132V538.13C831.178 537.884 831.198 537.632 831.18 537.38V537.38ZM789.105 540.916H812.069L789.105 552.626V540.916ZM821.756 544.416V555.646H799.744L821.756 544.416Z" fill="#7A8889"/>
<path d="M861.484 563.318C861.484 561.43 859.363 559.917 856.791 559.917H814.694C812.093 559.917 809.979 561.466 809.979 563.389V584.568C809.946 584.731 809.928 584.897 809.926 585.063C809.926 585.063 809.926 585.133 809.926 585.169C809.926 585.876 807.565 586.286 808.142 586.901L807.542 586.831C808.749 588.11 799.228 588.549 816.074 588.535H856.769C859.37 588.535 861.477 586.979 861.477 585.063V564.089C861.517 563.834 861.519 563.574 861.484 563.318ZM819.41 566.854H842.366L819.44 578.571L819.41 566.854ZM852.06 570.39V581.619H830.049L852.06 570.39Z" fill="#7A8889"/>
<path d="M830.683 592.014C830.683 590.126 828.562 588.612 825.998 588.612H783.893C781.292 588.612 779.178 590.161 779.178 592.084V613.298C779.145 613.462 779.127 613.627 779.125 613.793C779.125 613.793 779.125 613.864 779.125 613.899C779.121 614.647 779.419 615.367 779.957 615.915V615.915C780.637 616.555 781.483 617.014 782.411 617.246C783.34 617.479 784.316 617.475 785.243 617.237H825.938C828.539 617.237 830.653 615.681 830.653 613.765V592.784C830.704 592.53 830.715 592.271 830.683 592.014ZM788.609 595.549H811.573L788.609 607.259V595.549ZM821.259 599.05V610.258H799.248L821.259 599.05Z" fill="#7A8889"/>
<path d="M830.683 613.687C830.683 611.806 828.562 610.286 825.998 610.286H783.893C781.292 610.286 779.178 611.842 779.178 613.758V634.937C779.145 635.1 779.127 635.266 779.125 635.432C779.125 635.432 779.125 635.503 779.125 635.538C779.121 636.285 779.419 637.006 779.957 637.553V637.553C780.637 638.193 781.483 638.653 782.411 638.885C783.34 639.117 784.316 639.114 785.243 638.876H825.938C828.539 638.876 830.653 637.32 830.653 635.404V614.501C830.708 614.233 830.718 613.958 830.683 613.687V613.687ZM788.609 617.223H811.573L788.609 628.933V617.223ZM821.259 620.723V631.953H799.247L821.259 620.723Z" fill="#7A8889"/>
<path d="M830.683 635.361C830.683 633.48 828.562 631.96 825.998 631.96H783.893C781.292 631.96 779.178 633.516 779.178 635.432V656.611C779.145 656.774 779.128 656.94 779.125 657.106C779.125 657.106 779.125 657.176 779.125 657.212C779.121 657.961 779.418 658.684 779.957 659.234V659.234C780.637 659.874 781.484 660.333 782.412 660.564C783.34 660.795 784.317 660.79 785.243 660.549H825.938C828.539 660.549 830.653 659.001 830.653 657.077V636.139C830.704 635.883 830.715 635.621 830.683 635.361V635.361ZM788.609 638.897H811.573L788.609 650.614V638.897ZM821.259 642.433V653.662H799.248L821.259 642.433Z" fill="#7A8889"/>
<path d="M830.683 657.042C830.683 655.154 828.562 653.641 825.998 653.641H783.893C781.292 653.641 779.178 655.189 779.178 657.106V678.32C779.145 678.483 779.127 678.649 779.125 678.815C779.125 678.85 779.125 678.885 779.125 678.921C779.121 679.668 779.419 680.388 779.957 680.936V680.936C780.637 681.576 781.483 682.036 782.411 682.268C783.34 682.5 784.316 682.497 785.243 682.259H825.938C828.539 682.259 830.653 680.703 830.653 678.786V657.813C830.704 657.559 830.715 657.299 830.683 657.042V657.042ZM788.609 660.578H811.573L788.609 672.295V660.578ZM821.259 664.113V675.314H799.248L821.259 664.113Z" fill="#7A8889"/>
<path d="M830.683 684.663C830.683 682.782 828.562 681.262 825.998 681.262H783.893C781.292 681.262 779.178 682.817 779.178 684.734V705.912C779.145 706.076 779.127 706.241 779.125 706.407C779.125 706.407 779.125 706.478 779.125 706.514C779.121 707.261 779.419 707.981 779.957 708.529V708.529C780.637 709.169 781.483 709.628 782.411 709.86C783.34 710.093 784.316 710.089 785.243 709.851H825.938C828.539 709.851 830.653 708.296 830.653 706.379V685.441C830.704 685.185 830.715 684.922 830.683 684.663V684.663ZM788.609 688.199H811.573L788.609 699.909V688.199ZM821.259 691.699V702.928H799.248L821.259 691.699Z" fill="#7A8889"/>
<path d="M862.415 502.66H790.712C790.675 502.66 790.645 502.689 790.645 502.724V506.153C790.645 506.189 790.675 506.217 790.712 506.217H862.415C862.452 506.217 862.483 506.189 862.483 506.153V502.724C862.483 502.689 862.452 502.66 862.415 502.66Z" fill="#B7C3C4"/>
<path d="M860.951 557.399H789.113V560.242H860.951V557.399Z" fill="#B7C3C4"/>
<path d="M761.207 465.451L738.858 481.899C735.567 484.331 733.715 487.619 733.715 491.049V733.596H794.18V472.402C794.18 466.907 799.098 461.462 793.43 459.468C793.4 459.468 772.205 457.248 761.207 465.451Z" fill="#9AA4A5"/>
<path d="M779.926 463.259L754.6 481.899C751.309 484.331 749.457 487.62 749.457 491.049V733.597H809.922V472.402C809.922 460.876 790.992 455.106 779.926 463.259Z" fill="#B7C3C4"/>
<path d="M752.368 684.274V687.166C752.359 687.401 752.4 687.636 752.487 687.856C752.574 688.076 752.706 688.278 752.876 688.45C753.046 688.622 753.25 688.761 753.477 688.859C753.704 688.956 753.949 689.011 754.198 689.019V689.019C754.7 689.001 755.173 688.795 755.515 688.448C755.856 688.101 756.038 687.64 756.02 687.166V684.274C756.029 684.038 755.988 683.802 755.9 683.581C755.812 683.36 755.678 683.157 755.507 682.985C755.335 682.813 755.129 682.674 754.901 682.578C754.672 682.481 754.426 682.428 754.175 682.421V682.421C753.676 682.443 753.206 682.65 752.868 682.997C752.53 683.344 752.35 683.803 752.368 684.274V684.274Z" fill="#9AA4A5"/>
<path d="M752.368 675.081V677.973C752.359 678.208 752.4 678.443 752.487 678.663C752.574 678.883 752.706 679.085 752.876 679.257C753.046 679.429 753.25 679.568 753.477 679.666C753.704 679.763 753.949 679.818 754.198 679.826V679.826C754.7 679.808 755.173 679.602 755.515 679.255C755.856 678.908 756.038 678.447 756.02 677.973V675.081C756.029 674.845 755.988 674.61 755.9 674.388C755.812 674.167 755.678 673.965 755.507 673.792C755.335 673.62 755.129 673.482 754.901 673.385C754.672 673.288 754.426 673.235 754.175 673.229V673.229C753.676 673.251 753.206 673.458 752.868 673.804C752.53 674.151 752.35 674.61 752.368 675.081V675.081Z" fill="#9AA4A5"/>
<path d="M796.999 466.094H800.066C800.568 466.112 801.056 465.94 801.425 465.618C801.793 465.296 802.011 464.849 802.03 464.376V464.376C802.021 464.141 801.964 463.911 801.86 463.697C801.756 463.483 801.609 463.291 801.427 463.132C801.244 462.972 801.03 462.848 800.796 462.767C800.563 462.685 800.315 462.648 800.066 462.658H796.999C796.75 462.649 796.501 462.687 796.267 462.77C796.033 462.852 795.818 462.978 795.636 463.139C795.453 463.3 795.306 463.493 795.203 463.708C795.1 463.923 795.043 464.155 795.035 464.39V464.39C795.059 464.861 795.278 465.304 795.646 465.623C796.014 465.942 796.5 466.112 796.999 466.094Z" fill="#EA3D34"/>
<path d="M782.129 476.404L764.713 489.055C761.227 491.586 759.067 494.945 758.64 498.537C758.502 499.695 758.434 500.859 758.438 502.024V515.834C758.451 514.244 758.812 512.674 759.5 511.222C760.188 509.77 761.187 508.468 762.434 507.398L783.426 490.702C790.286 485.272 805.37 488.022 805.37 498.643V484.833C805.423 474.212 790.728 468.887 782.129 476.404Z" fill="#9AA4A5"/>
<path d="M809.619 519.9H796.994C796.38 519.903 795.784 520.097 795.299 520.452L764.036 543.498C763.608 543.814 763.08 543.986 762.537 543.985H750.713C750.482 543.987 750.261 544.075 750.098 544.23C749.935 544.385 749.844 544.595 749.844 544.813V544.813C749.843 544.921 749.865 545.029 749.908 545.129C749.951 545.229 750.015 545.32 750.096 545.397C750.177 545.474 750.273 545.535 750.379 545.577C750.485 545.619 750.599 545.64 750.713 545.64H763.039C763.824 545.637 764.586 545.388 765.206 544.933L796.281 522.022C796.695 521.718 797.204 521.554 797.728 521.555H809.619C809.843 521.555 810.059 521.474 810.221 521.327C810.383 521.181 810.479 520.982 810.489 520.77V520.77C810.496 520.658 810.479 520.546 810.438 520.441C810.398 520.336 810.335 520.239 810.253 520.158C810.172 520.076 810.073 520.012 809.964 519.967C809.855 519.923 809.738 519.9 809.619 519.9V519.9Z" fill="#9AA4A5" stroke="#9AA4A5" stroke-width="3.38824" stroke-miterlimit="10"/>
<path d="M809.619 539.544H796.994C796.38 539.546 795.784 539.74 795.299 540.096L764.036 563.141C763.608 563.458 763.08 563.63 762.537 563.629H750.713C750.482 563.631 750.261 563.719 750.098 563.874C749.935 564.029 749.844 564.238 749.844 564.456V564.456C749.843 564.565 749.865 564.672 749.908 564.772C749.951 564.873 750.015 564.964 750.096 565.041C750.177 565.118 750.273 565.179 750.379 565.221C750.485 565.262 750.599 565.284 750.713 565.284H763.039C763.824 565.28 764.586 565.032 765.206 564.577L796.281 541.665C796.695 541.362 797.204 541.197 797.728 541.199H809.619C809.843 541.199 810.059 541.117 810.221 540.971C810.383 540.825 810.479 540.625 810.489 540.414V540.414C810.496 540.302 810.479 540.19 810.438 540.085C810.398 539.979 810.335 539.883 810.253 539.801C810.172 539.72 810.073 539.655 809.964 539.611C809.855 539.566 809.738 539.544 809.619 539.544V539.544Z" fill="#9AA4A5" stroke="#9AA4A5" stroke-width="3.38824" stroke-miterlimit="10"/>
<path d="M795.233 628.014H792.519C787.173 628.014 782.84 632.101 782.84 637.143V679.076C782.84 684.118 787.173 688.205 792.519 688.205H795.233C800.578 688.205 804.912 684.118 804.912 679.076V637.143C804.912 632.101 800.578 628.014 795.233 628.014Z" fill="#9AA4A5"/>
<path d="M896.521 700.969V683.786C895.771 681.247 896.521 666.348 861.989 666.348C827.457 666.348 828.169 681.247 827.449 683.786V700.969H896.521Z" fill="#DD9864"/>
<path d="M842.77 561.465V700.983H881.178V561.465C881.04 559.746 880.534 558.071 879.69 556.542C878.846 555.013 877.682 553.661 876.267 552.57V510.318C879.266 508.791 881.193 506.252 881.193 503.388V447.617C880.788 440.064 872.353 415.399 862.007 415.399C851.661 415.399 843.219 440.064 842.822 447.617V503.657C842.822 506.535 844.779 509.067 847.748 510.58V552.555C846.316 553.64 845.135 554.991 844.279 556.524C843.423 558.056 842.909 559.738 842.77 561.465V561.465Z" fill="#FFE1DC"/>
<path d="M842.77 561.465V700.983H881.178V561.465C881.04 559.746 880.534 558.071 879.69 556.542C878.846 555.013 877.682 553.661 876.267 552.57V510.318C879.266 508.791 881.193 506.252 881.193 503.388V447.617C880.788 440.064 872.353 415.399 862.007 415.399C851.661 415.399 843.219 440.064 842.822 447.617V503.657C842.822 506.535 844.779 509.067 847.748 510.58V552.555C846.316 553.64 845.135 554.991 844.279 556.524C843.423 558.056 842.909 559.738 842.77 561.465V561.465Z" fill="#FFF4F3"/>
<path d="M842.77 646.421V668.173C842.773 668.337 842.814 668.498 842.89 668.646H880.998C881.113 668.472 881.175 668.272 881.178 668.066V646.421C881.175 646.395 881.175 646.369 881.178 646.343H842.829C842.829 646.343 842.77 646.393 842.77 646.421Z" fill="#6BA6CE"/>
<path d="M842.77 561.466V564.874H881.178V561.466C881.178 561.218 881.133 560.971 881.103 560.723H842.867C842.807 560.957 842.777 561.204 842.77 561.466Z" fill="#E58880"/>
<path d="M842.77 448.267V451.676H881.178V448.267C881.178 448.02 881.133 447.772 881.103 447.56H842.867C842.807 447.772 842.777 448.02 842.77 448.267Z" fill="#E58880"/>
<path d="M861.422 394.624L857.336 435.496L864.908 435.694C865.463 435.694 866.018 435.694 866.565 435.694L861.954 394.681L861.422 394.624Z" fill="#FFF4F3"/>
<path d="M880.407 506.387H843.355C844.24 508.168 845.721 509.626 847.569 510.538H876.231V510.318C878.022 509.449 879.482 508.075 880.407 506.387V506.387Z" fill="#AAAAAA"/>
<path d="M876.239 552.556H847.675C846.274 553.691 845.103 555.057 844.219 556.586H879.695C878.811 555.057 877.64 553.691 876.239 552.556V552.556Z" fill="#AAAAAA"/>
<path d="M875.074 569.881V573.282C875.074 573.554 875.189 573.815 875.393 574.007C875.596 574.199 875.873 574.307 876.161 574.307V574.307C876.447 574.304 876.72 574.194 876.92 574.002C877.121 573.81 877.233 573.551 877.233 573.282V569.888C877.234 569.754 877.207 569.621 877.154 569.497C877.101 569.374 877.022 569.261 876.922 569.166C876.823 569.07 876.704 568.995 876.574 568.943C876.443 568.89 876.303 568.863 876.161 568.862V568.862C876.019 568.861 875.878 568.887 875.746 568.938C875.614 568.989 875.494 569.063 875.393 569.158C875.292 569.253 875.212 569.365 875.157 569.489C875.102 569.613 875.074 569.746 875.074 569.881V569.881Z" fill="#AAAAAA"/>
<path d="M846.77 569.881V573.282C846.77 573.554 846.884 573.815 847.088 574.007C847.292 574.199 847.568 574.307 847.857 574.307V574.307C848.143 574.304 848.417 574.194 848.618 574.002C848.82 573.811 848.934 573.552 848.936 573.282V569.888C848.936 569.617 848.823 569.357 848.621 569.165C848.418 568.973 848.144 568.864 847.857 568.862V568.862C847.714 568.861 847.573 568.887 847.441 568.938C847.309 568.989 847.189 569.063 847.088 569.158C846.987 569.253 846.907 569.365 846.852 569.489C846.798 569.613 846.77 569.746 846.77 569.881V569.881Z" fill="#AAAAAA"/>
<path d="M881.154 675.675H842.746V679.826H881.154V675.675Z" fill="#E58880"/>
<path opacity="0.34" d="M854.54 419.494C847.912 426.749 843.174 441.656 842.777 447.433C842.777 447.497 842.777 447.553 842.777 447.61V503.672C842.777 506.55 844.733 509.081 847.702 510.594V552.556C845.062 554.604 843.335 557.515 842.867 560.709V560.709C842.867 560.957 842.807 561.204 842.799 561.452V668.519C834.852 670.513 828.255 675.315 827.438 683.984V702.044L842.799 700.969L854.592 700.425L854.54 419.494Z" fill="#1E5B7A"/>
<path d="M972.936 598.842L968.07 595.757L937.178 639.102L942.043 642.187L972.936 598.842Z" fill="#606D6D"/>
<path d="M972.936 636.939L968.07 633.854L937.178 677.2L942.043 680.285L972.936 636.939Z" fill="#606D6D"/>
<path d="M972.932 675.188L968.066 672.103L937.174 715.449L942.039 718.534L972.932 675.188Z" fill="#606D6D"/>
<path d="M978.425 573.678C978.425 571.499 976.552 569.732 974.242 569.732C971.932 569.732 970.059 571.499 970.059 573.678V721.922C970.059 724.101 971.932 725.867 974.242 725.867C976.552 725.867 978.425 724.101 978.425 721.922V573.678Z" fill="#7C8B8C"/>
<path d="M942.39 586.873C942.39 584.693 940.517 582.927 938.207 582.927C935.896 582.927 934.023 584.693 934.023 586.873V721.914C934.023 724.093 935.896 725.86 938.207 725.86C940.517 725.86 942.39 724.093 942.39 721.914V586.873Z" fill="#7C8B8C"/>
<path d="M956.837 590.062L940.074 599.743C936.715 601.687 934.631 604.261 934.211 607.005C934.084 607.891 934.022 608.784 934.023 609.678V620.285C934.023 617.86 935.41 615.54 937.877 613.829L958.119 601.044C964.732 596.886 979.277 598.993 979.277 607.125V596.518C979.307 588.379 965.129 584.306 956.837 590.062Z" fill="#9AA4A5"/>
<path d="M956.271 560.61L939.507 570.291C936.141 572.235 934.056 574.809 933.644 577.56C933.515 578.443 933.45 579.334 933.449 580.226V598.852C933.449 596.426 934.836 594.107 937.303 592.389L957.545 579.611C964.158 575.453 978.702 577.553 978.702 585.692V567.066C978.732 558.927 964.563 554.854 956.271 560.61Z" fill="#9AA4A5"/>
<path d="M956.271 628.113L939.507 637.836C936.141 639.781 934.056 642.348 933.644 645.099C933.515 645.984 933.45 646.877 933.449 647.772V658.379C933.449 655.953 934.836 653.634 937.303 651.922L957.545 639.137C964.158 634.98 978.702 637.08 978.702 645.219V634.612C978.732 626.437 964.563 622.364 956.271 628.113Z" fill="#9AA4A5"/>
<path d="M956.271 666.525L939.507 676.213C936.141 678.15 934.056 680.724 933.644 683.475C933.515 684.358 933.45 685.249 933.449 686.141V696.748C933.449 694.329 934.836 692.003 937.303 690.292L957.545 677.507C964.158 673.349 978.702 675.456 978.702 683.588V672.981C978.732 664.849 964.563 660.776 956.271 666.525Z" fill="#9AA4A5"/>
<path d="M956.271 704.936L939.507 714.617C936.141 716.561 934.056 719.128 933.644 721.879C933.515 722.765 933.45 723.658 933.449 724.552V735.124C934.139 735.081 937.475 735.124 937.475 735.124L959.764 735.548H978.732V711.378C978.732 703.253 964.563 699.18 956.271 704.936Z" fill="#9AA4A5"/>
<path d="M720.064 700.871H912.899C914.835 700.871 916.752 701.23 918.54 701.929C920.328 702.628 921.953 703.652 923.322 704.942C924.69 706.233 925.776 707.766 926.517 709.453C927.258 711.139 927.639 712.947 927.639 714.773V737.91H704.223V715.841C704.223 711.87 705.895 708.063 708.871 705.255C711.848 702.448 715.885 700.871 720.094 700.871H720.064Z" fill="#9AA4A5"/>
<path d="M744.266 706.747H743.682C742.116 706.747 740.848 707.943 740.848 709.42V714.285C740.848 715.761 742.116 716.958 743.682 716.958H744.266C745.831 716.958 747.1 715.761 747.1 714.285V709.42C747.1 707.943 745.831 706.747 744.266 706.747Z" fill="#7A8889"/>
<path d="M765.266 706.089H764.682C763.116 706.089 761.848 707.286 761.848 708.762V713.627C761.848 715.103 763.116 716.3 764.682 716.3H765.266C766.832 716.3 768.1 715.103 768.1 713.627V708.762C768.1 707.286 766.832 706.089 765.266 706.089Z" fill="#7A8889"/>
<path d="M811.477 706.747H810.893C809.327 706.747 808.059 707.943 808.059 709.42V714.285C808.059 715.761 809.327 716.958 810.893 716.958H811.477C813.043 716.958 814.311 715.761 814.311 714.285V709.42C814.311 707.943 813.043 706.747 811.477 706.747Z" fill="#7A8889"/>
<path d="M860.192 706.747H859.607C858.042 706.747 856.773 707.943 856.773 709.42V714.285C856.773 715.761 858.042 716.958 859.607 716.958H860.192C861.757 716.958 863.026 715.761 863.026 714.285V709.42C863.026 707.943 861.757 706.747 860.192 706.747Z" fill="#7A8889"/>
<path d="M908.309 706.747H907.725C906.159 706.747 904.891 707.943 904.891 709.42V714.285C904.891 715.761 906.159 716.958 907.725 716.958H908.309C909.875 716.958 911.143 715.761 911.143 714.285V709.42C911.143 707.943 909.875 706.747 908.309 706.747Z" fill="#7A8889"/>
<path d="M836.708 706.747H836.123C834.558 706.747 833.289 707.943 833.289 709.42V714.285C833.289 715.761 834.558 716.958 836.123 716.958H836.708C838.273 716.958 839.542 715.761 839.542 714.285V709.42C839.542 707.943 838.273 706.747 836.708 706.747Z" fill="#7A8889"/>
<path d="M787.868 706.747H787.283C785.718 706.747 784.449 707.943 784.449 709.42V714.285C784.449 715.761 785.718 716.958 787.283 716.958H787.868C789.433 716.958 790.702 715.761 790.702 714.285V709.42C790.702 707.943 789.433 706.747 787.868 706.747Z" fill="#7A8889"/>
<path d="M883.68 706.747H883.096C881.531 706.747 880.262 707.943 880.262 709.42V714.285C880.262 715.761 881.531 716.958 883.096 716.958H883.68C885.246 716.958 886.514 715.761 886.514 714.285V709.42C886.514 707.943 885.246 706.747 883.68 706.747Z" fill="#7A8889"/>
<path d="M417.155 720.26H1052.23C1054.42 720.26 1056.52 721.079 1058.07 722.538C1059.61 723.997 1060.48 725.975 1060.48 728.038V738.065H410.242V726.751C410.25 725.027 410.982 723.376 412.277 722.159C413.573 720.943 415.326 720.26 417.155 720.26Z" fill="#9AA4A5"/>
<path opacity="0.48" d="M775.594 357.336C775.594 354.581 776.752 351.937 778.815 349.986C780.879 348.035 783.678 346.935 786.6 346.927L1064.87 346.22C1066.32 346.217 1067.76 346.483 1069.11 347.004C1070.45 347.526 1071.67 348.292 1072.7 349.259C1073.72 350.226 1074.54 351.375 1075.1 352.639C1075.65 353.904 1075.94 355.26 1075.94 356.629V356.629C1075.93 359.384 1074.76 362.022 1072.69 363.967C1070.62 365.911 1067.82 367.003 1064.9 367.003H1031.35C1028.42 367.003 1025.61 368.1 1023.54 370.052C1021.47 372.004 1020.31 374.651 1020.31 377.412V385.389C1020.31 388.149 1021.47 390.797 1023.54 392.749C1025.61 394.701 1028.42 395.798 1031.35 395.798H1141.82C1144.74 395.798 1147.55 396.894 1149.62 398.846C1151.69 400.798 1152.85 403.446 1152.85 406.207C1152.85 408.967 1151.69 411.615 1149.62 413.567C1147.55 415.519 1144.74 416.616 1141.82 416.616H947.932C945.004 416.616 942.196 415.519 940.125 413.567C938.055 411.615 936.89 408.968 936.888 406.207C936.89 403.445 938.055 400.798 940.125 398.846C942.196 396.894 945.004 395.798 947.932 395.798H959.927C962.849 395.79 965.648 394.69 967.711 392.739C969.774 390.788 970.933 388.144 970.933 385.389V377.483C970.933 376.112 970.646 374.755 970.089 373.49C969.531 372.224 968.714 371.075 967.685 370.107C966.655 369.14 965.433 368.374 964.089 367.854C962.745 367.333 961.305 367.068 959.852 367.074L786.667 367.745C785.214 367.751 783.775 367.486 782.431 366.965C781.087 366.445 779.866 365.679 778.837 364.711C777.808 363.744 776.992 362.595 776.435 361.329C775.879 360.063 775.593 358.707 775.594 357.336V357.336Z" fill="#E8E3CA"/>
</g>
<defs>
<linearGradient id="paint0_linear" x1="720.004" y1="765.106" x2="720.004" y2="0" gradientUnits="userSpaceOnUse">
<stop offset="0.09" stop-color="#FFFBD9"/>
<stop offset="0.14" stop-color="#F9F9D9" stop-opacity="0.97"/>
<stop offset="0.21" stop-color="#E9F3D9" stop-opacity="0.88"/>
<stop offset="0.3" stop-color="#CEE9D9" stop-opacity="0.73"/>
<stop offset="0.4" stop-color="#AADBD9" stop-opacity="0.53"/>
<stop offset="0.51" stop-color="#7BC9D8" stop-opacity="0.28"/>
<stop offset="0.63" stop-color="#48B6D8" stop-opacity="0"/>
</linearGradient>
<linearGradient id="paint1_linear" x1="719.742" y1="0.731516" x2="719.742" y2="735.014" gradientUnits="userSpaceOnUse">
<stop stop-color="#155381" stop-opacity="0.83"/>
<stop offset="0.14" stop-color="#1A5985" stop-opacity="0.8"/>
<stop offset="0.3" stop-color="#276992" stop-opacity="0.7"/>
<stop offset="0.46" stop-color="#3D85A6" stop-opacity="0.53"/>
<stop offset="0.62" stop-color="#5DACC3" stop-opacity="0.3"/>
<stop offset="0.78" stop-color="#85DFE8" stop-opacity="0"/>
</linearGradient>
<linearGradient id="paint2_linear" x1="1134.27" y1="738.115" x2="1134.27" y2="599.312" gradientUnits="userSpaceOnUse">
<stop offset="0.32" stop-color="#FBEDDA"/>
<stop offset="0.57" stop-color="#F8E7BA"/>
<stop offset="0.98" stop-color="#F1DB7B"/>
</linearGradient>
<linearGradient id="paint3_linear" x1="370.456" y1="739.368" x2="370.456" y2="600.564" gradientUnits="userSpaceOnUse">
<stop offset="0.32" stop-color="#FBEDDA"/>
<stop offset="0.57" stop-color="#F8E7BA"/>
<stop offset="0.98" stop-color="#F1DB7B"/>
</linearGradient>
<linearGradient id="paint4_linear" x1="720.004" y1="711.845" x2="720.004" y2="765.106" gradientUnits="userSpaceOnUse">
<stop stop-color="#FFFDFA" stop-opacity="0.03"/>
<stop offset="0.01" stop-color="#FFE9C3" stop-opacity="0.38"/>
<stop offset="0.02" stop-color="#FEE1AC" stop-opacity="0.53"/>
<stop offset="0.03" stop-color="#FED998" stop-opacity="0.66"/>
<stop offset="0.04" stop-color="#FED387" stop-opacity="0.77"/>
<stop offset="0.05" stop-color="#FECE79" stop-opacity="0.85"/>
<stop offset="0.06" stop-color="#FECB6F" stop-opacity="0.92"/>
<stop offset="0.08" stop-color="#FEC867" stop-opacity="0.97"/>
<stop offset="0.1" stop-color="#FEC663" stop-opacity="0.99"/>
<stop offset="0.16" stop-color="#FEC662"/>
</linearGradient>
<linearGradient id="paint5_linear" x1="1131.79" y1="723.449" x2="1131.9" y2="626.268" gradientUnits="userSpaceOnUse">
<stop offset="0.32" stop-color="#ECE68E"/>
<stop offset="0.65" stop-color="#F5D36E"/>
<stop offset="0.98" stop-color="#FFBC48"/>
</linearGradient>
<linearGradient id="paint6_linear" x1="424.797" y1="720.95" x2="424.721" y2="623.734" gradientUnits="userSpaceOnUse">
<stop offset="0.32" stop-color="#ECE68E"/>
<stop offset="0.65" stop-color="#F5D36E"/>
<stop offset="0.98" stop-color="#FFBC48"/>
</linearGradient>
<linearGradient id="paint7_linear" x1="1086.18" y1="387.348" x2="1086.18" y2="222.323" gradientUnits="userSpaceOnUse">
<stop stop-color="#7EC3CE"/>
<stop offset="0.08" stop-color="#7FC4CF" stop-opacity="0.94"/>
<stop offset="0.21" stop-color="#81C5D3" stop-opacity="0.79"/>
<stop offset="0.4" stop-color="#84C8D8" stop-opacity="0.55"/>
<stop offset="0.61" stop-color="#88CCE0" stop-opacity="0.21"/>
<stop offset="0.74" stop-color="#8BCFE5" stop-opacity="0"/>
</linearGradient>
<clipPath id="clip0">
<rect width="1440" height="765.741" fill="white"/>
</clipPath>
</defs>
</svg>
