<svg width="174" height="166" viewBox="0 0 174 166" fill="none" xmlns="http://www.w3.org/2000/svg">
<path d="M86.7742 165.031C134.672 165.031 173.502 128.088 173.502 82.5156C173.502 36.9435 134.672 0 86.7742 0C38.876 0 0.046875 36.9435 0.046875 82.5156C0.046875 128.088 38.876 165.031 86.7742 165.031Z" fill="#FF9A51"/>
<path d="M8.54688 46.8548H164.998C158.141 33.265 147.479 21.6998 134.162 13.4072H39.3828C26.0666 21.6998 15.4044 33.265 8.54688 46.8548Z" fill="#E9633B"/>
<path d="M2.04688 64.8586H171.483C170.312 59.7457 168.628 54.7497 166.453 49.938H7.07755C4.90252 54.7497 3.21799 59.7457 2.04688 64.8586V64.8586Z" fill="#FC8245"/>
<path d="M0.046875 82.5156C0.0510543 85.5558 0.226198 88.5937 0.571642 91.6164H173.007C174.031 82.6789 173.525 73.6442 171.508 64.8584H2.07108C0.732612 70.6595 0.0540627 76.5787 0.046875 82.5156V82.5156Z" fill="#FF9A51"/>
<path d="M48.2227 156.439C60.1919 162.09 73.3923 165.031 86.7769 165.031C100.161 165.031 113.362 162.09 125.331 156.439H48.2227Z" fill="#FF9A51"/>
<path d="M0.457031 90.6196C1.69457 102.79 5.7812 114.549 12.4219 125.048C19.0626 135.548 28.0917 144.526 38.8577 151.334H134.687C145.457 144.528 154.49 135.551 161.135 125.051C167.78 114.552 171.87 102.791 173.11 90.6196H0.457031Z" fill="#FC8245"/>
<path d="M14.8699 128.656H158.688C162.017 123.967 164.825 118.967 167.07 113.736H6.48047C8.72485 118.969 11.5363 123.969 14.8699 128.656Z" fill="#D54F31"/>
<path d="M121.467 104.479H82.4814C81.2349 104.484 80.0017 104.72 78.852 105.174C77.7023 105.629 76.6587 106.292 75.7808 107.127C74.903 107.961 74.2079 108.951 73.7355 110.039C73.2631 111.126 73.0225 112.292 73.0274 113.467V113.467C73.0225 114.643 73.2631 115.808 73.7355 116.896C74.2079 117.984 74.903 118.973 75.7808 119.808C76.6587 120.642 77.7023 121.306 78.852 121.76C80.0017 122.214 81.2349 122.45 82.4814 122.455H121.467C122.713 122.45 123.946 122.214 125.095 121.76C126.244 121.305 127.287 120.642 128.165 119.807C129.042 118.973 129.736 117.983 130.208 116.895C130.679 115.807 130.919 114.642 130.913 113.467V113.467C130.919 112.292 130.679 111.127 130.208 110.039C129.736 108.951 129.042 107.962 128.165 107.127C127.287 106.292 126.244 105.629 125.095 105.175C123.946 104.72 122.713 104.484 121.467 104.479V104.479Z" fill="#BE3226"/>
<path d="M148.768 88.9859C148.779 87.3079 148.438 85.6443 147.765 84.0911C147.092 82.5378 146.099 81.1254 144.845 79.9352C143.591 78.745 142.1 77.8005 140.457 77.156C138.814 76.5114 137.053 76.1797 135.274 76.1797H0.301764C0.136826 78.3011 0.0468854 80.3871 0.0468854 82.5439C0.0435201 89.074 0.853752 95.5819 2.46096 101.934H135.303C137.083 101.934 138.845 101.602 140.489 100.957C142.132 100.312 143.624 99.3665 144.878 98.1755C146.132 96.9846 147.124 95.5714 147.797 94.0173C148.47 92.4632 148.81 90.7989 148.798 89.1203L148.768 88.9859Z" fill="#FF9A51"/>
<path d="M113.614 135.876H20.6484C28.2692 144.436 37.6625 151.438 48.253 156.454H113.644C115.07 156.448 116.482 156.178 117.797 155.657C119.113 155.137 120.307 154.378 121.312 153.423C122.317 152.467 123.112 151.334 123.652 150.089C124.193 148.844 124.468 147.51 124.462 146.165C124.468 144.817 124.192 143.481 123.649 142.234C123.107 140.987 122.309 139.853 121.301 138.897C120.294 137.941 119.096 137.182 117.777 136.664C116.457 136.146 115.043 135.878 113.614 135.876V135.876Z" fill="#FF9A51"/>
<path d="M129.567 41.1909H11.6964C8.60761 46.2442 6.09455 51.5916 4.19922 57.1439H129.537C130.643 57.1393 131.737 56.9293 132.756 56.5259C133.776 56.1225 134.701 55.5337 135.48 54.793C136.258 54.0523 136.874 53.1743 137.293 52.2091C137.711 51.2438 137.924 50.2103 137.919 49.1674V49.1674C137.929 47.0662 137.056 45.0468 135.49 43.5517C133.925 42.0567 131.795 41.2077 129.567 41.1909V41.1909Z" fill="#FF9A51"/>
<path d="M134.162 13.4072C120.095 4.66611 103.618 0.00732422 86.7725 0.00732422C69.9266 0.00732422 53.4505 4.66611 39.3828 13.4072H134.162Z" fill="#FF9A51"/>
<path d="M128.128 10.0059H56.1549C53.45 10.0171 50.8605 11.0409 48.9556 12.8522C47.0507 14.6635 45.9862 17.1141 45.9962 19.6653V19.729C45.9942 22.2754 47.0622 24.7187 48.9662 26.5239C50.8703 28.3291 53.4552 29.349 56.1549 29.3602H153.086C146.118 21.4979 137.654 14.9337 128.128 10.0059V10.0059Z" fill="#D54F31"/>
<path opacity="0.2" d="M41.6384 87.1472C59.0578 87.1472 73.179 73.714 73.179 57.1434C73.179 40.5728 59.0578 27.1396 41.6384 27.1396C24.219 27.1396 10.0977 40.5728 10.0977 57.1434C10.0977 73.714 24.219 87.1472 41.6384 87.1472Z" fill="white"/>
<path d="M86.7275 165.42C134.626 165.42 173.455 128.476 173.455 82.9043C173.455 37.3322 134.626 0.388672 86.7275 0.388672C38.8292 0.388672 0 37.3322 0 82.9043C0 128.476 38.8292 165.42 86.7275 165.42Z" fill="url(#paint0_linear)"/>
<defs>
<linearGradient id="paint0_linear" x1="86.7274" y1="165.413" x2="86.7274" y2="0.388672" gradientUnits="userSpaceOnUse">
<stop stop-color="#7EC3CE"/>
<stop offset="0.08" stop-color="#7FC4CF" stop-opacity="0.94"/>
<stop offset="0.21" stop-color="#81C5D3" stop-opacity="0.79"/>
<stop offset="0.4" stop-color="#84C8D8" stop-opacity="0.55"/>
<stop offset="0.61" stop-color="#88CCE0" stop-opacity="0.21"/>
<stop offset="0.74" stop-color="#8BCFE5" stop-opacity="0"/>
</linearGradient>
</defs>
</svg>
