<svg width="70" height="308" viewBox="0 0 70 308" fill="none" xmlns="http://www.w3.org/2000/svg">
<path d="M15.3359 166.841V306.359H53.744V166.841C53.6068 165.122 53.1008 163.447 52.2567 161.918C51.4126 160.389 50.248 159.037 48.8334 157.946V115.694C51.8322 114.167 53.759 111.628 53.759 108.764V52.9925C53.3541 45.4403 44.9198 20.7754 34.5737 20.7754C24.2276 20.7754 15.7857 45.4403 15.3884 52.9925V109.033C15.3884 111.911 17.3452 114.443 20.3141 115.956V157.931C18.8824 159.016 17.7019 160.367 16.8456 161.9C15.9894 163.432 15.4755 165.114 15.3359 166.841Z" fill="#FFE1DC"/>
<path d="M69.0834 306.345V289.162C68.3336 286.623 69.0833 271.724 34.5512 271.724C0.0191746 271.724 0.731449 286.623 0.0117188 289.162V306.345H69.0834Z" fill="#DD9864"/>
<path d="M15.3359 166.841V306.359H53.744V166.841C53.6068 165.122 53.1008 163.447 52.2567 161.918C51.4126 160.389 50.248 159.037 48.8334 157.946V115.694C51.8322 114.167 53.759 111.628 53.759 108.764V52.9925C53.3541 45.4403 44.9198 20.7754 34.5737 20.7754C24.2276 20.7754 15.7857 45.4403 15.3884 52.9925V109.033C15.3884 111.911 17.3452 114.443 20.3141 115.956V157.931C18.8824 159.016 17.7019 160.367 16.8456 161.9C15.9894 163.432 15.4755 165.114 15.3359 166.841Z" fill="#FFF4F3"/>
<path d="M15.3359 251.797V273.549C15.3392 273.713 15.3802 273.874 15.4559 274.022H53.5642C53.6795 273.848 53.7417 273.648 53.7441 273.442V251.797C53.7412 251.771 53.7412 251.745 53.7441 251.719H15.3959C15.3959 251.719 15.3359 251.769 15.3359 251.797Z" fill="#6BA6CE"/>
<path d="M15.3359 166.842V170.25H53.7441V166.842C53.7441 166.594 53.6991 166.347 53.6691 166.099H15.4334C15.3734 166.332 15.3434 166.58 15.3359 166.842Z" fill="#E58880"/>
<path d="M15.3359 53.6432V57.0515H53.7441V53.6432C53.7441 53.3957 53.6991 53.1482 53.6691 52.936H15.4334C15.3734 53.1482 15.3434 53.3957 15.3359 53.6432Z" fill="#E58880"/>
<path d="M33.9844 0L29.8984 40.8724L37.4706 41.0704C38.0254 41.0704 38.5801 41.0704 39.1274 41.0704L34.5166 0.0565829L33.9844 0Z" fill="#FFF4F3"/>
<path d="M52.9729 111.763H15.9219C16.8069 113.544 18.2871 115.002 20.1353 115.914H48.797V115.694C50.5883 114.825 52.0479 113.451 52.9729 111.763Z" fill="#AAAAAA"/>
<path d="M48.8017 157.932H20.2374C18.8369 159.067 17.666 160.433 16.7812 161.962H52.2579C51.3732 160.433 50.2022 159.067 48.8017 157.932Z" fill="#AAAAAA"/>
<path d="M47.6367 175.257V178.658C47.6367 178.93 47.7512 179.191 47.9551 179.383C48.159 179.575 48.4355 179.683 48.7238 179.683C49.0095 179.679 49.2821 179.57 49.4827 179.378C49.6834 179.186 49.7958 178.927 49.7958 178.658V175.264C49.7968 175.13 49.7699 174.997 49.7166 174.873C49.6632 174.75 49.5845 174.637 49.4849 174.542C49.3854 174.446 49.267 174.371 49.1364 174.318C49.0058 174.266 48.8656 174.239 48.7238 174.238C48.5814 174.237 48.4402 174.263 48.3083 174.314C48.1765 174.365 48.0566 174.439 47.9556 174.534C47.8545 174.629 47.7744 174.741 47.7196 174.865C47.6649 174.989 47.6367 175.122 47.6367 175.257Z" fill="#AAAAAA"/>
<path d="M19.332 175.257V178.658C19.332 178.93 19.4466 179.191 19.6505 179.383C19.8544 179.575 20.1309 179.683 20.4192 179.683C20.7056 179.68 20.9791 179.57 21.1809 179.378C21.3827 179.187 21.4968 178.928 21.4987 178.658V175.264C21.4987 174.993 21.3853 174.733 21.183 174.541C20.9807 174.349 20.7062 174.24 20.4192 174.238C20.2768 174.237 20.1355 174.263 20.0037 174.314C19.8718 174.365 19.7519 174.439 19.6509 174.534C19.5498 174.629 19.4697 174.741 19.4149 174.865C19.3602 174.989 19.332 175.122 19.332 175.257Z" fill="#AAAAAA"/>
<path d="M53.7206 281.051H15.3125V285.202H53.7206V281.051Z" fill="#E58880"/>
<path opacity="0.34" d="M27.1023 24.8701C20.4747 32.1253 15.7366 47.0317 15.3392 52.809C15.3392 52.8727 15.3392 52.9293 15.3392 52.9858V109.048C15.3392 111.926 17.2959 114.457 20.2648 115.97V157.932C17.6242 159.98 15.8979 162.891 15.4292 166.085C15.4292 166.333 15.3692 166.58 15.3617 166.828V273.895C7.41471 275.889 0.817193 280.691 0 289.36V307.42L15.3617 306.345L27.1548 305.801L27.1023 24.8701Z" fill="#1E5B7A"/>
</svg>
