<svg width="146" height="38" viewBox="0 0 146 38" fill="none" xmlns="http://www.w3.org/2000/svg">
<g clip-path="url(#clip0)">
<path d="M40.2104 12.7888C40.4809 13.7934 40.6356 14.7594 40.6743 15.6868C40.7128 16.2277 40.7322 16.7879 40.7322 17.3675C40.7708 17.9471 40.7902 18.5073 40.7902 19.0482C40.7902 19.5892 40.7902 20.1301 40.7902 20.671C40.7902 21.212 40.7515 21.7529 40.6743 22.2938C40.6356 22.7575 40.5969 23.2211 40.5583 23.6848C40.5196 24.1485 40.4616 24.5928 40.3843 25.0178C40.191 25.7905 39.959 26.5247 39.6884 27.2202C39.4179 27.9156 39.0699 28.5918 38.6447 29.2487C38.5673 29.4033 38.4707 29.5578 38.3547 29.7124C38.2388 29.8283 38.1421 29.9442 38.0647 30.0601C37.8715 30.2919 37.6588 30.5238 37.4269 30.7555C37.2336 30.9874 37.021 31.1999 36.789 31.3931C36.3251 31.8182 35.7646 32.2238 35.1073 32.6102C34.3341 33.0739 33.5996 33.4602 32.9038 33.7694C32.5559 33.9626 32.1886 34.1364 31.8021 34.2909C31.454 34.4068 31.0868 34.542 30.7002 34.6966C30.3523 34.8126 30.0044 34.9479 29.6565 35.1023C29.3085 35.2183 28.9606 35.3342 28.6126 35.4501C27.4528 35.8751 26.2931 36.2615 25.1333 36.6093C24.0123 36.9569 22.8718 37.3047 21.7121 37.6524C21.5187 37.7298 21.3255 37.7878 21.1321 37.8263C20.9775 37.865 20.8036 37.923 20.6102 38.0002L19.5665 37.6524C18.6773 37.382 17.8075 37.1308 16.9569 36.8991C16.1064 36.6286 15.256 36.3388 14.4055 36.0297C13.7483 35.8364 13.0911 35.624 12.4339 35.3921C11.8153 35.1603 11.1775 34.9285 10.5203 34.6966C9.97905 34.4648 9.43782 34.2523 8.8966 34.0591C8.39403 33.8272 7.87214 33.5568 7.33091 33.2478C6.94432 33.0545 6.55774 32.842 6.17114 32.6102C5.78456 32.3784 5.4173 32.1273 5.06936 31.8567C4.48948 31.3931 3.98691 30.9294 3.56167 30.4658C3.36837 30.2726 3.19441 30.0794 3.03977 29.8862C2.92379 29.6931 2.78849 29.4998 2.63386 29.3066C2.24726 28.6498 1.91866 28.0315 1.64805 27.4521C1.53207 27.1429 1.4161 26.8338 1.30012 26.5247C1.18414 26.2156 1.08749 25.8872 1.01018 25.5394C0.932859 25.2303 0.87487 24.9405 0.836212 24.67C0.797552 24.3609 0.758894 24.0519 0.720234 23.7428C0.604258 22.97 0.52694 22.2166 0.488281 21.4825C0.488281 20.7483 0.488281 19.9948 0.488281 19.2221C0.488281 18.6812 0.488281 18.1209 0.488281 17.5414C0.488281 16.9618 0.50761 16.4016 0.546269 15.8605C0.662246 14.7787 0.836212 13.7548 1.06816 12.7888C1.14548 12.4025 1.24213 12.0354 1.3581 11.6877C1.51274 11.3013 1.66738 10.9342 1.82202 10.5865C2.01531 10.2388 2.2086 9.89101 2.40189 9.54326C2.5952 9.19553 2.82715 8.8671 3.09776 8.558C3.63899 7.90114 4.19954 7.3409 4.77943 6.87724C5.01138 6.68404 5.224 6.51017 5.4173 6.35562C5.64925 6.20107 5.90053 6.04652 6.17114 5.89196C6.5964 5.6215 7.02164 5.38966 7.44689 5.19648C7.87214 4.96466 8.29738 4.75215 8.72263 4.55895C9.37984 4.24985 10.0177 3.97938 10.6363 3.74756C11.2548 3.51572 11.8927 3.30321 12.5498 3.11003C13.7096 2.68501 14.8693 2.29862 16.0292 1.95087C17.189 1.5645 18.3681 1.19744 19.5665 0.849694L20.6102 0.501953C20.8036 0.579228 20.9775 0.637185 21.1321 0.675822C21.3255 0.714462 21.5187 0.77242 21.7121 0.849694C22.9105 1.19744 24.0896 1.5645 25.2493 1.95087C26.4091 2.29862 27.5882 2.68501 28.7866 3.11003C29.1345 3.22593 29.4824 3.36117 29.8304 3.51572C30.2169 3.63164 30.5843 3.74756 30.9322 3.86346C31.3188 4.01801 31.6861 4.17256 32.034 4.32713C32.3819 4.48168 32.7491 4.65554 33.1357 4.84874C33.9475 5.23511 34.682 5.64082 35.3393 6.06584C35.7259 6.29766 36.1318 6.58745 36.5571 6.93519C37.2142 7.47613 37.7942 8.07502 38.2966 8.73186C38.7606 9.31143 39.1472 9.94896 39.4565 10.6444C39.7658 11.3013 40.017 12.0161 40.2104 12.7888ZM38.6447 22.1779C38.6833 21.7916 38.7026 21.4051 38.7026 21.0188C38.7026 20.6324 38.7026 20.2267 38.7026 19.8017V17.4254C38.664 17.0004 38.6447 16.5947 38.6447 16.2083C38.6447 15.822 38.606 15.4355 38.5287 15.0492C38.4513 14.7015 38.374 14.3537 38.2966 14.006C38.2581 13.6582 38.2001 13.3298 38.1228 13.0207C37.8907 12.1706 37.5428 11.3593 37.079 10.5865C36.6923 10.0069 36.3251 9.54326 35.9771 9.19551C35.8226 9.04096 35.6679 8.90573 35.5132 8.78982C35.3973 8.6739 35.262 8.558 35.1073 8.44208C34.9141 8.24888 34.7014 8.07502 34.4695 7.92047C34.2376 7.76592 34.0056 7.63068 33.7737 7.51476C33.503 7.36021 33.2517 7.22498 33.0198 7.10906C32.7878 6.95451 32.5366 6.81928 32.2659 6.70337C32.034 6.58745 31.7827 6.47153 31.512 6.35562C31.2415 6.2397 30.9709 6.1238 30.7002 6.00788C30.0817 5.73741 29.4438 5.50558 28.7866 5.31239C28.1681 5.08056 27.5302 4.84874 26.873 4.61691C25.9065 4.3078 24.9401 4.01801 23.9736 3.74756C23.0457 3.43844 22.0987 3.12934 21.1321 2.82024L20.6102 2.64636C20.5329 2.68501 20.3783 2.74297 20.1463 2.82024C19.1026 3.12934 18.0588 3.45776 17.015 3.8055C15.9712 4.11462 14.9467 4.44303 13.9416 4.79078C13.439 4.98397 12.9558 5.15784 12.4918 5.31239C12.028 5.46695 11.5447 5.64082 11.0422 5.83401C10.8102 5.91129 10.5589 6.00788 10.2883 6.1238C10.0564 6.20107 9.82442 6.29766 9.59245 6.41358C8.85794 6.72268 8.08476 7.12839 7.27292 7.63068C7.04097 7.78523 6.78969 7.9591 6.51907 8.15229C6.28712 8.30684 6.0745 8.48072 5.8812 8.6739C5.72656 8.78982 5.59125 8.90573 5.47528 9.02165C5.3593 9.13757 5.24333 9.25347 5.12735 9.36939C4.58612 9.91033 4.1802 10.4899 3.90959 11.1081C3.63899 11.6104 3.42636 12.1127 3.27172 12.6149C3.11709 13.0786 2.98178 13.581 2.86581 14.1219C2.71117 14.9719 2.61452 15.822 2.57586 16.672C2.57586 17.5221 2.57586 18.3721 2.57586 19.2221C2.57586 19.9948 2.57586 20.7483 2.57586 21.4825C2.61452 22.1779 2.67251 22.9121 2.74983 23.6848C2.82715 24.1871 2.92379 24.6894 3.03977 25.1917C3.19441 25.6553 3.36837 26.1383 3.56167 26.6406C3.79362 27.1815 4.08356 27.7225 4.43149 28.2634C4.77943 28.7657 5.18535 29.2294 5.64925 29.6544C6.03583 30.0022 6.44175 30.3112 6.867 30.5816C7.29225 30.8522 7.73682 31.1227 8.20074 31.3931C8.62598 31.6249 9.07056 31.8567 9.53447 32.0886C10.037 32.2817 10.5396 32.475 11.0422 32.6682C11.6994 32.9386 12.3179 33.1898 12.8978 33.4216C13.5164 33.6148 14.1542 33.808 14.8115 34.0011C15.7005 34.3103 16.5897 34.6001 17.4789 34.8705C18.3681 35.141 19.2572 35.4114 20.1463 35.6819C20.3783 35.7592 20.5329 35.7979 20.6102 35.7979C20.7262 35.7979 20.9002 35.7592 21.1321 35.6819C22.0987 35.3729 23.0457 35.0831 23.9736 34.8126C24.9401 34.5035 25.9065 34.1944 26.873 33.8852C27.3756 33.692 27.8588 33.5182 28.3227 33.3637C28.8253 33.1704 29.3279 32.9772 29.8304 32.7841C30.9902 32.3591 32.0726 31.8954 33.0777 31.3931C33.5416 31.1227 33.9862 30.8522 34.4115 30.5816C34.8754 30.2726 35.3007 29.9442 35.6872 29.5964C35.8805 29.4033 36.0738 29.21 36.2672 29.0168C36.4604 28.785 36.6344 28.5532 36.789 28.3213C37.0597 27.9736 37.2722 27.6065 37.4269 27.2202C37.6202 26.8338 37.7942 26.4475 37.9487 26.061C38.3353 24.8633 38.5673 23.5689 38.6447 22.1779ZM34.9334 10.2388C35.0107 10.316 35.0686 10.3933 35.1073 10.4706C35.1846 10.5092 35.262 10.5672 35.3393 10.6444C35.8032 11.2627 36.1512 11.9388 36.3831 12.6729C36.6538 13.3684 36.847 14.1026 36.963 14.8753C37.079 15.6094 37.1369 16.3436 37.1369 17.0777C37.1756 17.8119 37.1949 18.5267 37.1949 19.2221C37.1949 19.9176 37.1756 20.6518 37.1369 21.4245C37.1369 22.1586 37.079 22.9121 36.963 23.6848C36.847 24.4189 36.6538 25.1531 36.3831 25.8872C36.1512 26.5827 35.8032 27.2395 35.3393 27.8578C34.7594 28.5918 33.9862 29.2294 33.0198 29.7703V26.2929C33.0198 26.2929 33.0584 26.2349 33.1357 26.119C33.4064 25.7712 33.6383 25.3655 33.8317 24.902C33.9089 24.6314 33.9862 24.3609 34.0636 24.0905C34.1409 23.82 34.1989 23.5302 34.2376 23.2211C34.3535 22.5643 34.4115 21.9075 34.4115 21.2506C34.4501 20.5551 34.4695 19.8789 34.4695 19.2221C34.4695 18.9902 34.4695 18.7584 34.4695 18.5267C34.4695 18.2562 34.4501 17.9856 34.4115 17.7152L32.6718 21.4825L30.2363 15.1651V31.1612C29.8497 31.3158 29.4244 31.4704 28.9606 31.6249C28.5354 31.7795 28.0521 31.9534 27.5108 32.1465V6.29766C28.6319 6.68404 29.5404 7.03179 30.2363 7.3409L32.9618 14.4696L34.9334 10.2388ZM23.3937 4.96464C23.8962 5.11921 24.3602 5.27376 24.7854 5.42831C25.2493 5.58286 25.6939 5.71809 26.1192 5.83401V32.6682C25.3846 32.9386 24.4762 33.2284 23.3937 33.5376V12.5571L20.6102 19.5698L17.8848 12.5571V33.5376C16.8797 33.267 15.9519 32.9773 15.1014 32.6682V5.83401C15.5266 5.71809 15.9712 5.58286 16.4351 5.42831C16.8989 5.27376 17.3822 5.11921 17.8848 4.96464L20.6102 12.0354L23.3937 4.96464ZM10.9842 7.3409C11.796 6.99315 12.7239 6.64541 13.7676 6.29766V32.1465C13.2264 31.9534 12.7239 31.7795 12.2599 31.6249C11.8347 31.4704 11.4094 31.3158 10.9842 31.1612V15.1651L8.60666 21.4825L6.80901 17.7152V19.2221C6.80901 19.8789 6.80901 20.5551 6.80901 21.2506C6.84767 21.9075 6.90566 22.5643 6.98298 23.2211C7.0603 23.5302 7.11829 23.82 7.15695 24.0905C7.23427 24.3609 7.33091 24.6314 7.44689 24.902C7.56287 25.327 7.77548 25.7327 8.08476 26.119C8.12342 26.2349 8.1814 26.2929 8.25872 26.2929V29.7703C7.29225 29.2294 6.51907 28.5918 5.93919 27.8578C4.97272 26.6212 4.41217 25.2303 4.25752 23.6848C4.10289 22.1006 4.02557 20.6131 4.02557 19.2221C4.02557 18.5267 4.02557 17.8119 4.02557 17.0777C4.06423 16.3436 4.14155 15.6094 4.25752 14.8753C4.37351 14.1026 4.5668 13.3684 4.83741 12.6729C5.10802 11.9388 5.47528 11.2627 5.93919 10.6444C6.01651 10.5672 6.07449 10.5092 6.11316 10.4706C6.15182 10.3933 6.2098 10.316 6.28712 10.2388L8.31671 14.4696L10.9842 7.3409Z" fill="#272929"/>
<path d="M50.0859 14.4883V24.6832H52.1767V18.0227H52.2613L54.8997 24.6334H56.3233L58.9617 18.0476H59.0463V24.6832H61.137V14.4883H58.4788L55.6712 21.338H55.5518L52.7441 14.4883H50.0859Z" fill="#272929"/>
<path d="M72.001 19.5855C72.001 16.2503 69.9302 14.3486 67.2271 14.3486C64.5091 14.3486 62.4531 16.2503 62.4531 19.5855C62.4531 22.9057 64.5091 24.8224 67.2271 24.8224C69.9302 24.8224 72.001 22.9207 72.001 19.5855ZM69.8157 19.5855C69.8157 21.7459 68.7902 22.9157 67.2271 22.9157C65.659 22.9157 64.6385 21.7459 64.6385 19.5855C64.6385 17.425 65.659 16.2552 67.2271 16.2552C68.7902 16.2552 69.8157 17.425 69.8157 19.5855Z" fill="#272929"/>
<path d="M81.8438 14.4883H79.6982V20.9H79.6087L75.2081 14.4883H73.3164V24.6832H75.4719V18.2666H75.5465L79.982 24.6832H81.8438V14.4883Z" fill="#272929"/>
<path d="M92.7159 19.5855C92.7159 16.2503 90.645 14.3486 87.942 14.3486C85.2239 14.3486 83.168 16.2503 83.168 19.5855C83.168 22.9057 85.2239 24.8224 87.942 24.8224C90.645 24.8224 92.7159 22.9207 92.7159 19.5855ZM90.5305 19.5855C90.5305 21.7459 89.5051 22.9157 87.942 22.9157C86.3738 22.9157 85.3533 21.7459 85.3533 19.5855C85.3533 17.425 86.3738 16.2552 87.942 16.2552C89.5051 16.2552 90.5305 17.425 90.5305 19.5855Z" fill="#272929"/>
<path d="M100.791 17.7835H102.981C102.702 15.7674 100.925 14.3486 98.6204 14.3486C95.9273 14.3486 93.8516 16.29 93.8516 19.5955C93.8516 22.8211 95.7929 24.8224 98.6653 24.8224C101.239 24.8224 103.076 23.1945 103.076 20.5114V19.227H98.8097V20.8499H101C100.97 22.1143 100.109 22.9157 98.6753 22.9157C97.0573 22.9157 96.0369 21.7061 96.0369 19.5755C96.0369 17.4549 97.0972 16.2552 98.6553 16.2552C99.7654 16.2552 100.517 16.8276 100.791 17.7835Z" fill="#272929"/>
<path d="M104.414 24.6832H106.57V21.0692H108.143L110.074 24.6832H112.454L110.288 20.7207C111.448 20.2229 112.09 19.2125 112.09 17.8186C112.09 15.7925 110.751 14.4883 108.436 14.4883H104.414V24.6832ZM106.57 19.3369V16.2506H108.023C109.268 16.2506 109.87 16.8031 109.87 17.8186C109.87 18.8292 109.268 19.3369 108.033 19.3369H106.57Z" fill="#272929"/>
<path d="M115.091 24.6832L115.848 22.3586H119.526L120.283 24.6832H122.593L119.079 14.4883H116.301L112.781 24.6832H115.091ZM116.395 20.676L117.65 16.818H117.73L118.984 20.676H116.395Z" fill="#272929"/>
<path d="M123.539 14.4883V24.6832H125.63V18.0227H125.714L128.353 24.6334H129.777L132.414 18.0476H132.5V24.6832H134.591V14.4883H131.932L129.124 21.338H129.004L126.197 14.4883H123.539Z" fill="#272929"/>
<path d="M137.846 24.6832L138.602 22.3586H142.281L143.037 24.6832H145.347L141.832 14.4883H139.055L135.535 24.6832H137.846ZM139.15 20.676L140.404 16.818H140.484L141.739 20.676H139.15Z" fill="#272929"/>
</g>
<defs>
<clipPath id="clip0">
<rect width="145.306" height="37.4983" fill="white" transform="translate(0.0976562 0.501953)"/>
</clipPath>
</defs>
</svg>
