<svg width="144" height="38" viewBox="0 0 144 38" fill="none" xmlns="http://www.w3.org/2000/svg">
<g clip-path="url(#clip0)">
<path d="M66.1625 17.1135C65.3732 15.0088 63.7947 13.1672 61.8403 12.2276C60.4497 11.5136 58.9088 11.2129 57.5182 11.2129C56.1276 11.2129 54.6619 11.2881 53.0833 11.9646C50.9786 12.8666 49.4002 14.8585 49.4002 17.4142C49.4002 18.2786 49.7009 19.7444 50.415 20.6463C51.1666 21.6235 52.5196 22.3752 53.6847 22.8638C54.3236 23.1268 54.9626 23.2772 58.8337 24.3671C60.2618 24.7805 61.7651 25.0436 61.7651 26.2838C61.7651 26.8476 61.502 27.1859 60.9759 27.5617C60.3745 28.0128 58.9839 28.2382 58.2323 28.2382C56.8417 28.2382 55.4511 27.9 54.4363 26.8476C53.9102 26.2838 53.4591 25.2692 53.2337 24.3671L48.6484 25.5322C48.9491 26.9228 49.4378 28.3134 50.7908 29.8919C52.5948 31.9966 55.1504 32.6355 58.1196 32.6355C60.0739 32.6355 61.7276 32.3724 63.4564 31.2825C65.2228 30.2302 66.3503 28.2758 66.3503 26.2087C66.3503 22.8638 63.7947 20.7591 59.9611 19.7068L56.2028 18.6545C54.9626 18.3162 53.9854 18.0907 53.9854 17.2263C53.9854 16.2115 55.6391 15.535 57.2175 15.6102C59.0591 15.6853 60.6376 16.3994 61.3893 18.3162L66.1625 17.1135Z" fill="#272929"/>
<path d="M75.0027 15.7235H80.8656V11.7772H75.0027V6.13965H69.8913V11.7772H66.4336V15.7235H69.8913V23.4657C69.8913 25.9086 69.6657 28.0133 70.7932 29.667C71.8831 31.283 73.0483 31.8844 74.9274 32.2226C76.4307 32.4858 79.2872 32.5233 80.8656 32.0723V27.8253C79.7757 27.9757 78.5355 28.0509 77.5583 27.9757C76.7691 27.9006 75.9046 27.5999 75.4161 26.8106C74.9274 26.0589 75.0027 24.7435 75.0027 23.165V15.7235Z" fill="#272929"/>
<path d="M100.61 32.0718V19.9698C100.61 17.4142 99.9335 15.1216 97.9415 13.4303C96.4758 12.1901 94.2207 11.2129 92.0033 11.2129C88.3576 11.2129 85.7644 12.5283 83.6222 14.5578L86.5537 17.9404C87.8691 16.7752 89.6355 16.0236 91.6275 16.0236C93.9576 16.0236 95.1979 17.0759 95.5362 18.5416C92.8677 18.9176 88.5832 19.3686 86.0275 20.5336C83.4718 21.6988 82.457 23.7282 82.457 26.3591C82.457 30.155 85.0503 32.6355 89.147 32.6355C92.2664 32.6355 94.108 31.9215 96.1375 29.5913V32.0718H100.61ZM94.8596 26.0584C93.9576 27.4114 92.3416 28.3886 90.3872 28.3886C88.7335 28.3886 87.4933 27.3739 87.4933 25.9833C87.4933 24.6302 88.8839 23.9162 90.4248 23.5779C92.3416 23.1645 94.3335 22.751 95.5362 22.5256C95.5362 23.5779 95.5737 24.9685 94.8596 26.0584Z" fill="#272929"/>
<path d="M121.85 17.978C121.324 15.4975 119.896 13.6935 118.017 12.5659C116.288 11.5136 114.898 11.2129 112.718 11.2129C109.335 11.2129 106.968 12.3404 105.051 14.5954C103.36 16.5874 102.57 19.0679 102.57 21.9242C102.57 24.7054 103.322 27.1107 105.051 29.2906C106.855 31.5832 109.26 32.6355 112.643 32.6355C115.236 32.6355 116.739 32.222 118.544 30.9067C120.122 29.7415 121.324 27.8624 121.85 25.908L116.627 24.8181C116.363 25.6826 116.063 26.3591 115.349 26.998C114.597 27.6744 113.582 27.8624 112.643 27.8624C111.139 27.8624 109.937 27.261 109.11 26.1336C108.245 25.0061 107.982 23.4652 107.982 21.9242C107.982 20.3833 108.245 18.8048 109.11 17.6773C109.937 16.5498 111.139 15.986 112.643 15.986C113.582 15.986 114.484 16.2867 115.236 16.9256C116.025 17.5646 116.476 18.4289 116.739 19.331L121.85 17.978Z" fill="#272929"/>
<path d="M129.033 24.3297H131.438L136.7 32.0719H142.487L135.573 21.8867L141.999 11.7768H136.324L131.438 19.5189H129.033V5.01172H123.846L123.809 32.0719H129.033V24.3297Z" fill="#272929"/>
<path d="M36.9974 19.2937C38.0352 19.2937 38.8863 18.4503 38.7827 17.4177C38.4763 14.3639 37.4253 11.4213 35.7096 8.85359C33.6447 5.7633 30.7098 3.3547 27.2761 1.93241C23.8423 0.510095 20.0639 0.137955 16.4187 0.86304C12.7734 1.58813 9.42505 3.37787 6.79696 6.00595C4.16888 8.63402 2.37915 11.9824 1.65406 15.6277C0.92897 19.2729 1.30111 23.0513 2.72342 26.4851C4.14573 29.9187 6.55431 32.8537 9.64461 34.9186C12.2124 36.6342 15.1549 37.6852 18.2087 37.9917C19.2413 38.0952 20.0848 37.2442 20.0848 36.2064C20.0848 35.1685 19.2401 34.3393 18.2104 34.2098C15.9012 33.9197 13.6819 33.096 11.7326 31.7935C9.26041 30.1416 7.33354 27.7938 6.19568 25.0468C5.05785 22.2998 4.76013 19.2771 5.3402 16.3609C5.92026 13.4447 7.35206 10.766 9.45452 8.66351C11.557 6.56104 14.2357 5.12925 17.1519 4.54918C20.0681 3.96911 23.0908 4.26682 25.8378 5.40467C28.5848 6.54251 30.9327 8.46938 32.5846 10.9416C33.8871 12.8909 34.7107 15.1102 35.0009 17.4194C35.1304 18.4492 35.9595 19.2937 36.9974 19.2937Z" fill="#272929"/>
<path d="M24.4627 35.6298C24.7314 36.6323 25.7663 37.2361 26.7369 36.8687C29.164 35.9502 31.3812 34.5363 33.2436 32.7097C35.106 30.8831 36.5628 28.6937 37.5282 26.285C37.9143 25.3217 37.3308 24.2751 36.3337 23.9871C35.3366 23.6991 34.3056 24.2804 33.8955 25.2338C33.1253 27.0241 32.012 28.6534 30.612 30.0264C29.2121 31.3994 27.5614 32.481 25.7565 33.2162C24.7952 33.6077 24.1941 34.6273 24.4627 35.6298Z" fill="#272929"/>
<path d="M27.5062 19.2933C28.5958 19.2933 29.5 18.4004 29.2728 17.3347C29.0259 16.1758 28.5607 15.0682 27.8958 14.0732C26.8633 12.5281 25.396 11.3238 23.679 10.6127C21.9622 9.90154 20.073 9.71546 18.2503 10.078C16.4277 10.4405 14.7535 11.3354 13.4395 12.6495C12.1254 13.9634 11.2306 15.6377 10.868 17.4603C10.5055 19.2829 10.6916 21.1721 11.4027 22.889C12.1139 24.6059 13.3181 26.0733 14.8633 27.1058C15.8583 27.7707 16.9659 28.2359 18.1247 28.4828C19.1905 28.71 20.0834 27.8058 20.0834 26.7161C20.0834 25.6263 19.1722 24.7756 18.1531 24.3896C17.769 24.2442 17.4007 24.055 17.0558 23.8245C16.1596 23.2257 15.461 22.3747 15.0485 21.3788C14.6362 20.383 14.5283 19.2873 14.7385 18.2302C14.9487 17.1731 15.4678 16.2021 16.23 15.4399C16.9921 14.6778 17.9631 14.1588 19.0202 13.9484C20.0773 13.7382 21.1731 13.8461 22.1689 14.2586C23.1647 14.671 24.0158 15.3695 24.6146 16.2657C24.8451 16.6107 25.0342 16.979 25.1796 17.363C25.5656 18.3821 26.4164 19.2933 27.5062 19.2933Z" fill="#272929"/>
</g>
<defs>
<clipPath id="clip0">
<rect width="142.962" height="37.4983" fill="white" transform="translate(0.398438 0.501953)"/>
</clipPath>
</defs>
</svg>
