<svg width="159" height="38" viewBox="0 0 159 38" fill="none" xmlns="http://www.w3.org/2000/svg">
<g clip-path="url(#clip0)">
<path d="M15.5491 3.36719H0.402344V29.8125H15.5491C26.9705 29.8125 31.1051 23.5082 31.1051 16.508C31.1051 9.50774 27.5026 3.36719 15.5491 3.36719ZM15.4263 25.1047H5.88789V8.07494H15.4263C23.2861 8.07494 25.5377 12.0049 25.5377 16.508C25.5377 21.011 23.2861 25.1047 15.4263 25.1047Z" fill="#272929"/>
<path d="M43.505 0.501953H37.3235V5.16876H43.505V0.501953ZM52.3883 0.501953H46.2069V5.16876H52.3883V0.501953ZM44.856 30.304C52.5112 30.304 57.7102 26.6197 57.7102 19.7014C57.7102 12.824 52.5112 9.01685 44.856 9.01685C37.1598 9.01685 31.8789 12.824 31.8789 19.7014C31.8789 26.6197 37.1598 30.304 44.856 30.304ZM44.856 26.2104C40.5985 26.2104 37.2417 23.9179 37.2417 19.7014C37.2417 15.4849 40.6394 13.1105 44.856 13.1105C49.0724 13.1105 52.3066 15.5259 52.3066 19.7014C52.3066 23.9179 48.9907 26.2104 44.856 26.2104Z" fill="#272929"/>
<path d="M73.5145 9.0166C68.0699 9.0166 65.1224 11.6366 64.0171 15.4846V14.8706L63.7305 9.50784H58.6953V38H64.0171V23.3445C65.1633 27.0289 68.1108 30.3038 73.5145 30.3038C79.5323 30.3038 84.4038 26.1283 84.4038 19.7012C84.4038 13.3559 79.6141 9.0166 73.5145 9.0166ZM71.7951 26.1692C67.1692 26.1692 64.2219 23.7948 64.0171 20.1515V19.2508C64.2628 15.3618 67.5376 13.1513 71.7951 13.1513C76.3392 13.1513 78.9591 15.7712 78.9591 19.7012C78.9591 23.6311 76.1345 26.1692 71.7951 26.1692Z" fill="#272929"/>
<path d="M100.194 9.0166C94.7496 9.0166 91.8021 11.6366 90.6968 15.4846V14.8706L90.4102 9.50784H85.375V38H90.6968V23.3445C91.843 27.0289 94.7905 30.3038 100.194 30.3038C106.212 30.3038 111.083 26.1283 111.083 19.7012C111.083 13.3559 106.294 9.0166 100.194 9.0166ZM98.4748 26.1692C93.8489 26.1692 90.9016 23.7948 90.6968 20.1515V19.2508C90.9424 15.3618 94.2173 13.1513 98.4748 13.1513C103.019 13.1513 105.639 15.7712 105.639 19.7012C105.639 23.6311 102.814 26.1692 98.4748 26.1692Z" fill="#272929"/>
<path d="M112.586 1.32031V29.8124H117.908V1.32031H112.586Z" fill="#272929"/>
<path d="M138.969 23.058C138.314 24.982 135.898 26.2511 132.5 26.2511C127.916 26.2511 125.173 23.8358 124.805 20.4789H144.209C144.536 12.7418 140.443 9.0166 132.5 9.0166C124.6 9.0166 119.441 13.0285 119.441 19.7012C119.441 26.4558 124.846 30.3038 132.623 30.3038C139.542 30.3038 143.39 27.2745 144.086 23.058H138.969ZM132.214 13.0694C136.225 13.0694 138.601 14.7887 138.928 17.5724H125.05C125.746 14.9934 128.284 13.0694 132.214 13.0694Z" fill="#272929"/>
<path d="M150.501 15.6074V9.50784H145.18V29.8126H150.501V18.7187C151.197 17.2858 153.367 13.8881 158.32 13.8881V9.0166C153.49 9.0166 151.279 13.1103 150.501 15.6074Z" fill="#272929"/>
</g>
<defs>
<clipPath id="clip0">
<rect width="158.196" height="37.4983" fill="white" transform="translate(0.402344 0.501953)"/>
</clipPath>
</defs>
</svg>
