<svg width="135" height="38" viewBox="0 0 135 38" fill="none" xmlns="http://www.w3.org/2000/svg">
<g clip-path="url(#clip0)">
<path d="M27.3984 4.21094H31.5233L33.6794 11.4106L35.8543 4.21094H39.9604V17.2978H36.9418V9.70443L34.8044 17.2978H32.6482L30.4171 9.70443V17.2978H27.3984V4.21094Z" fill="#272929"/>
<path d="M42.2109 4.21094V17.2978H45.2296V4.21094H42.2109Z" fill="#272929"/>
<path d="M48.8905 17.2978H54.7215L56.5214 15.4979V10.4169H51.9841V13.0042H53.4841V14.7104H50.1467V6.79832H53.4841V8.67323H56.5214V5.9921L54.7403 4.21094H48.8718L47.1094 5.97336V15.5166L48.8905 17.2978Z" fill="#272929"/>
<path d="M56.8047 17.2978H59.9733L60.7233 14.7292H65.0543L65.8043 17.2978H68.9916L64.8856 4.21094H60.892L56.8047 17.2978ZM61.5107 12.1418L62.8982 7.54828L64.2668 12.1418H61.5107Z" fill="#272929"/>
<path d="M72.6592 14.7104V4.21094H69.6406V17.2978H77.534V14.7104H72.6592Z" fill="#272929"/>
<path d="M80.164 17.2978H85.995L87.7949 15.4979V6.01085L85.995 4.21094H80.1452L78.3828 5.97336V15.5166L80.164 17.2978ZM81.4014 14.7104V6.79832H84.7575V14.7104H81.4014Z" fill="#272929"/>
<path d="M91.078 17.2978H96.909L98.7089 15.4979V6.01085L96.909 4.21094H91.0593L89.2969 5.97336V15.5166L91.078 17.2978ZM92.3155 14.7104V6.79832H95.6716V14.7104H92.3155Z" fill="#272929"/>
<path d="M27.3984 36.0469H35.0293L36.8105 34.2469V30.6471L35.5543 29.5034L36.8105 28.3597V24.7411L35.0293 22.96H27.3984V36.0469ZM30.4358 28.2097V25.5473H33.7731V28.2097H30.4358ZM30.4358 33.4595V30.7971H33.7731V33.4595H30.4358Z" fill="#272929"/>
<path d="M38.8789 36.0469H41.8975V30.7034H42.76L45.1786 36.0469H48.6659L46.2473 30.7034L48.0472 29.0159V24.7411L46.2473 22.96H38.8789V36.0469ZM41.8975 28.2097V25.5473H45.0099V28.2097H41.8975Z" fill="#272929"/>
<path d="M50.1562 36.0469H58.0496V33.4595H53.1936V30.7971H57.2809V28.2097H53.1936V25.5473H58.0121V22.96H50.1562V36.0469Z" fill="#272929"/>
<path d="M58.8086 22.96H61.9209L63.6646 31.3596L65.352 22.96H68.4457L70.1706 31.2846L71.858 22.96H74.9891L71.6893 36.0469H68.5394L66.9082 28.4535L65.2208 36.0469H62.0897L58.8086 22.96Z" fill="#272929"/>
<path d="M76.0117 22.96V36.0469H79.0303V22.96H76.0117Z" fill="#272929"/>
<path d="M81.2852 36.0469V22.96H85.485L88.1099 30.4784V22.96H91.1097V36.0469H86.9099L84.285 28.4535V36.0469H81.2852Z" fill="#272929"/>
<path d="M94.7577 36.0469H100.589L102.389 34.2469V29.1659H97.8513V31.7533H99.3513V33.4595H96.0139V25.5473H99.3513V27.4223H102.389V24.7411L100.607 22.96H94.739L92.9766 24.7224V34.2657L94.7577 36.0469Z" fill="#272929"/>
<path d="M110.543 36.0469H116.393L118.174 34.2657V31.6033H115.136V33.4782H111.799V25.5473H115.136V27.4223H118.174V24.7599L116.374 22.96H110.543L108.762 24.7411V34.2657L110.543 36.0469Z" fill="#272929"/>
<path d="M121.273 36.0469H127.104L128.904 34.2469V24.7599L127.104 22.96H121.255L119.492 24.7224V34.2657L121.273 36.0469ZM122.511 33.4595V25.5473H125.867V33.4595H122.511Z" fill="#272929"/>
<path d="M130.406 36.0468H133.162V33.5156H130.406V36.0468Z" fill="#272929"/>
<path d="M8.51525 0.501953C8.01109 0.501953 7.62554 0.88884 7.62554 1.39477V14.8463C6.6172 13.894 5.25296 13.2989 3.7701 13.2989H1.39753C0.893356 13.2989 0.507812 13.6859 0.507812 14.1917V16.5727C0.507812 19.6975 3.02867 22.2272 6.14268 22.2272H7.62554V27.584H6.14268C4.00736 27.584 2.28725 25.8579 2.28725 23.7151V22.8223C2.28725 22.3164 1.90171 21.9295 1.39753 21.9295C0.893356 21.9295 0.507812 22.3164 0.507812 22.8223V23.7151C0.507812 26.84 3.02867 29.3696 6.14268 29.3696H7.62554V34.7266H6.14268C4.00736 34.7266 2.28725 33.0004 2.28725 30.8577V30.2624C2.28725 29.7566 1.90171 29.3696 1.39753 29.3696C0.893356 29.3696 0.507812 29.7566 0.507812 30.2624V30.8577C0.507812 33.9825 3.02867 36.5122 6.14268 36.5122H7.62554V37.1074C7.62554 37.6133 8.01109 38.0002 8.51525 38.0002C9.01943 38.0002 9.40497 37.6133 9.40497 37.1074V36.5122H10.8878C14.0018 36.5122 16.5227 33.9825 16.5227 30.8577V29.9649C16.5227 29.4589 16.1372 29.0721 15.633 29.0721C15.1289 29.0721 14.7432 29.4589 14.7432 29.9649V30.8577C14.7432 33.0004 13.0231 34.7266 10.8878 34.7266H9.40497V29.3696H10.8878C14.0018 29.3696 16.5227 26.84 16.5227 23.7151V22.8223C16.5227 22.3164 16.1372 21.9295 15.633 21.9295C15.1289 21.9295 14.7432 22.3164 14.7432 22.8223V23.7151C14.7432 25.8579 13.0231 27.584 10.8878 27.584H9.40497V22.2272H10.8878C14.0018 22.2272 16.5227 19.6975 16.5227 16.5727V14.1917C16.5227 13.6859 16.1372 13.2989 15.633 13.2989H13.2604C11.7775 13.2989 10.4133 13.894 9.40497 14.8463V1.39477C9.40497 0.88884 9.01943 0.501953 8.51525 0.501953ZM4.9564 3.478C4.45222 3.478 4.06668 3.86489 4.06668 4.37082V10.3229C4.06668 10.8289 4.45222 11.2157 4.9564 11.2157C5.46056 11.2157 5.84612 10.8289 5.84612 10.3229V4.37082C5.84612 3.86489 5.46056 3.478 4.9564 3.478ZM12.0741 3.478C11.5699 3.478 11.1844 3.86489 11.1844 4.37082V10.3229C11.1844 10.8289 11.5699 11.2157 12.0741 11.2157C12.5783 11.2157 12.9638 10.8289 12.9638 10.3229V4.37082C12.9638 3.86489 12.5783 3.478 12.0741 3.478ZM2.28725 15.0846H3.7701C5.90542 15.0846 7.62554 16.8108 7.62554 18.9534V20.4415H6.14268C4.00736 20.4415 2.28725 18.7154 2.28725 16.5727V15.0846ZM13.2604 15.0846H14.7432V16.5727C14.7432 18.7154 13.0231 20.4415 10.8878 20.4415H9.40497V18.9534C9.40497 16.8108 11.1251 15.0846 13.2604 15.0846Z" fill="#272929"/>
</g>
<defs>
<clipPath id="clip0">
<rect width="133.588" height="37.4983" fill="white" transform="translate(0.507812 0.501953)"/>
</clipPath>
</defs>
</svg>
