<svg width="186" height="38" viewBox="0 0 186 38" fill="none" xmlns="http://www.w3.org/2000/svg">
<g clip-path="url(#clip0)">
<path d="M20.7909 0.501953C20.3961 0.501953 20.1987 0.738786 20.1987 1.09403V2.31765C20.1987 2.6729 20.3961 2.90974 20.7909 2.90974H20.9882C23.0013 2.98869 23.6723 4.56755 23.6723 6.65957V18.8958C23.6723 23.6719 22.0539 27.1454 17.4752 27.1454C11.3176 27.1454 10.4886 23.3167 10.4886 18.8958V6.65957C10.4886 4.56755 11.1202 2.98869 13.1332 2.90974H13.3701C13.7649 2.90974 13.9622 2.6729 13.9622 2.31765V1.09403C13.9622 0.738786 13.7649 0.501953 13.3701 0.501953H1.25223C0.857516 0.501953 0.660156 0.738786 0.660156 1.09403V2.31765C0.660156 2.6729 0.857516 2.90974 1.25223 2.90974H1.48906C3.50213 2.98869 4.17315 4.56755 4.17315 6.65957V19.6852C4.17315 26.5139 8.51506 30.619 16.3304 30.619C24.1854 30.619 27.6589 26.5139 27.6589 19.2906V6.65957C27.6589 4.56755 28.2904 2.98869 30.3035 2.90974H30.5798C30.9351 2.90974 31.1719 2.6729 31.1719 2.31765V1.09403C31.1719 0.738786 30.9351 0.501953 30.5798 0.501953H20.7909Z" fill="#272929"/>
<path d="M38.191 9.9358C38.191 9.85685 38.1515 9.81738 38.112 9.81738H38.033C37.9147 9.81738 37.7567 9.85685 37.6779 9.89632C35.9411 10.6858 34.3227 11.4357 30.4545 11.4357C30.0597 11.4357 29.8624 11.5936 29.8624 11.9489V13.2909C29.8624 13.5672 29.9414 13.7646 30.336 13.8041C32.507 14.0409 32.6649 16.2118 32.6649 18.3433V31.8821C32.7044 34.0136 31.7176 35.6319 29.7834 35.6319C29.3887 35.6319 29.1914 35.8294 29.1914 36.224V37.4082C29.1914 37.8029 29.3887 38.0003 29.7834 38.0003H41.0724C41.4672 38.0003 41.6645 37.8029 41.6645 37.4082V36.224C41.6645 35.8294 41.4672 35.6319 41.0724 35.6319C39.1383 35.6319 38.1515 34.0136 38.1515 31.8821V28.7639C39.5725 29.948 41.3092 30.5796 43.2828 30.5796C48.0589 30.5796 52.5192 27.5403 52.5192 20.2379C52.5192 12.6199 47.3089 9.81738 43.7564 9.81738C39.6909 9.81738 38.1515 12.4225 37.7173 13.4488L38.191 9.9358ZM38.1515 15.896C38.1515 15.896 39.0593 13.3304 41.9803 13.3304C45.217 13.3304 47.4274 16.4486 47.4274 21.5405C47.4274 24.7772 46.4011 28.0139 42.5723 28.0139C39.9672 28.0139 38.4673 25.5667 38.1515 23.1194V15.896Z" fill="#272929"/>
<path d="M61.5308 9.9358C61.5308 9.85685 61.4913 9.81738 61.4518 9.81738H61.373C61.2545 9.81738 61.0967 9.85685 61.0177 9.89632C59.2809 10.6858 57.6625 11.4357 53.7944 11.4357C53.3996 11.4357 53.2022 11.5936 53.2022 11.9489V13.2909C53.2022 13.5672 53.2812 13.7646 53.6759 13.8041C55.8469 14.0409 56.0048 16.2118 56.0048 18.3433V31.8821C56.0442 34.0136 55.0575 35.6319 53.1234 35.6319C52.7286 35.6319 52.5312 35.8294 52.5312 36.224V37.4082C52.5312 37.8029 52.7286 38.0003 53.1234 38.0003H64.4122C64.807 38.0003 65.0043 37.8029 65.0043 37.4082V36.224C65.0043 35.8294 64.807 35.6319 64.4122 35.6319C62.4781 35.6319 61.4913 34.0136 61.4913 31.8821V28.7639C62.9123 29.948 64.649 30.5796 66.6227 30.5796C71.3987 30.5796 75.8591 27.5403 75.8591 20.2379C75.8591 12.6199 70.6488 9.81738 67.0964 9.81738C63.0308 9.81738 61.4913 12.4225 61.0572 13.4488L61.5308 9.9358ZM61.4913 15.896C61.4913 15.896 62.3991 13.3304 65.3201 13.3304C68.5568 13.3304 70.7672 16.4486 70.7672 21.5405C70.7672 24.7772 69.741 28.0139 65.9121 28.0139C63.3071 28.0139 61.8071 25.5667 61.4913 23.1194V15.896Z" fill="#272929"/>
<path d="M94.6038 18.0668C94.8407 17.9483 94.9196 17.7905 94.9196 17.5536C94.9196 14.5933 92.0381 9.93555 86.7884 9.93555C82.1702 9.93555 77.4336 12.738 77.4336 20.0798C77.4336 25.8032 81.4597 30.5793 88.0121 30.5793C91.9988 30.5793 94.446 28.7636 95.9064 26.0006C96.0249 25.7638 96.1827 25.5269 96.1827 25.2901C96.1827 25.1716 96.1038 25.0533 95.9854 25.0138C94.7223 24.2638 94.6828 24.2243 94.446 24.2243C94.3275 24.2243 94.1697 24.2638 94.0907 24.3822C92.7092 26.3952 90.7357 27.3032 89.0778 27.3032C85.999 27.3032 84.0254 25.2506 83.157 23.0797L94.6038 18.0668ZM82.6834 20.593C82.3281 19.6851 82.2886 18.3825 82.2886 17.5931C82.2886 15.0274 83.6702 13.0538 85.8411 13.0538C87.6568 13.0538 88.9989 14.9089 88.9989 17.3957L82.6834 20.593Z" fill="#272929"/>
<path d="M105.606 9.22543C105.606 9.14648 105.606 9.14648 105.566 9.14648H105.448C105.408 9.14648 105.329 9.18596 105.29 9.26491C104.224 10.0149 101.224 11.5543 97.4745 12.1463C97.0797 12.1858 96.9218 12.3437 96.9218 12.6594V14.0015C96.8823 14.2778 97.0008 14.4752 97.356 14.5147C99.5664 14.7515 99.6849 16.9224 99.6849 19.0539V23.9879C99.6849 26.1588 98.7771 27.7377 96.8429 27.7377H96.764C96.3692 27.7377 96.1719 27.9746 96.1719 28.3298V29.514C96.1719 29.9086 96.3692 30.1061 96.764 30.1061H108.211C108.605 30.1061 108.803 29.9086 108.803 29.514V28.3298C108.803 27.9746 108.605 27.7377 108.211 27.7377H108.171C106.237 27.7377 105.25 26.1588 105.25 23.9879V16.7251C105.842 15.3041 107.421 13.3305 109.198 13.3305C110.303 13.3305 111.092 13.9225 111.092 15.3436C111.092 15.8961 111.013 16.5672 110.698 17.3567C110.658 17.475 110.658 17.5935 110.658 17.6724C110.658 17.9092 110.777 18.0672 111.013 18.0672C111.092 18.0672 111.211 18.0277 111.369 17.9882L115.039 16.4488C115.987 16.0541 116.066 15.1462 116.066 13.962C116.066 11.2385 114.092 9.89645 111.605 9.89645C108.803 9.89645 106.119 11.4753 104.658 14.5147L105.606 9.22543Z" fill="#272929"/>
<path d="M132.747 24.0665C132.588 23.9875 132.47 23.948 132.352 23.948C132.193 23.948 132.035 24.0665 131.917 24.2638C130.733 26.0006 129.035 26.9084 127.497 27.0664C127.26 27.1058 127.022 27.1058 126.785 27.1058C122.799 27.1058 121.379 23.4744 121.379 19.5272C121.379 19.0536 121.417 18.5404 121.457 18.0668C121.694 15.3432 122.879 13.0538 125.404 13.0538C127.733 13.0538 128.76 14.3958 128.602 16.6457L128.562 17.0405C128.562 17.2378 128.68 17.3168 128.878 17.3168C128.997 17.3168 129.075 17.3168 129.233 17.2773L133.772 16.0537C134.048 15.9747 134.207 15.8169 134.207 15.5406V15.3826C133.654 12.8959 131.838 10.2908 127.022 9.97501L126.312 9.93555C121.852 9.93555 116.878 12.7775 116.326 19.3299C115.892 24.9348 119.799 30.5004 125.72 30.5004C126.075 30.5004 126.43 30.4609 126.785 30.4214C130.535 30.0662 132.747 28.211 134.01 25.6059C134.128 25.2901 134.048 25.0138 133.772 24.8165L132.747 24.0665Z" fill="#272929"/>
<path d="M157.213 11.0013C157.213 10.6065 157.015 10.4092 156.62 10.4092H148.686C148.331 10.4092 148.095 10.6065 148.095 11.0013V12.1854C148.095 12.5407 148.331 12.7775 148.686 12.7775H148.765C150.7 12.7775 151.686 14.3958 151.686 16.5273V23.7901C150.976 25.4479 148.845 27.1452 146.87 27.1452C143.832 27.1452 144.028 24.6191 144.028 22.4481V11.0013C144.028 10.6065 143.832 10.4092 143.437 10.4092H135.424C135.029 10.4092 134.832 10.6065 134.832 11.0013V12.1854C134.832 12.5802 135.029 12.7775 135.424 12.7775H135.582C137.515 12.7775 138.463 14.3958 138.463 16.5273V23.0402C138.502 26.79 139.529 30.6188 145.173 30.6188C148.805 30.6188 151.213 27.7768 152.318 25.5269L151.726 30.5003C151.686 30.5793 151.726 30.6188 151.765 30.6188H151.844C151.963 30.6188 152.12 30.5793 152.2 30.5398C153.976 29.7899 155.554 29.0399 159.423 29.0399C159.818 29.0399 160.014 28.8426 160.014 28.5268V27.1847C160.014 26.9084 159.936 26.711 159.541 26.6715C157.37 26.4347 157.213 24.2638 157.213 22.1323V11.0013Z" fill="#272929"/>
<path d="M173.893 26.2771C173.775 26.0798 173.618 25.9613 173.42 25.9613C173.342 25.9613 173.223 26.0008 173.065 26.0798L173.025 26.1193C172.237 26.6323 171.13 27.2244 170.223 27.2244C169.315 27.2244 168.605 26.5929 168.605 24.5404V13.2514H173.855C174.249 13.2514 174.447 13.0541 174.447 12.6593V10.962C174.447 10.6068 174.249 10.37 173.855 10.37H168.565V3.7387C168.565 3.69922 168.525 3.69922 168.487 3.69922H168.407C168.368 3.69922 168.289 3.7387 168.249 3.77816C166.631 5.15968 164.539 6.42278 163.394 7.01486C163.119 7.17274 163.039 7.44904 163.039 7.76481V10.37H160.197C159.802 10.37 159.605 10.6068 159.605 10.962V12.1462C159.605 12.5409 159.802 12.7383 160.197 12.7383C163.039 12.7383 163.039 15.146 163.039 17.2381V24.5404C163.039 29.198 165.17 30.6191 167.618 30.6191C169.592 30.6191 171.762 29.7111 173.144 28.8428L174.328 28.0929C174.525 27.9744 174.643 27.8165 174.643 27.6192C174.643 27.5007 174.605 27.3823 174.525 27.2639L173.893 26.2771Z" fill="#272929"/>
<path d="M177.816 25.5267C177.303 26.0003 177.066 26.5135 177.066 27.0661C177.066 27.5793 177.303 28.0924 177.816 28.566L179.356 30.1055C179.869 30.6186 180.383 30.8554 180.896 30.8554C181.408 30.8554 181.921 30.6186 182.435 30.1055L183.974 28.566C184.488 28.0924 184.724 27.5793 184.724 27.0661C184.724 26.5135 184.488 26.0003 183.974 25.5267L182.435 23.9873C181.921 23.4741 181.408 23.2373 180.896 23.2373C180.383 23.2373 179.869 23.4741 179.356 23.9478L177.816 25.5267Z" fill="#272929"/>
</g>
<defs>
<clipPath id="clip0">
<rect width="185.148" height="37.4983" fill="white" transform="translate(0.359375 0.501953)"/>
</clipPath>
</defs>
</svg>
