<svg width="23" height="23" viewBox="0 0 23 23" fill="none" xmlns="http://www.w3.org/2000/svg">
<path d="M11.5 2.08438C14.5412 2.08438 14.9186 2.08437 16.127 2.16973C17.25 2.21016 17.834 2.42129 18.2518 2.54258C18.7953 2.74922 19.1682 3.00078 19.5859 3.41855C20.0037 3.83633 20.2508 4.20918 20.4619 4.75273C20.6281 5.17051 20.7943 5.75449 20.8348 6.87754C20.8752 8.08594 20.9201 8.45879 20.9201 11.5045C20.9201 14.5502 20.9201 14.923 20.8348 16.1314C20.7943 17.2545 20.5832 17.8385 20.4619 18.2563C20.2553 18.7998 20.0037 19.1727 19.5859 19.5904C19.1682 20.0082 18.7953 20.2553 18.2518 20.4664C17.834 20.6326 17.25 20.7988 16.127 20.8393C14.9186 20.8797 14.5457 20.9246 11.5 20.9246C8.4543 20.9246 8.08145 20.9246 6.87305 20.8393C5.75 20.7988 5.16602 20.5877 4.74824 20.4664C4.20469 20.2598 3.83184 20.0082 3.41406 19.5904C2.99629 19.1727 2.74922 18.7998 2.53809 18.2563C2.37188 17.8385 2.20566 17.2545 2.16523 16.1314C2.1248 14.923 2.07988 14.5502 2.07988 11.5045C2.07988 8.45879 2.07988 8.08594 2.16523 6.87754C2.20566 5.75449 2.4168 5.17051 2.53809 4.75273C2.74473 4.20918 2.99629 3.83633 3.41406 3.41855C3.83184 3.00078 4.20469 2.75371 4.74824 2.54258C5.16602 2.37637 5.75 2.21016 6.87305 2.16973C8.08145 2.08437 8.45879 2.08438 11.5 2.08438ZM11.5 0C8.37344 0 8.00059 0 6.79219 0.0853516C5.58379 0.125781 4.74824 0.332422 3.99805 0.624414C3.24785 0.916406 2.62344 1.28926 1.95859 1.95859C1.33418 2.58301 0.916406 3.24785 0.624414 3.99805C0.332422 4.70781 0.166211 5.53887 0.0808594 6.7877C0.0404297 8.00059 0 8.41836 0 11.5C0 14.6266 0 14.9994 0.0853516 16.2078C0.125781 17.4162 0.336914 18.2473 0.628906 18.9975C0.920898 19.7477 1.29375 20.3721 1.96309 21.0369C2.5875 21.6613 3.25684 22.0791 4.00254 22.3711C4.7123 22.6631 5.54336 22.8293 6.79219 22.9146C8.00059 22.9551 8.41836 23 11.5 23C14.5816 23 14.9994 23 16.2078 22.9146C17.4162 22.8742 18.2473 22.6631 18.9975 22.3711C19.7477 22.0791 20.3721 21.7062 21.0369 21.0369C21.6613 20.4125 22.0791 19.7432 22.3711 18.9975C22.6631 18.2877 22.8293 17.4566 22.9146 16.2078C22.9551 14.9994 23 14.5816 23 11.5C23 8.41836 23 8.00059 22.9146 6.79219C22.8742 5.58379 22.6631 4.75273 22.3711 4.00254C22.0791 3.25234 21.7062 2.62793 21.0369 1.96309C20.4125 1.33867 19.7432 0.920898 18.9975 0.628906C18.2877 0.336914 17.4566 0.170703 16.2078 0.0853516C14.9994 0 14.6266 0 11.5 0Z" fill="white"/>
<path d="M11.5008 5.58398C8.25293 5.58398 5.625 8.20742 5.625 11.4598C5.625 14.7121 8.25293 17.3355 11.5008 17.3355C14.7486 17.3355 17.3766 14.7121 17.3766 11.4598C17.3766 8.20742 14.7486 5.58398 11.5008 5.58398ZM11.5008 15.2916C9.37598 15.2916 7.66895 13.5846 7.66895 11.4598C7.66895 9.33496 9.37598 7.62793 11.5008 7.62793C13.6256 7.62793 15.3326 9.33496 15.3326 11.4598C15.3326 13.5846 13.6256 15.2916 11.5008 15.2916Z" fill="white"/>
<path d="M17.6246 6.70722C18.3838 6.70722 18.9992 6.09179 18.9992 5.33262C18.9992 4.57344 18.3838 3.95801 17.6246 3.95801C16.8654 3.95801 16.25 4.57344 16.25 5.33262C16.25 6.09179 16.8654 6.70722 17.6246 6.70722Z" fill="white"/>
</svg>
