<svg width="130" height="41" viewBox="0 0 130 41" fill="none" xmlns="http://www.w3.org/2000/svg">
<path d="M57.9966 32.7031H54.1079L47.9282 25.7397V32.7031H44.6726V11.6017H47.9282V24.2927L53.7763 17.6307H57.7554L51.1236 25.0162L57.9966 32.7031ZM69.7566 17.6307H73.0122V32.7031H69.7566V30.7739C68.7719 32.3213 67.2144 33.095 65.0841 33.095C63.3558 33.095 61.9591 32.5424 60.894 31.437C59.8289 30.3317 59.2963 28.8144 59.2963 26.8852V17.6307H62.552V26.5536C62.552 27.679 62.8534 28.5431 63.4563 29.146C64.0592 29.7489 64.8832 30.0504 65.9282 30.0504C67.0737 30.0504 67.9981 29.6987 68.7015 28.9953C69.4049 28.2718 69.7566 27.1766 69.7566 25.7095V17.6307ZM85.3502 17.2388C87.4201 17.2388 89.1886 18.0025 90.6557 19.5298C92.1227 21.0572 92.8562 22.9362 92.8562 25.1669C92.8562 27.3775 92.1227 29.2566 90.6557 30.804C89.1886 32.3313 87.4201 33.095 85.3502 33.095C83.0592 33.095 81.3007 32.2409 80.0748 30.5327V32.7031H76.8192V11.6017H80.0748V19.771C81.3007 18.0829 83.0592 17.2388 85.3502 17.2388ZM81.4314 28.6336C82.3357 29.5379 83.4712 29.9901 84.8377 29.9901C86.2043 29.9901 87.3397 29.5379 88.2441 28.6336C89.1484 27.7091 89.6006 26.5536 89.6006 25.1669C89.6006 23.7803 89.1484 22.6348 88.2441 21.7304C87.3397 20.806 86.2043 20.3437 84.8377 20.3437C83.4712 20.3437 82.3357 20.806 81.4314 21.7304C80.527 22.6348 80.0748 23.7803 80.0748 25.1669C80.0748 26.5536 80.527 27.7091 81.4314 28.6336ZM98.3692 26.5536C98.6104 27.6991 99.163 28.5833 100.027 29.2063C100.891 29.8092 101.946 30.1107 103.192 30.1107C104.921 30.1107 106.217 29.4877 107.081 28.2417L109.764 29.8092C108.277 31.9997 106.076 33.095 103.162 33.095C100.71 33.095 98.731 32.3514 97.2237 30.8643C95.7165 29.357 94.9628 27.4579 94.9628 25.1669C94.9628 22.9161 95.7064 21.0371 97.1936 19.5298C98.6807 18.0025 100.59 17.2388 102.921 17.2388C105.132 17.2388 106.94 18.0125 108.347 19.56C109.774 21.1074 110.487 22.9864 110.487 25.1971C110.487 25.5387 110.447 25.9909 110.367 26.5536H98.3692ZM98.3391 23.9008H107.202C106.981 22.6749 106.468 21.7505 105.664 21.1275C104.88 20.5045 103.956 20.193 102.891 20.193C101.685 20.193 100.68 20.5246 99.8765 21.1878C99.0726 21.851 98.5601 22.7553 98.3391 23.9008ZM113.352 32.7031V10.6974H116.608V32.7031H113.352ZM128.798 20.7658H125.06V28.0005C125.06 28.6235 125.201 29.0757 125.482 29.357C125.764 29.6183 126.176 29.769 126.718 29.8092C127.281 29.8293 127.974 29.8193 128.798 29.7791V32.7031C126.306 33.0046 124.518 32.7936 123.433 32.0701C122.347 31.3265 121.805 29.97 121.805 28.0005V20.7658H119.031V17.6307H121.805V14.3751L125.06 13.4104V17.6307H128.798V20.7658Z" fill="white"/>
<path d="M12.7775 4.81602C11.0718 5.32773 0 -2.28882e-05 0 -2.28882e-05C0 -2.28882e-05 8.69258 19.0251 8.12168 20.1958C7.19162 22.1026 2.83565 19.7308 2.83565 19.7308L11.3978 30.515C11.6133 30.7646 11.8377 31.0052 12.073 31.2422C17.3089 36.4779 25.7946 36.4779 31.0282 31.2422C36.2642 26.0065 36.2642 17.5212 31.0282 12.2878C30.4608 11.7204 29.2165 10.767 29.2165 10.767L13.8078 1.04228C13.8078 1.04228 14.3486 4.34742 12.7775 4.81602ZM27.8465 16.9965C31.5866 20.7364 31.5866 23.6789 27.8465 27.4189C24.1083 31.1589 20.0954 30.6244 16.3552 26.8845C12.6151 23.1446 12.8289 19.5073 16.569 15.7672C20.309 12.0272 24.1082 13.2566 27.8465 16.9965Z" fill="white"/>
<path d="M15.8466 10.5622C14.6729 10.9122 7.05469 7.26859 7.05469 7.26859C7.05469 7.26859 11.6462 19.3177 11.2533 20.1183C10.6134 21.4223 9.00582 20.7623 9.00582 20.7623L14.8972 28.1375C15.0455 28.3082 15.1999 28.4728 15.3618 28.6348C18.9645 32.2155 24.8033 32.2155 28.4044 28.6348C32.0071 25.0542 32.0071 19.2512 28.4044 15.6721C28.014 15.2841 27.1578 14.6321 27.1578 14.6321L16.5555 7.98141C16.5555 7.98141 16.9276 10.2418 15.8466 10.5622ZM27.1578 16.4082C29.7313 18.9659 29.1074 24.2302 26.534 26.788C23.9618 29.3457 19.7897 29.3457 17.2162 26.788C14.6427 24.2303 13.6743 18.966 16.2478 16.4082C18.8212 13.8505 24.5855 13.8506 27.1578 16.4082Z" fill="#2BD0FA"/>
<circle cx="21.6797" cy="21.8984" r="7.0931" fill="#2A69A8" stroke="#2A69A8" stroke-width="3.31379"/>
</svg>
