<svg width="157" height="245" viewBox="0 0 157 245" fill="none" xmlns="http://www.w3.org/2000/svg">
<path d="M156.126 172.481C156.126 183.476 121.365 192.396 78.514 192.396C35.6634 192.396 0.902344 183.439 0.902344 172.481C0.902344 127.48 40.35 99.4146 78.514 99.4146C121.365 99.4146 156.126 135.982 156.126 172.481Z" fill="#FFF683"/>
<path d="M156.141 171.056C156.141 160.061 121.388 151.141 78.5296 151.141C35.6716 151.141 0.917969 160.098 0.917969 171.056C0.917969 216.065 40.3656 244.122 78.5296 244.122C121.388 244.1 156.141 207.526 156.141 171.056Z" fill="url(#paint0_linear)"/>
<path d="M127.471 183.237C127.471 190.702 105.978 196.77 79.4558 196.77C52.9335 196.77 31.4336 190.709 31.4336 183.237C31.4336 152.634 55.8365 133.578 79.4558 133.578C105.978 133.578 127.471 158.426 127.471 183.237Z" fill="white"/>
<g opacity="0.41">
<path opacity="0.41" d="M81.4152 25.5339C87.8448 25.5339 93.057 20.3206 93.057 13.8897C93.057 7.45886 87.8448 2.24561 81.4152 2.24561C74.9856 2.24561 69.7734 7.45886 69.7734 13.8897C69.7734 20.3206 74.9856 25.5339 81.4152 25.5339Z" fill="#33339E"/>
<path opacity="0.41" d="M81.4168 21.3313C85.526 21.3313 88.8571 17.9995 88.8571 13.8895C88.8571 9.77956 85.526 6.44775 81.4168 6.44775C77.3077 6.44775 73.9766 9.77956 73.9766 13.8895C73.9766 17.9995 77.3077 21.3313 81.4168 21.3313Z" fill="#0062FF"/>
<path opacity="0.41" d="M81.4138 19.0627C84.27 19.0627 86.5855 16.7468 86.5855 13.89C86.5855 11.0332 84.27 8.71729 81.4138 8.71729C78.5576 8.71729 76.2422 11.0332 76.2422 13.89C76.2422 16.7468 78.5576 19.0627 81.4138 19.0627Z" fill="#8FD8F2"/>
</g>
<g opacity="0.41">
<path opacity="0.41" d="M123.536 81.9103C129.966 81.9103 135.178 76.697 135.178 70.2662C135.178 63.8353 129.966 58.6221 123.536 58.6221C117.107 58.6221 111.895 63.8353 111.895 70.2662C111.895 76.697 117.107 81.9103 123.536 81.9103Z" fill="#33339E"/>
<path opacity="0.41" d="M123.53 77.7082C127.639 77.7082 130.97 74.3764 130.97 70.2665C130.97 66.1565 127.639 62.8247 123.53 62.8247C119.421 62.8247 116.09 66.1565 116.09 70.2665C116.09 74.3764 119.421 77.7082 123.53 77.7082Z" fill="#0062FF"/>
<path opacity="0.41" d="M123.535 75.4392C126.391 75.4392 128.707 73.1232 128.707 70.2664C128.707 67.4096 126.391 65.0938 123.535 65.0938C120.679 65.0938 118.363 67.4096 118.363 70.2664C118.363 73.1232 120.679 75.4392 123.535 75.4392Z" fill="#8FD8F2"/>
</g>
<path d="M137.439 58.5703C137.438 48.3027 134.712 38.2193 129.539 29.3505C124.367 20.4816 116.933 13.1452 107.997 8.09081C99.0618 3.03646 88.9449 0.445382 78.6804 0.582307C68.4158 0.719232 58.3715 3.57926 49.5739 8.87016C40.7763 14.1611 33.5407 21.6932 28.6065 30.6968C23.6722 39.7005 21.2161 49.853 21.4893 60.117C21.7624 70.3809 24.7549 80.3884 30.1611 89.1168C35.5672 97.8452 43.1931 104.982 52.2597 109.797C59.6499 115.137 65.6749 122.146 69.8441 130.256C74.0133 138.365 76.2089 147.344 76.2521 156.463L79.4536 167.659L82.4834 156.463C82.5275 147.418 84.6896 138.509 88.7965 130.451C92.9033 122.392 98.8407 115.408 106.133 110.058C115.567 105.17 123.477 97.782 128.998 88.7016C134.52 79.6213 137.439 69.1979 137.439 58.5703Z" fill="#5E9599"/>
<path d="M79.454 108.543C107.101 108.543 129.514 86.1258 129.514 58.473C129.514 30.8203 107.101 8.40332 79.454 8.40332C51.8069 8.40332 29.3945 30.8203 29.3945 58.473C29.3945 86.1258 51.8069 108.543 79.454 108.543Z" fill="white"/>
<path d="M70.8298 35.1701C67.6955 36.1106 47.3672 26.3848 47.3672 26.3848C47.3672 26.3848 63.3298 61.1082 62.2925 63.2429C60.5836 66.7212 52.591 62.392 52.591 62.392L68.3074 82.0751C68.7029 82.5304 69.1134 82.9708 69.5462 83.4037C74.174 87.9942 80.4277 90.5699 86.9454 90.5699C93.4631 90.5699 99.7168 87.9942 104.345 83.4037C106.629 81.1393 108.442 78.4448 109.679 75.4758C110.916 72.5068 111.553 69.322 111.553 66.1054C111.553 62.8888 110.916 59.7041 109.679 56.7351C108.442 53.766 106.629 51.0715 104.345 48.8072C103.307 47.7771 101.024 46.0305 101.024 46.0305L72.7179 28.2881C72.7179 28.2881 73.688 34.3565 70.8298 35.1701Z" fill="#1E4FFE"/>
<path d="M76.4581 45.6576C74.3014 46.2995 60.3164 39.6489 60.3164 39.6489C60.3164 39.6489 68.7417 61.6384 68.0253 63.1014C66.8462 65.4825 63.8985 64.2807 63.8985 64.2807L74.7118 77.7163C74.988 78.0298 75.2716 78.3283 75.5626 78.6194C78.7562 81.7616 83.0566 83.5226 87.5364 83.5226C92.0162 83.5226 96.3166 81.7616 99.5102 78.6194C101.081 77.0763 102.328 75.2358 103.18 73.2051C104.032 71.1745 104.47 68.9945 104.47 66.7924C104.47 64.5904 104.032 62.4104 103.18 60.3797C102.328 58.3491 101.081 56.5085 99.5102 54.9654C98.764 54.2563 97.2192 53.0695 97.2192 53.0695L77.7566 40.9253C77.7566 40.9253 78.4431 45.0754 76.4581 45.6576Z" fill="#FE03B8"/>
<path d="M87.7884 83.5449C97 83.5449 104.467 76.1193 104.467 66.9595C104.467 57.7996 97 50.374 87.7884 50.374C78.5769 50.374 71.1094 57.7996 71.1094 66.9595C71.1094 76.1193 78.5769 83.5449 87.7884 83.5449Z" fill="#FDB23E"/>
<defs>
<linearGradient id="paint0_linear" x1="78.5147" y1="244.13" x2="78.5147" y2="151.141" gradientUnits="userSpaceOnUse">
<stop stop-color="white" stop-opacity="0"/>
<stop offset="0.14" stop-color="#FFFDE4" stop-opacity="0.22"/>
<stop offset="0.32" stop-color="#FFFBC7" stop-opacity="0.45"/>
<stop offset="0.48" stop-color="#FFF9AF" stop-opacity="0.65"/>
<stop offset="0.64" stop-color="#FFF89C" stop-opacity="0.8"/>
<stop offset="0.78" stop-color="#FFF78E" stop-opacity="0.91"/>
<stop offset="0.91" stop-color="#FFF686" stop-opacity="0.98"/>
<stop offset="1" stop-color="#FFF683"/>
</linearGradient>
</defs>
</svg>
