<svg width="116" height="195" viewBox="0 0 116 195" fill="none" xmlns="http://www.w3.org/2000/svg">
<path d="M57.3371 194.632C71.5893 194.632 83.1431 182.582 83.1431 167.717C83.1431 152.851 71.5893 140.801 57.3371 140.801C43.0849 140.801 31.5312 152.851 31.5312 167.717C31.5312 182.582 43.0849 194.632 57.3371 194.632Z" fill="url(#paint0_linear)"/>
<path d="M57.338 187.139C67.6212 187.139 75.9574 178.443 75.9574 167.717C75.9574 156.99 67.6212 148.295 57.338 148.295C47.0549 148.295 38.7188 156.99 38.7188 167.717C38.7188 178.443 47.0549 187.139 57.338 187.139Z" fill="url(#paint1_linear)"/>
<path d="M53.1145 151.938H39.6147C37.929 151.938 36.5625 153.303 36.5625 154.987C36.5625 156.671 37.929 158.036 39.6147 158.036H53.1145C54.8002 158.036 56.1667 156.671 56.1667 154.987C56.1667 153.303 54.8002 151.938 53.1145 151.938Z" fill="#DB4BEF"/>
<path opacity="0.46" d="M48.432 158.043H36.5366C34.8509 158.043 33.4844 159.408 33.4844 161.092C33.4844 162.776 34.8509 164.141 36.5366 164.141H48.432C50.1177 164.141 51.4842 162.776 51.4842 161.092C51.4842 159.408 50.1177 158.043 48.432 158.043Z" fill="#DB4BEF"/>
<path opacity="0.46" d="M58.2522 164.141H46.3569C44.6712 164.141 43.3047 165.506 43.3047 167.19C43.3047 168.874 44.6712 170.239 46.3569 170.239H58.2522C59.9379 170.239 61.3045 168.874 61.3045 167.19C61.3045 165.506 59.9379 164.141 58.2522 164.141Z" fill="#DB4BEF"/>
<path opacity="0.46" d="M51.8266 170.239H39.9311C38.2454 170.239 36.8789 171.604 36.8789 173.288C36.8789 174.972 38.2454 176.338 39.9311 176.338H51.8266C53.5123 176.338 54.8789 174.972 54.8789 173.288C54.8789 171.604 53.5123 170.239 51.8266 170.239Z" fill="#DB4BEF"/>
<path opacity="0.31" d="M67.8813 175.166H55.9859C54.3002 175.166 52.9336 176.531 52.9336 178.215C52.9336 179.899 54.3002 181.264 55.9859 181.264H67.8813C69.567 181.264 70.9335 179.899 70.9335 178.215C70.9335 176.531 69.567 175.166 67.8813 175.166Z" fill="#DB4BEF"/>
<path d="M69.2346 155.64H60.3316C59.0374 155.64 57.9883 156.689 57.9883 157.983C57.9883 159.278 59.0374 160.327 60.3316 160.327H69.2346C70.5288 160.327 71.5779 159.278 71.5779 157.983C71.5779 156.689 70.5288 155.64 69.2346 155.64Z" fill="#DDC0FF"/>
<path d="M67.0783 170.239H58.1753C56.8812 170.239 55.832 171.289 55.832 172.583C55.832 173.877 56.8812 174.927 58.1753 174.927H67.0783C68.3724 174.927 69.4215 173.877 69.4215 172.583C69.4215 171.289 68.3724 170.239 67.0783 170.239Z" fill="#DDC0FF"/>
<path d="M72.3321 161.492H63.4292C62.1351 161.492 61.0859 162.541 61.0859 163.835C61.0859 165.13 62.1351 166.179 63.4292 166.179H72.3321C73.6263 166.179 74.6754 165.13 74.6754 163.835C74.6754 162.541 73.6263 161.492 72.3321 161.492Z" fill="#DDC0FF"/>
<path d="M115.969 58.0006C115.97 47.7327 113.245 37.6487 108.074 28.7789C102.902 19.9092 95.4686 12.5718 86.5333 7.51643C77.598 2.46106 67.481 -0.131007 57.2161 0.00509655C46.9512 0.1412 36.9065 3.0006 28.1082 8.2911C19.31 13.5816 12.0738 21.1135 7.13896 30.1172C2.20412 39.121 -0.252328 49.2737 0.0204837 59.538C0.293295 69.8022 3.28565 79.8101 8.6918 88.5388C14.0979 97.2676 21.7241 104.404 30.7909 109.22C38.1835 114.559 44.2105 121.57 48.3811 129.681C52.5517 137.792 54.7478 146.773 54.7907 155.893L57.9847 167.09L61.022 155.893C61.0629 146.848 63.2227 137.937 67.3284 129.877C71.4341 121.817 77.3712 114.831 84.6636 109.481C94.0983 104.595 102.009 97.2082 107.53 88.129C113.051 79.0498 115.97 68.6273 115.969 58.0006V58.0006Z" fill="#5E9599"/>
<path d="M57.9853 107.973C85.6325 107.973 108.045 85.5565 108.045 57.9037C108.045 30.251 85.6325 7.83398 57.9853 7.83398C30.3382 7.83398 7.92578 30.251 7.92578 57.9037C7.92578 85.5565 30.3382 107.973 57.9853 107.973Z" fill="white"/>
<path d="M36.0808 53.5143C38.8038 52.2737 39.5252 48.0048 37.6919 43.9794C35.8587 39.9541 32.1651 37.6966 29.4421 38.9373C26.7191 40.1779 25.9978 44.4468 27.8311 48.4721C29.6643 52.4974 33.3578 54.7549 36.0808 53.5143Z" fill="#DB4BEF"/>
<path d="M88.6842 49.1285C90.5174 45.1032 89.7961 40.8342 87.0731 39.5936C84.3501 38.353 80.6565 40.6105 78.8233 44.6358C76.99 48.6611 77.7114 52.93 80.4344 54.1707C83.1574 55.4113 86.8509 53.1539 88.6842 49.1285Z" fill="#DB4BEF"/>
<path d="M53.2521 23.0008C53.8601 21.7411 53.9987 20.3056 53.6429 18.9528C53.2872 17.6 52.4604 16.4185 51.3114 15.621C50.1624 14.8235 48.7665 14.4622 47.375 14.6023C45.9834 14.7423 44.6876 15.3745 43.7204 16.385C42.7533 17.3955 42.1784 18.718 42.0993 20.1146C42.0201 21.5112 42.4419 22.8903 43.2886 24.0036C44.1354 25.1169 45.3515 25.8915 46.7183 26.188C48.0852 26.4844 49.5129 26.2833 50.7447 25.6207C62.1402 39.3922 59.3865 54.1937 59.2447 54.8953C59.1979 55.1271 59.1973 55.3659 59.2429 55.598C59.2884 55.83 59.3793 56.0508 59.5103 56.2477C59.6413 56.4446 59.8099 56.6138 60.0063 56.7454C60.2028 56.8771 60.4233 56.9688 60.6551 57.0151C60.7726 57.042 60.8929 57.0545 61.0133 57.0524C61.4279 57.0521 61.8297 56.9086 62.1506 56.6461C62.4715 56.3836 62.6919 56.0182 62.7745 55.6118C62.9312 54.843 66.1253 38.2278 53.2521 23.0008Z" fill="#DB4BEF"/>
<path d="M63.2529 23.0013C62.6991 21.8532 62.5336 20.556 62.7816 19.3056C63.0296 18.0551 63.6775 16.9193 64.6276 16.0696C65.5777 15.2199 66.7784 14.7023 68.0484 14.5951C69.3184 14.4878 70.5887 14.7967 71.6678 15.475C72.7469 16.1534 73.576 17.1645 74.0301 18.3556C74.4842 19.5467 74.5386 20.8533 74.1851 22.078C73.8315 23.3028 73.0892 24.3793 72.0703 25.145C71.0513 25.9107 69.811 26.3241 68.5365 26.3228C67.5672 26.3235 66.613 26.0823 65.7604 25.6212C54.3649 39.3926 57.1186 54.1941 57.2604 54.8958C57.3072 55.1276 57.3078 55.3664 57.2623 55.5984C57.2167 55.8305 57.1257 56.0513 56.9947 56.2482C56.8637 56.4451 56.6952 56.6142 56.4988 56.7459C56.3023 56.8776 56.0819 56.9692 55.85 57.0156C55.7325 57.0424 55.6123 57.055 55.4918 57.0529C55.0772 57.0526 54.6755 56.9091 54.3545 56.6465C54.0336 56.384 53.8132 56.0187 53.7306 55.6123C53.5739 54.8435 50.4023 38.2282 63.2529 23.0013Z" fill="#DB4BEF"/>
<path d="M58.0229 102.427C69.3488 102.427 78.5303 93.5817 78.5303 82.6698C78.5303 71.7579 69.3488 62.9121 58.0229 62.9121C46.6971 62.9121 37.5156 71.7579 37.5156 82.6698C37.5156 93.5817 46.6971 102.427 58.0229 102.427Z" fill="#DB4BEF"/>
<path d="M58.0218 92.2388C78.6129 92.2388 95.3052 81.2508 95.3052 67.6965C95.3052 54.1422 78.6129 43.1543 58.0218 43.1543C37.4307 43.1543 20.7383 54.1422 20.7383 67.6965C20.7383 81.2508 37.4307 92.2388 58.0218 92.2388Z" fill="#E286F2"/>
<path d="M58.0224 82.5356C72.2087 82.5356 83.7089 71.5477 83.7089 57.9934C83.7089 44.4391 72.2087 33.4512 58.0224 33.4512C43.8362 33.4512 32.3359 44.4391 32.3359 57.9934C32.3359 71.5477 43.8362 82.5356 58.0224 82.5356Z" fill="#E286F2"/>
<path d="M42.375 61.561C42.375 61.8372 42.375 62.1134 42.375 62.3895C42.375 70.003 49.3825 76.1758 58.0466 76.1758C66.7108 76.1758 73.7182 70.003 73.7182 62.3895C73.7182 62.1134 73.7182 61.8372 73.7182 61.561H42.375Z" fill="#CCFFE2"/>
<path d="M50.9348 61.561C50.9006 61.8085 50.8806 62.0577 50.875 62.3075C50.875 65.741 54.0392 68.5251 57.9348 68.5251C61.8303 68.5251 64.9944 65.741 64.9944 62.3075C64.9888 62.0577 64.9689 61.8085 64.9348 61.561H50.9348Z" fill="#3F4441"/>
<path d="M42.375 62.9567C42.375 62.6805 42.375 62.4043 42.375 62.1282C42.375 54.5147 49.3825 48.3418 58.0466 48.3418C66.7108 48.3418 73.7182 54.5147 73.7182 62.1282C73.7182 62.4043 73.7182 62.6805 73.7182 62.9567H42.375Z" fill="#CCFFE2"/>
<path d="M50.9348 63.1062C50.9003 62.8588 50.8803 62.6095 50.875 62.3598C50.875 58.9262 54.0392 56.1421 57.9348 56.1421C61.8303 56.1421 64.9944 58.9262 64.9944 62.3598C64.9891 62.6095 64.9692 62.8588 64.9348 63.1062H50.9348Z" fill="#3F4441"/>
<defs>
<linearGradient id="paint0_linear" x1="57.3372" y1="194.632" x2="57.3372" y2="140.801" gradientUnits="userSpaceOnUse">
<stop stop-color="white" stop-opacity="0"/>
<stop offset="0.05" stop-color="#FAE6FD" stop-opacity="0.14"/>
<stop offset="0.15" stop-color="#F1B8F9" stop-opacity="0.4"/>
<stop offset="0.24" stop-color="#E991F5" stop-opacity="0.61"/>
<stop offset="0.33" stop-color="#E373F3" stop-opacity="0.78"/>
<stop offset="0.41" stop-color="#DF5DF1" stop-opacity="0.9"/>
<stop offset="0.48" stop-color="#DC50EF" stop-opacity="0.97"/>
<stop offset="0.53" stop-color="#DB4BEF"/>
</linearGradient>
<linearGradient id="paint1_linear" x1="57.3381" y1="187.139" x2="57.3381" y2="148.295" gradientUnits="userSpaceOnUse">
<stop stop-color="white" stop-opacity="0"/>
<stop offset="0.09" stop-color="#F8F4FD" stop-opacity="0.14"/>
<stop offset="0.27" stop-color="#ECDEF9" stop-opacity="0.4"/>
<stop offset="0.44" stop-color="#E2CDF5" stop-opacity="0.61"/>
<stop offset="0.6" stop-color="#DABFF3" stop-opacity="0.78"/>
<stop offset="0.75" stop-color="#D4B5F1" stop-opacity="0.9"/>
<stop offset="0.87" stop-color="#D0AFEF" stop-opacity="0.97"/>
<stop offset="0.97" stop-color="#CFADEF"/>
</linearGradient>
</defs>
</svg>
