<svg width="122" height="214" viewBox="0 0 122 214" fill="none" xmlns="http://www.w3.org/2000/svg">
<g opacity="0.41">
<path opacity="0.41" d="M85.8761 36.59C92.3057 36.59 97.5179 31.3768 97.5179 24.9459C97.5179 18.515 92.3057 13.3018 85.8761 13.3018C79.4466 13.3018 74.2344 18.515 74.2344 24.9459C74.2344 31.3768 79.4466 36.59 85.8761 36.59Z" fill="#33339E"/>
<path opacity="0.41" d="M85.8817 32.3875C89.9908 32.3875 93.3219 29.0557 93.3219 24.9457C93.3219 20.8357 89.9908 17.5039 85.8817 17.5039C81.7725 17.5039 78.4414 20.8357 78.4414 24.9457C78.4414 29.0557 81.7725 32.3875 85.8817 32.3875Z" fill="#0062FF"/>
<path opacity="0.41" d="M85.8747 30.1188C88.7309 30.1188 91.0463 27.8029 91.0463 24.9461C91.0463 22.0893 88.7309 19.7734 85.8747 19.7734C83.0185 19.7734 80.7031 22.0893 80.7031 24.9461C80.7031 27.8029 83.0185 30.1188 85.8747 30.1188Z" fill="#8FD8F2"/>
</g>
<g opacity="0.41">
<path opacity="0.41" d="M109.439 97.1174C115.868 97.1174 121.08 91.9041 121.08 85.4732C121.08 79.0424 115.868 73.8291 109.439 73.8291C103.009 73.8291 97.7969 79.0424 97.7969 85.4732C97.7969 91.9041 103.009 97.1174 109.439 97.1174Z" fill="#33339E"/>
<path opacity="0.41" d="M109.436 92.9148C113.545 92.9148 116.877 89.583 116.877 85.473C116.877 81.3631 113.545 78.0312 109.436 78.0312C105.327 78.0312 101.996 81.3631 101.996 85.473C101.996 89.583 105.327 92.9148 109.436 92.9148Z" fill="#0062FF"/>
<path opacity="0.41" d="M109.433 90.6461C112.289 90.6461 114.605 88.3303 114.605 85.4735C114.605 82.6167 112.289 80.3008 109.433 80.3008C106.577 80.3008 104.262 82.6167 104.262 85.4735C104.262 88.3303 106.577 90.6461 109.433 90.6461Z" fill="#8FD8F2"/>
</g>
<path d="M58.4401 193.368C90.7156 193.368 116.88 188.378 116.88 182.224C116.88 176.069 90.7156 171.08 58.4401 171.08C26.1645 171.08 0 176.069 0 182.224C0 188.378 26.1645 193.368 58.4401 193.368Z" fill="url(#paint0_linear)"/>
<path d="M58.9524 213.916C78.1051 213.916 93.6314 198.387 93.6314 179.23C93.6314 160.073 78.1051 144.544 58.9524 144.544C39.7997 144.544 24.2734 160.073 24.2734 179.23C24.2734 198.387 39.7997 213.916 58.9524 213.916Z" fill="url(#paint1_linear)"/>
<path d="M58.9499 206.385C73.944 206.385 86.0991 194.228 86.0991 179.23C86.0991 164.233 73.944 152.076 58.9499 152.076C43.9559 152.076 31.8008 164.233 31.8008 179.23C31.8008 194.228 43.9559 206.385 58.9499 206.385Z" fill="url(#paint2_linear)"/>
<path d="M58.9503 200.377C70.6265 200.377 80.092 190.909 80.092 179.231C80.092 167.552 70.6265 158.084 58.9503 158.084C47.2741 158.084 37.8086 167.552 37.8086 179.231C37.8086 190.909 47.2741 200.377 58.9503 200.377Z" fill="url(#paint3_linear)"/>
<path d="M58.4401 193.368C90.7156 193.368 116.88 188.378 116.88 182.224C116.88 176.069 90.7156 171.08 58.4401 171.08C26.1645 171.08 0 176.069 0 182.224C0 188.378 26.1645 193.368 58.4401 193.368Z" fill="url(#paint4_linear)"/>
<path d="M116.931 58.0045C116.932 47.7361 114.208 37.6514 109.036 28.781C103.864 19.9106 96.4309 12.5726 87.4952 7.51684C78.5595 2.46108 68.4419 -0.131127 58.1765 0.00510576C47.9111 0.141338 37.8659 3.00112 29.0674 8.29223C20.2689 13.5833 13.0327 21.1161 8.09817 30.1206C3.16365 39.1251 0.707791 49.2785 0.981563 59.5433C1.25534 69.8081 4.24893 79.8161 9.6564 88.5447C15.0639 97.2732 22.6913 104.409 31.7593 109.224C39.1527 114.567 45.1796 121.582 49.3489 129.697C53.5182 137.811 55.7121 146.796 55.7518 155.92L58.9533 167.116L61.9831 155.92C62.0263 146.875 64.1872 137.967 68.2928 129.908C72.3983 121.85 78.3343 114.865 85.6248 109.515C95.0629 104.625 102.975 97.2333 108.496 88.1487C114.018 79.0641 116.935 68.636 116.931 58.0045V58.0045Z" fill="#5E9599"/>
<path d="M58.9502 107.977C86.5973 107.977 109.01 85.5604 109.01 57.9076C109.01 30.2549 86.5973 7.83789 58.9502 7.83789C31.303 7.83789 8.89062 30.2549 8.89062 57.9076C8.89062 85.5604 31.303 107.977 58.9502 107.977Z" fill="white"/>
<path d="M47.1122 30.9059C49.8352 29.6653 50.5565 25.3963 48.7233 21.371C46.89 17.3457 43.1965 15.0882 40.4734 16.3288C37.7504 17.5695 37.0291 21.8384 38.8623 25.8637C40.6956 29.8891 44.3891 32.1465 47.1122 30.9059Z" fill="#3087EF"/>
<path d="M79.1686 25.277C81.0018 21.2516 80.2805 16.9827 77.5575 15.742C74.8345 14.5014 71.1409 16.7589 69.3076 20.7842C67.4744 24.8096 68.1957 29.0785 70.9188 30.3191C73.6418 31.5598 77.3353 29.3023 79.1686 25.277Z" fill="#3087EF"/>
<path d="M58.9529 103.133C69.8625 103.133 78.7065 89.3014 78.7065 72.239C78.7065 55.1766 69.8625 41.3447 58.9529 41.3447C48.0432 41.3447 39.1992 55.1766 39.1992 72.239C39.1992 89.3014 48.0432 103.133 58.9529 103.133Z" fill="#3087EF"/>
<path d="M58.9513 94.5567C72.5028 94.5567 83.4885 77.8609 83.4885 57.2657C83.4885 36.6704 72.5028 19.9746 58.9513 19.9746C45.3998 19.9746 34.4141 36.6704 34.4141 57.2657C34.4141 77.8609 45.3998 94.5567 58.9513 94.5567Z" fill="#43C3EF"/>
<path d="M58.9518 72.1045C77.9272 72.1045 93.3099 61.1166 93.3099 47.5622C93.3099 34.0079 77.9272 23.02 58.9518 23.02C39.9764 23.02 24.5938 34.0079 24.5938 47.5622C24.5938 61.1166 39.9764 72.1045 58.9518 72.1045Z" fill="#43C3EF"/>
<path d="M43.3008 51.1299C43.3008 51.3986 43.3008 51.6748 43.3008 51.9509C43.3008 59.5644 50.3082 65.7373 58.9723 65.7373C67.6365 65.7373 74.6439 59.5644 74.6439 51.9509C74.6439 51.6748 74.6439 51.3986 74.6439 51.1299H43.3008Z" fill="#CCFFE2"/>
<path d="M51.8644 51.1299C51.8267 51.3769 51.8067 51.6264 51.8047 51.8763C51.8047 55.3098 54.9614 58.094 58.8569 58.094C62.7524 58.094 65.9166 55.3098 65.9166 51.8763C65.911 51.6266 65.891 51.3773 65.8569 51.1299H51.8644Z" fill="#3F4441"/>
<path d="M43.3008 52.5185C43.3008 52.2498 43.3008 51.9736 43.3008 51.6975C43.3008 44.084 50.3082 37.9111 58.9723 37.9111C67.6365 37.9111 74.6439 44.084 74.6439 51.6975C74.6439 51.9736 74.6439 52.2498 74.6439 52.5185H43.3008Z" fill="#CCFFE2"/>
<path d="M51.8644 52.675C51.8267 52.428 51.8067 52.1785 51.8047 51.9286C51.8047 48.4951 54.9614 45.7109 58.8569 45.7109C62.7524 45.7109 65.9166 48.4951 65.9166 51.9286C65.911 52.1784 65.891 52.4276 65.8569 52.675H51.8644Z" fill="#3F4441"/>
<path d="M51.9102 29.8198C51.9102 29.9467 51.9102 30.0661 51.9102 30.1856C51.9102 33.5818 55.0295 36.3286 58.8728 36.3286C62.7161 36.3286 65.8355 33.5818 65.8355 30.1856C65.8355 30.0661 65.8355 29.9467 65.8355 29.8198H51.9102Z" fill="#CCFFE2"/>
<path d="M55.7232 29.8198C55.7121 29.934 55.7121 30.049 55.7232 30.1632C55.8151 30.932 56.1856 31.6404 56.7646 32.1544C57.3436 32.6683 58.0908 32.9522 58.865 32.9522C59.6391 32.9522 60.3863 32.6683 60.9653 32.1544C61.5443 31.6404 61.9148 30.932 62.0067 30.1632C62.0141 30.0488 62.0141 29.9342 62.0067 29.8198H55.7232Z" fill="#3F4441"/>
<path d="M51.9102 30.4398C51.9102 30.3204 51.9102 30.2009 51.9102 30.074C51.9102 26.6853 55.0295 23.9385 58.8728 23.9385C62.7161 23.9385 65.8355 26.6853 65.8355 30.074C65.8355 30.2009 65.8355 30.3204 65.8355 30.4398H51.9102Z" fill="#CCFFE2"/>
<path d="M55.7229 30.5215C55.7122 30.4073 55.7122 30.2924 55.7229 30.1782C55.8148 29.4094 56.1854 28.7009 56.7643 28.187C57.3433 27.673 58.0906 27.3892 58.8647 27.3892C59.6388 27.3892 60.3861 27.673 60.9651 28.187C61.544 28.7009 61.9146 29.4094 62.0065 30.1782C62.0136 30.2925 62.0136 30.4072 62.0065 30.5215H55.7229Z" fill="#3F4441"/>
<path d="M62.7483 70.7163C62.7444 70.7485 62.7444 70.7811 62.7483 70.8133C62.7483 70.776 62.7483 70.7462 62.7483 70.7163H56.3603C56.3603 70.7163 56.3603 70.776 56.3603 70.8133V70.7163H49.9648V73.8513C49.9764 74.6276 50.2899 75.369 50.8388 75.918C51.3877 76.467 52.1289 76.7806 52.9051 76.7921H53.42C54.1962 76.7806 54.9374 76.467 55.4864 75.918C56.0353 75.369 56.3488 74.6276 56.3603 73.8513V73.9931C56.3719 74.7707 56.6864 75.5132 57.237 76.0624C57.7875 76.6116 58.5306 76.9243 59.3081 76.934H59.8155C60.593 76.9243 61.3361 76.6116 61.8866 76.0624C62.4372 75.5132 62.7517 74.7707 62.7633 73.9931C62.7748 74.7694 63.0883 75.5108 63.6372 76.0598C64.1862 76.6089 64.9274 76.9224 65.7036 76.934H66.2185C66.9947 76.9224 67.7358 76.6089 68.2848 76.0598C68.8337 75.5108 69.1472 74.7694 69.1587 73.9931V70.7163H62.7483Z" fill="#E1F3FF"/>
<defs>
<linearGradient id="paint0_linear" x1="58.4401" y1="193.368" x2="58.4401" y2="171.072" gradientUnits="userSpaceOnUse">
<stop stop-color="white" stop-opacity="0"/>
<stop offset="0.09" stop-color="#E5F7FD" stop-opacity="0.14"/>
<stop offset="0.27" stop-color="#B4E7F9" stop-opacity="0.4"/>
<stop offset="0.44" stop-color="#8CDAF5" stop-opacity="0.61"/>
<stop offset="0.6" stop-color="#6CD0F3" stop-opacity="0.78"/>
<stop offset="0.75" stop-color="#56C9F1" stop-opacity="0.9"/>
<stop offset="0.87" stop-color="#48C5EF" stop-opacity="0.97"/>
<stop offset="0.97" stop-color="#43C3EF"/>
</linearGradient>
<linearGradient id="paint1_linear" x1="58.9524" y1="213.916" x2="58.9524" y2="144.544" gradientUnits="userSpaceOnUse">
<stop stop-color="white" stop-opacity="0"/>
<stop offset="0.05" stop-color="#E2EEFD" stop-opacity="0.14"/>
<stop offset="0.15" stop-color="#ADCFF9" stop-opacity="0.4"/>
<stop offset="0.24" stop-color="#80B6F5" stop-opacity="0.61"/>
<stop offset="0.33" stop-color="#5DA1F3" stop-opacity="0.78"/>
<stop offset="0.41" stop-color="#4593F1" stop-opacity="0.9"/>
<stop offset="0.48" stop-color="#358AEF" stop-opacity="0.97"/>
<stop offset="0.53" stop-color="#3087EF"/>
</linearGradient>
<linearGradient id="paint2_linear" x1="58.9499" y1="206.385" x2="58.9499" y2="152.076" gradientUnits="userSpaceOnUse">
<stop stop-color="white" stop-opacity="0"/>
<stop offset="0.09" stop-color="#E5F7FD" stop-opacity="0.14"/>
<stop offset="0.27" stop-color="#B4E7F9" stop-opacity="0.4"/>
<stop offset="0.44" stop-color="#8CDAF5" stop-opacity="0.61"/>
<stop offset="0.6" stop-color="#6CD0F3" stop-opacity="0.78"/>
<stop offset="0.74" stop-color="#56C9F1" stop-opacity="0.9"/>
<stop offset="0.87" stop-color="#48C5EF" stop-opacity="0.97"/>
<stop offset="0.96" stop-color="#43C3EF"/>
</linearGradient>
<linearGradient id="paint3_linear" x1="58.9503" y1="200.377" x2="58.9503" y2="158.084" gradientUnits="userSpaceOnUse">
<stop stop-color="white" stop-opacity="0"/>
<stop offset="0.09" stop-color="#F5FCFD" stop-opacity="0.14"/>
<stop offset="0.27" stop-color="#E2F6F9" stop-opacity="0.4"/>
<stop offset="0.44" stop-color="#D3F2F5" stop-opacity="0.61"/>
<stop offset="0.6" stop-color="#C7EEF3" stop-opacity="0.78"/>
<stop offset="0.75" stop-color="#BEEBF1" stop-opacity="0.9"/>
<stop offset="0.87" stop-color="#B9EAEF" stop-opacity="0.97"/>
<stop offset="0.97" stop-color="#B7E9EF"/>
</linearGradient>
<linearGradient id="paint4_linear" x1="58.4401" y1="171.08" x2="58.4401" y2="193.368" gradientUnits="userSpaceOnUse">
<stop stop-color="white" stop-opacity="0"/>
<stop offset="0.11" stop-color="#FBFEFF" stop-opacity="0.02"/>
<stop offset="0.24" stop-color="#F1FBFE" stop-opacity="0.07"/>
<stop offset="0.37" stop-color="#E0F5FC" stop-opacity="0.17"/>
<stop offset="0.5" stop-color="#C8EDFA" stop-opacity="0.29"/>
<stop offset="0.64" stop-color="#A9E3F8" stop-opacity="0.46"/>
<stop offset="0.77" stop-color="#83D7F4" stop-opacity="0.66"/>
<stop offset="0.91" stop-color="#57C9F1" stop-opacity="0.9"/>
<stop offset="0.97" stop-color="#43C3EF"/>
</linearGradient>
</defs>
</svg>
