<svg width="116" height="199" viewBox="0 0 116 199" fill="none" xmlns="http://www.w3.org/2000/svg">
<path d="M54.925 198.174C74.0776 198.174 89.6039 182.644 89.6039 163.488C89.6039 144.331 74.0776 128.802 54.925 128.802C35.7724 128.802 20.2461 144.331 20.2461 163.488C20.2461 182.644 35.7724 198.174 54.925 198.174Z" fill="url(#paint0_linear)"/>
<path d="M54.9226 190.643C69.9166 190.643 82.0717 178.485 82.0717 163.488C82.0717 148.491 69.9166 136.333 54.9226 136.333C39.9285 136.333 27.7734 148.491 27.7734 163.488C27.7734 178.485 39.9285 190.643 54.9226 190.643Z" fill="url(#paint1_linear)"/>
<path d="M54.923 184.634C66.5992 184.634 76.0648 175.166 76.0648 163.488C76.0648 151.809 66.5992 142.342 54.923 142.342C43.2467 142.342 33.7812 151.809 33.7812 163.488C33.7812 175.166 43.2467 184.634 54.923 184.634Z" fill="url(#paint2_linear)"/>
<path d="M115.97 57.9891C115.968 47.7221 113.242 37.6394 108.069 28.7712C102.897 19.903 95.4631 12.5672 86.5279 7.51325C77.5928 2.45929 67.4764 -0.131646 57.2123 0.00514937C46.9483 0.141945 36.9045 3.00157 28.1071 8.29185C19.3098 13.5821 12.0741 21.1135 7.13952 30.1164C2.20492 39.1193 -0.251783 49.271 0.0203908 59.5345C0.292564 69.7979 3.28381 79.8052 8.68863 88.5338C14.0934 97.2624 21.7181 104.399 30.7835 109.216C38.1738 114.557 44.1988 121.568 48.368 129.679C52.5372 137.789 54.7327 146.77 54.7759 155.889L57.9773 167.086L61.0072 155.889C61.0498 146.844 63.2105 137.934 67.3161 129.874C71.4216 121.815 77.3579 114.829 84.649 109.477C94.0876 104.592 102.002 97.2053 107.526 88.1246C113.049 79.0438 115.971 68.6187 115.97 57.9891Z" fill="#5E9599"/>
<path d="M57.997 107.97C85.6441 107.97 108.057 85.5526 108.057 57.8998C108.057 30.2471 85.6441 7.83008 57.997 7.83008C30.3499 7.83008 7.9375 30.2471 7.9375 57.8998C7.9375 85.5526 30.3499 107.97 57.997 107.97Z" fill="white"/>
<path d="M22.0731 77.4855C24.7962 76.2448 25.5175 71.9759 23.6842 67.9506C21.851 63.9252 18.1574 61.6678 15.4344 62.9084C12.7114 64.1491 11.99 68.418 13.8233 72.4433C15.6565 76.4687 19.3501 78.7261 22.0731 77.4855Z" fill="#249155"/>
<path d="M101.833 72.547C103.666 68.5216 102.944 64.2528 100.221 63.0121C97.4985 61.7715 93.8049 64.0289 91.9717 68.0543C90.1385 72.0796 90.8598 76.3485 93.5828 77.5891C96.3058 78.8298 99.9993 76.5723 101.833 72.547Z" fill="#249155"/>
<path d="M50.4383 21.019C50.8317 20.2203 51.0361 19.3417 51.0354 18.4513C51.0338 17.1667 50.6114 15.918 49.8326 14.8965C49.0538 13.8749 47.9618 13.1369 46.7236 12.7954C45.4855 12.4539 44.1695 12.5277 42.9773 13.0056C41.7852 13.4835 40.7824 14.3391 40.1228 15.4413C39.4632 16.5436 39.183 17.8317 39.3252 19.1084C39.4673 20.3852 40.024 21.5801 40.9099 22.5102C41.7958 23.4403 42.962 24.0543 44.2301 24.2582C45.4982 24.462 46.7982 24.2445 47.9309 23.6389C59.3264 37.4029 56.5727 52.2044 56.4309 52.9134C56.3385 53.3815 56.4349 53.8671 56.6992 54.2642C56.9634 54.6614 57.374 54.9379 57.8413 55.0333C57.9593 55.0568 58.0792 55.0693 58.1995 55.0706C58.6161 55.0703 59.0198 54.9259 59.3421 54.662C59.6644 54.3981 59.8856 54.0309 59.9682 53.6226C60.1174 52.8314 63.2891 36.2385 50.4383 21.019Z" fill="#249155"/>
<path d="M57.842 94.8023C78.433 94.8023 95.1253 83.8143 95.1253 70.26C95.1253 56.7057 78.433 45.7178 57.842 45.7178C37.2509 45.7178 20.5586 56.7057 20.5586 70.26C20.5586 83.8143 37.2509 94.8023 57.842 94.8023Z" fill="#3AC17E"/>
<path d="M57.8388 85.0991C72.025 85.0991 83.5253 74.1112 83.5253 60.5569C83.5253 47.0026 72.025 36.0146 57.8388 36.0146C43.6526 36.0146 32.1523 47.0026 32.1523 60.5569C32.1523 74.1112 43.6526 85.0991 57.8388 85.0991Z" fill="#3AC17E"/>
<path d="M42.1914 64.1245C42.1914 64.4007 42.1914 64.6694 42.1914 64.953C42.1914 72.5665 49.1914 78.7394 57.863 78.7394C66.5347 78.7394 73.5346 72.5665 73.5346 64.953C73.5346 64.6694 73.5346 64.4007 73.5346 64.1245H42.1914Z" fill="#CCFFE2"/>
<path d="M41.3538 64.3266C41.3538 64.0505 41.3164 63.7817 41.3164 63.5056C41.3164 55.8846 48.7044 49.7192 57.8088 49.7192C66.9133 49.7192 74.3014 55.8846 74.3014 63.5056C74.3014 63.7817 74.3014 64.0505 74.3014 64.3266H41.3538Z" fill="#249155"/>
<path d="M50.755 64.1245C50.7173 64.3716 50.6973 64.621 50.6953 64.8709C50.6953 68.3045 53.852 71.0886 57.7551 71.0886C61.6581 71.0886 64.8074 68.3045 64.8074 64.8709C64.8053 64.621 64.7854 64.3716 64.7477 64.1245H50.755Z" fill="#3F4441"/>
<defs>
<linearGradient id="paint0_linear" x1="54.925" y1="198.174" x2="54.925" y2="128.802" gradientUnits="userSpaceOnUse">
<stop stop-color="white" stop-opacity="0"/>
<stop offset="0.13" stop-color="#B8D8C3" stop-opacity="0.34"/>
<stop offset="0.25" stop-color="#7DB792" stop-opacity="0.63"/>
<stop offset="0.36" stop-color="#53A06E" stop-opacity="0.83"/>
<stop offset="0.46" stop-color="#399259" stop-opacity="0.96"/>
<stop offset="0.53" stop-color="#308D51"/>
</linearGradient>
<linearGradient id="paint1_linear" x1="54.9226" y1="190.643" x2="54.9226" y2="136.333" gradientUnits="userSpaceOnUse">
<stop stop-color="white" stop-opacity="0"/>
<stop offset="0.12" stop-color="#DEF4E6" stop-opacity="0.17"/>
<stop offset="0.33" stop-color="#A7E3BD" stop-opacity="0.46"/>
<stop offset="0.53" stop-color="#7CD59C" stop-opacity="0.69"/>
<stop offset="0.71" stop-color="#5DCB84" stop-opacity="0.85"/>
<stop offset="0.85" stop-color="#4AC576" stop-opacity="0.95"/>
<stop offset="0.96" stop-color="#43C371" stop-opacity="0.99"/>
</linearGradient>
<linearGradient id="paint2_linear" x1="54.923" y1="184.634" x2="54.923" y2="142.342" gradientUnits="userSpaceOnUse">
<stop stop-color="white" stop-opacity="0"/>
<stop offset="0.07" stop-color="#F9FCF2" stop-opacity="0.12"/>
<stop offset="0.26" stop-color="#EAF7D3" stop-opacity="0.38"/>
<stop offset="0.43" stop-color="#DEF2B9" stop-opacity="0.6"/>
<stop offset="0.6" stop-color="#D5EEA5" stop-opacity="0.77"/>
<stop offset="0.74" stop-color="#CEEB97" stop-opacity="0.9"/>
<stop offset="0.87" stop-color="#CAEA8E" stop-opacity="0.97"/>
<stop offset="0.97" stop-color="#C9E98B"/>
</linearGradient>
</defs>
</svg>
