<svg width="758" height="342" viewBox="0 0 758 342" fill="none" xmlns="http://www.w3.org/2000/svg">
<path opacity="0.33" d="M109.555 296.619C170 296.619 219 294.336 219 291.52C219 288.704 170 286.421 109.555 286.421C49.1098 286.421 0.109375 288.704 0.109375 291.52C0.109375 294.336 49.1098 296.619 109.555 296.619Z" fill="black"/>
<path d="M96.3227 188.942H82.4883V269.242H96.3227V188.942Z" fill="#1EABBA"/>
<path d="M96.3206 194.326V188.942H82.3438V199.08L96.3206 194.326Z" fill="#1A52A0"/>
<path d="M70.1569 256.99H107.776C110.958 256.99 114.009 258.254 116.259 260.504C118.509 262.754 119.773 265.806 119.773 268.988V286.076C119.773 287.405 119.246 288.679 118.306 289.618C117.367 290.557 116.093 291.085 114.764 291.085H62.7335C61.5165 291.085 60.3492 290.602 59.4886 289.741C58.628 288.88 58.1445 287.713 58.1445 286.496V269.003C58.1426 267.425 58.4519 265.862 59.0549 264.403C59.6579 262.945 60.5426 261.62 61.6585 260.504C62.7743 259.388 64.0993 258.504 65.5576 257.901C67.0159 257.298 68.5788 256.988 70.1569 256.99Z" fill="#1C76A5"/>
<path d="M70.3753 256.982H70.1579C68.2929 256.987 66.4547 257.426 64.7891 258.265V285.079H70.3753V256.982Z" fill="#1658A0"/>
<path d="M107.778 256.982H107.613V285.079H113.2V258.287C111.52 257.432 109.663 256.986 107.778 256.982Z" fill="#1658A0"/>
<path d="M92.4378 256.99H86.8516V285.086H92.4378V256.99Z" fill="#1658A0"/>
<path d="M81.3909 256.99H75.8047V285.086H81.3909V256.99Z" fill="#1658A0"/>
<path d="M102.813 257.035H97.2266V285.086H102.813V257.035Z" fill="#1658A0"/>
<path d="M89.8509 104.249H89.8209C88.181 104.249 86.8516 105.578 86.8516 107.218V134.287C86.8516 135.927 88.181 137.257 89.8209 137.257H89.8509C91.4908 137.257 92.8202 135.927 92.8202 134.287V107.218C92.8202 105.578 91.4908 104.249 89.8509 104.249Z" fill="#1DACBA"/>
<path d="M89.8549 126.257C97.7398 126.257 104.132 124.148 104.132 121.548C104.132 118.947 97.7398 116.839 89.8549 116.839C81.9701 116.839 75.5781 118.947 75.5781 121.548C75.5781 124.148 81.9701 126.257 89.8549 126.257Z" stroke="#1DACBA" stroke-width="4.49899" stroke-miterlimit="10"/>
<path d="M89.8254 134.595H89.3605C76.7091 134.595 66.4531 144.851 66.4531 157.502C66.4531 170.153 76.7091 180.409 89.3605 180.409H89.8254C102.477 180.409 112.733 170.153 112.733 157.502C112.733 144.851 102.477 134.595 89.8254 134.595Z" fill="#6BCED4"/>
<path d="M83.0694 135.472C78.2837 136.84 74.0737 139.729 71.0758 143.702C68.0779 147.676 66.4552 152.517 66.4531 157.494C66.4531 163.57 68.8666 169.396 73.1625 173.692C77.4585 177.988 83.2851 180.402 89.3605 180.402H89.8254C92.2765 180.402 94.7119 180.01 97.0388 179.239C91.5275 170.946 82.6345 154.532 83.0694 135.472Z" fill="#1EABBA"/>
<path d="M87.9265 144.447H86.8242C82.1902 144.447 78.4336 148.204 78.4336 152.838C78.4336 157.472 82.1902 161.229 86.8242 161.229H87.9265C92.5605 161.229 96.3171 157.472 96.3171 152.838C96.3171 148.204 92.5605 144.447 87.9265 144.447Z" fill="#6BCED4"/>
<path d="M107.034 182.217H71.9722C70.1128 182.217 68.6055 183.722 68.6055 185.58C68.6055 187.437 70.1128 188.943 71.9722 188.943H107.034C108.894 188.943 110.401 187.437 110.401 185.58C110.401 183.722 108.894 182.217 107.034 182.217Z" fill="#016C8C"/>
<path d="M109.826 172.049H68.8477C66.2222 172.049 64.0938 174.177 64.0938 176.803V177.463C64.0938 180.088 66.2222 182.217 68.8477 182.217H109.826C112.452 182.217 114.58 180.088 114.58 177.463V176.803C114.58 174.177 112.452 172.049 109.826 172.049Z" fill="#0186B6"/>
<path d="M105.419 296.798C70.2667 291.474 91.7794 187.75 204.397 188.559C329.754 194.131 331.081 296.798 302.692 296.348C277.948 296.58 105.419 296.798 105.419 296.798Z" fill="#72DCE1"/>
<path d="M315.576 256.531H92.5458C86.4347 277.009 91.4436 294.698 105.42 296.812C105.42 296.812 277.949 296.58 302.694 296.347C314.736 296.542 321.432 278.171 315.576 256.531Z" fill="#1CABBA"/>
<path d="M258.4 198.982C243.733 193.336 225.887 189.527 204.412 188.575C181.917 188.417 163.081 192.429 147.59 198.982H258.4Z" fill="#1C7A9F"/>
<path d="M204.372 226.568H204.365C195.325 226.568 187.996 233.897 187.996 242.937V262.965C187.996 272.005 195.325 279.334 204.365 279.334H204.372C213.413 279.334 220.741 272.005 220.741 262.965V242.937C220.741 233.897 213.413 226.568 204.372 226.568Z" fill="#026A8D"/>
<path d="M215.389 241.715C215.389 235.627 210.456 230.692 204.37 230.692C198.285 230.692 193.352 235.627 193.352 241.715V255.182C193.352 261.269 198.285 266.204 204.37 266.204C210.456 266.204 215.389 261.269 215.389 255.182V241.715Z" fill="#019DA9"/>
<path d="M204.366 250.653C208.192 250.653 211.294 247.551 211.294 243.724C211.294 239.898 208.192 236.796 204.366 236.796C200.539 236.796 197.438 239.898 197.438 243.724C197.438 247.551 200.539 250.653 204.366 250.653Z" fill="#FEC93D"/>
<path d="M272.849 227.041H272.841C263.801 227.041 256.473 234.37 256.473 243.41V263.438C256.473 272.478 263.801 279.807 272.841 279.807H272.849C281.889 279.807 289.218 272.478 289.218 263.438V243.41C289.218 234.37 281.889 227.041 272.849 227.041Z" fill="#026A8D"/>
<path d="M283.866 242.188C283.866 236.1 278.932 231.165 272.847 231.165C266.761 231.165 261.828 236.1 261.828 242.188V255.655C261.828 261.742 266.761 266.677 272.847 266.677C278.932 266.677 283.866 261.742 283.866 255.655V242.188Z" fill="#019DA9"/>
<path d="M272.843 251.125C276.669 251.125 279.771 248.023 279.771 244.197C279.771 240.371 276.669 237.269 272.843 237.269C269.016 237.269 265.914 240.371 265.914 244.197C265.914 248.023 269.016 251.125 272.843 251.125Z" fill="#FEC93D"/>
<path d="M136.529 227.041H136.521C127.481 227.041 120.152 234.37 120.152 243.41V263.438C120.152 272.478 127.481 279.807 136.521 279.807H136.529C145.569 279.807 152.898 272.478 152.898 263.438V243.41C152.898 234.37 145.569 227.041 136.529 227.041Z" fill="#026A8D"/>
<path d="M147.545 242.188C147.545 236.1 142.612 231.165 136.527 231.165C130.441 231.165 125.508 236.1 125.508 242.188V255.655C125.508 261.742 130.441 266.677 136.527 266.677C142.612 266.677 147.545 261.742 147.545 255.655V242.188Z" fill="#019DA9"/>
<path d="M136.522 251.125C140.349 251.125 143.451 248.023 143.451 244.197C143.451 240.371 140.349 237.269 136.522 237.269C132.696 237.269 129.594 240.371 129.594 244.197C129.594 248.023 132.696 251.125 136.522 251.125Z" fill="#FEC93D"/>
<path d="M94.875 290.477C96.122 292.18 97.6971 293.617 99.5077 294.703C101.318 295.788 103.328 296.501 105.418 296.798C105.418 296.798 277.946 296.566 302.691 296.333C306.875 296.401 310.414 294.226 313.001 290.462L94.875 290.477Z" fill="#1C7A9F"/>
<path d="M144.35 217.563C143.058 217.563 141.818 217.05 140.904 216.136C139.99 215.222 139.477 213.982 139.477 212.689C139.477 211.397 139.99 210.157 140.904 209.243C141.818 208.329 143.058 207.815 144.35 207.815H262.591C263.884 207.815 265.124 208.329 266.038 209.243C266.952 210.157 267.465 211.397 267.465 212.689C267.465 213.982 266.952 215.222 266.038 216.136C265.124 217.05 263.884 217.563 262.591 217.563H144.35Z" fill="#029DA9"/>
<path d="M262.591 209.352C263.486 209.352 264.344 209.707 264.977 210.34C265.61 210.973 265.965 211.831 265.965 212.726C265.965 213.621 265.61 214.479 264.977 215.112C264.344 215.745 263.486 216.1 262.591 216.1H144.35C143.455 216.1 142.597 215.745 141.964 215.112C141.331 214.479 140.976 213.621 140.976 212.726C140.976 211.831 141.331 210.973 141.964 210.34C142.597 209.707 143.455 209.352 144.35 209.352H262.591ZM262.591 206.353H144.35C142.66 206.353 141.039 207.024 139.843 208.219C138.648 209.415 137.977 211.036 137.977 212.726C137.977 214.416 138.648 216.038 139.843 217.233C141.039 218.428 142.66 219.1 144.35 219.1H262.591C264.282 219.1 265.903 218.428 267.098 217.233C268.293 216.038 268.965 214.416 268.965 212.726C268.965 211.036 268.293 209.415 267.098 208.219C265.903 207.024 264.282 206.353 262.591 206.353Z" fill="#0B688D"/>
<path d="M208.976 209.734H200.938C199.348 209.734 198.059 211.023 198.059 212.614C198.059 214.204 199.348 215.493 200.938 215.493H208.976C210.566 215.493 211.856 214.204 211.856 212.614C211.856 211.023 210.566 209.734 208.976 209.734Z" fill="#FEC93D"/>
<path d="M257.132 209.734H249.094C247.504 209.734 246.215 211.023 246.215 212.614C246.215 214.204 247.504 215.493 249.094 215.493H257.132C258.723 215.493 260.012 214.204 260.012 212.614C260.012 211.023 258.723 209.734 257.132 209.734Z" fill="#FEC93D"/>
<path d="M157.855 209.532H149.817C148.227 209.532 146.938 210.821 146.938 212.412C146.938 214.002 148.227 215.291 149.817 215.291H157.855C159.445 215.291 160.734 214.002 160.734 212.412C160.734 210.821 159.445 209.532 157.855 209.532Z" fill="#FEC93D"/>
<path opacity="0.37" d="M195.091 188.762C90.6172 193.561 71.264 291.639 105.419 296.813L132.278 296.768C116.636 230.28 187.555 192.571 195.091 188.762Z" fill="black"/>
<path d="M294.263 271.476C291.296 271.478 288.377 272.216 285.765 273.623C283.154 275.03 280.932 277.062 279.298 279.538C277.663 282.013 276.668 284.856 276.401 287.81C276.134 290.764 276.603 293.739 277.767 296.468C289.471 296.468 298.364 296.385 302.706 296.348C306.403 296.408 309.589 294.72 312.064 291.729C312.401 289.198 312.193 286.624 311.452 284.181C310.712 281.738 309.457 279.481 307.772 277.563C306.087 275.645 304.011 274.11 301.684 273.062C299.356 272.013 296.831 271.475 294.278 271.483L294.263 271.476Z" fill="#0F5B95"/>
<path d="M294.752 273.373C292.044 273.375 289.382 274.081 287.027 275.419C284.673 276.758 282.706 278.685 281.319 281.011C279.931 283.337 279.171 285.984 279.113 288.692C279.055 291.4 279.7 294.076 280.985 296.46C291.093 296.46 298.764 296.385 302.73 296.348C305.19 296.394 307.595 295.615 309.561 294.136C310.14 292.493 310.437 290.764 310.439 289.022C310.439 286.964 310.033 284.926 309.244 283.025C308.455 281.124 307.299 279.397 305.842 277.943C304.385 276.49 302.655 275.338 300.752 274.554C298.849 273.769 296.81 273.368 294.752 273.373Z" fill="#72DCE1"/>
<path d="M420.925 125.079H413.18V227.259H420.925V125.079Z" fill="#0B6084"/>
<path d="M448.489 124.847H441.043V226.974H448.489V124.847Z" fill="#0B6084"/>
<path d="M444.761 97.373H438.59V140.053H444.761V97.373Z" fill="#0B6084"/>
<path d="M420.934 85.3457H414.598V120.595H420.934V85.3457Z" fill="#0B6084"/>
<path d="M418.909 62.2578H416.727V91.6813H418.909V62.2578Z" fill="#0B6084"/>
<path d="M442.61 73.7979H440.48V104.676H442.61V73.7979Z" fill="#0B6084"/>
<path d="M457.464 120.595H407.143C394.76 120.595 384.723 130.631 384.723 143.011C384.723 155.391 394.76 165.427 407.143 165.427H457.464C469.846 165.427 479.884 155.391 479.884 143.011C479.884 130.631 469.846 120.595 457.464 120.595Z" fill="#0085B2"/>
<path d="M385.254 147.866C386.359 152.846 389.13 157.299 393.108 160.492C397.086 163.685 402.033 165.426 407.134 165.427H457.463C462.57 165.434 467.526 163.697 471.512 160.504C475.498 157.31 478.274 152.852 479.38 147.866H385.254Z" fill="#00717E"/>
<path d="M400.006 140.938H390.933C388.502 140.938 386.531 142.906 386.531 145.335C386.531 147.764 388.502 149.733 390.933 149.733H400.006C402.437 149.733 404.407 147.764 404.407 145.335C404.407 142.906 402.437 140.938 400.006 140.938Z" fill="#FBC53D"/>
<path d="M423.318 140.938H414.245C411.814 140.938 409.844 142.906 409.844 145.335C409.844 147.764 411.814 149.733 414.245 149.733H423.318C425.749 149.733 427.72 147.764 427.72 145.335C427.72 142.906 425.749 140.938 423.318 140.938Z" fill="#FBC53D"/>
<path d="M446.56 140.938H437.487C435.057 140.938 433.086 142.906 433.086 145.335C433.086 147.764 435.057 149.733 437.487 149.733H446.56C448.991 149.733 450.962 147.764 450.962 145.335C450.962 142.906 448.991 140.938 446.56 140.938Z" fill="#FBC53D"/>
<path opacity="0.33" d="M358.102 341.075C435.481 341.075 498.208 338.044 498.208 334.304C498.208 330.565 435.481 327.533 358.102 327.533C280.724 327.533 217.996 330.565 217.996 334.304C217.996 338.044 280.724 341.075 358.102 341.075Z" fill="black"/>
<path opacity="0.37" d="M289.071 328.411L263.922 296.513C263.922 296.513 266.171 282.671 279.968 279.454C283.493 285.918 320.947 327.533 320.947 327.533L289.071 328.411Z" fill="black"/>
<path d="M319.892 308.795L313.893 313.722C312.393 313.722 312.003 328.246 310.609 327.834C306.86 326.701 284.852 301.372 282.91 298.028C281.561 295.694 280.852 293.045 280.855 290.349C280.855 286.282 282.471 282.381 285.346 279.504C288.222 276.627 292.122 275.01 296.19 275.008C298.705 275.002 301.183 275.614 303.406 276.791C305.628 277.967 307.528 279.673 308.937 281.756C310.586 284.208 322.434 293.356 323.184 296.198L315.783 295.448C315.775 303.914 328.365 308.795 319.892 308.795Z" fill="#0085B2"/>
<path d="M303.17 302.872L282.67 283.099C281.477 285.324 280.854 287.81 280.855 290.335C280.857 293.032 281.571 295.68 282.925 298.013C284.867 301.357 306.845 326.686 310.624 327.819C311.111 327.961 311.471 326.266 311.801 324.009L303.17 302.872Z" fill="#135A91"/>
<path d="M317.05 292.299L318.482 290.799C314.733 287.275 309.904 283.301 308.899 281.801C307.599 279.867 305.875 278.254 303.859 277.085C301.842 275.916 299.586 275.221 297.262 275.053L317.05 292.299Z" fill="#135A91"/>
<path d="M386.257 289.727H320.212C309.056 289.727 300.012 298.771 300.012 309.927C300.012 321.083 309.056 330.128 320.212 330.128H386.257C397.414 330.128 406.458 321.083 406.458 309.927C406.458 298.771 397.414 289.727 386.257 289.727Z" fill="#0085B2"/>
<path d="M406.137 313.481H300.328C301.171 318.145 303.622 322.365 307.256 325.406C310.889 328.448 315.475 330.119 320.214 330.128H386.251C390.992 330.128 395.583 328.46 399.218 325.417C402.854 322.374 405.303 318.149 406.137 313.481Z" fill="#135A91"/>
<path d="M741.027 32.8945C749.935 32.8945 757.156 25.6733 757.156 16.7656C757.156 7.85787 749.935 0.636719 741.027 0.636719C732.12 0.636719 724.898 7.85787 724.898 16.7656C724.898 25.6733 732.12 32.8945 741.027 32.8945Z" fill="#4FA6AF"/>
<path d="M747.025 19.0303C750.347 19.0303 753.039 16.3378 753.039 13.0166C753.039 9.69535 750.347 7.00293 747.025 7.00293C743.704 7.00293 741.012 9.69535 741.012 13.0166C741.012 16.3378 743.704 19.0303 747.025 19.0303Z" fill="#62CAD3"/>
<path d="M577.137 138.943C581.913 135.194 703.363 40.5425 727.56 20.9269C729.9 19.0298 730.327 22.0516 732.367 24.2711L732.494 24.4136C733.994 26.0182 737.173 27.053 735.546 28.5002L590.401 157.044C590.254 157.174 590.081 157.272 589.895 157.333C589.708 157.393 589.51 157.415 589.315 157.396C589.119 157.377 588.93 157.318 588.758 157.222C588.586 157.127 588.436 156.997 588.317 156.841L576.492 141.47C576.304 141.221 576.203 140.919 576.203 140.608C576.203 140.296 576.304 139.994 576.492 139.745L576.882 139.22C576.955 139.118 577.041 139.025 577.137 138.943Z" fill="#388C8E"/>
<path d="M731.437 30.3526C734.481 30.3526 736.948 27.8852 736.948 24.8414C736.948 21.7976 734.481 19.3301 731.437 19.3301C728.393 19.3301 725.926 21.7976 725.926 24.8414C725.926 27.8852 728.393 30.3526 731.437 30.3526Z" fill="#388C8E"/>
<path d="M686.048 109.558C711.881 109.558 732.822 88.6162 732.822 62.7833C732.822 36.9505 711.881 16.0088 686.048 16.0088C660.215 16.0088 639.273 36.9505 639.273 62.7833C639.273 88.6162 660.215 109.558 686.048 109.558Z" stroke="#2F98A1" stroke-width="13.497" stroke-miterlimit="10"/>
<path d="M685.996 16.0083C695.247 16.0083 704.291 18.7517 711.983 23.8917C719.675 29.0317 725.67 36.3373 729.21 44.8847C732.751 53.432 733.676 62.8372 731.871 71.9108C730.066 80.9844 725.61 89.3187 719.068 95.86C712.525 102.401 704.19 106.855 695.116 108.659C686.043 110.463 676.637 109.536 668.091 105.995C659.544 102.453 652.239 96.4569 647.1 88.7638C641.962 81.0708 639.22 72.0267 639.221 62.7753C639.221 56.6331 640.431 50.5511 642.782 44.8766C645.133 39.202 648.578 34.0461 652.922 29.7033C657.265 25.3605 662.422 21.9158 668.096 19.566C673.771 17.2162 679.854 16.0073 685.996 16.0083ZM685.996 9.25977C675.41 9.25977 665.061 12.399 656.259 18.2805C647.457 24.162 640.597 32.5216 636.546 42.3021C632.495 52.0826 631.436 62.8447 633.502 73.2273C635.567 83.61 640.666 93.1469 648.152 100.632C655.638 108.117 665.176 113.214 675.559 115.278C685.941 117.343 696.703 116.282 706.483 112.229C716.263 108.177 724.622 101.316 730.502 92.5131C736.382 83.7103 739.52 73.3614 739.519 62.7753C739.501 48.5863 733.856 34.9836 723.822 24.9511C713.788 14.9187 700.185 9.27564 685.996 9.25977Z" fill="url(#paint0_linear)"/>
<path d="M660.435 137.713C690.334 137.713 714.573 113.475 714.573 83.5754C714.573 53.6759 690.334 29.4375 660.435 29.4375C630.535 29.4375 606.297 53.6759 606.297 83.5754C606.297 113.475 630.535 137.713 660.435 137.713Z" stroke="#2F98A1" stroke-width="14.9966" stroke-miterlimit="10"/>
<path d="M660.382 29.43C671.09 29.43 681.557 32.6051 690.46 38.5538C699.363 44.5026 706.302 52.9578 710.399 62.8502C714.497 72.7426 715.569 83.6279 713.48 94.1296C711.391 104.631 706.235 114.278 698.664 121.849C691.092 129.42 681.446 134.577 670.944 136.665C660.442 138.754 649.557 137.682 639.665 133.585C629.772 129.487 621.317 122.548 615.368 113.645C609.42 104.742 606.244 94.2753 606.244 83.5678C606.246 69.2102 611.951 55.4412 622.103 45.2888C632.256 35.1364 646.025 29.4319 660.382 29.43ZM660.382 21.9316C648.192 21.9316 636.275 25.5465 626.139 32.3192C616.003 39.0919 608.103 48.7181 603.438 59.9807C598.773 71.2432 597.552 83.6362 599.93 95.5925C602.309 107.549 608.179 118.531 616.799 127.151C625.419 135.771 636.401 141.641 648.358 144.02C660.314 146.398 672.707 145.177 683.969 140.512C695.232 135.847 704.858 127.947 711.631 117.811C718.404 107.675 722.019 95.7583 722.019 83.5678C722.001 67.2264 715.501 51.5593 703.946 40.0042C692.391 28.449 676.724 21.9495 660.382 21.9316Z" fill="url(#paint1_linear)"/>
<path d="M628.191 169.964C661.967 169.964 689.348 142.583 689.348 108.808C689.348 75.032 661.967 47.6514 628.191 47.6514C594.416 47.6514 567.035 75.032 567.035 108.808C567.035 142.583 594.416 169.964 628.191 169.964Z" stroke="#2F98A1" stroke-width="17.2461" stroke-miterlimit="10"/>
<path d="M628.138 47.6435C640.234 47.6435 652.058 51.2303 662.115 57.9502C672.172 64.6701 680.011 74.2215 684.639 85.3963C689.268 96.5712 690.479 108.868 688.12 120.731C685.76 132.594 679.935 143.491 671.382 152.044C662.83 160.597 651.932 166.421 640.069 168.781C628.206 171.141 615.91 169.93 604.735 165.301C593.56 160.672 584.009 152.834 577.289 142.776C570.569 132.719 566.982 120.895 566.982 108.8C566.982 92.5802 573.425 77.0248 584.894 65.5558C596.363 54.0868 611.919 47.6435 628.138 47.6435ZM628.138 38.6455C614.263 38.644 600.698 42.7573 589.161 50.465C577.623 58.1728 568.63 69.1289 563.319 81.9478C558.008 94.7666 556.618 108.873 559.324 122.482C562.03 136.091 568.711 148.592 578.522 158.404C588.333 168.216 600.833 174.898 614.442 177.606C628.05 180.313 642.157 178.924 654.976 173.615C667.795 168.305 678.753 159.313 686.462 147.776C694.171 136.239 698.285 122.675 698.285 108.8C698.265 90.2011 690.869 72.3698 677.718 59.2178C664.568 46.0659 646.737 38.6673 628.138 38.6455Z" fill="url(#paint2_linear)"/>
<path d="M591.63 210.83C631.008 210.83 662.931 178.907 662.931 139.528C662.931 100.149 631.008 68.2266 591.63 68.2266C552.251 68.2266 520.328 100.149 520.328 139.528C520.328 178.907 552.251 210.83 591.63 210.83Z" stroke="#2F98A1" stroke-width="19.4956" stroke-miterlimit="10"/>
<path d="M591.621 68.2188C605.724 68.2173 619.51 72.3978 631.237 80.2316C642.963 88.0654 652.103 99.2007 657.501 112.229C662.899 125.258 664.312 139.594 661.561 153.426C658.811 167.258 652.021 179.963 642.049 189.935C632.078 199.908 619.373 206.699 605.542 209.451C591.711 212.203 577.374 210.792 564.345 205.395C551.316 199.999 540.18 190.86 532.344 179.134C524.509 167.408 520.328 153.623 520.328 139.52C520.328 120.611 527.839 102.477 541.209 89.1052C554.579 75.7338 572.712 68.2208 591.621 68.2188ZM591.621 58.471C572.87 58.4706 554.699 64.9719 540.204 76.8673C525.709 88.7626 515.787 105.316 512.128 123.707C508.47 142.098 511.301 161.188 520.14 177.725C528.979 194.263 543.278 207.224 560.602 214.4C577.926 221.576 597.202 222.523 615.146 217.08C633.09 211.637 648.591 200.141 659.009 184.55C669.427 168.959 674.117 150.238 672.279 131.577C670.441 112.916 662.19 95.47 648.931 82.2107C641.422 74.6618 632.491 68.6768 622.654 64.602C612.817 60.5271 602.269 58.4433 591.621 58.471Z" fill="url(#paint3_linear)"/>
<path d="M685.777 12.5137C713.169 12.7911 736.106 34.7162 736.106 62.22" stroke="#61D3D6" stroke-width="6.37357" stroke-miterlimit="10" stroke-linecap="round"/>
<path d="M660.668 25.6885C691.951 26.0034 718.158 51.3927 718.158 82.8182" stroke="#61D3D6" stroke-width="7.49832" stroke-miterlimit="10" stroke-linecap="round"/>
<path d="M628.891 43.3545C664.703 43.7219 693.616 72.9654 693.616 108.088" stroke="#61D3D6" stroke-width="8.24815" stroke-miterlimit="10" stroke-linecap="round"/>
<path d="M591.621 63.4873C611.786 63.4873 631.126 71.4979 645.385 85.7569C659.644 100.016 667.654 119.355 667.654 139.52" stroke="#61D3D6" stroke-width="9.74782" stroke-miterlimit="10" stroke-linecap="round"/>
<path d="M644.029 109.55L590.401 157.044C590.254 157.174 590.081 157.272 589.895 157.333C589.708 157.393 589.51 157.415 589.315 157.396C589.119 157.377 588.93 157.318 588.758 157.223C588.586 157.127 588.436 156.998 588.317 156.842L576.492 141.47C576.304 141.222 576.203 140.919 576.203 140.608C576.203 140.297 576.304 139.994 576.492 139.745L576.882 139.221C576.96 139.117 577.051 139.024 577.152 138.943C579.229 137.331 603.448 118.45 632.129 96.0303" fill="#388C8E"/>
<path d="M731.437 30.3526C734.481 30.3526 736.948 27.8852 736.948 24.8414C736.948 21.7976 734.481 19.3301 731.437 19.3301C728.393 19.3301 725.926 21.7976 725.926 24.8414C725.926 27.8852 728.393 30.3526 731.437 30.3526Z" fill="#388C8E"/>
<path d="M620.178 112.228L598.625 130.636C596.755 132.233 596.533 135.045 598.131 136.915L598.136 136.921C599.733 138.791 602.545 139.013 604.415 137.415L625.968 119.007C627.838 117.41 628.06 114.598 626.462 112.728L626.457 112.722C624.86 110.852 622.048 110.63 620.178 112.228Z" fill="#4FA6AF"/>
<path d="M733.22 285.955C728.158 258.609 709.623 230.873 682.351 209.855C659.759 192.444 620.175 171.299 559.866 169.477H559.731H556.904C496.348 169.477 455.257 190.892 431.45 208.858C402.896 230.378 382.801 259.726 377.672 287.35C373.3 310.925 380.184 330.091 396.238 340.431H715.254C730.783 329.678 737.606 309.673 733.22 285.955Z" fill="#72DCE1"/>
<path d="M376.609 306.006C377.877 320.95 384.678 333 396.225 340.431H715.263C726.166 332.88 732.772 320.763 734.219 306.006H376.609Z" fill="#1CABBA"/>
<path d="M644.74 187.712C622.995 178.13 594.921 170.541 559.866 169.477H559.731H556.904C519.983 169.477 490.304 177.44 467.359 187.727L644.74 187.712Z" fill="#1C7A9F"/>
<path d="M387.977 333.473C390.414 336.139 393.186 338.477 396.225 340.431H715.211C718.09 338.448 720.707 336.11 723.002 333.473H387.977Z" fill="#1C7A9F"/>
<path d="M672.033 202.506C648.451 186.985 611.867 171.013 559.866 169.514H559.731H556.904C503.344 169.514 465.027 186.265 440.41 202.559L672.033 202.506Z" fill="#0083AF"/>
<path d="M415.046 291.174C412.172 291.174 409.416 290.033 407.384 288.001C405.352 285.969 404.211 283.213 404.211 280.339C404.211 277.465 405.352 274.709 407.384 272.677C409.416 270.645 412.172 269.504 415.046 269.504H619.068C621.941 269.504 624.697 270.645 626.729 272.677C628.761 274.709 629.903 277.465 629.903 280.339C629.903 283.213 628.761 285.969 626.729 288.001C624.697 290.033 621.941 291.174 619.068 291.174H415.046Z" fill="#029DA9"/>
<path d="M619.067 272.129C620.211 272.019 621.366 272.15 622.456 272.513C623.547 272.876 624.55 273.463 625.4 274.236C626.251 275.009 626.931 275.951 627.396 277.002C627.861 278.053 628.101 279.19 628.101 280.339C628.101 281.489 627.861 282.625 627.396 283.677C626.931 284.728 626.251 285.67 625.4 286.443C624.55 287.216 623.547 287.803 622.456 288.166C621.366 288.529 620.211 288.66 619.067 288.55H415.045C413.003 288.355 411.107 287.405 409.727 285.887C408.347 284.369 407.583 282.391 407.583 280.339C407.583 278.288 408.347 276.31 409.727 274.792C411.107 273.274 413.003 272.324 415.045 272.129H619.067ZM619.067 266.88H415.045C411.476 266.88 408.052 268.298 405.528 270.822C403.004 273.346 401.586 276.77 401.586 280.339C401.586 283.909 403.004 287.333 405.528 289.857C408.052 292.381 411.476 293.799 415.045 293.799H619.067C622.637 293.799 626.06 292.381 628.584 289.857C631.109 287.333 632.527 283.909 632.527 280.339C632.527 276.77 631.109 273.346 628.584 270.822C626.06 268.298 622.637 266.88 619.067 266.88Z" fill="#2272B5"/>
<path d="M564.861 242.375C562.453 242.307 560.167 241.302 558.489 239.575C556.81 237.848 555.871 235.535 555.871 233.126C555.871 230.718 556.81 228.404 558.489 226.677C560.167 224.95 562.453 223.946 564.861 223.877H694.582C700.472 229.58 705.872 235.768 710.726 242.375H564.861Z" fill="#029DA9"/>
<path d="M693.479 226.501C697.718 230.672 701.699 235.096 705.401 239.75H564.86C563.142 239.692 561.513 238.969 560.318 237.733C559.123 236.497 558.455 234.845 558.455 233.126C558.455 231.406 559.123 229.754 560.318 228.518C561.513 227.282 563.142 226.559 564.86 226.501H693.464H693.479ZM695.593 221.252H564.86C561.763 221.33 558.818 222.615 556.655 224.833C554.492 227.051 553.281 230.027 553.281 233.126C553.281 236.224 554.492 239.2 556.655 241.418C558.818 243.636 561.763 244.921 564.86 244.999H715.734C709.879 236.394 703.128 228.433 695.593 221.252Z" fill="#2272B5"/>
<path d="M401.48 242.375C406.448 235.78 411.937 229.594 417.894 223.877H493.252C494.489 223.842 495.72 224.055 496.873 224.504C498.026 224.953 499.078 225.628 499.965 226.491C500.852 227.353 501.557 228.385 502.039 229.524C502.521 230.664 502.769 231.889 502.769 233.126C502.769 234.363 502.521 235.588 502.039 236.728C501.557 237.867 500.852 238.899 499.965 239.761C499.078 240.624 498.026 241.299 496.873 241.748C495.72 242.197 494.489 242.41 493.252 242.375H401.48Z" fill="#029DA9"/>
<path d="M493.252 226.502C494.141 226.472 495.027 226.621 495.857 226.94C496.686 227.26 497.444 227.743 498.083 228.361C498.722 228.979 499.23 229.72 499.578 230.538C499.925 231.357 500.104 232.237 500.104 233.126C500.104 234.016 499.925 234.896 499.578 235.714C499.23 236.533 498.722 237.273 498.083 237.892C497.444 238.51 496.686 238.993 495.857 239.312C495.027 239.632 494.141 239.781 493.252 239.751H406.849C410.617 235.103 414.653 230.679 418.937 226.502H493.252ZM493.252 221.253H416.814C409.211 228.459 402.355 236.415 396.352 245H493.252C494.837 245.04 496.413 244.762 497.888 244.183C499.364 243.604 500.708 242.736 501.843 241.63C502.978 240.523 503.88 239.201 504.495 237.74C505.111 236.28 505.428 234.711 505.428 233.126C505.428 231.542 505.111 229.973 504.495 228.512C503.88 227.052 502.978 225.729 501.843 224.623C500.708 223.516 499.364 222.648 497.888 222.069C496.413 221.491 494.837 221.213 493.252 221.253Z" fill="#2272B5"/>
<path d="M656.608 291.174C653.735 291.174 650.979 290.033 648.947 288.001C646.915 285.969 645.773 283.213 645.773 280.339C645.773 277.465 646.915 274.709 648.947 272.677C650.979 270.645 653.735 269.504 656.608 269.504H712.906C715.779 269.504 718.535 270.645 720.567 272.677C722.599 274.709 723.741 277.465 723.741 280.339C723.741 283.213 722.599 285.969 720.567 288.001C718.535 290.033 715.779 291.174 712.906 291.174H656.608Z" fill="#029DA9"/>
<path d="M712.909 272.129C714.053 272.019 715.208 272.15 716.298 272.513C717.389 272.876 718.392 273.463 719.242 274.236C720.093 275.009 720.773 275.951 721.238 277.002C721.703 278.053 721.943 279.19 721.943 280.339C721.943 281.489 721.703 282.625 721.238 283.677C720.773 284.728 720.093 285.67 719.242 286.443C718.392 287.216 717.389 287.803 716.298 288.166C715.208 288.529 714.053 288.66 712.909 288.55H656.612C655.468 288.66 654.313 288.529 653.223 288.166C652.132 287.803 651.129 287.216 650.279 286.443C649.428 285.67 648.748 284.728 648.283 283.677C647.818 282.625 647.578 281.489 647.578 280.339C647.578 279.19 647.818 278.053 648.283 277.002C648.748 275.951 649.428 275.009 650.279 274.236C651.129 273.463 652.132 272.876 653.223 272.513C654.313 272.15 655.468 272.019 656.612 272.129H712.909ZM712.909 266.88H656.612C653.042 266.88 649.619 268.298 647.095 270.822C644.57 273.346 643.152 276.77 643.152 280.339C643.152 283.909 644.57 287.333 647.095 289.857C649.619 292.381 653.042 293.799 656.612 293.799H712.909C716.479 293.799 719.902 292.381 722.426 289.857C724.951 287.333 726.369 283.909 726.369 280.339C726.369 276.77 724.951 273.346 722.426 270.822C719.902 268.298 716.479 266.88 712.909 266.88Z" fill="#2272B5"/>
<path d="M379.855 290.222C379.975 289.412 380.11 288.61 380.253 287.823C381.151 283.085 382.432 278.428 384.084 273.898C385.046 275.198 385.706 276.695 386.014 278.282C386.323 279.869 386.272 281.505 385.867 283.07C385.461 284.635 384.711 286.089 383.671 287.327C382.631 288.564 381.327 289.554 379.855 290.222Z" fill="#029DA9"/>
<path d="M383.042 269.286C380.651 275.112 378.853 281.164 377.673 287.35C377.275 289.517 376.976 291.639 376.766 293.731C379.501 293.449 382.084 292.336 384.168 290.542C386.251 288.748 387.735 286.358 388.418 283.695C389.102 281.031 388.953 278.222 387.992 275.646C387.031 273.07 385.303 270.85 383.042 269.286Z" fill="#2272B5"/>
<path d="M552.123 274.228H480.596C477.229 274.228 474.5 276.957 474.5 280.324C474.5 283.69 477.229 286.42 480.596 286.42H552.123C555.489 286.42 558.219 283.69 558.219 280.324C558.219 276.957 555.489 274.228 552.123 274.228Z" fill="#FEC93D"/>
<path d="M433.931 274.228H422.256C418.889 274.228 416.16 276.957 416.16 280.324C416.16 283.69 418.889 286.42 422.256 286.42H433.931C437.298 286.42 440.027 283.69 440.027 280.324C440.027 276.957 437.298 274.228 433.931 274.228Z" fill="#FEC93D"/>
<path d="M613.009 274.228H601.334C597.968 274.228 595.238 276.957 595.238 280.324C595.238 283.69 597.968 286.42 601.334 286.42H613.009C616.376 286.42 619.105 283.69 619.105 280.324C619.105 276.957 616.376 274.228 613.009 274.228Z" fill="#FEC93D"/>
<path d="M672.306 274.228H660.631C657.264 274.228 654.535 276.957 654.535 280.324C654.535 283.69 657.264 286.42 660.631 286.42H672.306C675.673 286.42 678.402 283.69 678.402 280.324C678.402 276.957 675.673 274.228 672.306 274.228Z" fill="#FEC93D"/>
<path d="M711.65 274.228H699.975C696.608 274.228 693.879 276.957 693.879 280.324C693.879 283.69 696.608 286.42 699.975 286.42H711.65C715.017 286.42 717.746 283.69 717.746 280.324C717.746 276.957 715.017 274.228 711.65 274.228Z" fill="#FEC93D"/>
<path d="M487.322 226.786H475.647C472.28 226.786 469.551 229.515 469.551 232.882C469.551 236.249 472.28 238.978 475.647 238.978H487.322C490.689 238.978 493.418 236.249 493.418 232.882C493.418 229.515 490.689 226.786 487.322 226.786Z" fill="#FEC93D"/>
<path d="M460.498 226.786H448.823C445.456 226.786 442.727 229.515 442.727 232.882C442.727 236.249 445.456 238.978 448.823 238.978H460.498C463.864 238.978 466.594 236.249 466.594 232.882C466.594 229.515 463.864 226.786 460.498 226.786Z" fill="#FEC93D"/>
<path d="M433.931 226.786H422.256C418.889 226.786 416.16 229.515 416.16 232.882C416.16 236.249 418.889 238.978 422.256 238.978H433.931C437.298 238.978 440.027 236.249 440.027 232.882C440.027 229.515 437.298 226.786 433.931 226.786Z" fill="#FEC93D"/>
<path d="M611.847 226.786H586.6C583.233 226.786 580.504 229.515 580.504 232.882C580.504 236.249 583.233 238.978 586.6 238.978H611.847C615.214 238.978 617.943 236.249 617.943 232.882C617.943 229.515 615.214 226.786 611.847 226.786Z" fill="#FEC93D"/>
<path d="M651.577 226.786H626.331C622.964 226.786 620.234 229.515 620.234 232.882C620.234 236.249 622.964 238.978 626.331 238.978H651.577C654.944 238.978 657.673 236.249 657.673 232.882C657.673 229.515 654.944 226.786 651.577 226.786Z" fill="#FEC93D"/>
<path d="M691.89 226.786H666.643C663.276 226.786 660.547 229.515 660.547 232.882C660.547 236.249 663.276 238.978 666.643 238.978H691.89C695.257 238.978 697.986 236.249 697.986 232.882C697.986 229.515 695.257 226.786 691.89 226.786Z" fill="#FEC93D"/>
<path opacity="0.37" d="M453.195 340.43C434.989 246.889 531.927 183.716 556.319 169.469C496.085 169.604 455.175 190.936 431.45 208.842C402.896 230.378 382.801 259.726 377.672 287.35C373.3 310.925 380.184 330.09 396.238 340.43H453.195Z" fill="black"/>
<path d="M593.91 173.188C595.207 167.965 595.299 162.515 594.182 157.251C593.064 151.987 590.764 147.045 587.457 142.799C584.15 138.553 579.922 135.114 575.091 132.742C570.26 130.369 564.954 129.125 559.572 129.104C554.19 129.082 548.874 130.283 544.025 132.617C539.175 134.951 534.919 138.356 531.578 142.575C528.237 146.794 525.898 151.717 524.738 156.972C523.577 162.227 523.626 167.677 524.881 172.911C533.009 181.924 590.401 177.897 593.91 173.188Z" fill="#62CAD3"/>
<path opacity="0.37" d="M524.04 167.579C524.04 167.707 524.04 167.834 524.078 167.962C524.078 168.367 524.153 168.764 524.205 169.161C524.273 169.724 524.355 170.279 524.453 170.834V170.961C524.565 171.568 524.685 172.168 524.828 172.761C524.828 172.821 524.865 172.881 524.88 172.933C527.302 175.587 534.006 177.11 542.344 177.807H542.749C544.998 154.48 570.95 138.388 579.978 135.734C578.547 134.718 577.043 133.808 575.479 133.012L575.336 132.937L574.264 132.42L574.009 132.307C572.967 131.835 571.887 131.415 570.792 131.04L570.282 130.867L569.435 130.613L568.745 130.41L567.958 130.208C567.673 130.133 567.373 130.073 567.081 130.005L566.443 129.863C565.948 129.765 565.446 129.675 564.944 129.593L564.404 129.518C564.044 129.465 563.654 129.42 563.309 129.383L562.717 129.323C562.342 129.285 561.967 129.255 561.584 129.233H561.059C560.512 129.233 559.957 129.195 559.402 129.195C549.982 129.195 540.947 132.938 534.286 139.599C527.625 146.26 523.883 155.294 523.883 164.715C523.883 165.322 523.883 165.93 523.935 166.537C523.98 166.837 524.01 167.212 524.04 167.579Z" fill="black"/>
<defs>
<linearGradient id="paint0_linear" x1="639.656" y1="89.5368" x2="732.335" y2="36.0212" gradientUnits="userSpaceOnUse">
<stop offset="0.32" stop-color="#0F7780"/>
<stop offset="0.41" stop-color="#268E97"/>
<stop offset="0.54" stop-color="#3BA3AC"/>
<stop offset="0.66" stop-color="#49B1BA"/>
<stop offset="0.77" stop-color="#4DB5BE"/>
</linearGradient>
<linearGradient id="paint1_linear" x1="130800" y1="90715.9" x2="148348" y2="80585.4" gradientUnits="userSpaceOnUse">
<stop offset="0.32" stop-color="#0F7780"/>
<stop offset="0.41" stop-color="#268E97"/>
<stop offset="0.54" stop-color="#3BA3AC"/>
<stop offset="0.66" stop-color="#49B1BA"/>
<stop offset="0.77" stop-color="#4DB5BE"/>
</linearGradient>
<linearGradient id="paint2_linear" x1="141341" y1="108785" x2="164072" y2="95660.4" gradientUnits="userSpaceOnUse">
<stop offset="0.32" stop-color="#0F7780"/>
<stop offset="0.41" stop-color="#268E97"/>
<stop offset="0.54" stop-color="#3BA3AC"/>
<stop offset="0.66" stop-color="#49B1BA"/>
<stop offset="0.77" stop-color="#4DB5BE"/>
</linearGradient>
<linearGradient id="paint3_linear" x1="153216" y1="133518" x2="183575" y2="115990" gradientUnits="userSpaceOnUse">
<stop offset="0.32" stop-color="#0F7780"/>
<stop offset="0.41" stop-color="#268E97"/>
<stop offset="0.54" stop-color="#3BA3AC"/>
<stop offset="0.66" stop-color="#49B1BA"/>
<stop offset="0.77" stop-color="#4DB5BE"/>
</linearGradient>
</defs>
</svg>
