<svg width="1440" height="170" viewBox="0 0 1440 170" fill="none" xmlns="http://www.w3.org/2000/svg">
<path d="M1323.83 0.85121H1439.68V36.4533H1323.83C1319.33 36.4533 1315.01 34.6631 1311.82 31.4767C1308.63 28.2902 1306.84 23.9684 1306.84 19.462V17.8349C1306.84 13.3286 1308.63 9.00682 1311.82 5.82036C1315.01 2.63389 1319.33 0.84375 1323.83 0.84375V0.85121Z" fill="#FFDA9F"/>
<path d="M1439.71 40.082H0.03125V167.538H1439.71V40.082Z" fill="url(#paint0_linear)"/>
<path d="M1439.71 68.3887H0.03125V133.714H1439.71V68.3887Z" fill="#FFBC48"/>
<path d="M1439.71 104.171H0.03125V167.539H1439.71V104.171Z" fill="#FF8B37"/>
<path d="M0 7.85449H61.7187C64.2848 7.85449 66.8258 8.35993 69.1965 9.34194C71.5673 10.3239 73.7215 11.7633 75.536 13.5778C77.3505 15.3923 78.7898 17.5465 79.7719 19.9173C80.7539 22.288 81.2593 24.829 81.2593 27.3951V36.3931H0V7.85449Z" fill="#FEC662"/>
<path d="M0 26.248H77.1427C79.9698 26.248 82.7691 26.8048 85.381 27.8867C87.9929 28.9686 90.3661 30.5543 92.3651 32.5533C94.3641 34.5524 95.9498 36.9256 97.0317 39.5374C98.1136 42.1493 98.6704 44.9486 98.6704 47.7757V54.7566H0V26.263V26.248Z" fill="#FEC662"/>
<path d="M1424.13 5.72461H1322.72C1313.95 5.72461 1306.84 12.8316 1306.84 21.5986V21.6061C1306.84 30.373 1313.95 37.48 1322.72 37.48H1424.13C1432.89 37.48 1440 30.373 1440 21.6061V21.5986C1440 12.8316 1432.89 5.72461 1424.13 5.72461Z" fill="#FEC662"/>
<path d="M1283.78 31.9619H1439.68V63.7173H1283.78C1279.78 63.7133 1275.95 62.1229 1273.13 59.2954C1270.3 56.468 1268.71 52.6348 1268.71 48.6382V47.0335C1268.72 43.0382 1270.3 39.207 1273.13 36.3811C1275.95 33.5553 1279.78 31.9659 1283.78 31.9619Z" fill="#FEC662"/>
<path d="M1260.94 103.203H965.776C959.896 103.203 955.129 107.97 955.129 113.851C955.129 119.731 959.896 124.498 965.776 124.498H1260.94C1266.82 124.498 1271.59 119.731 1271.59 113.851C1271.59 107.97 1266.82 103.203 1260.94 103.203Z" fill="#FFBC48"/>
<path d="M0 94.2803H226.194C228.63 94.2803 230.967 95.248 232.689 96.9706C234.412 98.6932 235.38 101.03 235.38 103.466V106.398C235.38 108.834 234.412 111.17 232.689 112.893C230.967 114.615 228.63 115.583 226.194 115.583H0V94.2878V94.2803Z" fill="#FFBC48"/>
<path d="M1139.93 99.8516H1439.68V107.485H1139.93C1138.92 107.485 1137.95 107.083 1137.24 106.367C1136.52 105.651 1136.12 104.68 1136.12 103.668C1136.12 102.656 1136.52 101.685 1137.24 100.969C1137.95 100.254 1138.92 99.8516 1139.93 99.8516Z" fill="#FF8B37"/>
<path d="M133.344 99.8516H429.393C430.387 99.8516 431.341 100.247 432.044 100.95C432.747 101.653 433.142 102.606 433.142 103.601C433.142 104.637 432.73 105.63 431.998 106.363C431.265 107.096 430.271 107.507 429.235 107.507H133.344C132.332 107.507 131.361 107.105 130.645 106.389C129.929 105.674 129.527 104.703 129.527 103.691C129.527 103.189 129.626 102.693 129.818 102.23C130.01 101.767 130.291 101.346 130.645 100.992C131 100.638 131.42 100.356 131.883 100.165C132.346 99.9728 132.843 99.874 133.344 99.874V99.8516Z" fill="#FF8B37"/>
<path opacity="0.25" d="M406.505 118.942C413.798 118.942 419.71 118.257 419.71 117.412C419.71 116.568 413.798 115.883 406.505 115.883C399.213 115.883 393.301 116.568 393.301 117.412C393.301 118.257 399.213 118.942 406.505 118.942Z" fill="black"/>
<path opacity="0.25" d="M623.591 155.212C630.884 155.212 636.796 154.527 636.796 153.682C636.796 152.837 630.884 152.152 623.591 152.152C616.299 152.152 610.387 152.837 610.387 153.682C610.387 154.527 616.299 155.212 623.591 155.212Z" fill="black"/>
<path opacity="0.25" d="M828.791 164.33C839.533 164.33 848.241 163.041 848.241 161.451C848.241 159.86 839.533 158.571 828.791 158.571C818.048 158.571 809.34 159.86 809.34 161.451C809.34 163.041 818.048 164.33 828.791 164.33Z" fill="black"/>
<path d="M834.45 164.239C834.45 164.239 818.449 162.875 831.916 150.187C837.164 145.314 862.164 137.118 872.114 155.264C872.114 155.264 877.97 164.044 862.554 164.262C847.137 164.479 834.45 164.239 834.45 164.239Z" fill="#FFBC48"/>
<path d="M625.576 155.099C625.576 155.099 614.83 154.176 623.866 145.658C627.405 142.389 644.179 136.885 650.86 149.07C650.86 149.07 654.796 154.964 644.441 155.069C634.086 155.174 625.576 155.099 625.576 155.099Z" fill="#FFBC48"/>
<path d="M419.186 118.912C419.186 118.912 425.454 118.365 420.175 113.311C418.113 111.369 408.328 108.107 404.429 115.336C404.429 115.336 402.142 118.83 408.178 118.912C414.214 118.995 419.186 118.912 419.186 118.912Z" fill="#FFBC48"/>
<path d="M150.612 83.4149C150.612 83.4149 153.753 83.145 151.114 80.6181C150.079 79.6508 145.183 78.0161 143.233 81.6303C143.233 81.6303 142.086 83.3774 145.108 83.4149C148.13 83.4524 150.612 83.4149 150.612 83.4149Z" fill="#FFD48F"/>
<path d="M520.134 81.3907C520.134 81.3907 524.349 81.0082 520.802 77.4016C519.415 76.0219 512.839 73.6899 510.222 78.8412C510.222 78.8412 508.677 81.3382 512.741 81.3907C516.805 81.4432 520.134 81.3907 520.134 81.3907Z" fill="#FFD48F"/>
<path d="M83.188 126.98C83.188 126.98 89.4566 126.44 84.1778 121.386C82.1157 119.444 72.3304 116.182 68.4313 123.411C68.4313 123.411 66.1368 126.905 72.1805 126.98C78.2241 127.055 83.188 126.98 83.188 126.98Z" fill="#FFBC48"/>
<path d="M34.7533 136.953L35.3382 124.409C35.5481 120.067 28.7996 120.082 28.5897 124.409L28.0048 136.953C27.7948 141.295 34.5433 141.287 34.7533 136.953Z" fill="#13651B"/>
<path d="M34.2222 140.155C34.3947 139.87 34.5896 139.6 34.7846 139.33C35.1688 138.799 35.5924 138.298 36.0518 137.831C37.7911 135.883 39.8629 134.261 42.1704 133.039C46.0096 131.007 42.6053 125.181 38.7662 127.213C34.5328 129.445 30.9575 132.746 28.396 136.788C26.1465 140.492 31.9427 143.889 34.2222 140.193V140.155Z" fill="#2B8E3A"/>
<path d="M21.4514 132.214C21.6464 132.342 22.5087 132.964 21.8488 132.477C22.5087 132.994 23.146 133.557 23.7534 134.134C25.6519 135.958 27.2175 138.1 28.3799 140.463C30.3069 144.354 36.1256 140.942 34.206 137.058C32.0722 132.75 28.852 129.072 24.8631 126.388C21.219 124.004 17.8297 129.845 21.4514 132.214Z" fill="#2B8E3A"/>
<path d="M24.1727 84.5471V77.6112C24.1727 75.5866 21.0234 75.5866 21.0234 77.6112V84.5471C21.0234 86.5717 24.1727 86.5792 24.1727 84.5471Z" fill="#13651B"/>
<path d="M24.1232 84.9674C24.1593 84.8116 24.2069 84.6587 24.2656 84.51C24.3631 84.2176 24.1907 84.6149 24.3631 84.2775C24.5356 83.9401 24.6031 83.8051 24.7455 83.5727C25.5221 82.3654 26.6136 81.3931 27.9023 80.7608C29.6944 79.8085 28.1048 77.0866 26.3127 78.0389C23.9957 79.2687 21.7087 81.4732 21.0639 84.1276C20.599 86.0996 23.6358 86.9394 24.1007 84.9674H24.1232Z" fill="#2B8E3A"/>
<path d="M17.5596 81.2182C17.7395 81.2856 17.3196 81.1132 17.3271 81.1132C17.4374 81.1796 17.5527 81.2372 17.672 81.2856C17.9766 81.4548 18.2719 81.64 18.5568 81.8405C19.705 82.7896 20.6229 83.9869 21.2412 85.3422C22.1335 87.1568 24.8554 85.5672 23.9556 83.7526C22.8084 81.4281 20.9113 79.0886 18.3919 78.1814C16.4873 77.4915 15.6625 80.5283 17.5596 81.1807V81.2182Z" fill="#2B8E3A"/>
<path d="M204.321 76.7495V69.821C204.321 67.7965 201.172 67.789 201.172 69.821V76.7495C201.172 78.7815 204.321 78.7815 204.321 76.7495Z" fill="#13651B"/>
<path d="M204.268 77.1693C204.305 77.0193 204.358 76.8694 204.41 76.7119C204.508 76.4195 204.343 76.8244 204.508 76.4795C204.673 76.1345 204.755 76.0071 204.89 75.7821C205.668 74.5745 206.759 73.6002 208.047 72.9627C209.839 72.0105 208.249 69.2961 206.457 70.2484C204.14 71.4781 201.853 73.6751 201.208 76.337C200.744 78.3015 203.78 79.1488 204.245 77.1693H204.268Z" fill="#2B8E3A"/>
<path d="M197.708 73.4201C197.888 73.4876 197.475 73.3226 197.475 73.3226C197.587 73.3835 197.702 73.4386 197.82 73.4876C199.45 74.3775 200.714 75.814 201.389 77.5442C202.282 79.3663 205.003 77.7691 204.111 75.9545C202.964 73.6301 201.067 71.2981 198.547 70.3833C196.635 69.6934 195.81 72.7378 197.708 73.3826V73.4201Z" fill="#2B8E3A"/>
<path d="M125.881 55.8962V51.7647C125.881 51.5857 125.81 51.4141 125.683 51.2875C125.557 51.1609 125.385 51.0898 125.206 51.0898C125.027 51.0898 124.855 51.1609 124.729 51.2875C124.602 51.4141 124.531 51.5857 124.531 51.7647V55.8962C124.531 56.0752 124.602 56.2469 124.729 56.3735C124.855 56.5 125.027 56.5711 125.206 56.5711C125.385 56.5711 125.557 56.5 125.683 56.3735C125.81 56.2469 125.881 56.0752 125.881 55.8962Z" fill="#13651B"/>
<path d="M126.002 56.6462C126.002 56.8637 126.002 56.5563 126.047 56.4363C126.115 56.1615 126.213 55.895 126.339 55.6415C126.852 54.7021 127.636 53.9391 128.589 53.4519C129.339 53.032 128.671 51.8623 127.906 52.2897C126.309 53.1745 124.817 54.7342 124.652 56.6462C124.57 57.5085 125.919 57.501 126.002 56.6462Z" fill="#2B8E3A"/>
<path d="M122.252 53.5565C122.14 53.5565 122.17 53.489 122.305 53.5565C122.2 53.4815 122.605 53.7514 122.702 53.8339C123.583 54.7344 124.279 55.7994 124.749 56.9682C125.124 57.718 126.294 57.0657 125.911 56.2859C125.366 54.9525 124.546 53.749 123.504 52.7541C123.168 52.42 122.725 52.2155 122.252 52.1768C121.39 52.2292 121.39 53.579 122.252 53.5265V53.5565Z" fill="#2B8E3A"/>
<path d="M1266.35 58.3328V54.2012C1266.35 54.0222 1266.27 53.8506 1266.15 53.724C1266.02 53.5975 1265.85 53.5264 1265.67 53.5264C1265.49 53.5264 1265.32 53.5975 1265.19 53.724C1265.07 53.8506 1265 54.0222 1265 54.2012V58.3328C1265 58.5118 1265.07 58.6834 1265.19 58.81C1265.32 58.9365 1265.49 59.0076 1265.67 59.0076C1265.85 59.0076 1266.02 58.9365 1266.15 58.81C1266.27 58.6834 1266.35 58.5118 1266.35 58.3328Z" fill="#13651B"/>
<path d="M1266.5 59.0833C1266.5 59.3007 1266.5 58.9933 1266.54 58.8808C1266.61 58.6056 1266.71 58.339 1266.84 58.086C1267.34 57.141 1268.13 56.3742 1269.08 55.889C1269.83 55.4691 1269.17 54.3068 1268.4 54.7267C1266.81 55.6115 1265.31 57.1712 1265.15 59.0833C1265.07 59.9456 1266.42 59.9456 1266.5 59.0833Z" fill="#2B8E3A"/>
<path d="M1262.7 55.9865C1262.59 55.9865 1262.62 55.9115 1262.75 55.9865C1262.65 55.9115 1263.05 56.1814 1263.15 56.2639C1264.03 57.1644 1264.73 58.2294 1265.2 59.3982C1265.57 60.148 1266.74 59.4957 1266.36 58.7159C1265.81 57.3825 1264.99 56.179 1263.95 55.1841C1263.62 54.8489 1263.17 54.6464 1262.7 54.6143C1261.84 54.6592 1261.83 56.009 1262.7 55.964V55.9865Z" fill="#2B8E3A"/>
<path d="M915.014 54.5613V50.4297C915.014 50.2508 914.943 50.0791 914.816 49.9525C914.69 49.826 914.518 49.7549 914.339 49.7549C914.16 49.7549 913.988 49.826 913.862 49.9525C913.735 50.0791 913.664 50.2508 913.664 50.4297V54.5613C913.664 54.7403 913.735 54.9119 913.862 55.0385C913.988 55.165 914.16 55.2362 914.339 55.2362C914.518 55.2362 914.69 55.165 914.816 55.0385C914.943 54.9119 915.014 54.7403 915.014 54.5613Z" fill="#13651B"/>
<path d="M915.118 55.3109C915.118 55.5284 915.118 55.2209 915.171 55.1009C915.241 54.841 915.339 54.5896 915.463 54.3511C915.971 53.4061 916.756 52.6393 917.713 52.1541C918.463 51.7342 917.788 50.5645 917.03 50.9919C915.433 51.8767 913.941 53.4363 913.769 55.3484C913.694 56.2107 915.043 56.2032 915.118 55.3484V55.3109Z" fill="#2B8E3A"/>
<path d="M911.368 52.2069C911.256 52.2069 911.278 52.1394 911.421 52.2069C911.316 52.1319 911.721 52.4018 911.818 52.4843C912.697 53.387 913.392 54.4514 913.865 55.6186C914.24 56.3684 915.41 55.7161 915.027 54.9363C914.482 53.6029 913.662 52.3994 912.621 51.4045C912.284 51.0704 911.841 50.8659 911.368 50.8271C910.506 50.8796 910.498 52.2293 911.368 52.1768V52.2069Z" fill="#2B8E3A"/>
<path d="M109.222 109.794V99.7465C109.222 96.5597 104.273 96.5597 104.273 99.7465V109.794C104.273 112.981 109.222 112.981 109.222 109.794Z" fill="#13651B"/>
<path d="M108.883 112.217C110.347 109.673 112.458 107.562 115.001 106.098C117.738 104.486 115.256 100.204 112.497 101.831C109.226 103.73 106.507 106.449 104.609 109.72C103.064 112.509 107.338 115.013 108.883 112.217Z" fill="#2B8E3A"/>
<path d="M98.6402 106.097C99.3461 106.516 100.007 107.006 100.612 107.56C102.221 108.948 103.574 110.607 104.609 112.464C106.154 115.253 110.428 112.756 108.883 109.967C107.052 106.628 104.382 103.824 101.137 101.831C98.3853 100.211 95.8883 104.485 98.6402 106.097Z" fill="#2B8E3A"/>
<path d="M1207.96 109.839V99.7915C1207.96 96.6047 1203.01 96.6047 1203.01 99.7915V109.839C1203.01 113.019 1207.96 113.026 1207.96 109.839Z" fill="#13651B"/>
<path d="M1207.62 112.284C1209.09 109.741 1211.2 107.631 1213.74 106.165C1216.48 104.553 1214 100.271 1211.24 101.891C1207.97 103.791 1205.25 106.512 1203.35 109.787C1201.85 112.576 1206.08 115.081 1207.62 112.284Z" fill="#2B8E3A"/>
<path d="M1197.38 106.165C1198.09 106.593 1198.75 107.095 1199.36 107.665C1200.96 109.053 1202.31 110.713 1203.35 112.569C1204.89 115.358 1209.17 112.861 1207.62 110.072C1205.79 106.731 1203.12 103.925 1199.88 101.929C1197.13 100.316 1194.63 104.59 1197.38 106.203V106.165Z" fill="#2B8E3A"/>
<path d="M1406.21 85.1777V77.4244C1406.21 75.3924 1403.06 75.3924 1403.06 77.4244V85.1777C1403.06 87.2022 1406.21 87.2022 1406.21 85.1777Z" fill="#13651B"/>
<path d="M1406 85.7998C1406.95 83.8518 1408.4 82.1849 1410.19 80.9634C1411.86 79.8311 1410.28 77.1018 1408.6 78.2415C1406.33 79.7467 1404.5 81.8138 1403.28 84.2402C1402.4 86.0548 1405.11 87.6594 1406 85.8298V85.7998Z" fill="#2B8E3A"/>
<path d="M1399.21 80.9407L1399.34 81.0307C1399.67 81.2632 1399.21 80.9107 1399.49 81.1432C1399.78 81.3756 1400.24 81.7731 1400.57 82.118C1401.69 83.2385 1402.61 84.5419 1403.29 85.9721C1404.19 87.7942 1406.9 86.197 1406.02 84.3824C1404.83 81.9078 1403.02 79.7839 1400.77 78.2188C1399.08 77.0866 1397.5 79.816 1399.18 80.9407H1399.21Z" fill="#2B8E3A"/>
<path d="M235.701 161.548V144.152C235.701 136.909 224.453 136.901 224.453 144.152V161.548C224.453 168.784 235.701 168.792 235.701 161.548Z" fill="#24490C"/>
<path d="M234.936 166.46C235.131 166.1 235.356 165.71 235.573 165.403C235.791 165.095 236.106 164.653 236.376 164.218C236.541 163.978 236.721 163.745 236.893 163.468C236.391 164.15 236.841 163.535 237.118 163.213C239.344 160.473 242.025 158.137 245.044 156.307C251.275 152.633 245.621 142.908 239.368 146.559C233.501 149.965 228.623 154.842 225.218 160.709C221.716 167.052 231.427 172.706 234.966 166.385L234.936 166.46Z" fill="#3B6D1B"/>
<path d="M215.368 156.344C215.751 156.569 216.118 156.816 216.47 157.094C216.823 157.371 217.295 157.671 217.7 157.979C216.62 157.154 218.345 158.541 218.518 158.691C221.222 161.022 223.492 163.815 225.221 166.939C228.73 173.268 238.448 167.607 234.969 161.263C231.683 155.279 226.894 150.255 221.074 146.686C214.828 143.005 209.16 152.73 215.398 156.434L215.368 156.344Z" fill="#3B6D1B"/>
<path d="M1316.32 161.775V144.379C1316.32 137.143 1305.07 137.128 1305.07 144.379V161.775C1305.07 169.011 1316.32 169.026 1316.32 161.775Z" fill="#24490C"/>
<path d="M1315.55 166.687C1315.75 166.327 1315.97 165.937 1316.19 165.629C1316.42 165.322 1316.73 164.879 1317 164.452C1317.16 164.212 1317.34 163.972 1317.51 163.702C1317.01 164.377 1317.46 163.77 1317.74 163.44C1319.96 160.698 1322.64 158.364 1325.66 156.541C1331.9 152.86 1326.24 143.134 1319.99 146.794C1314.12 150.202 1309.25 155.078 1305.84 160.943C1302.34 167.286 1312.05 172.94 1315.59 166.619L1315.55 166.687Z" fill="#3B6D1B"/>
<path d="M1295.99 156.578C1296.36 156.796 1296.74 157.043 1297.09 157.328C1297.44 157.613 1297.91 157.906 1298.31 158.213C1297.23 157.388 1298.96 158.775 1299.14 158.963C1301.84 161.294 1304.11 164.087 1305.84 167.211C1309.35 173.54 1319.07 167.878 1315.59 161.535C1312.31 155.55 1307.52 150.525 1301.7 146.958C1295.45 143.284 1289.79 153.002 1296.02 156.706L1295.99 156.578Z" fill="#3B6D1B"/>
<defs>
<linearGradient id="paint0_linear" x1="719.87" y1="167.531" x2="719.87" y2="40.082" gradientUnits="userSpaceOnUse">
<stop offset="0.85" stop-color="#FEC662"/>
<stop offset="0.91" stop-color="#FCC562"/>
<stop offset="0.93" stop-color="#F5BF60"/>
<stop offset="0.95" stop-color="#EAB65D"/>
<stop offset="0.96" stop-color="#D9A858"/>
<stop offset="0.97" stop-color="#C39752"/>
<stop offset="0.98" stop-color="#A7814B"/>
<stop offset="0.99" stop-color="#876843"/>
<stop offset="1" stop-color="#5E4738"/>
</linearGradient>
</defs>
</svg>
