<svg width="277" height="279" viewBox="0 0 277 279" fill="none" xmlns="http://www.w3.org/2000/svg">
<path opacity="0.43" d="M138.716 278.555C214.902 278.555 276.663 216.24 276.663 139.371C276.663 62.5022 214.902 0.1875 138.716 0.1875C62.5304 0.1875 0.769531 62.5022 0.769531 139.371C0.769531 216.24 62.5304 278.555 138.716 278.555Z" fill="#382A9B"/>
<path d="M138.715 259.209C204.312 259.209 257.488 205.556 257.488 139.371C257.488 73.1866 204.312 19.5332 138.715 19.5332C73.1181 19.5332 19.9414 73.1866 19.9414 139.371C19.9414 205.556 73.1181 259.209 138.715 259.209Z" fill="#FF9A51"/>
<path d="M31.582 87.5731H245.847C236.457 67.8374 221.854 51.0416 203.616 38.999H73.8125C55.5766 51.0445 40.9749 67.8395 31.582 87.5731Z" fill="#E9633B"/>
<path d="M22.6719 113.727H254.752C253.151 106.3 250.844 99.044 247.861 92.0566H29.5629C26.5841 99.0452 24.2767 106.301 22.6719 113.727Z" fill="#FC8245"/>
<path d="M19.9414 139.401C19.9522 143.815 20.2025 148.226 20.6912 152.613H256.798C257.283 148.226 257.534 143.815 257.548 139.401C257.549 130.78 256.632 122.183 254.811 113.757H22.6708C20.8528 122.184 19.9378 130.78 19.9414 139.401Z" fill="#FFC764"/>
<path d="M85.9141 246.732C102.305 254.937 120.383 259.209 138.714 259.209C157.044 259.209 175.122 254.937 191.513 246.732H85.9141Z" fill="#FFC764"/>
<path d="M20.5039 151.084C22.1982 168.757 27.794 185.835 36.8875 201.083C45.9811 216.332 58.3458 229.373 73.0896 239.264H204.31C219.054 229.373 231.419 216.332 240.512 201.083C249.606 185.835 255.202 168.757 256.896 151.084H20.5039Z" fill="#FC8245"/>
<path d="M40.2336 206.384H237.199C241.758 199.573 245.605 192.311 248.679 184.714H28.7461C31.826 192.31 35.6753 199.571 40.2336 206.384Z" fill="#D54F31"/>
<path d="M186.226 171.262H132.868C131.161 171.27 129.471 171.614 127.897 172.274C126.322 172.935 124.894 173.899 123.692 175.112C122.49 176.325 121.539 177.763 120.893 179.344C120.247 180.924 119.918 182.616 119.926 184.324C119.912 187.771 121.267 191.082 123.694 193.53C126.121 195.978 129.421 197.363 132.868 197.378H186.226C189.662 197.365 192.953 195.99 195.378 193.556C197.804 191.123 199.166 187.827 199.168 184.391C199.185 182.678 198.863 180.979 198.221 179.39C197.579 177.802 196.629 176.356 195.426 175.136C194.224 173.916 192.792 172.946 191.213 172.281C189.634 171.616 187.939 171.27 186.226 171.262Z" fill="#BE3226"/>
<path d="M223.611 148.766C223.622 146.334 223.153 143.924 222.233 141.672C221.312 139.421 219.957 137.373 218.245 135.646C216.532 133.919 214.497 132.545 212.254 131.604C210.011 130.664 207.605 130.174 205.172 130.163H20.2864C20.0565 133.197 19.9414 136.267 19.9414 139.371C19.9377 148.853 21.045 158.303 23.2407 167.527H205.172C207.605 167.516 210.011 167.027 212.254 166.086C214.497 165.145 216.532 163.772 218.245 162.044C219.957 160.317 221.312 158.269 222.233 156.018C223.153 153.767 223.622 151.356 223.611 148.924V148.766Z" fill="#FF9A51"/>
<path d="M175.472 216.844H48.1055C58.5438 229.274 71.4082 239.444 85.9119 246.732H175.472C179.415 246.71 183.188 245.124 185.962 242.322C188.736 239.52 190.284 235.731 190.266 231.788C190.284 227.845 188.736 224.056 185.962 221.254C183.188 218.452 179.415 216.866 175.472 216.844Z" fill="#FF9A51"/>
<path d="M197.316 79.3545H35.8921C31.6753 86.6919 28.2494 94.4561 25.6719 102.517H197.316C198.83 102.51 200.329 102.205 201.725 101.619C203.122 101.033 204.389 100.178 205.455 99.102C206.521 98.0262 207.365 96.751 207.938 95.3492C208.511 93.9474 208.803 92.4463 208.796 90.9319C208.803 89.4178 208.511 87.9171 207.938 86.5157C207.365 85.1143 206.521 83.8396 205.455 82.7645C204.389 81.6893 203.121 80.8348 201.725 80.2497C200.328 79.6646 198.83 79.3604 197.316 79.3545Z" fill="#FF9A51"/>
<path d="M203.616 38.9985C184.352 26.3004 161.787 19.5322 138.714 19.5322C115.642 19.5322 93.0763 26.3004 73.8125 38.9985H203.616Z" fill="#FFC764"/>
<path d="M195.343 34.0049H96.8001C93.0945 34.0227 89.5476 35.5114 86.9393 38.1436C84.331 40.7758 82.8748 44.3361 82.8908 48.0417V48.1317C82.8748 51.8373 84.331 55.3976 86.9393 58.0298C89.5476 60.662 93.0945 62.1507 96.8001 62.1686H229.52C219.983 50.7329 208.391 41.1809 195.343 34.0049Z" fill="#D54F31"/>
<g style="mix-blend-mode:hard-light" opacity="0.9">
<path d="M217.262 49.5117C221.011 79.0251 226.455 190.113 111.258 255.993C120.244 258.134 129.449 259.214 138.687 259.21C204.282 259.21 257.46 205.552 257.46 139.372C257.492 122.403 253.926 105.62 246.997 90.1309C240.068 74.6414 229.933 60.7973 217.262 49.5117Z" fill="#272577"/>
</g>
<path opacity="0.2" d="M76.9012 146.097C100.755 146.097 120.092 126.585 120.092 102.517C120.092 78.4481 100.755 58.9365 76.9012 58.9365C53.0479 58.9365 33.7109 78.4481 33.7109 102.517C33.7109 126.585 53.0479 146.097 76.9012 146.097Z" fill="white"/>
</svg>
