<svg xmlns="http://www.w3.org/2000/svg" xmlns:xlink="http://www.w3.org/1999/xlink" viewBox="0 0 1921.18 1081.98"><defs><style>.cls-1{fill:#6f6f84;}.cls-2{fill:url(#radial-gradient);}.cls-3{fill:url(#linear-gradient);}.cls-4{fill:url(#radial-gradient-2);}.cls-5{fill:url(#linear-gradient-2);}.cls-6{fill:url(#linear-gradient-3);}.cls-7{fill:url(#linear-gradient-4);}.cls-8{fill:url(#linear-gradient-5);}.cls-9{fill:url(#linear-gradient-6);}.cls-10{fill:#47242d;}.cls-11{fill:#3f151e;}.cls-12{fill:#512e3a;}.cls-13{fill:#350e0e;}.cls-14{fill:#210500;}.cls-15{fill:#472e3f;}.cls-16{fill:#442140;}.cls-17{fill:#1e1904;}.cls-18{fill:#28230c;}.cls-19{fill:#231d03;}.cls-20{fill:#332d14;}.cls-21{fill:#26200a;}.cls-22{fill:#282208;}.cls-23{fill:#282207;}.cls-24{fill:url(#linear-gradient-7);}.cls-25{fill:url(#linear-gradient-8);}.cls-26{fill:#a55050;}.cls-27{fill:#ff9a51;}.cls-28{fill:#e9633b;}.cls-29{fill:#fc8245;}.cls-30{fill:#d54f31;}.cls-31{fill:#be3226;}.cls-32,.cls-36{fill:#fff;}.cls-32{opacity:0.2;}.cls-33{opacity:0.57;}.cls-34{fill:#664542;}.cls-35{fill:url(#linear-gradient-9);}.cls-37{fill:#ff4800;}.cls-38{fill:#2bd0fa;}.cls-39{fill:#2a69a8;stroke:#2a69a8;stroke-width:5px;}.cls-40{fill:#60474c;opacity:0.77;}.cls-41{fill:#7a8889;}.cls-42,.cls-45{fill:#9aa4a5;}.cls-43{fill:#b7c3c4;}.cls-44{fill:#ea3d34;}.cls-45{stroke:#9aa4a5;stroke-miterlimit:10;stroke-width:4px;}.cls-46{fill:#dd9864;}.cls-47{fill:#ffe1dc;}.cls-48{fill:#fff4f3;}.cls-49{fill:#6ba6ce;}.cls-50{fill:#e58880;}.cls-51{fill:#aaa;}.cls-52{fill:#1e5b7a;opacity:0.34;}.cls-53{fill:#606d6d;}.cls-54{fill:#7c8b8c;}.cls-55{fill:#1c0309;opacity:0.72;}.cls-56{fill:#84445e;}.cls-57{fill:#282106;}</style><radialGradient id="radial-gradient" cx="960.84" cy="540.99" fx="1020.2518473625468" fy="1562.2552665215617" r="1918.57" gradientTransform="translate(42.2 137.36) rotate(6.97) scale(1 0.53)" gradientUnits="userSpaceOnUse"><stop offset="0.09" stop-color="#ff5967"/><stop offset="0.16" stop-color="#ff5967" stop-opacity="0.79"/><stop offset="0.23" stop-color="#ff5967" stop-opacity="0.58"/><stop offset="0.3" stop-color="#ff5967" stop-opacity="0.4"/><stop offset="0.38" stop-color="#ff5967" stop-opacity="0.26"/><stop offset="0.45" stop-color="#ff5967" stop-opacity="0.14"/><stop offset="0.52" stop-color="#ff5967" stop-opacity="0.06"/><stop offset="0.59" stop-color="#ff5967" stop-opacity="0.02"/><stop offset="0.66" stop-color="#ff5967" stop-opacity="0"/><stop offset="1" stop-color="#ff5967" stop-opacity="0"/></radialGradient><linearGradient id="linear-gradient" x1="960.84" y1="1081.98" x2="960.84" y2="531.77" gradientTransform="matrix(1, 0, 0, 1, 0, 0)" xlink:href="#radial-gradient"/><radialGradient id="radial-gradient-2" cx="933.82" cy="600.72" fx="395.07854764268484" fy="576.4138280770451" r="754.88" gradientTransform="translate(-1031.07 1137.16) rotate(-77.98) scale(1 3.01)" gradientUnits="userSpaceOnUse"><stop offset="0.07" stop-color="#fe9b46"/><stop offset="0.07" stop-color="#fe9b46"/><stop offset="0.12" stop-color="#f98b4e" stop-opacity="0.77"/><stop offset="0.16" stop-color="#f57d55" stop-opacity="0.56"/><stop offset="0.21" stop-color="#f1725b" stop-opacity="0.39"/><stop offset="0.26" stop-color="#ee6860" stop-opacity="0.25"/><stop offset="0.31" stop-color="#ec6163" stop-opacity="0.14"/><stop offset="0.36" stop-color="#ea5b66" stop-opacity="0.06"/><stop offset="0.41" stop-color="#e95867" stop-opacity="0.02"/><stop offset="0.46" stop-color="#e95768" stop-opacity="0"/></radialGradient><linearGradient id="linear-gradient-2" x1="960.84" y1="995.55" x2="960.84" y2="646.3" gradientUnits="userSpaceOnUse"><stop offset="0.07" stop-color="#fabc6b"/><stop offset="0.11" stop-color="#fbb268" stop-opacity="0.87"/><stop offset="0.2" stop-color="#fba162" stop-opacity="0.64"/><stop offset="0.29" stop-color="#fc925e" stop-opacity="0.45"/><stop offset="0.37" stop-color="#fd865a" stop-opacity="0.29"/><stop offset="0.46" stop-color="#fd7d57" stop-opacity="0.16"/><stop offset="0.54" stop-color="#fe7655" stop-opacity="0.07"/><stop offset="0.62" stop-color="#fe7253" stop-opacity="0.02"/><stop offset="0.69" stop-color="#fe7153" stop-opacity="0"/></linearGradient><linearGradient id="linear-gradient-3" x1="960" y1="-18209.93" x2="960" y2="-25627.01" gradientTransform="matrix(1, 0, 0, -0.14, 0, -2517.43)" gradientUnits="userSpaceOnUse"><stop offset="0" stop-color="#59455c"/><stop offset="0.16" stop-color="#5c455c" stop-opacity="0.95"/><stop offset="0.32" stop-color="#63455b" stop-opacity="0.81"/><stop offset="0.5" stop-color="#70455a" stop-opacity="0.58"/><stop offset="0.67" stop-color="#824459" stop-opacity="0.26"/><stop offset="0.78" stop-color="#914458" stop-opacity="0"/></linearGradient><linearGradient id="linear-gradient-4" x1="1513.4" y1="1043.81" x2="1513.4" y2="847.52" gradientUnits="userSpaceOnUse"><stop offset="0.32" stop-color="#fbedda"/><stop offset="0.57" stop-color="#f8e7ba"/><stop offset="0.98" stop-color="#f1db7b"/></linearGradient><linearGradient id="linear-gradient-5" x1="610.9" y1="1074.42" x2="610.9" y2="865.02" xlink:href="#linear-gradient-4"/><linearGradient id="linear-gradient-6" x1="968.91" y1="847.52" x2="968.91" y2="1074.42" gradientUnits="userSpaceOnUse"><stop offset="0.15" stop-color="#532037" stop-opacity="0.89"/><stop offset="0.23" stop-color="#5e263a" stop-opacity="0.9"/><stop offset="0.37" stop-color="#7b3641" stop-opacity="0.92"/><stop offset="0.56" stop-color="#ab504d" stop-opacity="0.95"/><stop offset="0.78" stop-color="#ec745d" stop-opacity="0.99"/><stop offset="0.81" stop-color="#f6795f"/></linearGradient><linearGradient id="linear-gradient-7" x1="1510.13" y1="1025.34" x2="1510.13" y2="884.02" gradientUnits="userSpaceOnUse"><stop offset="0" stop-color="#773c41"/><stop offset="0.55" stop-color="#642f36"/><stop offset="1" stop-color="#51222b"/></linearGradient><linearGradient id="linear-gradient-8" x1="415.55" y1="1025.36" x2="415.55" y2="892.5" xlink:href="#linear-gradient-7"/><linearGradient id="linear-gradient-9" x1="1449.25" y1="547.77" x2="1449.25" y2="314.4" gradientUnits="userSpaceOnUse"><stop offset="0" stop-color="#7d586e"/><stop offset="0.14" stop-color="#815a6d" stop-opacity="0.97"/><stop offset="0.27" stop-color="#8d606a" stop-opacity="0.88"/><stop offset="0.4" stop-color="#a16a66" stop-opacity="0.72"/><stop offset="0.53" stop-color="#be7960" stop-opacity="0.5"/><stop offset="0.66" stop-color="#e28b57" stop-opacity="0.22"/><stop offset="0.74" stop-color="#ff9a51" stop-opacity="0"/></linearGradient></defs><title>16Asset 98@54x</title><g id="Layer_2" data-name="Layer 2"><g id="artboard_1" data-name="artboard 1"><g id="dusk"><rect class="cls-1" x="0.49" y="1.02" width="1920" height="1080.95"/><rect class="cls-2" x="0.84" width="1920" height="1081.98"/><rect class="cls-3" x="0.84" width="1920" height="1081.98"/><rect class="cls-4" x="0.84" width="1920" height="1081.98"/><rect class="cls-5" x="0.84" width="1920" height="1081.98"/><rect class="cls-6" y="1.37" width="1920" height="1025.93"/><path class="cls-7" d="M1920.49,914.29a1.57,1.57,0,0,0-1.57-1.57h-30.39c-18.23,0-34.32-9.44-39.65-23.27l-7.18-18.66c-5.33-13.83-21.42-23.27-39.65-23.27h-21.54c-22.9,0-41.46,14.72-41.46,32.88v63.75c0,18.16-18.56,32.88-41.45,32.88h-77.34l-64.53-.69c-18.13-.19-34-9.7-39.17-23.48l-6.27-16.66c-5.24-13.93-21.39-23.48-39.72-23.48H1312.72c-16.5,0-31.43-7.76-38-19.76h0c-6.58-12-21.51-19.76-38-19.76h-50.17c-22.9,0-41.46,14.72-41.46,32.89v16.35c0,17.61-9.19,34.86-31,36.84-6.89.63-7.72,4-7.72,4a1.57,1.57,0,0,0,1.45,1.07c12.74.31,45.1-.44,60.13.45,3,.17,13,1.06,11.78,3.77l-32.77,73a1.57,1.57,0,0,0,1.44,2.22h770.56a1.58,1.58,0,0,0,1.58-1.58Z"/><path class="cls-8" d="M143.14,891l18.39,68.34c4.09,15.18,21,26,40.55,26h10.56c22.89,0,41.45-14.72,41.45-32.88V936.16c0-18.16,18.56-32.89,41.46-32.89h50.17c16.5,0,31.43,7.76,38,19.76h0c6.59,12,21.51,19.76,38,19.76H579.59c18.33,0,34.48,9.55,39.72,23.49l6.27,16.65c5.18,13.78,21,23.29,39.17,23.48l64.53.69h77.34c22.89,0,41.45-14.72,41.45-32.88V910.47c0-18.16,18.56-32.88,41.46-32.88h21.55c18.22,0,34.32,9.45,39.64,23.28l7.19,18.65c5.32,13.83,21.41,23.27,39.64,23.27H1028c15.86,0,30.34,7.19,37.28,18.51l9.09,14.84c6.94,11.32,21.42,18.51,37.29,18.51H1163c22.89,0,41.45,14.72,41.45,32.88V1041c0,18.16-18.56,32.89-41.45,32.89H254.93v.53H17.34V897.9C17.34,879.74,35.9,865,58.79,865h43.8C122.15,865,139.05,875.86,143.14,891Z"/><path class="cls-9" d="M1918.92,912.72h-30.39c-18.23,0-34.32-9.44-39.65-23.27l-7.18-18.66c-5.33-13.83-21.42-23.27-39.65-23.27h-21.54c-22.9,0-41.46,14.72-41.46,32.88v63.75c0,18.16-18.56,32.88-41.45,32.88h-77.34l-64.53-.69c-18.13-.19-34-9.7-39.17-23.48l-6.27-16.66c-5.24-13.93-21.39-23.48-39.72-23.48H1312.72c-16.5,0-31.43-7.76-38-19.76h0c-6.58-12-21.51-19.76-38-19.76h-50.17c-22.9,0-41.46,14.72-41.46,32.89v16.35c0,17.61-9.19,34.86-31,36.84-6.89.63-7.72,4-7.72,4a1.57,1.57,0,0,0,1.45,1.07c12.74.31,45.1-.44,60.13.45,3,.17,13,1.06,11.78,3.77l-11.81,26.3c-1.59-.15-3.22-.23-4.86-.23h-51.4c-15.87,0-30.35-7.19-37.29-18.51l-9.09-14.84c-6.94-11.32-21.42-18.51-37.28-18.51h-30.4c-18.23,0-34.32-9.44-39.64-23.27l-7.19-18.65c-5.32-13.83-21.42-23.28-39.64-23.28H889.53c-22.9,0-41.46,14.72-41.46,32.88v63.75c0,18.16-18.56,32.88-41.45,32.88H729.28l-64.53-.69c-18.12-.19-34-9.7-39.17-23.48l-6.27-16.65c-5.24-13.94-21.39-23.49-39.72-23.49H421.74c-16.5,0-31.42-7.76-38-19.76s-21.51-19.76-38-19.76H295.55c-22.9,0-41.46,14.73-41.46,32.89v16.36c0,18.16-18.56,32.88-41.45,32.88H202.08c-19.56,0-36.46-10.84-40.55-26L143.14,891c-4.09-15.18-21-26-40.55-26H58.79c-22.89,0-41.45,14.72-41.45,32.88v176.52H254.93v-.53H1163c21.7,0,39.49-13.23,41.29-30.08h714.61a1.58,1.58,0,0,0,1.58-1.58V914.29A1.57,1.57,0,0,0,1918.92,912.72Z"/><polygon class="cls-10" points="1921.18 1081.98 0.49 1081.98 0.49 1007.86 964.54 1006.66 1921.18 1006.66 1921.18 1081.98"/><rect class="cls-11" x="0.47" y="1051.58" width="1920.71" height="11.93"/><rect class="cls-12" x="0.47" y="1022.75" width="1920.72" height="16.08"/><rect class="cls-13" x="0.49" y="1063.51" width="1920.69" height="18.47"/><rect class="cls-14" x="0.49" y="1074.23" width="1920.69" height="7.75"/><ellipse cx="270.3" cy="1074.36" rx="17.61" ry="1.02"/><ellipse cx="1804.16" cy="1063.41" rx="17.61" ry="1.02"/><ellipse cx="538.86" cy="1043.14" rx="5.84" ry="0.4"/><ellipse cx="458.45" cy="1056.27" rx="9.55" ry="0.54"/><path class="cls-15" d="M544.47,1043.52s2.77-.24.44-2.47c-.92-.86-5.24-2.3-7,.89,0,0-1,1.55,1.66,1.58S544.47,1043.52,544.47,1043.52Z"/><path class="cls-16" d="M1821.08,1064.39s8.36-.73,1.32-7.46c-2.75-2.59-15.8-7-21,2.69,0,0-3.06,4.67,5,4.77S1821.08,1064.39,1821.08,1064.39Z"/><path class="cls-16" d="M466.18,1056.77s4.18-.36.66-3.73c-1.37-1.3-7.9-3.47-10.5,1.34,0,0-1.53,2.34,2.5,2.39S466.18,1056.77,466.18,1056.77Z"/><path class="cls-16" d="M286.65,1075.3s8.36-.72,1.33-7.46c-2.76-2.59-15.81-6.94-21,2.7,0,0-3.06,4.66,5,4.76S286.65,1075.3,286.65,1075.3Z"/><ellipse cx="1841.74" cy="1063.12" rx="11.44" ry="1.11"/><path d="M311,1076.82c8.63,0,15.63.6,15.63,1.34s-7,1.34-15.63,1.34-15.63-.6-15.63-1.34"/><ellipse cx="552.09" cy="1069.71" rx="10.3" ry="0.88"/><ellipse cx="479.88" cy="1056.17" rx="7.42" ry="0.64"/><ellipse cx="1429.18" cy="1043" rx="6.9" ry="0.55"/><path class="cls-17" d="M319,1076.41v-12.07c0-3.53-5.48-3.54-5.48,0v12.07c0,3.53,5.48,3.53,5.48,0Z"/><path class="cls-18" d="M318.86,1077.14a8.18,8.18,0,0,1,.25-.8c.18-.51-.12.19.18-.41.21-.41.42-.82.66-1.21a13.79,13.79,0,0,1,5.5-4.91c3.12-1.65.35-6.39-2.77-4.73-4,2.14-8,6-9.11,10.6-.8,3.43,4.48,4.9,5.29,1.46Z"/><path class="cls-18" d="M307.44,1070.61c.32.11-.41-.18-.4-.18a6.54,6.54,0,0,0,.59.3,15.85,15.85,0,0,1,1.55,1,16.91,16.91,0,0,1,4.67,6.09c1.56,3.17,6.29.39,4.73-2.77-2-4-5.29-8.11-9.68-9.7-3.32-1.2-4.76,4.1-1.46,5.29Z"/><path class="cls-19" d="M557.92,1068.26v-8a1.81,1.81,0,0,0-3.62,0v8a1.81,1.81,0,0,0,3.62,0Z"/><path class="cls-20" d="M557.85,1068.74a4.51,4.51,0,0,1,.17-.52c.11-.34-.08.12.11-.27s.28-.54.44-.8a9,9,0,0,1,3.62-3.23c2.06-1.09.23-4.21-1.82-3.12-2.66,1.41-5.29,3.93-6,7-.53,2.26,3,3.23,3.48,1Z"/><path class="cls-20" d="M550.33,1064.44l-.27-.11c.12.08.27.12.4.19.33.19.8.48,1,.64a11.1,11.1,0,0,1,3.08,4c1,2.09,4.15.26,3.12-1.82-1.32-2.67-3.49-5.35-6.38-6.39-2.19-.79-3.13,2.7-1,3.48Z"/><path class="cls-21" d="M483.51,1054.53V1049a.9.9,0,0,0-1.8,0v5.5a.9.9,0,0,0,1.8,0Z"/><path class="cls-20" d="M483.65,1055.53c0,.3,0-.11.07-.27a5,5,0,0,1,.39-1.06,7,7,0,0,1,3-2.92c1-.56.1-2.12-.91-1.56-2.13,1.19-4.12,3.27-4.35,5.81-.1,1.16,1.7,1.15,1.8,0Z"/><path class="cls-20" d="M478.65,1051.4c-.15,0-.12-.1.07,0-.14-.1.4.27.53.38A13,13,0,0,1,482,1056c.5,1,2.06.13,1.55-.91a13.79,13.79,0,0,0-3.21-4.72,2.72,2.72,0,0,0-1.67-.76c-1.15.07-1.16,1.87,0,1.8Z"/><path class="cls-22" d="M1431.2,1041.4v-5.5a.9.9,0,0,0-1.8,0v5.5a.9.9,0,0,0,1.8,0Z"/><path class="cls-20" d="M1431.34,1042.4c0,.29,0-.12.07-.27a5,5,0,0,1,.39-1.06,7,7,0,0,1,3-2.93c1-.56.1-2.11-.91-1.55-2.13,1.18-4.12,3.26-4.35,5.81-.1,1.15,1.7,1.15,1.8,0Z"/><path class="cls-20" d="M1426.34,1038.27c-.15,0-.12-.1.07,0-.14-.1.4.26.53.37a13,13,0,0,1,2.73,4.18c.5,1.05,2.06.13,1.55-.9a13.7,13.7,0,0,0-3.21-4.72,2.66,2.66,0,0,0-1.67-.76c-1.15.06-1.16,1.86,0,1.8Z"/><path class="cls-23" d="M1846.93,1061.19v-10.34c0-2.7-4.2-2.71-4.2,0v10.34c0,2.7,4.2,2.71,4.2,0Z"/><path class="cls-20" d="M1846.64,1062a16.84,16.84,0,0,1,5.58-6.46c2.23-1.5.13-5.14-2.12-3.63a20.92,20.92,0,0,0-7.08,8c-1.18,2.42,2.44,4.55,3.62,2.12Z"/><path class="cls-20" d="M1837.57,1055.54l.17.12c.45.31-.17-.16.21.16a17.52,17.52,0,0,1,1.43,1.29,18.6,18.6,0,0,1,3.64,5.14c1.18,2.43,4.8.3,3.62-2.12a21.12,21.12,0,0,0-7-8.22c-2.25-1.51-4.35,2.13-2.12,3.63Z"/><path class="cls-24" d="M1815.38,901.58,1803,947.71c-2.76,10.24-14.17,17.56-27.37,17.56h-7.13c-15.45,0-28-9.94-28-22.2V932c0-12.26-12.52-22.19-28-22.19h-33.87c-11.13,0-21.21,5.23-25.65,13.33h0c-4.45,8.1-14.52,13.34-25.66,13.34H1520.81c-12.37,0-23.27,6.44-26.81,15.85l-4.23,11.24c-3.5,9.3-14.2,15.72-26.43,15.85l-43.56.46h-52.2c-15.45,0-28-9.93-28-22.19v-43c0-12.26-12.52-22.2-28-22.2h-14.55c-12.3,0-23.16,6.38-26.75,15.71l-4.85,12.59c-3.6,9.33-14.46,15.71-26.76,15.71h-20.51c-10.71,0-20.49,4.85-25.17,12.49l-6.14,10c-4.68,7.64-14.45,12.49-25.16,12.49h-34.69c-15.45,0-28,9.93-28,22.19v9.09c0,12.26,12.53,22.2,28,22.2h612.88v.35h181l.21-39.47h0a20.82,20.82,0,0,1-20.89-20.82V906.21c0-12.26-12.53-22.19-28-22.19h-29.56C1829.54,884,1818.14,891.34,1815.38,901.58Z"/><path class="cls-25" d="M773.35,971.51H728.17c-13.95,0-26.67-4.85-32.77-12.49l-8-10c-6.1-7.64-18.82-12.49-32.77-12.49H627.92c-16,0-30.16-6.38-34.84-15.71l-6.32-12.59c-4.68-9.33-18.82-15.71-34.84-15.71H533c-20.13,0-36.44,9.94-36.44,22.2v43c0,12.26-16.31,22.19-36.44,22.19h-68l-56.72-.46c-15.93-.13-29.87-6.55-34.43-15.85l-5.5-11.24c-4.61-9.41-18.81-15.85-34.92-15.85H121.82c-14.5,0-27.62-5.24-33.41-13.34S69.5,909.84,55,909.84H10.11a9.77,9.77,0,0,0-9.62,9.77V1025H773.35c12.28,0,33.8,1.19,48.72-.66a9.77,9.77,0,0,0,4.75-17.41l-3.44-2.67A67.21,67.21,0,0,1,807.51,986C802.35,977.52,789,971.51,773.35,971.51Z"/><path class="cls-26" d="M468,661h0c0-5.28,3.45-9.56,7.7-9.56h617.64c4.25,0,7.7,4.28,7.7,9.56h0c0,5.27-3.45,9.55-7.7,9.55H978.12c-32.29.55-64.59,0-96.87.73-4.2.09-7.57,6.9-7.57,12.1v1.27c0,5.22,3.39,11.82,7.59,11.9,31.33.59,62.66-.32,94,.34h284.51c4.25,0,7.7,4.28,7.7,9.55h0c0,5.28-3.45,9.56-7.7,9.56H642.13c-4.25,0-7.69-4.28-7.69-9.56h0c0-5.27,3.44-9.55,7.69-9.55H760.64c4.26,0,7.71-4.29,7.69-9.58,0-2.34,0-4.85,0-7.23,0-5.27-3.45-9.53-7.69-9.53H475.69C471.44,670.54,468,666.26,468,661Z"/><g id="planet"><ellipse class="cls-27" cx="1449.31" cy="430.54" rx="115.68" ry="116.69"/><path class="cls-28" d="M1345,380.11h208.68a116.86,116.86,0,0,0-41.13-47.3H1386.1A116.86,116.86,0,0,0,1345,380.11Z"/><path class="cls-29" d="M1336.29,405.57h226a116.56,116.56,0,0,0-6.71-21.1H1343A117.35,117.35,0,0,0,1336.29,405.57Z"/><path class="cls-27" d="M1333.63,430.54a119,119,0,0,0,.7,12.87h230a121.56,121.56,0,0,0,.7-12.87,118.06,118.06,0,0,0-2.67-25h-226A118.06,118.06,0,0,0,1333.63,430.54Z"/><path class="cls-27" d="M1397.88,535.08a114.9,114.9,0,0,0,102.85,0Z"/><path class="cls-29" d="M1334.18,442a116.8,116.8,0,0,0,51.22,85.86h127.82A116.8,116.8,0,0,0,1564.44,442Z"/><path class="cls-30" d="M1353.39,495.79h191.83a115.93,115.93,0,0,0,11.19-21.1h-214.2A116.51,116.51,0,0,0,1353.39,495.79Z"/><path class="cls-31" d="M1495.59,461.6h-52a12.65,12.65,0,0,0-12.6,12.71v0a12.65,12.65,0,0,0,12.6,12.71h52a12.65,12.65,0,0,0,12.6-12.71v0A12.65,12.65,0,0,0,1495.59,461.6Z"/><path class="cls-27" d="M1532,439.69a18,18,0,0,0-18-18.11H1334q-.35,4.44-.34,9a117.87,117.87,0,0,0,3.22,27.42H1514a18,18,0,0,0,18-18.12Z"/><path class="cls-27" d="M1485.11,506h-124a116.34,116.34,0,0,0,36.82,29.1h87.23a14.48,14.48,0,0,0,14.42-14.55h0A14.49,14.49,0,0,0,1485.11,506Z"/><path class="cls-27" d="M1506.39,372.1H1349.17a116.9,116.9,0,0,0-10,22.56h167.18a11.23,11.23,0,0,0,11.18-11.28h0A11.23,11.23,0,0,0,1506.39,372.1Z"/><path class="cls-27" d="M1512.52,332.81a114.9,114.9,0,0,0-126.42,0Z"/><path class="cls-30" d="M1504.46,328h-96a13.61,13.61,0,0,0-13.55,13.66v.09a13.61,13.61,0,0,0,13.55,13.67h129.28A116.34,116.34,0,0,0,1504.46,328Z"/><ellipse class="cls-32" cx="1389.11" cy="394.66" rx="42.07" ry="42.43"/><g class="cls-33"><ellipse class="cls-34" cx="1449.31" cy="430.54" rx="115.68" ry="116.69"/></g><ellipse class="cls-35" cx="1449.25" cy="431.09" rx="115.68" ry="116.69"/></g><path class="cls-36" d="M1128.32,310c-2.38,2.47-25.92,4.05-25.92,4.05S1134.81,337.5,1135,340c.23,4.05-9.29,4.22-9.29,4.22l24.46,9.87c.59.21,1.2.4,1.81.57a25.88,25.88,0,0,0,31.75-17.9,25.5,25.5,0,0,0-17.79-31.55c-1.49-.41-4.46-.82-4.46-.82l-34.94-1.64S1130.51,307.73,1128.32,310Z"/><path class="cls-37" d="M1138.85,316.66c-1.63,1.69-17.81,2.82-17.81,2.82s19,15.72,19.09,17.43c.15,2.77-3.16,3.19-3.16,3.19l16.79,6.71c.41.15.82.28,1.24.39a17.88,17.88,0,0,0,21.85-12.31,17.37,17.37,0,0,0-12.17-21.58c-1-.28-3.06-.56-3.06-.56l-24-1.05S1140.36,315.11,1138.85,316.66Z"/><path class="cls-38" d="M1138.85,316.66c-1.63,1.69-17.81,2.82-17.81,2.82s19,15.72,19.09,17.43c.15,2.77-3.16,3.19-3.16,3.19l16.79,6.71c.41.15.82.28,1.24.39a17.88,17.88,0,0,0,21.85-12.31,17.37,17.37,0,0,0-12.17-21.58c-1-.28-3.06-.56-3.06-.56l-24-1.05S1140.36,315.11,1138.85,316.66Z"/><path class="cls-39" d="M1172.59,323.24a14.28,14.28,0,1,1-19.41-5.33A14.23,14.23,0,0,1,1172.59,323.24Z"/><path class="cls-40" d="M1128.32,310c-2.38,2.47-25.92,4.05-25.92,4.05S1134.81,337.5,1135,340c.23,4.05-9.29,4.22-9.29,4.22l24.46,9.87c.59.21,1.2.4,1.81.57a25.88,25.88,0,0,0,31.75-17.9,25.5,25.5,0,0,0-17.79-31.55c-1.49-.41-4.46-.82-4.46-.82l-34.94-1.64S1130.51,307.73,1128.32,310Z"/><g id="comet_1" data-name="comet 1"><path class="cls-36" d="M1019.91,246.93c-1.85,1.91-20.11,3.1-20.11,3.1s25.1,18.25,25.21,20.18c.17,3.14-7.21,3.25-7.21,3.25l19,7.69q.69.25,1.41.45a20.06,20.06,0,0,0,24.64-13.83,19.78,19.78,0,0,0-13.74-24.5c-1.15-.32-3.46-.64-3.46-.64l-27.09-1.33S1021.61,245.18,1019.91,246.93Z"/><path class="cls-38" d="M1028.07,252.12c-1.28,1.31-13.82,2.16-13.82,2.16S1029,266.5,1029,267.82c.12,2.15-2.45,2.47-2.45,2.47l13,5.24q.47.17,1,.3a13.87,13.87,0,0,0,17-9.52,13.46,13.46,0,0,0-9.4-16.75c-.79-.21-2.38-.43-2.38-.43l-18.6-.86S1029.24,250.92,1028.07,252.12Z"/><path class="cls-39" d="M1054.22,257.28a11.08,11.08,0,1,1-15-4.17A11,11,0,0,1,1054.22,257.28Z"/><path class="cls-40" d="M1019.91,246.93c-1.85,1.91-20.11,3.1-20.11,3.1s25.1,18.25,25.21,20.18c.17,3.14-7.21,3.25-7.21,3.25l19,7.69q.69.25,1.41.45a20.06,20.06,0,0,0,24.64-13.83,19.78,19.78,0,0,0-13.74-24.5c-1.15-.32-3.46-.64-3.46-.64l-27.09-1.33S1021.61,245.18,1019.91,246.93Z"/></g><path class="cls-41" d="M558.22,1001.56h848a8.77,8.77,0,0,1,8.77,8.77v16.43a0,0,0,0,1,0,0H547.67a0,0,0,0,1,0,0v-14.65A10.55,10.55,0,0,1,558.22,1001.56Z"/><path class="cls-42" d="M1057.48,649.72c-4.2-.05,8.11,5.1,3.18,5.1l-16.22,26.66c-4.4,3.44-6.86,8.09-6.86,12.94v345.3h80.65V668.05C1118.24,654.42,1108.23,650.26,1057.48,649.72Z"/><path class="cls-41" d="M1109.13,680.53c-.05-2.66-2.83-4.81-6.25-4.81h-56.16c-3.47,0-6.29,2.2-6.29,4.91v30a4.15,4.15,0,0,0-.07.7c0,.05,0,.1,0,.15a4.18,4.18,0,0,0,1.11,2.86l0,0a7.25,7.25,0,0,0,7,1.86h54.28c3.47,0,6.29-2.19,6.29-4.91V681.63A3.69,3.69,0,0,0,1109.13,680.53Zm-56.12,5h30.63L1053,702.11Zm43.55,5v15.88H1067.2Z"/><path class="cls-41" d="M1149.55,719.68c-.06-2.66-2.83-4.81-6.26-4.81h-56.15c-9.89-.57-6.29,2.2-6.29,4.91v30a4.05,4.05,0,0,0-.07.7c0,.05,0,.1,0,.15,0,1-2.9,1.68-2.13,2.55l-.21.29c1.61,1.81-4.38,1.72,10.54,1.92h54.27c3.48,0,6.29-2.2,6.29-4.91V720.78A4.05,4.05,0,0,0,1149.55,719.68Zm-56.12,5h30.62l-30.62,16.56Zm43.54,4.95v15.88h-29.35Z"/><path class="cls-41" d="M1109.13,759.94c-.05-2.66-2.83-4.81-6.25-4.81h-56.16c-3.47,0-6.29,2.2-6.29,4.91v30a4.05,4.05,0,0,0-.07.7s0,.1,0,.15a4.16,4.16,0,0,0,1.11,2.85l0,0a7.27,7.27,0,0,0,7,1.87h54.28c3.47,0,6.29-2.2,6.29-4.91V761A3.69,3.69,0,0,0,1109.13,759.94ZM1053,765h30.63L1053,781.51Zm43.55,4.95v15.88H1067.2Z"/><path class="cls-41" d="M1149.55,796.62c-.06-2.67-2.83-4.81-6.26-4.81h-56.15c-3.48,0-6.29,2.19-6.29,4.91v29.95a4.05,4.05,0,0,0-.07.7s0,.1,0,.15c0,1-3.15,1.58-2.38,2.45l-.8-.1c1.61,1.81-11.09,2.43,11.38,2.41h54.27c3.48,0,6.29-2.2,6.29-4.91V797.71A4,4,0,0,0,1149.55,796.62Zm-56.12,5h30.62l-30.62,16.56Zm43.54,5v15.88h-29.35Z"/><path class="cls-41" d="M1108.45,837.2c0-2.67-2.83-4.81-6.26-4.81H1046c-3.47,0-6.29,2.19-6.29,4.91v30a4.05,4.05,0,0,0-.07.7s0,.1,0,.15a4.16,4.16,0,0,0,1.11,2.85l0,0a7.3,7.3,0,0,0,7.06,1.87h54.28c3.47,0,6.28-2.2,6.28-4.91V838.29A3.62,3.62,0,0,0,1108.45,837.2Zm-56.12,5H1083l-30.62,16.56Zm43.55,4.95V863h-29.36Z"/><path class="cls-41" d="M1108.45,867.85c0-2.66-2.83-4.81-6.26-4.81H1046c-3.47,0-6.29,2.2-6.29,4.91V897.9a4.05,4.05,0,0,0-.07.7s0,.1,0,.15a4.16,4.16,0,0,0,1.11,2.85l0,0a7.3,7.3,0,0,0,7.06,1.87h54.28c3.47,0,6.28-2.2,6.28-4.91V869A3.69,3.69,0,0,0,1108.45,867.85Zm-56.12,5H1083l-30.62,16.56Zm43.55,4.95v15.88h-29.36Z"/><path class="cls-41" d="M1108.45,898.5c0-2.66-2.83-4.81-6.26-4.81H1046c-3.47,0-6.29,2.2-6.29,4.91v29.95a4.15,4.15,0,0,0-.07.7s0,.1,0,.15a4.18,4.18,0,0,0,1.11,2.86l0,0a7.27,7.27,0,0,0,7.06,1.86h54.28c3.47,0,6.28-2.19,6.28-4.91V899.6A3.69,3.69,0,0,0,1108.45,898.5Zm-56.12,5H1083l-30.62,16.57Zm43.55,5v15.88h-29.36Z"/><path class="cls-41" d="M1108.45,929.16c0-2.67-2.83-4.81-6.26-4.81H1046c-3.47,0-6.29,2.19-6.29,4.9v30a4.05,4.05,0,0,0-.07.7c0,.05,0,.1,0,.15a4.16,4.16,0,0,0,1.11,2.85l0,0a7.3,7.3,0,0,0,7.06,1.87h54.28c3.47,0,6.28-2.2,6.28-4.91V930.25A3.62,3.62,0,0,0,1108.45,929.16Zm-56.12,5H1083l-30.62,16.57Zm43.55,5V955h-29.36Z"/><path class="cls-41" d="M1108.45,968.22c0-2.66-2.83-4.81-6.26-4.81H1046c-3.47,0-6.29,2.2-6.29,4.91v29.95a4.05,4.05,0,0,0-.07.7s0,.1,0,.15a4.16,4.16,0,0,0,1.11,2.85l0,0a7.3,7.3,0,0,0,7.06,1.87h54.28c3.47,0,6.28-2.2,6.28-4.91V969.32A3.69,3.69,0,0,0,1108.45,968.22Zm-56.12,5H1083l-30.62,16.56Zm43.55,4.95v15.88h-29.36Z"/><rect class="cls-43" x="1055.06" y="710.84" width="95.82" height="5.03" rx="0.09"/><rect class="cls-43" x="1053.02" y="788.25" width="95.82" height="4.02"/><path class="cls-42" d="M1015.8,658.22,986,681.48c-4.39,3.44-6.86,8.09-6.86,12.94v343h80.65V668.05c0-7.77,6.56-15.47-1-18.29C1058.74,649.76,1030.5,646.62,1015.8,658.22Z"/><path class="cls-43" d="M1040.77,655.12,1007,681.48c-4.39,3.44-6.86,8.09-6.86,12.94v343h80.65V668.05C1080.78,651.75,1055.53,643.59,1040.77,655.12Z"/><path class="cls-42" d="M1004,967.67v4.09a2.53,2.53,0,0,0,2.43,2.62h0a2.53,2.53,0,0,0,2.44-2.62v-4.09a2.53,2.53,0,0,0-2.46-2.62h0A2.53,2.53,0,0,0,1004,967.67Z"/><path class="cls-42" d="M1004,954.67v4.09a2.53,2.53,0,0,0,2.43,2.62h0a2.53,2.53,0,0,0,2.44-2.62v-4.09a2.53,2.53,0,0,0-2.46-2.62h0A2.53,2.53,0,0,0,1004,954.67Z"/><path class="cls-44" d="M1063.54,659.13h4.09a2.53,2.53,0,0,0,2.62-2.43h0a2.52,2.52,0,0,0-2.62-2.43h-4.09a2.52,2.52,0,0,0-2.62,2.45h0A2.53,2.53,0,0,0,1063.54,659.13Z"/><path class="cls-42" d="M1043.7,673.71l-23.19,17.89c-4.65,3.58-7.54,8.33-8.11,13.41a45,45,0,0,0-.26,4.93v19.53a16.26,16.26,0,0,1,5.33-11.93l28-23.61c9.15-7.68,29.27-3.79,29.27,11.23V685.63C1074.77,670.61,1055.16,663.08,1043.7,673.71Z"/><path class="cls-45" d="M1080.37,735.22h-16.85a3.68,3.68,0,0,0-2.25.78l-41.7,32.59a3.26,3.26,0,0,1-2,.69H1001.8a1.17,1.17,0,0,0-1.16,1.17h0a1.16,1.16,0,0,0,1.16,1.17h16.43a4.75,4.75,0,0,0,2.9-1l41.45-32.4a3.12,3.12,0,0,1,1.92-.66h15.87a1.16,1.16,0,0,0,1.16-1.11h0A1.17,1.17,0,0,0,1080.37,735.22Z"/><path class="cls-45" d="M1080.37,763h-16.85a3.68,3.68,0,0,0-2.25.78l-41.7,32.59a3.26,3.26,0,0,1-2,.69H1001.8a1.17,1.17,0,0,0-1.16,1.17h0a1.16,1.16,0,0,0,1.16,1.17h16.43a4.75,4.75,0,0,0,2.9-1l41.45-32.4a3.12,3.12,0,0,1,1.92-.66h15.87a1.16,1.16,0,0,0,1.16-1.11h0A1.17,1.17,0,0,0,1080.37,763Z"/><rect class="cls-42" x="1044.65" y="888.11" width="29.44" height="85.12" rx="12.91"/><path class="cls-46" d="M1196.28,991.28l0-24.3c-1-3.59,0-24.66-46.07-24.66s-45.1,21.07-46.06,24.66l0,24.3Z"/><path class="cls-47" d="M1124.58,794h0v197.3h51.23V794h0a17.91,17.91,0,0,0-6.54-12.58V721.67c4-2.16,6.57-5.75,6.57-9.8V633h0c-.53-10.68-11.78-45.56-25.59-45.56s-25.05,34.88-25.59,45.56h0v79.25c0,4.07,2.6,7.65,6.57,9.79V781.4A17.92,17.92,0,0,0,1124.58,794Z"/><path class="cls-48" d="M1124.58,794h0v197.3h51.23V794h0a17.91,17.91,0,0,0-6.54-12.58V721.67c4-2.16,6.57-5.75,6.57-9.8V633h0c-.53-10.68-11.78-45.56-25.59-45.56s-25.05,34.88-25.59,45.56h0v79.25c0,4.07,2.6,7.65,6.57,9.79V781.4A17.92,17.92,0,0,0,1124.58,794Z"/><path class="cls-49" d="M1124.58,914.14h0V944.9a1.61,1.61,0,0,0,.16.67h50.83a1.68,1.68,0,0,0,.24-.82V914.14h0s0-.08,0-.11H1124.6S1124.59,914.1,1124.58,914.14Z"/><path class="cls-50" d="M1124.58,794h0v4.82h51.23V794h0c0-.35,0-.7-.09-1.05h-51Q1124.61,793.46,1124.58,794Z"/><path class="cls-50" d="M1124.58,633.92h0v4.82h51.23v-4.82h0c0-.35,0-.7-.09-1h-51Q1124.61,633.4,1124.58,633.92Z"/><path class="cls-48" d="M1149.47,558.06l-5.45,57.8,10.1.28v0c.74,0,1.47,0,2.21,0l-6.16-58Z"/><path class="cls-51" d="M1174.79,716.11h-49.42A12.74,12.74,0,0,0,1131,722h38.24v-.31A12.93,12.93,0,0,0,1174.79,716.11Z"/><path class="cls-51" d="M1169.22,781.4h-38.09a20.23,20.23,0,0,0-4.61,5.7h47.31A20.06,20.06,0,0,0,1169.22,781.4Z"/><path class="cls-51" d="M1167.68,805.9v4.81a1.45,1.45,0,0,0,1.45,1.45h0a1.45,1.45,0,0,0,1.44-1.45v-4.8a1.44,1.44,0,0,0-1.44-1.45h0A1.44,1.44,0,0,0,1167.68,805.9Z"/><path class="cls-51" d="M1129.92,805.9v4.81a1.45,1.45,0,0,0,1.45,1.45h.05a1.45,1.45,0,0,0,1.43-1.45v-4.8a1.44,1.44,0,0,0-1.43-1.45h-.05A1.44,1.44,0,0,0,1129.92,805.9Z"/><rect class="cls-50" x="1124.56" y="955.51" width="51.23" height="5.87"/><path class="cls-52" d="M1140.29,593.23c-8.84,10.26-15.17,31.34-15.69,39.51,0,.09,0,.17,0,.25h0v79.28c0,4.07,2.6,7.65,6.57,9.79V781.4a18.21,18.21,0,0,0-6.46,11.53h0q-.06.52-.09,1.05h0V945.39c-10.6,2.82-19.4,9.61-20.5,21.87V992.8l20.5-1.52,15.73-.77Z"/><rect class="cls-53" x="1270.5" y="838.37" width="7.82" height="73.86" transform="translate(705.03 -562.09) rotate(33.91)"/><rect class="cls-53" x="1270.5" y="892.25" width="7.82" height="73.86" transform="translate(735.09 -552.92) rotate(33.91)"/><rect class="cls-53" x="1270.5" y="946.34" width="7.82" height="73.86" transform="translate(765.26 -543.72) rotate(33.91)"/><rect class="cls-54" x="1294.37" y="805.69" width="11.16" height="220.8" rx="5.58"/><rect class="cls-54" x="1246.31" y="824.35" width="11.16" height="202.13" rx="5.58"/><path class="cls-42" d="M1276.74,834.44l-22.36,13.69c-4.48,2.75-7.27,6.39-7.82,10.27a27.9,27.9,0,0,0-.25,3.78v15c0-3.43,1.84-6.71,5.14-9.13l27-18.08c8.83-5.88,28.23-2.9,28.23,8.6V843.57C1306.71,832.06,1287.8,826.3,1276.74,834.44Z"/><path class="cls-42" d="M1276,792.79l-22.37,13.69c-4.48,2.75-7.26,6.39-7.81,10.28a26.26,26.26,0,0,0-.26,3.77v26.34c0-3.43,1.85-6.71,5.14-9.14l27-18.07c8.82-5.88,28.22-2.91,28.22,8.6V801.92C1305.94,790.41,1287,784.65,1276,792.79Z"/><path class="cls-42" d="M1276,888.25,1253.61,902c-4.48,2.75-7.26,6.38-7.81,10.27a26.48,26.48,0,0,0-.26,3.78v15c0-3.43,1.85-6.71,5.14-9.13l27-18.08c8.82-5.88,28.22-2.91,28.22,8.6v-15C1305.94,885.88,1287,880.12,1276,888.25Z"/><path class="cls-42" d="M1276,942.57l-22.37,13.7c-4.48,2.74-7.26,6.38-7.81,10.27a26.26,26.26,0,0,0-.26,3.77v15c0-3.42,1.85-6.71,5.14-9.13l27-18.08c8.82-5.88,28.22-2.9,28.22,8.6V951.7C1305.94,940.2,1287,934.44,1276,942.57Z"/><path class="cls-42" d="M1276,996.89l-22.37,13.69c-4.48,2.75-7.26,6.38-7.81,10.27a26.48,26.48,0,0,0-.26,3.78v14.95c.91-.06,5.37,0,5.37,0l29.73.6h25.3V1006C1305.94,994.51,1287,988.75,1276,996.89Z"/><path class="cls-42" d="M960.92,991.14h257.21a19.66,19.66,0,0,1,19.66,19.66v32.72a0,0,0,0,1,0,0h-298a0,0,0,0,1,0,0v-31.21A21.17,21.17,0,0,1,960.92,991.14Z"/><rect class="cls-41" x="988.64" y="999.45" width="8.34" height="14.44" rx="3.78"/><rect class="cls-41" x="1016.65" y="998.52" width="8.34" height="14.44" rx="3.78"/><rect class="cls-41" x="1078.29" y="999.45" width="8.34" height="14.44" rx="3.78"/><rect class="cls-41" x="1143.27" y="999.45" width="8.34" height="14.44" rx="3.78"/><rect class="cls-41" x="1207.45" y="999.45" width="8.34" height="14.44" rx="3.78"/><rect class="cls-41" x="1111.94" y="999.45" width="8.34" height="14.44" rx="3.78"/><rect class="cls-41" x="1046.8" y="999.45" width="8.34" height="14.44" rx="3.78"/><rect class="cls-41" x="1174.6" y="999.45" width="8.34" height="14.44" rx="3.78"/><path class="cls-42" d="M556.89,1018.56H1404a11,11,0,0,1,11,11v14.18a0,0,0,0,1,0,0H547.67a0,0,0,0,1,0,0v-16a9.22,9.22,0,0,1,9.22-9.22Z"/><path class="cls-55" d="M1415,1010.33a8.77,8.77,0,0,0-8.76-8.77h-100.7V963.92a9.29,9.29,0,0,1,.41,2.73V951.7a10.14,10.14,0,0,0-.41-2.83V909.6a9.3,9.3,0,0,1,.41,2.74v-15a10.14,10.14,0,0,0-.41-2.83V854a9,9,0,0,1,1.18,4.52V843.57a10.14,10.14,0,0,0-1.18-4.73V825.52a9.3,9.3,0,0,1,.41,2.74V801.92c0-11.51-18.91-17.27-30-9.13l-22.37,13.69c-4.48,2.75-7.26,6.39-7.81,10.28a26.26,26.26,0,0,0-.26,3.77v26.34a9.67,9.67,0,0,1,.77-3.77v67.13a10.21,10.21,0,0,0-.51,2,26.48,26.48,0,0,0-.26,3.78v15a9.67,9.67,0,0,1,.77-3.77v37.37a9.86,9.86,0,0,0-.51,2,26.26,26.26,0,0,0-.26,3.77v15a9.67,9.67,0,0,1,.77-3.77v20.07h-10.83a19.66,19.66,0,0,0-17.35-10.42h-21.85l0-24.16c-.73-2.73-.33-15.6-20.45-21.59V798.8h0V794h0c0-.35,0-.7-.09-1.05h0a16.39,16.39,0,0,0-1.82-5.83h0a20.06,20.06,0,0,0-4.61-5.7h0V721.67l.84-.49.24-.16c.19-.13.38-.25.56-.39l.25-.18.56-.44.17-.14c.24-.21.47-.42.69-.64h0c.22-.21.43-.44.63-.66l.12-.15c.16-.19.31-.39.46-.58l.11-.16a6.36,6.36,0,0,0,.46-.69l0-.05a9.72,9.72,0,0,0,1.45-5.06V638.74h0v-4.82h0V633h0c-.49-9.84-10.09-40.23-22.4-44.93l-3.19-30-.7,0-2.85,30.17a18.07,18.07,0,0,0-6.33,5h0c-.29.34-.58.7-.87,1.06l-.39.51c-.2.26-.39.51-.58.78l-.42.58-.58.86-.35.52c-.28.43-.55.87-.83,1.32-.13.21-.25.43-.38.65l-.51.87-.38.68c-.19.34-.37.68-.55,1l-.45.85-.59,1.17c-.11.24-.23.48-.35.73s-.3.62-.44.94-.23.49-.34.73c-.19.41-.37.83-.55,1.24s-.26.59-.38.88l-.47,1.11-.3.76c-.14.33-.26.66-.39,1s-.19.49-.29.73c-.2.52-.39,1-.58,1.56l-.23.66c-.13.35-.25.69-.37,1s-.17.5-.25.75-.22.66-.33,1-.15.45-.22.68c-.17.5-.32,1-.47,1.5-.07.23-.14.45-.2.67s-.19.63-.28.95l-.2.71c-.09.32-.17.63-.25.94s-.12.41-.17.61c-.12.46-.23.92-.34,1.37l-.15.62c-.07.28-.13.56-.19.83s-.09.42-.14.62-.12.58-.18.87l-.12.6c-.07.36-.13.7-.19,1,0,.17,0,.34-.08.52s-.07.45-.11.67,0,.34-.07.5-.06.5-.08.73,0,.37,0,.54,0,.37-.05.54,0,.17,0,.25h0v77.85h-6.33V668.05c0-13.55-9.88-17.73-59.79-18.32-3-.29-28.81-2.42-42.64,8.49L986,681.48c-4.39,3.44-6.86,8.09-6.86,12.94V991.14H960.92a21.13,21.13,0,0,0-18.21,10.42H558.22a10.56,10.56,0,0,0-10.55,10.55v14.65h.06a8.72,8.72,0,0,0-.06,1v16H1415v-14.18a11.35,11.35,0,0,0-.37-2.82h.37Zm-139-13.44-7.64,4.67h-1.51l27.54-41v33.29C1288.4,992.28,1281.29,993,1276,996.89Zm0-54.32-10,6.09,28.34-42.16v33.07C1288.4,938,1281.29,938.66,1276,942.57Zm-18.51,4.8V917.28l20.25-13.54a20.72,20.72,0,0,1,11-2.94ZM1276,888.25l-9.45,5.79,27.84-41.42v32.63C1288.4,883.65,1281.29,884.35,1276,888.25Zm-18.51,5.25V864l21-14.05a20.27,20.27,0,0,1,10.24-2.92Zm20.25,64.55a20.68,20.68,0,0,1,10.9-2.93l-31.15,46.35V971.59ZM1124.05,724.69l-5.82,3.15v-3.15Zm7.08,8.12v12.71h-12.9v-5.74Zm-6.57,89.65h-6.33v-5.74l6.33-3.42Zm-6.33-17.68v-3.15h5.82Zm6.33,109.36v31.25a37.81,37.81,0,0,0-6.33,2.3V832.28h6.33ZM1126,788.25h-7.74V755.34h12.9V781.4h0c-.47.4-.91.82-1.33,1.25l-.42.47c-.26.29-.53.57-.77.87l-.46.6c-.2.27-.41.54-.6.82s-.29.45-.43.68-.32.53-.47.8-.26.5-.38.75A6.63,6.63,0,0,0,1126,788.25Zm151.75,31.41c4.22-2.82,10.87-3.6,16.65-2.39v14c-5.8-1.34-12.54-.54-17.63,3.2l-19.27,11.8v-13Z"/><path class="cls-56" d="M1035,493.8v0a14.72,14.72,0,0,1,14.68-14.72l371.17-1a14.72,14.72,0,0,1,14.76,14.72h0a14.72,14.72,0,0,1-14.72,14.73h-44.76a14.72,14.72,0,0,0-14.72,14.72v11.19a14.72,14.72,0,0,0,14.72,14.72h147.33a14.72,14.72,0,0,1,14.72,14.72v0a14.73,14.73,0,0,1-14.72,14.73h-258.6a14.73,14.73,0,0,1-14.72-14.73v0a14.72,14.72,0,0,1,14.72-14.72h16a14.72,14.72,0,0,0,14.72-14.72V522.29a14.71,14.71,0,0,0-14.78-14.72l-231,.95A14.73,14.73,0,0,1,1035,493.8Z"/></g><path class="cls-57" d="M1755.94,1082v-17.55c0-9.65-15-9.66-15,0V1082Z"/><path class="cls-20" d="M1728.82,1080.7c.5.3,1,.62,1.47,1l.44.33h20.88a51,51,0,0,0-15.22-14.23C1728.05,1062.84,1720.5,1075.8,1728.82,1080.7Z"/><path class="cls-20" d="M1766.41,1082c.65-.45,1.3-.87,2-1.28,8.31-4.9.77-17.87-7.57-13A53.86,53.86,0,0,0,1745,1082Z"/></g></g></svg>