<?xml version="1.0" encoding="utf-8"?>
<!-- Generator: Adobe Illustrator 23.0.1, SVG Export Plug-In . SVG Version: 6.00 Build 0)  -->
<svg version="1.1" id="Layer_1" xmlns="http://www.w3.org/2000/svg" xmlns:xlink="http://www.w3.org/1999/xlink" x="0px" y="0px"
	 viewBox="0 0 867.3 485.7" style="enable-background:new 0 0 867.3 485.7;" xml:space="preserve">
<style type="text/css">
	.st0{fill:#6F6F84;}
	.st1{fill:url(#SVGID_1_);}
	.st2{fill:url(#SVGID_2_);}
	.st3{fill:url(#SVGID_3_);}
	.st4{fill:url(#SVGID_4_);}
	.st5{fill:url(#SVGID_5_);}
	.st6{fill:url(#SVGID_6_);}
	.st7{fill:url(#SVGID_7_);}
	.st8{fill:url(#SVGID_8_);}
	.st9{fill:#47242D;}
	.st10{fill:#3F151E;}
	.st11{fill:#512E3A;}
	.st12{fill:#350E0E;}
	.st13{fill:#210500;}
	.st14{fill:#472E3F;}
	.st15{fill:#442140;}
	.st16{fill:#1E1904;}
	.st17{fill:#28230C;}
	.st18{fill:#231D03;}
	.st19{fill:#332D14;}
	.st20{fill:#26200A;}
	.st21{fill:#282208;}
	.st22{fill:#282207;}
	.st23{fill:url(#SVGID_9_);}
	.st24{fill:url(#SVGID_10_);}
	.st25{fill:url(#SVGID_11_);}
	.st26{fill:url(#SVGID_12_);}
	.st27{fill:url(#SVGID_13_);}
	.st28{fill:url(#SVGID_14_);}
	.st29{fill:url(#SVGID_15_);}
	.st30{fill:url(#SVGID_16_);}
	.st31{fill:url(#SVGID_17_);}
	.st32{fill:url(#SVGID_18_);}
	.st33{fill:url(#SVGID_19_);}
	.st34{fill:url(#SVGID_20_);}
	.st35{fill:#84445E;}
	.st36{fill:#282106;}
	.st37{fill:#A55050;}
	.st38{fill:#FF9A51;}
	.st39{fill:#E9633B;}
	.st40{fill:#FC8245;}
	.st41{fill:#D54F31;}
	.st42{fill:#BE3226;}
	.st43{opacity:0.2;fill:#FFFFFF;enable-background:new    ;}
	.st44{opacity:0.57;}
	.st45{fill:#664542;}
	.st46{fill:url(#SVGID_21_);}
	.st47{fill:#FFFFFF;}
	.st48{fill:#2BD0FA;}
	.st49{fill:#2A69A8;stroke:#2A69A8;stroke-width:5;}
	.st50{opacity:0.77;fill:#60474C;enable-background:new    ;}
	.st51{fill:#7A8889;}
	.st52{fill:#9AA4A5;}
	.st53{fill:#B7C3C4;}
	.st54{fill:#EA3D34;}
	.st55{fill:#9AA4A5;stroke:#9AA4A5;stroke-width:4;stroke-miterlimit:10;}
	.st56{fill:#DD9864;}
	.st57{fill:#FFE1DC;}
	.st58{fill:#FFF4F3;}
	.st59{fill:#6BA6CE;}
	.st60{fill:#E58880;}
	.st61{fill:#AAAAAA;}
	.st62{opacity:0.34;fill:#1E5B7A;enable-background:new    ;}
	.st63{fill:#606D6D;}
	.st64{fill:#7C8B8C;}
	.st65{fill:url(#SVGID_22_);}
	.st66{fill:url(#SVGID_23_);}
	.st67{fill:url(#SVGID_24_);}
	.st68{fill:url(#SVGID_25_);}
	.st69{fill:url(#SVGID_26_);}
	.st70{fill:url(#SVGID_27_);}
	.st71{fill:url(#SVGID_28_);}
	.st72{fill:url(#SVGID_29_);}
	.st73{fill:url(#SVGID_30_);}
	.st74{opacity:0.72;fill:#1C0309;enable-background:new    ;}
</style>
<title>16Asset 98@54x</title>
<rect x="-2638.8" y="-1794.8" class="st0" width="1920" height="1080.9"/>
<radialGradient id="SVGID_1_" cx="-1694.8347" cy="-864.4182" r="1918.5765" fx="-1635.4227" fy="156.8506" gradientTransform="matrix(0.9926 0.1213 6.431530e-02 -0.5261 59.7972 -1506.3733)" gradientUnits="userSpaceOnUse">
	<stop  offset="9.000000e-02" style="stop-color:#FF5967"/>
	<stop  offset="0.16" style="stop-color:#FF5967;stop-opacity:0.79"/>
	<stop  offset="0.23" style="stop-color:#FF5967;stop-opacity:0.58"/>
	<stop  offset="0.3" style="stop-color:#FF5967;stop-opacity:0.4"/>
	<stop  offset="0.38" style="stop-color:#FF5967;stop-opacity:0.26"/>
	<stop  offset="0.45" style="stop-color:#FF5967;stop-opacity:0.14"/>
	<stop  offset="0.52" style="stop-color:#FF5967;stop-opacity:6.000000e-02"/>
	<stop  offset="0.59" style="stop-color:#FF5967;stop-opacity:2.000000e-02"/>
	<stop  offset="0.66" style="stop-color:#FF5967;stop-opacity:0"/>
	<stop  offset="1" style="stop-color:#FF5967;stop-opacity:0"/>
</radialGradient>
<rect x="-2638.4" y="-1795.8" class="st1" width="1920" height="1082"/>
<linearGradient id="SVGID_2_" gradientUnits="userSpaceOnUse" x1="-1678.4044" y1="-1795.8273" x2="-1678.4044" y2="-1245.6173" gradientTransform="matrix(1 0 0 -1 0 -2509.6946)">
	<stop  offset="9.000000e-02" style="stop-color:#FF5967"/>
	<stop  offset="0.16" style="stop-color:#FF5967;stop-opacity:0.79"/>
	<stop  offset="0.23" style="stop-color:#FF5967;stop-opacity:0.58"/>
	<stop  offset="0.3" style="stop-color:#FF5967;stop-opacity:0.4"/>
	<stop  offset="0.38" style="stop-color:#FF5967;stop-opacity:0.26"/>
	<stop  offset="0.45" style="stop-color:#FF5967;stop-opacity:0.14"/>
	<stop  offset="0.52" style="stop-color:#FF5967;stop-opacity:6.000000e-02"/>
	<stop  offset="0.59" style="stop-color:#FF5967;stop-opacity:2.000000e-02"/>
	<stop  offset="0.66" style="stop-color:#FF5967;stop-opacity:0"/>
	<stop  offset="1" style="stop-color:#FF5967;stop-opacity:0"/>
</linearGradient>
<rect x="-2638.4" y="-1795.8" class="st2" width="1920" height="1082"/>
<radialGradient id="SVGID_3_" cx="-2891.6382" cy="-1856.0239" r="754.88" fx="-3430.3796" fy="-1880.3301" gradientTransform="matrix(0.2083 -0.9781 -2.944 -0.6268 -6569.2729 -5187.1489)" gradientUnits="userSpaceOnUse">
	<stop  offset="7.000000e-02" style="stop-color:#FE9B46"/>
	<stop  offset="7.000000e-02" style="stop-color:#FE9B46"/>
	<stop  offset="0.12" style="stop-color:#F98B4E;stop-opacity:0.77"/>
	<stop  offset="0.16" style="stop-color:#F57D55;stop-opacity:0.56"/>
	<stop  offset="0.21" style="stop-color:#F1725B;stop-opacity:0.39"/>
	<stop  offset="0.26" style="stop-color:#EE6860;stop-opacity:0.25"/>
	<stop  offset="0.31" style="stop-color:#EC6163;stop-opacity:0.14"/>
	<stop  offset="0.36" style="stop-color:#EA5B66;stop-opacity:6.000000e-02"/>
	<stop  offset="0.41" style="stop-color:#E95867;stop-opacity:2.000000e-02"/>
	<stop  offset="0.46" style="stop-color:#E95768;stop-opacity:0"/>
</radialGradient>
<rect x="-2638.4" y="-1795.8" class="st3" width="1920" height="1082"/>
<linearGradient id="SVGID_4_" gradientUnits="userSpaceOnUse" x1="-1678.4044" y1="-1709.3972" x2="-1678.4044" y2="-1360.1472" gradientTransform="matrix(1 0 0 -1 0 -2509.6946)">
	<stop  offset="7.000000e-02" style="stop-color:#FABC6B"/>
	<stop  offset="0.11" style="stop-color:#FBB268;stop-opacity:0.87"/>
	<stop  offset="0.2" style="stop-color:#FBA162;stop-opacity:0.64"/>
	<stop  offset="0.29" style="stop-color:#FC925E;stop-opacity:0.45"/>
	<stop  offset="0.37" style="stop-color:#FD865A;stop-opacity:0.29"/>
	<stop  offset="0.46" style="stop-color:#FD7D57;stop-opacity:0.16"/>
	<stop  offset="0.54" style="stop-color:#FE7655;stop-opacity:7.000000e-02"/>
	<stop  offset="0.62" style="stop-color:#FE7253;stop-opacity:2.000000e-02"/>
	<stop  offset="0.69" style="stop-color:#FE7153;stop-opacity:0"/>
</linearGradient>
<rect x="-2638.4" y="-1795.8" class="st4" width="1920" height="1082"/>
<linearGradient id="SVGID_5_" gradientUnits="userSpaceOnUse" x1="315.3087" y1="17162.2246" x2="315.3087" y2="24579.3047" gradientTransform="matrix(1 0 0 0.14 0 -4166.5986)">
	<stop  offset="0" style="stop-color:#59455C"/>
	<stop  offset="0.16" style="stop-color:#5C455C;stop-opacity:0.95"/>
	<stop  offset="0.32" style="stop-color:#63455B;stop-opacity:0.81"/>
	<stop  offset="0.5" style="stop-color:#70455A;stop-opacity:0.58"/>
	<stop  offset="0.67" style="stop-color:#824459;stop-opacity:0.26"/>
	<stop  offset="0.78" style="stop-color:#914458;stop-opacity:0"/>
</linearGradient>
<rect x="-644.7" y="-1794.5" class="st5" width="1920" height="1025.9"/>
<linearGradient id="SVGID_6_" gradientUnits="userSpaceOnUse" x1="-1125.7896" y1="-1757.6373" x2="-1125.7896" y2="-1561.3672" gradientTransform="matrix(1 0 0 -1 0 -2509.6946)">
	<stop  offset="0.32" style="stop-color:#FBEDDA"/>
	<stop  offset="0.57" style="stop-color:#F8E7BA"/>
	<stop  offset="0.98" style="stop-color:#F1DB7B"/>
</linearGradient>
<path class="st6" d="M-718.8-881.6c0-0.9-0.7-1.6-1.6-1.6h-30.4c-18.2,0-34.3-9.4-39.7-23.3l-7.2-18.7
	c-5.3-13.8-21.4-23.3-39.7-23.3h-21.5c-22.9,0-41.5,14.7-41.5,32.9v63.8c0,18.2-18.6,32.9-41.4,32.9h-77.3l-64.5-0.7
	c-18.1-0.2-34-9.7-39.2-23.5l-6.3-16.7c-5.2-13.9-21.4-23.5-39.7-23.5h-157.8c-16.5,0-31.4-7.8-38-19.8l0,0
	c-6.6-12-21.5-19.8-38-19.8h-50.2c-22.9,0-41.5,14.7-41.5,32.9v16.3c0,17.6-9.2,34.9-31,36.8c-6.9,0.6-7.7,4-7.7,4
	c0.2,0.6,0.8,1.1,1.4,1.1c12.7,0.3,45.1-0.4,60.1,0.5c3,0.2,13,1.1,11.8,3.8l-32.8,73c-0.4,0.8,0,1.7,0.8,2.1
	c0.2,0.1,0.4,0.1,0.7,0.1h770.6c0.9,0,1.6-0.7,1.6-1.6L-718.8-881.6z"/>
<linearGradient id="SVGID_7_" gradientUnits="userSpaceOnUse" x1="-2028.3495" y1="-1788.2673" x2="-2028.3495" y2="-1578.8473" gradientTransform="matrix(1 0 0 -1 0 -2509.6946)">
	<stop  offset="0.32" style="stop-color:#FBEDDA"/>
	<stop  offset="0.57" style="stop-color:#F8E7BA"/>
	<stop  offset="0.98" style="stop-color:#F1DB7B"/>
</linearGradient>
<path class="st7" d="M-2496.1-904.8l18.4,68.3c4.1,15.2,21,26,40.5,26h10.6c22.9,0,41.4-14.7,41.4-32.9v-16.3
	c0-18.2,18.6-32.9,41.5-32.9h50.2c16.5,0,31.4,7.8,38,19.8l0,0c6.6,12,21.5,19.8,38,19.8h157.9c18.3,0,34.5,9.5,39.7,23.5l6.3,16.7
	c5.2,13.8,21,23.3,39.2,23.5l64.5,0.7h77.3c22.9,0,41.5-14.7,41.5-32.9v-63.8c0-18.2,18.6-32.9,41.5-32.9h21.6
	c18.2,0,34.3,9.5,39.6,23.3l7.2,18.7c5.3,13.8,21.4,23.3,39.6,23.3h30.4c15.9,0,30.3,7.2,37.3,18.5l9.1,14.8
	c6.9,11.3,21.4,18.5,37.3,18.5h51.3c22.9,0,41.4,14.7,41.4,32.9v13.5c0,18.2-18.6,32.9-41.4,32.9h-908.1v0.5h-237.6v-176.5
	c0-18.2,18.6-32.9,41.5-32.9h43.8C-2517.1-930.8-2500.2-920-2496.1-904.8z"/>
<linearGradient id="SVGID_8_" gradientUnits="userSpaceOnUse" x1="-1670.3345" y1="-1561.3672" x2="-1670.3345" y2="-1788.2473" gradientTransform="matrix(1 0 0 -1 0 -2509.6946)">
	<stop  offset="0.15" style="stop-color:#532037;stop-opacity:0.89"/>
	<stop  offset="0.23" style="stop-color:#5E263A;stop-opacity:0.9"/>
	<stop  offset="0.37" style="stop-color:#7B3641;stop-opacity:0.92"/>
	<stop  offset="0.56" style="stop-color:#AB504D;stop-opacity:0.95"/>
	<stop  offset="0.78" style="stop-color:#EC745D;stop-opacity:0.99"/>
	<stop  offset="0.81" style="stop-color:#F6795F"/>
</linearGradient>
<path class="st8" d="M-720.3-883.1h-30.4c-18.2,0-34.3-9.4-39.7-23.3l-7.2-18.7c-5.3-13.8-21.4-23.3-39.7-23.3h-21.5
	c-22.9,0-41.5,14.7-41.5,32.9v63.8c0,18.2-18.6,32.9-41.4,32.9h-77.3l-64.5-0.7c-18.1-0.2-34-9.7-39.2-23.5l-6.3-16.7
	c-5.2-13.9-21.4-23.5-39.7-23.5h-157.8c-16.5,0-31.4-7.8-38-19.8l0,0c-6.6-12-21.5-19.8-38-19.8h-50.2c-22.9,0-41.5,14.7-41.5,32.9
	v16.3c0,17.6-9.2,34.9-31,36.8c-6.9,0.6-7.7,4-7.7,4c0.2,0.6,0.8,1.1,1.4,1.1c12.7,0.3,45.1-0.4,60.1,0.5c3,0.2,13,1.1,11.8,3.8
	l-11.8,26.3c-1.6-0.2-3.2-0.2-4.9-0.2h-51.4c-15.9,0-30.3-7.2-37.3-18.5l-9.1-14.8c-6.9-11.3-21.4-18.5-37.3-18.5h-30.4
	c-18.2,0-34.3-9.4-39.6-23.3l-7.2-18.7c-5.3-13.8-21.4-23.3-39.6-23.3h-21.6c-22.9,0-41.5,14.7-41.5,32.9v63.8
	c0,18.2-18.6,32.9-41.5,32.9h-77.3l-64.5-0.7c-18.1-0.2-34-9.7-39.2-23.5l-6.3-16.7c-5.2-13.9-21.4-23.5-39.7-23.5h-157.8
	c-16.5,0-31.4-7.8-38-19.8c-6.6-12-21.5-19.8-38-19.8h-50.2c-22.9,0-41.5,14.7-41.5,32.9v16.4c0,18.2-18.6,32.9-41.4,32.9h-10.6
	c-19.6,0-36.5-10.8-40.5-26l-18.4-68.4c-4.1-15.2-21-26-40.6-26h-43.8c-22.9,0-41.5,14.7-41.5,32.9v176.5h237.6v-0.5h908.1
	c21.7,0,39.5-13.2,41.3-30.1h714.6c0.9,0,1.6-0.7,1.6-1.6v-127.9C-718.8-882.4-719.5-883.1-720.3-883.1z"/>
<polygon class="st9" points="-718.1,-713.9 -2638.8,-713.9 -2638.8,-788 -1674.7,-789.2 -718.1,-789.2 "/>
<rect x="-2638.8" y="-744.3" class="st10" width="1920.7" height="11.9"/>
<rect x="-2638.8" y="-773.1" class="st11" width="1920.7" height="16.1"/>
<rect x="-2638.8" y="-732.3" class="st12" width="1920.7" height="18.5"/>
<rect x="-2638.8" y="-721.6" class="st13" width="1920.7" height="7.8"/>
<ellipse cx="-2368.9" cy="-721.5" rx="17.6" ry="1"/>
<ellipse cx="-835.1" cy="-732.4" rx="17.6" ry="1"/>
<ellipse cx="-2100.4" cy="-752.7" rx="5.8" ry="0.4"/>
<ellipse cx="-2180.8" cy="-739.6" rx="9.5" ry="0.5"/>
<path class="st14" d="M-2094.8-752.3c0,0,2.8-0.2,0.4-2.5c-0.9-0.9-5.2-2.3-7,0.9c0,0-1,1.6,1.7,1.6S-2094.8-752.3-2094.8-752.3z"/>
<path class="st15" d="M-818.2-731.5c0,0,8.4-0.7,1.3-7.5c-2.8-2.6-15.8-7-21,2.7c0,0-3.1,4.7,5,4.8S-818.2-731.5-818.2-731.5z"/>
<path class="st15" d="M-2173.1-739.1c0,0,4.2-0.4,0.7-3.7c-1.4-1.3-7.9-3.5-10.5,1.3c0,0-1.5,2.3,2.5,2.4
	S-2173.1-739.1-2173.1-739.1z"/>
<path class="st15" d="M-2352.6-720.5c0,0,8.4-0.7,1.3-7.5c-2.8-2.6-15.8-6.9-21,2.7c0,0-3.1,4.7,5,4.8
	C-2359.2-720.4-2352.6-720.5-2352.6-720.5z"/>
<ellipse cx="-797.5" cy="-732.7" rx="11.4" ry="1.1"/>
<path d="M-2328.2-719c8.6,0,15.6,0.6,15.6,1.3s-7,1.3-15.6,1.3c-8.6,0-15.6-0.6-15.6-1.3"/>
<ellipse cx="-2087.2" cy="-726.1" rx="10.3" ry="0.9"/>
<ellipse cx="-2159.4" cy="-739.7" rx="7.4" ry="0.6"/>
<ellipse cx="-1210.1" cy="-752.8" rx="6.9" ry="0.6"/>
<path class="st16" d="M-2320.2-719.4v-12.1c0-3.5-5.5-3.5-5.5,0v12.1C-2325.7-715.9-2320.2-715.9-2320.2-719.4z"/>
<path class="st17" d="M-2320.4-718.7c0.1-0.3,0.2-0.5,0.3-0.8c0.2-0.5-0.1,0.2,0.2-0.4c0.2-0.4,0.4-0.8,0.7-1.2
	c1.4-2.1,3.3-3.8,5.5-4.9c3.1-1.7,0.3-6.4-2.8-4.7c-4,2.1-8,6-9.1,10.6C-2326.5-716.7-2321.2-715.3-2320.4-718.7L-2320.4-718.7z"/>
<path class="st17" d="M-2331.8-725.2c0.3,0.1-0.4-0.2-0.4-0.2c0.2,0.1,0.4,0.2,0.6,0.3c0.5,0.3,1.1,0.6,1.6,1c2,1.6,3.6,3.7,4.7,6.1
	c1.6,3.2,6.3,0.4,4.7-2.8c-2-4-5.3-8.1-9.7-9.7C-2333.7-731.7-2335.1-726.4-2331.8-725.2L-2331.8-725.2z"/>
<path class="st18" d="M-2081.3-727.6v-8c0-1-0.8-1.8-1.8-1.8c-1,0-1.8,0.8-1.8,1.8v8c0,1,0.8,1.8,1.8,1.8
	C-2082.1-725.8-2081.3-726.6-2081.3-727.6z"/>
<path class="st19" d="M-2081.4-727.1c0-0.2,0.1-0.4,0.2-0.5c0.1-0.3-0.1,0.1,0.1-0.3s0.3-0.5,0.4-0.8c0.9-1.4,2.1-2.5,3.6-3.2
	c2.1-1.1,0.2-4.2-1.8-3.1c-2.7,1.4-5.3,3.9-6,7C-2085.4-725.8-2081.9-724.8-2081.4-727.1L-2081.4-727.1z"/>
<path class="st19" d="M-2088.9-731.4l-0.3-0.1c0.1,0.1,0.3,0.1,0.4,0.2c0.3,0.2,0.8,0.5,1,0.6c1.3,1.1,2.4,2.4,3.1,4
	c1,2.1,4.1,0.3,3.1-1.8c-1.3-2.7-3.5-5.3-6.4-6.4C-2090.2-735.7-2091.1-732.2-2088.9-731.4L-2088.9-731.4z"/>
<path class="st20" d="M-2155.7-741.3v-5.5c0-0.5-0.4-0.9-0.9-0.9c-0.5,0-0.9,0.4-0.9,0.9v5.5c0,0.5,0.4,0.9,0.9,0.9
	C-2156.1-740.5-2155.7-740.9-2155.7-741.3L-2155.7-741.3z"/>
<path class="st19" d="M-2155.6-740.3c0,0.3,0-0.1,0.1-0.3c0.1-0.4,0.2-0.7,0.4-1.1c0.7-1.3,1.7-2.3,3-2.9c1-0.6,0.1-2.1-0.9-1.6
	c-2.1,1.2-4.1,3.3-4.4,5.8C-2157.5-739.2-2155.7-739.2-2155.6-740.3L-2155.6-740.3z"/>
<path class="st19" d="M-2160.6-744.4C-2160.7-744.4-2160.7-744.5-2160.6-744.4c-0.1-0.1,0.5,0.3,0.6,0.4c1.2,1.2,2.1,2.6,2.8,4.2
	c0.5,1,2.1,0.1,1.5-0.9c-0.7-1.8-1.8-3.4-3.2-4.7c-0.5-0.4-1-0.7-1.7-0.8C-2161.7-746.2-2161.7-744.4-2160.6-744.4L-2160.6-744.4z"
	/>
<path class="st21" d="M-1208-754.4v-5.5c0-0.5-0.4-0.9-0.9-0.9s-0.9,0.4-0.9,0.9l0,0v5.5c0,0.5,0.4,0.9,0.9,0.9
	S-1208-754-1208-754.4z"/>
<path class="st19" d="M-1207.9-753.4c0,0.3,0-0.1,0.1-0.3c0.1-0.4,0.2-0.7,0.4-1.1c0.7-1.3,1.7-2.3,3-2.9c1-0.6,0.1-2.1-0.9-1.6
	c-2.1,1.2-4.1,3.3-4.3,5.8C-1209.8-752.3-1208-752.3-1207.9-753.4L-1207.9-753.4z"/>
<path class="st19" d="M-1212.9-757.6C-1213.1-757.6-1213-757.7-1212.9-757.6c-0.1-0.1,0.5,0.3,0.6,0.4c1.2,1.2,2.1,2.6,2.7,4.2
	c0.5,1.1,2.1,0.1,1.6-0.9c-0.7-1.8-1.8-3.4-3.2-4.7c-0.4-0.4-1-0.7-1.7-0.8C-1214.1-759.3-1214.1-757.5-1212.9-757.6L-1212.9-757.6z
	"/>
<path class="st22" d="M-792.3-734.7V-745c0-2.7-4.2-2.7-4.2,0v10.3C-796.5-732-792.3-731.9-792.3-734.7z"/>
<path class="st19" d="M-792.6-733.8c1.3-2.6,3.2-4.8,5.6-6.5c2.2-1.5,0.1-5.1-2.1-3.6c-3,2-5.5,4.8-7.1,8
	C-797.4-733.5-793.8-731.4-792.6-733.8L-792.6-733.8z"/>
<path class="st19" d="M-801.7-740.3l0.2,0.1c0.4,0.3-0.2-0.2,0.2,0.2c0.5,0.4,1,0.8,1.4,1.3c1.5,1.5,2.7,3.2,3.6,5.1
	c1.2,2.4,4.8,0.3,3.6-2.1c-1.6-3.3-4-6.1-7-8.2C-801.9-745.4-804-741.8-801.7-740.3L-801.7-740.3z"/>
<linearGradient id="SVGID_9_" gradientUnits="userSpaceOnUse" x1="-1129.1996" y1="-1739.1573" x2="-1129.1996" y2="-1597.8672" gradientTransform="matrix(1 0 0 -1 0 -2509.6946)">
	<stop  offset="0" style="stop-color:#773C41"/>
	<stop  offset="0.55" style="stop-color:#642F36"/>
	<stop  offset="1" style="stop-color:#51222B"/>
</linearGradient>
<path class="st23" d="M-823.9-894.3l-12.4,46.1c-2.8,10.2-14.2,17.6-27.4,17.6h-7.1c-15.4,0-28-9.9-28-22.2v-11.1
	c0-12.3-12.5-22.2-28-22.2h-33.9c-11.1,0-21.2,5.2-25.7,13.3l0,0c-4.4,8.1-14.5,13.3-25.7,13.3h-106.5c-12.4,0-23.3,6.4-26.8,15.8
	l-4.2,11.2c-3.5,9.3-14.2,15.7-26.4,15.8l-43.6,0.5h-52.2c-15.4,0-28-9.9-28-22.2v-43c0-12.3-12.5-22.2-28-22.2h-14.6
	c-12.3,0-23.2,6.4-26.8,15.7l-4.8,12.6c-3.6,9.3-14.5,15.7-26.8,15.7h-20.5c-10.7,0-20.5,4.8-25.2,12.5l-6.1,10
	c-4.7,7.6-14.4,12.5-25.2,12.5h-34.7c-15.4,0-28,9.9-28,22.2v9.1c0,12.3,12.5,22.2,28,22.2h612.9v0.3h181l0.2-39.5l0,0
	c-11.5,0-20.9-9.3-20.9-20.7c0,0,0,0,0-0.1v-58.8c0-12.3-12.5-22.2-28-22.2h-29.6C-809.7-911.8-821.1-904.5-823.9-894.3z"/>
<linearGradient id="SVGID_10_" gradientUnits="userSpaceOnUse" x1="-2223.6985" y1="-1739.2239" x2="-2223.6985" y2="-1606.3672" gradientTransform="matrix(1 0 0 -1 0 -2509.6946)">
	<stop  offset="0" style="stop-color:#773C41"/>
	<stop  offset="0.55" style="stop-color:#642F36"/>
	<stop  offset="1" style="stop-color:#51222B"/>
</linearGradient>
<path class="st24" d="M-1865.9-824.3h-45.2c-14,0-26.7-4.8-32.8-12.5l-8-10c-6.1-7.6-18.8-12.5-32.8-12.5h-26.7
	c-16,0-30.2-6.4-34.8-15.7l-6.3-12.6c-4.7-9.3-18.8-15.7-34.8-15.7h-18.9c-20.1,0-36.4,9.9-36.4,22.2v43c0,12.3-16.3,22.2-36.4,22.2
	h-68l-56.7-0.5c-15.9-0.1-29.9-6.5-34.4-15.8l-5.5-11.2c-4.6-9.4-18.8-15.8-34.9-15.8h-138.7c-14.5,0-27.6-5.2-33.4-13.3
	s-18.9-13.3-33.4-13.3h-44.9c-5.3,0.1-9.6,4.4-9.6,9.8v105.4h772.9c12.3,0,33.8,1.2,48.7-0.7c5.4-0.7,9.1-5.6,8.5-10.9
	c-0.3-2.6-1.7-4.9-3.7-6.5l-3.4-2.7c-6.4-5.1-11.7-11.3-15.9-18.3C-1836.9-818.3-1850.2-824.3-1865.9-824.3z"/>
<g>
	<g>
		<g id="artboard_1">
			<g id="dusk">
				<rect x="-4648.6" y="-1794.8" class="st0" width="1920" height="1080.9"/>
				
					<radialGradient id="SVGID_11_" cx="-3689.8538" cy="-1324.6017" r="1918.5765" fx="-3630.4417" fy="-303.3329" gradientTransform="matrix(0.9926 0.1213 6.431530e-02 -0.5261 59.7972 -1506.3733)" gradientUnits="userSpaceOnUse">
					<stop  offset="9.000000e-02" style="stop-color:#FF5967"/>
					<stop  offset="0.16" style="stop-color:#FF5967;stop-opacity:0.79"/>
					<stop  offset="0.23" style="stop-color:#FF5967;stop-opacity:0.58"/>
					<stop  offset="0.3" style="stop-color:#FF5967;stop-opacity:0.4"/>
					<stop  offset="0.38" style="stop-color:#FF5967;stop-opacity:0.26"/>
					<stop  offset="0.45" style="stop-color:#FF5967;stop-opacity:0.14"/>
					<stop  offset="0.52" style="stop-color:#FF5967;stop-opacity:6.000000e-02"/>
					<stop  offset="0.59" style="stop-color:#FF5967;stop-opacity:2.000000e-02"/>
					<stop  offset="0.66" style="stop-color:#FF5967;stop-opacity:0"/>
					<stop  offset="1" style="stop-color:#FF5967;stop-opacity:0"/>
				</radialGradient>
				<rect x="-4648.3" y="-1795.8" class="st25" width="1920" height="1082"/>
				
					<linearGradient id="SVGID_12_" gradientUnits="userSpaceOnUse" x1="-3688.2769" y1="-1795.8273" x2="-3688.2769" y2="-1245.6173" gradientTransform="matrix(1 0 0 -1 0 -2509.6946)">
					<stop  offset="9.000000e-02" style="stop-color:#FF5967"/>
					<stop  offset="0.16" style="stop-color:#FF5967;stop-opacity:0.79"/>
					<stop  offset="0.23" style="stop-color:#FF5967;stop-opacity:0.58"/>
					<stop  offset="0.3" style="stop-color:#FF5967;stop-opacity:0.4"/>
					<stop  offset="0.38" style="stop-color:#FF5967;stop-opacity:0.26"/>
					<stop  offset="0.45" style="stop-color:#FF5967;stop-opacity:0.14"/>
					<stop  offset="0.52" style="stop-color:#FF5967;stop-opacity:6.000000e-02"/>
					<stop  offset="0.59" style="stop-color:#FF5967;stop-opacity:2.000000e-02"/>
					<stop  offset="0.66" style="stop-color:#FF5967;stop-opacity:0"/>
					<stop  offset="1" style="stop-color:#FF5967;stop-opacity:0"/>
				</linearGradient>
				<rect x="-4648.3" y="-1795.8" class="st26" width="1920" height="1082"/>
				
					<radialGradient id="SVGID_13_" cx="-3310.2004" cy="-1202.9324" r="754.88" fx="-3848.9419" fy="-1227.2385" gradientTransform="matrix(0.2083 -0.9781 -2.944 -0.6268 -6569.2729 -5187.1489)" gradientUnits="userSpaceOnUse">
					<stop  offset="7.000000e-02" style="stop-color:#FE9B46"/>
					<stop  offset="7.000000e-02" style="stop-color:#FE9B46"/>
					<stop  offset="0.12" style="stop-color:#F98B4E;stop-opacity:0.77"/>
					<stop  offset="0.16" style="stop-color:#F57D55;stop-opacity:0.56"/>
					<stop  offset="0.21" style="stop-color:#F1725B;stop-opacity:0.39"/>
					<stop  offset="0.26" style="stop-color:#EE6860;stop-opacity:0.25"/>
					<stop  offset="0.31" style="stop-color:#EC6163;stop-opacity:0.14"/>
					<stop  offset="0.36" style="stop-color:#EA5B66;stop-opacity:6.000000e-02"/>
					<stop  offset="0.41" style="stop-color:#E95867;stop-opacity:2.000000e-02"/>
					<stop  offset="0.46" style="stop-color:#E95768;stop-opacity:0"/>
				</radialGradient>
				<rect x="-4648.3" y="-1795.8" class="st27" width="1920" height="1082"/>
				
					<linearGradient id="SVGID_14_" gradientUnits="userSpaceOnUse" x1="-3688.2769" y1="-1709.3972" x2="-3688.2769" y2="-1360.1472" gradientTransform="matrix(1 0 0 -1 0 -2509.6946)">
					<stop  offset="7.000000e-02" style="stop-color:#FABC6B"/>
					<stop  offset="0.11" style="stop-color:#FBB268;stop-opacity:0.87"/>
					<stop  offset="0.2" style="stop-color:#FBA162;stop-opacity:0.64"/>
					<stop  offset="0.29" style="stop-color:#FC925E;stop-opacity:0.45"/>
					<stop  offset="0.37" style="stop-color:#FD865A;stop-opacity:0.29"/>
					<stop  offset="0.46" style="stop-color:#FD7D57;stop-opacity:0.16"/>
					<stop  offset="0.54" style="stop-color:#FE7655;stop-opacity:7.000000e-02"/>
					<stop  offset="0.62" style="stop-color:#FE7253;stop-opacity:2.000000e-02"/>
					<stop  offset="0.69" style="stop-color:#FE7153;stop-opacity:0"/>
				</linearGradient>
				<rect x="-4648.3" y="-1795.8" class="st28" width="1920" height="1082"/>
				
					<linearGradient id="SVGID_15_" gradientUnits="userSpaceOnUse" x1="-3688.5269" y1="17152.4395" x2="-3688.5269" y2="24569.5195" gradientTransform="matrix(1 0 0 0.14 0 -4166.5986)">
					<stop  offset="0" style="stop-color:#59455C"/>
					<stop  offset="0.16" style="stop-color:#5C455C;stop-opacity:0.95"/>
					<stop  offset="0.32" style="stop-color:#63455B;stop-opacity:0.81"/>
					<stop  offset="0.5" style="stop-color:#70455A;stop-opacity:0.58"/>
					<stop  offset="0.67" style="stop-color:#824459;stop-opacity:0.26"/>
					<stop  offset="0.78" style="stop-color:#914458;stop-opacity:0"/>
				</linearGradient>
				<rect x="-4648.5" y="-1795.8" class="st29" width="1920" height="1025.9"/>
				
					<linearGradient id="SVGID_16_" gradientUnits="userSpaceOnUse" x1="-3135.6619" y1="-1757.6373" x2="-3135.6619" y2="-1561.3672" gradientTransform="matrix(1 0 0 -1 0 -2509.6946)">
					<stop  offset="0.32" style="stop-color:#FBEDDA"/>
					<stop  offset="0.57" style="stop-color:#F8E7BA"/>
					<stop  offset="0.98" style="stop-color:#F1DB7B"/>
				</linearGradient>
				<path class="st30" d="M-2728.6-881.6c0-0.9-0.7-1.6-1.6-1.6h-30.4c-18.2,0-34.3-9.4-39.7-23.3l-7.2-18.7
					c-5.3-13.8-21.4-23.3-39.7-23.3h-21.5c-22.9,0-41.5,14.7-41.5,32.9v63.8c0,18.2-18.6,32.9-41.4,32.9h-77.3l-64.5-0.7
					c-18.1-0.2-34-9.7-39.2-23.5l-6.3-16.7c-5.2-13.9-21.4-23.5-39.7-23.5h-157.8c-16.5,0-31.4-7.8-38-19.8l0,0
					c-6.6-12-21.5-19.8-38-19.8h-50.2c-22.9,0-41.5,14.7-41.5,32.9v16.3c0,17.6-9.2,34.9-31,36.8c-6.9,0.6-7.7,4-7.7,4
					c0.2,0.6,0.8,1.1,1.4,1.1c12.7,0.3,45.1-0.4,60.1,0.5c3,0.2,13,1.1,11.8,3.8l-32.8,73c-0.4,0.8,0,1.7,0.8,2.1
					c0.2,0.1,0.4,0.1,0.7,0.1h770.6c0.9,0,1.6-0.7,1.6-1.6L-2728.6-881.6z"/>
				
					<linearGradient id="SVGID_17_" gradientUnits="userSpaceOnUse" x1="-4038.2219" y1="-1788.2673" x2="-4038.2219" y2="-1578.8473" gradientTransform="matrix(1 0 0 -1 0 -2509.6946)">
					<stop  offset="0.32" style="stop-color:#FBEDDA"/>
					<stop  offset="0.57" style="stop-color:#F8E7BA"/>
					<stop  offset="0.98" style="stop-color:#F1DB7B"/>
				</linearGradient>
				<path class="st31" d="M-4506-904.8l18.4,68.3c4.1,15.2,21,26,40.6,26h10.6c22.9,0,41.4-14.7,41.4-32.9v-16.3
					c0-18.2,18.6-32.9,41.5-32.9h50.2c16.5,0,31.4,7.8,38,19.8l0,0c6.6,12,21.5,19.8,38,19.8h157.9c18.3,0,34.5,9.5,39.7,23.5
					l6.3,16.7c5.2,13.8,21,23.3,39.2,23.5l64.5,0.7h77.3c22.9,0,41.4-14.7,41.4-32.9v-63.8c0-18.2,18.6-32.9,41.5-32.9h21.5
					c18.2,0,34.3,9.5,39.6,23.3l7.2,18.7c5.3,13.8,21.4,23.3,39.6,23.3h30.4c15.9,0,30.3,7.2,37.3,18.5l9.1,14.8
					c6.9,11.3,21.4,18.5,37.3,18.5h51.3c22.9,0,41.4,14.7,41.4,32.9v13.5c0,18.2-18.6,32.9-41.4,32.9h-908.1v0.5h-237.6v-176.5
					c0-18.2,18.6-32.9,41.5-32.9h43.8C-4527-930.8-4510.1-920-4506-904.8z"/>
				
					<linearGradient id="SVGID_18_" gradientUnits="userSpaceOnUse" x1="-3680.2068" y1="-1561.3672" x2="-3680.2068" y2="-1788.2473" gradientTransform="matrix(1 0 0 -1 0 -2509.6946)">
					<stop  offset="0.15" style="stop-color:#532037;stop-opacity:0.89"/>
					<stop  offset="0.23" style="stop-color:#5E263A;stop-opacity:0.9"/>
					<stop  offset="0.37" style="stop-color:#7B3641;stop-opacity:0.92"/>
					<stop  offset="0.56" style="stop-color:#AB504D;stop-opacity:0.95"/>
					<stop  offset="0.78" style="stop-color:#EC745D;stop-opacity:0.99"/>
					<stop  offset="0.81" style="stop-color:#F6795F"/>
				</linearGradient>
				<path class="st32" d="M-2730.2-883.1h-30.4c-18.2,0-34.3-9.4-39.7-23.3l-7.2-18.7c-5.3-13.8-21.4-23.3-39.7-23.3h-21.5
					c-22.9,0-41.5,14.7-41.5,32.9v63.8c0,18.2-18.6,32.9-41.4,32.9h-77.3l-64.5-0.7c-18.1-0.2-34-9.7-39.2-23.5l-6.3-16.7
					c-5.2-13.9-21.4-23.5-39.7-23.5h-157.8c-16.5,0-31.4-7.8-38-19.8l0,0c-6.6-12-21.5-19.8-38-19.8h-50.2
					c-22.9,0-41.5,14.7-41.5,32.9v16.3c0,17.6-9.2,34.9-31,36.8c-6.9,0.6-7.7,4-7.7,4c0.2,0.6,0.8,1.1,1.4,1.1
					c12.7,0.3,45.1-0.4,60.1,0.5c3,0.2,13,1.1,11.8,3.8l-11.8,26.3c-1.6-0.2-3.2-0.2-4.9-0.2h-51.4c-15.9,0-30.4-7.2-37.3-18.5
					l-9.1-14.8c-6.9-11.3-21.4-18.5-37.3-18.5h-30.4c-18.2,0-34.3-9.4-39.6-23.3l-7.2-18.7c-5.3-13.8-21.4-23.3-39.6-23.3h-21.6
					c-22.9,0-41.5,14.7-41.5,32.9v63.8c0,18.2-18.6,32.9-41.4,32.9h-77.3l-64.5-0.7c-18.1-0.2-34-9.7-39.2-23.5l-6.3-16.7
					c-5.2-13.9-21.4-23.5-39.7-23.5h-157.9c-16.5,0-31.4-7.8-38-19.8s-21.5-19.8-38-19.8h-50.2c-22.9,0-41.5,14.7-41.5,32.9v16.4
					c0,18.2-18.6,32.9-41.4,32.9h-10.6c-19.6,0-36.5-10.8-40.6-26l-18.4-68.4c-4.1-15.2-21-26-40.6-26h-43.8
					c-22.9,0-41.5,14.7-41.5,32.9v176.5h237.6v-0.5h908.1c21.7,0,39.5-13.2,41.3-30.1h714.6c0.9,0,1.6-0.7,1.6-1.6v-127.9
					C-2728.6-882.4-2729.3-883.1-2730.2-883.1z"/>
				<polygon class="st9" points="-2727.9,-713.9 -4648.6,-713.9 -4648.6,-788 -3684.6,-789.2 -2727.9,-789.2 				"/>
				<rect x="-4648.6" y="-744.3" class="st10" width="1920.7" height="11.9"/>
				<rect x="-4648.6" y="-773.1" class="st11" width="1920.7" height="16.1"/>
				<rect x="-4648.6" y="-732.3" class="st12" width="1920.7" height="18.5"/>
				<rect x="-4648.6" y="-721.6" class="st13" width="1920.7" height="7.8"/>
				<ellipse cx="-4378.8" cy="-721.5" rx="17.6" ry="1"/>
				<ellipse cx="-4110.3" cy="-752.7" rx="5.8" ry="0.4"/>
				<ellipse cx="-4190.7" cy="-739.6" rx="9.5" ry="0.5"/>
				<path class="st14" d="M-4104.6-752.3c0,0,2.8-0.2,0.4-2.5c-0.9-0.9-5.2-2.3-7,0.9c0,0-1,1.6,1.7,1.6S-4104.6-752.3-4104.6-752.3
					z"/>
				<path class="st15" d="M-4182.9-739.1c0,0,4.2-0.4,0.7-3.7c-1.4-1.3-7.9-3.5-10.5,1.3c0,0-1.5,2.3,2.5,2.4
					C-4186.2-739-4182.9-739.1-4182.9-739.1z"/>
				<path class="st15" d="M-4362.5-720.5c0,0,8.4-0.7,1.3-7.5c-2.8-2.6-15.8-6.9-21,2.7c0,0-3.1,4.7,5,4.8
					S-4362.5-720.5-4362.5-720.5z"/>
				<path d="M-4338.1-719c8.6,0,15.6,0.6,15.6,1.3s-7,1.3-15.6,1.3s-15.6-0.6-15.6-1.3"/>
				<ellipse cx="-4097" cy="-726.1" rx="10.3" ry="0.9"/>
				<ellipse cx="-4169.2" cy="-739.7" rx="7.4" ry="0.6"/>
				<ellipse cx="-3219.9" cy="-752.8" rx="6.9" ry="0.6"/>
				<path class="st16" d="M-4330.1-719.4v-12.1c0-3.5-5.5-3.5-5.5,0v12.1C-4335.6-715.9-4330.1-715.9-4330.1-719.4z"/>
				<path class="st17" d="M-4330.3-718.7c0.1-0.3,0.2-0.5,0.3-0.8c0.2-0.5-0.1,0.2,0.2-0.4c0.2-0.4,0.4-0.8,0.7-1.2
					c1.4-2.1,3.3-3.8,5.5-4.9c3.1-1.7,0.4-6.4-2.8-4.7c-4,2.1-8,6-9.1,10.6C-4336.3-716.7-4331.1-715.3-4330.3-718.7L-4330.3-718.7z
					"/>
				<path class="st17" d="M-4341.7-725.2c0.3,0.1-0.4-0.2-0.4-0.2c0.2,0.1,0.4,0.2,0.6,0.3c0.5,0.3,1.1,0.6,1.5,1
					c2,1.6,3.6,3.7,4.7,6.1c1.6,3.2,6.3,0.4,4.7-2.8c-2-4-5.3-8.1-9.7-9.7C-4343.5-731.7-4345-726.4-4341.7-725.2L-4341.7-725.2z"/>
				<path class="st18" d="M-4091.2-727.6v-8c0-1-0.8-1.8-1.8-1.8c-1,0-1.8,0.8-1.8,1.8v8c0,1,0.8,1.8,1.8,1.8
					C-4092-725.8-4091.2-726.6-4091.2-727.6z"/>
				<path class="st19" d="M-4091.3-727.1c0-0.2,0.1-0.4,0.2-0.5c0.1-0.3-0.1,0.1,0.1-0.3s0.3-0.5,0.4-0.8c0.9-1.4,2.1-2.5,3.6-3.2
					c2.1-1.1,0.2-4.2-1.8-3.1c-2.7,1.4-5.3,3.9-6,7C-4095.3-725.8-4091.7-724.8-4091.3-727.1L-4091.3-727.1z"/>
				<path class="st19" d="M-4098.8-731.4l-0.3-0.1c0.1,0.1,0.3,0.1,0.4,0.2c0.3,0.2,0.8,0.5,1,0.6c1.3,1.1,2.4,2.4,3.1,4
					c1,2.1,4.1,0.3,3.1-1.8c-1.3-2.7-3.5-5.3-6.4-6.4C-4100-735.7-4101-732.2-4098.8-731.4L-4098.8-731.4z"/>
				<path class="st20" d="M-4165.6-741.3v-5.5c0-0.5-0.4-0.9-0.9-0.9c-0.5,0-0.9,0.4-0.9,0.9v5.5c0,0.5,0.4,0.9,0.9,0.9
					C-4166-740.5-4165.6-740.9-4165.6-741.3L-4165.6-741.3z"/>
				<path class="st19" d="M-4165.5-740.3c0,0.3,0-0.1,0.1-0.3c0.1-0.4,0.2-0.7,0.4-1.1c0.7-1.3,1.7-2.3,3-2.9c1-0.6,0.1-2.1-0.9-1.6
					c-2.1,1.2-4.1,3.3-4.3,5.8C-4167.4-739.2-4165.6-739.2-4165.5-740.3L-4165.5-740.3z"/>
				<path class="st19" d="M-4170.5-744.4C-4170.6-744.4-4170.6-744.5-4170.5-744.4c-0.1-0.1,0.5,0.3,0.6,0.4
					c1.2,1.2,2.1,2.6,2.8,4.2c0.5,1,2.1,0.1,1.5-0.9c-0.7-1.8-1.8-3.4-3.2-4.7c-0.5-0.4-1-0.7-1.7-0.8
					C-4171.6-746.2-4171.6-744.4-4170.5-744.4L-4170.5-744.4z"/>
				<path class="st21" d="M-3217.9-754.4v-5.5c0-0.5-0.4-0.9-0.9-0.9s-0.9,0.4-0.9,0.9l0,0v5.5c0,0.5,0.4,0.9,0.9,0.9
					S-3217.9-754-3217.9-754.4z"/>
				<path class="st19" d="M-3217.8-753.4c0,0.3,0-0.1,0.1-0.3c0.1-0.4,0.2-0.7,0.4-1.1c0.7-1.3,1.7-2.3,3-2.9c1-0.6,0.1-2.1-0.9-1.6
					c-2.1,1.2-4.1,3.3-4.4,5.8C-3219.7-752.3-3217.9-752.3-3217.8-753.4L-3217.8-753.4z"/>
				<path class="st19" d="M-3222.8-757.6C-3222.9-757.6-3222.9-757.7-3222.8-757.6c-0.1-0.1,0.5,0.3,0.6,0.4
					c1.2,1.2,2.1,2.6,2.7,4.2c0.5,1.1,2.1,0.1,1.6-0.9c-0.7-1.8-1.8-3.4-3.2-4.7c-0.4-0.4-1-0.7-1.7-0.8
					C-3223.9-759.3-3223.9-757.5-3222.8-757.6L-3222.8-757.6z"/>
				<g>
					<ellipse cx="-2845" cy="-732.4" rx="17.6" ry="1"/>
					<path class="st15" d="M-2828-731.5c0,0,8.4-0.7,1.3-7.5c-2.8-2.6-15.8-7-21,2.7c0,0-3.1,4.7,5,4.8S-2828-731.5-2828-731.5z"/>
					<ellipse cx="-2807.4" cy="-732.7" rx="11.4" ry="1.1"/>
					<path class="st22" d="M-2802.2-734.7V-745c0-2.7-4.2-2.7-4.2,0v10.3C-2806.4-732-2802.2-731.9-2802.2-734.7z"/>
					<path class="st19" d="M-2802.5-733.8c1.3-2.6,3.2-4.8,5.6-6.5c2.2-1.5,0.1-5.1-2.1-3.6c-3,2-5.5,4.8-7.1,8
						C-2807.3-733.5-2803.7-731.4-2802.5-733.8L-2802.5-733.8z"/>
					<path class="st19" d="M-2811.5-740.3l0.2,0.1c0.4,0.3-0.2-0.2,0.2,0.2c0.5,0.4,1,0.8,1.4,1.3c1.5,1.5,2.7,3.2,3.6,5.1
						c1.2,2.4,4.8,0.3,3.6-2.1c-1.6-3.3-4-6.1-7-8.2C-2811.7-745.4-2813.8-741.8-2811.5-740.3L-2811.5-740.3z"/>
				</g>
				
					<linearGradient id="SVGID_19_" gradientUnits="userSpaceOnUse" x1="-3139.072" y1="-1739.1573" x2="-3139.072" y2="-1597.8672" gradientTransform="matrix(1 0 0 -1 0 -2509.6946)">
					<stop  offset="0" style="stop-color:#773C41"/>
					<stop  offset="0.55" style="stop-color:#642F36"/>
					<stop  offset="1" style="stop-color:#51222B"/>
				</linearGradient>
				<path class="st33" d="M-2833.7-894.3l-12.4,46.1c-2.8,10.2-14.2,17.6-27.4,17.6h-7.1c-15.4,0-28-9.9-28-22.2v-11.1
					c0-12.3-12.5-22.2-28-22.2h-33.9c-11.1,0-21.2,5.2-25.6,13.3l0,0c-4.4,8.1-14.5,13.3-25.7,13.3h-106.5
					c-12.4,0-23.3,6.4-26.8,15.8l-4.2,11.2c-3.5,9.3-14.2,15.7-26.4,15.8l-43.6,0.5h-52.2c-15.4,0-28-9.9-28-22.2v-43
					c0-12.3-12.5-22.2-28-22.2h-14.6c-12.3,0-23.2,6.4-26.8,15.7l-4.8,12.6c-3.6,9.3-14.5,15.7-26.8,15.7h-20.5
					c-10.7,0-20.5,4.8-25.2,12.5l-6.1,10c-4.7,7.6-14.4,12.5-25.2,12.5h-34.7c-15.4,0-28,9.9-28,22.2v9.1c0,12.3,12.5,22.2,28,22.2
					h612.9v0.3h181l0.2-39.5l0,0c-11.5,0-20.9-9.3-20.9-20.7c0,0,0,0,0-0.1v-58.8c0-12.3-12.5-22.2-28-22.2h-29.6
					C-2819.6-911.8-2831-904.5-2833.7-894.3z"/>
				
					<linearGradient id="SVGID_20_" gradientUnits="userSpaceOnUse" x1="-4233.5708" y1="-1739.2239" x2="-4233.5708" y2="-1606.3672" gradientTransform="matrix(1 0 0 -1 0 -2509.6946)">
					<stop  offset="0" style="stop-color:#773C41"/>
					<stop  offset="0.55" style="stop-color:#642F36"/>
					<stop  offset="1" style="stop-color:#51222B"/>
				</linearGradient>
				<path class="st34" d="M-3875.8-824.3h-45.2c-13.9,0-26.7-4.8-32.8-12.5l-8-10c-6.1-7.6-18.8-12.5-32.8-12.5h-26.7
					c-16,0-30.2-6.4-34.8-15.7l-6.3-12.6c-4.7-9.3-18.8-15.7-34.8-15.7h-18.9c-20.1,0-36.4,9.9-36.4,22.2v43
					c0,12.3-16.3,22.2-36.4,22.2h-68l-56.7-0.5c-15.9-0.1-29.9-6.5-34.4-15.8l-5.5-11.2c-4.6-9.4-18.8-15.8-34.9-15.8h-138.7
					c-14.5,0-27.6-5.2-33.4-13.3c-5.8-8.1-18.9-13.3-33.4-13.3h-44.9c-5.3,0.1-9.6,4.4-9.6,9.8v105.4h772.9
					c12.3,0,33.8,1.2,48.7-0.7c5.4-0.7,9.1-5.6,8.5-10.9c-0.3-2.6-1.7-4.9-3.7-6.5l-3.4-2.7c-6.4-5.1-11.7-11.3-15.9-18.3
					C-3846.8-818.3-3860.1-824.3-3875.8-824.3z"/>
				<path class="st35" d="M-3614.1-1302L-3614.1-1302c0-8.1,6.6-14.7,14.7-14.7l371.2-1c8.1,0,14.7,6.6,14.8,14.7c0,0,0,0,0,0l0,0
					c0,8.1-6.6,14.7-14.7,14.7c0,0,0,0,0,0h-44.8c-8.1,0-14.7,6.6-14.7,14.7v11.2c0,8.1,6.6,14.7,14.7,14.7h147.3
					c8.1,0,14.7,6.6,14.7,14.7l0,0c0,8.1-6.6,14.7-14.7,14.7h-258.6c-8.1,0-14.7-6.6-14.7-14.7l0,0c0-8.1,6.6-14.7,14.7-14.7h16
					c8.1,0,14.7-6.6,14.7-14.7v-11.2c0-8.1-6.6-14.7-14.7-14.7c0,0-0.1,0-0.1,0l-231,0.9C-3607.5-1287.3-3614.1-1293.9-3614.1-1302
					C-3614.1-1302-3614.1-1302-3614.1-1302z"/>
			</g>
			<path class="st36" d="M-2893.2-713.8v-17.6c0-9.7-15-9.7-15,0v17.6H-2893.2z"/>
			<path class="st19" d="M-2920.3-715.1c0.5,0.3,1,0.6,1.5,1l0.4,0.3h20.9c-4-5.7-9.2-10.6-15.2-14.2
				C-2921.1-733-2928.6-720-2920.3-715.1z"/>
			<path class="st19" d="M-2882.7-713.8c0.7-0.4,1.3-0.9,2-1.3c8.3-4.9,0.8-17.9-7.6-13c-6.2,3.7-11.6,8.5-15.8,14.3H-2882.7z"/>
		</g>
	</g>
	<path class="st37" d="M-4182.6-1134.6L-4182.6-1134.6c0-5.3,3.5-9.6,7.7-9.6h617.6c4.3,0,7.7,4.3,7.7,9.6l0,0
		c0,5.3-3.4,9.6-7.7,9.6h-115.2c-32.3,0.5-64.6,0-96.9,0.7c-4.2,0.1-7.6,6.9-7.6,12.1v1.3c0,5.2,3.4,11.8,7.6,11.9
		c31.3,0.6,62.7-0.3,94,0.3h284.5c4.3,0,7.7,4.3,7.7,9.6l0,0c0,5.3-3.4,9.6-7.7,9.6h-617.6c-4.3,0-7.7-4.3-7.7-9.6l0,0
		c0-5.3,3.4-9.6,7.7-9.6h118.5c4.3,0,7.7-4.3,7.7-9.6c0-2.3,0-4.8,0-7.2c0-5.3-3.4-9.5-7.7-9.5h-285
		C-4179.2-1125.1-4182.6-1129.4-4182.6-1134.6z"/>
</g>
<g id="planet_1_">
	<ellipse class="st38" cx="-2038.3" cy="97.2" rx="115.7" ry="116.7"/>
	<path class="st39" d="M-2142.6,46.7h208.7c-9.1-19.2-23.4-35.6-41.1-47.3h-126.4C-2119.3,11.2-2133.5,27.5-2142.6,46.7z"/>
	<path class="st40" d="M-2151.3,72.2h226c-1.6-7.2-3.8-14.3-6.7-21.1h-212.6C-2147.5,57.9-2149.8,65-2151.3,72.2z"/>
	<path class="st38" d="M-2154,97.2c0,4.3,0.2,8.6,0.7,12.9h230c0.5-4.3,0.7-8.6,0.7-12.9c0-8.4-0.9-16.8-2.7-25h-226
		C-2153.1,80.4-2154,88.8-2154,97.2z"/>
	<path class="st38" d="M-2089.7,201.7c32.4,16.2,70.5,16.2,102.8,0H-2089.7z"/>
	<path class="st40" d="M-2153.4,108.6c3.3,34.8,22.1,66.4,51.2,85.9h127.8c29.1-19.5,47.9-51,51.2-85.9H-2153.4z"/>
	<path class="st41" d="M-2134.2,162.4h191.8c4.4-6.6,8.2-13.7,11.2-21.1h-214.2C-2142.4,148.7-2138.7,155.8-2134.2,162.4z"/>
	<path class="st42" d="M-1992,128.2h-52c-7,0-12.6,5.7-12.6,12.7c0,0,0,0,0,0l0,0c0,7,5.6,12.7,12.6,12.7c0,0,0,0,0,0h52
		c7,0,12.6-5.7,12.6-12.7c0,0,0,0,0,0l0,0C-1979.4,133.9-1985,128.3-1992,128.2C-1992,128.2-1992,128.2-1992,128.2z"/>
	<path class="st38" d="M-1955.6,106.3c0.1-9.9-7.9-18-17.9-18.1c0,0-0.1,0-0.1,0h-180c-0.2,3-0.3,6-0.3,9c0,9.2,1.1,18.4,3.2,27.4
		h177.1c9.9,0,18-8.1,18-18c0,0,0-0.1,0-0.1V106.3z"/>
	<path class="st38" d="M-2002.5,172.6h-124c10.2,12.1,22.7,22,36.8,29.1h87.2c8,0,14.5-6.5,14.4-14.5c0,0,0,0,0,0l0,0
		C-1988,179.2-1994.5,172.7-2002.5,172.6C-2002.5,172.6-2002.5,172.6-2002.5,172.6z"/>
	<path class="st38" d="M-1981.2,38.7h-157.2c-4.1,7.1-7.5,14.7-10,22.6h167.2c6.2,0,11.2-5.1,11.2-11.3c0,0,0,0,0,0l0,0
		C-1970.1,43.8-1975,38.8-1981.2,38.7z"/>
	<path class="st38" d="M-1975.1-0.6c-38.4-25.3-88.1-25.3-126.4,0H-1975.1z"/>
	<path class="st41" d="M-1983.2-5.4h-96c-7.5,0-13.6,6.1-13.6,13.7v0.1c0,7.5,6,13.6,13.5,13.7c0,0,0,0,0,0h129.3
		C-1959.2,10.9-1970.5,1.6-1983.2-5.4z"/>
	<ellipse class="st43" cx="-2098.5" cy="61.3" rx="42.1" ry="42.4"/>
	<g class="st44">
		<ellipse class="st45" cx="-2038.3" cy="97.2" rx="115.7" ry="116.7"/>
	</g>
	
		<linearGradient id="SVGID_21_" gradientUnits="userSpaceOnUse" x1="-2038.3724" y1="-2724.0955" x2="-2038.3724" y2="-2490.7153" gradientTransform="matrix(1 0 0 -1 0 -2509.6946)">
		<stop  offset="0" style="stop-color:#7D586E"/>
		<stop  offset="0.14" style="stop-color:#815A6D;stop-opacity:0.97"/>
		<stop  offset="0.27" style="stop-color:#8D606A;stop-opacity:0.88"/>
		<stop  offset="0.4" style="stop-color:#A16A66;stop-opacity:0.72"/>
		<stop  offset="0.53" style="stop-color:#BE7960;stop-opacity:0.5"/>
		<stop  offset="0.66" style="stop-color:#E28B57;stop-opacity:0.22"/>
		<stop  offset="0.74" style="stop-color:#FF9A51;stop-opacity:0"/>
	</linearGradient>
	<ellipse class="st46" cx="-2038.4" cy="97.7" rx="115.7" ry="116.7"/>
</g>
<g>
	<g>
		<path class="st47" d="M-1510.9-1866.1c-2.4,2.5-25.9,4.1-25.9,4.1s32.4,23.4,32.6,25.9c0.2,4.1-9.3,4.2-9.3,4.2l24.5,9.9
			c0.6,0.2,1.2,0.4,1.8,0.6c13.7,3.8,27.9-4.2,31.8-17.9c3.8-13.5-4-27.6-17.6-31.5c-0.1,0-0.1,0-0.2-0.1c-1.5-0.4-4.5-0.8-4.5-0.8
			l-34.9-1.6C-1512.7-1873.4-1508.7-1868.4-1510.9-1866.1z"/>
		<path class="st48" d="M-1500.4-1859.5c-1.6,1.7-17.8,2.8-17.8,2.8s19,15.7,19.1,17.4c0.2,2.8-3.2,3.2-3.2,3.2l16.8,6.7
			c0.4,0.1,0.8,0.3,1.2,0.4c9.4,2.5,19.1-2.9,21.8-12.3c2.7-9.2-2.7-18.8-11.9-21.5c-0.1,0-0.2-0.1-0.3-0.1c-1-0.3-3.1-0.6-3.1-0.6
			l-24-1C-1501.6-1864.4-1498.9-1861-1500.4-1859.5z"/>
		<path class="st49" d="M-1466.7-1852.9c3.9,6.8,1.6,15.6-5.3,19.5c-6.8,3.9-15.6,1.6-19.5-5.3c-3.9-6.8-1.6-15.6,5.3-19.5
			c0,0,0.1,0,0.1,0C-1479.2-1862.1-1470.5-1859.7-1466.7-1852.9C-1466.7-1852.9-1466.7-1852.9-1466.7-1852.9z"/>
	</g>
	<path class="st50" d="M-1510.9-1866.1c-2.4,2.5-25.9,4.1-25.9,4.1s32.4,23.4,32.6,25.9c0.2,4.1-9.3,4.2-9.3,4.2l24.5,9.9
		c0.6,0.2,1.2,0.4,1.8,0.6c13.7,3.8,27.9-4.2,31.8-17.9c3.8-13.5-4-27.6-17.6-31.5c-0.1,0-0.1,0-0.2-0.1c-1.5-0.4-4.5-0.8-4.5-0.8
		l-34.9-1.6C-1512.7-1873.4-1508.7-1868.4-1510.9-1866.1z"/>
</g>
<g id="comet_1_1_">
	<path class="st47" d="M-1619.3-1928.8c-1.8,1.9-20.1,3.1-20.1,3.1s25.1,18.3,25.2,20.2c0.2,3.1-7.2,3.3-7.2,3.3l19,7.7
		c0.5,0.2,0.9,0.3,1.4,0.4c10.6,2.9,21.6-3.2,24.6-13.8c3-10.5-3.1-21.5-13.6-24.5c-0.1,0-0.1,0-0.2,0c-1.2-0.3-3.5-0.6-3.5-0.6
		l-27.1-1.3C-1620.7-1934.4-1617.6-1930.5-1619.3-1928.8z"/>
	<path class="st48" d="M-1611.2-1923.6c-1.3,1.3-13.8,2.2-13.8,2.2s14.8,12.2,14.8,13.5c0.1,2.1-2.4,2.5-2.4,2.5l13,5.2
		c0.3,0.1,0.6,0.2,1,0.3c7.3,2,14.9-2.2,17-9.5c2.1-7.1-2-14.6-9.2-16.7c-0.1,0-0.2,0-0.2-0.1c-0.8-0.2-2.4-0.4-2.4-0.4l-18.6-0.9
		C-1612.1-1927.4-1610-1924.8-1611.2-1923.6z"/>
	<path class="st49" d="M-1585-1918.4c3,5.3,1.2,12.1-4.1,15.1c-5.3,3-12.1,1.2-15.1-4.1c-3-5.3-1.2-12.1,4.1-15.1c0,0,0.1,0,0.1-0.1
		C-1594.7-1925.6-1588-1923.7-1585-1918.4C-1585-1918.4-1585-1918.4-1585-1918.4z"/>
	<path class="st50" d="M-1619.3-1928.8c-1.8,1.9-20.1,3.1-20.1,3.1s25.1,18.3,25.2,20.2c0.2,3.1-7.2,3.3-7.2,3.3l19,7.7
		c0.5,0.2,0.9,0.3,1.4,0.4c10.6,2.9,21.6-3.2,24.6-13.8c3-10.5-3.1-21.5-13.6-24.5c-0.1,0-0.1,0-0.2,0c-1.2-0.3-3.5-0.6-3.5-0.6
		l-27.1-1.3C-1620.7-1934.4-1617.6-1930.5-1619.3-1928.8z"/>
</g>
<path class="st51" d="M-2081-794.3h848c4.8,0,8.8,3.9,8.8,8.8c0,0,0,0,0,0v16.4l0,0h-867.3l0,0v-14.7
	C-2091.6-789.6-2086.9-794.3-2081-794.3z"/>
<path class="st52" d="M-1581.8-1146.1c-4.2,0,8.1,5.1,3.2,5.1l-16.2,26.7c-4.4,3.4-6.9,8.1-6.9,12.9v345.3h80.7v-371.7
	C-1521-1141.4-1531-1145.6-1581.8-1146.1z"/>
<path class="st51" d="M-1530.1-1115.3c-0.1-2.7-2.8-4.8-6.3-4.8h-56.2c-3.5,0-6.3,2.2-6.3,4.9v30c0,0.2-0.1,0.5-0.1,0.7
	c0,0,0,0.1,0,0.2c0,1.1,0.4,2.1,1.1,2.9l0,0c1.8,1.8,4.5,2.5,7,1.9h54.3c3.5,0,6.3-2.2,6.3-4.9v-29.7
	C-1530.1-1114.6-1530.1-1114.9-1530.1-1115.3z M-1586.2-1110.3h30.6l-30.6,16.6L-1586.2-1110.3z M-1542.7-1105.3v15.9h-29.4
	L-1542.7-1105.3z"/>
<path class="st51" d="M-1489.7-1076.2c-0.1-2.7-2.8-4.8-6.3-4.8h-56.2c-9.9-0.6-6.3,2.2-6.3,4.9v30c0,0.2-0.1,0.5-0.1,0.7
	c0,0.1,0,0.1,0,0.2c0,1-2.9,1.7-2.1,2.6l-0.2,0.3c1.6,1.8-4.4,1.7,10.5,1.9h54.3c3.5,0,6.3-2.2,6.3-4.9v-29.7
	C-1489.7-1075.4-1489.6-1075.8-1489.7-1076.2z M-1545.8-1071.2h30.6l-30.6,16.6V-1071.2z M-1502.3-1066.2v15.9h-29.3L-1502.3-1066.2
	z"/>
<path class="st51" d="M-1530.1-1035.9c-0.1-2.7-2.8-4.8-6.3-4.8h-56.2c-3.5,0-6.3,2.2-6.3,4.9v30c0,0.2-0.1,0.5-0.1,0.7
	c0,0,0,0.1,0,0.2c0,1.1,0.4,2.1,1.1,2.8l0,0c1.8,1.8,4.5,2.5,7,1.9h54.3c3.5,0,6.3-2.2,6.3-4.9v-29.7
	C-1530.1-1035.2-1530.1-1035.6-1530.1-1035.9z M-1586.2-1030.8h30.6l-30.6,16.5V-1030.8z M-1542.7-1025.9v15.9h-29.4L-1542.7-1025.9
	z"/>
<path class="st51" d="M-1489.7-999.2c-0.1-2.7-2.8-4.8-6.3-4.8h-56.2c-3.5,0-6.3,2.2-6.3,4.9v30c0,0.2-0.1,0.5-0.1,0.7
	c0,0,0,0.1,0,0.2c0,1-3.2,1.6-2.4,2.5l-0.8-0.1c1.6,1.8-11.1,2.4,11.4,2.4h54.3c3.5,0,6.3-2.2,6.3-4.9v-29.7
	C-1489.7-998.5-1489.6-998.9-1489.7-999.2z M-1545.8-994.2h30.6l-30.6,16.6V-994.2z M-1502.3-989.2v15.9h-29.3L-1502.3-989.2z"/>
<path class="st51" d="M-1530.8-958.6c0-2.7-2.8-4.8-6.3-4.8h-56.2c-3.5,0-6.3,2.2-6.3,4.9v30c0,0.2-0.1,0.5-0.1,0.7c0,0,0,0.1,0,0.2
	c0,1.1,0.4,2.1,1.1,2.8l0,0c1.8,1.8,4.5,2.6,7.1,1.9h54.3c3.5,0,6.3-2.2,6.3-4.9v-29.7C-1530.8-957.9-1530.8-958.3-1530.8-958.6z
	 M-1586.9-953.6h30.7l-30.6,16.6L-1586.9-953.6z M-1543.4-948.7v15.8h-29.4L-1543.4-948.7z"/>
<path class="st51" d="M-1530.8-928c0-2.7-2.8-4.8-6.3-4.8h-56.2c-3.5,0-6.3,2.2-6.3,4.9v30c0,0.2-0.1,0.5-0.1,0.7c0,0,0,0.1,0,0.2
	c0,1.1,0.4,2.1,1.1,2.8l0,0c1.8,1.8,4.5,2.6,7.1,1.9h54.3c3.5,0,6.3-2.2,6.3-4.9v-29.6C-1530.8-927.2-1530.8-927.6-1530.8-928z
	 M-1586.9-923h30.7l-30.6,16.6L-1586.9-923z M-1543.4-918v15.9h-29.4L-1543.4-918z"/>
<path class="st51" d="M-1530.8-897.3c0-2.7-2.8-4.8-6.3-4.8h-56.2c-3.5,0-6.3,2.2-6.3,4.9v30c0,0.2-0.1,0.5-0.1,0.7c0,0,0,0.1,0,0.2
	c0,1.1,0.4,2.1,1.1,2.9l0,0c1.8,1.8,4.5,2.6,7.1,1.9h54.3c3.5,0,6.3-2.2,6.3-4.9v-29.6C-1530.8-896.6-1530.8-897-1530.8-897.3z
	 M-1586.9-892.3h30.7l-30.6,16.6L-1586.9-892.3z M-1543.4-887.3v15.9h-29.4L-1543.4-887.3z"/>
<path class="st51" d="M-1530.8-866.7c0-2.7-2.8-4.8-6.3-4.8h-56.2c-3.5,0-6.3,2.2-6.3,4.9v30c0,0.2-0.1,0.5-0.1,0.7c0,0,0,0.1,0,0.2
	c0,1.1,0.4,2.1,1.1,2.8l0,0c1.8,1.8,4.5,2.6,7.1,1.9h54.3c3.5,0,6.3-2.2,6.3-4.9v-29.7C-1530.8-866-1530.8-866.3-1530.8-866.7z
	 M-1586.9-861.7h30.7l-30.6,16.6L-1586.9-861.7z M-1543.4-856.7v15.8h-29.4L-1543.4-856.7z"/>
<path class="st51" d="M-1530.8-827.6c0-2.7-2.8-4.8-6.3-4.8h-56.2c-3.5,0-6.3,2.2-6.3,4.9v30c0,0.2-0.1,0.5-0.1,0.7c0,0,0,0.1,0,0.2
	c0,1.1,0.4,2.1,1.1,2.8l0,0c1.8,1.8,4.5,2.6,7.1,1.9h54.3c3.5,0,6.3-2.2,6.3-4.9v-29.6C-1530.8-826.9-1530.8-827.3-1530.8-827.6z
	 M-1586.9-822.6h30.7l-30.6,16.6L-1586.9-822.6z M-1543.4-817.7v15.9h-29.4L-1543.4-817.7z"/>
<path class="st53" d="M-1584.1-1085h95.6c0,0,0.1,0,0.1,0.1v4.8c0,0,0,0.1-0.1,0.1h-95.6c0,0-0.1,0-0.1-0.1L-1584.1-1085
	C-1584.2-1085-1584.1-1085-1584.1-1085z"/>
<rect x="-1586.2" y="-1007.6" class="st53" width="95.8" height="4"/>
<path class="st52" d="M-1623.4-1137.6l-29.8,23.3c-4.4,3.4-6.9,8.1-6.9,12.9v343h80.7v-369.4c0-7.8,6.6-15.5-1-18.3
	C-1580.5-1146.1-1608.7-1149.2-1623.4-1137.6z"/>
<path class="st53" d="M-1598.5-1140.7l-33.8,26.4c-4.4,3.4-6.9,8.1-6.9,12.9v343h80.7v-369.4
	C-1558.5-1144.1-1583.7-1152.3-1598.5-1140.7z"/>
<path class="st52" d="M-1635.2-828.2v4.1c-0.1,1.4,1,2.6,2.4,2.6l0,0c1.4,0,2.5-1.2,2.4-2.6c0,0,0,0,0,0v-4.1c0.1-1.4-1-2.6-2.4-2.6
	c0,0,0,0,0,0l0,0C-1634.2-830.7-1635.3-829.6-1635.2-828.2z"/>
<path class="st52" d="M-1635.2-841.2v4.1c-0.1,1.4,1,2.6,2.4,2.6l0,0c1.4,0,2.5-1.2,2.4-2.6c0,0,0,0,0,0v-4.1c0.1-1.4-1-2.6-2.4-2.6
	c0,0,0,0,0,0l0,0C-1634.2-843.7-1635.3-842.6-1635.2-841.2z"/>
<path class="st54" d="M-1575.7-1136.7h4.1c1.4,0.1,2.6-1,2.6-2.4l0,0c0-1.4-1.2-2.5-2.6-2.4c0,0,0,0,0,0h-4.1
	c-1.4-0.1-2.6,1-2.6,2.4c0,0,0,0,0,0l0,0C-1578.3-1137.7-1577.1-1136.7-1575.7-1136.7z"/>
<path class="st52" d="M-1595.5-1122.1l-23.2,17.9c-4.7,3.6-7.5,8.3-8.1,13.4c-0.2,1.6-0.3,3.3-0.3,4.9v19.5c0-4.5,2-8.9,5.3-11.9
	l28-23.6c9.2-7.7,29.3-3.8,29.3,11.2v-19.5C-1564.5-1125.2-1584.1-1132.8-1595.5-1122.1z"/>
<path class="st55" d="M-1558.9-1060.6h-16.8c-0.8,0-1.6,0.3-2.3,0.8l-41.7,32.6c-0.6,0.4-1.3,0.7-2,0.7h-15.8
	c-0.6,0-1.2,0.5-1.2,1.2l0,0c0,0.6,0.5,1.2,1.2,1.2c0,0,0,0,0,0h16.4c1.1,0,2.1-0.4,2.9-1l41.4-32.4c0.5-0.4,1.2-0.7,1.9-0.7h15.9
	c0.6,0,1.1-0.5,1.2-1.1l0,0C-1557.7-1060-1558.2-1060.6-1558.9-1060.6C-1558.8-1060.6-1558.9-1060.6-1558.9-1060.6z"/>
<path class="st55" d="M-1558.9-1032.8h-16.8c-0.8,0-1.6,0.3-2.3,0.8l-41.7,32.6c-0.6,0.4-1.3,0.7-2,0.7h-15.8
	c-0.6,0-1.2,0.5-1.2,1.2l0,0c0,0.6,0.5,1.2,1.2,1.2c0,0,0,0,0,0h16.4c1.1,0,2.1-0.4,2.9-1l41.4-32.4c0.5-0.4,1.2-0.7,1.9-0.7h15.9
	c0.6,0,1.1-0.5,1.2-1.1l0,0C-1557.7-1032.3-1558.2-1032.8-1558.9-1032.8C-1558.8-1032.8-1558.9-1032.8-1558.9-1032.8z"/>
<path class="st52" d="M-1581.7-907.7h3.6c7.1,0,12.9,5.8,12.9,12.9v59.3c0,7.1-5.8,12.9-12.9,12.9h-3.6c-7.1,0-12.9-5.8-12.9-12.9
	v-59.3C-1594.6-902-1588.8-907.7-1581.7-907.7z"/>
<path class="st56" d="M-1443-804.6v-24.3c-1-3.6,0-24.7-46.1-24.7s-45.1,21.1-46.1,24.7v24.3H-1443z"/>
<path class="st57" d="M-1514.7-1001.8L-1514.7-1001.8v197.3h51.2v-197.3l0,0c-0.4-4.9-2.7-9.5-6.5-12.6v-59.8c4-2.2,6.6-5.8,6.6-9.8
	v-78.9l0,0c-0.5-10.7-11.8-45.6-25.6-45.6s-25.1,34.9-25.6,45.6l0,0v79.3c0,4.1,2.6,7.7,6.6,9.8v59.4
	C-1511.9-1011.3-1514.3-1006.8-1514.7-1001.8z"/>
<path class="st58" d="M-1514.7-1001.8L-1514.7-1001.8v197.3h51.2v-197.3l0,0c-0.4-4.9-2.7-9.5-6.5-12.6v-59.8c4-2.2,6.6-5.8,6.6-9.8
	v-78.9l0,0c-0.5-10.7-11.8-45.6-25.6-45.6s-25.1,34.9-25.6,45.6l0,0v79.3c0,4.1,2.6,7.7,6.6,9.8v59.4
	C-1511.9-1011.3-1514.3-1006.8-1514.7-1001.8z"/>
<path class="st59" d="M-1514.7-881.7L-1514.7-881.7v30.8c0,0.2,0.1,0.5,0.2,0.7h50.8c0.1-0.2,0.2-0.5,0.2-0.8v-30.6l0,0
	c0,0,0-0.1,0-0.1h-51.2C-1514.6-881.8-1514.7-881.7-1514.7-881.7z"/>
<path class="st60" d="M-1514.7-1001.8L-1514.7-1001.8v4.8h51.2v-4.8l0,0c0-0.3,0-0.7-0.1-1h-51
	C-1514.6-1002.6-1514.6-1002.2-1514.7-1001.8z"/>
<path class="st60" d="M-1514.7-1161.9L-1514.7-1161.9v4.8h51.2v-4.8l0,0c0-0.3,0-0.7-0.1-1h-51
	C-1514.6-1162.6-1514.6-1162.3-1514.7-1161.9z"/>
<path class="st58" d="M-1489.8-1237.8l-5.4,57.8l10.1,0.3l0,0c0.7,0,1.5,0,2.2,0l-6.2-58L-1489.8-1237.8z"/>
<path class="st61" d="M-1464.5-1079.7h-49.4c1.2,2.5,3.2,4.6,5.6,5.9h38.2v-0.3C-1467.6-1075.4-1465.7-1077.3-1464.5-1079.7z"/>
<path class="st61" d="M-1470-1014.4h-38.1c-1.9,1.6-3.4,3.5-4.6,5.7h47.3C-1466.6-1010.9-1468.2-1012.8-1470-1014.4z"/>
<path class="st61" d="M-1471.6-989.9v4.8c0,0.8,0.6,1.5,1.4,1.5l0,0c0.8,0,1.4-0.7,1.4-1.5v-4.8c0-0.8-0.6-1.4-1.4-1.4c0,0,0,0,0,0
	l0,0C-1470.9-991.4-1471.6-990.8-1471.6-989.9C-1471.6-990-1471.6-990-1471.6-989.9z"/>
<path class="st61" d="M-1509.3-989.9v4.8c0,0.8,0.6,1.5,1.4,1.5h0.1c0.8,0,1.4-0.7,1.4-1.5v-4.8c0-0.8-0.6-1.4-1.4-1.5h0h-0.1
	C-1508.7-991.4-1509.3-990.8-1509.3-989.9C-1509.3-990-1509.3-990-1509.3-989.9z"/>
<rect x="-1514.7" y="-840.3" class="st60" width="51.2" height="5.9"/>
<path class="st62" d="M-1499-1202.6c-8.8,10.3-15.2,31.3-15.7,39.5c0,0.1,0,0.2,0,0.3l0,0v79.3c0,4.1,2.6,7.7,6.6,9.8v59.3
	c-3.5,2.9-5.8,7-6.5,11.5l0,0c0,0.3-0.1,0.7-0.1,1l0,0v151.4c-10.6,2.8-19.4,9.6-20.5,21.9v25.5l20.5-1.5l15.7-0.8L-1499-1202.6z"/>
<rect x="-1401.8" y="-924.4" transform="matrix(0.5579 -0.8299 0.8299 0.5579 160.5347 -1539.7139)" class="st63" width="73.9" height="7.8"/>
<rect x="-1401.8" y="-870.6" transform="matrix(0.5579 -0.8299 0.8299 0.5579 115.8144 -1515.8896)" class="st63" width="73.9" height="7.8"/>
<rect x="-1401.8" y="-816.5" transform="matrix(0.5579 -0.8299 0.8299 0.5579 70.9214 -1491.9811)" class="st63" width="73.9" height="7.8"/>
<path class="st64" d="M-1339.3-990.2L-1339.3-990.2c3.1,0,5.6,2.5,5.6,5.6v209.6c0,3.1-2.5,5.6-5.6,5.6h0c-3.1,0-5.6-2.5-5.6-5.6
	v-209.6C-1344.9-987.7-1342.4-990.2-1339.3-990.2z"/>
<path class="st64" d="M-1387.4-971.5L-1387.4-971.5c3.1,0,5.6,2.5,5.6,5.6v191c0,3.1-2.5,5.6-5.6,5.6h0c-3.1,0-5.6-2.5-5.6-5.6v-191
	C-1392.9-969-1390.4-971.5-1387.4-971.5z"/>
<path class="st52" d="M-1362.5-961.4l-22.4,13.7c-4.5,2.8-7.3,6.4-7.8,10.3c-0.2,1.3-0.3,2.5-0.3,3.8v15c0-3.4,1.8-6.7,5.1-9.1
	l27-18.1c8.8-5.9,28.2-2.9,28.2,8.6v-15C-1332.5-963.8-1351.4-969.5-1362.5-961.4z"/>
<path class="st52" d="M-1363.2-1003.1l-22.4,13.7c-4.5,2.8-7.3,6.4-7.8,10.3c-0.2,1.2-0.3,2.5-0.3,3.8v26.3c0-3.4,1.8-6.7,5.1-9.1
	l27-18.1c8.8-5.9,28.2-2.9,28.2,8.6v-26.3C-1333.3-1005.4-1352.2-1011.2-1363.2-1003.1z"/>
<path class="st52" d="M-1363.2-907.6l-22.4,13.8c-4.5,2.8-7.3,6.4-7.8,10.3c-0.2,1.3-0.3,2.5-0.3,3.8v15c0-3.4,1.8-6.7,5.1-9.1
	l27-18.1c8.8-5.9,28.2-2.9,28.2,8.6v-15C-1333.3-910-1352.2-915.7-1363.2-907.6z"/>
<path class="st52" d="M-1363.2-853.3l-22.4,13.7c-4.5,2.7-7.3,6.4-7.8,10.3c-0.2,1.2-0.3,2.5-0.3,3.8v15c0-3.4,1.8-6.7,5.1-9.1
	l27-18.1c8.8-5.9,28.2-2.9,28.2,8.6v-15C-1333.3-855.6-1352.2-861.4-1363.2-853.3z"/>
<path class="st52" d="M-1363.2-799l-22.4,13.7c-4.5,2.8-7.3,6.4-7.8,10.3c-0.2,1.3-0.3,2.5-0.3,3.8v14.9c0.9-0.1,5.4,0,5.4,0
	l29.7,0.6h25.3v-34.2C-1333.3-801.3-1352.2-807.1-1363.2-799z"/>
<path class="st52" d="M-1678.3-804.7h257.2c10.9,0,19.7,8.8,19.7,19.7l0,0v32.7l0,0h-298l0,0v-31.2
	C-1699.5-795.2-1690-804.7-1678.3-804.7z"/>
<path class="st51" d="M-1646.8-796.4h0.8c2.1,0,3.8,1.7,3.8,3.8v6.9c0,2.1-1.7,3.8-3.8,3.8h-0.8c-2.1,0-3.8-1.7-3.8-3.8v-6.9
	C-1650.6-794.7-1648.9-796.4-1646.8-796.4z"/>
<path class="st51" d="M-1618.8-797.3h0.8c2.1,0,3.8,1.7,3.8,3.8v6.9c0,2.1-1.7,3.8-3.8,3.8h-0.8c-2.1,0-3.8-1.7-3.8-3.8v-6.9
	C-1622.6-795.6-1620.9-797.3-1618.8-797.3z"/>
<path class="st51" d="M-1557.2-796.4h0.8c2.1,0,3.8,1.7,3.8,3.8v6.9c0,2.1-1.7,3.8-3.8,3.8h-0.8c-2.1,0-3.8-1.7-3.8-3.8v-6.9
	C-1561-794.7-1559.3-796.4-1557.2-796.4z"/>
<path class="st51" d="M-1492.2-796.4h0.8c2.1,0,3.8,1.7,3.8,3.8v6.9c0,2.1-1.7,3.8-3.8,3.8h-0.8c-2.1,0-3.8-1.7-3.8-3.8v-6.9
	C-1496-794.7-1494.3-796.4-1492.2-796.4z"/>
<path class="st51" d="M-1428-796.4h0.8c2.1,0,3.8,1.7,3.8,3.8v6.9c0,2.1-1.7,3.8-3.8,3.8h-0.8c-2.1,0-3.8-1.7-3.8-3.8v-6.9
	C-1431.8-794.7-1430.1-796.4-1428-796.4z"/>
<path class="st51" d="M-1523.5-796.4h0.8c2.1,0,3.8,1.7,3.8,3.8v6.9c0,2.1-1.7,3.8-3.8,3.8h-0.8c-2.1,0-3.8-1.7-3.8-3.8v-6.9
	C-1527.3-794.7-1525.6-796.4-1523.5-796.4z"/>
<path class="st51" d="M-1588.7-796.4h0.8c2.1,0,3.8,1.7,3.8,3.8v6.9c0,2.1-1.7,3.8-3.8,3.8h-0.8c-2.1,0-3.8-1.7-3.8-3.8v-6.9
	C-1592.4-794.7-1590.8-796.4-1588.7-796.4z"/>
<path class="st51" d="M-1460.9-796.4h0.8c2.1,0,3.8,1.7,3.8,3.8v6.9c0,2.1-1.7,3.8-3.8,3.8h-0.8c-2.1,0-3.8-1.7-3.8-3.8v-6.9
	C-1464.6-794.7-1463-796.4-1460.9-796.4z"/>
<path class="st52" d="M-2082.4-777.3h847.1c6.1,0,11,4.9,11,11l0,0v14.2l0,0h-867.3l0,0v-16
	C-2091.6-773.2-2087.4-777.3-2082.4-777.3L-2082.4-777.3z"/>
<path class="st35" d="M-2453.9,321.8L-2453.9,321.8c0-8.1,6.6-14.7,14.7-14.7l371.2-1c8.1,0,14.7,6.6,14.8,14.7c0,0,0,0,0,0l0,0
	c0,8.1-6.6,14.7-14.7,14.7c0,0,0,0,0,0h-44.8c-8.1,0-14.7,6.6-14.7,14.7v11.2c0,8.1,6.6,14.7,14.7,14.7h147.3
	c8.1,0,14.7,6.6,14.7,14.7l0,0c0,8.1-6.6,14.7-14.7,14.7h-258.6c-8.1,0-14.7-6.6-14.7-14.7l0,0c0-8.1,6.6-14.7,14.7-14.7h16
	c8.1,0,14.7-6.6,14.7-14.7v-11.2c0-8.1-6.6-14.7-14.7-14.7c0,0-0.1,0-0.1,0l-231,1C-2447.3,336.5-2453.9,330-2453.9,321.8
	C-2453.9,321.8-2453.9,321.8-2453.9,321.8z"/>
<path class="st36" d="M-883.3-713.8v-17.6c0-9.7-15-9.7-15,0v17.6H-883.3z"/>
<path class="st19" d="M-910.4-715.1c0.5,0.3,1,0.6,1.5,1l0.4,0.3h20.9c-4-5.7-9.2-10.6-15.2-14.2C-911.2-733-918.7-720-910.4-715.1z
	"/>
<path class="st19" d="M-872.8-713.8c0.7-0.4,1.3-0.9,2-1.3c8.3-4.9,0.8-17.9-7.6-13c-6.2,3.7-11.6,8.5-15.8,14.3H-872.8z"/>
<g>
	
		<linearGradient id="SVGID_22_" gradientUnits="userSpaceOnUse" x1="1594.8914" y1="-4212.7612" x2="1594.8914" y2="-4016.4912" gradientTransform="matrix(1 0 0 -1 0 -2509.6946)">
		<stop  offset="0.32" style="stop-color:#FBEDDA"/>
		<stop  offset="0.57" style="stop-color:#F8E7BA"/>
		<stop  offset="0.98" style="stop-color:#F1DB7B"/>
	</linearGradient>
	<path class="st65" d="M2001.9,1573.6c0-0.9-0.7-1.6-1.6-1.6H1970c-18.2,0-34.3-9.4-39.7-23.3l-7.2-18.7
		c-5.3-13.8-21.4-23.3-39.7-23.3h-21.5c-22.9,0-41.5,14.7-41.5,32.9v63.8c0,18.2-18.6,32.9-41.4,32.9h-77.3l-64.5-0.7
		c-18.1-0.2-34-9.7-39.2-23.5l-6.3-16.7c-5.2-13.9-21.4-23.5-39.7-23.5h-157.8c-16.5,0-31.4-7.8-38-19.8l0,0
		c-6.6-12-21.5-19.8-38-19.8H1268c-22.9,0-41.5,14.7-41.5,32.9v16.3c0,17.6-9.2,34.9-31,36.8c-6.9,0.6-7.7,4-7.7,4
		c0.2,0.6,0.8,1.1,1.4,1.1c12.7,0.3,45.1-0.4,60.1,0.4c3,0.2,13,1.1,11.8,3.8l-32.8,73c-0.4,0.8,0,1.7,0.8,2.1
		c0.2,0.1,0.4,0.1,0.7,0.1h770.6c0.9,0,1.6-0.7,1.6-1.6L2001.9,1573.6z"/>
	
		<linearGradient id="SVGID_23_" gradientUnits="userSpaceOnUse" x1="692.3314" y1="-4243.3911" x2="692.3314" y2="-4033.9712" gradientTransform="matrix(1 0 0 -1 0 -2509.6946)">
		<stop  offset="0.32" style="stop-color:#FBEDDA"/>
		<stop  offset="0.57" style="stop-color:#F8E7BA"/>
		<stop  offset="0.98" style="stop-color:#F1DB7B"/>
	</linearGradient>
	<path class="st66" d="M224.6,1550.3l18.4,68.3c4.1,15.2,21,26,40.5,26h10.6c22.9,0,41.5-14.7,41.5-32.9v-16.3
		c0-18.2,18.6-32.9,41.5-32.9h50.2c16.5,0,31.4,7.8,38,19.8l0,0c6.6,12,21.5,19.8,38,19.8H661c18.3,0,34.5,9.5,39.7,23.5l6.3,16.7
		c5.2,13.8,21,23.3,39.2,23.5l64.5,0.7h77.3c22.9,0,41.5-14.7,41.5-32.9v-63.8c0-18.2,18.6-32.9,41.5-32.9h21.5
		c18.2,0,34.3,9.5,39.6,23.3l7.2,18.7c5.3,13.8,21.4,23.3,39.6,23.3h30.4c15.9,0,30.3,7.2,37.3,18.5l9.1,14.8
		c6.9,11.3,21.4,18.5,37.3,18.5h51.3c22.9,0,41.4,14.7,41.4,32.9v13.5c0,18.2-18.6,32.9-41.4,32.9H336.4v0.5H98.8v-176.5
		c0-18.2,18.6-32.9,41.4-32.9H184C203.6,1524.3,220.5,1535.1,224.6,1550.3z"/>
	
		<linearGradient id="SVGID_24_" gradientUnits="userSpaceOnUse" x1="1050.3464" y1="-4016.4912" x2="1050.3464" y2="-4243.3711" gradientTransform="matrix(1 0 0 -1 0 -2509.6946)">
		<stop  offset="0.15" style="stop-color:#532037;stop-opacity:0.89"/>
		<stop  offset="0.23" style="stop-color:#5E263A;stop-opacity:0.9"/>
		<stop  offset="0.37" style="stop-color:#7B3641;stop-opacity:0.92"/>
		<stop  offset="0.56" style="stop-color:#AB504D;stop-opacity:0.95"/>
		<stop  offset="0.78" style="stop-color:#EC745D;stop-opacity:0.99"/>
		<stop  offset="0.81" style="stop-color:#F6795F"/>
	</linearGradient>
	<path class="st67" d="M2000.4,1572H1970c-18.2,0-34.3-9.4-39.7-23.3l-7.2-18.7c-5.3-13.8-21.4-23.3-39.7-23.3h-21.5
		c-22.9,0-41.5,14.7-41.5,32.9v63.8c0,18.2-18.6,32.9-41.4,32.9h-77.3l-64.5-0.7c-18.1-0.2-34-9.7-39.2-23.5l-6.3-16.7
		c-5.2-13.9-21.4-23.5-39.7-23.5h-157.8c-16.5,0-31.4-7.8-38-19.8l0,0c-6.6-12-21.5-19.8-38-19.8H1268c-22.9,0-41.5,14.7-41.5,32.9
		v16.3c0,17.6-9.2,34.9-31,36.8c-6.9,0.6-7.7,4-7.7,4c0.2,0.6,0.8,1.1,1.4,1.1c12.7,0.3,45.1-0.4,60.1,0.4c3,0.2,13,1.1,11.8,3.8
		l-11.8,26.3c-1.6-0.2-3.2-0.2-4.9-0.2h-51.4c-15.9,0-30.3-7.2-37.3-18.5l-9.1-14.8c-6.9-11.3-21.4-18.5-37.3-18.5H1079
		c-18.2,0-34.3-9.4-39.6-23.3l-7.2-18.7c-5.3-13.8-21.4-23.3-39.6-23.3H971c-22.9,0-41.5,14.7-41.5,32.9v63.8
		c0,18.2-18.6,32.9-41.5,32.9h-77.3l-64.5-0.7c-18.1-0.2-34-9.7-39.2-23.5l-6.3-16.7c-5.2-13.9-21.4-23.5-39.7-23.5H503.2
		c-16.5,0-31.4-7.8-38-19.8s-21.5-19.8-38-19.8H377c-22.9,0-41.5,14.7-41.5,32.9v16.4c0,18.2-18.6,32.9-41.5,32.9h-10.6
		c-19.6,0-36.5-10.8-40.5-26l-18.4-68.4c-4.1-15.2-21-26-40.6-26h-43.8c-22.9,0-41.4,14.7-41.4,32.9v176.5h237.6v-0.5h908.1
		c21.7,0,39.5-13.2,41.3-30.1h714.6c0.9,0,1.6-0.7,1.6-1.6v-127.9C2001.9,1572.7,2001.2,1572,2000.4,1572z"/>
	<polygon class="st9" points="2002.6,1741.3 81.9,1741.3 81.9,1667.1 1046,1665.9 2002.6,1665.9 	"/>
	<rect x="81.9" y="1710.9" class="st10" width="1920.7" height="11.9"/>
	<rect x="81.9" y="1682" class="st11" width="1920.7" height="16.1"/>
	<rect x="81.9" y="1722.8" class="st12" width="1920.7" height="18.5"/>
	<rect x="81.9" y="1733.5" class="st13" width="1920.7" height="7.8"/>
	<ellipse cx="351.7" cy="1733.6" rx="17.6" ry="1"/>
	<ellipse cx="1885.6" cy="1722.7" rx="17.6" ry="1"/>
	<ellipse cx="620.3" cy="1702.4" rx="5.8" ry="0.4"/>
	<ellipse cx="539.9" cy="1715.5" rx="9.5" ry="0.5"/>
	<path class="st14" d="M625.9,1702.8c0,0,2.8-0.2,0.4-2.5c-0.9-0.9-5.2-2.3-7,0.9c0,0-1,1.6,1.7,1.6S625.9,1702.8,625.9,1702.8z"/>
	<path class="st15" d="M1902.5,1723.7c0,0,8.4-0.7,1.3-7.5c-2.8-2.6-15.8-7-21,2.7c0,0-3.1,4.7,5,4.8S1902.5,1723.7,1902.5,1723.7z"
		/>
	<path class="st15" d="M547.6,1716c0,0,4.2-0.4,0.7-3.7c-1.4-1.3-7.9-3.5-10.5,1.3c0,0-1.5,2.3,2.5,2.4
		C544.3,1716.1,547.6,1716,547.6,1716z"/>
	<path class="st15" d="M368.1,1734.6c0,0,8.4-0.7,1.3-7.5c-2.8-2.6-15.8-6.9-21,2.7c0,0-3.1,4.7,5,4.8S368.1,1734.6,368.1,1734.6z"
		/>
	<ellipse cx="1923.2" cy="1722.4" rx="11.4" ry="1.1"/>
	<path d="M392.4,1736.1c8.6,0,15.6,0.6,15.6,1.3s-7,1.3-15.6,1.3s-15.6-0.6-15.6-1.3"/>
	<ellipse cx="633.5" cy="1729" rx="10.3" ry="0.9"/>
	<ellipse cx="561.3" cy="1715.4" rx="7.4" ry="0.6"/>
	<ellipse cx="1510.6" cy="1702.3" rx="6.9" ry="0.6"/>
	<path class="st16" d="M400.4,1735.7v-12.1c0-3.5-5.5-3.5-5.5,0v12.1C395,1739.2,400.4,1739.2,400.4,1735.7z"/>
	<path class="st17" d="M400.3,1736.4c0.1-0.3,0.2-0.5,0.3-0.8c0.2-0.5-0.1,0.2,0.2-0.4c0.2-0.4,0.4-0.8,0.7-1.2
		c1.4-2.1,3.3-3.8,5.5-4.9c3.1-1.7,0.4-6.4-2.8-4.7c-4,2.1-8,6-9.1,10.6C394.2,1738.4,399.5,1739.9,400.3,1736.4L400.3,1736.4z"/>
	<path class="st17" d="M388.9,1729.9c0.3,0.1-0.4-0.2-0.4-0.2c0.2,0.1,0.4,0.2,0.6,0.3c0.5,0.3,1.1,0.6,1.5,1c2,1.6,3.6,3.7,4.7,6.1
		c1.6,3.2,6.3,0.4,4.7-2.8c-2-4-5.3-8.1-9.7-9.7C387,1723.4,385.6,1728.7,388.9,1729.9L388.9,1729.9z"/>
	<path class="st18" d="M639.4,1727.5v-8c0-1-0.8-1.8-1.8-1.8c-1,0-1.8,0.8-1.8,1.8v8c0,1,0.8,1.8,1.8,1.8
		C638.5,1729.3,639.4,1728.5,639.4,1727.5z"/>
	<path class="st19" d="M639.3,1728c0-0.2,0.1-0.4,0.2-0.5c0.1-0.3-0.1,0.1,0.1-0.3s0.3-0.5,0.4-0.8c0.9-1.4,2.1-2.5,3.6-3.2
		c2.1-1.1,0.2-4.2-1.8-3.1c-2.7,1.4-5.3,3.9-6,7C635.3,1729.3,638.8,1730.3,639.3,1728L639.3,1728z"/>
	<path class="st19" d="M631.8,1723.7l-0.3-0.1c0.1,0.1,0.3,0.1,0.4,0.2c0.3,0.2,0.8,0.5,1,0.6c1.3,1.1,2.4,2.4,3.1,4
		c1,2.1,4.2,0.3,3.1-1.8c-1.3-2.7-3.5-5.3-6.4-6.4C630.5,1719.4,629.6,1722.9,631.8,1723.7L631.8,1723.7z"/>
	<path class="st20" d="M564.9,1713.8v-5.5c0-0.5-0.4-0.9-0.9-0.9c-0.5,0-0.9,0.4-0.9,0.9v5.5c0,0.5,0.4,0.9,0.9,0.9
		C564.5,1714.7,564.9,1714.3,564.9,1713.8L564.9,1713.8z"/>
	<path class="st19" d="M565.1,1714.8c0,0.3,0-0.1,0.1-0.3c0.1-0.4,0.2-0.7,0.4-1.1c0.7-1.3,1.7-2.3,3-2.9c1-0.6,0.1-2.1-0.9-1.6
		c-2.1,1.2-4.1,3.3-4.4,5.8C563.2,1716,565,1716,565.1,1714.8L565.1,1714.8z"/>
	<path class="st19" d="M560.1,1710.7C559.9,1710.7,560,1710.6,560.1,1710.7c-0.1-0.1,0.5,0.3,0.6,0.4c1.2,1.2,2.1,2.6,2.8,4.2
		c0.5,1,2.1,0.1,1.5-0.9c-0.7-1.8-1.8-3.4-3.2-4.7c-0.5-0.4-1-0.7-1.7-0.8C559,1709,558.9,1710.8,560.1,1710.7L560.1,1710.7z"/>
	<path class="st21" d="M1512.6,1700.7v-5.5c0-0.5-0.4-0.9-0.9-0.9s-0.9,0.4-0.9,0.9l0,0v5.5c0,0.5,0.4,0.9,0.9,0.9
		S1512.6,1701.2,1512.6,1700.7z"/>
	<path class="st19" d="M1512.8,1701.7c0,0.3,0-0.1,0.1-0.3c0.1-0.4,0.2-0.7,0.4-1.1c0.7-1.3,1.7-2.3,3-2.9c1-0.6,0.1-2.1-0.9-1.6
		c-2.1,1.2-4.1,3.3-4.3,5.8C1510.9,1702.8,1512.7,1702.8,1512.8,1701.7L1512.8,1701.7z"/>
	<path class="st19" d="M1507.8,1697.5C1507.6,1697.5,1507.7,1697.4,1507.8,1697.5c-0.1-0.1,0.5,0.3,0.6,0.4c1.2,1.2,2.1,2.6,2.7,4.2
		c0.5,1.1,2.1,0.1,1.6-0.9c-0.7-1.8-1.8-3.4-3.2-4.7c-0.4-0.4-1-0.7-1.7-0.8C1506.6,1695.8,1506.6,1697.6,1507.8,1697.5
		L1507.8,1697.5z"/>
	<path class="st22" d="M1928.4,1720.5v-10.3c0-2.7-4.2-2.7-4.2,0v10.3C1924.2,1723.2,1928.4,1723.2,1928.4,1720.5z"/>
	<path class="st19" d="M1928.1,1721.3c1.3-2.6,3.2-4.8,5.6-6.5c2.2-1.5,0.1-5.1-2.1-3.6c-3,2-5.5,4.8-7.1,8
		C1923.3,1721.6,1926.9,1723.7,1928.1,1721.3L1928.1,1721.3z"/>
	<path class="st19" d="M1919,1714.8l0.2,0.1c0.4,0.3-0.2-0.2,0.2,0.2c0.5,0.4,1,0.8,1.4,1.3c1.5,1.5,2.7,3.2,3.6,5.1
		c1.2,2.4,4.8,0.3,3.6-2.1c-1.6-3.3-4-6.1-7-8.2C1918.8,1709.7,1916.7,1713.3,1919,1714.8L1919,1714.8z"/>
	
		<linearGradient id="SVGID_25_" gradientUnits="userSpaceOnUse" x1="1591.4812" y1="-4194.2813" x2="1591.4812" y2="-4052.9912" gradientTransform="matrix(1 0 0 -1 0 -2509.6946)">
		<stop  offset="0" style="stop-color:#773C41"/>
		<stop  offset="0.55" style="stop-color:#642F36"/>
		<stop  offset="1" style="stop-color:#51222B"/>
	</linearGradient>
	<path class="st68" d="M1896.8,1560.9l-12.4,46.1c-2.8,10.2-14.2,17.6-27.4,17.6h-7.1c-15.4,0-28-9.9-28-22.2v-11.1
		c0-12.3-12.5-22.2-28-22.2h-33.9c-11.1,0-21.2,5.2-25.7,13.3l0,0c-4.4,8.1-14.5,13.3-25.7,13.3h-106.5c-12.4,0-23.3,6.4-26.8,15.8
		l-4.2,11.2c-3.5,9.3-14.2,15.7-26.4,15.8l-43.6,0.5H1449c-15.4,0-28-9.9-28-22.2v-43c0-12.3-12.5-22.2-28-22.2h-14.6
		c-12.3,0-23.2,6.4-26.8,15.7l-4.8,12.6c-3.6,9.3-14.5,15.7-26.8,15.7h-20.5c-10.7,0-20.5,4.8-25.2,12.5l-6.1,10
		c-4.7,7.6-14.4,12.5-25.2,12.5h-34.7c-15.4,0-28,9.9-28,22.2v9.1c0,12.3,12.5,22.2,28,22.2h612.9v0.3h181l0.2-39.5l0,0
		c-11.5,0-20.9-9.3-20.9-20.7c0,0,0,0,0-0.1v-58.8c0-12.3-12.5-22.2-28-22.2h-29.6C1911,1543.3,1899.6,1550.6,1896.8,1560.9z"/>
	
		<linearGradient id="SVGID_26_" gradientUnits="userSpaceOnUse" x1="496.9823" y1="-4194.3477" x2="496.9823" y2="-4061.4912" gradientTransform="matrix(1 0 0 -1 0 -2509.6946)">
		<stop  offset="0" style="stop-color:#773C41"/>
		<stop  offset="0.55" style="stop-color:#642F36"/>
		<stop  offset="1" style="stop-color:#51222B"/>
	</linearGradient>
	<path class="st69" d="M854.8,1630.8h-45.2c-14,0-26.7-4.8-32.8-12.5l-8-10c-6.1-7.6-18.8-12.5-32.8-12.5h-26.7
		c-16,0-30.2-6.4-34.8-15.7l-6.3-12.6c-4.7-9.3-18.8-15.7-34.8-15.7h-18.9c-20.1,0-36.4,9.9-36.4,22.2v43
		c0,12.3-16.3,22.2-36.4,22.2h-68l-56.7-0.5c-15.9-0.1-29.9-6.5-34.4-15.8l-5.5-11.2c-4.6-9.4-18.8-15.8-34.9-15.8H203.3
		c-14.5,0-27.6-5.2-33.4-13.3c-5.8-8.1-18.9-13.3-33.4-13.3H91.5c-5.3,0.1-9.6,4.4-9.6,9.8v105.4h772.9c12.3,0,33.8,1.2,48.7-0.7
		c5.4-0.7,9.1-5.6,8.5-10.9c-0.3-2.6-1.7-4.9-3.7-6.5l-3.4-2.7c-6.4-5.1-11.7-11.3-15.9-18.3
		C883.8,1636.8,870.4,1630.8,854.8,1630.8z"/>
	<path class="st36" d="M1837.4,1741.3v-17.6c0-9.7-15-9.7-15,0v17.6H1837.4z"/>
	<path class="st19" d="M1810.3,1740c0.5,0.3,1,0.6,1.5,1l0.4,0.3h20.9c-4-5.7-9.2-10.6-15.2-14.2
		C1809.5,1722.1,1801.9,1735.1,1810.3,1740z"/>
	<path class="st19" d="M1847.8,1741.3c0.7-0.4,1.3-0.9,2-1.3c8.3-4.9,0.8-17.9-7.6-13c-6.2,3.7-11.6,8.5-15.8,14.3H1847.8z"/>
</g>
<g>
	<rect x="1519.9" y="-557" class="st0" width="1920" height="1080.9"/>
	
		<radialGradient id="SVGID_27_" cx="2583.2756" cy="-2230.4382" r="1918.5765" fx="2642.6877" fy="-1209.1694" gradientTransform="matrix(0.9926 0.1213 6.431530e-02 -0.5261 59.7972 -1506.3733)" gradientUnits="userSpaceOnUse">
		<stop  offset="9.000000e-02" style="stop-color:#FF5967"/>
		<stop  offset="0.16" style="stop-color:#FF5967;stop-opacity:0.79"/>
		<stop  offset="0.23" style="stop-color:#FF5967;stop-opacity:0.58"/>
		<stop  offset="0.3" style="stop-color:#FF5967;stop-opacity:0.4"/>
		<stop  offset="0.38" style="stop-color:#FF5967;stop-opacity:0.26"/>
		<stop  offset="0.45" style="stop-color:#FF5967;stop-opacity:0.14"/>
		<stop  offset="0.52" style="stop-color:#FF5967;stop-opacity:6.000000e-02"/>
		<stop  offset="0.59" style="stop-color:#FF5967;stop-opacity:2.000000e-02"/>
		<stop  offset="0.66" style="stop-color:#FF5967;stop-opacity:0"/>
		<stop  offset="1" style="stop-color:#FF5967;stop-opacity:0"/>
	</radialGradient>
	<rect x="1520.2" y="-558.1" class="st70" width="1920" height="1082"/>
	
		<linearGradient id="SVGID_28_" gradientUnits="userSpaceOnUse" x1="2480.2339" y1="-3033.6145" x2="2480.2339" y2="-2483.4045" gradientTransform="matrix(1 0 0 -1 0 -2509.6946)">
		<stop  offset="9.000000e-02" style="stop-color:#FF5967"/>
		<stop  offset="0.16" style="stop-color:#FF5967;stop-opacity:0.79"/>
		<stop  offset="0.23" style="stop-color:#FF5967;stop-opacity:0.58"/>
		<stop  offset="0.3" style="stop-color:#FF5967;stop-opacity:0.4"/>
		<stop  offset="0.38" style="stop-color:#FF5967;stop-opacity:0.26"/>
		<stop  offset="0.45" style="stop-color:#FF5967;stop-opacity:0.14"/>
		<stop  offset="0.52" style="stop-color:#FF5967;stop-opacity:6.000000e-02"/>
		<stop  offset="0.59" style="stop-color:#FF5967;stop-opacity:2.000000e-02"/>
		<stop  offset="0.66" style="stop-color:#FF5967;stop-opacity:0"/>
		<stop  offset="1" style="stop-color:#FF5967;stop-opacity:0"/>
	</linearGradient>
	<rect x="1520.2" y="-558.1" class="st71" width="1920" height="1082"/>
	
		<radialGradient id="SVGID_29_" cx="-3236.2378" cy="-3292.9785" r="754.88" fx="-3774.9792" fy="-3317.2847" gradientTransform="matrix(0.2083 -0.9781 -2.944 -0.6268 -6569.2729 -5187.1489)" gradientUnits="userSpaceOnUse">
		<stop  offset="7.000000e-02" style="stop-color:#FE9B46"/>
		<stop  offset="7.000000e-02" style="stop-color:#FE9B46"/>
		<stop  offset="0.12" style="stop-color:#F98B4E;stop-opacity:0.77"/>
		<stop  offset="0.16" style="stop-color:#F57D55;stop-opacity:0.56"/>
		<stop  offset="0.21" style="stop-color:#F1725B;stop-opacity:0.39"/>
		<stop  offset="0.26" style="stop-color:#EE6860;stop-opacity:0.25"/>
		<stop  offset="0.31" style="stop-color:#EC6163;stop-opacity:0.14"/>
		<stop  offset="0.36" style="stop-color:#EA5B66;stop-opacity:6.000000e-02"/>
		<stop  offset="0.41" style="stop-color:#E95867;stop-opacity:2.000000e-02"/>
		<stop  offset="0.46" style="stop-color:#E95768;stop-opacity:0"/>
	</radialGradient>
	<rect x="1520.2" y="-558.1" class="st72" width="1920" height="1082"/>
	
		<linearGradient id="SVGID_30_" gradientUnits="userSpaceOnUse" x1="2480.2339" y1="-2947.1846" x2="2480.2339" y2="-2597.9346" gradientTransform="matrix(1 0 0 -1 0 -2509.6946)">
		<stop  offset="7.000000e-02" style="stop-color:#FABC6B"/>
		<stop  offset="0.11" style="stop-color:#FBB268;stop-opacity:0.87"/>
		<stop  offset="0.2" style="stop-color:#FBA162;stop-opacity:0.64"/>
		<stop  offset="0.29" style="stop-color:#FC925E;stop-opacity:0.45"/>
		<stop  offset="0.37" style="stop-color:#FD865A;stop-opacity:0.29"/>
		<stop  offset="0.46" style="stop-color:#FD7D57;stop-opacity:0.16"/>
		<stop  offset="0.54" style="stop-color:#FE7655;stop-opacity:7.000000e-02"/>
		<stop  offset="0.62" style="stop-color:#FE7253;stop-opacity:2.000000e-02"/>
		<stop  offset="0.69" style="stop-color:#FE7153;stop-opacity:0"/>
	</linearGradient>
	<rect x="1520.2" y="-558.1" class="st73" width="1920" height="1082"/>
</g>
<g>
	<g>
		<path class="st51" d="M10.5,443.5h848c4.8,0,8.8,3.9,8.8,8.8c0,0,0,0,0,0v16.4l0,0H0l0,0V454C0,448.2,4.7,443.5,10.5,443.5z"/>
		<path class="st52" d="M509.8,91.7c-4.2,0,8.1,5.1,3.2,5.1l-16.2,26.7c-4.4,3.4-6.9,8.1-6.9,12.9v345.3h80.7V110
			C570.6,96.4,560.6,92.2,509.8,91.7z"/>
		<path class="st51" d="M561.5,122.5c-0.1-2.7-2.8-4.8-6.3-4.8H499c-3.5,0-6.3,2.2-6.3,4.9v30c0,0.2-0.1,0.5-0.1,0.7
			c0,0,0,0.1,0,0.2c0,1.1,0.4,2.1,1.1,2.9l0,0c1.8,1.8,4.5,2.5,7,1.9h54.3c3.5,0,6.3-2.2,6.3-4.9v-29.7
			C561.5,123.2,561.5,122.8,561.5,122.5z M505.3,127.5H536L505.3,144L505.3,127.5z M548.9,132.5v15.9h-29.4L548.9,132.5z"/>
		<path class="st51" d="M601.9,161.6c-0.1-2.7-2.8-4.8-6.3-4.8h-56.2c-9.9-0.6-6.3,2.2-6.3,4.9v30c0,0.2-0.1,0.5-0.1,0.7
			c0,0,0,0.1,0,0.2c0,1-2.9,1.7-2.1,2.5l-0.2,0.3c1.6,1.8-4.4,1.7,10.5,1.9h54.3c3.5,0,6.3-2.2,6.3-4.9v-29.7
			C601.9,162.4,601.9,162,601.9,161.6z M545.8,166.6h30.6l-30.6,16.6V166.6z M589.3,171.6v15.9H560L589.3,171.6z"/>
		<path class="st51" d="M561.5,201.9c-0.1-2.7-2.8-4.8-6.3-4.8H499c-3.5,0-6.3,2.2-6.3,4.9v30c0,0.2-0.1,0.5-0.1,0.7
			c0,0,0,0.1,0,0.2c0,1.1,0.4,2.1,1.1,2.8l0,0c1.8,1.8,4.5,2.5,7,1.9h54.3c3.5,0,6.3-2.2,6.3-4.9v-29.7
			C561.5,202.6,561.5,202.2,561.5,201.9z M505.3,206.9H536l-30.6,16.5V206.9z M548.9,211.9v15.9h-29.4L548.9,211.9z"/>
		<path class="st51" d="M601.9,238.6c-0.1-2.7-2.8-4.8-6.3-4.8h-56.2c-3.5,0-6.3,2.2-6.3,4.9v30c0,0.2-0.1,0.5-0.1,0.7
			c0,0,0,0.1,0,0.2c0,1-3.2,1.6-2.4,2.5l-0.8-0.1c1.6,1.8-11.1,2.4,11.4,2.4h54.3c3.5,0,6.3-2.2,6.3-4.9v-29.7
			C601.9,239.3,601.9,238.9,601.9,238.6z M545.8,243.6h30.6l-30.6,16.6V243.6z M589.3,248.6v15.9H560L589.3,248.6z"/>
		<path class="st51" d="M560.8,279.1c0-2.7-2.8-4.8-6.3-4.8h-56.2c-3.5,0-6.3,2.2-6.3,4.9v30c0,0.2-0.1,0.5-0.1,0.7c0,0,0,0.1,0,0.2
			c0,1.1,0.4,2.1,1.1,2.8l0,0c1.8,1.8,4.5,2.6,7.1,1.9h54.3c3.5,0,6.3-2.2,6.3-4.9v-29.7C560.8,279.9,560.8,279.5,560.8,279.1z
			 M504.7,284.1h30.7l-30.6,16.6L504.7,284.1z M548.2,289.1v15.8h-29.4L548.2,289.1z"/>
		<path class="st51" d="M560.8,309.8c0-2.7-2.8-4.8-6.3-4.8h-56.2c-3.5,0-6.3,2.2-6.3,4.9v30c0,0.2-0.1,0.5-0.1,0.7c0,0,0,0.1,0,0.2
			c0,1.1,0.4,2.1,1.1,2.8l0,0c1.8,1.8,4.5,2.6,7.1,1.9h54.3c3.5,0,6.3-2.2,6.3-4.9v-29.6C560.8,310.6,560.8,310.2,560.8,309.8z
			 M504.7,314.8h30.7l-30.6,16.6L504.7,314.8z M548.2,319.7v15.9h-29.4L548.2,319.7z"/>
		<path class="st51" d="M560.8,340.4c0-2.7-2.8-4.8-6.3-4.8h-56.2c-3.5,0-6.3,2.2-6.3,4.9v30c0,0.2-0.1,0.5-0.1,0.7c0,0,0,0.1,0,0.2
			c0,1.1,0.4,2.1,1.1,2.9l0,0c1.8,1.8,4.5,2.6,7.1,1.9h54.3c3.5,0,6.3-2.2,6.3-4.9v-29.6C560.8,341.2,560.8,340.8,560.8,340.4z
			 M504.7,345.4h30.7L504.7,362L504.7,345.4z M548.2,350.4v15.9h-29.4L548.2,350.4z"/>
		<path class="st51" d="M560.8,371.1c0-2.7-2.8-4.8-6.3-4.8h-56.2c-3.5,0-6.3,2.2-6.3,4.9v30c0,0.2-0.1,0.5-0.1,0.7c0,0,0,0.1,0,0.2
			c0,1.1,0.4,2.1,1.1,2.8l0,0c1.8,1.8,4.5,2.6,7.1,1.9h54.3c3.5,0,6.3-2.2,6.3-4.9v-29.7C560.8,371.8,560.8,371.5,560.8,371.1z
			 M504.7,376.1h30.7l-30.6,16.6L504.7,376.1z M548.2,381.1v15.8h-29.4L548.2,381.1z"/>
		<path class="st51" d="M560.8,410.2c0-2.7-2.8-4.8-6.3-4.8h-56.2c-3.5,0-6.3,2.2-6.3,4.9v30c0,0.2-0.1,0.5-0.1,0.7c0,0,0,0.1,0,0.2
			c0,1.1,0.4,2.1,1.1,2.8l0,0c1.8,1.8,4.5,2.6,7.1,1.9h54.3c3.5,0,6.3-2.2,6.3-4.9v-29.6C560.8,410.9,560.8,410.5,560.8,410.2z
			 M504.7,415.2h30.7l-30.6,16.6L504.7,415.2z M548.2,420.1V436h-29.4L548.2,420.1z"/>
		<path class="st53" d="M507.5,152.8h95.6c0,0,0.1,0,0.1,0.1v4.8c0,0,0,0.1-0.1,0.1h-95.6c0,0-0.1,0-0.1-0.1L507.5,152.8
			C507.4,152.8,507.4,152.8,507.5,152.8z"/>
		<rect x="505.4" y="230.2" class="st53" width="95.8" height="4"/>
		<path class="st52" d="M468.1,100.2l-29.8,23.3c-4.4,3.4-6.9,8.1-6.9,12.9v343h80.7V110c0-7.8,6.6-15.5-1-18.3
			C511.1,91.7,482.8,88.6,468.1,100.2z"/>
		<path class="st53" d="M493.1,97.1l-33.8,26.4c-4.4,3.4-6.9,8.1-6.9,12.9v343h80.7V110C533.1,93.7,507.9,85.5,493.1,97.1z"/>
		<path class="st52" d="M456.3,409.6v4.1c-0.1,1.4,1,2.6,2.4,2.6l0,0c1.4,0,2.5-1.2,2.4-2.6c0,0,0,0,0,0v-4.1c0.1-1.4-1-2.6-2.4-2.6
			c0,0,0,0,0,0l0,0C457.4,407.1,456.3,408.2,456.3,409.6z"/>
		<path class="st52" d="M456.3,396.6v4.1c-0.1,1.4,1,2.6,2.4,2.6l0,0c1.4,0,2.5-1.2,2.4-2.6c0,0,0,0,0,0v-4.1c0.1-1.4-1-2.6-2.4-2.6
			c0,0,0,0,0,0l0,0C457.4,394.1,456.3,395.2,456.3,396.6z"/>
		<path class="st54" d="M515.9,101.1h4.1c1.4,0.1,2.6-1,2.6-2.4l0,0c0-1.4-1.2-2.5-2.6-2.4c0,0,0,0,0,0h-4.1c-1.4-0.1-2.6,1-2.6,2.4
			c0,0,0,0,0,0l0,0C513.3,100,514.5,101.1,515.9,101.1z"/>
		<path class="st52" d="M496,115.7l-23.2,17.9c-4.7,3.6-7.5,8.3-8.1,13.4c-0.2,1.6-0.3,3.3-0.3,4.9v19.5c0-4.5,2-8.9,5.3-11.9
			l28-23.6c9.2-7.7,29.3-3.8,29.3,11.2v-19.5C527.1,112.5,507.5,105,496,115.7z"/>
		<path class="st55" d="M532.7,177.2h-16.8c-0.8,0-1.6,0.3-2.3,0.8l-41.7,32.6c-0.6,0.4-1.3,0.7-2,0.7h-15.8c-0.6,0-1.2,0.5-1.2,1.2
			l0,0c0,0.6,0.5,1.2,1.1,1.2c0,0,0,0,0,0h16.4c1.1,0,2.1-0.4,2.9-1l41.4-32.4c0.5-0.4,1.2-0.7,1.9-0.7h15.9c0.6,0,1.1-0.5,1.2-1.1
			l0,0C533.9,177.7,533.4,177.2,532.7,177.2C532.7,177.2,532.7,177.2,532.7,177.2z"/>
		<path class="st55" d="M532.7,204.9h-16.8c-0.8,0-1.6,0.3-2.3,0.8l-41.7,32.6c-0.6,0.4-1.3,0.7-2,0.7h-15.8c-0.6,0-1.2,0.5-1.2,1.2
			l0,0c0,0.6,0.5,1.2,1.1,1.2c0,0,0,0,0,0h16.4c1.1,0,2.1-0.4,2.9-1l41.4-32.4c0.5-0.4,1.2-0.7,1.9-0.7h15.9c0.6,0,1.1-0.5,1.2-1.1
			l0,0C533.9,205.5,533.4,205,532.7,204.9C532.7,204.9,532.7,204.9,532.7,204.9z"/>
		<path class="st52" d="M509.9,330h3.6c7.1,0,12.9,5.8,12.9,12.9v59.3c0,7.1-5.8,12.9-12.9,12.9h-3.6c-7.1,0-12.9-5.8-12.9-12.9V343
			C497,335.8,502.8,330,509.9,330z"/>
		<path class="st56" d="M648.6,433.2v-24.3c-1-3.6,0-24.7-46.1-24.7s-45.1,21.1-46.1,24.7v24.3H648.6z"/>
		<path class="st57" d="M576.9,235.9L576.9,235.9v197.3h51.2V235.9l0,0c-0.4-4.9-2.7-9.5-6.5-12.6v-59.8c4-2.2,6.6-5.8,6.6-9.8V74.9
			l0,0c-0.5-10.7-11.8-45.6-25.6-45.6S577.5,64.3,577,74.9l0,0v79.3c0,4.1,2.6,7.7,6.6,9.8v59.4C579.7,226.4,577.3,231,576.9,235.9z
			"/>
		<path class="st58" d="M576.9,235.9L576.9,235.9v197.3h51.2V235.9l0,0c-0.4-4.9-2.7-9.5-6.5-12.6v-59.8c4-2.2,6.6-5.8,6.6-9.8V74.9
			l0,0c-0.5-10.7-11.8-45.6-25.6-45.6S577.5,64.3,577,74.9l0,0v79.3c0,4.1,2.6,7.7,6.6,9.8v59.4C579.7,226.4,577.3,231,576.9,235.9z
			"/>
		<path class="st59" d="M576.9,356.1L576.9,356.1v30.8c0,0.2,0.1,0.5,0.2,0.7h50.8c0.1-0.2,0.2-0.5,0.2-0.8v-30.6l0,0
			c0,0,0-0.1,0-0.1h-51.2C576.9,356,576.9,356,576.9,356.1z"/>
		<path class="st60" d="M576.9,235.9L576.9,235.9v4.8h51.2v-4.8l0,0c0-0.3,0-0.7-0.1-1h-51C577,235.2,576.9,235.6,576.9,235.9z"/>
		<path class="st60" d="M576.9,75.9L576.9,75.9v4.8h51.2v-4.8l0,0c0-0.3,0-0.7-0.1-1h-51C577,75.2,576.9,75.5,576.9,75.9z"/>
		<path class="st58" d="M601.8,0l-5.4,57.8l10.1,0.3l0,0c0.7,0,1.5,0,2.2,0l-6.2-58L601.8,0z"/>
		<path class="st61" d="M627.1,158h-49.4c1.2,2.5,3.2,4.6,5.6,5.9h38.2v-0.3C624,162.4,625.9,160.4,627.1,158z"/>
		<path class="st61" d="M621.5,223.3h-38.1c-1.9,1.6-3.4,3.5-4.6,5.7h47.3C625,226.9,623.4,224.9,621.5,223.3z"/>
		<path class="st61" d="M620,247.8v4.8c0,0.8,0.6,1.5,1.4,1.5l0,0c0.8,0,1.4-0.7,1.4-1.5v-4.8c0-0.8-0.6-1.4-1.4-1.4c0,0,0,0,0,0
			l0,0C620.7,246.4,620,247,620,247.8C620,247.8,620,247.8,620,247.8z"/>
		<path class="st61" d="M582.3,247.8v4.8c0,0.8,0.6,1.5,1.4,1.5h0.1c0.8,0,1.4-0.7,1.4-1.5v-4.8c0-0.8-0.6-1.4-1.4-1.5h0h-0.1
			C582.9,246.4,582.3,247,582.3,247.8C582.3,247.8,582.3,247.8,582.3,247.8z"/>
		<rect x="576.9" y="397.5" class="st60" width="51.2" height="5.9"/>
		<path class="st62" d="M592.6,35.2c-8.8,10.3-15.2,31.3-15.7,39.5c0,0.1,0,0.2,0,0.3l0,0v79.3c0,4.1,2.6,7.7,6.6,9.8v59.3
			c-3.5,2.9-5.8,7-6.5,11.5l0,0c0,0.3-0.1,0.7-0.1,1l0,0v151.4c-10.6,2.8-19.4,9.6-20.5,21.9v25.5l20.5-1.5l15.7-0.8L592.6,35.2z"/>
		
			<rect x="689.8" y="313.3" transform="matrix(0.5579 -0.8299 0.8299 0.5579 57.9827 743.3532)" class="st63" width="73.9" height="7.8"/>
		
			<rect x="689.8" y="367.2" transform="matrix(0.5579 -0.8299 0.8299 0.5579 13.2624 767.1774)" class="st63" width="73.9" height="7.8"/>
		
			<rect x="689.8" y="421.3" transform="matrix(0.5579 -0.8299 0.8299 0.5579 -31.6306 791.086)" class="st63" width="73.9" height="7.8"/>
		<path class="st64" d="M752.3,247.6L752.3,247.6c3.1,0,5.6,2.5,5.6,5.6v209.6c0,3.1-2.5,5.6-5.6,5.6h0c-3.1,0-5.6-2.5-5.6-5.6
			V253.2C746.7,250.1,749.2,247.6,752.3,247.6z"/>
		<path class="st64" d="M704.2,266.3L704.2,266.3c3.1,0,5.6,2.5,5.6,5.6v191c0,3.1-2.5,5.6-5.6,5.6h0c-3.1,0-5.6-2.5-5.6-5.6v-191
			C698.6,268.8,701.1,266.3,704.2,266.3z"/>
		<path class="st52" d="M729.1,276.4l-22.4,13.7c-4.5,2.8-7.3,6.4-7.8,10.3c-0.2,1.3-0.3,2.5-0.3,3.8v15c0-3.4,1.8-6.7,5.1-9.1
			l27-18.1c8.8-5.9,28.2-2.9,28.2,8.6v-15C759,274,740.1,268.2,729.1,276.4z"/>
		<path class="st52" d="M728.3,234.7L706,248.4c-4.5,2.8-7.3,6.4-7.8,10.3c-0.2,1.2-0.3,2.5-0.3,3.8v26.3c0-3.4,1.8-6.7,5.1-9.1
			l27-18.1c8.8-5.9,28.2-2.9,28.2,8.6v-26.3C758.3,232.3,739.3,226.6,728.3,234.7z"/>
		<path class="st52" d="M728.3,330.2l-22.4,13.8c-4.5,2.8-7.3,6.4-7.8,10.3c-0.2,1.3-0.3,2.5-0.3,3.8v15c0-3.4,1.8-6.7,5.1-9.1
			l27-18.1c8.8-5.9,28.2-2.9,28.2,8.6v-15C758.3,327.8,739.3,322.1,728.3,330.2z"/>
		<path class="st52" d="M728.3,384.5L706,398.2c-4.5,2.7-7.3,6.4-7.8,10.3c-0.2,1.2-0.3,2.5-0.3,3.8v15c0-3.4,1.8-6.7,5.1-9.1
			l27-18.1c8.8-5.9,28.2-2.9,28.2,8.6v-15C758.3,382.1,739.3,376.4,728.3,384.5z"/>
		<path class="st52" d="M728.3,438.8L706,452.5c-4.5,2.8-7.3,6.4-7.8,10.3c-0.2,1.3-0.3,2.5-0.3,3.8v14.9c0.9-0.1,5.4,0,5.4,0
			l29.7,0.6h25.3v-34.2C758.3,436.5,739.3,430.7,728.3,438.8z"/>
		<path class="st52" d="M413.3,433.1h257.2c10.9,0,19.7,8.8,19.7,19.7l0,0v32.7l0,0h-298l0,0v-31.2
			C392.1,442.6,401.6,433.1,413.3,433.1z"/>
		<path class="st51" d="M444.8,441.4h0.8c2.1,0,3.8,1.7,3.8,3.8v6.9c0,2.1-1.7,3.8-3.8,3.8h-0.8c-2.1,0-3.8-1.7-3.8-3.8v-6.9
			C441,443.1,442.7,441.4,444.8,441.4z"/>
		<path class="st51" d="M472.8,440.5h0.8c2.1,0,3.8,1.7,3.8,3.8v6.9c0,2.1-1.7,3.8-3.8,3.8h-0.8c-2.1,0-3.8-1.7-3.8-3.8v-6.9
			C469,442.2,470.7,440.5,472.8,440.5z"/>
		<path class="st51" d="M534.4,441.4h0.8c2.1,0,3.8,1.7,3.8,3.8v6.9c0,2.1-1.7,3.8-3.8,3.8h-0.8c-2.1,0-3.8-1.7-3.8-3.8v-6.9
			C530.6,443.1,532.3,441.4,534.4,441.4z"/>
		<path class="st51" d="M599.4,441.4h0.8c2.1,0,3.8,1.7,3.8,3.8v6.9c0,2.1-1.7,3.8-3.8,3.8h-0.8c-2.1,0-3.8-1.7-3.8-3.8v-6.9
			C595.6,443.1,597.3,441.4,599.4,441.4z"/>
		<path class="st51" d="M663.6,441.4h0.8c2.1,0,3.8,1.7,3.8,3.8v6.9c0,2.1-1.7,3.8-3.8,3.8h-0.8c-2.1,0-3.8-1.7-3.8-3.8v-6.9
			C659.8,443.1,661.5,441.4,663.6,441.4z"/>
		<path class="st51" d="M568,441.4h0.8c2.1,0,3.8,1.7,3.8,3.8v6.9c0,2.1-1.7,3.8-3.8,3.8H568c-2.1,0-3.8-1.7-3.8-3.8v-6.9
			C564.3,443.1,566,441.4,568,441.4z"/>
		<path class="st51" d="M502.9,441.4h0.8c2.1,0,3.8,1.7,3.8,3.8v6.9c0,2.1-1.7,3.8-3.8,3.8h-0.8c-2.1,0-3.8-1.7-3.8-3.8v-6.9
			C499.1,443.1,500.8,441.4,502.9,441.4z"/>
		<path class="st51" d="M630.7,441.4h0.8c2.1,0,3.8,1.7,3.8,3.8v6.9c0,2.1-1.7,3.8-3.8,3.8h-0.8c-2.1,0-3.8-1.7-3.8-3.8v-6.9
			C626.9,443.1,628.6,441.4,630.7,441.4z"/>
		<path class="st52" d="M9.2,460.5h847.1c6.1,0,11,4.9,11,11l0,0v14.2l0,0H0l0,0v-16C0,464.6,4.1,460.5,9.2,460.5L9.2,460.5z"/>
	</g>
	<path class="st74" d="M867.3,452.3c0-4.8-3.9-8.8-8.8-8.8H757.9v-37.6c0.3,0.9,0.4,1.8,0.4,2.7v-14.9c0-1-0.1-1.9-0.4-2.8v-39.3
		c0.3,0.9,0.4,1.8,0.4,2.7v-15c0-1-0.1-1.9-0.4-2.8v-40.5c0.8,1.4,1.2,2.9,1.2,4.5v-15c0-1.6-0.4-3.3-1.2-4.7v-13.3
		c0.3,0.9,0.4,1.8,0.4,2.7v-26.3c0-11.5-18.9-17.3-30-9.1l-22.4,13.7c-4.5,2.8-7.3,6.4-7.8,10.3c-0.2,1.2-0.3,2.5-0.3,3.8v26.3
		c0-1.3,0.3-2.6,0.8-3.8v67.1c-0.2,0.6-0.4,1.3-0.5,2c-0.2,1.3-0.3,2.5-0.3,3.8v15c0-1.3,0.3-2.6,0.8-3.8v37.4
		c-0.2,0.6-0.4,1.3-0.5,2c-0.2,1.2-0.3,2.5-0.3,3.8v15c0-1.3,0.3-2.6,0.8-3.8v20.1h-10.8c-3.4-6.4-10.1-10.4-17.3-10.4h-21.8V409
		c-0.7-2.7-0.3-15.6-20.4-21.6V240.7l0,0v-4.8l0,0c0-0.3,0-0.7-0.1-1l0,0c-0.2-2-0.9-4-1.8-5.8l0,0c-1.2-2.2-2.7-4.1-4.6-5.7l0,0
		v-59.8l0.8-0.5l0.2-0.2c0.2-0.1,0.4-0.3,0.6-0.4l0.3-0.2l0.6-0.4l0.2-0.1c0.2-0.2,0.5-0.4,0.7-0.6l0,0c0.2-0.2,0.4-0.4,0.6-0.7
		l0.1-0.2c0.2-0.2,0.3-0.4,0.5-0.6l0.1-0.2c0.2-0.2,0.3-0.5,0.5-0.7v0c0.9-1.5,1.4-3.3,1.4-5.1V80.7l0,0v-4.8l0,0v-0.9l0,0
		c-0.5-9.8-10.1-40.2-22.4-44.9l-3.2-30h-0.7L599,30.2c-2.5,1.2-4.6,2.9-6.3,5l0,0c-0.3,0.3-0.6,0.7-0.9,1.1l-0.4,0.5
		c-0.2,0.3-0.4,0.5-0.6,0.8l-0.4,0.6l-0.6,0.9l-0.3,0.5c-0.3,0.4-0.6,0.9-0.8,1.3c-0.1,0.2-0.3,0.4-0.4,0.7l-0.5,0.9l-0.4,0.7
		c-0.2,0.3-0.4,0.7-0.6,1l-0.4,0.8l-0.6,1.2c-0.1,0.2-0.2,0.5-0.3,0.7s-0.3,0.6-0.4,0.9s-0.2,0.5-0.3,0.7c-0.2,0.4-0.4,0.8-0.6,1.2
		s-0.3,0.6-0.4,0.9l-0.5,1.1l-0.3,0.8c-0.1,0.3-0.3,0.7-0.4,1s-0.2,0.5-0.3,0.7c-0.2,0.5-0.4,1-0.6,1.6l-0.2,0.7
		c-0.1,0.3-0.3,0.7-0.4,1s-0.2,0.5-0.3,0.8s-0.2,0.7-0.3,1s-0.2,0.5-0.2,0.7c-0.2,0.5-0.3,1-0.5,1.5c-0.1,0.2-0.1,0.5-0.2,0.7
		s-0.2,0.6-0.3,1l-0.2,0.7c-0.1,0.3-0.2,0.6-0.3,0.9s-0.1,0.4-0.2,0.6c-0.1,0.5-0.2,0.9-0.3,1.4l-0.2,0.6c-0.1,0.3-0.1,0.6-0.2,0.8
		s-0.1,0.4-0.1,0.6s-0.1,0.6-0.2,0.9l-0.1,0.6c-0.1,0.4-0.1,0.7-0.2,1c0,0.2,0,0.3-0.1,0.5s-0.1,0.5-0.1,0.7s0,0.3-0.1,0.5
		s-0.1,0.5-0.1,0.7s0,0.4,0,0.5s0,0.4-0.1,0.5s0,0.2,0,0.3l0,0v77.8h-6.3V110c0-13.5-9.9-17.7-59.8-18.3c-3-0.3-28.8-2.4-42.6,8.5
		l-30,23.3c-4.4,3.4-6.9,8.1-6.9,12.9v296.7h-18.2c-7.5,0-14.4,4-18.2,10.4H10.5C4.7,443.5,0,448.2,0,454v14.7h0.1
		c0,0.3-0.1,0.7-0.1,1v16h867.3v-14.2c0-1-0.1-1.9-0.4-2.8h0.4V452.3z M728.3,438.8l-7.6,4.7h-1.5l27.5-41v33.3
		C740.7,434.2,733.6,434.9,728.3,438.8z M728.3,384.5l-10,6.1l28.3-42.2v33.1C740.7,379.9,733.6,380.6,728.3,384.5z M709.8,389.3
		v-30.1l20.3-13.5c3.3-2,7.1-3,11-2.9L709.8,389.3z M728.3,330.2l-9.4,5.8l27.8-41.4v32.6C740.7,325.6,733.6,326.3,728.3,330.2z
		 M709.8,335.4v-29.5l21-14c3.1-1.9,6.6-2.9,10.2-2.9L709.8,335.4z M730.1,400c3.3-2,7.1-3,10.9-2.9l-31.2,46.3v-29.9L730.1,400z
		 M576.4,166.6l-5.8,3.2v-3.2H576.4z M583.5,174.7v12.7h-12.9v-5.7L583.5,174.7z M576.9,264.4h-6.3v-5.7l6.3-3.4V264.4z
		 M570.6,246.7v-3.2h5.8L570.6,246.7z M576.9,356.1v31.3c-2.2,0.6-4.3,1.3-6.3,2.3V274.2h6.3V356.1z M578.3,230.2h-7.7v-32.9h12.9
		v26.1l0,0c-0.5,0.4-0.9,0.8-1.3,1.3l-0.4,0.5c-0.3,0.3-0.5,0.6-0.8,0.9l-0.5,0.6c-0.2,0.3-0.4,0.5-0.6,0.8s-0.3,0.5-0.4,0.7
		s-0.3,0.5-0.5,0.8s-0.3,0.5-0.4,0.8C578.5,229.8,578.4,230,578.3,230.2z M730.1,261.6c4.2-2.8,10.9-3.6,16.7-2.4v14
		c-5.8-1.3-12.5-0.5-17.6,3.2l-19.3,11.8v-13L730.1,261.6z"/>
</g>
</svg>
