<svg width="80" height="81" viewBox="0 0 80 81" fill="none" xmlns="http://www.w3.org/2000/svg">
<path d="M63.8846 0H16.1154C7.21509 0 0 7.21509 0 16.1154V63.8846C0 72.7849 7.21509 80 16.1154 80H63.8846C72.7849 80 80 72.7849 80 63.8846V16.1154C80 7.21509 72.7849 0 63.8846 0Z" fill="#001C44"/>
<path d="M46.1895 41.8613C49.8394 40.4839 52.8903 37.8696 54.8109 34.474C56.7314 31.0784 57.3999 27.1167 56.6998 23.2789C55.9997 19.4411 53.9754 15.9706 50.9796 13.4718C47.9838 10.9731 44.2063 9.60449 40.3052 9.60449C36.4041 9.60449 32.6266 10.9731 29.6308 13.4718C26.635 15.9706 24.6107 19.4411 23.9106 23.2789C23.2105 27.1167 23.879 31.0784 25.7995 34.474C27.7201 37.8696 30.771 40.4839 34.4209 41.8613C26.0147 43.7046 18.7326 49.379 13.9883 57.2895V63.8868C13.9909 68.1591 15.6899 72.2556 18.7118 75.2757C21.7338 78.2958 25.8313 79.9923 30.1036 79.9923H63.883C66.9244 79.9935 69.9036 79.1304 72.4733 77.5036C71.8965 59.6726 60.7611 45.0103 46.1895 41.8613Z" fill="#1775BC"/>
<path d="M36.8653 41.8613C40.5152 40.4839 43.5661 37.8696 45.4866 34.474C47.4072 31.0784 48.0757 27.1167 47.3756 23.2789C46.6755 19.4411 44.6512 15.9706 41.6554 13.4718C38.6596 10.9731 34.8821 9.60449 30.981 9.60449C27.0799 9.60449 23.3024 10.9731 20.3066 13.4718C17.3108 15.9706 15.2865 19.4411 14.5864 23.2789C13.8863 27.1167 14.5548 31.0784 16.4753 34.474C18.3959 37.8696 21.4468 40.4839 25.0966 41.8613C16.6904 43.7046 9.40835 49.379 4.66406 57.2895V63.8868C4.66667 68.1591 6.36568 72.2556 9.38761 75.2757C12.4095 78.2958 16.5071 79.9923 20.7794 79.9923H63.1761C63.1761 79.6585 63.1884 79.3247 63.1884 78.9885C63.1884 60.4924 51.8418 45.0962 36.8653 41.8613Z" fill="#2499D3"/>
<path d="M28.2743 41.8613C31.9241 40.4839 34.975 37.8696 36.8956 34.474C38.8162 31.0784 39.4846 27.1167 38.7845 23.2789C38.0844 19.4411 36.0602 15.9706 33.0643 13.4718C30.0685 10.9731 26.291 9.60449 22.3899 9.60449C18.4888 9.60449 14.7113 10.9731 11.7155 13.4718C8.71972 15.9706 6.69545 19.4411 5.99536 23.2789C5.29527 27.1167 5.96372 31.0784 7.88428 34.474C9.80483 37.8696 12.8558 40.4839 16.5056 41.8613C10.1513 43.2554 4.45222 46.829 0 51.8972V63.8868C0.00260272 68.1591 1.70161 72.2556 4.72355 75.2757C7.74548 78.2958 11.843 79.9923 16.1154 79.9923H54.5851C54.5851 79.6585 54.5851 79.3247 54.5851 78.9885C54.5973 60.4924 43.2508 45.0962 28.2743 41.8613Z" fill="#2FD6F2"/>
<path d="M35.7276 60.4563C35.7276 60.444 35.7276 60.4342 35.7276 60.4219V60.4047C35.683 60.0162 35.4971 59.6576 35.2051 59.3973C34.9132 59.1371 34.5357 58.9933 34.1446 58.9935C34.0833 58.9898 34.0218 58.9898 33.9605 58.9935C33.769 59.0168 33.5829 59.0733 33.4107 59.1604C32.865 56.9493 31.6832 54.9466 30.0114 53.4C30.2266 53.2571 30.4037 53.0642 30.5277 52.8377C30.6517 52.6112 30.7187 52.3579 30.7231 52.0997C30.7274 51.8415 30.6689 51.5862 30.5527 51.3556C30.4364 51.1251 30.2658 50.9262 30.0556 50.7763C29.2743 50.2185 28.437 49.7438 27.5571 49.3601C27.169 49.1914 26.7299 49.1834 26.3361 49.338C25.9422 49.4926 25.6258 49.7971 25.4561 50.1848C25.3792 50.3636 25.3351 50.5548 25.326 50.7493C23.1381 50.1162 20.8129 50.1349 18.6355 50.8033C18.623 50.6109 18.5764 50.4222 18.498 50.2461C18.37 49.9672 18.1645 49.731 17.906 49.5657C17.6475 49.4003 17.347 49.3128 17.0401 49.3135C16.8123 49.3126 16.5871 49.3612 16.3799 49.4558C15.52 49.8468 14.7032 50.3264 13.9427 50.8867L13.9034 50.9137C13.6935 51.0669 13.5243 51.2691 13.4104 51.5027C13.2966 51.7363 13.2417 51.9941 13.2504 52.2539C13.2591 52.5136 13.3312 52.7672 13.4604 52.9926C13.5897 53.2181 13.7721 53.4085 13.9918 53.5472C12.3449 55.1252 11.1979 57.1521 10.6931 59.3763C10.5186 59.2894 10.3299 59.2345 10.136 59.2144C10.0836 59.2144 10.0321 59.2144 9.98136 59.2144C9.58456 59.2133 9.20174 59.3609 8.90829 59.628C8.61484 59.8951 8.43203 60.2624 8.39585 60.6575C8.35412 61.0919 8.33203 61.5337 8.33203 61.9731C8.33284 62.4822 8.3607 62.991 8.41548 63.4972C8.41548 63.4972 8.41548 63.5169 8.41548 63.5267C8.46003 63.9155 8.64593 64.2743 8.93781 64.535C9.2297 64.7956 9.60721 64.9399 9.99854 64.9404C10.0574 64.9404 10.1188 64.9404 10.1802 64.9404C10.3712 64.9185 10.5567 64.862 10.7275 64.7735C11.2705 66.9855 12.4487 68.9904 14.117 70.5412C13.9594 70.6394 13.8205 70.7649 13.7071 70.9119C13.5851 71.0822 13.4978 71.2749 13.4503 71.479C13.4027 71.683 13.3959 71.8944 13.4301 72.1012C13.4643 72.3079 13.5388 72.5058 13.6495 72.6837C13.7602 72.8616 13.9049 73.016 14.0752 73.138C14.8553 73.697 15.6919 74.1725 16.5713 74.5566C16.7632 74.6412 16.9699 74.6871 17.1795 74.6915C17.3891 74.696 17.5976 74.6589 17.7928 74.5825C17.9881 74.5061 18.1663 74.3918 18.3172 74.2462C18.4682 74.1007 18.5888 73.9267 18.6723 73.7344C18.7501 73.5577 18.7934 73.3677 18.7999 73.1748C20.9877 73.8113 23.3137 73.7959 25.4929 73.1306C25.5052 73.3238 25.5517 73.5133 25.6304 73.6902C25.7579 73.9691 25.9628 74.2056 26.2209 74.3714C26.4789 74.5372 26.7791 74.6253 27.0858 74.6253C27.3128 74.6262 27.5373 74.5776 27.7436 74.483C28.6178 74.0869 29.4479 73.5999 30.2201 73.03C30.5598 72.7783 30.7861 72.4024 30.8496 71.9843C30.913 71.5663 30.8085 71.1401 30.5588 70.799C30.442 70.6436 30.2982 70.5105 30.1341 70.4063C31.7839 68.8342 32.936 66.8125 33.4475 64.5919C33.6215 64.6802 33.8105 64.7352 34.0047 64.7539C34.0562 64.7539 34.1102 64.7539 34.1618 64.7539C34.558 64.7544 34.9402 64.607 35.2335 64.3405C35.5267 64.074 35.71 63.7076 35.7473 63.3131C35.789 62.8763 35.8111 62.4247 35.8111 61.9731C35.8113 61.4663 35.7834 60.9599 35.7276 60.4563ZM22.0716 71.4371C20.1992 71.4371 18.3688 70.8818 16.812 69.8415C15.2552 68.8012 14.0419 67.3226 13.3254 65.5927C12.609 63.8628 12.4217 61.9593 12.7872 60.1229C13.1526 58.2865 14.0545 56.5997 15.3786 55.2759C16.7028 53.9521 18.3898 53.0507 20.2262 52.6857C22.0627 52.3207 23.9662 52.5086 25.6959 53.2254C27.4257 53.9423 28.904 55.156 29.9438 56.7131C30.9837 58.2702 31.5385 60.1007 31.538 61.9731C31.5348 64.4825 30.5363 66.8882 28.7616 68.6624C26.987 70.4366 24.581 71.4345 22.0716 71.4371V71.4371Z" fill="white"/>
<path d="M63.8848 0H16.1212C7.22204 0 0.0078125 7.21423 0.0078125 16.1134V63.877C0.0078125 72.7762 7.22204 79.9904 16.1212 79.9904H63.8848C72.784 79.9904 79.9982 72.7762 79.9982 63.877V16.1134C79.9982 7.21423 72.784 0 63.8848 0Z" fill="#001C44"/>
<path d="M46.1955 41.8561C49.8438 40.4776 52.893 37.863 54.8121 34.4678C56.7311 31.0725 57.3984 27.1116 56.6978 23.275C55.9971 19.4384 53.9729 15.9691 50.9776 13.4713C47.9823 10.9735 44.2058 9.60547 40.3057 9.60547C36.4057 9.60547 32.6291 10.9735 29.6339 13.4713C26.6386 15.9691 24.6144 19.4384 23.9137 23.275C23.2131 27.1116 23.8804 31.0725 25.7994 34.4678C27.7184 37.863 30.7677 40.4776 34.416 41.8561C25.9985 43.6869 18.732 49.3631 13.9883 57.2701V63.8667C13.9854 65.9852 14.4003 68.0835 15.2092 70.0415C16.0182 71.9995 17.2053 73.7788 18.7026 75.2775C20.1999 76.7762 21.9781 77.9649 23.9354 78.7756C25.8926 79.5864 27.9906 80.0032 30.1091 80.0022H63.8869C66.9324 80.0056 69.916 79.1416 72.4884 77.5113C71.8994 59.6629 60.7653 45.0022 46.1955 41.8561Z" fill="#1775BC"/>
<path d="M36.8713 41.8561C40.5196 40.4776 43.5688 37.863 45.4879 34.4678C47.4069 31.0725 48.0742 27.1116 47.3736 23.275C46.6729 19.4384 44.6487 15.9691 41.6534 13.4713C38.6581 10.9735 34.8816 9.60547 30.9815 9.60547C27.0814 9.60547 23.3049 10.9735 20.3097 13.4713C17.3144 15.9691 15.2902 19.4384 14.5895 23.275C13.8888 27.1116 14.5561 31.0725 16.4752 34.4678C18.3942 37.863 21.4434 40.4776 25.0918 41.8561C16.6743 43.6869 9.4078 49.3631 4.66408 57.2701V63.8667C4.66117 65.9852 5.07606 68.0835 5.885 70.0415C6.69393 71.9995 7.88104 73.7788 9.37838 75.2775C10.8757 76.7762 12.6539 77.9649 14.6112 78.7756C16.5684 79.5864 18.6663 80.0032 20.7849 80.0022H63.1863C63.1863 79.6684 63.1863 79.3347 63.1863 78.9985C63.1863 60.4825 51.8436 45.0906 36.8713 41.8561Z" fill="#2499D3"/>
<path d="M28.2807 41.8561C31.929 40.4776 34.9782 37.863 36.8973 34.4678C38.8163 31.0725 39.4836 27.1116 38.783 23.275C38.0823 19.4384 36.0581 15.9691 33.0628 13.4713C30.0676 10.9735 26.291 9.60547 22.391 9.60547C18.4909 9.60547 14.7144 10.9735 11.7191 13.4713C8.72382 15.9691 6.69959 19.4384 5.99892 23.275C5.29826 27.1116 5.96556 31.0725 7.88461 34.4678C9.80366 37.863 12.8529 40.4776 16.5012 41.8561C10.15 43.2378 4.4517 46.8109 1.51407e-05 51.881V63.8667C-0.00288894 65.9852 0.411998 68.0835 1.22093 70.0415C2.02987 71.9995 3.21697 73.7788 4.71431 75.2775C6.21165 76.7762 7.98983 77.9649 9.94709 78.7756C11.9044 79.5864 14.0023 80.0032 16.1208 80.0022H54.5957C54.5957 79.6684 54.5957 79.3347 54.5957 78.9985C54.5957 60.4825 43.253 45.0906 28.2807 41.8561Z" fill="#2FD6F2"/>
<path d="M35.7312 60.4487C35.7312 60.4487 35.7312 60.4266 35.7312 60.4143V60.3972C35.6866 60.0086 35.5006 59.6501 35.2087 59.3899C34.9168 59.1297 34.5394 58.9859 34.1483 58.9861C34.087 58.9824 34.0255 58.9824 33.9642 58.9861C33.7724 59.0079 33.5861 59.0645 33.4145 59.1529C32.8694 56.9419 31.6876 54.9393 30.0156 53.3932C30.1769 53.286 30.3174 53.1505 30.4304 52.9932C30.6757 52.6491 30.7745 52.2217 30.7051 51.8049C30.6356 51.388 30.4035 51.0158 30.0598 50.7698C29.2786 50.2121 28.4414 49.7376 27.5616 49.3538C27.3247 49.25 27.0662 49.2053 26.8083 49.2238C26.5503 49.2422 26.3007 49.3232 26.0811 49.4597C25.8615 49.5962 25.6784 49.7842 25.5477 50.0073C25.4169 50.2304 25.3425 50.482 25.3308 50.7404C23.1431 50.1066 20.8178 50.1262 18.641 50.7968C18.6112 50.3956 18.4302 50.0207 18.1345 49.7478C17.8389 49.4749 17.4507 49.3245 17.0483 49.3268C16.8206 49.326 16.5954 49.3746 16.3882 49.4692C15.5284 49.8602 14.7117 50.3397 13.9513 50.8999L13.912 50.9269C13.7441 51.0516 13.6024 51.2082 13.495 51.3877C13.3876 51.5671 13.3166 51.766 13.2861 51.9729C13.2556 52.1799 13.2661 52.3908 13.3171 52.5936C13.368 52.7965 13.4585 52.9873 13.5832 53.1552C13.6987 53.3117 13.8427 53.4449 14.0077 53.5478C12.3613 55.1236 11.2129 57.1474 10.7046 59.3689C10.5305 59.2809 10.3416 59.226 10.1475 59.2069C10.0968 59.2069 10.0452 59.2069 9.99289 59.2069C9.59613 59.2059 9.21336 59.3534 8.91994 59.6205C8.62653 59.8876 8.44374 60.2548 8.40756 60.6499C8.36584 61.0843 8.34375 61.526 8.34375 61.9653C8.34456 62.4744 8.37241 62.9831 8.42719 63.4893C8.42719 63.4893 8.42719 63.5089 8.42719 63.5187C8.47173 63.9075 8.65761 64.2663 8.94946 64.5269C9.24131 64.7875 9.61878 64.9318 10.0101 64.9323C10.069 64.9323 10.1303 64.9323 10.1917 64.9323C10.3827 64.9104 10.5682 64.8539 10.7389 64.7654C11.2859 66.9685 12.4637 68.9642 14.128 70.5079C13.9662 70.6145 13.8256 70.7501 13.7133 70.9079C13.5913 71.0783 13.504 71.2709 13.4565 71.475C13.409 71.679 13.4021 71.8904 13.4363 72.0971C13.4704 72.3038 13.545 72.5017 13.6557 72.6796C13.7664 72.8575 13.911 73.0118 14.0814 73.1338C14.8613 73.6927 15.6978 74.1682 16.5772 74.5522C16.8135 74.6574 17.0721 74.7031 17.3302 74.6853C17.5883 74.6676 17.8381 74.5869 18.0579 74.4504C18.2777 74.3139 18.4607 74.1257 18.591 73.9022C18.7213 73.6786 18.7949 73.4266 18.8055 73.1681C20.9925 73.8071 23.3187 73.7926 25.4977 73.1264C25.5087 73.3198 25.5553 73.5095 25.6351 73.6859C25.7626 73.9649 25.9675 74.2013 26.2255 74.367C26.4835 74.5328 26.7837 74.6209 27.0904 74.6209C27.3174 74.6218 27.5418 74.5732 27.7481 74.4786C28.6222 74.0826 29.4521 73.5957 30.2242 73.0258C30.5639 72.7741 30.7902 72.3983 30.8537 71.9803C30.9172 71.5623 30.8126 71.1362 30.5629 70.7951C30.4462 70.6397 30.3023 70.5067 30.1383 70.4024C31.7871 68.8289 32.9388 66.8069 33.4513 64.5862C33.6251 64.6754 33.8141 64.7311 34.0084 64.7507C34.06 64.7507 34.1139 64.7507 34.1655 64.7507C34.5617 64.7512 34.9438 64.6038 35.2371 64.3374C35.5303 64.0709 35.7135 63.7046 35.7508 63.3101C35.7925 62.8733 35.8146 62.4218 35.8146 61.9702C35.815 61.4619 35.7871 60.9539 35.7312 60.4487V60.4487ZM22.0767 71.4282C20.2047 71.4282 18.3746 70.8731 16.8181 69.833C15.2615 68.7929 14.0483 67.3146 13.3319 65.5851C12.6155 63.8555 12.428 61.9523 12.7933 60.1163C13.1585 58.2802 14.06 56.5936 15.3837 55.2698C16.7075 53.9461 18.394 53.0446 20.2301 52.6794C22.0662 52.3142 23.9694 52.5016 25.699 53.218C27.4285 53.9344 28.9068 55.1476 29.9469 56.7042C30.9869 58.2608 31.5421 60.0908 31.5421 61.9629C31.5395 64.4724 30.5414 66.8785 28.7669 68.653C26.9923 70.4275 24.5863 71.4256 22.0767 71.4282V71.4282Z" fill="white"/>
</svg>
