<svg width="80" height="80" viewBox="0 0 80 80" fill="none" xmlns="http://www.w3.org/2000/svg">
<path d="M63.8847 0H16.1154C7.2151 0 0 7.21508 0 16.1153V63.8846C0 72.7849 7.2151 80 16.1154 80H63.8847C72.7849 80 80 72.7849 80 63.8846V16.1153C80 7.21508 72.7849 0 63.8847 0Z" fill="#53329B"/>
<path d="M67.8518 46.309V33.6887C67.8518 33.6298 67.8518 33.5709 67.8518 33.512C67.8495 33.2144 67.7895 32.9202 67.6751 32.6456C67.7965 32.374 67.864 32.0814 67.8739 31.7841C67.8739 31.7227 67.8739 31.6663 67.8739 31.6074V18.9797C67.8739 18.9208 67.8739 18.8643 67.8739 18.8054C67.8739 14.5397 55.4008 11.084 40.0119 11.084C24.6231 11.084 12.1524 14.5397 12.1524 18.8054V31.9534C12.1721 32.1906 12.2284 32.4232 12.3193 32.6431C12.2051 32.9187 12.1451 33.2137 12.1426 33.512V33.512V46.6624C12.1626 46.8995 12.2189 47.1321 12.3095 47.3521C12.1948 47.6275 12.1348 47.9226 12.1328 48.221V48.221V61.369C12.4691 65.5537 24.8096 68.9162 39.9825 68.9162C55.3713 68.9162 67.8444 65.458 67.8444 61.1947C67.8444 61.1358 67.8444 61.0769 67.8444 61.018V48.3952C67.8444 48.3388 67.8444 48.2799 67.8444 48.221C67.8424 47.9234 67.7824 47.6291 67.6677 47.3546C67.7824 47.0792 67.8424 46.7841 67.8444 46.4857C67.8739 46.4268 67.8567 46.3679 67.8518 46.309Z" fill="#1B8287"/>
<path d="M66.1684 59.7461V47.7197H13.8242V60.075C14.1408 64.002 25.7352 67.1656 39.9902 67.1656C54.4489 67.1656 66.1684 63.9161 66.1684 59.9105C66.1783 59.8566 66.1734 59.8026 66.1684 59.7461Z" fill="#2FD6F2"/>
<path d="M40 54.978C54.4565 54.978 66.1758 51.7298 66.1758 47.7229C66.1758 43.716 54.4565 40.4678 40 40.4678C25.5435 40.4678 13.8242 43.716 13.8242 47.7229C13.8242 51.7298 25.5435 54.978 40 54.978Z" fill="#23A2AF"/>
<path d="M66.1684 45.3711V33.3447H13.8242V45.7C14.1408 49.627 25.7352 52.7882 39.9902 52.7882C54.4489 52.7882 66.1684 49.5411 66.1684 45.5331C66.1783 45.4816 66.1734 45.4251 66.1684 45.3711Z" fill="#2FD6F2"/>
<path d="M40 40.603C54.4565 40.603 66.1758 37.3548 66.1758 33.3479C66.1758 29.341 54.4565 26.0928 40 26.0928C25.5435 26.0928 13.8242 29.341 13.8242 33.3479C13.8242 37.3548 25.5435 40.603 40 40.603Z" fill="#23A2AF"/>
<path d="M66.1684 31.1292V19.3262H13.8242V31.4556C14.1408 35.3139 25.7352 38.4162 39.9902 38.4162C54.4489 38.4162 66.1684 35.2256 66.1684 31.2986C66.1783 31.2372 66.1734 31.1832 66.1684 31.1292Z" fill="#2FD6F2"/>
<path d="M40 27.062C54.4565 27.062 66.1758 23.8137 66.1758 19.8069C66.1758 15.8 54.4565 12.5518 40 12.5518C25.5435 12.5518 13.8242 15.8 13.8242 19.8069C13.8242 23.8137 25.5435 27.062 40 27.062Z" fill="#86F1FC"/>
<path d="M62.7939 31.7495C62.7939 31.088 62.2577 30.5518 61.5962 30.5518C60.9347 30.5518 60.3984 31.088 60.3984 31.7495V31.9041C60.3984 32.5656 60.9347 33.1018 61.5962 33.1018C62.2577 33.1018 62.7939 32.5656 62.7939 31.9041V31.7495Z" fill="#23A2AF"/>
<path d="M62.7939 46.0024C62.7939 45.3409 62.2577 44.8047 61.5962 44.8047C60.9347 44.8047 60.3984 45.3409 60.3984 46.0024V46.157C60.3984 46.8185 60.9347 47.3548 61.5962 47.3548C62.2577 47.3548 62.7939 46.8185 62.7939 46.157V46.0024Z" fill="#23A2AF"/>
<path d="M62.7939 60.4975C62.7939 59.836 62.2577 59.2998 61.5962 59.2998C60.9347 59.2998 60.3984 59.836 60.3984 60.4975V60.6522C60.3984 61.3136 60.9347 61.8499 61.5962 61.8499C62.2577 61.8499 62.7939 61.3136 62.7939 60.6522V60.4975Z" fill="#23A2AF"/>
<path d="M45.4342 41.2061H33.4323C31.1117 41.2061 29.2305 43.0873 29.2305 45.4079V55.0953C29.2305 57.4159 31.1117 59.2972 33.4323 59.2972H45.4342C47.7548 59.2972 49.636 57.4159 49.636 55.0953V45.4079C49.636 43.0873 47.7548 41.2061 45.4342 41.2061Z" fill="#FFFBF5"/>
<path d="M34.3039 47.8604V37.3385C34.3339 35.9345 34.9128 34.5981 35.9164 33.6157C36.92 32.6333 38.2685 32.0832 39.6728 32.0832C41.0772 32.0832 42.4257 32.6333 43.4293 33.6157C44.4329 34.5981 45.0117 35.9345 45.0417 37.3385V47.8604H47.2507V37.3336C47.2688 36.327 47.0862 35.3269 46.7135 34.3916C46.3408 33.4564 45.7855 32.6047 45.08 31.8865C44.3746 31.1682 43.5331 30.5977 42.6047 30.2082C41.6763 29.8187 40.6796 29.6182 39.6728 29.6182C38.6661 29.6182 37.6694 29.8187 36.741 30.2082C35.8126 30.5977 34.9711 31.1682 34.2656 31.8865C33.5602 32.6047 33.0049 33.4564 32.6322 34.3916C32.2595 35.3269 32.0769 36.327 32.095 37.3336V47.8604H34.3039Z" fill="#FFFBF5"/>
</svg>
