<svg width="82" height="82" viewBox="0 0 82 82" fill="none" xmlns="http://www.w3.org/2000/svg">
<path d="M63.6699 2.14941H16.0845C7.21855 2.14941 0.03125 9.33672 0.03125 18.2027V65.7881C0.03125 74.654 7.21855 81.8414 16.0845 81.8414H63.6699C72.5359 81.8414 79.7232 74.654 79.7232 65.7881V18.2027C79.7232 9.33672 72.5359 2.14941 63.6699 2.14941Z" fill="#CEE7EA"/>
<path d="M0 17.8672H60.7439C62.0868 17.8672 63.3747 18.4007 64.3242 19.3502C65.2738 20.2998 65.8073 21.5877 65.8073 22.9306V65.5112C65.8073 66.1761 65.6763 66.8346 65.4218 67.4489C65.1674 68.0632 64.7944 68.6214 64.3242 69.0916C63.8541 69.5618 63.2959 69.9347 62.6816 70.1892C62.0672 70.4436 61.4088 70.5746 60.7439 70.5746V70.5746C59.4007 70.5746 58.1126 70.0412 57.1626 69.0917C56.2127 68.1422 55.6787 66.8543 55.678 65.5112V27.9965H0V17.8672Z" fill="#FCC21D"/>
<path d="M79.6577 38.9863H41.165C40.4999 38.9863 39.8412 39.1174 39.2267 39.372C38.6123 39.6266 38.054 39.9998 37.5838 40.4702C37.1135 40.9407 36.7406 41.4991 36.4863 42.1138C36.232 42.7284 36.1012 43.387 36.1016 44.0522V81.9997H46.2284V49.1132H79.6577V38.9863Z" fill="#BF3B21"/>
<path d="M23.3164 81.8584V65.4946C23.3177 64.1519 23.852 62.8646 24.8019 61.9156C25.7518 60.9666 27.0396 60.4336 28.3823 60.4336H60.7456C62.0887 60.4342 63.3766 60.9683 64.3261 61.9182C65.2756 62.8682 65.809 64.1563 65.809 65.4995V65.4995C65.8077 66.8415 65.2736 68.1282 64.3242 69.0767C63.3748 70.0252 62.0876 70.558 60.7456 70.558H33.4457V81.8584H23.3164Z" fill="#FCC21D"/>
<path d="M70.1158 3.49902V5.28136H6.54805C3.23323 7.72729 0.985408 11.3538 0.269531 15.4106H75.1719C75.91 15.411 76.6392 15.2496 77.3083 14.9379C77.9774 14.6261 78.57 14.1716 79.0446 13.6063C78.3761 11.3759 77.2316 9.31719 75.6901 7.57219C74.1485 5.82719 72.2467 4.43749 70.1158 3.49902V3.49902Z" fill="#1775BC"/>
<path d="M30.4269 2V49.1868C30.4269 50.5299 29.8936 51.8181 28.9441 52.7681C27.9946 53.718 26.7067 54.252 25.3635 54.2527H0V44.1283H20.2928V2H30.4269Z" fill="#00CC74"/>
<path opacity="0.54" d="M65.7973 49.1133H55.668V54.5581H65.7973V49.1133Z" fill="#3E5E4F"/>
<path opacity="0.54" d="M35.875 15.4105V5.28125H30.4302V15.4105H35.875Z" fill="#3E5E4F"/>
<path opacity="0.54" d="M35.875 27.9965V17.8672H30.4302V27.9965H35.875Z" fill="#3E5E4F"/>
<path opacity="0.54" d="M46.2308 70.5752H36.1016V75.9687H46.2308V70.5752Z" fill="#3E5E4F"/>
<path d="M47.4352 3.4668H43.1738C42.0638 3.4668 41.1641 4.36658 41.1641 5.47652V15.1364C41.1641 16.2463 42.0638 17.1461 43.1738 17.1461H47.4352C48.5452 17.1461 49.445 16.2463 49.445 15.1364V5.47652C49.445 4.36658 48.5452 3.4668 47.4352 3.4668Z" fill="#1775BC"/>
<path d="M32.2227 38.6247V34.3632C32.2227 33.2533 31.3229 32.3535 30.2129 32.3535H20.5531C19.4432 32.3535 18.5434 33.2533 18.5434 34.3632V38.6247C18.5434 39.7346 19.4432 40.6344 20.5531 40.6344H30.2129C31.3229 40.6344 32.2227 39.7346 32.2227 38.6247Z" fill="#00CC74"/>
<path d="M67.5586 34.8864V30.625C67.5586 29.515 66.6588 28.6152 65.5489 28.6152H55.889C54.7791 28.6152 53.8793 29.515 53.8793 30.625V34.8864C53.8793 35.9964 54.7791 36.8962 55.889 36.8962H65.5489C66.6588 36.8962 67.5586 35.9964 67.5586 34.8864Z" fill="#FCC21D"/>
<path d="M64.8845 0H17.1153C8.21508 0 1 7.21507 1 16.1153V63.8845C1 72.7847 8.21508 79.9998 17.1153 79.9998H64.8845C73.7847 79.9998 80.9998 72.7847 80.9998 63.8845V16.1153C80.9998 7.21507 73.7847 0 64.8845 0Z" fill="#BBFAFF"/>
<path d="M70.1638 29.4629V13.4605C70.1632 11.8121 69.5079 10.2315 68.342 9.06611C67.1762 7.90075 65.5953 7.24609 63.9469 7.24609H3.66298C1.92285 9.87497 0.996568 12.9586 1.00001 16.1112V19.6774H57.73V29.458C57.1236 29.5217 56.5622 29.8078 56.1543 30.2611C55.7464 30.7143 55.5208 31.3026 55.5211 31.9124V37.1426C55.5208 37.7524 55.7464 38.3407 56.1543 38.7939C56.5622 39.2472 57.1236 39.5333 57.73 39.597V65.7285C57.7307 67.3769 58.386 68.9576 59.5518 70.1229C60.7176 71.2883 62.2985 71.943 63.9469 71.943V71.943C65.5953 71.943 67.1762 71.2883 68.342 70.1229C69.5079 68.9576 70.1632 67.3769 70.1638 65.7285V39.5872C70.7616 39.5123 71.3114 39.2215 71.7097 38.7694C72.1079 38.3173 72.3272 37.7353 72.3261 37.1328V31.9099C72.3254 31.3087 72.1053 30.7285 71.7072 30.2779C71.3091 29.8274 70.7604 29.5376 70.1638 29.4629V29.4629Z" fill="#FCC21D"/>
<path d="M80.999 40.9707H39.9254C38.277 40.9714 36.6963 41.6266 35.5309 42.7925C34.3656 43.9583 33.7109 45.5392 33.7109 47.1876V79.9999H46.1423V53.402H80.9941L80.999 40.9707Z" fill="#BF3B21"/>
<path d="M63.9479 59.4893H24.234C23.4177 59.4893 22.6094 59.6501 21.8552 59.9625C21.1011 60.275 20.4159 60.733 19.8388 61.3103C19.2618 61.8876 18.804 62.573 18.4919 63.3272C18.1797 64.0815 18.0192 64.8898 18.0195 65.7061V80.0003H30.4509V71.923H63.9479C65.5967 71.923 67.178 71.268 68.3439 70.1021C69.5098 68.9363 70.1648 67.355 70.1648 65.7061V65.7061C70.1648 64.0573 69.5098 62.476 68.3439 61.3101C67.178 60.1442 65.5967 59.4893 63.9479 59.4893V59.4893Z" fill="#FCC21D"/>
<path d="M47.6234 13.5774H42.3956C41.7833 13.5781 41.1931 13.8062 40.7396 14.2176C40.286 14.6289 40.0015 15.1941 39.9413 15.8035H1.00781C1.00781 15.909 1.00781 16.0096 1.00781 16.1152V28.2373H39.9634C40.0418 28.831 40.3346 29.3756 40.7867 29.7684C41.2387 30.1613 41.8188 30.3752 42.4177 30.3701H47.6455C48.2444 30.3752 48.8245 30.1613 49.2765 29.7684C49.7286 29.3756 50.0214 28.831 50.0999 28.2373H81.0248V16.1103C81.0248 16.0047 81.0248 15.9041 81.0248 15.7986H50.0999C50.0414 15.185 49.7542 14.6159 49.2954 14.2044C48.8365 13.7929 48.2397 13.569 47.6234 13.5774V13.5774Z" fill="#1775BC"/>
<path d="M17.1153 0C16.1773 0.000573982 15.2411 0.0826951 14.3173 0.245436V32.8491C13.7198 32.924 13.1703 33.215 12.7724 33.6671C12.3745 34.1192 12.1558 34.7012 12.1575 35.3035V40.5313C12.1531 41.1342 12.3709 41.7177 12.7693 42.1704C13.1676 42.6231 13.7187 42.9133 14.3173 42.9856V47.2807H1V59.7121H20.5342C22.1826 59.7121 23.7635 59.0574 24.9294 57.8921C26.0952 56.7267 26.7505 55.146 26.7511 53.4976V42.9783C27.3572 42.9135 27.9179 42.6271 28.3256 42.1741C28.7333 41.7211 28.9593 41.1334 28.9601 40.5239V35.2961C28.9598 34.6865 28.734 34.0985 28.3262 33.6454C27.9184 33.1922 27.3574 32.906 26.7511 32.8418V0H17.1153Z" fill="#00CC74"/>
<path opacity="0.54" d="M70.1618 53.4023H57.7305V59.5137H70.1618V53.4023Z" fill="#3E5E4F"/>
<path opacity="0.54" d="M33.4336 15.8044V7.24609H26.7504V15.8044H33.4336Z" fill="#3E5E4F"/>
<path opacity="0.54" d="M33.4336 28.238V15.8066H26.7504V28.238H33.4336Z" fill="#3E5E4F"/>
<path opacity="0.54" d="M46.1423 71.9424H33.7109V78.5642H46.1423V71.9424Z" fill="#3E5E4F"/>
</svg>
