<svg width="80" height="80" viewBox="0 0 80 80" fill="none" xmlns="http://www.w3.org/2000/svg">
<path d="M63.8846 0H16.1153C7.21508 0 0 7.21509 0 16.1154V63.8846C0 72.7849 7.21508 80 16.1153 80H63.8846C72.7849 80 80 72.7849 80 63.8846V16.1154C80 7.21509 72.7849 0 63.8846 0Z" fill="#72BAD3"/>
<path d="M75.1387 42.2794C75.1382 38.4373 73.6197 34.7509 70.914 32.0231C68.2082 29.2953 64.5343 27.7469 60.6923 27.7152C59.049 22.3468 55.4592 17.786 50.627 14.9275C45.7948 12.0691 40.069 11.1192 34.5727 12.2643C29.0764 13.4093 24.2062 16.5667 20.9175 21.117C17.6287 25.6673 16.1588 31.2821 16.796 36.8602C15.3334 36.5711 13.825 36.6098 12.3791 36.9734C10.9333 37.337 9.58596 38.0165 8.43409 38.963C7.28222 39.9095 6.35441 41.0995 5.71739 42.4475C5.08038 43.7954 4.75 45.2677 4.75 46.7586V54.6371L16.715 56.9565L59.8014 56.851L75.1387 50.3886V42.2794Z" fill="#EDDAC3"/>
<path d="M75.1394 50.1574C75.1402 46.3144 73.6223 42.6268 70.9164 39.8979C68.2105 37.169 64.5359 35.62 60.693 35.5883C59.0497 30.2198 55.4599 25.659 50.6277 22.8006C45.7955 19.9421 40.0697 18.9923 34.5734 20.1373C29.077 21.2824 24.2069 24.4397 20.9182 28.99C17.6294 33.5403 16.1595 39.1552 16.7967 44.7332C15.4151 44.4584 13.9913 44.4759 12.6169 44.7846C11.2425 45.0933 9.948 45.6864 8.81667 46.5256C7.68534 47.3649 6.74228 48.4318 6.04819 49.6575C5.35409 50.8833 4.92435 52.2408 4.78663 53.6427C4.6489 55.0446 4.80623 56.4598 5.24851 57.7972C5.69079 59.1346 6.40821 60.3646 7.35459 61.408C8.30096 62.4513 9.45532 63.285 10.7434 63.8553C12.0314 64.4256 13.4246 64.7198 14.8332 64.7191H60.693C64.5346 64.6874 68.2081 63.1394 70.9138 60.4121C73.6195 57.6848 75.1382 53.9991 75.1394 50.1574Z" fill="#FFFBF5"/>
<path d="M50.7432 55.7461H30.3155C29.2352 55.7461 28.3594 56.6213 28.3594 57.701C28.3594 58.7807 29.2352 59.6559 30.3155 59.6559H50.7432C51.8235 59.6559 52.6993 58.7807 52.6993 57.701C52.6993 56.6213 51.8235 55.7461 50.7432 55.7461Z" fill="#2FD6F2"/>
<path d="M41.7519 26.8308C41.4114 26.4776 40.9546 26.2596 40.4658 26.2172C40.3557 26.2049 40.2446 26.2049 40.1345 26.2172C39.6457 26.2596 39.1888 26.4776 38.8484 26.8308L28.5989 38.1651C28.4301 38.3521 28.3018 38.572 28.2223 38.8111C28.1427 39.0502 28.1135 39.3031 28.1366 39.554C28.1596 39.8049 28.2344 40.0483 28.3562 40.2689C28.4781 40.4894 28.6443 40.6823 28.8444 40.8354C29.207 41.1123 29.6602 41.2432 30.1145 41.2023C30.5689 41.1614 30.9914 40.9517 31.2987 40.6145L34.7864 36.7857C35.0344 36.5107 35.3599 36.3174 35.72 36.2312C36.0801 36.1451 36.4578 36.1701 36.8034 36.303C37.149 36.4359 37.4461 36.6705 37.6557 36.9757C37.8652 37.281 37.9773 37.6426 37.9771 38.0129V49.9509C37.9771 50.5693 38.2227 51.1624 38.66 51.5996C39.0973 52.0369 39.6903 52.2826 40.3087 52.2826C40.9271 52.2826 41.5202 52.0369 41.9574 51.5996C42.3947 51.1624 42.6404 50.5693 42.6404 49.9509V38.0203C42.6414 37.6506 42.7543 37.2899 42.964 36.9855C43.1737 36.681 43.4706 36.4471 43.8156 36.3144C44.1606 36.1817 44.5377 36.1564 44.8974 36.2418C45.2571 36.3273 45.5825 36.5194 45.831 36.7931L49.3187 40.6219C49.626 40.959 50.0485 41.1687 50.5029 41.2096C50.9573 41.2505 51.4105 41.1196 51.7731 40.8428V40.8428C51.9732 40.6897 52.1394 40.4968 52.2612 40.2762C52.383 40.0557 52.4578 39.8123 52.4809 39.5614C52.5039 39.3105 52.4748 39.0575 52.3952 38.8185C52.3156 38.5794 52.1873 38.3594 52.0185 38.1724L41.7519 26.8308Z" fill="#2FD6F2"/>
<path d="M63.8846 0H16.1154C7.21509 0 0 7.21509 0 16.1154V63.8846C0 72.7849 7.21509 80 16.1154 80H63.8846C72.7849 80 80 72.7849 80 63.8846V16.1154C80 7.21509 72.7849 0 63.8846 0Z" fill="#1DE3F2"/>
<path d="M75.1348 42.2789C75.1349 38.437 73.617 34.7506 70.9117 32.0227C68.2063 29.2949 64.5327 27.7464 60.6909 27.7147C59.1061 22.5593 55.7236 18.1438 51.1585 15.2715C46.5935 12.3992 41.1491 11.2607 35.8156 12.0632C30.4821 12.8657 25.6138 15.5558 22.0961 19.6442C18.5784 23.7327 16.6449 28.948 16.6473 34.3415C16.6495 35.187 16.6979 36.0317 16.7921 36.8719C15.3295 36.5829 13.8211 36.6216 12.3752 36.9852C10.9294 37.3488 9.58205 38.0283 8.43018 38.9748C7.27831 39.9213 6.3505 41.1113 5.71349 42.4592C5.07648 43.8072 4.74609 45.2795 4.74609 46.7704V54.6489L16.7111 56.9683L59.7999 56.8627L75.1348 50.4004V42.2789Z" fill="#FFD88A"/>
<path d="M75.1355 50.1569C75.1369 46.3141 73.6196 42.6265 70.9141 39.8975C68.2086 37.1686 64.5342 35.6195 60.6916 35.5877C59.1068 30.4323 55.7243 26.0169 51.1592 23.1446C46.5942 20.2722 41.1498 19.1338 35.8163 19.9362C30.4828 20.7387 25.6145 23.4288 22.0968 27.5173C18.579 31.6058 16.6456 36.821 16.648 42.2145C16.6503 43.06 16.6986 43.9048 16.7928 44.745C15.4112 44.4702 13.9874 44.4877 12.613 44.7964C11.2386 45.1051 9.9441 45.6981 8.81277 46.5374C7.68144 47.3767 6.73838 48.4435 6.04428 49.6693C5.35019 50.895 4.92045 52.2526 4.78272 53.6545C4.64499 55.0563 4.80233 56.4715 5.24461 57.809C5.68689 59.1464 6.4043 60.3763 7.35068 61.4197C8.29705 62.4631 9.45141 63.2968 10.7395 63.867C12.0275 64.4373 13.4207 64.7316 14.8293 64.7309H60.6916C64.535 64.6991 68.2102 63.1493 70.9158 60.4193C73.6214 57.6893 75.1382 54.0005 75.1355 50.1569Z" fill="white"/>
<path d="M50.7393 55.7451H30.3116C29.2313 55.7451 28.3555 56.6204 28.3555 57.7C28.3555 58.7797 29.2313 59.6549 30.3116 59.6549H50.7393C51.8196 59.6549 52.6954 58.7797 52.6954 57.7C52.6954 56.6204 51.8196 55.7451 50.7393 55.7451Z" fill="#1DE3F2"/>
<path d="M41.7533 26.8308C41.4129 26.4776 40.956 26.2596 40.4673 26.2172C40.3572 26.2049 40.246 26.2049 40.1359 26.2172C39.6472 26.2596 39.1903 26.4776 38.8498 26.8308L28.6029 38.1651C28.434 38.3521 28.3058 38.572 28.2262 38.8111C28.1466 39.0502 28.1174 39.3031 28.1405 39.554C28.1635 39.8049 28.2383 40.0483 28.3602 40.2688C28.482 40.4894 28.6482 40.6823 28.8483 40.8354V40.8354C29.2109 41.1123 29.6641 41.2431 30.1184 41.2023C30.5728 41.1614 30.9953 40.9517 31.3027 40.6145L34.7903 36.7857C35.0383 36.5107 35.3638 36.3174 35.7239 36.2312C36.084 36.1451 36.4617 36.1701 36.8073 36.303C37.1529 36.4359 37.4501 36.6705 37.6596 36.9757C37.8691 37.281 37.9812 37.6426 37.981 38.0129V49.9509C37.981 50.5693 38.2266 51.1624 38.6639 51.5996C39.1012 52.0369 39.6942 52.2826 40.3126 52.2826C40.931 52.2826 41.5241 52.0369 41.9614 51.5996C42.3986 51.1624 42.6443 50.5693 42.6443 49.9509V38.0203C42.6454 37.6506 42.7582 37.2899 42.9679 36.9855C43.1776 36.681 43.4745 36.4471 43.8195 36.3144C44.1646 36.1817 44.5416 36.1564 44.9013 36.2418C45.261 36.3273 45.5864 36.5194 45.835 36.7931L49.3226 40.6219C49.6299 40.959 50.0525 41.1687 50.5068 41.2096C50.9612 41.2505 51.4144 41.1196 51.777 40.8428V40.8428C51.9771 40.6897 52.1433 40.4968 52.2651 40.2762C52.3869 40.0557 52.4617 39.8123 52.4848 39.5614C52.5079 39.3105 52.4787 39.0575 52.3991 38.8185C52.3195 38.5794 52.1913 38.3594 52.0224 38.1724L41.7533 26.8308Z" fill="#1DE3F2"/>
</svg>
