<svg width="81" height="80" viewBox="0 0 81 80" fill="none" xmlns="http://www.w3.org/2000/svg">
<path d="M63.8886 0H16.1193C7.21901 0 0.00390625 7.21509 0.00390625 16.1154V63.8846C0.00390625 72.7849 7.21901 80 16.1193 80H63.8886C72.7888 80 80.0039 72.7849 80.0039 63.8846V16.1154C80.0039 7.21509 72.7888 0 63.8886 0Z" fill="#0A6299"/>
<path opacity="0.44" d="M43.4178 30.6744H80.0026V23.3555H37.5421C36.7764 23.3555 36.0419 23.6595 35.5003 24.2007C34.9586 24.7419 34.654 25.4761 34.6533 26.2418V63.6635C34.6533 64.5989 34.2817 65.496 33.6203 66.1574C32.9589 66.8188 32.0618 67.1904 31.1264 67.1904H0.34375C0.994851 70.2997 2.55267 73.1463 4.82051 75.3708H34.5944C36.5692 75.3695 38.4626 74.5841 39.8585 73.1873C41.2544 71.7905 42.0385 69.8966 42.0385 67.9218V52.7048C42.8514 52.6925 43.627 52.3611 44.1977 51.7821C44.7685 51.2031 45.0887 50.4228 45.0893 49.6098V45.6141V41.5448C45.0889 40.7501 44.7829 39.986 44.2346 39.4107C43.6863 38.8355 42.9378 38.4932 42.144 38.4547V31.9482C42.1437 31.7808 42.1764 31.615 42.2403 31.4603C42.3042 31.3057 42.398 31.1651 42.5164 31.0468C42.6347 30.9284 42.7753 30.8346 42.93 30.7707C43.0847 30.7068 43.2505 30.6741 43.4178 30.6744V30.6744Z" fill="black"/>
<path d="M17.8163 43.2436C17.8166 44.0386 18.1225 44.8029 18.6707 45.3786C19.2189 45.9542 19.9675 46.2971 20.7615 46.3361V52.8426C20.7615 53.1798 20.6275 53.5032 20.3891 53.7416C20.1507 53.98 19.8273 54.114 19.4901 54.114H0V63.8873C0.00069524 65.6305 0.284186 67.362 0.839403 69.0144H28.2105C30.1856 69.0138 32.0797 68.2287 33.4761 66.8318C34.8726 65.4349 35.657 63.5406 35.657 61.5654V46.3484C36.4702 46.3355 37.2457 46.0036 37.8164 45.4242C38.3871 44.8447 38.7073 44.0643 38.7078 43.251V39.1816H17.8113L17.8163 43.2436Z" fill="#BF3B21"/>
<path d="M37.0365 24.3184H80.0026V16.111C80.0053 13.7994 79.508 11.5145 78.5447 9.41309H28.3162C26.3399 9.41309 24.4446 10.1981 23.0472 11.5956C21.6498 12.993 20.8647 14.8883 20.8647 16.8645V32.0816C20.0518 32.0945 19.2765 32.4265 18.7062 33.006C18.1359 33.5855 17.8163 34.366 17.8164 35.179V39.2483H38.7128V35.1888C38.7131 34.3939 38.4073 33.6295 37.8589 33.0541C37.3105 32.4787 36.5616 32.1366 35.7676 32.0988V25.5898C35.7676 25.253 35.9012 24.93 36.1391 24.6917C36.377 24.4533 36.6998 24.3191 37.0365 24.3184V24.3184Z" fill="#FCC21D"/>
<path d="M15.0859 39.2578H41.0899" stroke="white" stroke-width="6" stroke-linecap="round" stroke-linejoin="round" stroke-dasharray="12 12"/>
<path d="M15.8242 30.4219H41.8282" stroke="white" stroke-width="3" stroke-linecap="round" stroke-linejoin="round" stroke-dasharray="6 6"/>
<path d="M15.8242 48.0938H41.8282" stroke="white" stroke-width="3" stroke-linecap="round" stroke-linejoin="round" stroke-dasharray="6 6"/>
<path d="M15.8164 51.7677V25.7637" stroke="white" stroke-width="3" stroke-linecap="round" stroke-linejoin="round" stroke-dasharray="6 6"/>
<path d="M40.8516 51.7677V25.7637" stroke="white" stroke-width="3" stroke-linecap="round" stroke-linejoin="round" stroke-dasharray="6 6"/>
<path d="M52.3505 25.3661C56.8372 25.3661 60.4744 21.7288 60.4744 17.2421C60.4744 12.7554 56.8372 9.11816 52.3505 9.11816C47.8638 9.11816 44.2266 12.7554 44.2266 17.2421C44.2266 21.7288 47.8638 25.3661 52.3505 25.3661Z" stroke="white" stroke-width="2" stroke-miterlimit="10"/>
<path d="M52.3513 22.9213C55.4879 22.9213 58.0307 20.3785 58.0307 17.2419C58.0307 14.1053 55.4879 11.5625 52.3513 11.5625C49.2146 11.5625 46.6719 14.1053 46.6719 17.2419C46.6719 20.3785 49.2146 22.9213 52.3513 22.9213Z" stroke="white" stroke-width="6" stroke-miterlimit="10"/>
<path d="M71.387 32.53H70.766C69.2541 32.53 68.022 33.5952 67.9312 34.9402V33.691C67.9312 32.1766 66.5715 30.947 64.8952 30.947H64.6645C62.9857 30.947 61.626 32.1742 61.626 33.691V32.4638C61.626 30.9494 60.2662 29.7223 58.5899 29.7223H58.3592C56.6829 29.7223 55.3207 30.9494 55.3207 32.4638V17.1878C55.3207 15.6735 53.961 14.4463 52.2847 14.4463H52.054C50.3776 14.4463 49.0179 15.6735 49.0179 17.1878V35.5784C46.8679 37.478 45.5352 40.1288 45.5352 43.0593V51.8557C45.5352 57.6406 50.7286 62.3285 57.1369 62.3285H62.6274C68.9498 62.3285 74.0868 57.7634 74.2218 52.0864C74.2218 52.0471 74.2218 52.0103 74.2218 51.9711V35.0949C74.2291 33.6787 72.9627 32.53 71.387 32.53Z" fill="white"/>
<g clip-path="url(#clip0)">
<path d="M63.8846 0H16.1154C7.21509 0 0 7.21509 0 16.1154V63.8846C0 72.7849 7.21509 80 16.1154 80H63.8846C72.7849 80 80 72.7849 80 63.8846V16.1154C80 7.21509 72.7849 0 63.8846 0Z" fill="#00C3FF"/>
<path opacity="0.58" d="M55.5271 28.4913H80.0143V16.1164C80.0142 15.2706 79.9477 14.4262 79.8155 13.5908H46.8068C45.8283 13.5905 44.8594 13.7829 43.9554 14.1571C43.0514 14.5313 42.2299 15.08 41.5379 15.7717C40.846 16.4634 40.2971 17.2847 39.9226 18.1886C39.5481 19.0926 39.3553 20.0614 39.3553 21.0398V36.2569C38.5424 36.2698 37.7671 36.6018 37.1968 37.1813C36.6265 37.7607 36.3069 38.5412 36.307 39.3543V43.3402H31.5161V47.4095C31.5164 48.2042 31.8224 48.9683 32.3707 49.5436C32.919 50.1188 33.6675 50.4611 34.4613 50.4995V57.0159C34.4613 57.3531 34.3274 57.6764 34.0889 57.9149C33.8505 58.1533 33.5271 58.2872 33.1899 58.2872H4.17446L0.078125 65.4417C0.34508 68.2316 1.33949 70.9025 2.962 73.1877H41.9128C42.8913 73.1877 43.8602 72.995 44.7643 72.6205C45.6684 72.246 46.4898 71.6971 47.1817 71.0052C47.8737 70.3133 48.4225 69.4918 48.797 68.5878C49.1715 67.6837 49.3642 66.7148 49.3642 65.7362V50.5192C50.1769 50.5069 50.9522 50.1755 51.5226 49.5964C52.093 49.0173 52.4126 48.237 52.4125 47.4242V43.4285H57.2034V39.3616C57.2031 38.5667 56.8972 37.8023 56.349 37.2267C55.8008 36.651 55.0522 36.3082 54.2582 36.2691V29.7626C54.2582 29.4259 54.3918 29.1029 54.6297 28.8645C54.8676 28.6261 55.1903 28.4919 55.5271 28.4913V28.4913Z" fill="black"/>
<path d="M27.3416 43.2441C27.342 44.0388 27.648 44.8029 28.1963 45.3782C28.7445 45.9534 29.4931 46.2957 30.2869 46.3342V52.8432C30.2869 53.1803 30.1529 53.5037 29.9145 53.7421C29.6761 53.9806 29.3527 54.1145 29.0155 54.1145H1.30414e-06V63.8853C-0.00070169 65.6295 0.282811 67.362 0.839394 69.015H37.7383C38.7168 69.015 39.6858 68.8222 40.5899 68.4477C41.4939 68.0733 42.3154 67.5244 43.0073 66.8325C43.6992 66.1405 44.2481 65.3191 44.6226 64.4151C44.997 63.511 45.1898 62.542 45.1898 61.5635V46.3465C46.0025 46.3342 46.7778 46.0027 47.3481 45.4236C47.9185 44.8445 48.2382 44.0643 48.2381 43.2515V39.1748H27.3416V43.2441Z" fill="#D8531E"/>
<path d="M51.3529 24.3184H80.0125V16.1159C80.0094 13.8033 79.5071 11.5186 78.5399 9.41797H42.6326C41.6542 9.41765 40.6853 9.61008 39.7812 9.98429C38.8772 10.3585 38.0557 10.9071 37.3638 11.5989C36.6718 12.2906 36.1229 13.1119 35.7484 14.0158C35.3739 14.9197 35.1811 15.8885 35.1811 16.867V32.084C34.3682 32.0969 33.5929 32.4289 33.0226 33.0084C32.4523 33.5879 32.1327 34.3684 32.1328 35.1814V39.2483H53.0293V35.1888C53.029 34.3939 52.723 33.6295 52.1748 33.0538C51.6266 32.4782 50.878 32.1354 50.084 32.0963V25.5898C50.084 25.253 50.2176 24.93 50.4555 24.6917C50.6934 24.4533 51.0162 24.3191 51.3529 24.3184Z" fill="#FCCC30"/>
<path d="M37.9527 22.5134C37.6445 22.854 37.2244 23.0727 36.7686 23.1299C36.3129 23.1871 35.8517 23.0789 35.4689 22.8251L25.6244 16.1983L25.5214 16.1271L24.92 15.7222C24.674 15.5561 24.4725 15.3322 24.3332 15.0701C24.1939 14.808 24.1211 14.5157 24.1211 14.2189C24.1211 13.922 24.1939 13.6298 24.3332 13.3677C24.4725 13.1056 24.674 12.8816 24.92 12.7156L35.4738 5.61755C35.8563 5.3634 36.3173 5.25484 36.7731 5.31158C37.2288 5.36833 37.6491 5.58661 37.9576 5.9268V5.9268C38.0955 6.08834 38.1968 6.27779 38.2546 6.48216C38.3124 6.68654 38.3253 6.901 38.2925 7.11083C38.2596 7.32066 38.1817 7.52089 38.0642 7.6978C37.9467 7.87471 37.7923 8.0241 37.6116 8.13572L35.6137 9.48071C34.2564 10.3937 34.9805 12.3204 36.6814 12.3204H51.0124C51.9941 12.3204 52.7845 13.0273 52.7845 13.8986V14.5612C52.7845 15.4325 51.9917 16.1394 51.0124 16.1394H36.7182C35.0173 16.1394 34.2933 18.0661 35.6505 18.9791L37.614 20.2946C37.7947 20.4063 37.9491 20.5557 38.0666 20.7326C38.1842 20.9095 38.262 21.1097 38.2949 21.3195C38.3278 21.5294 38.3149 21.7438 38.2571 21.9482C38.1993 22.1526 38.098 22.342 37.9601 22.5036L37.9527 22.5134Z" fill="white"/>
<path d="M40.1002 74.4206C40.4088 74.7608 40.8291 74.9791 41.2848 75.0358C41.7406 75.0926 42.2015 74.984 42.5841 74.7299L52.431 68.1031L52.5341 68.0344L53.1354 67.6294C53.3819 67.4637 53.5839 67.2399 53.7235 66.9777C53.8632 66.7156 53.9363 66.4231 53.9363 66.1261C53.9363 65.8291 53.8632 65.5366 53.7235 65.2744C53.5839 65.0123 53.3819 64.7885 53.1354 64.6228L42.5816 57.5248C42.1991 57.2706 41.7381 57.1621 41.2824 57.2188C40.8266 57.2756 40.4063 57.4938 40.0978 57.834V57.834C39.96 57.9957 39.8588 58.1853 39.8012 58.3898C39.7436 58.5943 39.7309 58.8088 39.764 59.0186C39.7972 59.2285 39.8753 59.4287 39.993 59.6055C40.1108 59.7823 40.2654 59.9315 40.4463 60.043L42.4442 61.3855C43.8014 62.2985 43.0749 64.2276 41.3741 64.2276H27.0455C26.0637 64.2276 25.2734 64.9345 25.2734 65.8058V66.466C25.2734 67.3398 26.0662 68.0466 27.0455 68.0466H41.3348C43.0357 68.0466 43.7597 69.9733 42.4024 70.8863L40.439 72.2019C40.2581 72.3133 40.1034 72.4625 39.9857 72.6393C39.8679 72.8161 39.7898 73.0163 39.7567 73.2262C39.7236 73.436 39.7363 73.6505 39.7939 73.855C39.8515 74.0595 39.9526 74.2491 40.0904 74.4108L40.1002 74.4206Z" fill="white"/>
</g>
<g clip-path="url(#clip1)">
<path d="M63.8846 0H16.1154C7.21509 0 0 7.21509 0 16.1154V63.8846C0 72.7849 7.21509 80 16.1154 80H63.8846C72.7849 80 80 72.7849 80 63.8846V16.1154C80 7.21509 72.7849 0 63.8846 0Z" fill="#00C3FF"/>
<path opacity="0.58" d="M59.8331 26.6105H80.2584V16.1156C80.2625 13.1898 79.4664 10.3185 77.9562 7.8125H48.8425C46.3494 7.8125 43.9584 8.80288 42.1955 10.5658C40.4327 12.3286 39.4423 14.7196 39.4423 17.2127V36.4181C38.4154 36.4323 37.4353 36.8502 36.7142 37.5815C35.9931 38.3127 35.5888 39.2985 35.5889 40.3255V45.3544H29.5389V50.489C29.5397 51.4922 29.9266 52.4567 30.6194 53.1824C31.3121 53.908 32.2576 54.3392 33.2597 54.3865V62.5988C33.2597 62.8095 33.2182 63.0181 33.1375 63.2127C33.0568 63.4073 32.9385 63.5841 32.7895 63.733C32.6404 63.8818 32.4634 63.9998 32.2687 64.0802C32.0739 64.1606 31.8653 64.2018 31.6546 64.2015H0.246094C0.325196 68.4228 2.05799 72.4444 5.07175 75.4013C8.0855 78.3581 12.1394 80.0139 16.3614 80.0125H49.5395C51.1589 78.2757 52.0582 75.9886 52.0553 73.614V54.3939C53.0809 54.3784 54.0593 53.9603 54.7793 53.2297C55.4993 52.4991 55.9032 51.5147 55.9037 50.489V45.4575H61.9464V40.3255C61.9456 39.3224 61.5592 38.358 60.867 37.632C60.1748 36.906 59.2299 36.474 58.228 36.4255V28.2254C58.2267 28.0138 58.2673 27.804 58.3473 27.6082C58.4274 27.4123 58.5455 27.2342 58.6946 27.0841C58.8438 26.934 59.0212 26.8149 59.2166 26.7336C59.412 26.6523 59.6215 26.6105 59.8331 26.6105V26.6105Z" fill="#0090BC"/>
<path d="M24.0307 45.2248C24.0314 46.2279 24.4179 47.1923 25.1101 47.9183C25.8022 48.6443 26.7471 49.0763 27.749 49.1248V57.3347C27.749 57.5454 27.7075 57.754 27.6268 57.9486C27.5461 58.1432 27.4278 58.32 27.2788 58.4688C27.1297 58.6177 26.9527 58.7357 26.758 58.8161C26.5632 58.8965 26.3546 58.9377 26.1439 58.9374H1.53771e-06V63.8854C-0.00121928 66.6791 0.724498 69.425 2.10583 71.8533C3.48716 74.2816 5.47656 76.3087 7.87851 77.7353H37.1468C38.3811 77.7357 39.6034 77.4928 40.7439 77.0207C41.8844 76.5485 42.9207 75.8564 43.7936 74.9837C44.6665 74.111 45.359 73.0749 45.8314 71.9345C46.3039 70.7942 46.547 69.5719 46.547 68.3376V49.1297C47.5724 49.1143 48.5506 48.696 49.2702 47.9654C49.9898 47.2348 50.3931 46.2504 50.393 45.2248V40.0928H24.0307V45.2248Z" fill="#D8531E"/>
<path d="M54.3233 21.3527H80.0132V16.1151C80.0145 13.4127 79.3353 10.7534 78.0382 8.38263C76.741 6.01186 74.8678 4.00591 72.5912 2.5498H43.3204C40.828 2.5498 38.4376 3.53992 36.6752 5.30234C34.9128 7.06477 33.9227 9.45512 33.9227 11.9476V31.1554C32.897 31.1709 31.9186 31.589 31.1986 32.3196C30.4786 33.0502 30.0747 34.0346 30.0742 35.0603V40.1924H56.4513V35.0603C56.4479 34.0565 56.0582 33.0925 55.3632 32.3682C54.6682 31.6439 53.721 31.2149 52.7182 31.1701V22.9505C52.7201 22.526 52.8901 22.1197 53.1909 21.8202C53.4917 21.5208 53.8989 21.3527 54.3233 21.3527V21.3527Z" fill="#FFC639"/>
</g>
<defs>
<clipPath id="clip0">
<rect width="80" height="80" fill="white"/>
</clipPath>
<clipPath id="clip1">
<rect width="80" height="80" fill="white"/>
</clipPath>
</defs>
</svg>
