<svg width="80" height="80" viewBox="0 0 80 80" fill="none" xmlns="http://www.w3.org/2000/svg">
<path d="M63.8846 0H16.1154C7.21509 0 0 7.21509 0 16.1154V63.8846C0 72.7849 7.21509 80 16.1154 80H63.8846C72.7849 80 80 72.7849 80 63.8846V16.1154C80 7.21509 72.7849 0 63.8846 0Z" fill="#3F1F00"/>
<path d="M67.2049 59.5527L67.1902 49.8506L12.8555 49.8457L12.8825 59.5404L40.0425 66.7955L67.2049 59.5527Z" fill="#EFCC00"/>
<path d="M67.1896 49.8508L40.0296 42.7945V42.7822L12.8672 49.841L40.0296 57.0936L67.1896 49.8508Z" fill="#AFA35D"/>
<path d="M67.2049 44.8882L67.1779 35.191L12.8555 35.1787L12.8825 44.8759L40.0425 52.1285L67.2049 44.8882Z" fill="#F45131"/>
<path d="M67.1779 35.1906L40.0179 28.1343V28.1221L12.8555 35.1784L40.0179 42.431L67.1779 35.1906Z" fill="#AD4B3E"/>
<path d="M67.2049 29.6001L67.1779 19.9004L12.8555 19.8906L12.8825 29.5878L40.0425 36.8405L67.2049 29.6001Z" fill="#2FD6F2"/>
<path d="M67.1779 19.8996L40.0179 12.8433V12.8311L12.8555 19.8873L40.0179 27.14L67.1779 19.8996Z" fill="#5CFFEB"/>
<path d="M64.7718 28.829C65.3167 28.829 65.7585 28.3774 65.7585 27.8203C65.7585 27.2632 65.3167 26.8115 64.7718 26.8115C64.2269 26.8115 63.7852 27.2632 63.7852 27.8203C63.7852 28.3774 64.2269 28.829 64.7718 28.829Z" fill="#259DC1"/>
<path d="M64.7718 44.0389C65.3167 44.0389 65.7585 43.5873 65.7585 43.0302C65.7585 42.4731 65.3167 42.0215 64.7718 42.0215C64.2269 42.0215 63.7852 42.4731 63.7852 43.0302C63.7852 43.5873 64.2269 44.0389 64.7718 44.0389Z" fill="#AD4B3E"/>
<path d="M64.7718 58.6005C65.3167 58.6005 65.7585 58.1489 65.7585 57.5918C65.7585 57.0346 65.3167 56.583 64.7718 56.583C64.2269 56.583 63.7852 57.0346 63.7852 57.5918C63.7852 58.1489 64.2269 58.6005 64.7718 58.6005Z" fill="#AFA35D"/>
<path d="M51.8518 29.0789C51.8521 26.838 51.2226 24.6421 50.0351 22.7417C48.8475 20.8414 47.1497 19.313 45.1354 18.331C43.1212 17.3491 40.8714 16.953 38.6429 17.188C36.4143 17.423 34.2967 18.2796 32.5315 19.6602C30.7663 21.0407 29.4247 22.8895 28.6597 24.9958C27.8946 27.1021 27.737 29.381 28.2047 31.5725C28.6724 33.7641 29.7467 35.7801 31.3049 37.3905C32.8632 39.001 34.8427 40.141 37.0177 40.6807C37.2714 40.7468 37.4959 40.8956 37.6555 41.1037C37.8151 41.3117 37.9007 41.5671 37.8988 41.8293V45.5109C37.8987 45.7948 37.8264 46.074 37.6885 46.3222C37.5507 46.5704 37.3519 46.7794 37.1109 46.9295C36.8042 47.1206 36.5513 47.3868 36.3761 47.7029C36.2008 48.019 36.1091 48.3745 36.1095 48.7359V60.4898C36.1102 61.056 36.3354 61.5987 36.7357 61.999C37.136 62.3993 37.6787 62.6245 38.2448 62.6251H41.4355C42.0016 62.6245 42.5444 62.3993 42.9447 61.999C43.345 61.5987 43.5702 61.056 43.5708 60.4898V48.7089C43.5723 48.3613 43.4857 48.019 43.3192 47.7138C43.1527 47.4087 42.9116 47.1507 42.6185 46.9638C42.3655 46.8054 42.1563 46.5859 42.0101 46.3256C41.8639 46.0654 41.7853 45.7726 41.7816 45.474V41.7557C41.7828 41.5151 41.8655 41.282 42.0161 41.0943C42.1668 40.9067 42.3765 40.7756 42.6111 40.7224C45.2379 40.1064 47.5796 38.6214 49.2568 36.508C50.934 34.3947 51.8484 31.7769 51.8518 29.0789V29.0789ZM30.8989 29.8152C30.7483 27.9732 31.1667 26.1293 32.0976 24.5327C33.0285 22.936 34.427 21.6636 36.1042 20.8873C37.7815 20.111 39.6566 19.8682 41.4762 20.1917C43.2958 20.5152 44.9723 21.3894 46.2792 22.6963C47.5861 24.0032 48.4603 25.6797 48.7838 27.4993C49.1073 29.319 48.8645 31.1941 48.0882 32.8713C47.3119 34.5485 46.0395 35.947 44.4428 36.8779C42.8462 37.8088 41.0023 38.2272 39.1603 38.0766C37.028 37.9007 35.0274 36.9739 33.5145 35.461C32.0016 33.9481 31.0748 31.9475 30.8989 29.8152V29.8152Z" fill="white"/>
<path d="M43.239 27.3882C44.4929 27.3882 45.5093 26.3718 45.5093 25.1179C45.5093 23.8641 44.4929 22.8477 43.239 22.8477C41.9852 22.8477 40.9688 23.8641 40.9688 25.1179C40.9688 26.3718 41.9852 27.3882 43.239 27.3882Z" fill="white"/>
</svg>
