<svg width="15" height="15" viewBox="0 0 15 15" fill="none" xmlns="http://www.w3.org/2000/svg">
<path d="M3.35234 14.699V5.21133H0.41582V14.699H3.35234ZM3.35234 1.88125C3.35234 1.03359 2.78926 0.416016 1.82656 0.416016C0.924414 0.416016 0.300781 1.03965 0.300781 1.88125C0.300781 2.72891 0.863867 3.34648 1.76602 3.34648C2.72871 3.35254 3.35234 2.67441 3.35234 1.88125ZM8.09316 14.699V9.28008C8.09316 8.99551 8.09316 8.71699 8.2082 8.48691C8.43223 7.92383 8.94082 7.3002 9.84297 7.3002C11.0297 7.3002 11.7078 7.97832 11.7078 9.27402V14.693H14.6443V9.15898C14.6443 6.16797 13.0641 4.81172 10.9752 4.81172C9.22539 4.81172 8.49277 5.77441 8.03867 6.44648V5.20527H5.10215C5.15664 6.10742 5.10215 14.7475 5.10215 14.7475H8.09316V14.699Z" fill="white"/>
</svg>
