<svg width="21" height="21" viewBox="0 0 21 21" fill="none" xmlns="http://www.w3.org/2000/svg">
<g clip-path="url(#clip0)">
<path fill-rule="evenodd" clip-rule="evenodd" d="M7.69954 0C6.53869 0.000856269 5.5992 0.94104 5.60006 2.09957C5.5992 3.2581 6.53955 4.19829 7.7004 4.19914H9.80075V2.10043C9.8016 0.941896 8.86125 0.00171254 7.69954 0C7.7004 0 7.7004 0 7.69954 0V0ZM7.69954 5.6H2.10035C0.939494 5.60086 -0.000855639 6.54104 2.34476e-06 7.69957C-0.00171362 8.8581 0.938636 9.79829 2.09949 9.8H7.69954C8.8604 9.79914 9.80075 8.85896 9.79989 7.70043C9.80075 6.54104 8.8604 5.60086 7.69954 5.6Z" fill="#36C5F0"/>
<path fill-rule="evenodd" clip-rule="evenodd" d="M20.9991 7.69957C21 6.54104 20.0596 5.60086 18.8988 5.6C17.7379 5.60086 16.7976 6.54104 16.7984 7.69957V9.8H18.8988C20.0596 9.79914 21 8.85896 20.9991 7.69957ZM15.399 7.69957V2.09957C15.3999 0.941896 14.4604 0.00171254 13.2996 0C12.1387 0.000856269 11.1984 0.94104 11.1992 2.09957V7.69957C11.1975 8.8581 12.1379 9.79829 13.2987 9.8C14.4596 9.79914 15.3999 8.85896 15.399 7.69957Z" fill="#2EB67D"/>
<path fill-rule="evenodd" clip-rule="evenodd" d="M13.2996 21.0001C14.4604 20.9992 15.4008 20.059 15.3999 18.9005C15.4008 17.742 14.4604 16.8018 13.2996 16.8009H11.1992V18.9005C11.1984 20.0582 12.1387 20.9984 13.2996 21.0001ZM13.2996 15.3992H18.8996C20.0605 15.3984 21.0008 14.4582 21 13.2996C21.0017 12.1411 20.0613 11.2009 18.9005 11.1992H13.3004C12.1396 11.2001 11.1992 12.1403 11.2001 13.2988C11.1992 14.4582 12.1387 15.3984 13.2996 15.3992Z" fill="#ECB22E"/>
<path fill-rule="evenodd" clip-rule="evenodd" d="M5.86657e-07 13.2998C-0.000857397 14.4583 0.939492 15.3985 2.10034 15.3993C3.26119 15.3985 4.20154 14.4583 4.20069 13.2998V11.2002H2.10034C0.939492 11.2011 -0.000857397 12.1412 5.86657e-07 13.2998ZM5.60006 13.2998V18.8998C5.59834 20.0583 6.53869 20.9985 7.69954 21.0002C8.86039 20.9993 9.80074 20.0592 9.79989 18.9006V13.3015C9.8016 12.1429 8.86125 11.2028 7.7004 11.2011C6.53869 11.2011 5.5992 12.1412 5.60006 13.2998C5.60006 13.2998 5.60006 13.3006 5.60006 13.2998Z" fill="#E01E5A"/>
</g>
<defs>
<clipPath id="clip0">
<rect width="21" height="21" fill="white"/>
</clipPath>
</defs>
</svg>
