<svg width="20" height="17" viewBox="0 0 20 17" fill="none" xmlns="http://www.w3.org/2000/svg">
<path d="M17.3342 4.4V4.90859C17.3342 10.0914 13.3865 16.0129 6.22988 16.0129C4.03203 16.0129 1.94922 15.3953 0.253906 14.2631C0.538477 14.3176 0.871484 14.3176 1.21055 14.3176C3.01484 14.3176 4.7041 13.7 6.06035 12.6283C4.37109 12.5738 2.90586 11.4477 2.39726 9.92188C2.62129 9.97637 2.90586 9.97637 3.12988 9.97637C3.46895 9.97637 3.80801 9.92188 4.14707 9.86133C2.34277 9.52227 0.992578 7.94199 0.992578 6.02871V5.97422C1.50117 6.25879 2.11875 6.42227 2.74238 6.48281C1.6707 5.80469 0.992578 4.56348 0.992578 3.21328C0.992578 2.48066 1.16211 1.80254 1.50117 1.23945C3.42051 3.60684 6.29043 5.18711 9.55996 5.29609C9.50547 5.01152 9.44492 4.73301 9.44492 4.39394C9.44492 2.25059 11.1947 0.506836 13.332 0.506836C14.4582 0.506836 15.4754 0.954883 16.208 1.74805C17.1102 1.57852 17.9578 1.23945 18.6904 0.791406C18.4059 1.69355 17.7883 2.48066 17.0012 2.93477C17.7883 2.81973 18.5209 2.6502 19.2535 2.31719C18.7449 3.15879 18.0668 3.83691 17.3342 4.4Z" fill="white"/>
</svg>
