<?xml version="1.0" encoding="utf-8"?>
<!-- Generator: Adobe Illustrator 23.0.1, SVG Export Plug-In . SVG Version: 6.00 Build 0)  -->
<svg version="1.1" id="Layer_1" xmlns="http://www.w3.org/2000/svg" xmlns:xlink="http://www.w3.org/1999/xlink" x="0px" y="0px"
	 viewBox="0 0 799.5 64.6" style="enable-background:new 0 0 799.5 64.6;" xml:space="preserve">
<style type="text/css">
	.st0{fill:#6F6F84;}
	.st1{fill:url(#SVGID_1_);}
	.st2{fill:url(#SVGID_2_);}
	.st3{fill:url(#SVGID_3_);}
	.st4{fill:url(#SVGID_4_);}
	.st5{fill:url(#SVGID_5_);}
	.st6{fill:url(#SVGID_6_);}
	.st7{fill:url(#SVGID_7_);}
	.st8{fill:url(#SVGID_8_);}
	.st9{fill:#47242D;}
	.st10{fill:#3F151E;}
	.st11{fill:#512E3A;}
	.st12{fill:#350E0E;}
	.st13{fill:#210500;}
	.st14{fill:#472E3F;}
	.st15{fill:#442140;}
	.st16{fill:#1E1904;}
	.st17{fill:#28230C;}
	.st18{fill:#231D03;}
	.st19{fill:#332D14;}
	.st20{fill:#26200A;}
	.st21{fill:#282208;}
	.st22{fill:#282207;}
	.st23{fill:url(#SVGID_9_);}
	.st24{fill:url(#SVGID_10_);}
	.st25{fill:url(#SVGID_11_);}
	.st26{fill:url(#SVGID_12_);}
	.st27{fill:url(#SVGID_13_);}
	.st28{fill:url(#SVGID_14_);}
	.st29{fill:url(#SVGID_15_);}
	.st30{fill:url(#SVGID_16_);}
	.st31{fill:url(#SVGID_17_);}
	.st32{fill:url(#SVGID_18_);}
	.st33{fill:url(#SVGID_19_);}
	.st34{fill:url(#SVGID_20_);}
	.st35{fill:#84445E;}
	.st36{fill:#282106;}
	.st37{fill:#A55050;}
	.st38{fill:#FF9A51;}
	.st39{fill:#E9633B;}
	.st40{fill:#FC8245;}
	.st41{fill:#D54F31;}
	.st42{fill:#BE3226;}
	.st43{opacity:0.2;fill:#FFFFFF;enable-background:new    ;}
	.st44{opacity:0.57;}
	.st45{fill:#664542;}
	.st46{fill:url(#SVGID_21_);}
	.st47{fill:#FFFFFF;}
	.st48{fill:#2BD0FA;}
	.st49{fill:#2A69A8;stroke:#2A69A8;stroke-width:5;}
	.st50{opacity:0.77;fill:#60474C;enable-background:new    ;}
	.st51{fill:#7A8889;}
	.st52{fill:#9AA4A5;}
	.st53{fill:#B7C3C4;}
	.st54{fill:#EA3D34;}
	.st55{fill:#9AA4A5;stroke:#9AA4A5;stroke-width:4;stroke-miterlimit:10;}
	.st56{fill:#DD9864;}
	.st57{fill:#FFE1DC;}
	.st58{fill:#FFF4F3;}
	.st59{fill:#6BA6CE;}
	.st60{fill:#E58880;}
	.st61{fill:#AAAAAA;}
	.st62{opacity:0.34;fill:#1E5B7A;enable-background:new    ;}
	.st63{fill:#606D6D;}
	.st64{fill:#7C8B8C;}
	.st65{fill:url(#SVGID_22_);}
	.st66{fill:url(#SVGID_23_);}
	.st67{fill:url(#SVGID_24_);}
	.st68{fill:url(#SVGID_25_);}
	.st69{fill:url(#SVGID_26_);}
	.st70{fill:url(#SVGID_27_);}
	.st71{fill:url(#SVGID_28_);}
	.st72{fill:url(#SVGID_29_);}
	.st73{fill:url(#SVGID_30_);}
	.st74{opacity:0.72;fill:#1C0309;enable-background:new    ;}
</style>
<title>16Asset 98@54x</title>
<rect x="2744.9" y="-2562.5" class="st0" width="1920" height="1080.9"/>
<radialGradient id="SVGID_1_" cx="3688.814" cy="-1632.0535" r="1918.5765" fx="3748.2261" fy="-610.7847" gradientTransform="matrix(0.9926 0.1213 6.431530e-02 -0.5261 148.9541 -3331.1523)" gradientUnits="userSpaceOnUse">
	<stop  offset="9.000000e-02" style="stop-color:#FF5967"/>
	<stop  offset="0.16" style="stop-color:#FF5967;stop-opacity:0.79"/>
	<stop  offset="0.23" style="stop-color:#FF5967;stop-opacity:0.58"/>
	<stop  offset="0.3" style="stop-color:#FF5967;stop-opacity:0.4"/>
	<stop  offset="0.38" style="stop-color:#FF5967;stop-opacity:0.26"/>
	<stop  offset="0.45" style="stop-color:#FF5967;stop-opacity:0.14"/>
	<stop  offset="0.52" style="stop-color:#FF5967;stop-opacity:6.000000e-02"/>
	<stop  offset="0.59" style="stop-color:#FF5967;stop-opacity:2.000000e-02"/>
	<stop  offset="0.66" style="stop-color:#FF5967;stop-opacity:0"/>
	<stop  offset="1" style="stop-color:#FF5967;stop-opacity:0"/>
</radialGradient>
<rect x="2745.2" y="-2563.5" class="st1" width="1920" height="1082"/>
<linearGradient id="SVGID_2_" gradientUnits="userSpaceOnUse" x1="3705.2441" y1="-2563.4626" x2="3705.2441" y2="-2013.2526" gradientTransform="matrix(1 0 0 -1 0 -4044.9651)">
	<stop  offset="9.000000e-02" style="stop-color:#FF5967"/>
	<stop  offset="0.16" style="stop-color:#FF5967;stop-opacity:0.79"/>
	<stop  offset="0.23" style="stop-color:#FF5967;stop-opacity:0.58"/>
	<stop  offset="0.3" style="stop-color:#FF5967;stop-opacity:0.4"/>
	<stop  offset="0.38" style="stop-color:#FF5967;stop-opacity:0.26"/>
	<stop  offset="0.45" style="stop-color:#FF5967;stop-opacity:0.14"/>
	<stop  offset="0.52" style="stop-color:#FF5967;stop-opacity:6.000000e-02"/>
	<stop  offset="0.59" style="stop-color:#FF5967;stop-opacity:2.000000e-02"/>
	<stop  offset="0.66" style="stop-color:#FF5967;stop-opacity:0"/>
	<stop  offset="1" style="stop-color:#FF5967;stop-opacity:0"/>
</linearGradient>
<rect x="2745.2" y="-2563.5" class="st2" width="1920" height="1082"/>
<radialGradient id="SVGID_3_" cx="2492.0105" cy="-2623.6592" r="754.88" fx="1953.269" fy="-2647.9653" gradientTransform="matrix(0.2083 -0.9781 -2.944 -0.6268 -4566.7085 -1170.3583)" gradientUnits="userSpaceOnUse">
	<stop  offset="7.000000e-02" style="stop-color:#FE9B46"/>
	<stop  offset="7.000000e-02" style="stop-color:#FE9B46"/>
	<stop  offset="0.12" style="stop-color:#F98B4E;stop-opacity:0.77"/>
	<stop  offset="0.16" style="stop-color:#F57D55;stop-opacity:0.56"/>
	<stop  offset="0.21" style="stop-color:#F1725B;stop-opacity:0.39"/>
	<stop  offset="0.26" style="stop-color:#EE6860;stop-opacity:0.25"/>
	<stop  offset="0.31" style="stop-color:#EC6163;stop-opacity:0.14"/>
	<stop  offset="0.36" style="stop-color:#EA5B66;stop-opacity:6.000000e-02"/>
	<stop  offset="0.41" style="stop-color:#E95867;stop-opacity:2.000000e-02"/>
	<stop  offset="0.46" style="stop-color:#E95768;stop-opacity:0"/>
</radialGradient>
<rect x="2745.2" y="-2563.5" class="st3" width="1920" height="1082"/>
<linearGradient id="SVGID_4_" gradientUnits="userSpaceOnUse" x1="3705.2441" y1="-2477.0325" x2="3705.2441" y2="-2127.7825" gradientTransform="matrix(1 0 0 -1 0 -4044.9651)">
	<stop  offset="7.000000e-02" style="stop-color:#FABC6B"/>
	<stop  offset="0.11" style="stop-color:#FBB268;stop-opacity:0.87"/>
	<stop  offset="0.2" style="stop-color:#FBA162;stop-opacity:0.64"/>
	<stop  offset="0.29" style="stop-color:#FC925E;stop-opacity:0.45"/>
	<stop  offset="0.37" style="stop-color:#FD865A;stop-opacity:0.29"/>
	<stop  offset="0.46" style="stop-color:#FD7D57;stop-opacity:0.16"/>
	<stop  offset="0.54" style="stop-color:#FE7655;stop-opacity:7.000000e-02"/>
	<stop  offset="0.62" style="stop-color:#FE7253;stop-opacity:2.000000e-02"/>
	<stop  offset="0.69" style="stop-color:#FE7153;stop-opacity:0"/>
</linearGradient>
<rect x="2745.2" y="-2563.5" class="st4" width="1920" height="1082"/>
<linearGradient id="SVGID_5_" gradientUnits="userSpaceOnUse" x1="5698.9575" y1="16394.5898" x2="5698.9575" y2="23811.6699" gradientTransform="matrix(1 0 0 0.14 0 -4826.7651)">
	<stop  offset="0" style="stop-color:#59455C"/>
	<stop  offset="0.16" style="stop-color:#5C455C;stop-opacity:0.95"/>
	<stop  offset="0.32" style="stop-color:#63455B;stop-opacity:0.81"/>
	<stop  offset="0.5" style="stop-color:#70455A;stop-opacity:0.58"/>
	<stop  offset="0.67" style="stop-color:#824459;stop-opacity:0.26"/>
	<stop  offset="0.78" style="stop-color:#914458;stop-opacity:0"/>
</linearGradient>
<rect x="4739" y="-2562.1" class="st5" width="1920" height="1025.9"/>
<linearGradient id="SVGID_6_" gradientUnits="userSpaceOnUse" x1="4257.8594" y1="-2525.2727" x2="4257.8594" y2="-2329.0024" gradientTransform="matrix(1 0 0 -1 0 -4044.9651)">
	<stop  offset="0.32" style="stop-color:#FBEDDA"/>
	<stop  offset="0.57" style="stop-color:#F8E7BA"/>
	<stop  offset="0.98" style="stop-color:#F1DB7B"/>
</linearGradient>
<path class="st6" d="M4664.9-1649.2c0-0.9-0.7-1.6-1.6-1.6h-30.4c-18.2,0-34.3-9.4-39.6-23.3l-7.2-18.7
	c-5.3-13.8-21.4-23.3-39.6-23.3h-21.5c-22.9,0-41.5,14.7-41.5,32.9v63.8c0,18.2-18.6,32.9-41.4,32.9h-77.3l-64.5-0.7
	c-18.1-0.2-34-9.7-39.2-23.5l-6.3-16.7c-5.2-13.9-21.4-23.5-39.7-23.5h-157.8c-16.5,0-31.4-7.8-38-19.8l0,0
	c-6.6-12-21.5-19.8-38-19.8H3931c-22.9,0-41.5,14.7-41.5,32.9v16.3c0,17.6-9.2,34.9-31,36.8c-6.9,0.6-7.7,4-7.7,4
	c0.2,0.6,0.8,1.1,1.4,1.1c12.7,0.3,45.1-0.4,60.1,0.5c3,0.2,13,1.1,11.8,3.8l-32.8,73c-0.4,0.8,0,1.7,0.8,2.1
	c0.2,0.1,0.4,0.1,0.7,0.1h770.6c0.9,0,1.6-0.7,1.6-1.6L4664.9-1649.2z"/>
<linearGradient id="SVGID_7_" gradientUnits="userSpaceOnUse" x1="3355.2993" y1="-2555.9026" x2="3355.2993" y2="-2346.4827" gradientTransform="matrix(1 0 0 -1 0 -4044.9651)">
	<stop  offset="0.32" style="stop-color:#FBEDDA"/>
	<stop  offset="0.57" style="stop-color:#F8E7BA"/>
	<stop  offset="0.98" style="stop-color:#F1DB7B"/>
</linearGradient>
<path class="st7" d="M2887.5-1672.5l18.4,68.3c4.1,15.2,21,26,40.6,26h10.6c22.9,0,41.4-14.7,41.4-32.9v-16.3
	c0-18.2,18.6-32.9,41.5-32.9h50.2c16.5,0,31.4,7.8,38,19.8l0,0c6.6,12,21.5,19.8,38,19.8H3324c18.3,0,34.5,9.6,39.7,23.5l6.3,16.7
	c5.2,13.8,21,23.3,39.2,23.5l64.5,0.7h77.3c22.9,0,41.5-14.7,41.5-32.9v-63.8c0-18.2,18.6-32.9,41.5-32.9h21.6
	c18.2,0,34.3,9.4,39.6,23.3l7.2,18.7c5.3,13.8,21.4,23.3,39.6,23.3h30.4c15.9,0,30.3,7.2,37.3,18.5l9.1,14.8
	c6.9,11.3,21.4,18.5,37.3,18.5h51.3c22.9,0,41.4,14.7,41.4,32.9v13.5c0,18.2-18.6,32.9-41.4,32.9h-908.1v0.5h-237.6v-176.5
	c0-18.2,18.6-32.9,41.5-32.9h43.8C2866.6-1698.5,2883.5-1687.6,2887.5-1672.5z"/>
<linearGradient id="SVGID_8_" gradientUnits="userSpaceOnUse" x1="3713.3142" y1="-2329.0024" x2="3713.3142" y2="-2555.8826" gradientTransform="matrix(1 0 0 -1 0 -4044.9651)">
	<stop  offset="0.15" style="stop-color:#532037;stop-opacity:0.89"/>
	<stop  offset="0.23" style="stop-color:#5E263A;stop-opacity:0.9"/>
	<stop  offset="0.37" style="stop-color:#7B3641;stop-opacity:0.92"/>
	<stop  offset="0.56" style="stop-color:#AB504D;stop-opacity:0.95"/>
	<stop  offset="0.78" style="stop-color:#EC745D;stop-opacity:0.99"/>
	<stop  offset="0.81" style="stop-color:#F6795F"/>
</linearGradient>
<path class="st8" d="M4663.3-1650.8h-30.4c-18.2,0-34.3-9.4-39.6-23.3l-7.2-18.7c-5.3-13.8-21.4-23.3-39.6-23.3h-21.5
	c-22.9,0-41.5,14.7-41.5,32.9v63.8c0,18.2-18.6,32.9-41.4,32.9h-77.3l-64.5-0.7c-18.1-0.2-34-9.7-39.2-23.5l-6.3-16.7
	c-5.2-13.9-21.4-23.5-39.7-23.5h-157.8c-16.5,0-31.4-7.8-38-19.8l0,0c-6.6-12-21.5-19.8-38-19.8H3931c-22.9,0-41.5,14.7-41.5,32.9
	v16.3c0,17.6-9.2,34.9-31,36.8c-6.9,0.6-7.7,4-7.7,4c0.2,0.6,0.8,1.1,1.4,1.1c12.7,0.3,45.1-0.4,60.1,0.5c3,0.2,13,1.1,11.8,3.8
	l-11.8,26.3c-1.6-0.2-3.2-0.2-4.9-0.2h-51.4c-15.9,0-30.4-7.2-37.3-18.5l-9.1-14.8c-6.9-11.3-21.4-18.5-37.3-18.5H3742
	c-18.2,0-34.3-9.4-39.6-23.3l-7.2-18.7c-5.3-13.8-21.4-23.3-39.6-23.3h-21.6c-22.9,0-41.5,14.7-41.5,32.9v63.8
	c0,18.2-18.6,32.9-41.5,32.9h-77.3l-64.5-0.7c-18.1-0.2-34-9.7-39.2-23.5l-6.3-16.7c-5.2-13.9-21.4-23.5-39.7-23.5h-157.8
	c-16.5,0-31.4-7.8-38-19.8c-6.6-12-21.5-19.8-38-19.8H3040c-22.9,0-41.5,14.7-41.5,32.9v16.4c0,18.2-18.6,32.9-41.4,32.9h-10.6
	c-19.6,0-36.5-10.8-40.6-26l-18.4-68.4c-4.1-15.2-21-26-40.6-26h-43.8c-22.9,0-41.5,14.7-41.5,32.9v176.5h237.6v-0.5h908.1
	c21.7,0,39.5-13.2,41.3-30.1h714.6c0.9,0,1.6-0.7,1.6-1.6v-127.9C4664.9-1650.1,4664.2-1650.8,4663.3-1650.8z"/>
<polygon class="st9" points="4665.6,-1481.5 2744.9,-1481.5 2744.9,-1555.6 3708.9,-1556.8 4665.6,-1556.8 "/>
<rect x="2744.9" y="-1511.9" class="st10" width="1920.7" height="11.9"/>
<rect x="2744.9" y="-1540.7" class="st11" width="1920.7" height="16.1"/>
<rect x="2744.9" y="-1500" class="st12" width="1920.7" height="18.5"/>
<rect x="2744.9" y="-1489.3" class="st13" width="1920.7" height="7.8"/>
<ellipse cx="3014.7" cy="-1489.1" rx="17.6" ry="1"/>
<ellipse cx="4548.6" cy="-1500.1" rx="17.6" ry="1"/>
<ellipse cx="3283.3" cy="-1520.3" rx="5.8" ry="0.4"/>
<ellipse cx="3202.9" cy="-1507.2" rx="9.5" ry="0.5"/>
<path class="st14" d="M3288.9-1520c0,0,2.8-0.2,0.4-2.5c-0.9-0.9-5.2-2.3-7,0.9c0,0-1,1.6,1.7,1.6
	C3286.6-1519.9,3288.9-1520,3288.9-1520z"/>
<path class="st15" d="M4565.5-1499.1c0,0,8.4-0.7,1.3-7.5c-2.8-2.6-15.8-7-21,2.7c0,0-3.1,4.7,5,4.8S4565.5-1499.1,4565.5-1499.1z"
	/>
<path class="st15" d="M3210.6-1506.7c0,0,4.2-0.4,0.7-3.7c-1.4-1.3-7.9-3.5-10.5,1.3c0,0-1.5,2.3,2.5,2.4
	C3207.3-1506.7,3210.6-1506.7,3210.6-1506.7z"/>
<path class="st15" d="M3031.1-1488.2c0,0,8.4-0.7,1.3-7.5c-2.8-2.6-15.8-6.9-21,2.7c0,0-3.1,4.7,5,4.8S3031.1-1488.2,3031.1-1488.2z
	"/>
<ellipse cx="4586.1" cy="-1500.4" rx="11.4" ry="1.1"/>
<path d="M3055.4-1486.7c8.6,0,15.6,0.6,15.6,1.3s-7,1.3-15.6,1.3c-8.6,0-15.6-0.6-15.6-1.3"/>
<ellipse cx="3296.5" cy="-1493.8" rx="10.3" ry="0.9"/>
<ellipse cx="3224.3" cy="-1507.3" rx="7.4" ry="0.6"/>
<ellipse cx="4173.6" cy="-1520.5" rx="6.9" ry="0.6"/>
<path class="st16" d="M3063.4-1487.1v-12.1c0-3.5-5.5-3.5-5.5,0v12.1C3057.9-1483.5,3063.4-1483.5,3063.4-1487.1z"/>
<path class="st17" d="M3063.3-1486.3c0.1-0.3,0.2-0.5,0.3-0.8c0.2-0.5-0.1,0.2,0.2-0.4c0.2-0.4,0.4-0.8,0.7-1.2
	c1.4-2.1,3.3-3.8,5.5-4.9c3.1-1.7,0.4-6.4-2.8-4.7c-4,2.1-8,6-9.1,10.6C3057.2-1484.4,3062.5-1482.9,3063.3-1486.3L3063.3-1486.3z"
	/>
<path class="st17" d="M3051.8-1492.9c0.3,0.1-0.4-0.2-0.4-0.2c0.2,0.1,0.4,0.2,0.6,0.3c0.5,0.3,1.1,0.6,1.6,1c2,1.6,3.6,3.7,4.7,6.1
	c1.6,3.2,6.3,0.4,4.7-2.8c-2-4-5.3-8.1-9.7-9.7C3050-1499.3,3048.5-1494,3051.8-1492.9L3051.8-1492.9z"/>
<path class="st18" d="M3302.3-1495.2v-8c0-1-0.8-1.8-1.8-1.8c-1,0-1.8,0.8-1.8,1.8v8c0,1,0.8,1.8,1.8,1.8
	C3301.5-1493.4,3302.3-1494.2,3302.3-1495.2z"/>
<path class="st19" d="M3302.3-1494.7c0-0.2,0.1-0.4,0.2-0.5c0.1-0.3-0.1,0.1,0.1-0.3s0.3-0.5,0.4-0.8c0.9-1.4,2.1-2.5,3.6-3.2
	c2.1-1.1,0.2-4.2-1.8-3.1c-2.7,1.4-5.3,3.9-6,7C3298.2-1493.4,3301.8-1492.5,3302.3-1494.7L3302.3-1494.7z"/>
<path class="st19" d="M3294.7-1499l-0.3-0.1c0.1,0.1,0.3,0.1,0.4,0.2c0.3,0.2,0.8,0.5,1,0.6c1.3,1.1,2.4,2.4,3.1,4
	c1,2.1,4.1,0.3,3.1-1.8c-1.3-2.7-3.5-5.3-6.4-6.4C3293.5-1503.3,3292.6-1499.8,3294.7-1499L3294.7-1499z"/>
<path class="st20" d="M3227.9-1509v-5.5c0-0.5-0.4-0.9-0.9-0.9c-0.5,0-0.9,0.4-0.9,0.9v5.5c0,0.5,0.4,0.9,0.9,0.9
	C3227.5-1508.1,3227.9-1508.5,3227.9-1509L3227.9-1509z"/>
<path class="st19" d="M3228.1-1508c0,0.3,0-0.1,0.1-0.3c0.1-0.4,0.2-0.7,0.4-1.1c0.7-1.3,1.7-2.3,3-2.9c1-0.6,0.1-2.1-0.9-1.6
	c-2.1,1.2-4.1,3.3-4.4,5.8C3226.2-1506.8,3228-1506.8,3228.1-1508L3228.1-1508z"/>
<path class="st19" d="M3223.1-1512.1C3222.9-1512.1,3222.9-1512.2,3223.1-1512.1c-0.1-0.1,0.5,0.3,0.6,0.4c1.2,1.2,2.1,2.6,2.8,4.2
	c0.5,1,2.1,0.1,1.6-0.9c-0.7-1.8-1.8-3.4-3.2-4.7c-0.5-0.4-1-0.7-1.7-0.8C3221.9-1513.8,3221.9-1512,3223.1-1512.1L3223.1-1512.1z"
	/>
<path class="st21" d="M4175.6-1522.1v-5.5c0-0.5-0.4-0.9-0.9-0.9s-0.9,0.4-0.9,0.9l0,0v5.5c0,0.5,0.4,0.9,0.9,0.9
	S4175.6-1521.6,4175.6-1522.1z"/>
<path class="st19" d="M4175.7-1521.1c0,0.3,0-0.1,0.1-0.3c0.1-0.4,0.2-0.7,0.4-1.1c0.7-1.3,1.7-2.3,3-2.9c1-0.6,0.1-2.1-0.9-1.6
	c-2.1,1.2-4.1,3.3-4.3,5.8C4173.8-1519.9,4175.6-1519.9,4175.7-1521.1L4175.7-1521.1z"/>
<path class="st19" d="M4170.7-1525.2C4170.6-1525.2,4170.6-1525.3,4170.7-1525.2c-0.1-0.1,0.5,0.3,0.6,0.4c1.2,1.2,2.1,2.6,2.7,4.2
	c0.5,1.1,2.1,0.1,1.5-0.9c-0.7-1.8-1.8-3.4-3.2-4.7c-0.4-0.4-1-0.7-1.7-0.8C4169.6-1527,4169.6-1525.2,4170.7-1525.2L4170.7-1525.2z
	"/>
<path class="st22" d="M4591.3-1502.3v-10.3c0-2.7-4.2-2.7-4.2,0v10.3C4587.1-1499.6,4591.3-1499.6,4591.3-1502.3z"/>
<path class="st19" d="M4591-1501.5c1.3-2.6,3.2-4.8,5.6-6.5c2.2-1.5,0.1-5.1-2.1-3.6c-3,2-5.5,4.8-7.1,8
	C4586.2-1501.2,4589.9-1499,4591-1501.5L4591-1501.5z"/>
<path class="st19" d="M4582-1507.9l0.2,0.1c0.5,0.3-0.2-0.2,0.2,0.2c0.5,0.4,1,0.8,1.4,1.3c1.5,1.5,2.7,3.2,3.6,5.1
	c1.2,2.4,4.8,0.3,3.6-2.1c-1.6-3.3-4-6.1-7-8.2C4581.8-1513.1,4579.7-1509.4,4582-1507.9L4582-1507.9z"/>
<linearGradient id="SVGID_9_" gradientUnits="userSpaceOnUse" x1="4254.4492" y1="-2506.7927" x2="4254.4492" y2="-2365.5024" gradientTransform="matrix(1 0 0 -1 0 -4044.9651)">
	<stop  offset="0" style="stop-color:#773C41"/>
	<stop  offset="0.55" style="stop-color:#642F36"/>
	<stop  offset="1" style="stop-color:#51222B"/>
</linearGradient>
<path class="st23" d="M4559.8-1661.9l-12.4,46.1c-2.8,10.2-14.2,17.6-27.4,17.6h-7.1c-15.5,0-28-9.9-28-22.2v-11.1
	c0-12.3-12.5-22.2-28-22.2H4423c-11.1,0-21.2,5.2-25.6,13.3l0,0c-4.5,8.1-14.5,13.3-25.7,13.3h-106.5c-12.4,0-23.3,6.4-26.8,15.8
	l-4.2,11.2c-3.5,9.3-14.2,15.7-26.4,15.8l-43.6,0.5H4112c-15.5,0-28-9.9-28-22.2v-43c0-12.3-12.5-22.2-28-22.2h-14.6
	c-12.3,0-23.2,6.4-26.8,15.7l-4.8,12.6c-3.6,9.3-14.5,15.7-26.8,15.7h-20.5c-10.7,0-20.5,4.8-25.2,12.5l-6.1,10
	c-4.7,7.6-14.4,12.5-25.2,12.5h-34.7c-15.4,0-28,9.9-28,22.2v9.1c0,12.3,12.5,22.2,28,22.2h612.9v0.3h181l0.2-39.5l0,0
	c-11.5,0-20.9-9.3-20.9-20.7c0,0,0,0,0-0.1v-58.8c0-12.3-12.5-22.2-28-22.2H4587C4573.9-1679.5,4562.5-1672.1,4559.8-1661.9z"/>
<linearGradient id="SVGID_10_" gradientUnits="userSpaceOnUse" x1="3159.9502" y1="-2506.8591" x2="3159.9502" y2="-2374.0024" gradientTransform="matrix(1 0 0 -1 0 -4044.9651)">
	<stop  offset="0" style="stop-color:#773C41"/>
	<stop  offset="0.55" style="stop-color:#642F36"/>
	<stop  offset="1" style="stop-color:#51222B"/>
</linearGradient>
<path class="st24" d="M3517.8-1592h-45.2c-13.9,0-26.7-4.8-32.8-12.5l-8-10c-6.1-7.6-18.8-12.5-32.8-12.5h-26.7
	c-16,0-30.2-6.4-34.8-15.7l-6.3-12.6c-4.7-9.3-18.8-15.7-34.8-15.7h-18.9c-20.1,0-36.4,9.9-36.4,22.2v43c0,12.3-16.3,22.2-36.4,22.2
	h-68l-56.7-0.5c-15.9-0.1-29.9-6.6-34.4-15.8l-5.5-11.2c-4.6-9.4-18.8-15.8-34.9-15.8h-138.7c-14.5,0-27.6-5.2-33.4-13.3
	c-5.8-8.1-18.9-13.3-33.4-13.3h-44.9c-5.3,0.1-9.6,4.4-9.6,9.8v105.4h772.9c12.3,0,33.8,1.2,48.7-0.7c5.4-0.7,9.1-5.6,8.5-10.9
	c-0.3-2.6-1.7-4.9-3.7-6.5l-3.4-2.7c-6.4-5.1-11.7-11.3-15.9-18.3C3546.8-1586,3533.4-1592,3517.8-1592z"/>
<g>
	<g id="artboard_1">
		<g id="dusk">
			<rect x="735" y="-2562.5" class="st0" width="1920" height="1080.9"/>
			
				<radialGradient id="SVGID_11_" cx="1693.7949" cy="-2092.2371" r="1918.5765" fx="1753.2069" fy="-1070.9683" gradientTransform="matrix(0.9926 0.1213 6.431530e-02 -0.5261 148.9541 -3331.1523)" gradientUnits="userSpaceOnUse">
				<stop  offset="9.000000e-02" style="stop-color:#FF5967"/>
				<stop  offset="0.16" style="stop-color:#FF5967;stop-opacity:0.79"/>
				<stop  offset="0.23" style="stop-color:#FF5967;stop-opacity:0.58"/>
				<stop  offset="0.3" style="stop-color:#FF5967;stop-opacity:0.4"/>
				<stop  offset="0.38" style="stop-color:#FF5967;stop-opacity:0.26"/>
				<stop  offset="0.45" style="stop-color:#FF5967;stop-opacity:0.14"/>
				<stop  offset="0.52" style="stop-color:#FF5967;stop-opacity:6.000000e-02"/>
				<stop  offset="0.59" style="stop-color:#FF5967;stop-opacity:2.000000e-02"/>
				<stop  offset="0.66" style="stop-color:#FF5967;stop-opacity:0"/>
				<stop  offset="1" style="stop-color:#FF5967;stop-opacity:0"/>
			</radialGradient>
			<rect x="735.4" y="-2563.5" class="st25" width="1920" height="1082"/>
			
				<linearGradient id="SVGID_12_" gradientUnits="userSpaceOnUse" x1="1695.3719" y1="-2563.4626" x2="1695.3719" y2="-2013.2526" gradientTransform="matrix(1 0 0 -1 0 -4044.9651)">
				<stop  offset="9.000000e-02" style="stop-color:#FF5967"/>
				<stop  offset="0.16" style="stop-color:#FF5967;stop-opacity:0.79"/>
				<stop  offset="0.23" style="stop-color:#FF5967;stop-opacity:0.58"/>
				<stop  offset="0.3" style="stop-color:#FF5967;stop-opacity:0.4"/>
				<stop  offset="0.38" style="stop-color:#FF5967;stop-opacity:0.26"/>
				<stop  offset="0.45" style="stop-color:#FF5967;stop-opacity:0.14"/>
				<stop  offset="0.52" style="stop-color:#FF5967;stop-opacity:6.000000e-02"/>
				<stop  offset="0.59" style="stop-color:#FF5967;stop-opacity:2.000000e-02"/>
				<stop  offset="0.66" style="stop-color:#FF5967;stop-opacity:0"/>
				<stop  offset="1" style="stop-color:#FF5967;stop-opacity:0"/>
			</linearGradient>
			<rect x="735.4" y="-2563.5" class="st26" width="1920" height="1082"/>
			
				<radialGradient id="SVGID_13_" cx="2073.4482" cy="-1970.5676" r="754.88" fx="1534.7068" fy="-1994.8738" gradientTransform="matrix(0.2083 -0.9781 -2.944 -0.6268 -4566.7085 -1170.3583)" gradientUnits="userSpaceOnUse">
				<stop  offset="7.000000e-02" style="stop-color:#FE9B46"/>
				<stop  offset="7.000000e-02" style="stop-color:#FE9B46"/>
				<stop  offset="0.12" style="stop-color:#F98B4E;stop-opacity:0.77"/>
				<stop  offset="0.16" style="stop-color:#F57D55;stop-opacity:0.56"/>
				<stop  offset="0.21" style="stop-color:#F1725B;stop-opacity:0.39"/>
				<stop  offset="0.26" style="stop-color:#EE6860;stop-opacity:0.25"/>
				<stop  offset="0.31" style="stop-color:#EC6163;stop-opacity:0.14"/>
				<stop  offset="0.36" style="stop-color:#EA5B66;stop-opacity:6.000000e-02"/>
				<stop  offset="0.41" style="stop-color:#E95867;stop-opacity:2.000000e-02"/>
				<stop  offset="0.46" style="stop-color:#E95768;stop-opacity:0"/>
			</radialGradient>
			<rect x="735.4" y="-2563.5" class="st27" width="1920" height="1082"/>
			
				<linearGradient id="SVGID_14_" gradientUnits="userSpaceOnUse" x1="1695.3719" y1="-2477.0325" x2="1695.3719" y2="-2127.7825" gradientTransform="matrix(1 0 0 -1 0 -4044.9651)">
				<stop  offset="7.000000e-02" style="stop-color:#FABC6B"/>
				<stop  offset="0.11" style="stop-color:#FBB268;stop-opacity:0.87"/>
				<stop  offset="0.2" style="stop-color:#FBA162;stop-opacity:0.64"/>
				<stop  offset="0.29" style="stop-color:#FC925E;stop-opacity:0.45"/>
				<stop  offset="0.37" style="stop-color:#FD865A;stop-opacity:0.29"/>
				<stop  offset="0.46" style="stop-color:#FD7D57;stop-opacity:0.16"/>
				<stop  offset="0.54" style="stop-color:#FE7655;stop-opacity:7.000000e-02"/>
				<stop  offset="0.62" style="stop-color:#FE7253;stop-opacity:2.000000e-02"/>
				<stop  offset="0.69" style="stop-color:#FE7153;stop-opacity:0"/>
			</linearGradient>
			<rect x="735.4" y="-2563.5" class="st28" width="1920" height="1082"/>
			
				<linearGradient id="SVGID_15_" gradientUnits="userSpaceOnUse" x1="1695.1219" y1="16384.8047" x2="1695.1219" y2="23801.8848" gradientTransform="matrix(1 0 0 0.14 0 -4826.7651)">
				<stop  offset="0" style="stop-color:#59455C"/>
				<stop  offset="0.16" style="stop-color:#5C455C;stop-opacity:0.95"/>
				<stop  offset="0.32" style="stop-color:#63455B;stop-opacity:0.81"/>
				<stop  offset="0.5" style="stop-color:#70455A;stop-opacity:0.58"/>
				<stop  offset="0.67" style="stop-color:#824459;stop-opacity:0.26"/>
				<stop  offset="0.78" style="stop-color:#914458;stop-opacity:0"/>
			</linearGradient>
			<rect x="735.1" y="-2563.5" class="st29" width="1920" height="1025.9"/>
			
				<linearGradient id="SVGID_16_" gradientUnits="userSpaceOnUse" x1="2247.9868" y1="-2525.2727" x2="2247.9868" y2="-2329.0024" gradientTransform="matrix(1 0 0 -1 0 -4044.9651)">
				<stop  offset="0.32" style="stop-color:#FBEDDA"/>
				<stop  offset="0.57" style="stop-color:#F8E7BA"/>
				<stop  offset="0.98" style="stop-color:#F1DB7B"/>
			</linearGradient>
			<path class="st30" d="M2655-1649.2c0-0.9-0.7-1.6-1.6-1.6h-30.4c-18.2,0-34.3-9.4-39.7-23.3l-7.2-18.7
				c-5.3-13.8-21.4-23.3-39.7-23.3H2515c-22.9,0-41.5,14.7-41.5,32.9v63.8c0,18.2-18.6,32.9-41.4,32.9h-77.3l-64.5-0.7
				c-18.1-0.2-34-9.7-39.2-23.5l-6.3-16.7c-5.2-13.9-21.4-23.5-39.7-23.5h-157.8c-16.5,0-31.4-7.8-38-19.8l0,0
				c-6.6-12-21.5-19.8-38-19.8h-50.2c-22.9,0-41.5,14.7-41.5,32.9v16.3c0,17.6-9.2,34.9-31,36.8c-6.9,0.6-7.7,4-7.7,4
				c0.2,0.6,0.8,1.1,1.4,1.1c12.7,0.3,45.1-0.4,60.1,0.5c3,0.2,13,1.1,11.8,3.8l-32.8,73c-0.4,0.8,0,1.7,0.8,2.1
				c0.2,0.1,0.4,0.1,0.7,0.1h770.6c0.9,0,1.6-0.7,1.6-1.6L2655-1649.2z"/>
			
				<linearGradient id="SVGID_17_" gradientUnits="userSpaceOnUse" x1="1345.4269" y1="-2555.9026" x2="1345.4269" y2="-2346.4827" gradientTransform="matrix(1 0 0 -1 0 -4044.9651)">
				<stop  offset="0.32" style="stop-color:#FBEDDA"/>
				<stop  offset="0.57" style="stop-color:#F8E7BA"/>
				<stop  offset="0.98" style="stop-color:#F1DB7B"/>
			</linearGradient>
			<path class="st31" d="M877.7-1672.5l18.4,68.3c4.1,15.2,21,26,40.6,26h10.6c22.9,0,41.4-14.7,41.4-32.9v-16.3
				c0-18.2,18.6-32.9,41.5-32.9h50.2c16.5,0,31.4,7.8,38,19.8l0,0c6.6,12,21.5,19.8,38,19.8h157.9c18.3,0,34.5,9.6,39.7,23.5
				l6.3,16.7c5.2,13.8,21,23.3,39.2,23.5l64.5,0.7h77.3c22.9,0,41.5-14.7,41.5-32.9v-63.8c0-18.2,18.6-32.9,41.5-32.9h21.6
				c18.2,0,34.3,9.4,39.6,23.3l7.2,18.7c5.3,13.8,21.4,23.3,39.6,23.3h30.4c15.9,0,30.3,7.2,37.3,18.5l9.1,14.8
				c6.9,11.3,21.4,18.5,37.3,18.5h51.3c22.9,0,41.4,14.7,41.4,32.9v13.5c0,18.2-18.6,32.9-41.4,32.9H989.5v0.5H751.9v-176.5
				c0-18.2,18.6-32.9,41.5-32.9h43.8C856.7-1698.5,873.6-1687.6,877.7-1672.5z"/>
			
				<linearGradient id="SVGID_18_" gradientUnits="userSpaceOnUse" x1="1703.4419" y1="-2329.0024" x2="1703.4419" y2="-2555.8826" gradientTransform="matrix(1 0 0 -1 0 -4044.9651)">
				<stop  offset="0.15" style="stop-color:#532037;stop-opacity:0.89"/>
				<stop  offset="0.23" style="stop-color:#5E263A;stop-opacity:0.9"/>
				<stop  offset="0.37" style="stop-color:#7B3641;stop-opacity:0.92"/>
				<stop  offset="0.56" style="stop-color:#AB504D;stop-opacity:0.95"/>
				<stop  offset="0.78" style="stop-color:#EC745D;stop-opacity:0.99"/>
				<stop  offset="0.81" style="stop-color:#F6795F"/>
			</linearGradient>
			<path class="st32" d="M2653.5-1650.8h-30.4c-18.2,0-34.3-9.4-39.7-23.3l-7.2-18.7c-5.3-13.8-21.4-23.3-39.7-23.3H2515
				c-22.9,0-41.5,14.7-41.5,32.9v63.8c0,18.2-18.6,32.9-41.4,32.9h-77.3l-64.5-0.7c-18.1-0.2-34-9.7-39.2-23.5l-6.3-16.7
				c-5.2-13.9-21.4-23.5-39.7-23.5h-157.8c-16.5,0-31.4-7.8-38-19.8l0,0c-6.6-12-21.5-19.8-38-19.8h-50.2
				c-22.9,0-41.5,14.7-41.5,32.9v16.3c0,17.6-9.2,34.9-31,36.8c-6.9,0.6-7.7,4-7.7,4c0.2,0.6,0.8,1.1,1.4,1.1
				c12.7,0.3,45.1-0.4,60.1,0.5c3,0.2,13,1.1,11.8,3.8l-11.8,26.3c-1.6-0.2-3.2-0.2-4.9-0.2h-51.4c-15.9,0-30.3-7.2-37.3-18.5
				l-9.1-14.8c-6.9-11.3-21.4-18.5-37.3-18.5h-30.4c-18.2,0-34.3-9.4-39.6-23.3l-7.2-18.7c-5.3-13.8-21.4-23.3-39.6-23.3h-21.6
				c-22.9,0-41.5,14.7-41.5,32.9v63.8c0,18.2-18.6,32.9-41.5,32.9h-77.3l-64.5-0.7c-18.1-0.2-34-9.7-39.2-23.5l-6.3-16.7
				c-5.2-13.9-21.4-23.5-39.7-23.5h-157.8c-16.5,0-31.4-7.8-38-19.8c-6.6-12-21.5-19.8-38-19.8h-50.2c-22.9,0-41.5,14.7-41.5,32.9
				v16.4c0,18.2-18.6,32.9-41.4,32.9h-10.6c-19.6,0-36.5-10.8-40.6-26l-18.4-68.4c-4.1-15.2-21-26-40.6-26h-43.8
				c-22.9,0-41.5,14.7-41.5,32.9v176.5h237.6v-0.5h908.1c21.7,0,39.5-13.2,41.3-30.1h714.6c0.9,0,1.6-0.7,1.6-1.6v-127.9
				C2655-1650.1,2654.3-1650.8,2653.5-1650.8z"/>
			<polygon class="st9" points="2655.7,-1481.5 735,-1481.5 735,-1555.6 1699.1,-1556.8 2655.7,-1556.8 			"/>
			<rect x="735" y="-1511.9" class="st10" width="1920.7" height="11.9"/>
			<rect x="735" y="-1540.7" class="st11" width="1920.7" height="16.1"/>
			<rect x="735" y="-1500" class="st12" width="1920.7" height="18.5"/>
			<rect x="735" y="-1489.3" class="st13" width="1920.7" height="7.8"/>
			<ellipse cx="1004.8" cy="-1489.1" rx="17.6" ry="1"/>
			<ellipse cx="1273.4" cy="-1520.3" rx="5.8" ry="0.4"/>
			<ellipse cx="1193" cy="-1507.2" rx="9.5" ry="0.5"/>
			<path class="st14" d="M1279-1520c0,0,2.8-0.2,0.4-2.5c-0.9-0.9-5.2-2.3-7,0.9c0,0-1,1.6,1.7,1.6
				C1276.8-1519.9,1279-1520,1279-1520z"/>
			<path class="st15" d="M1200.7-1506.7c0,0,4.2-0.4,0.7-3.7c-1.4-1.3-7.9-3.5-10.5,1.3c0,0-1.5,2.3,2.5,2.4
				C1197.4-1506.7,1200.7-1506.7,1200.7-1506.7z"/>
			<path class="st15" d="M1021.2-1488.2c0,0,8.4-0.7,1.3-7.5c-2.8-2.6-15.8-6.9-21,2.7c0,0-3.1,4.7,5,4.8
				S1021.2-1488.2,1021.2-1488.2z"/>
			<path d="M1045.5-1486.7c8.6,0,15.6,0.6,15.6,1.3s-7,1.3-15.6,1.3s-15.6-0.6-15.6-1.3"/>
			<ellipse cx="1286.6" cy="-1493.8" rx="10.3" ry="0.9"/>
			<ellipse cx="1214.4" cy="-1507.3" rx="7.4" ry="0.6"/>
			<ellipse cx="2163.7" cy="-1520.5" rx="6.9" ry="0.6"/>
			<path class="st16" d="M1053.5-1487.1v-12.1c0-3.5-5.5-3.5-5.5,0v12.1C1048.1-1483.5,1053.5-1483.5,1053.5-1487.1z"/>
			<path class="st17" d="M1053.4-1486.3c0.1-0.3,0.2-0.5,0.3-0.8c0.2-0.5-0.1,0.2,0.2-0.4c0.2-0.4,0.4-0.8,0.7-1.2
				c1.4-2.1,3.3-3.8,5.5-4.9c3.1-1.7,0.3-6.4-2.8-4.7c-4,2.1-8,6-9.1,10.6C1047.3-1484.4,1052.6-1482.9,1053.4-1486.3L1053.4-1486.3
				z"/>
			<path class="st17" d="M1042-1492.9c0.3,0.1-0.4-0.2-0.4-0.2c0.2,0.1,0.4,0.2,0.6,0.3c0.5,0.3,1.1,0.6,1.6,1
				c2,1.6,3.6,3.7,4.7,6.1c1.6,3.2,6.3,0.4,4.7-2.8c-2-4-5.3-8.1-9.7-9.7C1040.1-1499.3,1038.7-1494,1042-1492.9L1042-1492.9z"/>
			<path class="st18" d="M1292.5-1495.2v-8c0-1-0.8-1.8-1.8-1.8c-1,0-1.8,0.8-1.8,1.8v8c0,1,0.8,1.8,1.8,1.8
				C1291.6-1493.4,1292.5-1494.2,1292.5-1495.2z"/>
			<path class="st19" d="M1292.4-1494.7c0-0.2,0.1-0.4,0.2-0.5c0.1-0.3-0.1,0.1,0.1-0.3c0.2-0.4,0.3-0.5,0.4-0.8
				c0.9-1.4,2.1-2.5,3.6-3.2c2.1-1.1,0.2-4.2-1.8-3.1c-2.7,1.4-5.3,3.9-6,7C1288.4-1493.4,1291.9-1492.5,1292.4-1494.7
				L1292.4-1494.7z"/>
			<path class="st19" d="M1284.9-1499l-0.3-0.1c0.1,0.1,0.3,0.1,0.4,0.2c0.3,0.2,0.8,0.5,1,0.6c1.3,1.1,2.4,2.4,3.1,4
				c1,2.1,4.2,0.3,3.1-1.8c-1.3-2.7-3.5-5.3-6.4-6.4C1283.6-1503.3,1282.7-1499.8,1284.9-1499L1284.9-1499z"/>
			<path class="st20" d="M1218-1509v-5.5c0-0.5-0.4-0.9-0.9-0.9c-0.5,0-0.9,0.4-0.9,0.9v5.5c0,0.5,0.4,0.9,0.9,0.9
				C1217.6-1508.1,1218-1508.5,1218-1509L1218-1509z"/>
			<path class="st19" d="M1218.2-1508c0,0.3,0-0.1,0.1-0.3c0.1-0.4,0.2-0.7,0.4-1.1c0.7-1.3,1.7-2.3,3-2.9c1-0.6,0.1-2.1-0.9-1.6
				c-2.1,1.2-4.1,3.3-4.3,5.8C1216.3-1506.8,1218.1-1506.8,1218.2-1508L1218.2-1508z"/>
			<path class="st19" d="M1213.2-1512.1C1213-1512.1,1213.1-1512.2,1213.2-1512.1c-0.1-0.1,0.5,0.3,0.6,0.4c1.2,1.2,2.1,2.6,2.8,4.2
				c0.5,1,2.1,0.1,1.6-0.9c-0.7-1.8-1.8-3.4-3.2-4.7c-0.5-0.4-1-0.7-1.7-0.8C1212.1-1513.8,1212-1512,1213.2-1512.1L1213.2-1512.1z"
				/>
			<path class="st21" d="M2165.7-1522.1v-5.5c0-0.5-0.4-0.9-0.9-0.9s-0.9,0.4-0.9,0.9l0,0v5.5c0,0.5,0.4,0.9,0.9,0.9
				S2165.7-1521.6,2165.7-1522.1z"/>
			<path class="st19" d="M2165.9-1521.1c0,0.3,0-0.1,0.1-0.3c0.1-0.4,0.2-0.7,0.4-1.1c0.7-1.3,1.7-2.3,3-2.9c1-0.6,0.1-2.1-0.9-1.6
				c-2.1,1.2-4.1,3.3-4.4,5.8C2164-1519.9,2165.8-1519.9,2165.9-1521.1L2165.9-1521.1z"/>
			<path class="st19" d="M2160.9-1525.2C2160.7-1525.2,2160.8-1525.3,2160.9-1525.2c-0.1-0.1,0.5,0.3,0.6,0.4
				c1.2,1.2,2.1,2.6,2.7,4.2c0.5,1.1,2.1,0.1,1.6-0.9c-0.7-1.8-1.8-3.4-3.2-4.7c-0.4-0.4-1-0.7-1.7-0.8
				C2159.7-1527,2159.7-1525.2,2160.9-1525.2L2160.9-1525.2z"/>
			<g>
				<ellipse cx="2538.7" cy="-1500.1" rx="17.6" ry="1"/>
				<path class="st15" d="M2555.6-1499.1c0,0,8.4-0.7,1.3-7.5c-2.8-2.6-15.8-7-21,2.7c0,0-3.1,4.7,5,4.8
					S2555.6-1499.1,2555.6-1499.1z"/>
				<ellipse cx="2576.3" cy="-1500.4" rx="11.4" ry="1.1"/>
				<path class="st22" d="M2581.5-1502.3v-10.3c0-2.7-4.2-2.7-4.2,0v10.3C2577.3-1499.6,2581.5-1499.6,2581.5-1502.3z"/>
				<path class="st19" d="M2581.2-1501.5c1.3-2.6,3.2-4.8,5.6-6.5c2.2-1.5,0.1-5.1-2.1-3.6c-3,2-5.5,4.8-7.1,8
					C2576.4-1501.2,2580-1499,2581.2-1501.5L2581.2-1501.5z"/>
				<path class="st19" d="M2572.1-1507.9l0.2,0.1c0.4,0.3-0.2-0.2,0.2,0.2c0.5,0.4,1,0.8,1.4,1.3c1.5,1.5,2.7,3.2,3.6,5.1
					c1.2,2.4,4.8,0.3,3.6-2.1c-1.6-3.3-4-6.1-7-8.2C2571.9-1513.1,2569.8-1509.4,2572.1-1507.9L2572.1-1507.9z"/>
			</g>
			
				<linearGradient id="SVGID_19_" gradientUnits="userSpaceOnUse" x1="2244.5767" y1="-2506.7927" x2="2244.5767" y2="-2365.5024" gradientTransform="matrix(1 0 0 -1 0 -4044.9651)">
				<stop  offset="0" style="stop-color:#773C41"/>
				<stop  offset="0.55" style="stop-color:#642F36"/>
				<stop  offset="1" style="stop-color:#51222B"/>
			</linearGradient>
			<path class="st33" d="M2549.9-1661.9l-12.4,46.1c-2.8,10.2-14.2,17.6-27.4,17.6h-7.1c-15.4,0-28-9.9-28-22.2v-11.1
				c0-12.3-12.5-22.2-28-22.2h-33.9c-11.1,0-21.2,5.2-25.6,13.3l0,0c-4.4,8.1-14.5,13.3-25.7,13.3h-106.5
				c-12.4,0-23.3,6.4-26.8,15.8l-4.2,11.2c-3.5,9.3-14.2,15.7-26.4,15.8l-43.6,0.5h-52.2c-15.4,0-28-9.9-28-22.2v-43
				c0-12.3-12.5-22.2-28-22.2h-14.6c-12.3,0-23.2,6.4-26.8,15.7l-4.8,12.6c-3.6,9.3-14.5,15.7-26.8,15.7h-20.5
				c-10.7,0-20.5,4.8-25.2,12.5l-6.1,10c-4.7,7.6-14.4,12.5-25.2,12.5h-34.7c-15.4,0-28,9.9-28,22.2v9.1c0,12.3,12.5,22.2,28,22.2
				h612.9v0.3h181l0.2-39.5l0,0c-11.5,0-20.9-9.3-20.9-20.7c0,0,0,0,0-0.1v-58.8c0-12.3-12.5-22.2-28-22.2h-29.6
				C2564.1-1679.5,2552.7-1672.1,2549.9-1661.9z"/>
			
				<linearGradient id="SVGID_20_" gradientUnits="userSpaceOnUse" x1="1150.0778" y1="-2506.8591" x2="1150.0778" y2="-2374.0024" gradientTransform="matrix(1 0 0 -1 0 -4044.9651)">
				<stop  offset="0" style="stop-color:#773C41"/>
				<stop  offset="0.55" style="stop-color:#642F36"/>
				<stop  offset="1" style="stop-color:#51222B"/>
			</linearGradient>
			<path class="st34" d="M1507.9-1592h-45.2c-14,0-26.7-4.8-32.8-12.5l-8-10c-6.1-7.6-18.8-12.5-32.8-12.5h-26.7
				c-16,0-30.2-6.4-34.8-15.7l-6.3-12.6c-4.7-9.3-18.8-15.7-34.8-15.7h-18.9c-20.1,0-36.4,9.9-36.4,22.2v43
				c0,12.3-16.3,22.2-36.4,22.2h-68l-56.7-0.5c-15.9-0.1-29.9-6.6-34.4-15.8l-5.5-11.2c-4.6-9.4-18.8-15.8-34.9-15.8H856.4
				c-14.5,0-27.6-5.2-33.4-13.3c-5.8-8.1-18.9-13.3-33.4-13.3h-44.9c-5.3,0.1-9.6,4.4-9.6,9.8v105.4h772.9c12.3,0,33.8,1.2,48.7-0.7
				c5.4-0.7,9.1-5.6,8.5-10.9c-0.3-2.6-1.7-4.9-3.7-6.5l-3.4-2.7c-6.4-5.1-11.7-11.3-15.9-18.3C1536.9-1586,1523.5-1592,1507.9-1592
				z"/>
			<path class="st35" d="M1769.5-2069.7L1769.5-2069.7c0-8.1,6.6-14.7,14.7-14.7l371.2-1c8.1,0,14.7,6.6,14.8,14.7c0,0,0,0,0,0l0,0
				c0,8.1-6.6,14.7-14.7,14.7c0,0,0,0,0,0h-44.8c-8.1,0-14.7,6.6-14.7,14.7v11.2c0,8.1,6.6,14.7,14.7,14.7H2258
				c8.1,0,14.7,6.6,14.7,14.7l0,0c0,8.1-6.6,14.7-14.7,14.7h-258.6c-8.1,0-14.7-6.6-14.7-14.7l0,0c0-8.1,6.6-14.7,14.7-14.7h16
				c8.1,0,14.7-6.6,14.7-14.7v-11.2c0-8.1-6.6-14.7-14.7-14.7c0,0-0.1,0-0.1,0l-231,0.9C1776.2-2054.9,1769.6-2061.5,1769.5-2069.7
				C1769.5-2069.6,1769.5-2069.7,1769.5-2069.7z"/>
		</g>
		<path class="st36" d="M2490.5-1481.5v-17.6c0-9.7-15-9.7-15,0v17.6H2490.5z"/>
		<path class="st19" d="M2463.4-1482.8c0.5,0.3,1,0.6,1.5,1l0.4,0.3h20.9c-4-5.7-9.2-10.6-15.2-14.2
			C2462.6-1500.6,2455-1487.7,2463.4-1482.8z"/>
		<path class="st19" d="M2500.9-1481.5c0.7-0.4,1.3-0.9,2-1.3c8.3-4.9,0.8-17.9-7.6-13c-6.2,3.7-11.6,8.5-15.8,14.3H2500.9z"/>
	</g>
</g>
<path class="st37" d="M1201-1902.3L1201-1902.3c0-5.3,3.5-9.6,7.7-9.6h617.6c4.3,0,7.7,4.3,7.7,9.6l0,0c0,5.3-3.4,9.5-7.7,9.5
	h-115.2c-32.3,0.6-64.6,0-96.9,0.7c-4.2,0.1-7.6,6.9-7.6,12.1v1.3c0,5.2,3.4,11.8,7.6,11.9c31.3,0.6,62.7-0.3,94,0.3h284.5
	c4.3,0,7.7,4.3,7.7,9.5l0,0c0,5.3-3.4,9.6-7.7,9.6h-617.7c-4.3,0-7.7-4.3-7.7-9.6l0,0c0-5.3,3.4-9.5,7.7-9.5h118.5
	c4.3,0,7.7-4.3,7.7-9.6c0-2.3,0-4.8,0-7.2c0-5.3-3.5-9.5-7.7-9.5h-284.9C1204.5-1892.7,1201-1897,1201-1902.3z"/>
<path class="st37" d="M0,9.6L0,9.6C0,4.3,3.5,0,7.7,0h617.6c4.3,0,7.7,4.3,7.7,9.6l0,0c0,5.3-3.4,9.5-7.7,9.5H510.1
	c-32.3,0.5-64.6,0-96.9,0.7c-4.2,0.1-7.6,6.9-7.6,12.1v1.3c0,5.2,3.4,11.8,7.6,11.9c31.3,0.6,62.7-0.3,94,0.3h284.5
	c4.3,0,7.7,4.3,7.7,9.5l0,0c0,5.3-3.4,9.6-7.7,9.6H174.1c-4.3,0-7.7-4.3-7.7-9.6l0,0c0-5.3,3.4-9.5,7.7-9.5h118.5
	c4.3,0,7.7-4.3,7.7-9.6c0-2.3,0-4.8,0-7.2c0-5.3-3.5-9.5-7.7-9.5H7.7C3.4,19.1,0,14.8,0,9.6z"/>
<g id="planet_1_">
	<ellipse class="st38" cx="3345.3" cy="-670.5" rx="115.7" ry="116.7"/>
	<path class="st39" d="M3241-720.9h208.7c-9.1-19.2-23.4-35.6-41.1-47.3h-126.4C3264.4-756.5,3250.2-740.1,3241-720.9z"/>
	<path class="st40" d="M3232.3-695.4h226c-1.6-7.2-3.8-14.3-6.7-21.1H3239C3236.1-709.7,3233.9-702.7,3232.3-695.4z"/>
	<path class="st38" d="M3229.7-670.5c0,4.3,0.2,8.6,0.7,12.9h230c0.5-4.3,0.7-8.6,0.7-12.9c0-8.4-0.9-16.8-2.7-25h-226
		C3230.6-687.3,3229.7-678.9,3229.7-670.5z"/>
	<path class="st38" d="M3293.9-565.9c32.4,16.2,70.5,16.2,102.8,0H3293.9z"/>
	<path class="st40" d="M3230.2-659c3.3,34.8,22.1,66.4,51.2,85.9h127.8c29.1-19.5,47.9-51,51.2-85.9H3230.2z"/>
	<path class="st41" d="M3249.4-605.2h191.8c4.4-6.6,8.2-13.7,11.2-21.1h-214.2C3241.2-618.9,3245-611.9,3249.4-605.2z"/>
	<path class="st42" d="M3391.6-639.4h-52c-7,0-12.6,5.7-12.6,12.7c0,0,0,0,0,0l0,0c0,7,5.6,12.7,12.6,12.7c0,0,0,0,0,0h52
		c7,0,12.6-5.7,12.6-12.7c0,0,0,0,0,0l0,0C3404.2-633.7,3398.6-639.4,3391.6-639.4C3391.6-639.4,3391.6-639.4,3391.6-639.4z"/>
	<path class="st38" d="M3428-661.3c0.1-9.9-7.9-18-17.9-18.1c0,0-0.1,0-0.1,0h-180c-0.2,3-0.3,6-0.3,9c0,9.2,1.1,18.4,3.2,27.4H3410
		c9.9,0,18-8.1,18-18c0,0,0-0.1,0-0.1V-661.3z"/>
	<path class="st38" d="M3381.1-595h-124c10.2,12.1,22.7,22,36.8,29.1h87.2c8,0,14.5-6.5,14.4-14.5c0,0,0,0,0,0l0,0
		C3395.6-588.5,3389.2-595,3381.1-595C3381.2-595,3381.1-595,3381.1-595z"/>
	<path class="st38" d="M3402.4-728.9h-157.2c-4.1,7.1-7.5,14.7-10,22.6h167.2c6.2,0,11.2-5.1,11.2-11.3c0,0,0,0,0,0l0,0
		C3413.6-723.8,3408.6-728.9,3402.4-728.9z"/>
	<path class="st38" d="M3408.5-768.2c-38.4-25.3-88.1-25.3-126.4,0H3408.5z"/>
	<path class="st41" d="M3400.5-773h-96c-7.5,0-13.6,6.1-13.6,13.7v0.1c0,7.5,6,13.6,13.5,13.7c0,0,0,0,0,0h129.3
		C3424.5-756.7,3413.2-766,3400.5-773z"/>
	<ellipse class="st43" cx="3285.1" cy="-706.4" rx="42.1" ry="42.4"/>
	<g class="st44">
		<ellipse class="st45" cx="3345.3" cy="-670.5" rx="115.7" ry="116.7"/>
	</g>
	
		<linearGradient id="SVGID_21_" gradientUnits="userSpaceOnUse" x1="3345.2761" y1="-3491.7307" x2="3345.2761" y2="-3258.3506" gradientTransform="matrix(1 0 0 -1 0 -4044.9651)">
		<stop  offset="0" style="stop-color:#7D586E"/>
		<stop  offset="0.14" style="stop-color:#815A6D;stop-opacity:0.97"/>
		<stop  offset="0.27" style="stop-color:#8D606A;stop-opacity:0.88"/>
		<stop  offset="0.4" style="stop-color:#A16A66;stop-opacity:0.72"/>
		<stop  offset="0.53" style="stop-color:#BE7960;stop-opacity:0.5"/>
		<stop  offset="0.66" style="stop-color:#E28B57;stop-opacity:0.22"/>
		<stop  offset="0.74" style="stop-color:#FF9A51;stop-opacity:0"/>
	</linearGradient>
	<ellipse class="st46" cx="3345.3" cy="-669.9" rx="115.7" ry="116.7"/>
</g>
<g>
	<g>
		<path class="st47" d="M3872.7-2633.7c-2.4,2.5-25.9,4.1-25.9,4.1s32.4,23.4,32.6,25.9c0.2,4.1-9.3,4.2-9.3,4.2l24.5,9.9
			c0.6,0.2,1.2,0.4,1.8,0.6c13.7,3.8,27.9-4.2,31.8-17.9c3.8-13.5-4-27.6-17.6-31.5c-0.1,0-0.1,0-0.2-0.1c-1.5-0.4-4.5-0.8-4.5-0.8
			l-34.9-1.6C3870.9-2641,3874.9-2636,3872.7-2633.7z"/>
		<path class="st48" d="M3883.3-2627.1c-1.6,1.7-17.8,2.8-17.8,2.8s19,15.7,19.1,17.4c0.1,2.8-3.2,3.2-3.2,3.2l16.8,6.7
			c0.4,0.1,0.8,0.3,1.2,0.4c9.4,2.5,19.1-2.9,21.9-12.3c2.7-9.2-2.7-18.8-11.9-21.5c-0.1,0-0.2-0.1-0.3-0.1c-1-0.3-3.1-0.6-3.1-0.6
			l-24-1C3882-2632,3884.8-2628.6,3883.3-2627.1z"/>
		<path class="st49" d="M3917-2620.5c3.9,6.8,1.6,15.6-5.3,19.5c-6.8,3.9-15.6,1.6-19.5-5.3c-3.9-6.8-1.6-15.6,5.3-19.5
			c0,0,0.1,0,0.1,0C3904.4-2629.7,3913.1-2627.3,3917-2620.5C3917-2620.5,3917-2620.5,3917-2620.5z"/>
	</g>
	<path class="st50" d="M3872.7-2633.7c-2.4,2.5-25.9,4.1-25.9,4.1s32.4,23.4,32.6,25.9c0.2,4.1-9.3,4.2-9.3,4.2l24.5,9.9
		c0.6,0.2,1.2,0.4,1.8,0.6c13.7,3.8,27.9-4.2,31.8-17.9c3.8-13.5-4-27.6-17.6-31.5c-0.1,0-0.1,0-0.2-0.1c-1.5-0.4-4.5-0.8-4.5-0.8
		l-34.9-1.6C3870.9-2641,3874.9-2636,3872.7-2633.7z"/>
</g>
<g id="comet_1_1_">
	<path class="st47" d="M3764.3-2696.4c-1.8,1.9-20.1,3.1-20.1,3.1s25.1,18.3,25.2,20.2c0.2,3.1-7.2,3.3-7.2,3.3l19,7.7
		c0.5,0.2,0.9,0.3,1.4,0.4c10.6,2.9,21.6-3.2,24.6-13.8c3-10.5-3.1-21.5-13.6-24.5c-0.1,0-0.1,0-0.2,0c-1.2-0.3-3.5-0.6-3.5-0.6
		l-27.1-1.3C3763-2702,3766-2698.2,3764.3-2696.4z"/>
	<path class="st48" d="M3772.5-2691.2c-1.3,1.3-13.8,2.2-13.8,2.2s14.8,12.2,14.8,13.5c0.1,2.1-2.4,2.5-2.4,2.5l13,5.2
		c0.3,0.1,0.6,0.2,1,0.3c7.3,2,14.9-2.2,17-9.5c2.1-7.1-2-14.6-9.2-16.7c-0.1,0-0.2,0-0.2-0.1c-0.8-0.2-2.4-0.4-2.4-0.4l-18.6-0.9
		C3771.6-2695.1,3773.6-2692.4,3772.5-2691.2z"/>
	<path class="st49" d="M3798.6-2686.1c3,5.3,1.2,12.1-4.1,15.1c-5.3,3-12.1,1.2-15.1-4.1c-3-5.3-1.2-12.1,4.1-15.1
		c0,0,0.1,0,0.1-0.1C3788.9-2693.2,3795.6-2691.4,3798.6-2686.1C3798.6-2686.1,3798.6-2686.1,3798.6-2686.1z"/>
	<path class="st50" d="M3764.3-2696.4c-1.8,1.9-20.1,3.1-20.1,3.1s25.1,18.3,25.2,20.2c0.2,3.1-7.2,3.3-7.2,3.3l19,7.7
		c0.5,0.2,0.9,0.3,1.4,0.4c10.6,2.9,21.6-3.2,24.6-13.8c3-10.5-3.1-21.5-13.6-24.5c-0.1,0-0.1,0-0.2,0c-1.2-0.3-3.5-0.6-3.5-0.6
		l-27.1-1.3C3763-2702,3766-2698.2,3764.3-2696.4z"/>
</g>
<path class="st51" d="M3302.6-1561.9h848c4.8,0,8.8,3.9,8.8,8.8c0,0,0,0,0,0v16.4l0,0h-867.3l0,0v-14.7
	C3292.1-1557.2,3296.8-1561.9,3302.6-1561.9z"/>
<path class="st52" d="M3801.9-1913.8c-4.2-0.1,8.1,5.1,3.2,5.1l-16.2,26.7c-4.4,3.4-6.9,8.1-6.9,12.9v345.3h80.6v-371.7
	C3862.6-1909.1,3852.6-1913.2,3801.9-1913.8z"/>
<path class="st51" d="M3853.5-1883c-0.1-2.7-2.8-4.8-6.3-4.8h-56.2c-3.5,0-6.3,2.2-6.3,4.9v30c0,0.2-0.1,0.5-0.1,0.7
	c0,0.1,0,0.1,0,0.2c0,1.1,0.4,2.1,1.1,2.9l0,0c1.8,1.8,4.5,2.5,7,1.9h54.3c3.5,0,6.3-2.2,6.3-4.9v-29.7
	C3853.5-1882.2,3853.6-1882.6,3853.5-1883z M3797.4-1878h30.6l-30.6,16.6L3797.4-1878z M3841-1873v15.9h-29.4L3841-1873z"/>
<path class="st51" d="M3894-1843.8c-0.1-2.7-2.8-4.8-6.3-4.8h-56.2c-9.9-0.6-6.3,2.2-6.3,4.9v30c0,0.2-0.1,0.5-0.1,0.7
	c0,0,0,0.1,0,0.2c0,1-2.9,1.7-2.1,2.5l-0.2,0.3c1.6,1.8-4.4,1.7,10.5,1.9h54.3c3.5,0,6.3-2.2,6.3-4.9v-29.7
	C3894-1843.1,3894-1843.4,3894-1843.8z M3837.8-1838.8h30.6l-30.6,16.6V-1838.8z M3881.4-1833.9v15.9H3852L3881.4-1833.9z"/>
<path class="st51" d="M3853.5-1803.5c-0.1-2.7-2.8-4.8-6.3-4.8h-56.2c-3.5,0-6.3,2.2-6.3,4.9v30c0,0.2-0.1,0.5-0.1,0.7
	c0,0,0,0.1,0,0.2c0,1.1,0.4,2.1,1.1,2.8l0,0c1.8,1.8,4.5,2.5,7,1.9h54.3c3.5,0,6.3-2.2,6.3-4.9v-29.7
	C3853.5-1802.8,3853.6-1803.2,3853.5-1803.5z M3797.4-1798.5h30.6l-30.6,16.5V-1798.5z M3841-1793.5v15.9h-29.4L3841-1793.5z"/>
<path class="st51" d="M3894-1766.9c-0.1-2.7-2.8-4.8-6.3-4.8h-56.2c-3.5,0-6.3,2.2-6.3,4.9v29.9c0,0.2-0.1,0.5-0.1,0.7
	c0,0,0,0.1,0,0.2c0,1-3.2,1.6-2.4,2.4l-0.8-0.1c1.6,1.8-11.1,2.4,11.4,2.4h54.3c3.5,0,6.3-2.2,6.3-4.9v-29.7
	C3894-1766.1,3894-1766.5,3894-1766.9z M3837.8-1761.9h30.6l-30.6,16.6V-1761.9z M3881.4-1756.9v15.9H3852L3881.4-1756.9z"/>
<path class="st51" d="M3852.9-1726.3c0-2.7-2.8-4.8-6.3-4.8h-56.2c-3.5,0-6.3,2.2-6.3,4.9v30c0,0.2-0.1,0.5-0.1,0.7c0,0,0,0.1,0,0.2
	c0,1.1,0.4,2.1,1.1,2.8l0,0c1.8,1.8,4.5,2.6,7.1,1.9h54.3c3.5,0,6.3-2.2,6.3-4.9v-29.7C3852.9-1725.5,3852.9-1725.9,3852.9-1726.3z
	 M3796.7-1721.3h30.7l-30.6,16.6L3796.7-1721.3z M3840.3-1716.3v15.8h-29.4L3840.3-1716.3z"/>
<path class="st51" d="M3852.9-1695.6c0-2.7-2.8-4.8-6.3-4.8h-56.2c-3.5,0-6.3,2.2-6.3,4.9v30c0,0.2-0.1,0.5-0.1,0.7c0,0,0,0.1,0,0.2
	c0,1.1,0.4,2.1,1.1,2.8l0,0c1.8,1.8,4.5,2.6,7.1,1.9h54.3c3.5,0,6.3-2.2,6.3-4.9v-29.6C3852.9-1694.9,3852.9-1695.2,3852.9-1695.6z
	 M3796.7-1690.6h30.7l-30.6,16.6L3796.7-1690.6z M3840.3-1685.7v15.9h-29.4L3840.3-1685.7z"/>
<path class="st51" d="M3852.9-1665c0-2.7-2.8-4.8-6.3-4.8h-56.2c-3.5,0-6.3,2.2-6.3,4.9v29.9c0,0.2-0.1,0.5-0.1,0.7c0,0,0,0.1,0,0.2
	c0,1.1,0.4,2.1,1.1,2.9l0,0c1.8,1.8,4.5,2.6,7.1,1.9h54.3c3.5,0,6.3-2.2,6.3-4.9v-29.6C3852.9-1664.2,3852.9-1664.6,3852.9-1665z
	 M3796.7-1660h30.7l-30.6,16.6L3796.7-1660z M3840.3-1655v15.9h-29.4L3840.3-1655z"/>
<path class="st51" d="M3852.9-1634.3c0-2.7-2.8-4.8-6.3-4.8h-56.2c-3.5,0-6.3,2.2-6.3,4.9v30c0,0.2-0.1,0.5-0.1,0.7
	c0,0.1,0,0.1,0,0.2c0,1.1,0.4,2.1,1.1,2.8l0,0c1.8,1.8,4.5,2.6,7.1,1.9h54.3c3.5,0,6.3-2.2,6.3-4.9v-29.7
	C3852.9-1633.6,3852.9-1634,3852.9-1634.3z M3796.7-1629.3h30.7l-30.6,16.6L3796.7-1629.3z M3840.3-1624.3v15.8h-29.4L3840.3-1624.3
	z"/>
<path class="st51" d="M3852.9-1595.3c0-2.7-2.8-4.8-6.3-4.8h-56.2c-3.5,0-6.3,2.2-6.3,4.9v29.9c0,0.2-0.1,0.5-0.1,0.7
	c0,0,0,0.1,0,0.2c0,1.1,0.4,2.1,1.1,2.8l0,0c1.8,1.8,4.5,2.6,7.1,1.9h54.3c3.5,0,6.3-2.2,6.3-4.9v-29.6
	C3852.9-1594.5,3852.9-1594.9,3852.9-1595.3z M3796.7-1590.3h30.7l-30.6,16.6L3796.7-1590.3z M3840.3-1585.3v15.9h-29.4
	L3840.3-1585.3z"/>
<path class="st53" d="M3799.6-1852.6h95.6c0,0,0.1,0,0.1,0.1v4.8c0,0,0,0.1-0.1,0.1h-95.6c0,0-0.1,0-0.1-0.1L3799.6-1852.6
	C3799.5-1852.6,3799.5-1852.6,3799.6-1852.6z"/>
<rect x="3797.4" y="-1775.2" class="st53" width="95.8" height="4"/>
<path class="st52" d="M3760.2-1905.3l-29.8,23.3c-4.4,3.4-6.9,8.1-6.9,12.9v343h80.7v-369.4c0-7.8,6.6-15.5-1-18.3
	C3803.1-1913.7,3774.9-1916.9,3760.2-1905.3z"/>
<path class="st53" d="M3785.2-1908.4l-33.8,26.4c-4.4,3.4-6.9,8.1-6.9,12.9v343h80.7v-369.4
	C3825.2-1911.7,3799.9-1919.9,3785.2-1908.4z"/>
<path class="st52" d="M3748.4-1595.8v4.1c-0.1,1.4,1,2.6,2.4,2.6l0,0c1.4,0,2.5-1.2,2.4-2.6c0,0,0,0,0,0v-4.1c0.1-1.4-1-2.6-2.4-2.6
	c0,0,0,0,0,0l0,0C3749.4-1598.4,3748.4-1597.2,3748.4-1595.8z"/>
<path class="st52" d="M3748.4-1608.8v4.1c-0.1,1.4,1,2.6,2.4,2.6l0,0c1.4,0,2.5-1.2,2.4-2.6c0,0,0,0,0,0v-4.1c0.1-1.4-1-2.6-2.4-2.6
	c0,0,0,0,0,0l0,0C3749.4-1611.4,3748.4-1610.2,3748.4-1608.8z"/>
<path class="st54" d="M3807.9-1904.4h4.1c1.4,0.1,2.6-1,2.6-2.4l0,0c0-1.4-1.2-2.5-2.6-2.4c0,0,0,0,0,0h-4.1c-1.4-0.1-2.6,1-2.6,2.4
	c0,0,0,0,0,0l0,0C3805.4-1905.4,3806.6-1904.3,3807.9-1904.4z"/>
<path class="st52" d="M3788.1-1889.8l-23.2,17.9c-4.7,3.6-7.5,8.3-8.1,13.4c-0.2,1.6-0.3,3.3-0.3,4.9v19.5c0-4.5,2-8.9,5.3-11.9
	l28-23.6c9.1-7.7,29.3-3.8,29.3,11.2v-19.5C3819.2-1892.9,3799.6-1900.4,3788.1-1889.8z"/>
<path class="st55" d="M3824.8-1828.3h-16.8c-0.8,0-1.6,0.3-2.3,0.8l-41.7,32.6c-0.6,0.4-1.3,0.7-2,0.7h-15.8c-0.6,0-1.2,0.5-1.2,1.2
	l0,0c0,0.6,0.5,1.2,1.2,1.2c0,0,0,0,0,0h16.4c1.1,0,2.1-0.4,2.9-1l41.4-32.4c0.5-0.4,1.2-0.7,1.9-0.7h15.9c0.6,0,1.1-0.5,1.2-1.1
	l0,0C3826-1827.7,3825.5-1828.2,3824.8-1828.3C3824.8-1828.3,3824.8-1828.3,3824.8-1828.3z"/>
<path class="st55" d="M3824.8-1800.5h-16.8c-0.8,0-1.6,0.3-2.3,0.8l-41.7,32.6c-0.6,0.4-1.3,0.7-2,0.7h-15.8c-0.6,0-1.2,0.5-1.2,1.2
	l0,0c0,0.6,0.5,1.2,1.2,1.2c0,0,0,0,0,0h16.4c1.1,0,2.1-0.4,2.9-1l41.4-32.4c0.5-0.4,1.2-0.7,1.9-0.7h15.9c0.6,0,1.1-0.5,1.2-1.1
	l0,0C3826-1799.9,3825.5-1800.4,3824.8-1800.5C3824.8-1800.5,3824.8-1800.5,3824.8-1800.5z"/>
<path class="st52" d="M3802-1675.4h3.6c7.1,0,12.9,5.8,12.9,12.9v59.3c0,7.1-5.8,12.9-12.9,12.9h-3.6c-7.1,0-12.9-5.8-12.9-12.9
	v-59.3C3789.1-1669.6,3794.8-1675.4,3802-1675.4z"/>
<path class="st56" d="M3940.7-1572.2v-24.3c-1-3.6,0-24.7-46.1-24.7c-46.1,0-45.1,21.1-46.1,24.7v24.3H3940.7z"/>
<path class="st57" d="M3869-1769.5L3869-1769.5v197.3h51.2v-197.3l0,0c-0.4-4.9-2.7-9.5-6.5-12.6v-59.8c4-2.2,6.6-5.8,6.6-9.8v-78.9
	l0,0c-0.5-10.7-11.8-45.6-25.6-45.6c-13.8,0-25.1,34.9-25.6,45.6l0,0v79.3c0,4.1,2.6,7.7,6.6,9.8v59.4
	C3871.8-1779,3869.4-1774.4,3869-1769.5z"/>
<path class="st58" d="M3869-1769.5L3869-1769.5v197.3h51.2v-197.3l0,0c-0.4-4.9-2.7-9.5-6.5-12.6v-59.8c4-2.2,6.6-5.8,6.6-9.8v-78.9
	l0,0c-0.5-10.7-11.8-45.6-25.6-45.6c-13.8,0-25.1,34.9-25.6,45.6l0,0v79.3c0,4.1,2.6,7.7,6.6,9.8v59.4
	C3871.8-1779,3869.4-1774.4,3869-1769.5z"/>
<path class="st59" d="M3869-1649.3L3869-1649.3v30.8c0,0.2,0.1,0.5,0.2,0.7h50.8c0.1-0.2,0.2-0.5,0.2-0.8v-30.6l0,0c0,0,0-0.1,0-0.1
	H3869C3869-1649.5,3869-1649.4,3869-1649.3z"/>
<path class="st60" d="M3869-1769.5L3869-1769.5v4.8h51.2v-4.8l0,0c0-0.3,0-0.7-0.1-1.1h-51C3869.1-1770.2,3869-1769.8,3869-1769.5z"
	/>
<path class="st60" d="M3869-1929.6L3869-1929.6v4.8h51.2v-4.8l0,0c0-0.3,0-0.7-0.1-1h-51C3869.1-1930.2,3869-1929.9,3869-1929.6z"/>
<path class="st58" d="M3893.9-2005.4l-5.4,57.8l10.1,0.3l0,0c0.7,0,1.5,0,2.2,0l-6.2-58L3893.9-2005.4z"/>
<path class="st61" d="M3919.2-1847.4h-49.4c1.2,2.5,3.2,4.6,5.6,5.9h38.2v-0.3C3916-1843,3918-1845,3919.2-1847.4z"/>
<path class="st61" d="M3913.6-1782.1h-38.1c-1.9,1.6-3.4,3.5-4.6,5.7h47.3C3917.1-1778.5,3915.5-1780.5,3913.6-1782.1z"/>
<path class="st61" d="M3912.1-1757.6v4.8c0,0.8,0.6,1.5,1.4,1.5l0,0c0.8,0,1.4-0.7,1.4-1.5v-4.8c0-0.8-0.6-1.4-1.4-1.4c0,0,0,0,0,0
	l0,0C3912.7-1759,3912.1-1758.4,3912.1-1757.6C3912.1-1757.6,3912.1-1757.6,3912.1-1757.6z"/>
<path class="st61" d="M3874.3-1757.6v4.8c0,0.8,0.6,1.5,1.4,1.5h0.1c0.8,0,1.4-0.7,1.4-1.5v-4.8c0-0.8-0.6-1.4-1.4-1.5h0h-0.1
	C3875-1759,3874.3-1758.4,3874.3-1757.6C3874.3-1757.6,3874.3-1757.6,3874.3-1757.6z"/>
<rect x="3869" y="-1608" class="st60" width="51.2" height="5.9"/>
<path class="st62" d="M3884.7-1970.3c-8.8,10.3-15.2,31.3-15.7,39.5c0,0.1,0,0.2,0,0.3l0,0v79.3c0,4.1,2.6,7.7,6.6,9.8v59.3
	c-3.5,2.9-5.8,7-6.5,11.5l0,0c0,0.3-0.1,0.7-0.1,1l0,0v151.4c-10.6,2.8-19.4,9.6-20.5,21.9v25.5l20.5-1.5l15.7-0.8L3884.7-1970.3z"
	/>
<rect x="3981.8" y="-1692.1" transform="matrix(0.5579 -0.8299 0.8299 0.5579 3177.772 2588.8774)" class="st63" width="73.9" height="7.8"/>
<rect x="3981.8" y="-1638.2" transform="matrix(0.5579 -0.8299 0.8299 0.5579 3133.0515 2612.7017)" class="st63" width="73.9" height="7.8"/>
<rect x="3981.8" y="-1584.1" transform="matrix(0.5579 -0.8299 0.8299 0.5579 3088.1587 2636.6101)" class="st63" width="73.9" height="7.8"/>
<path class="st64" d="M4044.4-1757.8L4044.4-1757.8c3.1,0,5.6,2.5,5.6,5.6v209.6c0,3.1-2.5,5.6-5.6,5.6l0,0c-3.1,0-5.6-2.5-5.6-5.6
	v-209.6C4038.8-1755.3,4041.3-1757.8,4044.4-1757.8z"/>
<path class="st64" d="M3996.3-1739.1L3996.3-1739.1c3.1,0,5.6,2.5,5.6,5.6v191c0,3.1-2.5,5.6-5.6,5.6h0c-3.1,0-5.6-2.5-5.6-5.6v-191
	C3990.7-1736.6,3993.2-1739.1,3996.3-1739.1z"/>
<path class="st52" d="M4021.1-1729l-22.4,13.7c-4.5,2.8-7.3,6.4-7.8,10.3c-0.2,1.3-0.3,2.5-0.3,3.8v15c0-3.4,1.8-6.7,5.1-9.1
	l27-18.1c8.8-5.9,28.2-2.9,28.2,8.6v-15C4051.1-1731.4,4032.2-1737.2,4021.1-1729z"/>
<path class="st52" d="M4020.4-1770.7L3998-1757c-4.5,2.8-7.3,6.4-7.8,10.3c-0.2,1.2-0.3,2.5-0.3,3.8v26.3c0-3.4,1.9-6.7,5.1-9.1
	l27-18.1c8.8-5.9,28.2-2.9,28.2,8.6v-26.3C4050.3-1773.1,4031.4-1778.8,4020.4-1770.7z"/>
<path class="st52" d="M4020.4-1675.2l-22.4,13.8c-4.5,2.8-7.3,6.4-7.8,10.3c-0.2,1.3-0.3,2.5-0.3,3.8v15c0-3.4,1.9-6.7,5.1-9.1
	l27-18.1c8.8-5.9,28.2-2.9,28.2,8.6v-15C4050.3-1677.6,4031.4-1683.4,4020.4-1675.2z"/>
<path class="st52" d="M4020.4-1620.9l-22.4,13.7c-4.5,2.7-7.3,6.4-7.8,10.3c-0.2,1.2-0.3,2.5-0.3,3.8v15c0-3.4,1.9-6.7,5.1-9.1
	l27-18.1c8.8-5.9,28.2-2.9,28.2,8.6v-15C4050.3-1623.3,4031.4-1629,4020.4-1620.9z"/>
<path class="st52" d="M4020.4-1566.6l-22.4,13.7c-4.5,2.8-7.3,6.4-7.8,10.3c-0.2,1.3-0.3,2.5-0.3,3.8v14.9c0.9-0.1,5.4,0,5.4,0
	l29.7,0.6h25.3v-34.2C4050.3-1569,4031.4-1574.7,4020.4-1566.6z"/>
<path class="st52" d="M3705.3-1572.3h257.2c10.9,0,19.7,8.8,19.7,19.7l0,0v32.7l0,0h-298l0,0v-31.2
	C3684.2-1562.8,3693.6-1572.3,3705.3-1572.3z"/>
<path class="st51" d="M3736.8-1564h0.8c2.1,0,3.8,1.7,3.8,3.8v6.9c0,2.1-1.7,3.8-3.8,3.8h-0.8c-2.1,0-3.8-1.7-3.8-3.8v-6.9
	C3733-1562.3,3734.7-1564,3736.8-1564z"/>
<path class="st51" d="M3764.8-1565h0.8c2.1,0,3.8,1.7,3.8,3.8v6.9c0,2.1-1.7,3.8-3.8,3.8h-0.8c-2.1,0-3.8-1.7-3.8-3.8v-6.9
	C3761.1-1563.3,3762.7-1565,3764.8-1565z"/>
<path class="st51" d="M3826.5-1564h0.8c2.1,0,3.8,1.7,3.8,3.8v6.9c0,2.1-1.7,3.8-3.8,3.8h-0.8c-2.1,0-3.8-1.7-3.8-3.8v-6.9
	C3822.7-1562.3,3824.4-1564,3826.5-1564z"/>
<path class="st51" d="M3891.5-1564h0.8c2.1,0,3.8,1.7,3.8,3.8v6.9c0,2.1-1.7,3.8-3.8,3.8h-0.8c-2.1,0-3.8-1.7-3.8-3.8v-6.9
	C3887.7-1562.3,3889.4-1564,3891.5-1564z"/>
<path class="st51" d="M3955.6-1564h0.8c2.1,0,3.8,1.7,3.8,3.8v6.9c0,2.1-1.7,3.8-3.8,3.8h-0.8c-2.1,0-3.8-1.7-3.8-3.8v-6.9
	C3951.9-1562.3,3953.5-1564,3955.6-1564z"/>
<path class="st51" d="M3860.1-1564h0.8c2.1,0,3.8,1.7,3.8,3.8v6.9c0,2.1-1.7,3.8-3.8,3.8h-0.8c-2.1,0-3.8-1.7-3.8-3.8v-6.9
	C3856.3-1562.3,3858-1564,3860.1-1564z"/>
<path class="st51" d="M3795-1564h0.8c2.1,0,3.8,1.7,3.8,3.8v6.9c0,2.1-1.7,3.8-3.8,3.8h-0.8c-2.1,0-3.8-1.7-3.8-3.8v-6.9
	C3791.2-1562.3,3792.9-1564,3795-1564z"/>
<path class="st51" d="M3922.8-1564h0.8c2.1,0,3.8,1.7,3.8,3.8v6.9c0,2.1-1.7,3.8-3.8,3.8h-0.8c-2.1,0-3.8-1.7-3.8-3.8v-6.9
	C3919-1562.3,3920.7-1564,3922.8-1564z"/>
<path class="st52" d="M3301.3-1544.9h847.1c6.1,0,11,4.9,11,11l0,0v14.2l0,0h-867.3l0,0v-16
	C3292.1-1540.8,3296.2-1545,3301.3-1544.9L3301.3-1544.9z"/>
<path class="st35" d="M2929.7-445.9L2929.7-445.9c0-8.1,6.6-14.7,14.7-14.7l371.2-1c8.1,0,14.7,6.6,14.8,14.7c0,0,0,0,0,0l0,0
	c0,8.1-6.6,14.7-14.7,14.7c0,0,0,0,0,0h-44.8c-8.1,0-14.7,6.6-14.7,14.7v11.2c0,8.1,6.6,14.7,14.7,14.7h147.3
	c8.1,0,14.7,6.6,14.7,14.7l0,0c0,8.1-6.6,14.7-14.7,14.7h-258.6c-8.1,0-14.7-6.6-14.7-14.7l0,0c0-8.1,6.6-14.7,14.7-14.7h16
	c8.1,0,14.7-6.6,14.7-14.7v-11.2c0-8.1-6.6-14.7-14.7-14.7c0,0-0.1,0-0.1,0l-231,1C2936.4-431.1,2929.7-437.7,2929.7-445.9
	C2929.7-445.8,2929.7-445.8,2929.7-445.9z"/>
<path class="st36" d="M4500.3-1481.5v-17.6c0-9.7-15-9.7-15,0v17.6H4500.3z"/>
<path class="st19" d="M4473.2-1482.8c0.5,0.3,1,0.6,1.5,1l0.4,0.3h20.9c-4-5.7-9.2-10.6-15.2-14.2
	C4472.5-1500.6,4464.9-1487.7,4473.2-1482.8z"/>
<path class="st19" d="M4510.8-1481.5c0.6-0.4,1.3-0.9,2-1.3c8.3-4.9,0.8-17.9-7.6-13c-6.2,3.7-11.6,8.5-15.8,14.3H4510.8z"/>
<g>
	
		<linearGradient id="SVGID_22_" gradientUnits="userSpaceOnUse" x1="6978.54" y1="-4980.3965" x2="6978.54" y2="-4784.1265" gradientTransform="matrix(1 0 0 -1 0 -4044.9651)">
		<stop  offset="0.32" style="stop-color:#FBEDDA"/>
		<stop  offset="0.57" style="stop-color:#F8E7BA"/>
		<stop  offset="0.98" style="stop-color:#F1DB7B"/>
	</linearGradient>
	<path class="st65" d="M7385.6,805.9c0-0.9-0.7-1.6-1.6-1.6h-30.4c-18.2,0-34.3-9.4-39.6-23.3l-7.2-18.7
		c-5.3-13.8-21.4-23.3-39.6-23.3h-21.5c-22.9,0-41.5,14.7-41.5,32.9v63.8c0,18.2-18.6,32.9-41.5,32.9h-77.3l-64.5-0.7
		c-18.1-0.2-34-9.7-39.2-23.5l-6.3-16.7c-5.2-13.9-21.4-23.5-39.7-23.5h-157.9c-16.5,0-31.4-7.8-38-19.8l0,0
		c-6.6-12-21.5-19.8-38-19.8h-50.2c-22.9,0-41.5,14.7-41.5,32.9v16.3c0,17.6-9.2,34.9-31,36.8c-6.9,0.6-7.7,4-7.7,4
		c0.2,0.6,0.8,1.1,1.5,1.1c12.7,0.3,45.1-0.4,60.1,0.5c3,0.2,13,1.1,11.8,3.8l-32.8,73c-0.4,0.8,0,1.7,0.8,2.1
		c0.2,0.1,0.4,0.1,0.7,0.1H7384c0.9,0,1.6-0.7,1.6-1.6L7385.6,805.9z"/>
	
		<linearGradient id="SVGID_23_" gradientUnits="userSpaceOnUse" x1="6075.98" y1="-5011.0264" x2="6075.98" y2="-4801.6064" gradientTransform="matrix(1 0 0 -1 0 -4044.9651)">
		<stop  offset="0.32" style="stop-color:#FBEDDA"/>
		<stop  offset="0.57" style="stop-color:#F8E7BA"/>
		<stop  offset="0.98" style="stop-color:#F1DB7B"/>
	</linearGradient>
	<path class="st66" d="M5608.2,782.6l18.4,68.3c4.1,15.2,21,26,40.5,26h10.6c22.9,0,41.5-14.7,41.5-32.9v-16.3
		c0-18.2,18.6-32.9,41.5-32.9h50.2c16.5,0,31.4,7.8,38,19.8l0,0c6.6,12,21.5,19.8,38,19.8h157.9c18.3,0,34.5,9.5,39.7,23.5l6.3,16.7
		c5.2,13.8,21,23.3,39.2,23.5l64.5,0.7h77.3c22.9,0,41.5-14.7,41.5-32.9v-63.8c0-18.2,18.6-32.9,41.5-32.9h21.5
		c18.2,0,34.3,9.5,39.6,23.3l7.2,18.7c5.3,13.8,21.4,23.3,39.6,23.3h30.4c15.9,0,30.3,7.2,37.3,18.5l9.1,14.8
		c6.9,11.3,21.4,18.5,37.3,18.5h51.3c22.9,0,41.5,14.7,41.5,32.9v13.5c0,18.2-18.6,32.9-41.5,32.9H5720v0.5h-237.6V789.5
		c0-18.2,18.6-32.9,41.4-32.9h43.8C5587.2,756.6,5604.1,767.5,5608.2,782.6z"/>
	
		<linearGradient id="SVGID_24_" gradientUnits="userSpaceOnUse" x1="6433.9951" y1="-4784.1265" x2="6433.9951" y2="-5011.0063" gradientTransform="matrix(1 0 0 -1 0 -4044.9651)">
		<stop  offset="0.15" style="stop-color:#532037;stop-opacity:0.89"/>
		<stop  offset="0.23" style="stop-color:#5E263A;stop-opacity:0.9"/>
		<stop  offset="0.37" style="stop-color:#7B3641;stop-opacity:0.92"/>
		<stop  offset="0.56" style="stop-color:#AB504D;stop-opacity:0.95"/>
		<stop  offset="0.78" style="stop-color:#EC745D;stop-opacity:0.99"/>
		<stop  offset="0.81" style="stop-color:#F6795F"/>
	</linearGradient>
	<path class="st67" d="M7384,804.4h-30.4c-18.2,0-34.3-9.4-39.6-23.3l-7.2-18.7c-5.3-13.8-21.4-23.3-39.6-23.3h-21.5
		c-22.9,0-41.5,14.7-41.5,32.9v63.8c0,18.2-18.6,32.9-41.5,32.9h-77.3l-64.5-0.7c-18.1-0.2-34-9.7-39.2-23.5l-6.3-16.7
		c-5.2-13.9-21.4-23.5-39.7-23.5h-157.9c-16.5,0-31.4-7.8-38-19.8l0,0c-6.6-12-21.5-19.8-38-19.8h-50.2c-22.9,0-41.5,14.7-41.5,32.9
		v16.3c0,17.6-9.2,34.9-31,36.8c-6.9,0.6-7.7,4-7.7,4c0.2,0.6,0.8,1.1,1.5,1.1c12.7,0.3,45.1-0.4,60.1,0.5c3,0.2,13,1.1,11.8,3.8
		l-11.8,26.3c-1.6-0.2-3.2-0.2-4.9-0.2h-51.4c-15.9,0-30.4-7.2-37.3-18.5l-9.1-14.8c-6.9-11.3-21.4-18.5-37.3-18.5h-30.4
		c-18.2,0-34.3-9.4-39.6-23.3l-7.2-18.7c-5.3-13.8-21.4-23.3-39.6-23.3h-21.6c-22.9,0-41.5,14.7-41.5,32.9v63.8
		c0,18.2-18.6,32.9-41.5,32.9h-77.3l-64.5-0.7c-18.1-0.2-34-9.7-39.2-23.5l-6.3-16.7c-5.2-13.9-21.4-23.5-39.7-23.5h-157.9
		c-16.5,0-31.4-7.8-38-19.8s-21.5-19.8-38-19.8h-50.2c-22.9,0-41.5,14.7-41.5,32.9v16.4c0,18.2-18.6,32.9-41.5,32.9h-10.6
		c-19.6,0-36.5-10.8-40.5-26l-18.4-68.4c-4.1-15.2-21-26-40.5-26h-43.8c-22.9,0-41.4,14.7-41.4,32.9V966H5720v-0.5h908.1
		c21.7,0,39.5-13.2,41.3-30.1H7384c0.9,0,1.6-0.7,1.6-1.6V805.9C7385.6,805.1,7384.9,804.4,7384,804.4z"/>
	<polygon class="st9" points="7386.3,973.6 5465.6,973.6 5465.6,899.5 6429.6,898.3 7386.3,898.3 	"/>
	<rect x="5465.6" y="943.2" class="st10" width="1920.7" height="11.9"/>
	<rect x="5465.6" y="914.4" class="st11" width="1920.7" height="16.1"/>
	<rect x="5465.6" y="955.2" class="st12" width="1920.7" height="18.5"/>
	<rect x="5465.6" y="965.9" class="st13" width="1920.7" height="7.8"/>
	<ellipse cx="5735.4" cy="966" rx="17.6" ry="1"/>
	<ellipse cx="7269.2" cy="955.1" rx="17.6" ry="1"/>
	<ellipse cx="6003.9" cy="934.8" rx="5.8" ry="0.4"/>
	<ellipse cx="5923.5" cy="947.9" rx="9.5" ry="0.5"/>
	<path class="st14" d="M6009.6,935.2c0,0,2.8-0.2,0.4-2.5c-0.9-0.9-5.2-2.3-7,0.9c0,0-1,1.6,1.7,1.6
		C6007.3,935.2,6009.6,935.2,6009.6,935.2z"/>
	<path class="st15" d="M7286.2,956c0,0,8.4-0.7,1.3-7.5c-2.8-2.6-15.8-7-21,2.7c0,0-3.1,4.7,5,4.8S7286.2,956,7286.2,956z"/>
	<path class="st15" d="M5931.3,948.4c0,0,4.2-0.4,0.7-3.7c-1.4-1.3-7.9-3.5-10.5,1.3c0,0-1.5,2.3,2.5,2.4
		C5928,948.5,5931.3,948.4,5931.3,948.4z"/>
	<path class="st15" d="M5751.7,966.9c0,0,8.4-0.7,1.3-7.5c-2.8-2.6-15.8-6.9-21,2.7c0,0-3.1,4.7,5,4.8S5751.7,966.9,5751.7,966.9z"
		/>
	<ellipse cx="7306.8" cy="954.8" rx="11.4" ry="1.1"/>
	<path d="M5776.1,968.5c8.6,0,15.6,0.6,15.6,1.3s-7,1.3-15.6,1.3c-8.6,0-15.6-0.6-15.6-1.3"/>
	<ellipse cx="6017.2" cy="961.4" rx="10.3" ry="0.9"/>
	<ellipse cx="5945" cy="947.8" rx="7.4" ry="0.6"/>
	<ellipse cx="6894.3" cy="934.6" rx="6.9" ry="0.6"/>
	<path class="st16" d="M5784.1,968.1V956c0-3.5-5.5-3.5-5.5,0v12.1C5778.6,971.6,5784.1,971.6,5784.1,968.1z"/>
	<path class="st17" d="M5783.9,968.8c0.1-0.3,0.2-0.5,0.3-0.8c0.2-0.5-0.1,0.2,0.2-0.4c0.2-0.4,0.4-0.8,0.7-1.2
		c1.4-2.1,3.3-3.8,5.5-4.9c3.1-1.7,0.4-6.4-2.8-4.7c-4,2.1-8,6-9.1,10.6C5777.9,970.8,5783.1,972.2,5783.9,968.8L5783.9,968.8z"/>
	<path class="st17" d="M5772.5,962.3c0.3,0.1-0.4-0.2-0.4-0.2c0.2,0.1,0.4,0.2,0.6,0.3c0.5,0.3,1.1,0.6,1.5,1c2,1.6,3.6,3.7,4.7,6.1
		c1.6,3.2,6.3,0.4,4.7-2.8c-2-4-5.3-8.1-9.7-9.7C5770.7,955.8,5769.2,961.1,5772.5,962.3L5772.5,962.3z"/>
	<path class="st18" d="M6023,959.9v-8c0-1-0.8-1.8-1.8-1.8c-1,0-1.8,0.8-1.8,1.8v8c0,1,0.8,1.8,1.8,1.8
		C6022.2,961.7,6023,960.9,6023,959.9z"/>
	<path class="st19" d="M6022.9,960.4c0-0.2,0.1-0.4,0.2-0.5c0.1-0.3-0.1,0.1,0.1-0.3c0.2-0.4,0.3-0.5,0.4-0.8
		c0.9-1.4,2.1-2.5,3.6-3.2c2.1-1.1,0.2-4.2-1.8-3.1c-2.7,1.4-5.3,3.9-6,7C6018.9,961.7,6022.5,962.7,6022.9,960.4L6022.9,960.4z"/>
	<path class="st19" d="M6015.4,956.1l-0.3-0.1c0.1,0.1,0.3,0.1,0.4,0.2c0.3,0.2,0.8,0.5,1,0.6c1.3,1.1,2.4,2.4,3.1,4
		c1,2.1,4.2,0.3,3.1-1.8c-1.3-2.7-3.5-5.3-6.4-6.4C6014.2,951.8,6013.2,955.3,6015.4,956.1L6015.4,956.1z"/>
	<path class="st20" d="M5948.6,946.2v-5.5c0-0.5-0.4-0.9-0.9-0.9c-0.5,0-0.9,0.4-0.9,0.9v5.5c0,0.5,0.4,0.9,0.9,0.9
		C5948.2,947,5948.6,946.6,5948.6,946.2L5948.6,946.2z"/>
	<path class="st19" d="M5948.7,947.2c0,0.3,0-0.1,0.1-0.3c0.1-0.4,0.2-0.7,0.4-1.1c0.7-1.3,1.7-2.3,3-2.9c1-0.6,0.1-2.1-0.9-1.6
		c-2.1,1.2-4.1,3.3-4.4,5.8C5946.8,948.3,5948.6,948.3,5948.7,947.2L5948.7,947.2z"/>
	<path class="st19" d="M5943.7,943C5943.6,943,5943.6,942.9,5943.7,943c-0.1-0.1,0.5,0.3,0.6,0.4c1.2,1.2,2.1,2.6,2.8,4.2
		c0.5,1,2.1,0.1,1.6-0.9c-0.7-1.8-1.8-3.4-3.2-4.7c-0.5-0.4-1-0.7-1.7-0.8C5942.6,941.3,5942.6,943.1,5943.7,943L5943.7,943z"/>
	<path class="st21" d="M6896.3,933v-5.5c0-0.5-0.4-0.9-0.9-0.9s-0.9,0.4-0.9,0.9l0,0v5.5c0,0.5,0.4,0.9,0.9,0.9
		S6896.3,933.5,6896.3,933z"/>
	<path class="st19" d="M6896.4,934c0,0.3,0-0.1,0.1-0.3c0.1-0.4,0.2-0.7,0.4-1.1c0.7-1.3,1.7-2.3,3-2.9c1-0.6,0.1-2.1-0.9-1.6
		c-2.1,1.2-4.1,3.3-4.4,5.8C6894.5,935.2,6896.3,935.2,6896.4,934L6896.4,934z"/>
	<path class="st19" d="M6891.4,929.9C6891.3,929.9,6891.3,929.8,6891.4,929.9c-0.1-0.1,0.5,0.3,0.6,0.4c1.2,1.2,2.1,2.6,2.7,4.2
		c0.5,1.1,2.1,0.1,1.6-0.9c-0.7-1.8-1.8-3.4-3.2-4.7c-0.4-0.4-1-0.7-1.7-0.8C6890.3,928.1,6890.3,929.9,6891.4,929.9L6891.4,929.9z"
		/>
	<path class="st22" d="M7312,952.8v-10.3c0-2.7-4.2-2.7-4.2,0v10.3C7307.8,955.5,7312,955.5,7312,952.8z"/>
	<path class="st19" d="M7311.7,953.6c1.3-2.6,3.2-4.8,5.6-6.5c2.2-1.5,0.1-5.1-2.1-3.6c-3,2-5.5,4.8-7.1,8
		C7306.9,954,7310.5,956.1,7311.7,953.6L7311.7,953.6z"/>
	<path class="st19" d="M7302.7,947.2l0.2,0.1c0.4,0.3-0.2-0.2,0.2,0.2c0.5,0.4,1,0.8,1.4,1.3c1.5,1.5,2.7,3.2,3.6,5.1
		c1.2,2.4,4.8,0.3,3.6-2.1c-1.6-3.3-4-6.1-7-8.2C7302.5,942,7300.4,945.7,7302.7,947.2L7302.7,947.2z"/>
	
		<linearGradient id="SVGID_25_" gradientUnits="userSpaceOnUse" x1="6975.1299" y1="-4961.9165" x2="6975.1299" y2="-4820.6265" gradientTransform="matrix(1 0 0 -1 0 -4044.9651)">
		<stop  offset="0" style="stop-color:#773C41"/>
		<stop  offset="0.55" style="stop-color:#642F36"/>
		<stop  offset="1" style="stop-color:#51222B"/>
	</linearGradient>
	<path class="st68" d="M7280.5,793.2l-12.4,46.1c-2.8,10.2-14.2,17.6-27.4,17.6h-7.1c-15.4,0-28-9.9-28-22.2v-11.1
		c0-12.3-12.5-22.2-28-22.2h-33.9c-11.1,0-21.2,5.2-25.7,13.3l0,0c-4.4,8.1-14.5,13.3-25.7,13.3h-106.5c-12.4,0-23.3,6.4-26.8,15.8
		l-4.2,11.2c-3.5,9.3-14.2,15.7-26.4,15.8l-43.6,0.5h-52.2c-15.4,0-28-9.9-28-22.2v-43c0-12.3-12.5-22.2-28-22.2h-14.5
		c-12.3,0-23.2,6.4-26.8,15.7l-4.9,12.6c-3.6,9.3-14.5,15.7-26.8,15.7h-20.5c-10.7,0-20.5,4.8-25.2,12.5l-6.1,10
		c-4.7,7.6-14.5,12.5-25.2,12.5h-34.7c-15.4,0-28,9.9-28,22.2v9.1c0,12.3,12.5,22.2,28,22.2H7205v0.3h181l0.2-39.5l0,0
		c-11.5,0-20.9-9.3-20.9-20.7c0,0,0,0,0-0.1v-58.8c0-12.3-12.5-22.2-28-22.2h-29.6C7294.6,775.6,7283.2,783,7280.5,793.2z"/>
	
		<linearGradient id="SVGID_26_" gradientUnits="userSpaceOnUse" x1="5880.6309" y1="-4961.9834" x2="5880.6309" y2="-4829.1265" gradientTransform="matrix(1 0 0 -1 0 -4044.9651)">
		<stop  offset="0" style="stop-color:#773C41"/>
		<stop  offset="0.55" style="stop-color:#642F36"/>
		<stop  offset="1" style="stop-color:#51222B"/>
	</linearGradient>
	<path class="st69" d="M6238.4,863.2h-45.2c-13.9,0-26.7-4.8-32.8-12.5l-8-10c-6.1-7.6-18.8-12.5-32.8-12.5H6093
		c-16,0-30.2-6.4-34.8-15.7l-6.3-12.6c-4.7-9.3-18.8-15.7-34.8-15.7h-18.9c-20.1,0-36.4,9.9-36.4,22.2v43
		c0,12.3-16.3,22.2-36.4,22.2h-68l-56.7-0.5c-15.9-0.1-29.9-6.5-34.4-15.8l-5.5-11.2c-4.6-9.4-18.8-15.8-34.9-15.8h-138.7
		c-14.5,0-27.6-5.2-33.4-13.3s-18.9-13.3-33.4-13.3h-44.9c-5.3,0.1-9.6,4.4-9.6,9.8v105.4h772.9c12.3,0,33.8,1.2,48.7-0.7
		c5.4-0.7,9.1-5.6,8.5-10.9c-0.3-2.6-1.7-4.9-3.7-6.5l-3.4-2.7c-6.4-5.1-11.7-11.3-15.9-18.3
		C6267.4,869.2,6254.1,863.2,6238.4,863.2z"/>
	<path class="st36" d="M7221,973.6v-17.6c0-9.7-15-9.7-15,0v17.6H7221z"/>
	<path class="st19" d="M7193.9,972.3c0.5,0.3,1,0.6,1.5,1l0.4,0.3h20.9c-4-5.7-9.2-10.6-15.2-14.2
		C7193.1,954.5,7185.6,967.4,7193.9,972.3z"/>
	<path class="st19" d="M7231.5,973.6c0.6-0.4,1.3-0.9,2-1.3c8.3-4.9,0.8-17.9-7.6-13c-6.2,3.7-11.6,8.5-15.8,14.3H7231.5z"/>
</g>
<g>
	<rect x="6903.5" y="-1324.7" class="st0" width="1920" height="1080.9"/>
	
		<radialGradient id="SVGID_27_" cx="7966.9243" cy="-2998.0735" r="1918.5765" fx="8026.3364" fy="-1976.8047" gradientTransform="matrix(0.9926 0.1213 6.431530e-02 -0.5261 148.9541 -3331.1523)" gradientUnits="userSpaceOnUse">
		<stop  offset="9.000000e-02" style="stop-color:#FF5967"/>
		<stop  offset="0.16" style="stop-color:#FF5967;stop-opacity:0.79"/>
		<stop  offset="0.23" style="stop-color:#FF5967;stop-opacity:0.58"/>
		<stop  offset="0.3" style="stop-color:#FF5967;stop-opacity:0.4"/>
		<stop  offset="0.38" style="stop-color:#FF5967;stop-opacity:0.26"/>
		<stop  offset="0.45" style="stop-color:#FF5967;stop-opacity:0.14"/>
		<stop  offset="0.52" style="stop-color:#FF5967;stop-opacity:6.000000e-02"/>
		<stop  offset="0.59" style="stop-color:#FF5967;stop-opacity:2.000000e-02"/>
		<stop  offset="0.66" style="stop-color:#FF5967;stop-opacity:0"/>
		<stop  offset="1" style="stop-color:#FF5967;stop-opacity:0"/>
	</radialGradient>
	<rect x="6903.9" y="-1325.7" class="st70" width="1920" height="1082"/>
	
		<linearGradient id="SVGID_28_" gradientUnits="userSpaceOnUse" x1="7863.8823" y1="-3801.2498" x2="7863.8823" y2="-3251.0398" gradientTransform="matrix(1 0 0 -1 0 -4044.9651)">
		<stop  offset="9.000000e-02" style="stop-color:#FF5967"/>
		<stop  offset="0.16" style="stop-color:#FF5967;stop-opacity:0.79"/>
		<stop  offset="0.23" style="stop-color:#FF5967;stop-opacity:0.58"/>
		<stop  offset="0.3" style="stop-color:#FF5967;stop-opacity:0.4"/>
		<stop  offset="0.38" style="stop-color:#FF5967;stop-opacity:0.26"/>
		<stop  offset="0.45" style="stop-color:#FF5967;stop-opacity:0.14"/>
		<stop  offset="0.52" style="stop-color:#FF5967;stop-opacity:6.000000e-02"/>
		<stop  offset="0.59" style="stop-color:#FF5967;stop-opacity:2.000000e-02"/>
		<stop  offset="0.66" style="stop-color:#FF5967;stop-opacity:0"/>
		<stop  offset="1" style="stop-color:#FF5967;stop-opacity:0"/>
	</linearGradient>
	<rect x="6903.9" y="-1325.7" class="st71" width="1920" height="1082"/>
	
		<radialGradient id="SVGID_29_" cx="2147.4109" cy="-4060.6138" r="754.88" fx="1608.6694" fy="-4084.9199" gradientTransform="matrix(0.2083 -0.9781 -2.944 -0.6268 -4566.7085 -1170.3583)" gradientUnits="userSpaceOnUse">
		<stop  offset="7.000000e-02" style="stop-color:#FE9B46"/>
		<stop  offset="7.000000e-02" style="stop-color:#FE9B46"/>
		<stop  offset="0.12" style="stop-color:#F98B4E;stop-opacity:0.77"/>
		<stop  offset="0.16" style="stop-color:#F57D55;stop-opacity:0.56"/>
		<stop  offset="0.21" style="stop-color:#F1725B;stop-opacity:0.39"/>
		<stop  offset="0.26" style="stop-color:#EE6860;stop-opacity:0.25"/>
		<stop  offset="0.31" style="stop-color:#EC6163;stop-opacity:0.14"/>
		<stop  offset="0.36" style="stop-color:#EA5B66;stop-opacity:6.000000e-02"/>
		<stop  offset="0.41" style="stop-color:#E95867;stop-opacity:2.000000e-02"/>
		<stop  offset="0.46" style="stop-color:#E95768;stop-opacity:0"/>
	</radialGradient>
	<rect x="6903.9" y="-1325.7" class="st72" width="1920" height="1082"/>
	
		<linearGradient id="SVGID_30_" gradientUnits="userSpaceOnUse" x1="7863.8823" y1="-3714.8198" x2="7863.8823" y2="-3365.5698" gradientTransform="matrix(1 0 0 -1 0 -4044.9651)">
		<stop  offset="7.000000e-02" style="stop-color:#FABC6B"/>
		<stop  offset="0.11" style="stop-color:#FBB268;stop-opacity:0.87"/>
		<stop  offset="0.2" style="stop-color:#FBA162;stop-opacity:0.64"/>
		<stop  offset="0.29" style="stop-color:#FC925E;stop-opacity:0.45"/>
		<stop  offset="0.37" style="stop-color:#FD865A;stop-opacity:0.29"/>
		<stop  offset="0.46" style="stop-color:#FD7D57;stop-opacity:0.16"/>
		<stop  offset="0.54" style="stop-color:#FE7655;stop-opacity:7.000000e-02"/>
		<stop  offset="0.62" style="stop-color:#FE7253;stop-opacity:2.000000e-02"/>
		<stop  offset="0.69" style="stop-color:#FE7153;stop-opacity:0"/>
	</linearGradient>
	<rect x="6903.9" y="-1325.7" class="st73" width="1920" height="1082"/>
</g>
<g>
	<g>
		<path class="st51" d="M5394.2-324.1h848c4.8,0,8.8,3.9,8.8,8.8c0,0,0,0,0,0v16.4l0,0h-867.3l0,0v-14.7
			C5383.6-319.4,5388.4-324.1,5394.2-324.1z"/>
		<path class="st52" d="M5893.5-676c-4.2,0,8.1,5.1,3.2,5.1l-16.2,26.7c-4.4,3.4-6.9,8.1-6.9,12.9V-286h80.7v-371.7
			C5954.2-671.3,5944.2-675.4,5893.5-676z"/>
		<path class="st51" d="M5945.1-645.2c-0.1-2.7-2.8-4.8-6.3-4.8h-56.2c-3.5,0-6.3,2.2-6.3,4.9v30c0,0.2-0.1,0.5-0.1,0.7
			c0,0,0,0.1,0,0.2c0,1.1,0.4,2.1,1.1,2.9l0,0c1.8,1.8,4.5,2.5,7,1.9h54.3c3.5,0,6.3-2.2,6.3-4.9v-29.7
			C5945.1-644.4,5945.1-644.8,5945.1-645.2z M5889-640.2h30.6l-30.6,16.6L5889-640.2z M5932.5-635.2v15.9h-29.4L5932.5-635.2z"/>
		<path class="st51" d="M5985.5-606c-0.1-2.7-2.8-4.8-6.3-4.8h-56.1c-9.9-0.6-6.3,2.2-6.3,4.9v30c0,0.2-0.1,0.5-0.1,0.7
			c0,0,0,0.1,0,0.2c0,1-2.9,1.7-2.1,2.5l-0.2,0.3c1.6,1.8-4.4,1.7,10.5,1.9h54.3c3.5,0,6.3-2.2,6.3-4.9v-29.7
			C5985.6-605.3,5985.6-605.6,5985.5-606z M5929.4-601h30.6l-30.6,16.6V-601z M5972.9-596.1v15.9h-29.4L5972.9-596.1z"/>
		<path class="st51" d="M5945.1-565.8c-0.1-2.7-2.8-4.8-6.3-4.8h-56.2c-3.5,0-6.3,2.2-6.3,4.9v30c0,0.2-0.1,0.5-0.1,0.7
			c0,0,0,0.1,0,0.2c0,1.1,0.4,2.1,1.1,2.8l0,0c1.8,1.8,4.5,2.5,7,1.9h54.3c3.5,0,6.3-2.2,6.3-4.9v-29.7
			C5945.1-565,5945.1-565.4,5945.1-565.8z M5889-560.7h30.6l-30.6,16.5V-560.7z M5932.5-555.7v15.9h-29.4L5932.5-555.7z"/>
		<path class="st51" d="M5985.5-529.1c-0.1-2.7-2.8-4.8-6.3-4.8h-56.1c-3.5,0-6.3,2.2-6.3,4.9v30c0,0.2-0.1,0.5-0.1,0.7
			c0,0,0,0.1,0,0.2c0,1-3.1,1.6-2.4,2.5l-0.8-0.1c1.6,1.8-11.1,2.4,11.4,2.4h54.3c3.5,0,6.3-2.2,6.3-4.9V-528
			C5985.6-528.3,5985.6-528.7,5985.5-529.1z M5929.4-524.1h30.6l-30.6,16.6V-524.1z M5972.9-519.1v15.9h-29.4L5972.9-519.1z"/>
		<path class="st51" d="M5944.4-488.5c0-2.7-2.8-4.8-6.3-4.8H5882c-3.5,0-6.3,2.2-6.3,4.9v30c0,0.2-0.1,0.5-0.1,0.7c0,0,0,0.1,0,0.2
			c0,1.1,0.4,2.1,1.1,2.8l0,0c1.9,1.8,4.5,2.6,7.1,1.9h54.3c3.5,0,6.3-2.2,6.3-4.9v-29.7C5944.4-487.8,5944.5-488.1,5944.4-488.5z
			 M5888.3-483.5h30.7l-30.6,16.6L5888.3-483.5z M5931.9-478.5v15.8h-29.4L5931.9-478.5z"/>
		<path class="st51" d="M5944.4-457.8c0-2.7-2.8-4.8-6.3-4.8H5882c-3.5,0-6.3,2.2-6.3,4.9v30c0,0.2-0.1,0.5-0.1,0.7c0,0,0,0.1,0,0.2
			c0,1.1,0.4,2.1,1.1,2.8l0,0c1.9,1.8,4.5,2.6,7.1,1.9h54.3c3.5,0,6.3-2.2,6.3-4.9v-29.6C5944.4-457.1,5944.5-457.5,5944.4-457.8z
			 M5888.3-452.8h30.7l-30.6,16.6L5888.3-452.8z M5931.9-447.9v15.9h-29.4L5931.9-447.9z"/>
		<path class="st51" d="M5944.4-427.2c0-2.7-2.8-4.8-6.3-4.8H5882c-3.5,0-6.3,2.2-6.3,4.9v30c0,0.2-0.1,0.5-0.1,0.7c0,0,0,0.1,0,0.2
			c0,1.1,0.4,2.1,1.1,2.9l0,0c1.8,1.8,4.5,2.6,7.1,1.9h54.3c3.5,0,6.3-2.2,6.3-4.9v-29.6C5944.4-426.5,5944.5-426.8,5944.4-427.2z
			 M5888.3-422.2h30.7l-30.6,16.6L5888.3-422.2z M5931.9-417.2v15.9h-29.4L5931.9-417.2z"/>
		<path class="st51" d="M5944.4-396.5c0-2.7-2.8-4.8-6.3-4.8H5882c-3.5,0-6.3,2.2-6.3,4.9v30c0,0.2-0.1,0.5-0.1,0.7c0,0,0,0.1,0,0.2
			c0,1.1,0.4,2.1,1.1,2.8l0,0c1.9,1.8,4.5,2.6,7.1,1.9h54.3c3.5,0,6.3-2.2,6.3-4.9v-29.7C5944.4-395.8,5944.5-396.2,5944.4-396.5z
			 M5888.3-391.5h30.7l-30.6,16.6L5888.3-391.5z M5931.9-386.5v15.8h-29.4L5931.9-386.5z"/>
		<path class="st51" d="M5944.4-357.5c0-2.7-2.8-4.8-6.3-4.8H5882c-3.5,0-6.3,2.2-6.3,4.9v30c0,0.2-0.1,0.5-0.1,0.7c0,0,0,0.1,0,0.2
			c0,1.1,0.4,2.1,1.1,2.8l0,0c1.9,1.8,4.5,2.6,7.1,1.9h54.3c3.5,0,6.3-2.2,6.3-4.9v-29.6C5944.4-356.7,5944.5-357.1,5944.4-357.5z
			 M5888.3-352.5h30.7l-30.6,16.6L5888.3-352.5z M5931.9-347.5v15.9h-29.4L5931.9-347.5z"/>
		<path class="st53" d="M5891.1-614.9h95.6c0,0,0.1,0,0.1,0.1v4.8c0,0,0,0.1-0.1,0.1h-95.6c0,0-0.1,0-0.1-0.1L5891.1-614.9
			C5891-614.8,5891.1-614.9,5891.1-614.9z"/>
		<rect x="5889" y="-537.4" class="st53" width="95.8" height="4"/>
		<path class="st52" d="M5851.8-667.5l-29.8,23.3c-4.4,3.4-6.9,8.1-6.9,12.9v343h80.6v-369.4c0-7.8,6.6-15.5-1-18.3
			C5894.7-675.9,5866.5-679.1,5851.8-667.5z"/>
		<path class="st53" d="M5876.7-670.6l-33.8,26.4c-4.4,3.4-6.9,8.1-6.9,12.9v343h80.6v-369.4
			C5916.8-673.9,5891.5-682.1,5876.7-670.6z"/>
		<path class="st52" d="M5840-358v4.1c-0.1,1.4,1,2.6,2.4,2.6l0,0c1.4,0,2.5-1.2,2.4-2.6c0,0,0,0,0,0v-4.1c0.1-1.4-1-2.6-2.4-2.6
			c0,0,0,0,0,0l0,0C5841-360.6,5839.9-359.4,5840-358z"/>
		<path class="st52" d="M5840-371v4.1c-0.1,1.4,1,2.6,2.4,2.6l0,0c1.4,0,2.5-1.2,2.4-2.6c0,0,0,0,0,0v-4.1c0.1-1.4-1-2.6-2.4-2.6
			c0,0,0,0,0,0l0,0C5841-373.6,5839.9-372.4,5840-371z"/>
		<path class="st54" d="M5899.5-666.6h4.1c1.4,0.1,2.6-1,2.6-2.4l0,0c0-1.4-1.2-2.5-2.6-2.4c0,0,0,0,0,0h-4.1
			c-1.4-0.1-2.6,1-2.6,2.4c0,0,0,0,0,0l0,0C5897-667.6,5898.1-666.5,5899.5-666.6z"/>
		<path class="st52" d="M5879.7-652l-23.2,17.9c-4.6,3.6-7.5,8.3-8.1,13.4c-0.2,1.6-0.3,3.3-0.3,4.9v19.5c0-4.5,2-8.9,5.3-11.9
			l28-23.6c9.1-7.7,29.3-3.8,29.3,11.2v-19.5C5910.7-655.1,5891.1-662.6,5879.7-652z"/>
		<path class="st55" d="M5916.3-590.5h-16.9c-0.8,0-1.6,0.3-2.3,0.8l-41.7,32.6c-0.6,0.4-1.3,0.7-2,0.7h-15.8
			c-0.6,0-1.2,0.5-1.2,1.2l0,0c0,0.6,0.5,1.2,1.1,1.2c0,0,0,0,0,0h16.4c1.1,0,2.1-0.4,2.9-1l41.4-32.4c0.5-0.4,1.2-0.7,1.9-0.7h15.9
			c0.6,0,1.1-0.5,1.2-1.1l0,0C5917.5-589.9,5917-590.4,5916.3-590.5C5916.4-590.5,5916.4-590.5,5916.3-590.5z"/>
		<path class="st55" d="M5916.3-562.7h-16.9c-0.8,0-1.6,0.3-2.3,0.8l-41.7,32.6c-0.6,0.4-1.3,0.7-2,0.7h-15.8
			c-0.6,0-1.2,0.5-1.2,1.2l0,0c0,0.6,0.5,1.2,1.1,1.2c0,0,0,0,0,0h16.4c1.1,0,2.1-0.4,2.9-1l41.4-32.4c0.5-0.4,1.2-0.7,1.9-0.7h15.9
			c0.6,0,1.1-0.5,1.2-1.1l0,0C5917.5-562.1,5917-562.7,5916.3-562.7C5916.4-562.7,5916.4-562.7,5916.3-562.7z"/>
		<path class="st52" d="M5893.5-437.6h3.6c7.1,0,12.9,5.8,12.9,12.9v59.3c0,7.1-5.8,12.9-12.9,12.9h-3.6c-7.1,0-12.9-5.8-12.9-12.9
			v-59.3C5880.6-431.8,5886.4-437.6,5893.5-437.6z"/>
		<path class="st56" d="M6032.3-334.4v-24.3c-1-3.6,0-24.7-46.1-24.7c-46.1,0-45.1,21.1-46.1,24.7v24.3H6032.3z"/>
		<path class="st57" d="M5960.6-531.7L5960.6-531.7v197.3h51.2v-197.3l0,0c-0.4-4.9-2.7-9.5-6.5-12.6V-604c4-2.2,6.6-5.8,6.6-9.8
			v-78.9l0,0c-0.5-10.7-11.8-45.6-25.6-45.6s-25,34.9-25.6,45.6l0,0v79.3c0,4.1,2.6,7.7,6.6,9.8v59.4
			C5963.3-541.2,5960.9-536.6,5960.6-531.7z"/>
		<path class="st58" d="M5960.6-531.7L5960.6-531.7v197.3h51.2v-197.3l0,0c-0.4-4.9-2.7-9.5-6.5-12.6V-604c4-2.2,6.6-5.8,6.6-9.8
			v-78.9l0,0c-0.5-10.7-11.8-45.6-25.6-45.6s-25,34.9-25.6,45.6l0,0v79.3c0,4.1,2.6,7.7,6.6,9.8v59.4
			C5963.3-541.2,5960.9-536.6,5960.6-531.7z"/>
		<path class="st59" d="M5960.6-411.6L5960.6-411.6v30.8c0,0.2,0.1,0.5,0.2,0.7h50.8c0.1-0.2,0.2-0.5,0.2-0.8v-30.6l0,0
			c0,0,0-0.1,0-0.1h-51.2C5960.6-411.7,5960.6-411.6,5960.6-411.6z"/>
		<path class="st60" d="M5960.6-531.7L5960.6-531.7v4.8h51.2v-4.8l0,0c0-0.3,0-0.7-0.1-1h-51
			C5960.6-532.4,5960.6-532.1,5960.6-531.7z"/>
		<path class="st60" d="M5960.6-691.8L5960.6-691.8v4.8h51.2v-4.8l0,0c0-0.3,0-0.7-0.1-1h-51
			C5960.6-692.5,5960.6-692.1,5960.6-691.8z"/>
		<path class="st58" d="M5985.4-767.6l-5.5,57.8l10.1,0.3l0,0c0.7,0,1.5,0,2.2,0l-6.2-58L5985.4-767.6z"/>
		<path class="st61" d="M6010.8-609.6h-49.4c1.2,2.5,3.2,4.6,5.6,5.9h38.2v-0.3C6007.6-605.2,6009.5-607.2,6010.8-609.6z"/>
		<path class="st61" d="M6005.2-544.3h-38.1c-1.9,1.6-3.4,3.5-4.6,5.7h47.3C6008.6-540.8,6007.1-542.7,6005.2-544.3z"/>
		<path class="st61" d="M6003.7-519.8v4.8c0,0.8,0.6,1.5,1.5,1.5l0,0c0.8,0,1.4-0.7,1.4-1.5v-4.8c0-0.8-0.6-1.4-1.4-1.4c0,0,0,0,0,0
			l0,0C6004.3-521.2,6003.7-520.6,6003.7-519.8C6003.7-519.8,6003.7-519.8,6003.7-519.8z"/>
		<path class="st61" d="M5965.9-519.8v4.8c0,0.8,0.6,1.5,1.4,1.5h0.1c0.8,0,1.4-0.7,1.4-1.5v-4.8c0-0.8-0.6-1.4-1.4-1.5l0,0h-0.1
			C5966.6-521.2,5965.9-520.6,5965.9-519.8C5965.9-519.8,5965.9-519.8,5965.9-519.8z"/>
		<rect x="5960.5" y="-370.2" class="st60" width="51.2" height="5.9"/>
		<path class="st62" d="M5976.3-732.5c-8.8,10.3-15.2,31.3-15.7,39.5c0,0.1,0,0.2,0,0.3l0,0v79.3c0,4.1,2.6,7.7,6.6,9.8v59.3
			c-3.5,2.9-5.8,7-6.5,11.5l0,0c0,0.3-0.1,0.7-0.1,1l0,0v151.4c-10.6,2.8-19.4,9.6-20.5,21.9v25.5l20.5-1.5l15.7-0.8L5976.3-732.5z"
			/>
		
			<rect x="6073.4" y="-454.3" transform="matrix(0.5579 -0.8299 0.8299 0.5579 3075.22 4871.9443)" class="st63" width="73.9" height="7.8"/>
		
			<rect x="6073.4" y="-400.4" transform="matrix(0.5579 -0.8299 0.8299 0.5579 3030.4995 4895.7686)" class="st63" width="73.9" height="7.8"/>
		
			<rect x="6073.4" y="-346.3" transform="matrix(0.5579 -0.8299 0.8299 0.5579 2985.6067 4919.6772)" class="st63" width="73.9" height="7.8"/>
		<path class="st64" d="M6135.9-520L6135.9-520c3.1,0,5.6,2.5,5.6,5.6v209.6c0,3.1-2.5,5.6-5.6,5.6l0,0c-3.1,0-5.6-2.5-5.6-5.6
			v-209.6C6130.3-517.5,6132.8-520,6135.9-520z"/>
		<path class="st64" d="M6087.9-501.3L6087.9-501.3c3.1,0,5.6,2.5,5.6,5.6v191c0,3.1-2.5,5.6-5.6,5.6l0,0c-3.1,0-5.6-2.5-5.6-5.6
			v-191C6082.3-498.8,6084.8-501.3,6087.9-501.3z"/>
		<path class="st52" d="M6112.7-491.3l-22.4,13.7c-4.5,2.8-7.3,6.4-7.8,10.3c-0.2,1.3-0.3,2.5-0.3,3.8v15c0-3.4,1.8-6.7,5.1-9.1
			l27-18.1c8.8-5.9,28.2-2.9,28.2,8.6v-15C6142.7-493.6,6123.8-499.4,6112.7-491.3z"/>
		<path class="st52" d="M6112-532.9l-22.4,13.7c-4.5,2.8-7.3,6.4-7.8,10.3c-0.2,1.2-0.3,2.5-0.3,3.8v26.3c0-3.4,1.9-6.7,5.1-9.1
			l27-18.1c8.8-5.9,28.2-2.9,28.2,8.6v-26.3C6141.9-535.3,6123-541,6112-532.9z"/>
		<path class="st52" d="M6112-437.4l-22.4,13.8c-4.5,2.8-7.3,6.4-7.8,10.3c-0.2,1.3-0.3,2.5-0.3,3.8v15c0-3.4,1.9-6.7,5.1-9.1
			l27-18.1c8.8-5.9,28.2-2.9,28.2,8.6v-15C6141.9-439.8,6123-445.6,6112-437.4z"/>
		<path class="st52" d="M6112-383.1l-22.4,13.7c-4.5,2.7-7.3,6.4-7.8,10.3c-0.2,1.2-0.3,2.5-0.3,3.8v15c0-3.4,1.9-6.7,5.1-9.1
			l27-18.1c8.8-5.9,28.2-2.9,28.2,8.6v-15C6141.9-385.5,6123-391.3,6112-383.1z"/>
		<path class="st52" d="M6112-328.8l-22.4,13.7c-4.5,2.8-7.3,6.4-7.8,10.3c-0.2,1.3-0.3,2.5-0.3,3.8v14.9c0.9-0.1,5.4,0,5.4,0
			l29.7,0.6h25.3v-34.2C6141.9-331.2,6123-336.9,6112-328.8z"/>
		<path class="st52" d="M5796.9-334.6h257.2c10.9,0,19.7,8.8,19.7,19.7l0,0v32.7l0,0h-298l0,0v-31.2
			C5775.8-325.1,5785.2-334.5,5796.9-334.6z"/>
		<path class="st51" d="M5828.4-326.2h0.8c2.1,0,3.8,1.7,3.8,3.8v6.9c0,2.1-1.7,3.8-3.8,3.8h-0.8c-2.1,0-3.8-1.7-3.8-3.8v-6.9
			C5824.6-324.6,5826.3-326.2,5828.4-326.2z"/>
		<path class="st51" d="M5856.4-327.2h0.8c2.1,0,3.8,1.7,3.8,3.8v6.9c0,2.1-1.7,3.8-3.8,3.8h-0.8c-2.1,0-3.8-1.7-3.8-3.8v-6.9
			C5852.6-325.5,5854.3-327.2,5856.4-327.2z"/>
		<path class="st51" d="M5918-326.2h0.8c2.1,0,3.8,1.7,3.8,3.8v6.9c0,2.1-1.7,3.8-3.8,3.8h-0.8c-2.1,0-3.8-1.7-3.8-3.8v-6.9
			C5914.3-324.6,5916-326.2,5918-326.2z"/>
		<path class="st51" d="M5983-326.2h0.8c2.1,0,3.8,1.7,3.8,3.8v6.9c0,2.1-1.7,3.8-3.8,3.8h-0.8c-2.1,0-3.8-1.7-3.8-3.8v-6.9
			C5979.2-324.6,5980.9-326.2,5983-326.2z"/>
		<path class="st51" d="M6047.2-326.2h0.8c2.1,0,3.8,1.7,3.8,3.8v6.9c0,2.1-1.7,3.8-3.8,3.8h-0.8c-2.1,0-3.8-1.7-3.8-3.8v-6.9
			C6043.4-324.6,6045.1-326.2,6047.2-326.2z"/>
		<path class="st51" d="M5951.7-326.2h0.8c2.1,0,3.8,1.7,3.8,3.8v6.9c0,2.1-1.7,3.8-3.8,3.8h-0.8c-2.1,0-3.8-1.7-3.8-3.8v-6.9
			C5947.9-324.6,5949.6-326.2,5951.7-326.2z"/>
		<path class="st51" d="M5886.6-326.2h0.8c2.1,0,3.8,1.7,3.8,3.8v6.9c0,2.1-1.7,3.8-3.8,3.8h-0.8c-2.1,0-3.8-1.7-3.8-3.8v-6.9
			C5882.8-324.6,5884.5-326.2,5886.6-326.2z"/>
		<path class="st51" d="M6014.4-326.2h0.8c2.1,0,3.8,1.7,3.8,3.8v6.9c0,2.1-1.7,3.8-3.8,3.8h-0.8c-2.1,0-3.8-1.7-3.8-3.8v-6.9
			C6010.6-324.6,6012.3-326.2,6014.4-326.2z"/>
		<path class="st52" d="M5392.9-307.1H6240c6.1,0,11,4.9,11,11l0,0v14.2l0,0h-867.3l0,0v-16C5383.6-303,5387.8-307.2,5392.9-307.1
			L5392.9-307.1z"/>
	</g>
	<path class="st74" d="M6251-315.4c0-4.8-3.9-8.8-8.8-8.8h-100.7v-37.6c0.3,0.9,0.4,1.8,0.4,2.7V-374c0-1-0.1-1.9-0.4-2.8v-39.3
		c0.3,0.9,0.4,1.8,0.4,2.7v-15c0-1-0.1-1.9-0.4-2.8v-40.5c0.8,1.4,1.2,2.9,1.2,4.5v-15c0-1.6-0.4-3.3-1.2-4.7v-13.3
		c0.3,0.9,0.4,1.8,0.4,2.7v-26.3c0-11.5-18.9-17.3-30-9.1l-22.4,13.7c-4.5,2.8-7.3,6.4-7.8,10.3c-0.2,1.2-0.3,2.5-0.3,3.8v26.3
		c0-1.3,0.3-2.6,0.8-3.8v67.1c-0.2,0.6-0.4,1.3-0.5,2c-0.2,1.3-0.3,2.5-0.3,3.8v15c0-1.3,0.3-2.6,0.8-3.8v37.4
		c-0.2,0.6-0.4,1.3-0.5,2c-0.2,1.2-0.3,2.5-0.3,3.8v15c0-1.3,0.3-2.6,0.8-3.8v20.1h-10.8c-3.4-6.4-10.1-10.4-17.4-10.4h-21.8v-24.2
		c-0.7-2.7-0.3-15.6-20.5-21.6v-146.7l0,0v-4.8l0,0c0-0.3,0-0.7-0.1-1l0,0c-0.2-2-0.9-4-1.8-5.8l0,0c-1.2-2.2-2.7-4.1-4.6-5.7l0,0
		V-604l0.8-0.5l0.2-0.2c0.2-0.1,0.4-0.3,0.6-0.4l0.3-0.2l0.6-0.4l0.2-0.1c0.2-0.2,0.5-0.4,0.7-0.6l0,0c0.2-0.2,0.4-0.4,0.6-0.7
		l0.1-0.2c0.2-0.2,0.3-0.4,0.5-0.6l0.1-0.2c0.2-0.2,0.3-0.5,0.5-0.7v0c0.9-1.5,1.4-3.3,1.4-5.1V-687l0,0v-4.8l0,0v-0.9l0,0
		c-0.5-9.8-10.1-40.2-22.4-44.9l-3.2-30h-0.7l-2.8,30.2c-2.5,1.2-4.6,2.9-6.3,5l0,0c-0.3,0.3-0.6,0.7-0.9,1.1l-0.4,0.5
		c-0.2,0.3-0.4,0.5-0.6,0.8l-0.4,0.6l-0.6,0.9l-0.4,0.5c-0.3,0.4-0.6,0.9-0.8,1.3c-0.1,0.2-0.3,0.4-0.4,0.7l-0.5,0.9l-0.4,0.7
		c-0.2,0.3-0.4,0.7-0.5,1l-0.5,0.8l-0.6,1.2c-0.1,0.2-0.2,0.5-0.4,0.7s-0.3,0.6-0.4,0.9c-0.1,0.3-0.2,0.5-0.3,0.7
		c-0.2,0.4-0.4,0.8-0.6,1.2c-0.2,0.4-0.3,0.6-0.4,0.9l-0.5,1.1l-0.3,0.8c-0.1,0.3-0.3,0.7-0.4,1c-0.1,0.3-0.2,0.5-0.3,0.7
		c-0.2,0.5-0.4,1-0.6,1.6l-0.2,0.7c-0.1,0.3-0.3,0.7-0.4,1s-0.2,0.5-0.3,0.8s-0.2,0.7-0.3,1s-0.1,0.5-0.2,0.7
		c-0.2,0.5-0.3,1-0.5,1.5c-0.1,0.2-0.1,0.5-0.2,0.7c-0.1,0.2-0.2,0.6-0.3,1l-0.2,0.7c-0.1,0.3-0.2,0.6-0.3,0.9
		c-0.1,0.3-0.1,0.4-0.2,0.6c-0.1,0.5-0.2,0.9-0.3,1.4l-0.1,0.6c-0.1,0.3-0.1,0.6-0.2,0.8s-0.1,0.4-0.1,0.6c0,0.2-0.1,0.6-0.2,0.9
		l-0.1,0.6c-0.1,0.4-0.1,0.7-0.2,1c0,0.2,0,0.3-0.1,0.5s-0.1,0.5-0.1,0.7s0,0.3-0.1,0.5c-0.1,0.2-0.1,0.5-0.1,0.7c0,0.2,0,0.4,0,0.5
		s0,0.4-0.1,0.5c0,0.2,0,0.2,0,0.3l0,0v77.8h-6.3v-42.7c0-13.5-9.9-17.7-59.8-18.3c-3-0.3-28.8-2.4-42.6,8.5l-30,23.3
		c-4.4,3.4-6.9,8.1-6.9,12.9v296.7h-18.2c-7.5,0-14.4,4-18.2,10.4h-384.5c-5.8,0-10.5,4.7-10.5,10.5v14.7h0.1c0,0.3-0.1,0.7-0.1,1
		v16H6251v-14.2c0-1-0.1-1.9-0.4-2.8h0.4V-315.4z M6112-328.8l-7.6,4.7h-1.5l27.5-41v33.3C6124.4-333.4,6117.3-332.7,6112-328.8z
		 M6112-383.1l-10,6.1l28.3-42.2v33.1C6124.4-387.7,6117.3-387.1,6112-383.1z M6093.5-378.3v-30.1l20.3-13.5c3.3-2,7.1-3,11-2.9
		L6093.5-378.3z M6112-437.5l-9.4,5.8l27.8-41.4v32.6C6124.4-442.1,6117.3-441.4,6112-437.5z M6093.5-432.2v-29.5l21-14
		c3.1-1.9,6.6-2.9,10.2-2.9L6093.5-432.2z M6113.7-367.7c3.3-2,7.1-3,10.9-2.9l-31.1,46.3v-29.9L6113.7-367.7z M5960-601l-5.8,3.2
		v-3.2H5960z M5967.1-592.9v12.7h-12.9v-5.7L5967.1-592.9z M5960.5-503.3h-6.3v-5.7l6.3-3.4V-503.3z M5954.2-520.9v-3.2h5.8
		L5954.2-520.9z M5960.5-411.6v31.3c-2.2,0.6-4.3,1.3-6.3,2.3v-115.4h6.3V-411.6z M5962-537.5h-7.7v-32.9h12.9v26.1l0,0
		c-0.5,0.4-0.9,0.8-1.3,1.3l-0.4,0.5c-0.3,0.3-0.5,0.6-0.8,0.9l-0.5,0.6c-0.2,0.3-0.4,0.5-0.6,0.8s-0.3,0.5-0.4,0.7
		c-0.1,0.2-0.3,0.5-0.5,0.8s-0.3,0.5-0.4,0.8C5962.2-537.9,5962.1-537.7,5962-537.5z M6113.7-506.1c4.2-2.8,10.9-3.6,16.7-2.4v14
		c-5.8-1.3-12.5-0.5-17.6,3.2l-19.3,11.8v-13L6113.7-506.1z"/>
</g>
</svg>
