<?xml version="1.0" encoding="utf-8"?>
<!-- Generator: Adobe Illustrator 23.0.1, SVG Export Plug-In . SVG Version: 6.00 Build 0)  -->
<svg version="1.1" id="Layer_1" xmlns="http://www.w3.org/2000/svg" xmlns:xlink="http://www.w3.org/1999/xlink" x="0px" y="0px"
	 viewBox="0 0 1920 1025.9" style="enable-background:new 0 0 1920 1025.9;" xml:space="preserve">
<style type="text/css">
	.st0{fill:#6F6F84;}
	.st1{fill:url(#SVGID_1_);}
	.st2{fill:url(#SVGID_2_);}
	.st3{fill:url(#SVGID_3_);}
	.st4{fill:url(#SVGID_4_);}
	.st5{fill:url(#SVGID_5_);}
	.st6{fill:url(#SVGID_6_);}
	.st7{fill:url(#SVGID_7_);}
	.st8{fill:url(#SVGID_8_);}
	.st9{fill:#47242D;}
	.st10{fill:#3F151E;}
	.st11{fill:#512E3A;}
	.st12{fill:#350E0E;}
	.st13{fill:#210500;}
	.st14{fill:#472E3F;}
	.st15{fill:#442140;}
	.st16{fill:#1E1904;}
	.st17{fill:#28230C;}
	.st18{fill:#231D03;}
	.st19{fill:#332D14;}
	.st20{fill:#26200A;}
	.st21{fill:#282208;}
	.st22{fill:#282207;}
	.st23{fill:url(#SVGID_9_);}
	.st24{fill:url(#SVGID_10_);}
	.st25{fill:url(#SVGID_11_);}
	.st26{fill:url(#SVGID_12_);}
	.st27{fill:url(#SVGID_13_);}
	.st28{fill:url(#SVGID_14_);}
	.st29{fill:url(#SVGID_15_);}
	.st30{fill:url(#SVGID_16_);}
	.st31{fill:url(#SVGID_17_);}
	.st32{fill:url(#SVGID_18_);}
	.st33{fill:url(#SVGID_19_);}
	.st34{fill:url(#SVGID_20_);}
	.st35{fill:#84445E;}
	.st36{fill:#282106;}
	.st37{fill:#A55050;}
	.st38{fill:#FF9A51;}
	.st39{fill:#E9633B;}
	.st40{fill:#FC8245;}
	.st41{fill:#D54F31;}
	.st42{fill:#BE3226;}
	.st43{opacity:0.2;fill:#FFFFFF;enable-background:new    ;}
	.st44{opacity:0.57;}
	.st45{fill:#664542;}
	.st46{fill:url(#SVGID_21_);}
	.st47{fill:#FFFFFF;}
	.st48{fill:#2BD0FA;}
	.st49{fill:#2A69A8;stroke:#2A69A8;stroke-width:5;}
	.st50{opacity:0.77;fill:#60474C;enable-background:new    ;}
	.st51{fill:#7A8889;}
	.st52{fill:#9AA4A5;}
	.st53{fill:#B7C3C4;}
	.st54{fill:#EA3D34;}
	.st55{fill:#9AA4A5;stroke:#9AA4A5;stroke-width:4;stroke-miterlimit:10;}
	.st56{fill:#DD9864;}
	.st57{fill:#FFE1DC;}
	.st58{fill:#FFF4F3;}
	.st59{fill:#6BA6CE;}
	.st60{fill:#E58880;}
	.st61{fill:#AAAAAA;}
	.st62{opacity:0.34;fill:#1E5B7A;enable-background:new    ;}
	.st63{fill:#606D6D;}
	.st64{fill:#7C8B8C;}
	.st65{fill:url(#SVGID_22_);}
	.st66{fill:url(#SVGID_23_);}
	.st67{fill:url(#SVGID_24_);}
	.st68{fill:url(#SVGID_25_);}
	.st69{fill:url(#SVGID_26_);}
	.st70{fill:url(#SVGID_27_);}
	.st71{fill:url(#SVGID_28_);}
	.st72{fill:url(#SVGID_29_);}
	.st73{fill:url(#SVGID_30_);}
	.st74{opacity:0.72;fill:#1C0309;enable-background:new    ;}
</style>
<title>16Asset 98@54x</title>
<rect x="-3407.5" y="3516.9" class="st0" width="1920" height="1080.9"/>
<radialGradient id="SVGID_1_" cx="-2463.5903" cy="4447.3354" r="1918.5765" fx="-2404.1782" fy="5468.604" gradientTransform="matrix(0.9926 0.1213 6.431530e-02 -0.5261 -287.5111 6693.0933)" gradientUnits="userSpaceOnUse">
	<stop  offset="9.000000e-02" style="stop-color:#FF5967"/>
	<stop  offset="0.16" style="stop-color:#FF5967;stop-opacity:0.79"/>
	<stop  offset="0.23" style="stop-color:#FF5967;stop-opacity:0.58"/>
	<stop  offset="0.3" style="stop-color:#FF5967;stop-opacity:0.4"/>
	<stop  offset="0.38" style="stop-color:#FF5967;stop-opacity:0.26"/>
	<stop  offset="0.45" style="stop-color:#FF5967;stop-opacity:0.14"/>
	<stop  offset="0.52" style="stop-color:#FF5967;stop-opacity:6.000000e-02"/>
	<stop  offset="0.59" style="stop-color:#FF5967;stop-opacity:2.000000e-02"/>
	<stop  offset="0.66" style="stop-color:#FF5967;stop-opacity:0"/>
	<stop  offset="1" style="stop-color:#FF5967;stop-opacity:0"/>
</radialGradient>
<rect x="-3407.2" y="3515.9" class="st1" width="1920" height="1082"/>
<linearGradient id="SVGID_2_" gradientUnits="userSpaceOnUse" x1="-2447.1599" y1="3515.9265" x2="-2447.1599" y2="4066.1365" gradientTransform="matrix(1 0 0 -1 0 8113.813)">
	<stop  offset="9.000000e-02" style="stop-color:#FF5967"/>
	<stop  offset="0.16" style="stop-color:#FF5967;stop-opacity:0.79"/>
	<stop  offset="0.23" style="stop-color:#FF5967;stop-opacity:0.58"/>
	<stop  offset="0.3" style="stop-color:#FF5967;stop-opacity:0.4"/>
	<stop  offset="0.38" style="stop-color:#FF5967;stop-opacity:0.26"/>
	<stop  offset="0.45" style="stop-color:#FF5967;stop-opacity:0.14"/>
	<stop  offset="0.52" style="stop-color:#FF5967;stop-opacity:6.000000e-02"/>
	<stop  offset="0.59" style="stop-color:#FF5967;stop-opacity:2.000000e-02"/>
	<stop  offset="0.66" style="stop-color:#FF5967;stop-opacity:0"/>
	<stop  offset="1" style="stop-color:#FF5967;stop-opacity:0"/>
</linearGradient>
<rect x="-3407.2" y="3515.9" class="st2" width="1920" height="1082"/>
<radialGradient id="SVGID_3_" cx="-3660.3938" cy="3455.7297" r="754.88" fx="-4199.1353" fy="3431.4236" gradientTransform="matrix(0.2083 -0.9781 -2.944 -0.6268 8459.9004 2702.333)" gradientUnits="userSpaceOnUse">
	<stop  offset="7.000000e-02" style="stop-color:#FE9B46"/>
	<stop  offset="7.000000e-02" style="stop-color:#FE9B46"/>
	<stop  offset="0.12" style="stop-color:#F98B4E;stop-opacity:0.77"/>
	<stop  offset="0.16" style="stop-color:#F57D55;stop-opacity:0.56"/>
	<stop  offset="0.21" style="stop-color:#F1725B;stop-opacity:0.39"/>
	<stop  offset="0.26" style="stop-color:#EE6860;stop-opacity:0.25"/>
	<stop  offset="0.31" style="stop-color:#EC6163;stop-opacity:0.14"/>
	<stop  offset="0.36" style="stop-color:#EA5B66;stop-opacity:6.000000e-02"/>
	<stop  offset="0.41" style="stop-color:#E95867;stop-opacity:2.000000e-02"/>
	<stop  offset="0.46" style="stop-color:#E95768;stop-opacity:0"/>
</radialGradient>
<rect x="-3407.2" y="3515.9" class="st3" width="1920" height="1082"/>
<linearGradient id="SVGID_4_" gradientUnits="userSpaceOnUse" x1="-2447.1599" y1="3602.3567" x2="-2447.1599" y2="3951.6067" gradientTransform="matrix(1 0 0 -1 0 8113.813)">
	<stop  offset="7.000000e-02" style="stop-color:#FABC6B"/>
	<stop  offset="0.11" style="stop-color:#FBB268;stop-opacity:0.87"/>
	<stop  offset="0.2" style="stop-color:#FBA162;stop-opacity:0.64"/>
	<stop  offset="0.29" style="stop-color:#FC925E;stop-opacity:0.45"/>
	<stop  offset="0.37" style="stop-color:#FD865A;stop-opacity:0.29"/>
	<stop  offset="0.46" style="stop-color:#FD7D57;stop-opacity:0.16"/>
	<stop  offset="0.54" style="stop-color:#FE7655;stop-opacity:7.000000e-02"/>
	<stop  offset="0.62" style="stop-color:#FE7253;stop-opacity:2.000000e-02"/>
	<stop  offset="0.69" style="stop-color:#FE7153;stop-opacity:0"/>
</linearGradient>
<rect x="-3407.2" y="3515.9" class="st4" width="1920" height="1082"/>
<linearGradient id="SVGID_5_" gradientUnits="userSpaceOnUse" x1="960" y1="-2649.425" x2="960" y2="4767.6553" gradientTransform="matrix(1 0 0 0.14 0 401.5097)">
	<stop  offset="0" style="stop-color:#59455C"/>
	<stop  offset="0.16" style="stop-color:#5C455C;stop-opacity:0.95"/>
	<stop  offset="0.32" style="stop-color:#63455B;stop-opacity:0.81"/>
	<stop  offset="0.5" style="stop-color:#70455A;stop-opacity:0.58"/>
	<stop  offset="0.67" style="stop-color:#824459;stop-opacity:0.26"/>
	<stop  offset="0.78" style="stop-color:#914458;stop-opacity:0"/>
</linearGradient>
<rect class="st5" width="1920" height="1025.9"/>
<linearGradient id="SVGID_6_" gradientUnits="userSpaceOnUse" x1="-1894.545" y1="3554.1165" x2="-1894.545" y2="3750.3867" gradientTransform="matrix(1 0 0 -1 0 8113.813)">
	<stop  offset="0.32" style="stop-color:#FBEDDA"/>
	<stop  offset="0.57" style="stop-color:#F8E7BA"/>
	<stop  offset="0.98" style="stop-color:#F1DB7B"/>
</linearGradient>
<path class="st6" d="M-1487.5,4430.2c0-0.9-0.7-1.6-1.6-1.6h-30.4c-18.2,0-34.3-9.4-39.7-23.3l-7.2-18.7
	c-5.3-13.8-21.4-23.3-39.7-23.3h-21.5c-22.9,0-41.5,14.7-41.5,32.9v63.8c0,18.2-18.6,32.9-41.4,32.9h-77.3l-64.5-0.7
	c-18.1-0.2-34-9.7-39.2-23.5l-6.3-16.7c-5.2-13.9-21.4-23.5-39.7-23.5h-157.8c-16.5,0-31.4-7.8-38-19.8l0,0
	c-6.6-12-21.5-19.8-38-19.8h-50.2c-22.9,0-41.5,14.7-41.5,32.9v16.4c0,17.6-9.2,34.9-31,36.8c-6.9,0.6-7.7,4-7.7,4
	c0.2,0.6,0.8,1.1,1.4,1.1c12.7,0.3,45.1-0.4,60.1,0.4c3,0.2,13,1.1,11.8,3.8l-32.8,73c-0.4,0.8,0,1.7,0.8,2.1
	c0.2,0.1,0.4,0.1,0.7,0.1h770.6c0.9,0,1.6-0.7,1.6-1.6L-1487.5,4430.2z"/>
<linearGradient id="SVGID_7_" gradientUnits="userSpaceOnUse" x1="-2797.105" y1="3523.4866" x2="-2797.105" y2="3732.9065" gradientTransform="matrix(1 0 0 -1 0 8113.813)">
	<stop  offset="0.32" style="stop-color:#FBEDDA"/>
	<stop  offset="0.57" style="stop-color:#F8E7BA"/>
	<stop  offset="0.98" style="stop-color:#F1DB7B"/>
</linearGradient>
<path class="st7" d="M-3264.9,4406.9l18.4,68.3c4.1,15.2,21,26,40.6,26h10.6c22.9,0,41.5-14.7,41.5-32.9v-16.3
	c0-18.2,18.6-32.9,41.5-32.9h50.2c16.5,0,31.4,7.8,38,19.8l0,0c6.6,12,21.5,19.8,38,19.8h157.9c18.3,0,34.5,9.5,39.7,23.5l6.3,16.6
	c5.2,13.8,21,23.3,39.2,23.5l64.5,0.7h77.3c22.9,0,41.4-14.7,41.4-32.9v-63.8c0-18.2,18.6-32.9,41.5-32.9h21.6
	c18.2,0,34.3,9.5,39.6,23.3l7.2,18.7c5.3,13.8,21.4,23.3,39.6,23.3h30.4c15.9,0,30.3,7.2,37.3,18.5l9.1,14.8
	c6.9,11.3,21.4,18.5,37.3,18.5h51.3c22.9,0,41.4,14.7,41.4,32.9v13.5c0,18.2-18.6,32.9-41.4,32.9h-908.1v0.5h-237.6v-176.5
	c0-18.2,18.6-32.9,41.4-32.9h43.8C-3285.9,4380.9-3268.9,4391.8-3264.9,4406.9z"/>
<linearGradient id="SVGID_8_" gradientUnits="userSpaceOnUse" x1="-2439.0901" y1="3750.3867" x2="-2439.0901" y2="3523.5066" gradientTransform="matrix(1 0 0 -1 0 8113.813)">
	<stop  offset="0.15" style="stop-color:#532037;stop-opacity:0.89"/>
	<stop  offset="0.23" style="stop-color:#5E263A;stop-opacity:0.9"/>
	<stop  offset="0.37" style="stop-color:#7B3641;stop-opacity:0.92"/>
	<stop  offset="0.56" style="stop-color:#AB504D;stop-opacity:0.95"/>
	<stop  offset="0.78" style="stop-color:#EC745D;stop-opacity:0.99"/>
	<stop  offset="0.81" style="stop-color:#F6795F"/>
</linearGradient>
<path class="st8" d="M-1489.1,4428.6h-30.4c-18.2,0-34.3-9.4-39.7-23.3l-7.2-18.7c-5.3-13.8-21.4-23.3-39.7-23.3h-21.5
	c-22.9,0-41.5,14.7-41.5,32.9v63.8c0,18.2-18.6,32.9-41.4,32.9h-77.3l-64.5-0.7c-18.1-0.2-34-9.7-39.2-23.5l-6.3-16.7
	c-5.2-13.9-21.4-23.5-39.7-23.5h-157.8c-16.5,0-31.4-7.8-38-19.8l0,0c-6.6-12-21.5-19.8-38-19.8h-50.2c-22.9,0-41.5,14.7-41.5,32.9
	v16.4c0,17.6-9.2,34.9-31,36.8c-6.9,0.6-7.7,4-7.7,4c0.2,0.6,0.8,1.1,1.4,1.1c12.7,0.3,45.1-0.4,60.1,0.4c3,0.2,13,1.1,11.8,3.8
	l-11.8,26.3c-1.6-0.2-3.2-0.2-4.9-0.2h-51.4c-15.9,0-30.3-7.2-37.3-18.5l-9.1-14.8c-6.9-11.3-21.4-18.5-37.3-18.5h-30.4
	c-18.2,0-34.3-9.4-39.6-23.3l-7.2-18.6c-5.3-13.8-21.4-23.3-39.6-23.3h-21.6c-22.9,0-41.5,14.7-41.5,32.9v63.8
	c0,18.2-18.6,32.9-41.4,32.9h-77.3l-64.5-0.7c-18.1-0.2-34-9.7-39.2-23.5l-6.3-16.6c-5.2-13.9-21.4-23.5-39.7-23.5h-157.8
	c-16.5,0-31.4-7.8-38-19.8s-21.5-19.8-38-19.8h-50.2c-22.9,0-41.5,14.7-41.5,32.9v16.4c0,18.2-18.6,32.9-41.5,32.9h-10.6
	c-19.6,0-36.5-10.8-40.6-26l-18.4-68.4c-4.1-15.2-21-26-40.5-26h-43.8c-22.9,0-41.4,14.7-41.4,32.9v176.5h237.6v-0.5h908.1
	c21.7,0,39.5-13.2,41.3-30.1h714.6c0.9,0,1.6-0.7,1.6-1.6v-127.9C-1487.5,4429.3-1488.2,4428.6-1489.1,4428.6z"/>
<polygon class="st9" points="-1486.8,4597.9 -3407.5,4597.9 -3407.5,4523.8 -2443.5,4522.6 -1486.8,4522.6 "/>
<rect x="-3407.5" y="4567.5" class="st10" width="1920.7" height="11.9"/>
<rect x="-3407.5" y="4538.7" class="st11" width="1920.7" height="16.1"/>
<rect x="-3407.5" y="4579.4" class="st12" width="1920.7" height="18.5"/>
<rect x="-3407.5" y="4590.1" class="st13" width="1920.7" height="7.8"/>
<ellipse cx="-3137.7" cy="4590.3" rx="17.6" ry="1"/>
<ellipse cx="-1603.8" cy="4579.3" rx="17.6" ry="1"/>
<ellipse cx="-2869.1" cy="4559" rx="5.8" ry="0.4"/>
<ellipse cx="-2949.6" cy="4572.2" rx="9.5" ry="0.5"/>
<path class="st14" d="M-2863.5,4559.4c0,0,2.8-0.2,0.4-2.5c-0.9-0.9-5.2-2.3-7,0.9c0,0-1,1.5,1.7,1.6
	C-2865.8,4559.5-2863.5,4559.4-2863.5,4559.4z"/>
<path class="st15" d="M-1586.9,4580.3c0,0,8.4-0.7,1.3-7.5c-2.8-2.6-15.8-7-21,2.7c0,0-3.1,4.7,5,4.8
	C-1593.5,4580.4-1586.9,4580.3-1586.9,4580.3z"/>
<path class="st15" d="M-2941.8,4572.7c0,0,4.2-0.4,0.7-3.7c-1.4-1.3-7.9-3.5-10.5,1.3c0,0-1.5,2.3,2.5,2.4
	C-2945.1,4572.7-2941.8,4572.7-2941.8,4572.7z"/>
<path class="st15" d="M-3121.4,4591.2c0,0,8.4-0.7,1.3-7.5c-2.8-2.6-15.8-6.9-21,2.7c0,0-3.1,4.7,5,4.8
	S-3121.4,4591.2-3121.4,4591.2z"/>
<ellipse cx="-1566.3" cy="4579" rx="11.4" ry="1.1"/>
<path d="M-3097,4592.7c8.6,0,15.6,0.6,15.6,1.3c0,0.7-7,1.3-15.6,1.3s-15.6-0.6-15.6-1.3"/>
<ellipse cx="-2855.9" cy="4585.6" rx="10.3" ry="0.9"/>
<ellipse cx="-2928.1" cy="4572.1" rx="7.4" ry="0.6"/>
<ellipse cx="-1978.8" cy="4558.9" rx="6.9" ry="0.6"/>
<path class="st16" d="M-3089,4592.3v-12.1c0-3.5-5.5-3.5-5.5,0v12.1C-3094.5,4595.8-3089,4595.8-3089,4592.3z"/>
<path class="st17" d="M-3089.1,4593c0.1-0.3,0.2-0.5,0.3-0.8c0.2-0.5-0.1,0.2,0.2-0.4c0.2-0.4,0.4-0.8,0.7-1.2
	c1.4-2.1,3.3-3.8,5.5-4.9c3.1-1.6,0.4-6.4-2.8-4.7c-4,2.1-8,6-9.1,10.6C-3095.2,4595-3089.9,4596.5-3089.1,4593L-3089.1,4593z"/>
<path class="st17" d="M-3100.6,4586.5c0.3,0.1-0.4-0.2-0.4-0.2c0.2,0.1,0.4,0.2,0.6,0.3c0.5,0.3,1.1,0.6,1.6,1
	c2,1.6,3.6,3.7,4.7,6.1c1.6,3.2,6.3,0.4,4.7-2.8c-2-4-5.3-8.1-9.7-9.7C-3102.4,4580.1-3103.9,4585.4-3100.6,4586.5L-3100.6,4586.5z"
	/>
<path class="st18" d="M-2850.1,4584.2v-8c0-1-0.8-1.8-1.8-1.8c-1,0-1.8,0.8-1.8,1.8v8c0,1,0.8,1.8,1.8,1.8
	C-2850.9,4586-2850.1,4585.2-2850.1,4584.2z"/>
<path class="st19" d="M-2850.1,4584.6c0-0.2,0.1-0.4,0.2-0.5c0.1-0.3-0.1,0.1,0.1-0.3s0.3-0.5,0.4-0.8c0.9-1.4,2.1-2.5,3.6-3.2
	c2.1-1.1,0.2-4.2-1.8-3.1c-2.7,1.4-5.3,3.9-6,7C-2854.2,4586-2850.6,4586.9-2850.1,4584.6L-2850.1,4584.6z"/>
<path class="st19" d="M-2857.7,4580.3l-0.3-0.1c0.1,0.1,0.3,0.1,0.4,0.2c0.3,0.2,0.8,0.5,1,0.6c1.3,1.1,2.4,2.4,3.1,4
	c1,2.1,4.1,0.3,3.1-1.8c-1.3-2.7-3.5-5.4-6.4-6.4C-2858.9,4576.1-2859.9,4579.6-2857.7,4580.3L-2857.7,4580.3z"/>
<path class="st20" d="M-2924.5,4570.4v-5.5c0-0.5-0.4-0.9-0.9-0.9c-0.5,0-0.9,0.4-0.9,0.9v5.5c0,0.5,0.4,0.9,0.9,0.9
	C-2924.9,4571.3-2924.5,4570.9-2924.5,4570.4L-2924.5,4570.4z"/>
<path class="st19" d="M-2924.4,4571.4c0,0.3,0-0.1,0.1-0.3c0.1-0.4,0.2-0.7,0.4-1.1c0.7-1.3,1.7-2.3,3-2.9c1-0.6,0.1-2.1-0.9-1.6
	c-2.1,1.2-4.1,3.3-4.3,5.8C-2926.3,4572.6-2924.4,4572.6-2924.4,4571.4L-2924.4,4571.4z"/>
<path class="st19" d="M-2929.4,4567.3C-2929.5,4567.3-2929.5,4567.2-2929.4,4567.3c-0.1-0.1,0.5,0.3,0.6,0.4
	c1.2,1.2,2.1,2.6,2.8,4.2c0.5,1,2.1,0.1,1.6-0.9c-0.7-1.8-1.8-3.4-3.2-4.7c-0.5-0.4-1-0.7-1.7-0.8
	C-2930.5,4565.6-2930.5,4567.4-2929.4,4567.3L-2929.4,4567.3z"/>
<path class="st21" d="M-1976.8,4557.3v-5.5c0-0.5-0.4-0.9-0.9-0.9s-0.9,0.4-0.9,0.9l0,0v5.5c0,0.5,0.4,0.9,0.9,0.9
	S-1976.8,4557.8-1976.8,4557.3z"/>
<path class="st19" d="M-1976.7,4558.3c0,0.3,0-0.1,0.1-0.3c0.1-0.4,0.2-0.7,0.4-1.1c0.7-1.3,1.7-2.3,3-2.9c1-0.6,0.1-2.1-0.9-1.5
	c-2.1,1.2-4.1,3.3-4.3,5.8C-1978.6,4559.5-1976.8,4559.5-1976.7,4558.3L-1976.7,4558.3z"/>
<path class="st19" d="M-1981.7,4554.2C-1981.8,4554.2-1981.8,4554.1-1981.7,4554.2c-0.1-0.1,0.5,0.3,0.6,0.4
	c1.2,1.2,2.1,2.6,2.7,4.2c0.5,1.1,2.1,0.1,1.6-0.9c-0.7-1.8-1.8-3.4-3.2-4.7c-0.4-0.4-1-0.7-1.7-0.8
	C-1982.8,4552.4-1982.8,4554.2-1981.7,4554.2L-1981.7,4554.2z"/>
<path class="st22" d="M-1561.1,4577.1v-10.3c0-2.7-4.2-2.7-4.2,0v10.3C-1565.3,4579.8-1561.1,4579.8-1561.1,4577.1z"/>
<path class="st19" d="M-1561.4,4577.9c1.3-2.6,3.2-4.8,5.6-6.5c2.2-1.5,0.1-5.1-2.1-3.6c-3,2-5.5,4.8-7.1,8
	C-1566.2,4578.2-1562.5,4580.4-1561.4,4577.9L-1561.4,4577.9z"/>
<path class="st19" d="M-1570.4,4571.4l0.2,0.1c0.4,0.3-0.2-0.2,0.2,0.2c0.5,0.4,1,0.8,1.4,1.3c1.5,1.5,2.7,3.2,3.6,5.1
	c1.2,2.4,4.8,0.3,3.6-2.1c-1.6-3.3-4-6.1-7-8.2C-1570.6,4566.3-1572.7,4569.9-1570.4,4571.4L-1570.4,4571.4z"/>
<linearGradient id="SVGID_9_" gradientUnits="userSpaceOnUse" x1="-1897.9552" y1="3572.5964" x2="-1897.9552" y2="3713.8867" gradientTransform="matrix(1 0 0 -1 0 8113.813)">
	<stop  offset="0" style="stop-color:#773C41"/>
	<stop  offset="0.55" style="stop-color:#642F36"/>
	<stop  offset="1" style="stop-color:#51222B"/>
</linearGradient>
<path class="st23" d="M-1592.6,4417.5l-12.4,46.1c-2.8,10.2-14.2,17.6-27.4,17.6h-7.1c-15.4,0-28-9.9-28-22.2v-11.1
	c0-12.3-12.5-22.2-28-22.2h-33.9c-11.1,0-21.2,5.2-25.7,13.3l0,0c-4.4,8.1-14.5,13.3-25.7,13.3h-106.5c-12.4,0-23.3,6.4-26.8,15.9
	l-4.2,11.2c-3.5,9.3-14.2,15.7-26.4,15.9l-43.6,0.5h-52.2c-15.5,0-28-9.9-28-22.2v-43c0-12.3-12.5-22.2-28-22.2h-14.6
	c-12.3,0-23.2,6.4-26.8,15.7l-4.8,12.6c-3.6,9.3-14.5,15.7-26.8,15.7h-20.5c-10.7,0-20.5,4.9-25.2,12.5l-6.1,10
	c-4.7,7.6-14.4,12.5-25.2,12.5h-34.7c-15.5,0-28,9.9-28,22.2v9.1c0,12.3,12.5,22.2,28,22.2h612.9v0.4h181l0.2-39.5l0,0
	c-11.5,0-20.9-9.3-20.9-20.8c0,0,0,0,0-0.1v-58.8c0-12.3-12.5-22.2-28-22.2h-29.6C-1578.5,4399.9-1589.9,4407.2-1592.6,4417.5z"/>
<linearGradient id="SVGID_10_" gradientUnits="userSpaceOnUse" x1="-2992.4541" y1="3572.5298" x2="-2992.4541" y2="3705.3867" gradientTransform="matrix(1 0 0 -1 0 8113.813)">
	<stop  offset="0" style="stop-color:#773C41"/>
	<stop  offset="0.55" style="stop-color:#642F36"/>
	<stop  offset="1" style="stop-color:#51222B"/>
</linearGradient>
<path class="st24" d="M-2634.6,4487.4h-45.2c-13.9,0-26.7-4.9-32.8-12.5l-8-10c-6.1-7.6-18.8-12.5-32.8-12.5h-26.7
	c-16,0-30.2-6.4-34.8-15.7l-6.3-12.6c-4.7-9.3-18.8-15.7-34.8-15.7h-18.9c-20.1,0-36.4,9.9-36.4,22.2v43c0,12.3-16.3,22.2-36.4,22.2
	h-68l-56.7-0.5c-15.9-0.1-29.9-6.5-34.4-15.9l-5.5-11.2c-4.6-9.4-18.8-15.9-34.9-15.9h-138.7c-14.5,0-27.6-5.2-33.4-13.3
	c-5.8-8.1-18.9-13.3-33.4-13.3h-44.9c-5.3,0.1-9.6,4.4-9.6,9.8v105.4h772.9c12.3,0,33.8,1.2,48.7-0.7c5.4-0.7,9.1-5.6,8.5-10.9
	c-0.3-2.6-1.7-4.9-3.7-6.5l-3.4-2.7c-6.4-5.1-11.7-11.3-15.9-18.3C-2605.6,4493.4-2619,4487.4-2634.6,4487.4z"/>
<g>
	<g id="artboard_1">
		<g id="dusk">
			<rect x="-5417.4" y="3516.9" class="st0" width="1920" height="1080.9"/>
			
				<radialGradient id="SVGID_11_" cx="-4458.6094" cy="3987.1521" r="1918.5765" fx="-4399.1973" fy="5008.4209" gradientTransform="matrix(0.9926 0.1213 6.431530e-02 -0.5261 -287.5111 6693.0933)" gradientUnits="userSpaceOnUse">
				<stop  offset="9.000000e-02" style="stop-color:#FF5967"/>
				<stop  offset="0.16" style="stop-color:#FF5967;stop-opacity:0.79"/>
				<stop  offset="0.23" style="stop-color:#FF5967;stop-opacity:0.58"/>
				<stop  offset="0.3" style="stop-color:#FF5967;stop-opacity:0.4"/>
				<stop  offset="0.38" style="stop-color:#FF5967;stop-opacity:0.26"/>
				<stop  offset="0.45" style="stop-color:#FF5967;stop-opacity:0.14"/>
				<stop  offset="0.52" style="stop-color:#FF5967;stop-opacity:6.000000e-02"/>
				<stop  offset="0.59" style="stop-color:#FF5967;stop-opacity:2.000000e-02"/>
				<stop  offset="0.66" style="stop-color:#FF5967;stop-opacity:0"/>
				<stop  offset="1" style="stop-color:#FF5967;stop-opacity:0"/>
			</radialGradient>
			<rect x="-5417" y="3515.9" class="st25" width="1920" height="1082"/>
			
				<linearGradient id="SVGID_12_" gradientUnits="userSpaceOnUse" x1="-4457.0322" y1="3515.9265" x2="-4457.0322" y2="4066.1365" gradientTransform="matrix(1 0 0 -1 0 8113.813)">
				<stop  offset="9.000000e-02" style="stop-color:#FF5967"/>
				<stop  offset="0.16" style="stop-color:#FF5967;stop-opacity:0.79"/>
				<stop  offset="0.23" style="stop-color:#FF5967;stop-opacity:0.58"/>
				<stop  offset="0.3" style="stop-color:#FF5967;stop-opacity:0.4"/>
				<stop  offset="0.38" style="stop-color:#FF5967;stop-opacity:0.26"/>
				<stop  offset="0.45" style="stop-color:#FF5967;stop-opacity:0.14"/>
				<stop  offset="0.52" style="stop-color:#FF5967;stop-opacity:6.000000e-02"/>
				<stop  offset="0.59" style="stop-color:#FF5967;stop-opacity:2.000000e-02"/>
				<stop  offset="0.66" style="stop-color:#FF5967;stop-opacity:0"/>
				<stop  offset="1" style="stop-color:#FF5967;stop-opacity:0"/>
			</linearGradient>
			<rect x="-5417" y="3515.9" class="st26" width="1920" height="1082"/>
			
				<radialGradient id="SVGID_13_" cx="-4078.9558" cy="4108.8213" r="754.88" fx="-4617.6973" fy="4084.5151" gradientTransform="matrix(0.2083 -0.9781 -2.944 -0.6268 8459.9004 2702.333)" gradientUnits="userSpaceOnUse">
				<stop  offset="7.000000e-02" style="stop-color:#FE9B46"/>
				<stop  offset="7.000000e-02" style="stop-color:#FE9B46"/>
				<stop  offset="0.12" style="stop-color:#F98B4E;stop-opacity:0.77"/>
				<stop  offset="0.16" style="stop-color:#F57D55;stop-opacity:0.56"/>
				<stop  offset="0.21" style="stop-color:#F1725B;stop-opacity:0.39"/>
				<stop  offset="0.26" style="stop-color:#EE6860;stop-opacity:0.25"/>
				<stop  offset="0.31" style="stop-color:#EC6163;stop-opacity:0.14"/>
				<stop  offset="0.36" style="stop-color:#EA5B66;stop-opacity:6.000000e-02"/>
				<stop  offset="0.41" style="stop-color:#E95867;stop-opacity:2.000000e-02"/>
				<stop  offset="0.46" style="stop-color:#E95768;stop-opacity:0"/>
			</radialGradient>
			<rect x="-5417" y="3515.9" class="st27" width="1920" height="1082"/>
			
				<linearGradient id="SVGID_14_" gradientUnits="userSpaceOnUse" x1="-4457.0322" y1="3602.3567" x2="-4457.0322" y2="3951.6067" gradientTransform="matrix(1 0 0 -1 0 8113.813)">
				<stop  offset="7.000000e-02" style="stop-color:#FABC6B"/>
				<stop  offset="0.11" style="stop-color:#FBB268;stop-opacity:0.87"/>
				<stop  offset="0.2" style="stop-color:#FBA162;stop-opacity:0.64"/>
				<stop  offset="0.29" style="stop-color:#FC925E;stop-opacity:0.45"/>
				<stop  offset="0.37" style="stop-color:#FD865A;stop-opacity:0.29"/>
				<stop  offset="0.46" style="stop-color:#FD7D57;stop-opacity:0.16"/>
				<stop  offset="0.54" style="stop-color:#FE7655;stop-opacity:7.000000e-02"/>
				<stop  offset="0.62" style="stop-color:#FE7253;stop-opacity:2.000000e-02"/>
				<stop  offset="0.69" style="stop-color:#FE7153;stop-opacity:0"/>
			</linearGradient>
			<rect x="-5417" y="3515.9" class="st28" width="1920" height="1082"/>
			
				<linearGradient id="SVGID_15_" gradientUnits="userSpaceOnUse" x1="-4457.2822" y1="22464.1934" x2="-4457.2822" y2="29881.2734" gradientTransform="matrix(1 0 0 0.14 0 401.5097)">
				<stop  offset="0" style="stop-color:#59455C"/>
				<stop  offset="0.16" style="stop-color:#5C455C;stop-opacity:0.95"/>
				<stop  offset="0.32" style="stop-color:#63455B;stop-opacity:0.81"/>
				<stop  offset="0.5" style="stop-color:#70455A;stop-opacity:0.58"/>
				<stop  offset="0.67" style="stop-color:#824459;stop-opacity:0.26"/>
				<stop  offset="0.78" style="stop-color:#914458;stop-opacity:0"/>
			</linearGradient>
			<rect x="-5417.3" y="3515.9" class="st29" width="1920" height="1025.9"/>
			
				<linearGradient id="SVGID_16_" gradientUnits="userSpaceOnUse" x1="-3904.4175" y1="3554.1165" x2="-3904.4175" y2="3750.3867" gradientTransform="matrix(1 0 0 -1 0 8113.813)">
				<stop  offset="0.32" style="stop-color:#FBEDDA"/>
				<stop  offset="0.57" style="stop-color:#F8E7BA"/>
				<stop  offset="0.98" style="stop-color:#F1DB7B"/>
			</linearGradient>
			<path class="st30" d="M-3497.4,4430.2c0-0.9-0.7-1.6-1.6-1.6h-30.4c-18.2,0-34.3-9.4-39.7-23.3l-7.2-18.7
				c-5.3-13.8-21.4-23.3-39.7-23.3h-21.5c-22.9,0-41.5,14.7-41.5,32.9v63.8c0,18.2-18.6,32.9-41.4,32.9h-77.3l-64.5-0.7
				c-18.1-0.2-34-9.7-39.2-23.5l-6.3-16.7c-5.2-13.9-21.4-23.5-39.7-23.5h-157.8c-16.5,0-31.4-7.8-38-19.8l0,0
				c-6.6-12-21.5-19.8-38-19.8h-50.2c-22.9,0-41.5,14.7-41.5,32.9v16.4c0,17.6-9.2,34.9-31,36.8c-6.9,0.6-7.7,4-7.7,4
				c0.2,0.6,0.8,1.1,1.5,1.1c12.7,0.3,45.1-0.4,60.1,0.4c3,0.2,13,1.1,11.8,3.8l-32.8,73c-0.4,0.8,0,1.7,0.8,2.1
				c0.2,0.1,0.4,0.1,0.7,0.1h770.6c0.9,0,1.6-0.7,1.6-1.6L-3497.4,4430.2z"/>
			
				<linearGradient id="SVGID_17_" gradientUnits="userSpaceOnUse" x1="-4806.9775" y1="3523.4866" x2="-4806.9775" y2="3732.9065" gradientTransform="matrix(1 0 0 -1 0 8113.813)">
				<stop  offset="0.32" style="stop-color:#FBEDDA"/>
				<stop  offset="0.57" style="stop-color:#F8E7BA"/>
				<stop  offset="0.98" style="stop-color:#F1DB7B"/>
			</linearGradient>
			<path class="st31" d="M-5274.7,4406.9l18.4,68.3c4.1,15.2,21,26,40.5,26h10.6c22.9,0,41.5-14.7,41.5-32.9v-16.3
				c0-18.2,18.6-32.9,41.5-32.9h50.2c16.5,0,31.4,7.8,38,19.8l0,0c6.6,12,21.5,19.8,38,19.8h157.9c18.3,0,34.5,9.5,39.7,23.5
				l6.3,16.6c5.2,13.8,21,23.3,39.2,23.5l64.5,0.7h77.3c22.9,0,41.5-14.7,41.5-32.9v-63.8c0-18.2,18.6-32.9,41.5-32.9h21.5
				c18.2,0,34.3,9.5,39.6,23.3l7.2,18.7c5.3,13.8,21.4,23.3,39.6,23.3h30.4c15.9,0,30.3,7.2,37.3,18.5l9.1,14.8
				c6.9,11.3,21.4,18.5,37.3,18.5h51.3c22.9,0,41.5,14.7,41.5,32.9v13.5c0,18.2-18.6,32.9-41.5,32.9h-908.1v0.5h-237.6v-176.5
				c0-18.2,18.6-32.9,41.4-32.9h43.8C-5295.7,4380.9-5278.8,4391.8-5274.7,4406.9z"/>
			
				<linearGradient id="SVGID_18_" gradientUnits="userSpaceOnUse" x1="-4448.9624" y1="3750.3867" x2="-4448.9624" y2="3523.5066" gradientTransform="matrix(1 0 0 -1 0 8113.813)">
				<stop  offset="0.15" style="stop-color:#532037;stop-opacity:0.89"/>
				<stop  offset="0.23" style="stop-color:#5E263A;stop-opacity:0.9"/>
				<stop  offset="0.37" style="stop-color:#7B3641;stop-opacity:0.92"/>
				<stop  offset="0.56" style="stop-color:#AB504D;stop-opacity:0.95"/>
				<stop  offset="0.78" style="stop-color:#EC745D;stop-opacity:0.99"/>
				<stop  offset="0.81" style="stop-color:#F6795F"/>
			</linearGradient>
			<path class="st32" d="M-3499,4428.6h-30.4c-18.2,0-34.3-9.4-39.7-23.3l-7.2-18.7c-5.3-13.8-21.4-23.3-39.7-23.3h-21.5
				c-22.9,0-41.5,14.7-41.5,32.9v63.8c0,18.2-18.6,32.9-41.4,32.9h-77.3l-64.5-0.7c-18.1-0.2-34-9.7-39.2-23.5l-6.3-16.7
				c-5.2-13.9-21.4-23.5-39.7-23.5h-157.8c-16.5,0-31.4-7.8-38-19.8l0,0c-6.6-12-21.5-19.8-38-19.8h-50.2
				c-22.9,0-41.5,14.7-41.5,32.9v16.4c0,17.6-9.2,34.9-31,36.8c-6.9,0.6-7.7,4-7.7,4c0.2,0.6,0.8,1.1,1.5,1.1
				c12.7,0.3,45.1-0.4,60.1,0.4c3,0.2,13,1.1,11.8,3.8l-11.8,26.3c-1.6-0.2-3.2-0.2-4.9-0.2h-51.4c-15.9,0-30.4-7.2-37.3-18.5
				l-9.1-14.8c-6.9-11.3-21.4-18.5-37.3-18.5h-30.4c-18.2,0-34.3-9.4-39.6-23.3l-7.2-18.6c-5.3-13.8-21.4-23.3-39.6-23.3h-21.6
				c-22.9,0-41.5,14.7-41.5,32.9v63.8c0,18.2-18.6,32.9-41.5,32.9h-77.3l-64.5-0.7c-18.1-0.2-34-9.7-39.2-23.5l-6.3-16.6
				c-5.2-13.9-21.4-23.5-39.7-23.5h-157.9c-16.5,0-31.4-7.8-38-19.8s-21.5-19.8-38-19.8h-50.2c-22.9,0-41.5,14.7-41.5,32.9v16.4
				c0,18.2-18.6,32.9-41.5,32.9h-10.6c-19.6,0-36.5-10.8-40.5-26l-18.4-68.4c-4.1-15.2-21-26-40.5-26h-43.8
				c-22.9,0-41.4,14.7-41.4,32.9v176.5h237.6v-0.5h908.1c21.7,0,39.5-13.2,41.3-30.1h714.6c0.9,0,1.6-0.7,1.6-1.6v-127.9
				C-3497.4,4429.3-3498.1,4428.6-3499,4428.6z"/>
			<polygon class="st9" points="-3496.7,4597.9 -5417.4,4597.9 -5417.4,4523.8 -4453.3,4522.6 -3496.7,4522.6 			"/>
			<rect x="-5417.4" y="4567.5" class="st10" width="1920.7" height="11.9"/>
			<rect x="-5417.4" y="4538.7" class="st11" width="1920.7" height="16.1"/>
			<rect x="-5417.4" y="4579.4" class="st12" width="1920.7" height="18.5"/>
			<rect x="-5417.4" y="4590.1" class="st13" width="1920.7" height="7.8"/>
			<ellipse cx="-5147.6" cy="4590.3" rx="17.6" ry="1"/>
			<ellipse cx="-4879" cy="4559" rx="5.8" ry="0.4"/>
			<ellipse cx="-4959.4" cy="4572.2" rx="9.5" ry="0.5"/>
			<path class="st14" d="M-4873.4,4559.4c0,0,2.8-0.2,0.4-2.5c-0.9-0.9-5.2-2.3-7,0.9c0,0-1,1.5,1.7,1.6
				C-4875.6,4559.5-4873.4,4559.4-4873.4,4559.4z"/>
			<path class="st15" d="M-4951.7,4572.7c0,0,4.2-0.4,0.7-3.7c-1.4-1.3-7.9-3.5-10.5,1.3c0,0-1.5,2.3,2.5,2.4
				C-4955,4572.7-4951.7,4572.7-4951.7,4572.7z"/>
			<path class="st15" d="M-5131.2,4591.2c0,0,8.4-0.7,1.3-7.5c-2.8-2.6-15.8-6.9-21,2.7c0,0-3.1,4.7,5,4.8
				C-5137.8,4591.3-5131.2,4591.2-5131.2,4591.2z"/>
			<path d="M-5106.9,4592.7c8.6,0,15.6,0.6,15.6,1.3c0,0.7-7,1.3-15.6,1.3c-8.6,0-15.6-0.6-15.6-1.3"/>
			<ellipse cx="-4865.8" cy="4585.6" rx="10.3" ry="0.9"/>
			<ellipse cx="-4938" cy="4572.1" rx="7.4" ry="0.6"/>
			<ellipse cx="-3988.7" cy="4558.9" rx="6.9" ry="0.6"/>
			<path class="st16" d="M-5098.9,4592.3v-12.1c0-3.5-5.5-3.5-5.5,0v12.1C-5104.4,4595.8-5098.9,4595.8-5098.9,4592.3z"/>
			<path class="st17" d="M-5099,4593c0.1-0.3,0.2-0.5,0.3-0.8c0.2-0.5-0.1,0.2,0.2-0.4c0.2-0.4,0.4-0.8,0.7-1.2
				c1.4-2.1,3.3-3.8,5.5-4.9c3.1-1.6,0.4-6.4-2.8-4.7c-4,2.1-8,6-9.1,10.6C-5105.1,4595-5099.8,4596.5-5099,4593L-5099,4593z"/>
			<path class="st17" d="M-5110.4,4586.5c0.3,0.1-0.4-0.2-0.4-0.2c0.2,0.1,0.4,0.2,0.6,0.3c0.5,0.3,1.1,0.6,1.5,1
				c2,1.6,3.6,3.7,4.7,6.1c1.6,3.2,6.3,0.4,4.7-2.8c-2-4-5.3-8.1-9.7-9.7C-5112.3,4580.1-5113.7,4585.4-5110.4,4586.5
				L-5110.4,4586.5z"/>
			<path class="st18" d="M-4860,4584.2v-8c0-1-0.8-1.8-1.8-1.8c-1,0-1.8,0.8-1.8,1.8v8c0,1,0.8,1.8,1.8,1.8
				C-4860.8,4586-4860,4585.2-4860,4584.2z"/>
			<path class="st19" d="M-4860,4584.6c0-0.2,0.1-0.4,0.2-0.5c0.1-0.3-0.1,0.1,0.1-0.3c0.2-0.4,0.3-0.5,0.4-0.8
				c0.9-1.4,2.1-2.5,3.6-3.2c2.1-1.1,0.2-4.2-1.8-3.1c-2.7,1.4-5.3,3.9-6,7C-4864,4586-4860.5,4586.9-4860,4584.6L-4860,4584.6z"/>
			<path class="st19" d="M-4867.5,4580.3l-0.3-0.1c0.1,0.1,0.3,0.1,0.4,0.2c0.3,0.2,0.8,0.5,1,0.6c1.3,1.1,2.4,2.4,3.1,4
				c1,2.1,4.2,0.3,3.1-1.8c-1.3-2.7-3.5-5.4-6.4-6.4C-4868.8,4576.1-4869.7,4579.6-4867.5,4580.3L-4867.5,4580.3z"/>
			<path class="st20" d="M-4934.4,4570.4v-5.5c0-0.5-0.4-0.9-0.9-0.9c-0.5,0-0.9,0.4-0.9,0.9v5.5c0,0.5,0.4,0.9,0.9,0.9
				C-4934.8,4571.3-4934.4,4570.9-4934.4,4570.4L-4934.4,4570.4z"/>
			<path class="st19" d="M-4934.2,4571.4c0,0.3,0-0.1,0.1-0.3c0.1-0.4,0.2-0.7,0.4-1.1c0.7-1.3,1.7-2.3,3-2.9c1-0.6,0.1-2.1-0.9-1.6
				c-2.1,1.2-4.1,3.3-4.4,5.8C-4936.1,4572.6-4934.3,4572.6-4934.2,4571.4L-4934.2,4571.4z"/>
			<path class="st19" d="M-4939.2,4567.3C-4939.4,4567.3-4939.3,4567.2-4939.2,4567.3c-0.1-0.1,0.5,0.3,0.6,0.4
				c1.2,1.2,2.1,2.6,2.8,4.2c0.5,1,2.1,0.1,1.6-0.9c-0.7-1.8-1.8-3.4-3.2-4.7c-0.5-0.4-1-0.7-1.7-0.8
				C-4940.4,4565.6-4940.4,4567.4-4939.2,4567.3L-4939.2,4567.3z"/>
			<path class="st21" d="M-3986.7,4557.3v-5.5c0-0.5-0.4-0.9-0.9-0.9s-0.9,0.4-0.9,0.9l0,0v5.5c0,0.5,0.4,0.9,0.9,0.9
				S-3986.7,4557.8-3986.7,4557.3z"/>
			<path class="st19" d="M-3986.5,4558.3c0,0.3,0-0.1,0.1-0.3c0.1-0.4,0.2-0.7,0.4-1.1c0.7-1.3,1.7-2.3,3-2.9c1-0.6,0.1-2.1-0.9-1.5
				c-2.1,1.2-4.1,3.3-4.4,5.8C-3988.4,4559.5-3986.6,4559.5-3986.5,4558.3L-3986.5,4558.3z"/>
			<path class="st19" d="M-3991.5,4554.2C-3991.7,4554.2-3991.7,4554.1-3991.5,4554.2c-0.1-0.1,0.5,0.3,0.6,0.4
				c1.2,1.2,2.1,2.6,2.7,4.2c0.5,1.1,2.1,0.1,1.6-0.9c-0.7-1.8-1.8-3.4-3.2-4.7c-0.4-0.4-1-0.7-1.7-0.8
				C-3992.7,4552.4-3992.7,4554.2-3991.5,4554.2L-3991.5,4554.2z"/>
			<g>
				<ellipse cx="-3613.7" cy="4579.3" rx="17.6" ry="1"/>
				<path class="st15" d="M-3596.8,4580.3c0,0,8.4-0.7,1.3-7.5c-2.8-2.6-15.8-7-21,2.7c0,0-3.1,4.7,5,4.8
					C-3603.4,4580.4-3596.8,4580.3-3596.8,4580.3z"/>
				<ellipse cx="-3576.1" cy="4579" rx="11.4" ry="1.1"/>
				<path class="st22" d="M-3570.9,4577.1v-10.3c0-2.7-4.2-2.7-4.2,0v10.3C-3575.1,4579.8-3570.9,4579.8-3570.9,4577.1z"/>
				<path class="st19" d="M-3571.2,4577.9c1.3-2.6,3.2-4.8,5.6-6.5c2.2-1.5,0.1-5.1-2.1-3.6c-3,2-5.5,4.8-7.1,8
					C-3576,4578.2-3572.4,4580.4-3571.2,4577.9L-3571.2,4577.9z"/>
				<path class="st19" d="M-3580.3,4571.4l0.2,0.1c0.4,0.3-0.2-0.2,0.2,0.2c0.5,0.4,1,0.8,1.4,1.3c1.5,1.5,2.7,3.2,3.6,5.1
					c1.2,2.4,4.8,0.3,3.6-2.1c-1.6-3.3-4-6.1-7-8.2C-3580.5,4566.3-3582.6,4569.9-3580.3,4571.4L-3580.3,4571.4z"/>
			</g>
			
				<linearGradient id="SVGID_19_" gradientUnits="userSpaceOnUse" x1="-3907.8274" y1="3572.5964" x2="-3907.8274" y2="3713.8867" gradientTransform="matrix(1 0 0 -1 0 8113.813)">
				<stop  offset="0" style="stop-color:#773C41"/>
				<stop  offset="0.55" style="stop-color:#642F36"/>
				<stop  offset="1" style="stop-color:#51222B"/>
			</linearGradient>
			<path class="st33" d="M-3602.5,4417.5l-12.4,46.1c-2.8,10.2-14.2,17.6-27.4,17.6h-7.1c-15.4,0-28-9.9-28-22.2v-11.1
				c0-12.3-12.5-22.2-28-22.2h-33.9c-11.1,0-21.2,5.2-25.6,13.3l0,0c-4.4,8.1-14.5,13.3-25.7,13.3h-106.5
				c-12.4,0-23.3,6.4-26.8,15.9l-4.2,11.2c-3.5,9.3-14.2,15.7-26.4,15.9l-43.6,0.5h-52.2c-15.4,0-28-9.9-28-22.2v-43
				c0-12.3-12.5-22.2-28-22.2h-14.5c-12.3,0-23.2,6.4-26.8,15.7l-4.9,12.6c-3.6,9.3-14.5,15.7-26.8,15.7h-20.5
				c-10.7,0-20.5,4.9-25.2,12.5l-6.1,10c-4.7,7.6-14.5,12.5-25.2,12.5h-34.7c-15.4,0-28,9.9-28,22.2v9.1c0,12.3,12.5,22.2,28,22.2
				h612.9v0.4h181l0.2-39.5l0,0c-11.5,0-20.9-9.3-20.9-20.8c0,0,0,0,0-0.1v-58.8c0-12.3-12.5-22.2-28-22.2h-29.6
				C-3588.3,4399.9-3599.7,4407.2-3602.5,4417.5z"/>
			
				<linearGradient id="SVGID_20_" gradientUnits="userSpaceOnUse" x1="-5002.3267" y1="3572.5298" x2="-5002.3267" y2="3705.3867" gradientTransform="matrix(1 0 0 -1 0 8113.813)">
				<stop  offset="0" style="stop-color:#773C41"/>
				<stop  offset="0.55" style="stop-color:#642F36"/>
				<stop  offset="1" style="stop-color:#51222B"/>
			</linearGradient>
			<path class="st34" d="M-4644.5,4487.4h-45.2c-14,0-26.7-4.9-32.8-12.5l-8-10c-6.1-7.6-18.8-12.5-32.8-12.5h-26.7
				c-16,0-30.2-6.4-34.8-15.7l-6.3-12.6c-4.7-9.3-18.8-15.7-34.8-15.7h-18.9c-20.1,0-36.4,9.9-36.4,22.2v43
				c0,12.3-16.3,22.2-36.4,22.2h-68l-56.7-0.5c-15.9-0.1-29.9-6.5-34.4-15.9l-5.5-11.2c-4.6-9.4-18.8-15.9-34.9-15.9h-138.7
				c-14.5,0-27.6-5.2-33.4-13.3s-18.9-13.3-33.4-13.3h-44.9c-5.3,0.1-9.6,4.4-9.6,9.8v105.4h772.9c12.3,0,33.8,1.2,48.7-0.7
				c5.4-0.7,9.1-5.6,8.5-10.9c-0.3-2.6-1.7-4.9-3.7-6.5l-3.4-2.7c-6.4-5.1-11.7-11.3-15.9-18.3
				C-4615.5,4493.4-4628.9,4487.4-4644.5,4487.4z"/>
			<path class="st35" d="M-4382.9,4009.7L-4382.9,4009.7c0-8.1,6.6-14.7,14.7-14.7l371.2-1c8.1,0,14.7,6.6,14.8,14.7c0,0,0,0,0,0
				l0,0c0,8.1-6.6,14.7-14.7,14.7c0,0,0,0,0,0h-44.8c-8.1,0-14.7,6.6-14.7,14.7v11.2c0,8.1,6.6,14.7,14.7,14.7h147.3
				c8.1,0,14.7,6.6,14.7,14.7l0,0c0,8.1-6.6,14.7-14.7,14.7H-4153c-8.1,0-14.7-6.6-14.7-14.7l0,0c0-8.1,6.6-14.7,14.7-14.7h16
				c8.1,0,14.7-6.6,14.7-14.7v-11.2c0-8.1-6.6-14.7-14.7-14.7c0,0-0.1,0-0.1,0l-231,0.9C-4376.2,4024.5-4382.8,4017.9-4382.9,4009.7
				C-4382.9,4009.7-4382.9,4009.7-4382.9,4009.7z"/>
		</g>
		<path class="st36" d="M-3661.9,4597.9v-17.6c0-9.6-15-9.7-15,0v17.6H-3661.9z"/>
		<path class="st19" d="M-3689.1,4596.6c0.5,0.3,1,0.6,1.5,1l0.4,0.3h20.9c-4-5.7-9.2-10.6-15.2-14.2
			C-3689.8,4578.7-3697.4,4591.7-3689.1,4596.6z"/>
		<path class="st19" d="M-3651.5,4597.9c0.7-0.5,1.3-0.9,2-1.3c8.3-4.9,0.8-17.9-7.6-13c-6.2,3.7-11.6,8.5-15.8,14.3H-3651.5z"/>
	</g>
</g>
<path class="st37" d="M-4951.4,4177.1L-4951.4,4177.1c0-5.3,3.4-9.6,7.7-9.6h617.6c4.3,0,7.7,4.3,7.7,9.6l0,0c0,5.3-3.5,9.6-7.7,9.6
	h-115.2c-32.3,0.5-64.6,0-96.9,0.7c-4.2,0.1-7.6,6.9-7.6,12.1v1.3c0,5.2,3.4,11.8,7.6,11.9c31.3,0.6,62.7-0.3,94,0.3h284.5
	c4.3,0,7.7,4.3,7.7,9.6l0,0c0,5.3-3.5,9.6-7.7,9.6h-617.6c-4.3,0-7.7-4.3-7.7-9.6l0,0c0-5.3,3.4-9.6,7.7-9.6h118.5
	c4.3,0,7.7-4.3,7.7-9.6c0-2.3,0-4.8,0-7.2c0-5.3-3.5-9.5-7.7-9.5h-284.9C-4947.9,4186.7-4951.4,4182.4-4951.4,4177.1z"/>
<path class="st37" d="M-6152.4,6088.9L-6152.4,6088.9c0-5.3,3.5-9.6,7.7-9.6h617.6c4.3,0,7.7,4.3,7.7,9.6l0,0c0,5.3-3.4,9.5-7.7,9.5
	h-115.2c-32.3,0.6-64.6,0-96.9,0.7c-4.2,0.1-7.6,6.9-7.6,12.1v1.3c0,5.2,3.4,11.8,7.6,11.9c31.3,0.6,62.7-0.3,94,0.3h284.5
	c4.3,0,7.7,4.3,7.7,9.5l0,0c0,5.3-3.4,9.6-7.7,9.6h-617.7c-4.3,0-7.7-4.3-7.7-9.6l0,0c0-5.3,3.4-9.5,7.7-9.5h118.5
	c4.3,0,7.7-4.3,7.7-9.6c0-2.3,0-4.9,0-7.2c0-5.3-3.5-9.5-7.7-9.5h-285C-6149,6098.5-6152.4,6094.2-6152.4,6088.9z"/>
<g id="planet_1_">
	<ellipse class="st38" cx="-2807.1" cy="5408.9" rx="115.7" ry="116.7"/>
	<path class="st39" d="M-2911.4,5358.5h208.7c-9.1-19.2-23.4-35.6-41.1-47.3h-126.4C-2888,5322.9-2902.2,5339.3-2911.4,5358.5z"/>
	<path class="st40" d="M-2920.1,5383.9h226c-1.6-7.2-3.8-14.3-6.7-21.1h-212.6C-2916.3,5369.7-2918.5,5376.7-2920.1,5383.9z"/>
	<path class="st38" d="M-2922.7,5408.9c0,4.3,0.2,8.6,0.7,12.9h230c0.5-4.3,0.7-8.6,0.7-12.9c0-8.4-0.9-16.8-2.7-25h-226
		C-2921.8,5392.1-2922.7,5400.5-2922.7,5408.9z"/>
	<path class="st38" d="M-2858.5,5513.5c32.4,16.2,70.5,16.2,102.9,0H-2858.5z"/>
	<path class="st40" d="M-2922.2,5420.4c3.3,34.9,22.1,66.4,51.2,85.9h127.8c29.1-19.5,47.9-51,51.2-85.9H-2922.2z"/>
	<path class="st41" d="M-2903,5474.2h191.8c4.4-6.6,8.2-13.7,11.2-21.1h-214.2C-2911.2,5460.5-2907.4,5467.5-2903,5474.2z"/>
	<path class="st42" d="M-2760.8,5440h-52c-7,0-12.6,5.7-12.6,12.7c0,0,0,0,0,0l0,0c0,7,5.6,12.7,12.6,12.7c0,0,0,0,0,0h52
		c7,0,12.6-5.7,12.6-12.7c0,0,0,0,0,0l0,0C-2748.2,5445.7-2753.8,5440-2760.8,5440C-2760.8,5440-2760.8,5440-2760.8,5440z"/>
	<path class="st38" d="M-2724.4,5418.1c0.1-9.9-7.9-18-17.9-18.1c0,0-0.1,0-0.1,0h-180c-0.2,3-0.3,6-0.3,9c0,9.2,1.1,18.4,3.2,27.4
		h177.1c9.9,0,18-8.1,18-18c0,0,0-0.1,0-0.1V5418.1z"/>
	<path class="st38" d="M-2771.3,5484.4h-124c10.2,12.1,22.7,22,36.8,29.1h87.2c8,0,14.5-6.5,14.4-14.5c0,0,0,0,0,0l0,0
		C-2756.8,5490.9-2763.2,5484.4-2771.3,5484.4C-2771.2,5484.4-2771.3,5484.4-2771.3,5484.4z"/>
	<path class="st38" d="M-2750,5350.5h-157.2c-4.1,7.1-7.5,14.7-10,22.6h167.2c6.2,0,11.2-5.1,11.2-11.3c0,0,0,0,0,0l0,0
		C-2738.8,5355.6-2743.8,5350.5-2750,5350.5z"/>
	<path class="st38" d="M-2743.9,5311.2c-38.4-25.3-88.1-25.3-126.4,0H-2743.9z"/>
	<path class="st41" d="M-2751.9,5306.4h-96c-7.5,0-13.6,6.1-13.6,13.7v0.1c0,7.5,6,13.6,13.5,13.7c0,0,0,0,0,0h129.3
		C-2727.9,5322.7-2739.2,5313.4-2751.9,5306.4z"/>
	<ellipse class="st43" cx="-2867.3" cy="5373" rx="42.1" ry="42.4"/>
	<g class="st44">
		<ellipse class="st45" cx="-2807.1" cy="5408.9" rx="115.7" ry="116.7"/>
	</g>
	
		<linearGradient id="SVGID_21_" gradientUnits="userSpaceOnUse" x1="-2807.1279" y1="2587.6584" x2="-2807.1279" y2="2821.0386" gradientTransform="matrix(1 0 0 -1 0 8113.813)">
		<stop  offset="0" style="stop-color:#7D586E"/>
		<stop  offset="0.14" style="stop-color:#815A6D;stop-opacity:0.97"/>
		<stop  offset="0.27" style="stop-color:#8D606A;stop-opacity:0.88"/>
		<stop  offset="0.4" style="stop-color:#A16A66;stop-opacity:0.72"/>
		<stop  offset="0.53" style="stop-color:#BE7960;stop-opacity:0.5"/>
		<stop  offset="0.66" style="stop-color:#E28B57;stop-opacity:0.22"/>
		<stop  offset="0.74" style="stop-color:#FF9A51;stop-opacity:0"/>
	</linearGradient>
	<ellipse class="st46" cx="-2807.1" cy="5409.5" rx="115.7" ry="116.7"/>
</g>
<g>
	<g>
		<path class="st47" d="M-2279.7,3445.6c-2.4,2.5-25.9,4.1-25.9,4.1s32.4,23.4,32.6,25.9c0.2,4.1-9.3,4.2-9.3,4.2l24.5,9.9
			c0.6,0.2,1.2,0.4,1.8,0.6c13.7,3.8,27.9-4.2,31.8-17.9c3.8-13.5-4-27.6-17.6-31.5c-0.1,0-0.1,0-0.2-0.1c-1.5-0.4-4.5-0.8-4.5-0.8
			l-34.9-1.6C-2281.5,3438.4-2277.5,3443.4-2279.7,3445.6z"/>
		<path class="st48" d="M-2269.1,3452.3c-1.6,1.7-17.8,2.8-17.8,2.8s19,15.7,19.1,17.4c0.1,2.8-3.2,3.2-3.2,3.2l16.8,6.7
			c0.4,0.1,0.8,0.3,1.2,0.4c9.4,2.5,19.1-2.9,21.8-12.3c2.7-9.2-2.7-18.8-11.9-21.5c-0.1,0-0.2-0.1-0.3-0.1c-1-0.3-3.1-0.6-3.1-0.6
			l-24-1C-2270.4,3447.3-2267.6,3450.8-2269.1,3452.3z"/>
		<path class="st49" d="M-2235.4,3458.9c3.9,6.8,1.6,15.6-5.3,19.5c-6.8,3.9-15.6,1.6-19.5-5.3c-3.9-6.8-1.6-15.6,5.3-19.5
			c0,0,0.1,0,0.1,0C-2248,3449.7-2239.3,3452-2235.4,3458.9C-2235.4,3458.9-2235.4,3458.9-2235.4,3458.9z"/>
	</g>
	<path class="st50" d="M-2279.7,3445.6c-2.4,2.5-25.9,4.1-25.9,4.1s32.4,23.4,32.6,25.9c0.2,4.1-9.3,4.2-9.3,4.2l24.5,9.9
		c0.6,0.2,1.2,0.4,1.8,0.6c13.7,3.8,27.9-4.2,31.8-17.9c3.8-13.5-4-27.6-17.6-31.5c-0.1,0-0.1,0-0.2-0.1c-1.5-0.4-4.5-0.8-4.5-0.8
		l-34.9-1.6C-2281.5,3438.4-2277.5,3443.4-2279.7,3445.6z"/>
</g>
<g id="comet_1_1_">
	<path class="st47" d="M-2388.1,3383c-1.8,1.9-20.1,3.1-20.1,3.1s25.1,18.3,25.2,20.2c0.2,3.1-7.2,3.3-7.2,3.3l19,7.7
		c0.5,0.2,0.9,0.3,1.4,0.4c10.6,2.9,21.6-3.2,24.6-13.8c3-10.5-3.1-21.5-13.6-24.5c-0.1,0-0.1,0-0.2,0c-1.2-0.3-3.5-0.6-3.5-0.6
		l-27.1-1.3C-2389.4,3377.4-2386.4,3381.2-2388.1,3383z"/>
	<path class="st48" d="M-2379.9,3388.2c-1.3,1.3-13.8,2.2-13.8,2.2s14.8,12.2,14.8,13.5c0.1,2.1-2.4,2.5-2.4,2.5l13,5.2
		c0.3,0.1,0.6,0.2,1,0.3c7.3,2,14.9-2.2,17-9.5c2.1-7.1-2-14.6-9.2-16.7c-0.1,0-0.2,0-0.2-0.1c-0.8-0.2-2.4-0.4-2.4-0.4l-18.6-0.9
		C-2380.8,3384.3-2378.8,3387-2379.9,3388.2z"/>
	<path class="st49" d="M-2353.8,3393.3c3,5.3,1.2,12.1-4.1,15.1c-5.3,3-12.1,1.2-15.1-4.1c-3-5.3-1.2-12.1,4.1-15.1
		c0,0,0.1,0,0.1-0.1C-2363.5,3386.2-2356.8,3388-2353.8,3393.3C-2353.8,3393.3-2353.8,3393.3-2353.8,3393.3z"/>
	<path class="st50" d="M-2388.1,3383c-1.8,1.9-20.1,3.1-20.1,3.1s25.1,18.3,25.2,20.2c0.2,3.1-7.2,3.3-7.2,3.3l19,7.7
		c0.5,0.2,0.9,0.3,1.4,0.4c10.6,2.9,21.6-3.2,24.6-13.8c3-10.5-3.1-21.5-13.6-24.5c-0.1,0-0.1,0-0.2,0c-1.2-0.3-3.5-0.6-3.5-0.6
		l-27.1-1.3C-2389.4,3377.4-2386.4,3381.2-2388.1,3383z"/>
</g>
<path class="st51" d="M-2849.8,4517.5h848c4.8,0,8.8,3.9,8.8,8.8c0,0,0,0,0,0v16.4l0,0h-867.3l0,0V4528
	C-2860.3,4522.2-2855.6,4517.5-2849.8,4517.5z"/>
<path class="st52" d="M-2350.5,4165.6c-4.2,0,8.1,5.1,3.2,5.1l-16.2,26.7c-4.4,3.4-6.9,8.1-6.9,12.9v345.3h80.6V4184
	C-2289.8,4170.3-2299.8,4166.2-2350.5,4165.6z"/>
<path class="st51" d="M-2298.9,4196.4c0-2.7-2.8-4.8-6.3-4.8h-56.2c-3.5,0-6.3,2.2-6.3,4.9v30c0,0.2-0.1,0.5-0.1,0.7
	c0,0,0,0.1,0,0.1c0,1.1,0.4,2.1,1.1,2.9l0,0c1.8,1.8,4.5,2.5,7,1.9h54.3c3.5,0,6.3-2.2,6.3-4.9v-29.7
	C-2298.9,4197.2-2298.8,4196.8-2298.9,4196.4z M-2355,4201.4h30.6l-30.6,16.6L-2355,4201.4z M-2311.4,4206.4v15.9h-29.4
	L-2311.4,4206.4z"/>
<path class="st51" d="M-2258.4,4235.6c-0.1-2.7-2.8-4.8-6.3-4.8h-56.1c-9.9-0.6-6.3,2.2-6.3,4.9v30c0,0.2-0.1,0.5-0.1,0.7
	c0,0,0,0.1,0,0.1c0,1-2.9,1.7-2.1,2.5l-0.2,0.3c1.6,1.8-4.4,1.7,10.5,1.9h54.3c3.5,0,6.3-2.2,6.3-4.9v-29.7
	C-2258.4,4236.3-2258.4,4236-2258.4,4235.6z M-2314.6,4240.6h30.6l-30.6,16.6V4240.6z M-2271,4245.5v15.9h-29.4L-2271,4245.5z"/>
<path class="st51" d="M-2298.9,4275.8c0-2.7-2.8-4.8-6.3-4.8h-56.2c-3.5,0-6.3,2.2-6.3,4.9v30c0,0.2-0.1,0.5-0.1,0.7
	c0,0,0,0.1,0,0.1c0,1.1,0.4,2.1,1.1,2.9l0,0c1.8,1.8,4.5,2.5,7,1.9h54.3c3.5,0,6.3-2.2,6.3-4.9v-29.7
	C-2298.9,4276.6-2298.8,4276.2-2298.9,4275.8z M-2355,4280.9h30.6l-30.6,16.5V4280.9z M-2311.4,4285.9v15.9h-29.4L-2311.4,4285.9z"
	/>
<path class="st51" d="M-2258.4,4312.5c-0.1-2.7-2.8-4.8-6.3-4.8h-56.1c-3.5,0-6.3,2.2-6.3,4.9v30c0,0.2-0.1,0.5-0.1,0.7
	c0,0,0,0.1,0,0.2c0,1-3.2,1.6-2.4,2.4l-0.8-0.1c1.6,1.8-11.1,2.4,11.4,2.4h54.3c3.5,0,6.3-2.2,6.3-4.9v-29.7
	C-2258.4,4313.3-2258.4,4312.9-2258.4,4312.5z M-2314.6,4317.5h30.6l-30.6,16.6V4317.5z M-2271,4322.5v15.9h-29.4L-2271,4322.5z"/>
<path class="st51" d="M-2299.6,4353.1c0-2.7-2.8-4.8-6.3-4.8h-56.2c-3.5,0-6.3,2.2-6.3,4.9v30c0,0.2-0.1,0.5-0.1,0.7
	c0,0,0,0.1,0,0.1c0,1.1,0.4,2.1,1.1,2.9l0,0c1.9,1.8,4.5,2.6,7.1,1.9h54.3c3.5,0,6.3-2.2,6.3-4.9v-29.7
	C-2299.5,4353.8-2299.5,4353.5-2299.6,4353.1z M-2355.7,4358.1h30.7l-30.6,16.6L-2355.7,4358.1z M-2312.1,4363.1v15.9h-29.4
	L-2312.1,4363.1z"/>
<path class="st51" d="M-2299.6,4383.8c0-2.7-2.8-4.8-6.3-4.8h-56.2c-3.5,0-6.3,2.2-6.3,4.9v30c0,0.2-0.1,0.5-0.1,0.7
	c0,0,0,0.1,0,0.1c0,1.1,0.4,2.1,1.1,2.9l0,0c1.9,1.8,4.5,2.6,7.1,1.9h54.3c3.5,0,6.3-2.2,6.3-4.9v-29.6
	C-2299.5,4384.5-2299.5,4384.1-2299.6,4383.8z M-2355.7,4388.8h30.7l-30.6,16.6L-2355.7,4388.8z M-2312.1,4393.7v15.9h-29.4
	L-2312.1,4393.7z"/>
<path class="st51" d="M-2299.6,4414.4c0-2.7-2.8-4.8-6.3-4.8h-56.2c-3.5,0-6.3,2.2-6.3,4.9v30c0,0.2-0.1,0.5-0.1,0.7
	c0,0,0,0.1,0,0.1c0,1.1,0.4,2.1,1.1,2.9l0,0c1.8,1.8,4.5,2.6,7.1,1.9h54.3c3.5,0,6.3-2.2,6.3-4.9v-29.6
	C-2299.5,4415.1-2299.5,4414.8-2299.6,4414.4z M-2355.7,4419.4h30.7l-30.6,16.6L-2355.7,4419.4z M-2312.1,4424.4v15.9h-29.4
	L-2312.1,4424.4z"/>
<path class="st51" d="M-2299.6,4445.1c0-2.7-2.8-4.8-6.3-4.8h-56.2c-3.5,0-6.3,2.2-6.3,4.9v30c0,0.2-0.1,0.5-0.1,0.7
	c0,0.1,0,0.1,0,0.2c0,1.1,0.4,2.1,1.1,2.8l0,0c1.9,1.8,4.5,2.6,7.1,1.9h54.3c3.5,0,6.3-2.2,6.3-4.9v-29.7
	C-2299.5,4445.8-2299.5,4445.4-2299.6,4445.1z M-2355.7,4450.1h30.7l-30.6,16.6L-2355.7,4450.1z M-2312.1,4455.1v15.8h-29.4
	L-2312.1,4455.1z"/>
<path class="st51" d="M-2299.6,4484.1c0-2.7-2.8-4.8-6.3-4.8h-56.2c-3.5,0-6.3,2.2-6.3,4.9v30c0,0.2-0.1,0.5-0.1,0.7
	c0,0,0,0.1,0,0.1c0,1.1,0.4,2.1,1.1,2.9l0,0c1.9,1.8,4.5,2.6,7.1,1.9h54.3c3.5,0,6.3-2.2,6.3-4.9v-29.6
	C-2299.5,4484.9-2299.5,4484.5-2299.6,4484.1z M-2355.7,4489.1h30.7l-30.6,16.6L-2355.7,4489.1z M-2312.1,4494.1v15.9h-29.4
	L-2312.1,4494.1z"/>
<path class="st53" d="M-2352.9,4226.7h95.6c0,0,0.1,0,0.1,0.1v4.9c0,0,0,0.1-0.1,0.1h-95.6c0,0-0.1,0-0.1-0.1L-2352.9,4226.7
	C-2352.9,4226.8-2352.9,4226.7-2352.9,4226.7z"/>
<rect x="-2355" y="4304.2" class="st53" width="95.8" height="4"/>
<path class="st52" d="M-2392.2,4174.1l-29.8,23.3c-4.4,3.4-6.9,8.1-6.9,12.9v343h80.6V4184c0-7.8,6.6-15.5-1-18.3
	C-2349.3,4165.7-2377.5,4162.5-2392.2,4174.1z"/>
<path class="st53" d="M-2367.2,4171l-33.8,26.4c-4.4,3.4-6.9,8.1-6.9,12.9v343h80.6V4184C-2327.2,4167.7-2352.5,4159.5-2367.2,4171z
	"/>
<path class="st52" d="M-2404,4483.6v4.1c-0.1,1.4,1,2.6,2.4,2.6l0,0c1.4,0,2.5-1.2,2.4-2.6c0,0,0,0,0,0v-4.1c0.1-1.4-1-2.6-2.4-2.6
	c0,0,0,0,0,0l0,0C-2403,4481-2404.1,4482.2-2404,4483.6z"/>
<path class="st52" d="M-2404,4470.6v4.1c-0.1,1.4,1,2.6,2.4,2.6l0,0c1.4,0,2.5-1.2,2.4-2.6c0,0,0,0,0,0v-4.1c0.1-1.4-1-2.6-2.4-2.6
	c0,0,0,0,0,0l0,0C-2403,4468-2404.1,4469.2-2404,4470.6z"/>
<path class="st54" d="M-2344.5,4175h4.1c1.4,0.1,2.6-1,2.6-2.4l0,0c0-1.4-1.2-2.5-2.6-2.4c0,0,0,0,0,0h-4.1c-1.4-0.1-2.6,1-2.6,2.4
	c0,0,0,0,0,0l0,0C-2347,4174-2345.8,4175.1-2344.5,4175z"/>
<path class="st52" d="M-2364.3,4189.6l-23.2,17.9c-4.7,3.6-7.5,8.3-8.1,13.4c-0.2,1.6-0.3,3.3-0.3,4.9v19.5c0-4.5,2-8.9,5.3-11.9
	l28-23.6c9.2-7.7,29.3-3.8,29.3,11.2v-19.5C-2333.2,4186.5-2352.8,4179-2364.3,4189.6z"/>
<path class="st55" d="M-2327.6,4251.1h-16.9c-0.8,0-1.6,0.3-2.3,0.8l-41.7,32.6c-0.6,0.4-1.3,0.7-2,0.7h-15.8
	c-0.6,0-1.2,0.5-1.2,1.2l0,0c0,0.6,0.5,1.2,1.1,1.2c0,0,0,0,0,0h16.4c1.1,0,2.1-0.4,2.9-1l41.5-32.4c0.5-0.4,1.2-0.7,1.9-0.7h15.9
	c0.6,0,1.1-0.5,1.2-1.1l0,0C-2326.4,4251.7-2326.9,4251.2-2327.6,4251.1C-2327.6,4251.1-2327.6,4251.1-2327.6,4251.1z"/>
<path class="st55" d="M-2327.6,4278.9h-16.9c-0.8,0-1.6,0.3-2.3,0.8l-41.7,32.6c-0.6,0.4-1.3,0.7-2,0.7h-15.8
	c-0.6,0-1.2,0.5-1.2,1.2l0,0c0,0.6,0.5,1.2,1.1,1.2c0,0,0,0,0,0h16.4c1.1,0,2.1-0.4,2.9-1l41.5-32.4c0.5-0.4,1.2-0.7,1.9-0.7h15.9
	c0.6,0,1.1-0.5,1.2-1.1l0,0C-2326.4,4279.5-2326.9,4278.9-2327.6,4278.9C-2327.6,4278.9-2327.6,4278.9-2327.6,4278.9z"/>
<path class="st52" d="M-2350.4,4404h3.6c7.1,0,12.9,5.8,12.9,12.9v59.3c0,7.1-5.8,12.9-12.9,12.9h-3.6c-7.1,0-12.9-5.8-12.9-12.9
	v-59.3C-2363.4,4409.8-2357.6,4404-2350.4,4404z"/>
<path class="st56" d="M-2211.7,4507.2v-24.3c-1-3.6,0-24.7-46.1-24.7c-46.1,0-45.1,21.1-46.1,24.7v24.3H-2211.7z"/>
<path class="st57" d="M-2283.4,4309.9L-2283.4,4309.9v197.3h51.2v-197.3l0,0c-0.4-4.9-2.7-9.5-6.5-12.6v-59.8c4-2.2,6.6-5.8,6.6-9.8
	v-78.9l0,0c-0.5-10.7-11.8-45.6-25.6-45.6c-13.8,0-25.1,34.9-25.6,45.6l0,0v79.3c0,4.1,2.6,7.6,6.6,9.8v59.4
	C-2280.6,4300.4-2283,4305-2283.4,4309.9z"/>
<path class="st58" d="M-2283.4,4309.9L-2283.4,4309.9v197.3h51.2v-197.3l0,0c-0.4-4.9-2.7-9.5-6.5-12.6v-59.8c4-2.2,6.6-5.8,6.6-9.8
	v-78.9l0,0c-0.5-10.7-11.8-45.6-25.6-45.6c-13.8,0-25.1,34.9-25.6,45.6l0,0v79.3c0,4.1,2.6,7.6,6.6,9.8v59.4
	C-2280.6,4300.4-2283,4305-2283.4,4309.9z"/>
<path class="st59" d="M-2283.4,4430L-2283.4,4430v30.8c0,0.2,0.1,0.5,0.2,0.7h50.8c0.1-0.2,0.2-0.5,0.2-0.8V4430l0,0
	c0,0,0-0.1,0-0.1h-51.2C-2283.4,4429.9-2283.4,4430-2283.4,4430z"/>
<path class="st60" d="M-2283.4,4309.9L-2283.4,4309.9v4.8h51.2v-4.8l0,0c0-0.4,0-0.7-0.1-1.1h-51
	C-2283.4,4309.2-2283.4,4309.5-2283.4,4309.9z"/>
<path class="st60" d="M-2283.4,4149.8L-2283.4,4149.8v4.8h51.2v-4.8l0,0c0-0.4,0-0.7-0.1-1h-51
	C-2283.4,4149.1-2283.4,4149.5-2283.4,4149.8z"/>
<path class="st58" d="M-2258.5,4074l-5.4,57.8l10.1,0.3l0,0c0.7,0,1.5,0,2.2,0l-6.2-58L-2258.5,4074z"/>
<path class="st61" d="M-2233.2,4232h-49.4c1.2,2.5,3.2,4.6,5.6,5.9h38.2v-0.3C-2236.4,4236.4-2234.4,4234.4-2233.2,4232z"/>
<path class="st61" d="M-2238.8,4297.3h-38.1c-1.9,1.6-3.4,3.5-4.6,5.7h47.3C-2235.3,4300.8-2236.9,4298.9-2238.8,4297.3z"/>
<path class="st61" d="M-2240.3,4321.8v4.8c0,0.8,0.6,1.4,1.4,1.4l0,0c0.8,0,1.4-0.7,1.4-1.4v-4.8c0-0.8-0.6-1.4-1.4-1.4c0,0,0,0,0,0
	l0,0C-2239.7,4320.4-2240.3,4321-2240.3,4321.8C-2240.3,4321.8-2240.3,4321.8-2240.3,4321.8z"/>
<path class="st61" d="M-2278.1,4321.8v4.8c0,0.8,0.6,1.4,1.5,1.4h0c0.8,0,1.4-0.7,1.4-1.4v-4.8c0-0.8-0.6-1.4-1.4-1.4h0h0
	C-2277.4,4320.4-2278.1,4321-2278.1,4321.8C-2278.1,4321.8-2278.1,4321.8-2278.1,4321.8z"/>
<rect x="-2283.4" y="4471.4" class="st60" width="51.2" height="5.9"/>
<path class="st62" d="M-2267.7,4109.1c-8.8,10.3-15.2,31.3-15.7,39.5c0,0.1,0,0.2,0,0.3l0,0v79.3c0,4.1,2.6,7.6,6.6,9.8v59.3
	c-3.5,2.9-5.8,7-6.5,11.5l0,0c0,0.3-0.1,0.7-0.1,1.1l0,0v151.4c-10.6,2.8-19.4,9.6-20.5,21.9v25.5l20.5-1.5l15.7-0.8L-2267.7,4109.1
	z"/>
<rect x="-2170.6" y="4387.3" transform="matrix(0.5579 -0.8299 0.8299 0.5579 -4587.6436 170.6642)" class="st63" width="73.9" height="7.8"/>
<rect x="-2170.6" y="4441.2" transform="matrix(0.5579 -0.8299 0.8299 0.5579 -4632.3643 194.4884)" class="st63" width="73.9" height="7.8"/>
<rect x="-2170.6" y="4495.3" transform="matrix(0.5579 -0.8299 0.8299 0.5579 -4677.2568 218.397)" class="st63" width="73.9" height="7.8"/>
<path class="st64" d="M-2108.1,4321.6L-2108.1,4321.6c3.1,0,5.6,2.5,5.6,5.6v209.6c0,3.1-2.5,5.6-5.6,5.6h0c-3.1,0-5.6-2.5-5.6-5.6
	v-209.6C-2113.6,4324.1-2111.1,4321.6-2108.1,4321.6z"/>
<path class="st64" d="M-2156.1,4340.3L-2156.1,4340.3c3.1,0,5.6,2.5,5.6,5.6v191c0,3.1-2.5,5.6-5.6,5.6l0,0c-3.1,0-5.6-2.5-5.6-5.6
	v-191C-2161.7,4342.8-2159.2,4340.3-2156.1,4340.3z"/>
<path class="st52" d="M-2131.3,4350.3l-22.4,13.7c-4.5,2.8-7.3,6.4-7.8,10.3c-0.2,1.3-0.3,2.5-0.3,3.8v15c0-3.4,1.8-6.7,5.1-9.1
	l27-18.1c8.8-5.9,28.2-2.9,28.2,8.6v-15C-2101.3,4348-2120.2,4342.2-2131.3,4350.3z"/>
<path class="st52" d="M-2132,4308.7l-22.4,13.7c-4.5,2.8-7.3,6.4-7.8,10.3c-0.2,1.2-0.3,2.5-0.3,3.8v26.3c0-3.4,1.8-6.7,5.1-9.1
	l27-18.1c8.8-5.9,28.2-2.9,28.2,8.6v-26.3C-2102.1,4306.3-2121,4300.6-2132,4308.7z"/>
<path class="st52" d="M-2132,4404.2l-22.4,13.8c-4.5,2.8-7.3,6.4-7.8,10.3c-0.2,1.3-0.3,2.5-0.3,3.8v15c0-3.4,1.8-6.7,5.1-9.1
	l27-18.1c8.8-5.9,28.2-2.9,28.2,8.6v-15C-2102.1,4401.8-2121,4396-2132,4404.2z"/>
<path class="st52" d="M-2132,4458.5l-22.4,13.7c-4.5,2.7-7.3,6.4-7.8,10.3c-0.2,1.2-0.3,2.5-0.3,3.8v15c0-3.4,1.8-6.7,5.1-9.1
	l27-18.1c8.8-5.9,28.2-2.9,28.2,8.6v-15C-2102.1,4456.1-2121,4450.3-2132,4458.5z"/>
<path class="st52" d="M-2132,4512.8l-22.4,13.7c-4.5,2.8-7.3,6.4-7.8,10.3c-0.2,1.3-0.3,2.5-0.3,3.8v14.9c0.9-0.1,5.4,0,5.4,0
	l29.7,0.6h25.3v-34.2C-2102.1,4510.4-2121,4504.7-2132,4512.8z"/>
<path class="st52" d="M-2447.1,4507h257.2c10.9,0,19.7,8.8,19.7,19.7l0,0v32.7l0,0h-298l0,0v-31.2
	C-2468.2,4516.5-2458.8,4507.1-2447.1,4507z"/>
<path class="st51" d="M-2415.6,4515.4h0.8c2.1,0,3.8,1.7,3.8,3.8v6.9c0,2.1-1.7,3.8-3.8,3.8h-0.8c-2.1,0-3.8-1.7-3.8-3.8v-6.9
	C-2419.4,4517-2417.7,4515.4-2415.6,4515.4z"/>
<path class="st51" d="M-2387.6,4514.4h0.8c2.1,0,3.8,1.7,3.8,3.8v6.9c0,2.1-1.7,3.8-3.8,3.8h-0.8c-2.1,0-3.8-1.7-3.8-3.8v-6.9
	C-2391.4,4516.1-2389.7,4514.4-2387.6,4514.4z"/>
<path class="st51" d="M-2325.9,4515.4h0.8c2.1,0,3.8,1.7,3.8,3.8v6.9c0,2.1-1.7,3.8-3.8,3.8h-0.8c-2.1,0-3.8-1.7-3.8-3.8v-6.9
	C-2329.7,4517-2328,4515.4-2325.9,4515.4z"/>
<path class="st51" d="M-2260.9,4515.4h0.8c2.1,0,3.8,1.7,3.8,3.8v6.9c0,2.1-1.7,3.8-3.8,3.8h-0.8c-2.1,0-3.8-1.7-3.8-3.8v-6.9
	C-2264.7,4517-2263,4515.4-2260.9,4515.4z"/>
<path class="st51" d="M-2196.8,4515.4h0.8c2.1,0,3.8,1.7,3.8,3.8v6.9c0,2.1-1.7,3.8-3.8,3.8h-0.8c-2.1,0-3.8-1.7-3.8-3.8v-6.9
	C-2200.6,4517-2198.9,4515.4-2196.8,4515.4z"/>
<path class="st51" d="M-2292.3,4515.4h0.8c2.1,0,3.8,1.7,3.8,3.8v6.9c0,2.1-1.7,3.8-3.8,3.8h-0.8c-2.1,0-3.8-1.7-3.8-3.8v-6.9
	C-2296.1,4517-2294.4,4515.4-2292.3,4515.4z"/>
<path class="st51" d="M-2357.4,4515.4h0.8c2.1,0,3.8,1.7,3.8,3.8v6.9c0,2.1-1.7,3.8-3.8,3.8h-0.8c-2.1,0-3.8-1.7-3.8-3.8v-6.9
	C-2361.2,4517-2359.5,4515.4-2357.4,4515.4z"/>
<path class="st51" d="M-2229.6,4515.4h0.8c2.1,0,3.8,1.7,3.8,3.8v6.9c0,2.1-1.7,3.8-3.8,3.8h-0.8c-2.1,0-3.8-1.7-3.8-3.8v-6.9
	C-2233.4,4517-2231.7,4515.4-2229.6,4515.4z"/>
<path class="st52" d="M-2851.1,4534.5h847.1c6.1,0,11,4.9,11,11l0,0v14.2l0,0h-867.3l0,0v-16
	C-2860.3,4538.6-2856.2,4534.4-2851.1,4534.5L-2851.1,4534.5z"/>
<path class="st35" d="M-3222.7,5633.5L-3222.7,5633.5c0-8.1,6.6-14.7,14.7-14.7l371.2-1c8.1,0,14.7,6.6,14.8,14.7c0,0,0,0,0,0l0,0
	c0,8.1-6.6,14.7-14.7,14.7c0,0,0,0,0,0h-44.8c-8.1,0-14.7,6.6-14.7,14.7v11.2c0,8.1,6.6,14.7,14.7,14.7h147.3
	c8.1,0,14.7,6.6,14.7,14.7l0,0c0,8.1-6.6,14.7-14.7,14.7h-258.6c-8.1,0-14.7-6.6-14.7-14.7l0,0c0-8.1,6.6-14.7,14.7-14.7h16
	c8.1,0,14.7-6.6,14.7-14.7V5662c0-8.1-6.6-14.7-14.7-14.7c0,0-0.1,0-0.1,0l-231,1C-3216,5648.3-3222.7,5641.7-3222.7,5633.5
	C-3222.7,5633.6-3222.7,5633.6-3222.7,5633.5z"/>
<path class="st36" d="M-1652.1,4597.9v-17.6c0-9.6-15-9.7-15,0v17.6H-1652.1z"/>
<path class="st19" d="M-1679.2,4596.6c0.5,0.3,1,0.6,1.5,1l0.4,0.3h20.9c-4-5.7-9.2-10.6-15.2-14.2
	C-1679.9,4578.7-1687.5,4591.7-1679.2,4596.6z"/>
<path class="st19" d="M-1641.6,4597.9c0.7-0.5,1.3-0.9,2-1.3c8.3-4.9,0.8-17.9-7.6-13c-6.2,3.7-11.6,8.5-15.8,14.3H-1641.6z"/>
<g>
	
		<linearGradient id="SVGID_22_" gradientUnits="userSpaceOnUse" x1="826.1358" y1="1098.9926" x2="826.1358" y2="1295.2627" gradientTransform="matrix(1 0 0 -1 0 8113.813)">
		<stop  offset="0.32" style="stop-color:#FBEDDA"/>
		<stop  offset="0.57" style="stop-color:#F8E7BA"/>
		<stop  offset="0.98" style="stop-color:#F1DB7B"/>
	</linearGradient>
	<path class="st65" d="M1233.2,6885.3c0-0.9-0.7-1.6-1.6-1.6h-30.4c-18.2,0-34.3-9.4-39.7-23.3l-7.2-18.7
		c-5.3-13.8-21.4-23.3-39.7-23.3h-21.5c-22.9,0-41.5,14.7-41.5,32.9v63.8c0,18.2-18.6,32.9-41.5,32.9h-77.3l-64.5-0.7
		c-18.1-0.2-34-9.7-39.2-23.5l-6.3-16.7c-5.2-13.9-21.4-23.5-39.7-23.5H625.4c-16.5,0-31.4-7.8-38-19.8l0,0
		c-6.6-12-21.5-19.8-38-19.8h-50.2c-22.9,0-41.5,14.7-41.5,32.9v16.4c0,17.6-9.2,34.9-31,36.8c-6.9,0.6-7.7,4-7.7,4
		c0.2,0.6,0.8,1.1,1.4,1.1c12.7,0.3,45.1-0.4,60.1,0.5c3,0.2,13,1.1,11.8,3.8l-32.8,73c-0.4,0.8,0,1.7,0.8,2.1
		c0.2,0.1,0.4,0.1,0.7,0.1h770.6c0.9,0,1.6-0.7,1.6-1.6L1233.2,6885.3z"/>
	
		<linearGradient id="SVGID_23_" gradientUnits="userSpaceOnUse" x1="-76.4242" y1="1068.3625" x2="-76.4242" y2="1277.7826" gradientTransform="matrix(1 0 0 -1 0 8113.813)">
		<stop  offset="0.32" style="stop-color:#FBEDDA"/>
		<stop  offset="0.57" style="stop-color:#F8E7BA"/>
		<stop  offset="0.98" style="stop-color:#F1DB7B"/>
	</linearGradient>
	<path class="st66" d="M-544.2,6862l18.4,68.3c4.1,15.2,21,26,40.5,26h10.6c22.9,0,41.4-14.7,41.4-32.9v-16.3
		c0-18.2,18.6-32.9,41.5-32.9h50.2c16.5,0,31.4,7.8,38,19.8l0,0c6.6,12,21.5,19.8,38,19.8h157.9c18.3,0,34.5,9.6,39.7,23.5l6.3,16.6
		c5.2,13.8,21,23.3,39.2,23.5l64.5,0.7h77.3c22.9,0,41.5-14.7,41.5-32.9v-63.8c0-18.2,18.6-32.9,41.5-32.9h21.5
		c18.2,0,34.3,9.4,39.6,23.3l7.2,18.7c5.3,13.8,21.4,23.3,39.6,23.3h30.4c15.9,0,30.3,7.2,37.3,18.5l9.1,14.8
		c6.9,11.3,21.4,18.5,37.3,18.5h51.3c22.9,0,41.4,14.7,41.4,32.9v13.5c0,18.2-18.6,32.9-41.4,32.9h-908.1v0.5H-670v-176.5
		c0-18.2,18.6-32.9,41.4-32.9h43.8C-565.2,6836-548.3,6846.9-544.2,6862z"/>
	
		<linearGradient id="SVGID_24_" gradientUnits="userSpaceOnUse" x1="281.5909" y1="1295.2627" x2="281.5909" y2="1068.3826" gradientTransform="matrix(1 0 0 -1 0 8113.813)">
		<stop  offset="0.15" style="stop-color:#532037;stop-opacity:0.89"/>
		<stop  offset="0.23" style="stop-color:#5E263A;stop-opacity:0.9"/>
		<stop  offset="0.37" style="stop-color:#7B3641;stop-opacity:0.92"/>
		<stop  offset="0.56" style="stop-color:#AB504D;stop-opacity:0.95"/>
		<stop  offset="0.78" style="stop-color:#EC745D;stop-opacity:0.99"/>
		<stop  offset="0.81" style="stop-color:#F6795F"/>
	</linearGradient>
	<path class="st67" d="M1231.6,6883.8h-30.4c-18.2,0-34.3-9.4-39.7-23.3l-7.2-18.7c-5.3-13.8-21.4-23.3-39.7-23.3h-21.5
		c-22.9,0-41.5,14.7-41.5,32.9v63.8c0,18.2-18.6,32.9-41.5,32.9h-77.3l-64.5-0.7c-18.1-0.2-34-9.7-39.2-23.5l-6.3-16.7
		c-5.2-13.9-21.4-23.5-39.7-23.5H625.4c-16.5,0-31.4-7.8-38-19.8l0,0c-6.6-12-21.5-19.8-38-19.8h-50.2c-22.9,0-41.5,14.7-41.5,32.9
		v16.4c0,17.6-9.2,34.9-31,36.8c-6.9,0.6-7.7,4-7.7,4c0.2,0.6,0.8,1.1,1.4,1.1c12.7,0.3,45.1-0.4,60.1,0.5c3,0.2,13,1.1,11.8,3.8
		l-11.8,26.3c-1.6-0.1-3.2-0.2-4.9-0.2h-51.4c-15.9,0-30.3-7.2-37.3-18.5l-9.1-14.8c-6.9-11.3-21.4-18.5-37.3-18.5h-30.4
		c-18.2,0-34.3-9.4-39.6-23.3l-7.2-18.6c-5.3-13.8-21.4-23.3-39.6-23.3h-21.6c-22.9,0-41.5,14.7-41.5,32.9v63.8
		c0,18.2-18.6,32.9-41.5,32.9H42l-64.5-0.7c-18.1-0.2-34-9.7-39.2-23.5l-6.3-16.7c-5.2-13.9-21.4-23.5-39.7-23.5h-157.8
		c-16.5,0-31.4-7.8-38-19.8s-21.5-19.8-38-19.8h-50.2c-22.9,0-41.5,14.7-41.5,32.9v16.4c0,18.2-18.6,32.9-41.4,32.9h-10.6
		c-19.6,0-36.5-10.8-40.5-26l-18.4-68.4c-4.1-15.2-21-26-40.5-26h-43.8c-22.9,0-41.4,14.7-41.4,32.9v176.5h237.6v-0.5h908.1
		c21.7,0,39.5-13.2,41.3-30.1h714.6c0.9,0,1.6-0.7,1.6-1.6v-127.9C1233.2,6884.5,1232.5,6883.8,1231.6,6883.8z"/>
	<polygon class="st9" points="1233.9,7053 -686.8,7053 -686.8,6978.9 277.2,6977.7 1233.9,6977.7 	"/>
	<rect x="-686.8" y="7022.6" class="st10" width="1920.7" height="11.9"/>
	<rect x="-686.8" y="6993.8" class="st11" width="1920.7" height="16.1"/>
	<rect x="-686.8" y="7034.5" class="st12" width="1920.7" height="18.5"/>
	<rect x="-686.8" y="7045.3" class="st13" width="1920.7" height="7.8"/>
	<ellipse cx="-417" cy="7045.4" rx="17.6" ry="1"/>
	<ellipse cx="1116.8" cy="7034.4" rx="17.6" ry="1"/>
	<ellipse cx="-148.5" cy="7014.2" rx="5.8" ry="0.4"/>
	<ellipse cx="-228.9" cy="7027.3" rx="9.5" ry="0.5"/>
	<path class="st14" d="M-142.8,7014.6c0,0,2.8-0.2,0.4-2.5c-0.9-0.9-5.2-2.3-7,0.9c0,0-1,1.5,1.7,1.6
		C-145.1,7014.6-142.8,7014.6-142.8,7014.6z"/>
	<path class="st15" d="M1133.8,7035.4c0,0,8.4-0.7,1.3-7.5c-2.8-2.6-15.8-7-21,2.7c0,0-3.1,4.7,5,4.8
		C1127.1,7035.5,1133.8,7035.4,1133.8,7035.4z"/>
	<path class="st15" d="M-221.1,7027.8c0,0,4.2-0.4,0.7-3.7c-1.4-1.3-7.9-3.5-10.5,1.3c0,0-1.5,2.3,2.5,2.4
		C-224.4,7027.9-221.1,7027.8-221.1,7027.8z"/>
	<path class="st15" d="M-400.7,7046.3c0,0,8.4-0.7,1.3-7.5c-2.8-2.6-15.8-6.9-21,2.7c0,0-3.1,4.7,5,4.8S-400.7,7046.3-400.7,7046.3z
		"/>
	<ellipse cx="1154.4" cy="7034.2" rx="11.4" ry="1.1"/>
	<path d="M-376.3,7047.9c8.6,0,15.6,0.6,15.6,1.3c0,0.7-7,1.3-15.6,1.3s-15.6-0.6-15.6-1.3"/>
	<ellipse cx="-135.2" cy="7040.7" rx="10.3" ry="0.9"/>
	<ellipse cx="-207.4" cy="7027.2" rx="7.4" ry="0.6"/>
	<ellipse cx="741.9" cy="7014" rx="6.9" ry="0.6"/>
	<path class="st16" d="M-368.3,7047.4v-12.1c0-3.5-5.5-3.5-5.5,0v12.1C-373.8,7051-368.3,7051-368.3,7047.4z"/>
	<path class="st17" d="M-368.5,7048.2c0.1-0.3,0.2-0.5,0.3-0.8c0.2-0.5-0.1,0.2,0.2-0.4c0.2-0.4,0.4-0.8,0.7-1.2
		c1.4-2.1,3.3-3.8,5.5-4.9c3.1-1.6,0.4-6.4-2.8-4.7c-4,2.1-8,6-9.1,10.6C-374.5,7050.1-369.3,7051.6-368.5,7048.2L-368.5,7048.2z"/>
	<path class="st17" d="M-379.9,7041.6c0.3,0.1-0.4-0.2-0.4-0.2c0.2,0.1,0.4,0.2,0.6,0.3c0.5,0.3,1.1,0.6,1.5,1
		c2,1.6,3.6,3.7,4.7,6.1c1.6,3.2,6.3,0.4,4.7-2.8c-2-4-5.3-8.1-9.7-9.7C-381.7,7035.2-383.2,7040.5-379.9,7041.6L-379.9,7041.6z"/>
	<path class="st18" d="M-129.4,7039.3v-8c0-1-0.8-1.8-1.8-1.8c-1,0-1.8,0.8-1.8,1.8v8c0,1,0.8,1.8,1.8,1.8
		C-130.2,7041.1-129.4,7040.3-129.4,7039.3z"/>
	<path class="st19" d="M-129.5,7039.8c0-0.2,0.1-0.4,0.2-0.5c0.1-0.3-0.1,0.1,0.1-0.3s0.3-0.5,0.4-0.8c0.9-1.4,2.1-2.5,3.6-3.2
		c2.1-1.1,0.2-4.2-1.8-3.1c-2.7,1.4-5.3,3.9-6,7C-133.5,7041.1-129.9,7042.1-129.5,7039.8L-129.5,7039.8z"/>
	<path class="st19" d="M-137,7035.5l-0.3-0.1c0.1,0.1,0.3,0.1,0.4,0.2c0.3,0.2,0.8,0.5,1,0.6c1.3,1.1,2.4,2.4,3.1,4
		c1,2.1,4.2,0.3,3.1-1.8c-1.3-2.7-3.5-5.4-6.4-6.4C-138.2,7031.2-139.2,7034.7-137,7035.5L-137,7035.5z"/>
	<path class="st20" d="M-203.8,7025.6v-5.5c0-0.5-0.4-0.9-0.9-0.9c-0.5,0-0.9,0.4-0.9,0.9v5.5c0,0.5,0.4,0.9,0.9,0.9
		C-204.2,7026.4-203.8,7026-203.8,7025.6L-203.8,7025.6z"/>
	<path class="st19" d="M-203.7,7026.6c0,0.3,0-0.1,0.1-0.3c0.1-0.4,0.2-0.7,0.4-1.1c0.7-1.3,1.7-2.3,3-2.9c1-0.6,0.1-2.1-0.9-1.6
		c-2.1,1.2-4.1,3.3-4.4,5.8C-205.6,7027.7-203.8,7027.7-203.7,7026.6L-203.7,7026.6z"/>
	<path class="st19" d="M-208.7,7022.4C-208.8,7022.4-208.8,7022.3-208.7,7022.4c-0.1-0.1,0.5,0.3,0.6,0.4c1.2,1.2,2.1,2.6,2.8,4.2
		c0.5,1,2.1,0.1,1.5-0.9c-0.7-1.8-1.8-3.4-3.2-4.7c-0.5-0.4-1-0.7-1.7-0.8C-209.8,7020.7-209.8,7022.5-208.7,7022.4L-208.7,7022.4z"
		/>
	<path class="st21" d="M743.9,7012.4v-5.5c0-0.5-0.4-0.9-0.9-0.9s-0.9,0.4-0.9,0.9l0,0v5.5c0,0.5,0.4,0.9,0.9,0.9
		S743.9,7012.9,743.9,7012.4z"/>
	<path class="st19" d="M744,7013.4c0,0.3,0-0.1,0.1-0.3c0.1-0.4,0.2-0.7,0.4-1.1c0.7-1.3,1.7-2.3,3-2.9c1-0.6,0.1-2.1-0.9-1.5
		c-2.1,1.2-4.1,3.3-4.3,5.8C742.1,7014.6,743.9,7014.6,744,7013.4L744,7013.4z"/>
	<path class="st19" d="M739,7009.3C738.9,7009.3,738.9,7009.2,739,7009.3c-0.1-0.1,0.5,0.3,0.6,0.4c1.2,1.2,2.1,2.6,2.7,4.2
		c0.5,1.1,2.1,0.1,1.6-0.9c-0.7-1.8-1.8-3.4-3.2-4.7c-0.4-0.4-1-0.7-1.7-0.8C737.9,7007.5,737.9,7009.3,739,7009.3L739,7009.3z"/>
	<path class="st22" d="M1159.6,7032.2v-10.3c0-2.7-4.2-2.7-4.2,0v10.3C1155.4,7034.9,1159.6,7034.9,1159.6,7032.2z"/>
	<path class="st19" d="M1159.3,7033c1.3-2.6,3.2-4.8,5.6-6.5c2.2-1.5,0.1-5.1-2.1-3.6c-3,2-5.5,4.8-7.1,8
		C1154.5,7033.4,1158.1,7035.5,1159.3,7033L1159.3,7033z"/>
	<path class="st19" d="M1150.3,7026.6l0.2,0.1c0.4,0.3-0.2-0.2,0.2,0.2c0.5,0.4,1,0.8,1.4,1.3c1.5,1.5,2.7,3.2,3.6,5.1
		c1.2,2.4,4.8,0.3,3.6-2.1c-1.6-3.3-4-6.1-7-8.2C1150.1,7021.4,1148,7025.1,1150.3,7026.6L1150.3,7026.6z"/>
	
		<linearGradient id="SVGID_25_" gradientUnits="userSpaceOnUse" x1="822.7257" y1="1117.4725" x2="822.7257" y2="1258.7627" gradientTransform="matrix(1 0 0 -1 0 8113.813)">
		<stop  offset="0" style="stop-color:#773C41"/>
		<stop  offset="0.55" style="stop-color:#642F36"/>
		<stop  offset="1" style="stop-color:#51222B"/>
	</linearGradient>
	<path class="st68" d="M1128.1,6872.6l-12.4,46.1c-2.8,10.2-14.2,17.6-27.4,17.6h-7.1c-15.4,0-28-9.9-28-22.2V6903
		c0-12.3-12.5-22.2-28-22.2h-33.9c-11.1,0-21.2,5.2-25.7,13.3l0,0c-4.4,8.1-14.5,13.3-25.7,13.3H833.5c-12.4,0-23.3,6.4-26.8,15.8
		l-4.2,11.2c-3.5,9.3-14.2,15.7-26.4,15.9l-43.6,0.5h-52.2c-15.4,0-28-9.9-28-22.2v-43c0-12.3-12.5-22.2-28-22.2h-14.6
		c-12.3,0-23.2,6.4-26.8,15.7l-4.8,12.6c-3.6,9.3-14.5,15.7-26.8,15.7h-20.5c-10.7,0-20.5,4.8-25.2,12.5l-6.1,10
		c-4.7,7.6-14.4,12.5-25.2,12.5h-34.7c-15.4,0-28,9.9-28,22.2v9.1c0,12.3,12.5,22.2,28,22.2h612.9v0.4h181l0.2-39.5l0,0
		c-11.5,0-20.9-9.3-20.9-20.8c0,0,0,0,0-0.1v-58.8c0-12.3-12.5-22.2-28-22.2h-29.6C1142.2,6855,1130.8,6862.4,1128.1,6872.6z"/>
	
		<linearGradient id="SVGID_26_" gradientUnits="userSpaceOnUse" x1="-271.7733" y1="1117.4059" x2="-271.7733" y2="1250.2627" gradientTransform="matrix(1 0 0 -1 0 8113.813)">
		<stop  offset="0" style="stop-color:#773C41"/>
		<stop  offset="0.55" style="stop-color:#642F36"/>
		<stop  offset="1" style="stop-color:#51222B"/>
	</linearGradient>
	<path class="st69" d="M86,6942.5H40.9c-14,0-26.7-4.9-32.8-12.5l-8-10c-6.1-7.6-18.8-12.5-32.8-12.5h-26.7
		c-16,0-30.2-6.4-34.8-15.7l-6.3-12.6c-4.7-9.3-18.8-15.7-34.8-15.7h-18.9c-20.1,0-36.4,9.9-36.4,22.2v43
		c0,12.3-16.3,22.2-36.4,22.2h-68l-56.7-0.5c-15.9-0.1-29.9-6.5-34.4-15.9l-5.5-11.2c-4.6-9.4-18.8-15.9-34.9-15.9h-138.7
		c-14.5,0-27.6-5.2-33.4-13.3c-5.8-8.1-18.9-13.3-33.4-13.3h-44.9c-5.3,0.1-9.6,4.4-9.6,9.8V6996H86c12.3,0,33.8,1.2,48.7-0.7
		c5.4-0.7,9.1-5.6,8.5-10.9c-0.3-2.6-1.7-4.9-3.7-6.5l-3.4-2.7c-6.4-5.1-11.7-11.3-15.9-18.3C115,6948.6,101.7,6942.5,86,6942.5z"/>
	<path class="st36" d="M1068.6,7053v-17.6c0-9.6-15-9.7-15,0v17.6H1068.6z"/>
	<path class="st19" d="M1041.5,7051.7c0.5,0.3,1,0.6,1.5,1l0.4,0.3h20.9c-4-5.7-9.2-10.6-15.2-14.2
		C1040.7,7033.9,1033.2,7046.8,1041.5,7051.7z"/>
	<path class="st19" d="M1079.1,7053c0.7-0.5,1.3-0.9,2-1.3c8.3-4.9,0.8-17.9-7.6-13c-6.2,3.7-11.6,8.5-15.8,14.3H1079.1z"/>
</g>
<g>
	<rect x="751.1" y="4754.7" class="st0" width="1920" height="1080.9"/>
	
		<radialGradient id="SVGID_27_" cx="1814.5201" cy="3081.3157" r="1918.5765" fx="1873.9321" fy="4102.5845" gradientTransform="matrix(0.9926 0.1213 6.431530e-02 -0.5261 -287.5111 6693.0933)" gradientUnits="userSpaceOnUse">
		<stop  offset="9.000000e-02" style="stop-color:#FF5967"/>
		<stop  offset="0.16" style="stop-color:#FF5967;stop-opacity:0.79"/>
		<stop  offset="0.23" style="stop-color:#FF5967;stop-opacity:0.58"/>
		<stop  offset="0.3" style="stop-color:#FF5967;stop-opacity:0.4"/>
		<stop  offset="0.38" style="stop-color:#FF5967;stop-opacity:0.26"/>
		<stop  offset="0.45" style="stop-color:#FF5967;stop-opacity:0.14"/>
		<stop  offset="0.52" style="stop-color:#FF5967;stop-opacity:6.000000e-02"/>
		<stop  offset="0.59" style="stop-color:#FF5967;stop-opacity:2.000000e-02"/>
		<stop  offset="0.66" style="stop-color:#FF5967;stop-opacity:0"/>
		<stop  offset="1" style="stop-color:#FF5967;stop-opacity:0"/>
	</radialGradient>
	<rect x="751.5" y="4753.7" class="st70" width="1920" height="1082"/>
	
		<linearGradient id="SVGID_28_" gradientUnits="userSpaceOnUse" x1="1711.4783" y1="2278.1394" x2="1711.4783" y2="2828.3494" gradientTransform="matrix(1 0 0 -1 0 8113.813)">
		<stop  offset="9.000000e-02" style="stop-color:#FF5967"/>
		<stop  offset="0.16" style="stop-color:#FF5967;stop-opacity:0.79"/>
		<stop  offset="0.23" style="stop-color:#FF5967;stop-opacity:0.58"/>
		<stop  offset="0.3" style="stop-color:#FF5967;stop-opacity:0.4"/>
		<stop  offset="0.38" style="stop-color:#FF5967;stop-opacity:0.26"/>
		<stop  offset="0.45" style="stop-color:#FF5967;stop-opacity:0.14"/>
		<stop  offset="0.52" style="stop-color:#FF5967;stop-opacity:6.000000e-02"/>
		<stop  offset="0.59" style="stop-color:#FF5967;stop-opacity:2.000000e-02"/>
		<stop  offset="0.66" style="stop-color:#FF5967;stop-opacity:0"/>
		<stop  offset="1" style="stop-color:#FF5967;stop-opacity:0"/>
	</linearGradient>
	<rect x="751.5" y="4753.7" class="st71" width="1920" height="1082"/>
	
		<radialGradient id="SVGID_29_" cx="-4004.9934" cy="2018.7754" r="754.88" fx="-4543.7349" fy="1994.4692" gradientTransform="matrix(0.2083 -0.9781 -2.944 -0.6268 8459.9004 2702.333)" gradientUnits="userSpaceOnUse">
		<stop  offset="7.000000e-02" style="stop-color:#FE9B46"/>
		<stop  offset="7.000000e-02" style="stop-color:#FE9B46"/>
		<stop  offset="0.12" style="stop-color:#F98B4E;stop-opacity:0.77"/>
		<stop  offset="0.16" style="stop-color:#F57D55;stop-opacity:0.56"/>
		<stop  offset="0.21" style="stop-color:#F1725B;stop-opacity:0.39"/>
		<stop  offset="0.26" style="stop-color:#EE6860;stop-opacity:0.25"/>
		<stop  offset="0.31" style="stop-color:#EC6163;stop-opacity:0.14"/>
		<stop  offset="0.36" style="stop-color:#EA5B66;stop-opacity:6.000000e-02"/>
		<stop  offset="0.41" style="stop-color:#E95867;stop-opacity:2.000000e-02"/>
		<stop  offset="0.46" style="stop-color:#E95768;stop-opacity:0"/>
	</radialGradient>
	<rect x="751.5" y="4753.7" class="st72" width="1920" height="1082"/>
	
		<linearGradient id="SVGID_30_" gradientUnits="userSpaceOnUse" x1="1711.4783" y1="2364.5693" x2="1711.4783" y2="2713.8193" gradientTransform="matrix(1 0 0 -1 0 8113.813)">
		<stop  offset="7.000000e-02" style="stop-color:#FABC6B"/>
		<stop  offset="0.11" style="stop-color:#FBB268;stop-opacity:0.87"/>
		<stop  offset="0.2" style="stop-color:#FBA162;stop-opacity:0.64"/>
		<stop  offset="0.29" style="stop-color:#FC925E;stop-opacity:0.45"/>
		<stop  offset="0.37" style="stop-color:#FD865A;stop-opacity:0.29"/>
		<stop  offset="0.46" style="stop-color:#FD7D57;stop-opacity:0.16"/>
		<stop  offset="0.54" style="stop-color:#FE7655;stop-opacity:7.000000e-02"/>
		<stop  offset="0.62" style="stop-color:#FE7253;stop-opacity:2.000000e-02"/>
		<stop  offset="0.69" style="stop-color:#FE7153;stop-opacity:0"/>
	</linearGradient>
	<rect x="751.5" y="4753.7" class="st73" width="1920" height="1082"/>
</g>
<g>
	<g>
		<path class="st51" d="M-758.2,5755.3h848c4.8,0,8.8,3.9,8.8,8.8c0,0,0,0,0,0v16.4l0,0h-867.3l0,0v-14.6
			C-768.8,5760-764,5755.3-758.2,5755.3z"/>
		<path class="st52" d="M-258.9,5403.4c-4.2,0,8.1,5.1,3.2,5.1l-16.2,26.7c-4.4,3.4-6.9,8.1-6.9,12.9v345.3h80.7v-371.7
			C-198.2,5408.1-208.2,5404-258.9,5403.4z"/>
		<path class="st51" d="M-207.3,5434.2c-0.1-2.7-2.8-4.8-6.3-4.8h-56.2c-3.5,0-6.3,2.2-6.3,4.9v30c0,0.2-0.1,0.5-0.1,0.7
			c0,0,0,0.1,0,0.1c0,1.1,0.4,2.1,1.1,2.9l0,0c1.8,1.8,4.5,2.5,7,1.9h54.3c3.5,0,6.3-2.2,6.3-4.9v-29.7
			C-207.3,5435-207.3,5434.6-207.3,5434.2z M-263.4,5439.2h30.6l-30.6,16.6L-263.4,5439.2z M-219.9,5444.2v15.9h-29.4L-219.9,5444.2
			z"/>
		<path class="st51" d="M-166.9,5473.4c-0.1-2.7-2.8-4.8-6.3-4.8h-56.2c-9.9-0.6-6.3,2.2-6.3,4.9v30c0,0.2-0.1,0.5-0.1,0.7
			c0,0,0,0.1,0,0.1c0,1-2.9,1.7-2.1,2.6l-0.2,0.3c1.6,1.8-4.4,1.7,10.5,1.9h54.3c3.5,0,6.3-2.2,6.3-4.9v-29.7
			C-166.8,5474.1-166.8,5473.7-166.9,5473.4z M-223,5478.4h30.6l-30.6,16.6V5478.4z M-179.5,5483.3v15.9h-29.3L-179.5,5483.3z"/>
		<path class="st51" d="M-207.3,5513.6c-0.1-2.7-2.8-4.8-6.3-4.8h-56.2c-3.5,0-6.3,2.2-6.3,4.9v30c0,0.2-0.1,0.5-0.1,0.7
			c0,0,0,0.1,0,0.2c0,1.1,0.4,2.1,1.1,2.8l0,0c1.8,1.8,4.5,2.5,7,1.9h54.3c3.5,0,6.3-2.2,6.3-4.9v-29.7
			C-207.3,5514.3-207.3,5514-207.3,5513.6z M-263.4,5518.7h30.6l-30.6,16.5V5518.7z M-219.9,5523.6v15.9h-29.4L-219.9,5523.6z"/>
		<path class="st51" d="M-166.9,5550.3c-0.1-2.7-2.8-4.8-6.3-4.8h-56.2c-3.5,0-6.3,2.2-6.3,4.9v30c0,0.2-0.1,0.5-0.1,0.7
			c0,0,0,0.1,0,0.1c0,1-3.2,1.6-2.4,2.5l-0.8-0.1c1.6,1.8-11.1,2.4,11.4,2.4h54.3c3.5,0,6.3-2.2,6.3-4.9v-29.7
			C-166.8,5551-166.8,5550.7-166.9,5550.3z M-223,5555.3h30.6l-30.6,16.6V5555.3z M-179.5,5560.3v15.9h-29.3L-179.5,5560.3z"/>
		<path class="st51" d="M-208,5590.9c0-2.7-2.8-4.8-6.3-4.8h-56.2c-3.5,0-6.3,2.2-6.3,4.9v30c0,0.2-0.1,0.5-0.1,0.7c0,0,0,0.1,0,0.1
			c0,1.1,0.4,2.1,1.1,2.9l0,0c1.8,1.8,4.5,2.6,7.1,1.9h54.3c3.5,0,6.3-2.2,6.3-4.9V5592C-208,5591.6-207.9,5591.3-208,5590.9z
			 M-264.1,5595.9h30.7l-30.6,16.6L-264.1,5595.9z M-220.5,5600.8v15.9h-29.4L-220.5,5600.8z"/>
		<path class="st51" d="M-208,5621.5c0-2.7-2.8-4.8-6.3-4.8h-56.2c-3.5,0-6.3,2.2-6.3,4.9v30c0,0.2-0.1,0.5-0.1,0.7c0,0,0,0.1,0,0.1
			c0,1.1,0.4,2.1,1.1,2.9l0,0c1.8,1.8,4.5,2.6,7.1,1.9h54.3c3.5,0,6.3-2.2,6.3-4.9v-29.6C-208,5622.3-207.9,5621.9-208,5621.5z
			 M-264.1,5626.5h30.7l-30.6,16.6L-264.1,5626.5z M-220.5,5631.5v15.9h-29.4L-220.5,5631.5z"/>
		<path class="st51" d="M-208,5652.2c0-2.7-2.8-4.8-6.3-4.8h-56.2c-3.5,0-6.3,2.2-6.3,4.9v29.9c0,0.2-0.1,0.5-0.1,0.7
			c0,0,0,0.1,0,0.1c0,1.1,0.4,2.1,1.1,2.9l0,0c1.8,1.8,4.5,2.6,7.1,1.9h54.3c3.5,0,6.3-2.2,6.3-4.9v-29.6
			C-208,5652.9-207.9,5652.6-208,5652.2z M-264.1,5657.2h30.7l-30.6,16.6L-264.1,5657.2z M-220.5,5662.2v15.9h-29.4L-220.5,5662.2z"
			/>
		<path class="st51" d="M-208,5682.9c0-2.7-2.8-4.8-6.3-4.8h-56.2c-3.5,0-6.3,2.2-6.3,4.9v30c0,0.2-0.1,0.5-0.1,0.7c0,0,0,0.1,0,0.1
			c0,1.1,0.4,2.1,1.1,2.9l0,0c1.8,1.8,4.5,2.6,7.1,1.9h54.3c3.5,0,6.3-2.2,6.3-4.9v-29.7C-208,5683.6-207.9,5683.2-208,5682.9z
			 M-264.1,5687.9h30.7l-30.6,16.6L-264.1,5687.9z M-220.5,5692.9v15.8h-29.4L-220.5,5692.9z"/>
		<path class="st51" d="M-208,5721.9c0-2.7-2.8-4.8-6.3-4.8h-56.2c-3.5,0-6.3,2.2-6.3,4.9v30c0,0.2-0.1,0.5-0.1,0.7c0,0,0,0.1,0,0.2
			c0,1.1,0.4,2.1,1.1,2.8l0,0c1.8,1.8,4.5,2.6,7.1,1.9h54.3c3.5,0,6.3-2.2,6.3-4.9V5723C-208,5722.7-207.9,5722.3-208,5721.9z
			 M-264.1,5726.9h30.7l-30.6,16.6L-264.1,5726.9z M-220.5,5731.9v15.9h-29.4L-220.5,5731.9z"/>
		<path class="st53" d="M-261.3,5464.5h95.6c0,0,0.1,0,0.1,0.1v4.8c0,0,0,0.1-0.1,0.1h-95.6c0,0-0.1,0-0.1-0.1L-261.3,5464.5
			C-261.4,5464.6-261.3,5464.5-261.3,5464.5z"/>
		<rect x="-263.4" y="5541.9" class="st53" width="95.8" height="4"/>
		<path class="st52" d="M-300.6,5411.9l-29.8,23.3c-4.4,3.4-6.9,8.1-6.9,12.9v343h80.7v-369.4c0-7.8,6.6-15.5-1-18.3
			C-257.7,5403.5-285.9,5400.3-300.6,5411.9z"/>
		<path class="st53" d="M-275.7,5408.8l-33.8,26.4c-4.4,3.4-6.9,8.1-6.9,12.9v343h80.7v-369.4
			C-235.6,5405.4-260.9,5397.3-275.7,5408.8z"/>
		<path class="st52" d="M-312.4,5721.4v4.1c-0.1,1.4,1,2.6,2.4,2.6l0,0c1.4,0,2.5-1.2,2.4-2.6c0,0,0,0,0,0v-4.1
			c0.1-1.4-1-2.6-2.4-2.6c0,0,0,0,0,0l0,0C-311.4,5718.8-312.5,5720-312.4,5721.4z"/>
		<path class="st52" d="M-312.4,5708.4v4.1c-0.1,1.4,1,2.6,2.4,2.6l0,0c1.4,0,2.5-1.2,2.4-2.6c0,0,0,0,0,0v-4.1
			c0.1-1.4-1-2.6-2.4-2.6c0,0,0,0,0,0l0,0C-311.4,5705.8-312.5,5707-312.4,5708.4z"/>
		<path class="st54" d="M-252.9,5412.8h4.1c1.4,0.1,2.6-1,2.6-2.4l0,0c0-1.4-1.2-2.5-2.6-2.4c0,0,0,0,0,0h-4.1
			c-1.4-0.1-2.6,1-2.6,2.4c0,0,0,0,0,0l0,0C-255.4,5411.8-254.3,5412.9-252.9,5412.8z"/>
		<path class="st52" d="M-272.7,5427.4l-23.2,17.9c-4.7,3.6-7.5,8.3-8.1,13.4c-0.2,1.6-0.3,3.3-0.3,4.9v19.5c0-4.5,2-8.9,5.3-11.9
			l28-23.6c9.2-7.7,29.3-3.8,29.3,11.2v-19.5C-241.7,5424.3-261.3,5416.8-272.7,5427.4z"/>
		<path class="st55" d="M-236.1,5488.9h-16.8c-0.8,0-1.6,0.3-2.3,0.8l-41.7,32.6c-0.6,0.4-1.3,0.7-2,0.7h-15.8
			c-0.6,0-1.2,0.5-1.2,1.2l0,0c0,0.6,0.5,1.2,1.1,1.2c0,0,0,0,0,0h16.4c1.1,0,2.1-0.4,2.9-1l41.4-32.4c0.5-0.4,1.2-0.7,1.9-0.7h15.9
			c0.6,0,1.1-0.5,1.2-1.1l0,0C-234.9,5489.5-235.4,5488.9-236.1,5488.9C-236,5488.9-236,5488.9-236.1,5488.9z"/>
		<path class="st55" d="M-236.1,5516.7h-16.8c-0.8,0-1.6,0.3-2.3,0.8l-41.7,32.6c-0.6,0.4-1.3,0.7-2,0.7h-15.8
			c-0.6,0-1.2,0.5-1.2,1.2l0,0c0,0.6,0.5,1.2,1.1,1.2c0,0,0,0,0,0h16.4c1.1,0,2.1-0.4,2.9-1l41.4-32.4c0.5-0.4,1.2-0.7,1.9-0.7h15.9
			c0.6,0,1.1-0.5,1.2-1.1l0,0C-234.9,5517.3-235.4,5516.7-236.1,5516.7C-236,5516.7-236,5516.7-236.1,5516.7z"/>
		<path class="st52" d="M-258.9,5641.8h3.6c7.1,0,12.9,5.8,12.9,12.9v59.3c0,7.1-5.8,12.9-12.9,12.9h-3.6c-7.1,0-12.9-5.8-12.9-12.9
			v-59.3C-271.8,5647.6-266,5641.8-258.9,5641.8z"/>
		<path class="st56" d="M-120.1,5745v-24.3c-1-3.6,0-24.7-46.1-24.7s-45.1,21.1-46.1,24.7v24.3H-120.1z"/>
		<path class="st57" d="M-191.8,5547.7L-191.8,5547.7V5745h51.2v-197.3l0,0c-0.4-4.9-2.7-9.5-6.5-12.6v-59.8c4-2.2,6.6-5.8,6.6-9.8
			v-78.9l0,0c-0.5-10.7-11.8-45.6-25.6-45.6s-25.1,34.9-25.6,45.6l0,0v79.3c0,4.1,2.6,7.6,6.6,9.8v59.4
			C-189.1,5538.2-191.5,5542.8-191.8,5547.7z"/>
		<path class="st58" d="M-191.8,5547.7L-191.8,5547.7V5745h51.2v-197.3l0,0c-0.4-4.9-2.7-9.5-6.5-12.6v-59.8c4-2.2,6.6-5.8,6.6-9.8
			v-78.9l0,0c-0.5-10.7-11.8-45.6-25.6-45.6s-25.1,34.9-25.6,45.6l0,0v79.3c0,4.1,2.6,7.6,6.6,9.8v59.4
			C-189.1,5538.2-191.5,5542.8-191.8,5547.7z"/>
		<path class="st59" d="M-191.8,5667.8L-191.8,5667.8v30.8c0,0.2,0.1,0.5,0.2,0.7h50.8c0.1-0.2,0.2-0.5,0.2-0.8v-30.6l0,0
			c0,0,0-0.1,0-0.1h-51.2C-191.8,5667.7-191.8,5667.8-191.8,5667.8z"/>
		<path class="st60" d="M-191.8,5547.7L-191.8,5547.7v4.8h51.2v-4.8l0,0c0-0.4,0-0.7-0.1-1h-51
			C-191.8,5547-191.8,5547.3-191.8,5547.7z"/>
		<path class="st60" d="M-191.8,5387.6L-191.8,5387.6v4.8h51.2v-4.8l0,0c0-0.4,0-0.7-0.1-1h-51
			C-191.8,5386.9-191.8,5387.3-191.8,5387.6z"/>
		<path class="st58" d="M-167,5311.8l-5.4,57.8l10.1,0.3l0,0c0.7,0,1.5,0,2.2,0l-6.2-58L-167,5311.8z"/>
		<path class="st61" d="M-141.6,5469.8h-49.4c1.2,2.5,3.2,4.6,5.6,5.9h38.2v-0.3C-144.8,5474.1-142.9,5472.2-141.6,5469.8z"/>
		<path class="st61" d="M-147.2,5535.1h-38.1c-1.9,1.6-3.4,3.5-4.6,5.7h47.3C-143.8,5538.6-145.3,5536.7-147.2,5535.1z"/>
		<path class="st61" d="M-148.7,5559.6v4.8c0,0.8,0.6,1.5,1.4,1.5l0,0c0.8,0,1.4-0.7,1.4-1.5v-4.8c0-0.8-0.6-1.4-1.4-1.5
			c0,0,0,0,0,0l0,0C-148.1,5558.1-148.7,5558.8-148.7,5559.6C-148.7,5559.6-148.7,5559.6-148.7,5559.6z"/>
		<path class="st61" d="M-186.5,5559.6v4.8c0,0.8,0.6,1.5,1.4,1.5h0.1c0.8,0,1.4-0.7,1.4-1.5v-4.8c0-0.8-0.6-1.4-1.4-1.5h0h-0.1
			C-185.9,5558.1-186.5,5558.8-186.5,5559.6C-186.5,5559.6-186.5,5559.6-186.5,5559.6z"/>
		<rect x="-191.9" y="5709.2" class="st60" width="51.2" height="5.9"/>
		<path class="st62" d="M-176.1,5346.9c-8.8,10.3-15.2,31.3-15.7,39.5c0,0.1,0,0.2,0,0.3l0,0v79.3c0,4.1,2.6,7.6,6.6,9.8v59.3
			c-3.5,2.9-5.8,7-6.5,11.5l0,0c0,0.3-0.1,0.7-0.1,1l0,0v151.4c-10.6,2.8-19.4,9.6-20.5,21.9v25.5l20.5-1.5l15.7-0.8L-176.1,5346.9z
			"/>
		
			<rect x="-79" y="5625.1" transform="matrix(0.5579 -0.8299 0.8299 0.5579 -4690.1958 2453.7312)" class="st63" width="73.9" height="7.8"/>
		
			<rect x="-79" y="5679" transform="matrix(0.5579 -0.8299 0.8299 0.5579 -4734.916 2477.5554)" class="st63" width="73.9" height="7.8"/>
		
			<rect x="-79" y="5733.1" transform="matrix(0.5579 -0.8299 0.8299 0.5579 -4779.8091 2501.4641)" class="st63" width="73.9" height="7.8"/>
		<path class="st64" d="M-16.5,5559.4L-16.5,5559.4c3.1,0,5.6,2.5,5.6,5.6v209.6c0,3.1-2.5,5.6-5.6,5.6h0c-3.1,0-5.6-2.5-5.6-5.6
			V5565C-22.1,5561.9-19.6,5559.4-16.5,5559.4z"/>
		<path class="st64" d="M-64.5,5578L-64.5,5578c3.1,0,5.6,2.5,5.6,5.6v191c0,3.1-2.5,5.6-5.6,5.6h0c-3.1,0-5.6-2.5-5.6-5.6v-191
			C-70.1,5580.5-67.6,5578-64.5,5578z"/>
		<path class="st52" d="M-39.7,5588.1l-22.4,13.7c-4.5,2.8-7.3,6.4-7.8,10.3c-0.2,1.3-0.3,2.5-0.3,3.8v15c0-3.4,1.8-6.7,5.1-9.1
			l27-18.1c8.8-5.9,28.2-2.9,28.2,8.6v-15C-9.7,5585.8-28.6,5580-39.7,5588.1z"/>
		<path class="st52" d="M-40.4,5546.5l-22.4,13.7c-4.5,2.8-7.3,6.4-7.8,10.3c-0.2,1.2-0.3,2.5-0.3,3.8v26.3c0-3.4,1.8-6.7,5.1-9.1
			l27-18.1c8.8-5.9,28.2-2.9,28.2,8.6v-26.3C-10.5,5544.1-29.4,5538.3-40.4,5546.5z"/>
		<path class="st52" d="M-40.4,5641.9l-22.4,13.8c-4.5,2.8-7.3,6.4-7.8,10.3c-0.2,1.3-0.3,2.5-0.3,3.8v15c0-3.4,1.8-6.7,5.1-9.1
			l27-18.1c8.8-5.9,28.2-2.9,28.2,8.6v-15C-10.5,5639.6-29.4,5633.8-40.4,5641.9z"/>
		<path class="st52" d="M-40.4,5696.3l-22.4,13.7c-4.5,2.7-7.3,6.4-7.8,10.3c-0.2,1.2-0.3,2.5-0.3,3.8v15c0-3.4,1.8-6.7,5.1-9.1
			l27-18.1c8.8-5.9,28.2-2.9,28.2,8.6v-15C-10.5,5693.9-29.4,5688.1-40.4,5696.3z"/>
		<path class="st52" d="M-40.4,5750.6l-22.4,13.7c-4.5,2.8-7.3,6.4-7.8,10.3c-0.2,1.3-0.3,2.5-0.3,3.8v15c0.9-0.1,5.4,0,5.4,0
			l29.7,0.6h25.3v-34.2C-10.5,5748.2-29.4,5742.4-40.4,5750.6z"/>
		<path class="st52" d="M-355.5,5744.8h257.2c10.9,0,19.7,8.8,19.7,19.7l0,0v32.7l0,0h-298l0,0V5766
			C-376.6,5754.3-367.2,5744.9-355.5,5744.8z"/>
		<path class="st51" d="M-324,5753.1h0.8c2.1,0,3.8,1.7,3.8,3.8v6.9c0,2.1-1.7,3.8-3.8,3.8h-0.8c-2.1,0-3.8-1.7-3.8-3.8v-6.9
			C-327.8,5754.8-326.1,5753.1-324,5753.1z"/>
		<path class="st51" d="M-296,5752.2h0.8c2.1,0,3.8,1.7,3.8,3.8v6.9c0,2.1-1.7,3.8-3.8,3.8h-0.8c-2.1,0-3.8-1.7-3.8-3.8v-6.9
			C-299.8,5753.9-298.1,5752.2-296,5752.2z"/>
		<path class="st51" d="M-234.4,5753.1h0.8c2.1,0,3.8,1.7,3.8,3.8v6.9c0,2.1-1.7,3.8-3.8,3.8h-0.8c-2.1,0-3.8-1.7-3.8-3.8v-6.9
			C-238.1,5754.8-236.4,5753.1-234.4,5753.1z"/>
		<path class="st51" d="M-169.4,5753.1h0.8c2.1,0,3.8,1.7,3.8,3.8v6.9c0,2.1-1.7,3.8-3.8,3.8h-0.8c-2.1,0-3.8-1.7-3.8-3.8v-6.9
			C-173.2,5754.8-171.5,5753.1-169.4,5753.1z"/>
		<path class="st51" d="M-105.2,5753.1h0.8c2.1,0,3.8,1.7,3.8,3.8v6.9c0,2.1-1.7,3.8-3.8,3.8h-0.8c-2.1,0-3.8-1.7-3.8-3.8v-6.9
			C-109,5754.8-107.3,5753.1-105.2,5753.1z"/>
		<path class="st51" d="M-200.7,5753.1h0.8c2.1,0,3.8,1.7,3.8,3.8v6.9c0,2.1-1.7,3.8-3.8,3.8h-0.8c-2.1,0-3.8-1.7-3.8-3.8v-6.9
			C-204.5,5754.8-202.8,5753.1-200.7,5753.1z"/>
		<path class="st51" d="M-265.8,5753.1h0.8c2.1,0,3.8,1.7,3.8,3.8v6.9c0,2.1-1.7,3.8-3.8,3.8h-0.8c-2.1,0-3.8-1.7-3.8-3.8v-6.9
			C-269.6,5754.8-267.9,5753.1-265.8,5753.1z"/>
		<path class="st51" d="M-138,5753.1h0.8c2.1,0,3.8,1.7,3.8,3.8v6.9c0,2.1-1.7,3.8-3.8,3.8h-0.8c-2.1,0-3.8-1.7-3.8-3.8v-6.9
			C-141.8,5754.8-140.1,5753.1-138,5753.1z"/>
		<path class="st52" d="M-759.5,5772.3H87.6c6.1,0,11,4.9,11,11l0,0v14.2l0,0h-867.3l0,0v-16
			C-768.8,5776.3-764.6,5772.2-759.5,5772.3L-759.5,5772.3z"/>
	</g>
	<path class="st74" d="M98.6,5764c0-4.8-3.9-8.8-8.8-8.8H-10.9v-37.6c0.3,0.9,0.4,1.8,0.4,2.7v-14.9c0-1-0.1-1.9-0.4-2.8v-39.3
		c0.3,0.9,0.4,1.8,0.4,2.7v-15c0-1-0.1-1.9-0.4-2.8v-40.5c0.8,1.4,1.2,2.9,1.2,4.5v-14.9c0-1.6-0.4-3.3-1.2-4.7v-13.3
		c0.3,0.9,0.4,1.8,0.4,2.7v-26.3c0-11.5-18.9-17.3-30-9.1l-22.4,13.7c-4.5,2.8-7.3,6.4-7.8,10.3c-0.2,1.2-0.3,2.5-0.3,3.8v26.3
		c0-1.3,0.3-2.6,0.8-3.8v67.1c-0.2,0.6-0.4,1.3-0.5,2c-0.2,1.3-0.3,2.5-0.3,3.8v15c0-1.3,0.3-2.6,0.8-3.8v37.4
		c-0.2,0.6-0.4,1.3-0.5,2c-0.2,1.2-0.3,2.5-0.3,3.8v15c0-1.3,0.3-2.6,0.8-3.8v20.1H-81c-3.4-6.4-10.1-10.4-17.3-10.4h-21.8v-24.2
		c-0.7-2.7-0.3-15.6-20.4-21.6v-146.7l0,0v-4.8l0,0c0-0.3,0-0.7-0.1-1l0,0c-0.2-2-0.9-4-1.8-5.8l0,0c-1.2-2.2-2.7-4.1-4.6-5.7l0,0
		v-59.8l0.8-0.5l0.2-0.2c0.2-0.1,0.4-0.3,0.6-0.4l0.3-0.2l0.6-0.4l0.2-0.1c0.2-0.2,0.5-0.4,0.7-0.6l0,0c0.2-0.2,0.4-0.4,0.6-0.7
		l0.1-0.2c0.2-0.2,0.3-0.4,0.5-0.6l0.1-0.2c0.2-0.2,0.3-0.5,0.5-0.7v-0.1c0.9-1.5,1.4-3.3,1.4-5.1v-73.1l0,0v-4.8l0,0v-0.9l0,0
		c-0.5-9.8-10.1-40.2-22.4-44.9l-3.2-30h-0.7l-2.8,30.2c-2.5,1.2-4.6,2.9-6.3,5l0,0c-0.3,0.3-0.6,0.7-0.9,1.1l-0.4,0.5
		c-0.2,0.3-0.4,0.5-0.6,0.8l-0.4,0.6l-0.6,0.9l-0.3,0.5c-0.3,0.4-0.6,0.9-0.8,1.3c-0.1,0.2-0.3,0.4-0.4,0.6l-0.5,0.9l-0.4,0.7
		c-0.2,0.3-0.4,0.7-0.6,1l-0.4,0.9l-0.6,1.2c-0.1,0.2-0.2,0.5-0.3,0.7s-0.3,0.6-0.4,0.9c-0.1,0.3-0.2,0.5-0.3,0.7
		c-0.2,0.4-0.4,0.8-0.6,1.2c-0.2,0.4-0.3,0.6-0.4,0.9l-0.5,1.1l-0.3,0.8c-0.1,0.3-0.3,0.7-0.4,1c-0.1,0.3-0.2,0.5-0.3,0.7
		c-0.2,0.5-0.4,1-0.6,1.6l-0.2,0.7c-0.1,0.4-0.3,0.7-0.4,1s-0.2,0.5-0.3,0.8s-0.2,0.7-0.3,1c-0.1,0.3-0.2,0.4-0.2,0.7
		c-0.2,0.5-0.3,1-0.5,1.5c-0.1,0.2-0.1,0.5-0.2,0.7c-0.1,0.2-0.2,0.6-0.3,0.9l-0.2,0.7c-0.1,0.3-0.2,0.6-0.3,0.9
		c-0.1,0.3-0.1,0.4-0.2,0.6c-0.1,0.5-0.2,0.9-0.3,1.4l-0.2,0.6c-0.1,0.3-0.1,0.6-0.2,0.8s-0.1,0.4-0.1,0.6c-0.1,0.2-0.1,0.6-0.2,0.9
		l-0.1,0.6c-0.1,0.4-0.1,0.7-0.2,1c0,0.2,0,0.3-0.1,0.5c-0.1,0.2-0.1,0.5-0.1,0.7c0,0.2,0,0.3-0.1,0.5c-0.1,0.2-0.1,0.5-0.1,0.7
		s0,0.4,0,0.5s0,0.4-0.1,0.5s0,0.2,0,0.3l0,0v77.9h-6.3v-42.7c0-13.6-9.9-17.7-59.8-18.3c-3-0.3-28.8-2.4-42.6,8.5l-30,23.3
		c-4.4,3.4-6.9,8.1-6.9,12.9v296.7h-18.2c-7.5,0-14.4,4-18.2,10.4h-384.5c-5.8,0-10.5,4.7-10.5,10.6v14.6h0.1c0,0.3-0.1,0.7-0.1,1
		v16H98.6v-14.2c0-1-0.1-1.9-0.4-2.8h0.4V5764z M-40.4,5750.6l-7.6,4.7h-1.5l27.5-41v33.3C-28,5746-35.1,5746.7-40.4,5750.6z
		 M-40.4,5696.2l-10,6.1l28.3-42.2v33.1C-28,5691.7-35.1,5692.3-40.4,5696.2z M-58.9,5701V5671l20.3-13.5c3.3-2,7.1-3,11-2.9
		L-58.9,5701z M-40.4,5641.9l-9.4,5.8l27.8-41.4v32.6C-28,5637.3-35.1,5638-40.4,5641.9z M-58.9,5647.2v-29.5l21-14
		c3.1-1.9,6.6-2.9,10.2-2.9L-58.9,5647.2z M-38.7,5711.7c3.3-2,7.1-3,10.9-2.9l-31.2,46.4v-29.9L-38.7,5711.7z M-192.4,5478.4
		l-5.8,3.2v-3.2H-192.4z M-185.3,5486.5v12.7h-12.9v-5.7L-185.3,5486.5z M-191.9,5576.1h-6.3v-5.7l6.3-3.4V5576.1z M-198.2,5558.5
		v-3.1h5.8L-198.2,5558.5z M-191.9,5667.8v31.3c-2.2,0.6-4.3,1.3-6.3,2.3V5586h6.3V5667.8z M-190.4,5541.9h-7.7V5509h12.9v26.1l0,0
		c-0.5,0.4-0.9,0.8-1.3,1.3l-0.4,0.5c-0.3,0.3-0.5,0.6-0.8,0.9l-0.5,0.6c-0.2,0.3-0.4,0.5-0.6,0.8c-0.2,0.3-0.3,0.5-0.4,0.7
		s-0.3,0.5-0.5,0.8s-0.3,0.5-0.4,0.8C-190.2,5541.5-190.3,5541.7-190.4,5541.9z M-38.7,5573.3c4.2-2.8,10.9-3.6,16.7-2.4v14
		c-5.8-1.3-12.5-0.5-17.6,3.2l-19.3,11.8v-13L-38.7,5573.3z"/>
</g>
</svg>
