<svg width="80" height="80" viewBox="0 0 80 80" fill="none" xmlns="http://www.w3.org/2000/svg">
<path d="M63.8847 0H16.1154C7.2151 0 0 7.21508 0 16.1153V63.8846C0 72.7849 7.2151 80 16.1154 80H63.8847C72.7849 80 80 72.7849 80 63.8846V16.1153C80 7.21508 72.7849 0 63.8847 0Z" fill="#BF3B21"/>
<path d="M41.806 17.5247V19.2673C41.806 20.2144 41.4297 21.1227 40.76 21.7924C40.0903 22.4621 39.182 22.8384 38.2349 22.8384H13.2274C12.7585 22.838 12.2942 22.9301 11.861 23.1093C11.4277 23.2885 11.034 23.5513 10.7024 23.8827C10.3707 24.2141 10.1076 24.6077 9.92814 25.0408C9.74865 25.4739 9.65625 25.9382 9.65625 26.407V56.554C9.65625 57.5011 10.0325 58.4094 10.7022 59.0791C11.3719 59.7488 12.2802 60.1251 13.2274 60.1251H58.0931C59.0398 60.1244 59.9475 59.7479 60.6167 59.0783C61.2859 58.4086 61.6618 57.5007 61.6618 56.554V17.5296C61.6618 16.5831 61.2858 15.6754 60.6165 15.0062C59.9473 14.3369 59.0396 13.9609 58.0931 13.9609H45.3795C44.9109 13.9603 44.4467 14.052 44.0135 14.2307C43.5803 14.4095 43.1865 14.6718 42.8547 15.0027C42.5228 15.3336 42.2594 15.7267 42.0795 16.1594C41.8996 16.5921 41.8066 17.056 41.806 17.5247V17.5247Z" fill="#9B938C"/>
<path d="M49.3573 24.303V26.0382C49.3573 26.9854 48.981 27.8937 48.3113 28.5634C47.6416 29.2331 46.7333 29.6093 45.7862 29.6093H20.7664C20.2975 29.609 19.8332 29.7011 19.4 29.8803C18.9667 30.0595 18.5731 30.3223 18.2414 30.6537C17.9098 30.9851 17.6467 31.3786 17.4672 31.8117C17.2877 32.2449 17.1953 32.7091 17.1953 33.178V63.3323C17.1953 64.2794 17.5716 65.1877 18.2413 65.8574C18.911 66.5272 19.8193 66.9034 20.7664 66.9034H65.6445C66.5912 66.9027 67.4988 66.5262 68.168 65.8566C68.8372 65.1869 69.2131 64.279 69.2131 63.3323V24.3079C69.2131 23.3614 68.8371 22.4537 68.1679 21.7845C67.4986 21.1152 66.5909 20.7393 65.6445 20.7393H52.9284C51.9824 20.7386 51.0748 21.1136 50.4051 21.7819C49.7355 22.4501 49.3586 23.357 49.3573 24.303Z" fill="#A9D0D3"/>
<path d="M55.8113 46.6941C55.8113 46.6941 55.8113 46.6745 55.8113 46.6622V46.6475C55.7696 46.287 55.5962 45.9546 55.3244 45.714C55.0526 45.4735 54.7016 45.3418 54.3387 45.3442C54.2823 45.3406 54.2257 45.3406 54.1693 45.3442C53.993 45.3641 53.8217 45.4156 53.6637 45.4964C53.1601 43.4604 52.0724 41.6161 50.5344 40.1901C50.6835 40.0908 50.8133 39.9652 50.9173 39.8195C51.1434 39.5017 51.2342 39.1072 51.1698 38.7225C51.1054 38.3378 50.891 37.9944 50.5737 37.7676C49.8534 37.252 49.081 36.8135 48.269 36.4594C48.0915 36.3817 47.9004 36.3399 47.7066 36.3362C47.5128 36.3325 47.3202 36.3671 47.1399 36.4381C46.9595 36.509 46.7949 36.6148 46.6555 36.7494C46.5162 36.8841 46.4047 37.0449 46.3276 37.2227C46.2568 37.3866 46.2168 37.5622 46.2098 37.7406C44.1893 37.1574 42.0427 37.1753 40.0322 37.7921C40.0078 37.4184 39.842 37.068 39.5684 36.8122C39.2949 36.5564 38.9341 36.4145 38.5596 36.4153C38.3489 36.4144 38.1405 36.4588 37.9484 36.5453C37.1549 36.9067 36.4015 37.3501 35.7002 37.8682C35.6866 37.8741 35.6741 37.8824 35.6634 37.8928V37.8928C35.3509 38.1256 35.1433 38.4728 35.0863 38.8583C35.0292 39.2438 35.1273 39.6362 35.3591 39.9495C35.4671 40.0933 35.6001 40.2163 35.7518 40.3128C34.2309 41.7665 33.1702 43.6345 32.701 45.6854C32.4965 45.5842 32.2714 45.5312 32.0432 45.5308C31.6757 45.5291 31.3209 45.6649 31.0484 45.9115C30.776 46.1581 30.6055 46.4976 30.5706 46.8635C30.5314 47.2635 30.5117 47.671 30.5117 48.0759C30.5125 48.5465 30.5378 49.0168 30.5878 49.4847C30.5878 49.4847 30.5878 49.5019 30.5878 49.5117C30.6295 49.8723 30.8029 50.2047 31.0747 50.4452C31.3465 50.6857 31.6975 50.8174 32.0604 50.815H32.2273C32.4044 50.7934 32.5763 50.7411 32.7354 50.6604C33.235 52.7023 34.3221 54.5531 35.8622 55.9839C35.6248 56.1413 35.4382 56.3643 35.3249 56.6256C35.2116 56.887 35.1766 57.1756 35.2241 57.4565C35.2545 57.6475 35.3227 57.8306 35.4247 57.9949C35.5267 58.1593 35.6604 58.3016 35.8181 58.4137C36.5382 58.9301 37.3107 59.3694 38.1227 59.7244C38.4804 59.8808 38.8856 59.8888 39.2492 59.7466C39.6128 59.6043 39.905 59.3236 40.0616 58.9659C40.1328 58.8021 40.1736 58.6266 40.1819 58.4481C42.2018 59.0373 44.3498 59.0237 46.362 58.4088C46.3715 58.5869 46.414 58.7616 46.4872 58.9242C46.6042 59.1821 46.7931 59.4007 47.0312 59.5539C47.2693 59.7071 47.5465 59.7885 47.8297 59.7882C48.0398 59.7884 48.2474 59.7432 48.4384 59.6556C49.245 59.2904 50.0109 58.8412 50.7234 58.3155C50.8793 58.201 51.011 58.0569 51.1112 57.8914C51.2113 57.7259 51.2779 57.5422 51.3071 57.351C51.3363 57.1598 51.3275 56.9647 51.2812 56.7769C51.235 56.589 51.1522 56.4122 51.0376 56.2563C50.9297 56.1126 50.7966 55.9895 50.6448 55.8931C52.1674 54.4406 53.2307 52.5735 53.703 50.5229C53.8642 50.6043 54.0388 50.6559 54.2184 50.6751C54.2667 50.6776 54.315 50.6776 54.3632 50.6751C54.7303 50.6768 55.0848 50.5414 55.3572 50.2953C55.6297 50.0492 55.8003 49.7102 55.8358 49.3448C55.8751 48.9399 55.8947 48.5226 55.8947 48.1177C55.8932 47.642 55.8653 47.1667 55.8113 46.6941ZM43.2057 56.8331C41.477 56.8336 39.7869 56.3214 38.3493 55.3613C36.9117 54.4013 35.7911 53.0364 35.1292 51.4395C34.4673 49.8425 34.2939 48.0851 34.6309 46.3895C34.9678 44.694 35.8 43.1364 37.0223 41.9139C38.2445 40.6913 39.8018 39.8587 41.4972 39.5212C43.1927 39.1838 44.9501 39.3567 46.5473 40.0182C48.1445 40.6796 49.5096 41.7998 50.4701 43.2372C51.4306 44.6745 51.9432 46.3644 51.9432 48.0931C51.9413 50.4101 51.0202 52.6316 49.382 54.2702C47.7439 55.9088 45.5226 56.8305 43.2057 56.8331Z" fill="white"/>
</svg>
